<svg width="252" height="248" viewBox="0 0 252 248" fill="none" xmlns="http://www.w3.org/2000/svg">
<path d="M16.627 100.654C1.33514e-05 110.238 0 110.238 0 110.238C0 110.238 39.056 131.477 54.528 112.46C54.528 112.46 33.254 91.0709 16.627 100.654Z" fill="#608616"/>
<path d="M80.5139 227.361C85.5579 245.877 85.5579 245.877 85.5579 245.877C85.5579 245.877 114.183 210.539 101.564 193.703C101.564 193.703 75.4699 208.845 80.5139 227.361Z" fill="#608616"/>
<path d="M31.5829 121.998C20.7949 124.5 2.92285 125.645 2.92285 125.645C2.92285 125.645 9.60187 142.931 26.8049 144.105C44.0079 145.279 60.4369 131.748 60.4369 131.748C42.5589 117.706 39.7989 120.093 31.5829 121.998Z" fill="#699415"/>
<path d="M32.1268 120.217C16.8518 126.646 2.9668 125.382 2.9668 125.382C12.2128 136.604 22.9518 128.899 35.0198 132.479C47.0878 136.059 60.4388 131.748 60.4388 131.748C60.4388 131.748 56.3298 127.84 49.8668 122.2C43.4038 116.561 36.5638 118.349 32.1268 120.217Z" fill="#506A08"/>
<path d="M43.6208 133.066C38.8708 131.484 30.6108 130.412 19.3998 131.291C8.18784 132.17 2.96582 125.381 2.96582 125.381C2.96582 125.381 6.94682 131.698 11.0988 133.722C15.2498 135.747 25.6478 131.766 37.6738 135.609C49.6988 139.453 60.4388 131.747 60.4388 131.747C60.4388 131.747 48.3718 134.648 43.6208 133.066Z" fill="#699415"/>
<path d="M6.04492 168.932C6.04492 168.932 12.2899 159.525 33.1909 165.634C54.0919 171.742 67.7729 156.364 67.7729 156.364C67.7729 156.364 48.5499 149.222 31.2399 143.679C13.9289 138.136 6.04492 168.932 6.04492 168.932Z" fill="#506A08"/>
<path d="M24.1359 143.425C7.92892 147.751 6.04492 168.932 6.04492 168.932C6.04492 168.932 23.6479 147.894 36.7229 155.583C49.7979 163.272 67.7719 156.363 67.7719 156.363C60.1029 159.7 44.0219 138.116 24.1359 143.425Z" fill="#608616"/>
<path d="M64.0221 201.815C48.4731 214.95 68.3832 235.324 68.3832 235.324C68.3832 235.324 68.6762 219.929 84.2862 211.542C99.8972 203.154 93.2762 184.901 93.2762 184.901C93.2762 184.901 79.5721 188.68 64.0221 201.815Z" fill="#506A08"/>
<path d="M56.9541 212.385C51.5141 222.279 68.3832 235.324 68.3832 235.324C68.3832 235.324 63.6681 212.462 75.5061 206.712C87.3451 200.962 93.2762 184.901 93.2762 184.901C82.4302 181.766 62.3941 202.491 56.9541 212.385Z" fill="#608616"/>
<path d="M39.0513 169.928C30.8543 183.067 10.9062 186.534 10.9062 186.534C10.9062 186.534 41.4762 202.798 52.4052 185.28C63.3342 167.762 77.8603 174.485 77.8603 174.485C77.8603 174.485 47.2483 156.79 39.0513 169.928Z" fill="#608616"/>
<path d="M42.3232 164.705C31.3462 180.914 10.9062 186.534 10.9062 186.534C15.9433 188.738 42.9082 184.093 47.0482 175.147C51.1882 166.201 80.5363 174.135 80.5363 174.135C80.5363 174.135 53.3002 148.496 42.3232 164.705Z" fill="#506A08"/>
<path d="M49.119 186.613C37.443 205.391 28.103 206.165 28.103 206.165C28.103 206.165 57.607 213.706 67.035 200.94C76.463 188.174 79.879 173.16 79.879 173.16C79.879 173.16 60.794 167.835 49.119 186.613Z" fill="#506A08"/>
<path d="M55.349 194.502C48.202 205.664 28.103 206.165 28.103 206.165C28.103 206.165 56.93 217.59 67.035 200.94C77.139 184.29 79.879 173.16 79.879 173.16C79.879 173.16 62.496 183.34 55.349 194.502Z" fill="#608616"/>
<path d="M78.7743 172.095C76.6153 172.914 74.7503 174.212 73.1193 175.835C72.6583 176.294 72.7693 177.553 73.5663 176.926C75.1073 175.713 76.8323 174.783 78.7103 174.202C80.5223 173.641 82.5493 174.052 84.2583 173.292C84.8083 173.048 85.6852 171.878 84.9522 171.366C83.3522 170.247 80.4133 171.474 78.7743 172.095Z" fill="#506A08"/>
<path d="M141.818 0C141.818 0 121.69 40.78 137.711 54.419C137.711 54.419 159.824 33.897 150.821 16.949C141.818 -1.90735e-06 141.818 0 141.818 0Z" fill="#608616"/>
<path d="M21.9788 76.4141C3.29882 80.8141 3.29883 80.8142 3.29883 80.8142C3.29883 80.8142 37.6258 110.644 54.8878 98.6152C54.8878 98.6152 40.6588 72.0141 21.9788 76.4141Z" fill="#608616"/>
<path d="M126.318 2.38916C126.318 2.38916 108.812 8.46616 107.043 25.6192C105.274 42.7712 118.229 59.6591 118.229 59.6591C132.882 42.2761 130.592 39.4352 128.971 31.1582C126.844 20.2902 126.318 2.38916 126.318 2.38916Z" fill="#699415"/>
<path d="M126.58 2.44092C115.045 11.2929 122.374 22.2929 118.378 34.2299C114.382 46.1669 118.229 59.6589 118.229 59.6589C118.229 59.6589 122.276 55.6879 128.137 49.4239C133.997 43.1599 134.064 35.3999 132.351 30.8999C126.455 15.4109 126.58 2.44092 126.58 2.44092Z" fill="#506A08"/>
<path d="M117.962 10.2799C115.795 14.3589 119.414 24.8879 115.157 36.7739C110.9 48.6589 118.229 59.6589 118.229 59.6589C118.229 59.6589 115.748 47.4989 117.493 42.8059C119.238 38.1129 120.595 29.8959 120.105 18.6609C119.615 7.4259 126.58 2.44189 126.58 2.44189C126.58 2.44189 120.129 6.20089 117.962 10.2799Z" fill="#699415"/>
<path d="M82.9502 4.01221C82.9502 4.01221 92.1352 10.5792 85.3072 31.2562C78.4792 51.9332 93.3752 66.1372 93.3752 66.1372C93.3752 66.1372 101.178 47.1732 107.316 30.0652C113.454 12.9562 82.9502 4.01221 82.9502 4.01221Z" fill="#506A08"/>
<path d="M107.816 22.9742C104.053 6.6272 82.9502 4.01221 82.9502 4.01221C82.9502 4.01221 103.366 22.3322 95.2292 35.1342C87.0922 47.9362 93.3752 66.1382 93.3752 66.1382C90.3052 58.3572 112.433 43.0322 107.816 22.9742Z" fill="#608616"/>
<path d="M14.4399 64.015C14.4399 64.015 29.816 64.84 37.658 80.732C45.501 96.623 63.972 90.638 63.972 90.638C63.972 90.638 60.67 76.81 48.08 60.816C35.491 44.822 14.4399 64.015 14.4399 64.015Z" fill="#506A08"/>
<path d="M37.761 53.386C28.061 47.607 14.4399 64.015 14.4399 64.015C14.4399 64.015 37.452 60.094 42.788 72.124C48.124 84.154 63.972 90.638 63.972 90.638C67.481 79.906 47.461 59.165 37.761 53.386Z" fill="#608616"/>
<path d="M80.8121 36.9632C67.9651 28.3172 65.1901 8.26123 65.1901 8.26123C65.1901 8.26123 47.8781 38.2502 65.0071 49.7792C82.1361 61.3082 74.9151 75.5932 74.9151 75.5932C74.9151 75.5932 93.6591 45.6092 80.8121 36.9632Z" fill="#608616"/>
<path d="M85.9192 40.4142C70.1002 28.8832 65.1901 8.26123 65.1901 8.26123C62.8131 13.2192 66.5231 40.3292 75.3201 44.7762C84.1171 49.2232 75.1731 78.2792 75.1731 78.2792C75.1731 78.2792 101.738 51.9452 85.9192 40.4142Z" fill="#506A08"/>
<path d="M63.789 46.4471C45.426 34.1291 44.975 24.7671 44.975 24.7671C44.975 24.7671 36.418 53.9921 48.85 63.8561C61.282 73.7201 76.169 77.6531 76.169 77.6531C76.169 77.6531 82.152 58.7661 63.789 46.4471Z" fill="#506A08"/>
<path d="M55.689 52.4011C44.781 44.8721 44.975 24.7681 44.975 24.7681C44.975 24.7681 32.559 53.1831 48.85 63.8571C65.141 74.5311 76.169 77.6541 76.169 77.6541C76.169 77.6541 66.597 59.9301 55.689 52.4011Z" fill="#608616"/>
<path d="M73.7301 70.8059C73.2871 70.3289 72.0252 70.3959 72.6242 71.2149C73.7832 72.7969 74.6531 74.5529 75.1691 76.4499C75.6661 78.2799 75.1862 80.2919 75.8862 82.0269C76.1112 82.5849 77.2502 83.5019 77.7872 82.7879C78.9612 81.2269 77.8371 78.2479 77.2721 76.5879C76.5291 74.4009 75.2961 72.4919 73.7301 70.8059Z" fill="#506A08"/>
<path d="M194.623 137.821C194.623 137.821 214.877 160.179 231.933 151.382C248.989 142.584 248.989 142.584 248.989 142.584C248.989 142.584 208.454 121.966 194.623 137.821Z" fill="#608616"/>
<path d="M169.85 3.10205C169.85 3.10205 139.608 37.067 151.428 54.472C151.428 54.472 178.2 40.5651 174.025 21.8331C169.85 3.10205 169.85 3.10205 169.85 3.10205Z" fill="#608616"/>
<path d="M223.791 107.503C206.662 105.527 189.619 118.278 189.619 118.278C206.824 133.139 209.692 130.883 217.988 129.363C228.881 127.367 246.787 127.057 246.787 127.057C246.787 127.057 240.921 109.479 223.791 107.503Z" fill="#699415"/>
<path d="M215.044 118.734C203.156 114.594 189.619 118.278 189.619 118.278C189.619 118.278 193.079 122.896 199.734 128.308C203.631 131.477 218.167 133.135 222.687 131.477C238.246 125.768 246.732 127.318 246.732 127.318C238.019 115.677 226.932 122.873 215.044 118.734Z" fill="#506A08"/>
<path d="M238.997 118.606C234.945 116.39 224.372 119.882 212.539 115.482C200.706 111.082 189.619 118.278 189.619 118.278C189.619 118.278 201.808 115.944 206.479 117.746C211.15 119.548 219.351 121.003 230.591 120.648C241.831 120.293 246.731 127.318 246.731 127.318C246.731 127.318 243.049 120.822 238.997 118.606Z" fill="#699415"/>
<path d="M218.417 85.7009C197.823 78.6249 183.441 93.3479 183.441 93.3479C183.441 93.3479 202.31 101.379 219.343 107.723C236.376 114.067 245.688 83.6719 245.688 83.6719C245.688 83.6719 239.01 92.7769 218.417 85.7009Z" fill="#506A08"/>
<path d="M214.42 95.5759C201.717 87.2859 183.441 93.3479 183.441 93.3479C191.258 90.3719 206.315 112.683 226.427 108.308C242.818 104.742 245.688 83.6729 245.688 83.6729C245.688 83.6729 227.122 103.866 214.42 95.5759Z" fill="#608616"/>
<path d="M169.518 37.4588C153.533 45.1088 159.295 63.6508 159.295 63.6508C159.295 63.6508 173.161 60.5159 189.306 48.1199C205.451 35.7239 186.513 14.4438 186.513 14.4438C186.513 14.4438 185.503 29.8088 169.518 37.4588Z" fill="#506A08"/>
<path d="M186.514 14.4438C186.514 14.4438 190.158 37.5008 178.064 42.6918C165.97 47.8828 159.296 63.6508 159.296 63.6508C169.985 67.2878 190.966 47.5209 196.861 37.8909C202.756 28.2619 186.514 14.4438 186.514 14.4438Z" fill="#608616"/>
<path d="M200.14 65.1788C188.406 82.1678 174.209 74.7748 174.209 74.7748C174.209 74.7748 203.964 93.8788 212.764 81.1368C221.565 68.3948 241.652 65.8618 241.652 65.8618C241.652 65.8618 211.874 48.1898 200.14 65.1788Z" fill="#608616"/>
<path d="M201.898 73.4432C194.012 79.3572 171.519 75.0002 171.519 75.0002C171.519 75.0002 197.53 101.881 209.251 86.2022C220.972 70.5232 241.651 65.8622 241.651 65.8622C236.723 63.4262 212.293 65.6472 201.898 73.4432Z" fill="#506A08"/>
<path d="M186.257 48.854C176.244 61.166 172.132 76.005 172.132 76.005C172.132 76.005 190.947 82.215 203.486 64.002C216.025 45.789 225.391 45.451 225.391 45.451C225.391 45.451 196.27 36.541 186.257 48.854Z" fill="#506A08"/>
<path d="M186.257 48.8539C175.387 65.0149 172.132 76.0049 172.132 76.0049C172.132 76.0049 189.97 66.6469 197.63 55.8299C205.29 45.0128 225.39 45.4498 225.39 45.4498C225.39 45.4498 197.127 32.6929 186.257 48.8539Z" fill="#608616"/>
<path d="M178.613 72.537C177.017 73.677 175.251 74.526 173.347 75.018C171.511 75.493 169.506 74.989 167.762 75.668C167.202 75.886 166.271 77.014 166.978 77.56C168.525 78.753 171.518 77.664 173.184 77.12C175.379 76.403 177.303 75.193 179.007 73.648C179.49 73.211 179.438 71.948 178.613 72.537Z" fill="#506A08"/>
<path d="M116.16 193.29C116.16 193.29 93.476 213.179 101.997 230.375C110.518 247.571 110.518 247.571 110.518 247.571C110.518 247.571 131.789 207.375 116.16 193.29Z" fill="#608616"/>
<path d="M200.197 151.45C200.197 151.45 213.669 178.443 232.466 174.572C251.263 170.701 251.263 170.701 251.263 170.701C251.263 170.701 217.792 139.913 200.197 151.45Z" fill="#608616"/>
<path d="M124.238 216.789C126.058 227.713 126.078 245.621 126.078 245.621C126.078 245.621 143.749 240.04 146.001 222.945C148.254 205.85 135.781 188.603 135.781 188.603C120.644 205.565 122.852 208.469 124.238 216.789Z" fill="#699415"/>
<path d="M125.588 198.554C119.553 204.65 119.267 212.405 120.852 216.951C126.309 232.6 125.817 245.561 125.817 245.561C137.598 237.038 130.582 225.836 134.913 214.017C139.244 202.197 135.78 188.602 135.78 188.602C135.78 188.602 131.623 192.458 125.588 198.554Z" fill="#506A08"/>
<path d="M136.041 205.47C134.164 210.112 132.576 218.287 132.748 229.532C132.921 240.777 125.818 245.562 125.818 245.562C125.818 245.562 132.372 241.985 134.653 237.969C136.934 233.953 133.614 223.326 138.205 211.565C142.796 199.805 135.781 188.602 135.781 188.602C135.781 188.602 137.918 200.828 136.041 205.47Z" fill="#699415"/>
<path d="M160.808 182.829C160.808 182.829 152.472 201.565 145.853 218.493C139.234 235.421 169.474 245.224 169.474 245.224C169.474 245.224 160.478 238.401 167.887 217.924C175.297 197.448 160.808 182.829 160.808 182.829Z" fill="#506A08"/>
<path d="M158.079 213.768C166.574 201.201 160.808 182.829 160.808 182.829C163.657 190.693 141.105 205.387 145.154 225.567C148.454 242.014 169.474 245.224 169.474 245.224C169.474 245.224 149.584 226.335 158.079 213.768Z" fill="#608616"/>
<path d="M216.915 169.814C209.524 153.707 186.307 151.4 186.307 151.4C186.307 151.4 193.802 173.084 205.935 189.427C218.068 205.771 239.652 187.179 239.652 187.179C239.652 187.179 224.306 185.92 216.915 169.814Z" fill="#506A08"/>
<path d="M211.544 178.273C206.549 166.097 187.173 159.195 187.173 159.195C183.363 169.824 188.905 188.645 216.04 197.145C226.814 200.52 239.652 187.179 239.652 187.179C239.652 187.179 216.539 190.449 211.544 178.273Z" fill="#608616"/>
<path d="M188.703 199.982C171.906 187.974 179.528 173.899 179.528 173.899C179.528 173.899 159.945 203.34 172.543 212.346C185.141 221.352 187.348 241.478 187.348 241.478C187.348 241.478 205.5 211.99 188.703 199.982Z" fill="#608616"/>
<path d="M178.253 204.692C169.585 199.998 179.346 171.207 179.346 171.207C179.346 171.207 152.047 196.78 167.535 208.753C183.022 220.727 187.348 241.479 187.348 241.479C189.864 236.589 186.921 209.386 178.253 204.692Z" fill="#506A08"/>
<path d="M205.251 186.366C193.102 176.155 178.333 171.803 178.333 171.803C178.333 171.803 171.82 190.515 189.827 203.347C207.835 216.179 208.021 225.549 208.021 225.549C208.021 225.549 217.4 196.577 205.251 186.366Z" fill="#506A08"/>
<path d="M205.251 186.366C189.268 175.236 178.333 171.803 178.333 171.803C178.333 171.803 187.401 189.79 198.092 197.625C208.783 205.459 208.021 225.55 208.021 225.55C208.021 225.55 221.234 197.496 205.251 186.366Z" fill="#608616"/>
<path d="M179.299 173.034C178.854 171.19 179.39 169.193 178.74 167.439C178.531 166.875 177.419 165.926 176.861 166.625C175.643 168.152 176.683 171.162 177.2 172.837C177.882 175.043 179.06 176.986 180.578 178.716C181.007 179.205 182.271 179.174 181.695 178.339C180.581 176.725 179.761 174.945 179.299 173.034Z" fill="#506A08"/>
<path d="M61.5168 61.837C46.1748 61.291 46.1748 61.291 46.1748 61.291C46.1748 61.291 66.3688 91.55 82.2258 85.91C82.2258 85.91 76.8588 62.383 61.5168 61.837Z" fill="#7EA82C"/>
<path d="M51.155 174.875C46.729 189.575 46.729 189.575 46.729 189.575C46.729 189.575 81.126 177.734 79.701 160.964C79.701 160.964 55.581 160.175 51.155 174.875Z" fill="#7EA82C"/>
<path d="M82.5023 159.993C79.1073 159.466 74.8563 163.204 72.3143 165.131C69.3503 167.377 66.7563 169.956 64.8263 173.144C64.6883 173.371 64.6332 174.728 65.0992 174.298C67.8772 171.737 70.4493 169.064 73.6533 167.006C76.4523 165.208 80.0362 164.598 82.5612 162.464C82.9912 162.1 83.3003 160.117 82.5023 159.993Z" fill="#6B9909"/>
<path d="M62.6172 82.6559C54.2382 79.7809 41.6282 72.9829 41.6282 72.9829C41.6282 72.9829 38.8332 87.5409 50.0062 95.6289C61.1792 103.717 78.0602 101.501 78.0602 101.501C71.8822 84.3959 68.9992 84.8459 62.6172 82.6559Z" fill="#86B825"/>
<path d="M63.791 80.2118C50.703 78.0988 41.769 72.8228 41.769 72.8228C43.285 84.3548 53.837 83.6788 60.506 91.2238C67.176 98.7678 78.0601 101.502 78.0601 101.502C78.0601 101.502 76.9291 97.1088 74.9351 90.5438C72.9411 83.9778 67.593 80.8258 63.791 80.2118Z" fill="#6B9909"/>
<path d="M66.093 95.2668C63.541 92.1798 58.3921 87.9528 50.4131 83.7968C42.4351 79.6408 41.769 72.8218 41.769 72.8218C41.769 72.8218 41.792 78.7948 43.751 81.9278C45.709 85.0608 54.451 86.7668 60.98 94.4718C67.509 102.176 78.061 101.501 78.061 101.501C78.061 101.501 68.645 98.3538 66.093 95.2668Z" fill="#86B825"/>
<path d="M25.3989 103.672C25.3989 103.672 33.6229 99.9367 45.2129 112.94C56.8039 125.943 72.6019 121.308 72.6019 121.308C72.6019 121.308 62.5879 108.315 53.1939 97.2177C43.8009 86.1217 25.3989 103.672 25.3989 103.672Z" fill="#6B9909"/>
<path d="M48.4839 94.0359C35.6549 90.1019 25.3999 103.672 25.3999 103.672C25.3999 103.672 46.2589 96.8609 51.8709 107.619C57.4819 118.377 72.6039 121.309 72.6039 121.309C65.9859 120.322 64.2249 98.8629 48.4839 94.0359Z" fill="#7EA82C"/>
<path d="M50.7941 150.554C34.6781 152.874 39.5501 175.135 39.5501 175.135C39.5501 175.135 46.2741 164.815 60.4191 165.741C74.5641 166.667 77.8091 151.478 77.8091 151.478C77.8091 151.478 66.9101 148.234 50.7941 150.554Z" fill="#6B9909"/>
<path d="M41.5189 154.729C33.6349 159.136 39.5499 175.135 39.5499 175.135C39.5499 175.135 46.0409 157.627 56.5099 158.744C66.9779 159.861 77.8099 151.479 77.8099 151.479C71.7799 144.755 49.4029 150.322 41.5189 154.729Z" fill="#7EA82C"/>
<path d="M47.3678 118.338C36.2388 123.777 21.2358 117.675 21.2358 117.675C21.2358 117.675 35.0818 141.666 49.9208 134.414C64.7598 127.162 71.7658 137.879 71.7658 137.879C71.7658 137.879 58.4978 112.899 47.3678 118.338Z" fill="#7EA82C"/>
<path d="M45.9858 115.02C31.6688 121.364 21.2368 117.675 21.2368 117.675C23.7198 121.305 43.9818 129.583 50.5828 125.269C57.1828 120.955 73.7308 138.776 73.7308 138.776C73.7308 138.776 60.3028 108.676 45.9858 115.02Z" fill="#6B9909"/>
<path d="M47.127 133.924C31.247 141.714 24.582 138.281 24.582 138.281C24.582 138.281 41.402 155.902 53.209 151.237C65.016 146.572 73.6971 137.835 73.6971 137.835C73.6971 137.835 63.007 126.134 47.127 133.924Z" fill="#6B9909"/>
<path d="M48.009 141.917C38.429 146.46 24.582 138.281 24.582 138.281C24.582 138.281 39.296 158.25 53.209 151.237C67.121 144.224 73.6971 137.835 73.6971 137.835C73.6971 137.835 57.589 137.374 48.009 141.917Z" fill="#7EA82C"/>
<path d="M73.3989 136.644C71.5869 136.284 69.7719 136.374 67.9769 136.785C67.4699 136.901 67.0109 137.802 67.8169 137.715C69.3769 137.545 70.9409 137.645 72.4619 138.047C73.9289 138.435 75.1299 139.572 76.6119 139.781C77.0889 139.849 78.1789 139.427 77.8999 138.769C77.2879 137.331 74.7739 136.917 73.3989 136.644Z" fill="#6B9909"/>
<path d="M163.258 81.7918C163.258 81.7918 186.958 77.2418 188.034 61.9278C189.11 46.6138 189.11 46.6138 189.11 46.6138C189.11 46.6138 158.17 65.7488 163.258 81.7918Z" fill="#7EA82C"/>
<path d="M75.4218 47.661C60.8838 42.729 60.8838 42.729 60.8838 42.729C60.8838 42.729 71.5278 77.515 88.3368 76.671C88.3368 76.671 89.9598 52.593 75.4218 47.661Z" fill="#7EA82C"/>
<path d="M154.66 49.2551C146.19 60.1411 147.821 77.0891 147.821 77.0891C165.129 71.5061 164.78 68.6091 167.189 62.3071C170.352 54.0321 177.583 41.6651 177.583 41.6651C177.583 41.6651 163.13 38.3691 154.66 49.2551Z" fill="#86B825"/>
<path d="M158.7 59.901C150.93 66.306 147.821 77.089 147.821 77.089C147.821 77.089 152.25 76.11 158.881 74.345C165.512 72.579 168.846 67.343 169.592 63.565C172.157 50.558 177.739 41.812 177.739 41.812C166.161 42.928 166.471 53.496 158.7 59.901Z" fill="#6B9909"/>
<path d="M168.569 43.4772C165.37 45.3262 163.363 54.0032 155.437 60.2622C147.511 66.5212 147.821 77.0892 147.821 77.0892C147.821 77.0892 151.292 67.7882 154.465 65.3442C157.638 62.9002 162.041 57.9012 166.471 50.0712C170.9 42.2412 177.738 41.8122 177.738 41.8122C177.738 41.8122 171.768 41.6282 168.569 43.4772Z" fill="#86B825"/>
<path d="M137.525 43.8658C124.129 54.9998 128.214 70.9488 128.214 70.9488C128.214 70.9488 141.546 61.3908 152.961 52.3858C164.376 43.3808 147.473 24.3838 147.473 24.3838C147.473 24.3838 150.921 32.7318 137.525 43.8658Z" fill="#6B9909"/>
<path d="M147.474 24.3848C147.474 24.3848 153.56 45.4668 142.614 50.7028C131.668 55.9388 128.215 70.9498 128.215 70.9498C129.43 64.3708 150.937 63.3528 156.306 47.7878C160.682 35.1028 147.474 24.3848 147.474 24.3848Z" fill="#7EA82C"/>
<path d="M75.563 36.0541C75.563 36.0541 85.644 43.1311 84.229 57.2361C82.814 71.3411 97.882 75.1101 97.882 75.1101C97.882 75.1101 101.503 64.3301 99.741 48.1431C97.98 31.9551 75.563 36.0541 75.563 36.0541Z" fill="#6B9909"/>
<path d="M75.563 36.054C75.563 36.054 92.836 43.147 91.358 53.571C89.879 63.994 97.882 75.11 97.882 75.11C104.811 69.316 100.021 46.76 95.89 38.729C91.758 30.696 75.563 36.054 75.563 36.054Z" fill="#7EA82C"/>
<path d="M115.903 47.8282C122.637 62.9092 111.684 69.5402 111.684 69.5402C111.684 69.5402 137.108 57.1442 132.057 45.8332C127.006 34.5222 133.624 19.7402 133.624 19.7402C133.624 19.7402 109.168 32.7472 115.903 47.8282Z" fill="#7EA82C"/>
<path d="M133.624 19.7402C129.91 22.0962 120.936 42.0602 125.02 48.8062C129.103 55.5522 110.72 71.4722 110.72 71.4722C110.72 71.4722 142.78 62.8522 136.935 48.3242C131.09 33.7962 133.624 19.7402 133.624 19.7402Z" fill="#6B9909"/>
<path d="M112.914 22.3701C112.914 22.3701 94.7219 38.5701 98.9749 50.5311C103.228 62.4921 111.66 71.4701 111.66 71.4701C111.66 71.4701 123.724 61.1921 116.488 45.0521C109.252 28.9121 112.914 22.3701 112.914 22.3701Z" fill="#6B9909"/>
<path d="M98.9751 50.5311C105.502 64.6771 111.66 71.4701 111.66 71.4701C111.66 71.4701 112.678 55.3891 108.469 45.6571C104.26 35.9261 112.913 22.3691 112.913 22.3691C112.913 22.3691 92.4471 36.3851 98.9751 50.5311Z" fill="#7EA82C"/>
<path d="M111.984 65.5991C112.1 67.1641 111.946 68.7241 111.491 70.2291C111.053 71.6811 109.875 72.8421 109.614 74.3161C109.53 74.7901 109.914 75.8951 110.581 75.6381C112.039 75.0771 112.539 72.5791 112.86 71.2141C113.282 69.4161 113.255 67.5981 112.907 65.7911C112.809 65.2801 111.924 64.7901 111.984 65.5991Z" fill="#6B9909"/>
<path d="M166.519 162.495C166.519 162.495 170.783 186.248 186.083 187.508C201.383 188.768 201.383 188.768 201.383 188.768C201.383 188.768 182.622 157.601 166.519 162.495Z" fill="#7EA82C"/>
<path d="M172.542 87.6421C172.542 87.6421 196.599 89.5541 201.706 75.0771C206.813 60.6001 206.813 60.6001 206.813 60.6001C206.813 60.6001 171.901 70.8241 172.542 87.6421Z" fill="#7EA82C"/>
<path d="M199.157 154.29C188.374 145.69 171.407 147.116 171.407 147.116C176.781 164.49 179.682 164.176 185.954 166.661C194.19 169.924 206.469 177.303 206.469 177.303C206.469 177.303 209.94 162.89 199.157 154.29Z" fill="#86B825"/>
<path d="M187.173 160.927C180.862 153.08 171.407 147.115 171.407 147.115C171.407 147.115 172.332 151.556 174.018 158.207C175.704 164.858 180.899 168.256 184.669 169.047C197.644 171.768 206.322 177.455 206.322 177.455C205.345 165.865 193.484 168.774 187.173 160.927Z" fill="#6B9909"/>
<path d="M188.142 154.934C181.979 146.933 171.408 147.116 171.408 147.116C171.408 147.116 180.666 150.699 183.072 153.901C185.478 157.103 190.424 161.566 198.2 166.09C205.976 170.613 206.323 177.456 206.323 177.456C206.323 177.456 206.578 171.488 204.768 168.268C202.957 165.047 194.304 162.934 188.142 154.934Z" fill="#86B825"/>
<path d="M204.752 137.221C193.781 123.692 177.783 127.584 177.783 127.584C177.783 127.584 187.18 141.03 196.046 152.553C204.913 164.076 224.113 147.403 224.113 147.403C224.113 147.403 215.723 150.75 204.752 137.221Z" fill="#6B9909"/>
<path d="M197.855 142.226C192.751 131.217 177.783 127.584 177.783 127.584C184.347 128.878 185.106 150.396 200.604 155.952C213.235 160.481 224.112 147.403 224.112 147.403C224.112 147.403 202.958 153.234 197.855 142.226Z" fill="#7EA82C"/>
<path d="M192.026 83.7679C177.939 82.1829 173.989 97.2039 173.989 97.2039C173.989 97.2039 184.725 100.954 200.932 99.3879C217.139 97.8219 213.311 75.3579 213.311 75.3579C213.311 75.3579 206.112 85.3529 192.026 83.7679Z" fill="#6B9909"/>
<path d="M195.605 90.9399C185.2 89.3359 173.989 97.2039 173.989 97.2039C179.699 104.202 202.311 99.6839 210.392 95.6499C218.473 91.6159 213.311 75.3569 213.311 75.3569C213.311 75.3569 206.009 92.5439 195.605 90.9399Z" fill="#7EA82C"/>
<path d="M201.051 115.552C185.89 122.104 179.392 111.071 179.392 111.071C179.392 111.071 191.481 136.642 202.852 131.728C214.223 126.814 228.924 133.61 228.924 133.61C228.924 133.61 216.212 109 201.051 115.552Z" fill="#7EA82C"/>
<path d="M199.964 124.656C193.17 128.658 177.472 110.084 177.472 110.084C177.472 110.084 188.167 142.343 202.765 136.674C217.362 131.005 228.924 133.61 228.924 133.61C226.613 129.868 206.758 120.655 199.964 124.656Z" fill="#6B9909"/>
<path d="M198.552 98.5929C186.541 102.702 177.461 111.025 177.461 111.025C177.461 111.025 187.593 123.212 203.819 116.171C220.045 109.13 226.542 112.87 226.542 112.87C226.542 112.87 210.563 94.4839 198.552 98.5929Z" fill="#6B9909"/>
<path d="M194.104 96.8298C179.88 103.186 177.463 111.025 177.463 111.025C177.463 111.025 193.531 112.237 203.312 108.146C213.093 104.055 226.544 112.87 226.544 112.87C226.544 112.87 208.328 90.4728 194.104 96.8298Z" fill="#7EA82C"/>
<path d="M183.328 111.42C181.762 111.517 180.204 111.344 178.704 110.872C177.257 110.416 176.11 109.224 174.64 108.946C174.167 108.857 173.058 109.227 173.307 109.897C173.85 111.362 176.342 111.892 177.704 112.229C179.497 112.673 181.315 112.668 183.126 112.341C183.637 112.249 184.138 111.37 183.328 111.42Z" fill="#6B9909"/>
<path d="M64.4509 186.025C62.9429 201.302 62.9429 201.302 62.9429 201.302C62.9429 201.302 94.4108 183.049 89.7778 166.869C89.7778 166.869 65.9589 170.748 64.4509 186.025Z" fill="#7EA82C"/>
<path d="M164.524 174.104C164.524 174.104 162.222 198.126 176.615 203.467C191.007 208.808 191.007 208.808 191.007 208.808C191.007 208.808 181.35 173.735 164.524 174.104Z" fill="#7EA82C"/>
<path d="M85.2987 186.235C81.9027 194.417 74.3267 206.575 74.3267 206.575C74.3267 206.575 88.6796 210.279 97.4546 199.636C106.229 188.993 105.077 172.006 105.077 172.006C87.6166 177.097 87.8847 180.004 85.2987 186.235Z" fill="#86B825"/>
<path d="M82.9328 184.91C80.0018 197.84 74.1748 206.424 74.1748 206.424C85.7788 205.635 85.7678 195.062 93.7158 188.879C101.664 182.696 105.076 172.005 105.076 172.005C105.076 172.005 100.621 172.858 93.9428 174.436C87.2658 176.014 83.7838 181.154 82.9328 184.91Z" fill="#9DBB1D"/>
<path d="M98.1028 183.558C94.8618 185.911 90.3188 190.785 85.6708 198.486C81.0218 206.188 74.1748 206.424 74.1748 206.424C74.1748 206.424 80.1378 206.776 83.3868 205.018C86.6368 203.26 88.8888 194.643 96.9878 188.611C105.088 182.579 105.076 172.005 105.076 172.005C105.076 172.005 101.344 181.205 98.1028 183.558Z" fill="#86B825"/>
<path d="M99.2407 196.553C87.5757 205.232 103.936 224.699 103.936 224.699C103.936 224.699 100.725 216.257 114.431 205.506C128.136 194.755 124.503 178.696 124.503 178.696C124.503 178.696 110.905 187.874 99.2407 196.553Z" fill="#6B9909"/>
<path d="M95.7679 201.055C91.0359 213.611 103.935 224.699 103.935 224.699C103.935 224.699 98.4469 203.453 109.537 198.529C120.627 193.604 124.502 178.697 124.502 178.697C123.102 185.239 101.575 185.649 95.7679 201.055Z" fill="#7EA82C"/>
<path d="M172.134 193.589C176.61 180.138 162.736 173.155 162.736 173.155C162.736 173.155 156.839 182.878 155.006 199.057C153.172 215.236 175.941 216.156 175.941 216.156C175.941 216.156 167.658 207.039 172.134 193.589Z" fill="#6B9909"/>
<path d="M164.375 195.6C168.105 185.755 162.736 173.155 162.736 173.155C154.705 177.287 154.428 200.345 156.697 209.087C158.965 217.829 175.941 216.156 175.941 216.156C175.941 216.156 160.645 205.445 164.375 195.6Z" fill="#7EA82C"/>
<path d="M141.064 178.644C141.064 178.644 128.714 188.578 135.492 204.915C142.27 221.253 138.424 227.689 138.424 227.689C138.424 227.689 157.067 212.009 153.153 199.933C149.24 187.856 141.064 178.644 141.064 178.644Z" fill="#506A08"/>
<path d="M141.064 178.644C141.064 178.644 139.592 194.69 143.524 204.536C147.456 214.382 138.424 227.689 138.424 227.689C138.424 227.689 161.249 211.632 155.124 197.307C148.999 182.982 141.064 178.644 141.064 178.644Z" fill="#608616"/>
<path d="M142.26 174.508C140.787 175.028 140.216 177.511 139.857 178.866C139.384 180.652 139.36 182.469 139.657 184.286C139.741 184.8 140.611 185.314 140.575 184.504C140.504 182.937 140.701 181.382 141.198 179.889C141.677 178.449 142.888 177.322 143.19 175.856C143.287 175.385 142.934 174.27 142.26 174.508Z" fill="#6B9909"/>
<path d="M111.13 55.843C101.264 48.48 101.264 48.48 101.264 48.48C101.264 48.48 94.4922 76.907 113.795 81.168C113.795 81.168 120.996 63.206 111.13 55.843Z" fill="#95C23C"/>
<path d="M52.7013 125.64C43.0733 133.311 43.0732 133.311 43.0732 133.311C43.0732 133.311 71.1573 141.205 77.8723 129.498C77.8723 129.498 62.3293 117.969 52.7013 125.64Z" fill="#9DBB1D"/>
<path d="M92.9291 54.1128C92.9291 54.1128 84.4412 62.4348 88.1162 72.8678C91.7902 83.3008 103.932 89.5448 103.932 89.5448C107.666 75.4468 105.56 74.4268 102.352 70.0708C98.1402 64.3508 92.9291 54.1128 92.9291 54.1128Z" fill="#9DBB1D"/>
<path d="M93.0951 54.0718C88.8311 62.3668 96.0961 66.7378 97.0501 74.7568C98.0041 82.7748 103.932 89.5458 103.932 89.5458C103.932 89.5458 105.191 86.1328 106.873 80.8938C108.555 75.6548 106.467 71.1358 104.241 68.9958C96.5771 61.6278 93.0951 54.0718 93.0951 54.0718Z" fill="#749109"/>
<path d="M68.2212 66.9392C68.2212 66.9392 75.3482 68.2302 77.0542 82.0942C78.7612 95.9582 91.2932 100.114 91.2932 100.114C91.2932 100.114 90.6222 86.9772 89.4932 75.3722C88.3642 63.7672 68.2212 66.9392 68.2212 66.9392Z" fill="#749109"/>
<path d="M87.8392 71.1231C81.1772 62.6731 68.2212 66.9391 68.2212 66.9391C68.2212 66.9391 85.0832 71.9691 83.8722 81.6241C82.6612 91.2791 91.2932 100.114 91.2932 100.114C87.3802 96.4431 96.0142 81.4911 87.8392 71.1231Z" fill="#95C23C"/>
<path d="M66.7742 111.555C55.0892 105.728 44.9302 120.515 44.9302 120.515C44.9302 120.515 54.0742 116.78 62.9772 123.848C71.8812 130.916 80.9532 122.382 80.9532 122.382C80.9532 122.382 78.4592 117.381 66.7742 111.555Z" fill="#749109"/>
<path d="M60.7112 108.09C51.1832 108.09 44.9312 120.515 44.9312 120.515C44.9312 120.515 55.9862 113.838 64.1762 115.886C71.1052 117.618 80.9542 122.382 80.9542 122.382C80.0482 115.196 67.9532 108.09 60.7112 108.09Z" fill="#95C23C"/>
<path d="M76.0109 86.636C66.1899 85.142 59.0849 74.27 59.0849 74.27C59.0849 74.27 57.2629 96.407 70.3569 98.4C83.4509 100.392 83.1779 110.656 83.1779 110.656C83.1779 110.656 85.8319 88.131 76.0109 86.636Z" fill="#9DBB1D"/>
<path d="M79.919 87.238C67.584 84.885 59.085 74.271 59.085 74.271C59.065 77.798 68.646 92.504 74.967 92.673C81.288 92.842 84.063 112.145 84.063 112.145C84.063 112.145 92.254 89.591 79.919 87.238Z" fill="#749109"/>
<path d="M68.7368 96.8018C54.7108 94.6898 51.8838 89.3838 51.8838 89.3838C51.8838 89.3838 54.9298 108.679 64.8438 110.993C74.7578 113.307 84.4698 111.509 84.4698 111.509C84.4698 111.509 82.7628 98.9148 68.7368 96.8018Z" fill="#749109"/>
<path d="M51.8838 89.3838C51.8838 89.3838 52.4698 109.267 64.8438 110.993C77.2178 112.72 84.4698 111.509 84.4698 111.509C84.4698 111.509 74.0608 103.853 65.6708 102.475C57.2808 101.097 51.8838 89.3838 51.8838 89.3838Z" fill="#95C23C"/>
<path d="M169.101 115.441C169.101 115.441 186.803 123.259 194.503 113.654C202.203 104.048 202.203 104.048 202.203 104.048C202.203 104.048 173.069 102.541 169.101 115.441Z" fill="#95C23C"/>
<path d="M119.436 42.9561C119.436 42.9561 110.575 70.75 122.043 77.866C122.043 77.866 134.103 62.7311 126.77 52.8441C119.436 42.9561 119.436 42.9561 119.436 42.9561Z" fill="#95C23C"/>
<path d="M178.284 90.0642C167.73 93.3752 161.07 105.294 161.07 105.294C175.03 109.514 176.122 107.444 180.587 104.389C186.45 100.377 196.862 95.5242 196.862 95.5242C196.862 95.5242 188.838 86.7532 178.284 90.0642Z" fill="#9DBB1D"/>
<path d="M176.088 98.927C168.041 99.603 161.07 105.294 161.07 105.294C161.07 105.294 164.437 106.67 169.614 108.533C174.792 110.395 179.38 108.465 181.596 106.314C189.224 98.909 196.897 95.691 196.897 95.691C188.755 91.142 184.135 98.251 176.088 98.927Z" fill="#749109"/>
<path d="M173.772 97.675C165.69 98.184 161.07 105.293 161.07 105.293C161.07 105.293 167.604 100.745 170.812 100.582C174.02 100.419 179.205 99.133 185.699 95.992C192.193 92.851 196.898 95.689 196.898 95.689C196.898 95.689 193.045 92.843 190.093 92.602C187.139 92.362 181.855 97.167 173.772 97.675Z" fill="#9DBB1D"/>
<path d="M169.85 76.9082C155.936 78.1342 150.945 92.2962 150.945 92.2962C150.945 92.2962 164.098 92.0802 175.734 91.3532C187.371 90.6272 184.898 70.3862 184.898 70.3862C184.898 70.3862 183.764 75.6822 169.85 76.9082Z" fill="#749109"/>
<path d="M169.68 85.5192C160.073 83.9752 150.945 92.2962 150.945 92.2962C154.749 88.5132 169.394 97.6592 180.038 89.8482C188.713 83.4822 184.898 70.3862 184.898 70.3862C184.898 70.3862 179.287 87.0642 169.68 85.5192Z" fill="#95C23C"/>
<path d="M132.16 45.2559C132.16 45.2559 135.576 54.5229 128.205 63.1769C120.834 71.8309 129.048 81.1929 129.048 81.1929C129.048 81.1929 136.356 75.7379 142.583 64.2619C148.81 52.7849 132.16 45.2559 132.16 45.2559Z" fill="#749109"/>
<path d="M132.16 45.2559C132.16 45.2559 140.311 57.8169 134.578 64.0149C128.845 70.2119 129.048 81.1939 129.048 81.1939C136.261 80.5369 143.399 63.4789 144.341 56.2979C145.283 49.1159 132.16 45.2559 132.16 45.2559Z" fill="#7EA82C"/>
<path d="M153.382 71.4318C150.938 84.4488 140.69 83.8208 140.69 83.8208C140.69 83.8208 163.111 87.2528 164.944 77.4898C166.777 67.7268 177.888 61.0018 177.888 61.0018C177.888 61.0018 155.826 58.4148 153.382 71.4318Z" fill="#95C23C"/>
<path d="M158.947 76.2371C158.56 82.5481 139.173 84.6541 139.173 84.6541C139.173 84.6541 161.429 93.6211 164.207 81.3741C166.985 69.1281 177.887 61.0011 177.887 61.0011C174.363 60.8601 159.334 69.9261 158.947 76.2371Z" fill="#749109"/>
<path d="M140.987 65.4872C138.331 75.3152 139.793 85.0832 139.793 85.0832C139.793 85.0832 152.439 83.8132 155.035 69.8692C157.631 55.9242 163.032 53.2832 163.032 53.2832C163.032 53.2832 143.643 55.6592 140.987 65.4872Z" fill="#749109"/>
<path d="M139.533 68.2462C137.379 80.5522 139.793 85.0832 139.793 85.0832C139.793 85.0832 147.805 74.9452 149.472 66.6082C151.139 58.2712 163.032 53.2832 163.032 53.2832C163.032 53.2832 141.687 55.9392 139.533 68.2462Z" fill="#95C23C"/>
<path d="M134.413 170.138C134.413 170.138 126.382 187.745 135.894 195.56C145.406 203.375 145.406 203.375 145.406 203.375C145.406 203.375 147.264 174.261 134.413 170.138Z" fill="#95C23C"/>
<path d="M172.552 123.535C172.552 123.535 187.54 135.777 197.516 128.563C207.492 121.349 207.492 121.349 207.492 121.349C207.492 121.349 179.806 112.154 172.552 123.535Z" fill="#9DBB1D"/>
<path d="M143.876 161.259C139.377 175.876 141.512 177.058 144.636 181.804C148.738 188.036 153.672 199.067 153.672 199.067C153.672 199.067 162.831 190.767 159.496 179.612C156.162 168.457 143.876 161.259 143.876 161.259Z" fill="#9DBB1D"/>
<path d="M143.876 161.259C143.876 161.259 142.42 164.779 140.443 170.195C138.466 175.612 140.424 180.47 142.632 182.836C150.234 190.979 153.498 199.102 153.498 199.102C158.284 190.609 150.961 185.636 150.334 177.16C149.708 168.684 143.876 161.259 143.876 161.259Z" fill="#749109"/>
<path d="M171.157 170.926C170.099 156.998 157.774 152.262 157.774 152.262C157.774 152.262 157.832 165.416 158.418 177.061C159.004 188.706 179.274 186.477 179.274 186.477C179.274 186.477 172.215 184.854 171.157 170.926Z" fill="#749109"/>
<path d="M164.325 171.077C165.985 161.49 156.857 150.533 156.857 150.533C160.594 154.383 152.19 170.644 159.872 181.382C166.133 190.133 179.274 186.476 179.274 186.476C179.274 186.476 162.665 180.665 164.325 171.077Z" fill="#6B9909"/>
<path d="M187.166 129.874C178.602 122.399 169.141 130.5 169.141 130.5C169.141 130.5 174.508 137.873 185.908 144.238C197.308 150.603 205.038 134.045 205.038 134.045C205.038 134.045 195.73 137.349 187.166 129.874Z" fill="#749109"/>
<path d="M186.252 136.237C180.124 130.43 169.141 130.5 169.141 130.5C169.711 137.72 186.682 145.063 193.851 146.092C201.02 147.121 205.038 134.045 205.038 134.045C205.038 134.045 192.379 142.044 186.252 136.237Z" fill="#7EA82C"/>
<path d="M178.608 154.95C165.621 152.349 166.373 142.109 166.373 142.109C166.373 142.109 162.671 164.487 172.411 166.437C182.151 168.388 188.742 179.579 188.742 179.579C188.742 179.579 191.595 157.551 178.608 154.95Z" fill="#95C23C"/>
<path d="M173.735 160.456C167.429 159.993 165.557 140.581 165.557 140.581C165.557 140.581 156.323 162.728 168.535 165.653C180.747 168.578 188.741 179.578 188.741 179.578C188.926 176.057 180.042 160.919 173.735 160.456Z" fill="#749109"/>
<path d="M184.701 142.628C174.906 139.854 165.121 141.198 165.121 141.198C165.121 141.198 166.238 153.858 180.151 156.622C194.063 159.386 196.639 164.818 196.639 164.818C196.639 164.818 194.496 145.401 184.701 142.628Z" fill="#749109"/>
<path d="M184.701 142.628C172.421 140.326 165.121 141.198 165.121 141.198C165.121 141.198 175.162 149.332 183.478 151.099C191.794 152.866 196.639 164.819 196.639 164.819C196.639 164.819 196.981 144.93 184.701 142.628Z" fill="#9DBB1D"/>
<path d="M56.3782 139.061C48.4102 148.445 48.4102 148.445 48.4102 148.445C48.4102 148.445 75.4362 155.73 81.8202 137.992C81.8202 137.992 64.3452 129.677 56.3782 139.061Z" fill="#95C23C"/>
<path d="M126.266 176.963C126.266 176.963 112.709 190.773 118.984 201.365C125.259 211.956 125.259 211.956 125.259 211.956C125.259 211.956 140.955 188.78 126.266 176.963Z" fill="#6B9909"/>
<path d="M70.0268 148.716C64.0528 152.56 53.5078 157.118 53.5078 157.118C53.5078 157.118 61.2808 166.112 71.9238 163.1C82.5668 160.088 89.5618 148.363 89.5618 148.363C75.7258 143.749 74.5758 145.788 70.0268 148.716Z" fill="#9DBB1D"/>
<path d="M69.071 146.763C61.237 153.95 53.4771 156.95 53.4771 156.95C61.4881 161.727 66.306 154.751 74.369 154.302C82.432 153.854 89.561 148.362 89.561 148.362C89.561 148.362 86.2341 146.891 81.1111 144.883C75.9891 142.875 71.347 144.675 69.071 146.763Z" fill="#749109"/>
<path d="M64.6801 156.963C58.1001 159.919 53.4771 156.949 53.4771 156.949C53.4771 156.949 57.248 159.903 60.192 160.227C63.137 160.552 68.555 155.898 76.649 155.618C84.743 155.338 89.561 148.361 89.561 148.361C89.561 148.361 82.901 152.722 79.69 152.795C76.48 152.868 71.2601 154.007 64.6801 156.963Z" fill="#9DBB1D"/>
<path d="M74.509 161.882C62.857 162.279 64.757 182.582 64.757 182.582C64.757 182.582 66.494 175.551 80.437 174.718C94.38 173.886 99.315 161.64 99.315 161.64C99.315 161.64 86.162 161.485 74.509 161.882Z" fill="#749109"/>
<path d="M70.1642 163.266C61.3122 169.384 64.7562 182.583 64.7562 182.583C64.7562 182.583 70.8362 166.071 80.3952 167.886C88.8212 169.486 98.7242 162.862 100.955 161.269C96.3472 163.992 80.6412 156.024 70.1642 163.266Z" fill="#6B9909"/>
<path d="M100.955 161.268C101.124 161.168 101.282 161.058 101.421 160.927C101.421 160.927 101.255 161.054 100.955 161.268Z" fill="#6B9909"/>
<path d="M106.882 189.9C100.333 201.196 116.764 209.193 116.764 209.193C116.764 209.193 113.611 199.833 121.224 191.391C128.837 182.949 120.89 173.358 120.89 173.358C120.89 173.358 113.431 178.604 106.882 189.9Z" fill="#749109"/>
<path d="M120.89 173.357C113.661 173.81 106.045 190.66 104.9 197.811C103.755 204.963 116.764 209.192 116.764 209.192C116.764 209.192 108.971 196.406 114.877 190.373C120.782 184.34 120.89 173.357 120.89 173.357Z" fill="#95C23C"/>
<path d="M84.904 176.045C82.796 185.752 71.5 192.161 71.5 192.161C71.5 192.161 93.479 195.37 96.29 182.427C99.101 169.484 109.327 170.401 109.327 170.401C109.327 170.401 87.012 166.338 84.904 176.045Z" fill="#6B9909"/>
<path d="M85.75 172.183C82.627 184.346 71.5 192.161 71.5 192.161C75.019 192.403 90.298 183.764 90.863 177.466C91.428 171.168 110.867 169.611 110.867 169.611C110.867 169.611 88.873 160.02 85.75 172.183Z" fill="#749109"/>
<path d="M94.5928 183.943C91.6038 197.809 86.1309 200.297 86.1309 200.297C86.1309 200.297 105.579 198.469 108.512 188.72C111.444 178.971 110.259 169.165 110.259 169.165C110.259 169.165 97.5818 170.078 94.5928 183.943Z" fill="#749109"/>
<path d="M100.062 187.36C98.1599 195.647 86.1309 200.297 86.1309 200.297C86.1309 200.297 106.716 200.886 109.217 188.645C111.717 176.404 110.259 169.165 110.259 169.165C110.259 169.165 101.964 179.073 100.062 187.36Z" fill="#9DBB1D"/>
<path d="M70.2329 125.606C59.3769 132.683 59.377 132.683 59.377 132.683C59.377 132.683 84.459 148.144 96.224 132.163C96.224 132.163 81.0889 118.529 70.2329 125.606Z" fill="#749109"/>
<path d="M77.1518 123.14C65.1878 123.386 59.4468 133.094 59.4468 133.094C59.4468 133.094 78.8168 125.538 95.7758 132.485C95.7758 132.485 89.1158 122.894 77.1518 123.14Z" fill="#7EA82C"/>
<path d="M83.4062 82.835C71.4072 80.084 71.4072 80.084 71.4072 80.084C71.4072 80.084 77.3872 107.428 96.0732 104.926C96.0732 104.926 95.4052 85.585 83.4062 82.835Z" fill="#749109"/>
<path d="M71.1719 80.402C71.1719 80.402 89.1159 88.657 95.5569 104.831C95.5569 104.831 97.7189 93.951 89.6569 85.936C81.5949 77.922 71.1719 80.402 71.1719 80.402Z" fill="#7EA82C"/>
<path d="M114.297 56.918C114.297 56.918 100.14 81.064 115.565 91.902C115.565 91.902 128.196 77.24 121.246 67.079C114.297 56.918 114.297 56.918 114.297 56.918Z" fill="#749109"/>
<path d="M113.908 56.9932C113.908 56.9932 121.491 75.2312 115.25 91.4842C115.25 91.4842 124.219 84.9572 123.734 73.6002C123.248 62.2422 113.908 56.9932 113.908 56.9932Z" fill="#7EA82C"/>
<path d="M135.606 97.9159C135.606 97.9159 154.876 96.1359 156.931 83.9979C158.986 71.8599 158.986 71.8599 158.986 71.8599C158.986 71.8599 132.031 79.4059 135.606 97.9159Z" fill="#749109"/>
<path d="M135.67 97.3961C135.67 97.3961 146.656 98.9271 154.194 90.4171C161.731 81.9071 158.654 71.644 158.654 71.644C158.654 71.644 151.447 90.0341 135.67 97.3961Z" fill="#7EA82C"/>
<path d="M159.275 120.69C159.275 120.69 174.315 132.868 184.26 125.611C194.204 118.355 194.204 118.355 194.204 118.355C194.204 118.355 169.637 104.941 159.275 120.69Z" fill="#749109"/>
<path d="M159.684 120.362C159.684 120.362 166.481 129.128 177.819 128.296C189.157 127.464 194.118 117.968 194.118 117.968C194.118 117.968 176.12 126.105 159.684 120.362Z" fill="#7EA82C"/>
<path d="M141.516 154.623C141.516 154.623 142.756 173.935 154.831 176.329C166.907 178.723 166.907 178.723 166.907 178.723C166.907 178.723 160.119 151.568 141.516 154.623Z" fill="#749109"/>
<path d="M142.035 154.702C142.035 154.702 140.197 165.641 148.493 173.414C156.789 181.186 167.134 178.398 167.134 178.398C167.134 178.398 148.952 170.678 142.035 154.702Z" fill="#7EA82C"/>
<path d="M125.942 182.209C131.012 193.427 131.012 193.427 131.012 193.427C131.012 193.427 149.164 172.12 135.866 158.758C135.866 158.758 120.871 170.992 125.942 182.209Z" fill="#749109"/>
<path d="M124.63 175.356C123.127 186.624 131.408 193.422 131.408 193.422C131.408 193.422 127.122 174.141 136.103 159.226C136.103 159.226 126.133 164.088 124.63 175.356Z" fill="#7EA82C"/>
<path d="M80.0652 156.338C74.6372 167.387 74.6372 167.387 74.6372 167.387C74.6372 167.387 102.624 167.833 104.471 149.072C104.471 149.072 85.4922 145.289 80.0652 156.338Z" fill="#9DBB1D"/>
<path d="M84.5171 150.965C74.8671 156.975 74.8931 167.689 74.8931 167.689C74.8931 167.689 87.0411 152.114 104.261 149.552C104.261 149.552 94.1661 144.955 84.5171 150.965Z" fill="#7EA82C"/>
<path d="M76.9941 107.989C64.8291 110.104 64.8291 110.104 64.8291 110.104C64.8291 110.104 85.7401 130.569 97.2841 123.5C97.2841 123.5 89.1581 105.874 76.9941 107.989Z" fill="#9DBB1D"/>
<path d="M64.8579 110.342C64.8579 110.342 72.7029 120.175 81.2149 123.389C91.1419 127.137 97.2419 123.702 97.2419 123.702C97.2419 123.702 80.4929 109.573 64.8579 110.342Z" fill="#6B9909"/>
<path d="M100.828 77.3531C90.8824 70.0371 90.8823 70.0371 90.8823 70.0371C90.8823 70.0371 93.5273 100.32 106.619 103.76C106.619 103.76 110.774 84.6691 100.828 77.3531Z" fill="#9DBB1D"/>
<path d="M92.6352 91.0591C96.8012 100.818 103.502 102.843 103.502 102.843C103.502 102.843 102.107 80.9751 90.7302 70.2231C90.7302 70.2231 89.0622 82.6911 92.6352 91.0591Z" fill="#6B9909"/>
<path d="M140.42 64.5498C140.42 64.5498 119.192 84.6858 125.827 96.4848C125.827 96.4848 143.744 89.0188 142.082 76.7848C140.42 64.5498 140.42 64.5498 140.42 64.5498Z" fill="#9DBB1D"/>
<path d="M126.535 80.4308C122.421 90.2118 125.627 96.4358 125.627 96.4358C125.627 96.4358 140.369 80.2228 140.181 64.5708C140.181 64.5708 130.062 72.0438 126.535 80.4308Z" fill="#6B9909"/>
<path d="M147.744 106.842C147.744 106.842 170.177 106.248 173.478 92.3592C176.779 78.4702 176.779 78.4702 176.779 78.4702C176.779 78.4702 145.5 91.3532 147.744 106.842Z" fill="#6B9909"/>
<path d="M147.549 106.705C147.549 106.705 170.199 95.3551 176.512 78.3931C176.512 78.3931 162.487 82.2431 155.191 89.8201C146.683 98.6581 147.549 106.705 147.549 106.705Z" fill="#9DBB1D"/>
<path d="M107.591 174.748C110.72 182.323 106.067 191.976 106.067 191.976C106.067 191.976 122.484 183.83 118.312 173.73C114.14 163.63 122.224 158.338 122.224 158.338C122.224 158.338 104.462 167.173 107.591 174.748Z" fill="#7EA82C"/>
<path d="M106.351 171.73C109.945 181.447 106.067 191.975 106.067 191.975C108.567 190.486 114.901 182.399 112.301 172.913C110.231 165.363 122.224 158.338 122.224 158.338C122.224 158.338 102.757 162.013 106.351 171.73Z" fill="#6B9909"/>
<path d="M86.1581 136.242C80.7121 142.367 69.9971 142.401 69.9971 142.401C69.9971 142.401 84.4991 153.607 91.7601 145.44C99.0211 137.273 107.313 142.232 107.313 142.232C107.313 142.232 91.6031 130.117 86.1581 136.242Z" fill="#7EA82C"/>
<path d="M88.33 133.808C81.16 141.288 69.9971 142.401 69.9971 142.401C72.4291 143.999 82.4711 146.162 89.8671 139.677C95.7531 134.516 107.313 142.232 107.313 142.232C107.313 142.232 95.499 126.329 88.33 133.808Z" fill="#6B9909"/>
<path d="M90.7742 102.496C83.1852 105.59 73.5532 100.893 73.5532 100.893C73.5532 100.893 81.6232 117.347 91.7432 113.221C101.862 109.095 107.117 117.203 107.117 117.203C107.117 117.203 98.3632 99.4011 90.7742 102.496Z" fill="#7EA82C"/>
<path d="M93.7972 101.27C84.0632 104.819 73.5532 100.893 73.5532 100.893C75.0302 103.4 83.0882 109.771 92.5862 107.214C100.145 105.179 107.116 117.204 107.116 117.204C107.116 117.204 103.53 97.7201 93.7972 101.27Z" fill="#6B9909"/>
<path d="M172.85 134.717C166.732 129.263 152.531 143.114 152.531 143.114C152.531 143.114 160.194 137.229 168.351 144.501C176.508 151.773 189.616 138.964 189.616 138.964C189.616 138.964 178.968 140.17 172.85 134.717Z" fill="#7EA82C"/>
<path d="M170.411 132.551C162.424 125.951 152.531 143.115 152.531 143.115C152.531 143.115 163.121 134.113 169.565 138.558C177.662 144.144 187.386 140.834 189.616 138.965C189.616 138.965 178.398 139.15 170.411 132.551Z" fill="#6B9909"/>
<path d="M149.976 91.1531C141.871 92.3721 143.447 112.147 143.447 112.147C143.447 112.147 143.819 102.492 154.625 100.867C165.431 99.2411 163.958 80.9741 163.958 80.9741C163.958 80.9741 158.08 89.9341 149.976 91.1531Z" fill="#7EA82C"/>
<path d="M146.751 91.6451C136.571 93.5691 143.446 112.148 143.446 112.148C143.446 112.148 143.291 98.2501 150.829 96.1361C160.3 93.4801 163.97 83.8851 163.958 80.9751C163.958 80.9751 156.931 89.7211 146.751 91.6451Z" fill="#6B9909"/>
<path d="M114.225 82.4108C107.574 77.6218 106.442 66.9658 106.442 66.9658C106.442 66.9658 96.7811 82.5398 105.649 88.9248C114.517 95.3108 110.434 104.068 110.434 104.068C110.434 104.068 120.876 87.2008 114.225 82.4108Z" fill="#7EA82C"/>
<path d="M116.869 84.3228C108.694 77.9578 106.443 66.9668 106.443 66.9668C105.102 69.5498 103.98 79.7608 111.189 86.4528C116.926 91.7788 110.435 104.07 110.435 104.07C110.435 104.07 125.043 90.6878 116.869 84.3228Z" fill="#6B9909"/>
<path d="M119.003 66.8462C119.003 66.8462 121.794 70.9762 117.9 82.0732C114.006 93.1702 119.611 102.893 119.611 102.893C119.611 102.893 127.658 92.8882 129.809 84.7262C131.959 76.5642 119.003 66.8462 119.003 66.8462Z" fill="#9DBB1D"/>
<path d="M119.003 66.8462C119.003 66.8462 125.492 75.3452 123.246 82.0272C121.001 88.7092 122.572 99.3062 122.572 99.3062C122.572 99.3062 126.273 94.4622 129.808 84.7262C133.344 74.9902 119.003 66.8462 119.003 66.8462Z" fill="#7EA82C"/>
<path d="M166.643 102.172C154.895 101.636 151.483 111.605 151.483 111.605C151.483 111.605 159.093 114.629 167.528 114.34C175.963 114.052 181.543 98.8472 181.543 98.8472C181.543 98.8472 178.39 102.709 166.643 102.172Z" fill="#9DBB1D"/>
<path d="M168.225 107.279C161.18 107.051 151.483 111.605 151.483 111.605C151.483 111.605 157.187 113.756 167.528 114.34C177.87 114.925 181.543 98.8472 181.543 98.8472C181.543 98.8472 175.27 107.507 168.225 107.279Z" fill="#7EA82C"/>
<path d="M169.942 146.035C161.982 137.378 152.537 142.05 152.537 142.05C152.537 142.05 155.808 149.557 161.998 155.295C168.188 161.033 182.859 154.171 182.859 154.171C182.859 154.171 177.902 154.692 169.942 146.035Z" fill="#9DBB1D"/>
<path d="M167.468 150.774C162.628 145.649 152.538 142.05 152.538 142.05C152.538 142.05 155.071 147.595 161.999 155.295C168.927 162.996 182.86 154.171 182.86 154.171C182.86 154.171 172.308 155.9 167.468 150.774Z" fill="#7EA82C"/>
<path d="M125.905 156.143C125.905 156.143 120.064 161.883 116.921 169.716C113.777 177.549 125.431 188.795 125.431 188.795C125.431 188.795 123.172 184.352 128.409 173.822C133.646 163.292 125.905 156.143 125.905 156.143Z" fill="#9DBB1D"/>
<path d="M125.905 156.143C125.905 156.143 121.633 160.492 116.921 169.716C112.208 178.94 125.431 188.795 125.431 188.795C125.431 188.795 120.043 179.559 123.099 173.206C126.153 166.853 125.905 156.143 125.905 156.143Z" fill="#6B9909"/>
<path d="M98.2978 120.683C90.7688 116.867 78.5488 127.496 78.5488 127.496C78.5488 127.496 83.1728 125.634 93.2048 131.77C103.238 137.906 111.035 130.818 111.035 130.818C111.035 130.818 105.826 124.498 98.2978 120.683Z" fill="#9DBB1D"/>
<path d="M98.2978 120.683C89.5198 115.183 78.5488 127.496 78.5488 127.496C78.5488 127.496 88.2198 122.935 94.2818 126.533C100.344 130.131 111.035 130.818 111.035 130.818C111.035 130.818 107.075 126.183 98.2978 120.683Z" fill="#7EA82C"/>
<path d="M96.0588 164.758C94.2768 175.563 94.2769 175.563 94.2769 175.563C94.2769 175.563 118.226 168.749 114.977 152.296C114.977 152.296 97.8418 153.953 96.0588 164.758Z" fill="#95C23C"/>
<path d="M98.47 159.038C91.797 166.637 94.5731 175.755 94.5731 175.755C94.5731 175.755 100.915 159.368 114.922 152.76C114.922 152.76 105.143 151.439 98.47 159.038Z" fill="#7EA82C"/>
<path d="M100.773 96.2128C89.9092 94.2568 89.9092 94.2568 89.9092 94.2568C89.9092 94.2568 96.4232 118.496 113.053 115.464C113.053 115.464 111.637 98.1688 100.773 96.2128Z" fill="#9DBB1D"/>
<path d="M106.503 98.728C98.9429 91.89 89.7119 94.553 89.7119 94.553C89.7119 94.553 106.134 101.187 112.587 115.402C112.587 115.402 114.063 105.565 106.503 98.728Z" fill="#7EA82C"/>
<path d="M128.622 105.694C128.622 105.694 145.832 103.475 147.28 92.5309C148.728 81.5879 148.728 81.5879 148.728 81.5879C148.728 81.5879 124.819 89.2219 128.622 105.694Z" fill="#86B825"/>
<path d="M128.663 105.225C128.663 105.225 138.558 106.241 145.036 98.3708C151.514 90.5008 148.425 81.4038 148.425 81.4038C148.425 81.4038 142.562 98.1168 128.663 105.225Z" fill="#7EA82C"/>
<path d="M147.186 127.419C147.186 127.419 159.278 139.865 168.905 134.465C178.533 129.065 178.533 129.065 178.533 129.065C178.533 129.065 158.092 114.503 147.186 127.419Z" fill="#9DBB1D"/>
<path d="M147.585 127.171C147.585 127.171 152.702 135.7 162.885 136.169C173.068 136.638 178.498 128.712 178.498 128.712C178.498 128.712 161.606 134.037 147.585 127.171Z" fill="#6B9909"/>
<path d="M144.99 140.969C144.99 140.969 144.808 158.321 155.446 161.268C166.084 164.215 166.084 164.215 166.084 164.215C166.084 164.215 161.829 139.48 144.99 140.969Z" fill="#9DBB1D"/>
<path d="M145.449 141.074C145.449 141.074 143.074 150.733 149.973 158.237C156.872 165.741 166.308 163.939 166.308 163.939C166.308 163.939 150.567 155.823 145.449 141.074Z" fill="#7EA82C"/>
<path d="M113.317 164.444C115.861 173.584 115.861 173.584 115.861 173.584C115.861 173.584 132.189 159.488 123.63 147.748C123.63 147.748 110.773 155.304 113.317 164.444Z" fill="#86B825"/>
<path d="M113.123 159.07C110.655 167.476 116.164 173.626 116.164 173.626C116.164 173.626 115.164 158.437 123.756 148.132C123.756 148.132 115.591 150.664 113.123 159.07Z" fill="#7EA82C"/>
<path d="M93.2288 141.821C86.5908 148.599 86.5908 148.599 86.5908 148.599C86.5908 148.599 106.968 155.677 112.845 142.39C112.845 142.39 99.8668 135.043 93.2288 141.821Z" fill="#9DBB1D"/>
<path d="M97.7841 138.962C89.2711 141.033 86.7061 148.881 86.7061 148.881C86.7061 148.881 99.354 140.412 112.576 142.691C112.576 142.691 106.296 136.891 97.7841 138.962Z" fill="#6B9909"/>
<path d="M94.9549 111.211C85.4609 113.773 85.4609 113.773 85.4609 113.773C85.4609 113.773 99.9369 130.811 112.174 122.036C112.174 122.036 104.448 108.648 94.9549 111.211Z" fill="#9DBB1D"/>
<path d="M100.526 111.053C91.8341 108.426 85.415 114.085 85.415 114.085C85.415 114.085 101.166 113.173 111.776 122.163C111.776 122.163 109.218 113.681 100.526 111.053Z" fill="#6B9909"/>
<path d="M113.327 91.17C104.786 87.04 104.786 87.04 104.786 87.04C104.786 87.04 104.575 108.61 119.042 109.944C119.042 109.944 121.868 95.3 113.327 91.17Z" fill="#86B825"/>
<path d="M104.555 87.2378C104.555 87.2378 116.615 96.5258 118.671 109.784C118.671 109.784 122.166 101.983 117.489 94.5748C112.811 87.1668 104.555 87.2378 104.555 87.2378Z" fill="#7EA82C"/>
<path d="M127.143 82.3042C127.143 82.3042 113.905 99.3352 124.605 109.163C124.605 109.163 135.726 99.2262 131.435 90.7652C127.144 82.3042 127.143 82.3042 127.143 82.3042Z" fill="#6B9909"/>
<path d="M126.839 82.3223C126.839 82.3223 130.805 97.0183 124.407 108.811C124.407 108.811 131.915 104.723 132.682 95.9963C133.45 87.2693 126.839 82.3223 126.839 82.3223Z" fill="#7EA82C"/>
<path d="M142.58 116.376C142.58 116.376 157.468 115.508 159.368 106.213C161.268 96.918 161.268 96.918 161.268 96.918C161.268 96.918 140.31 102.026 142.58 116.376Z" fill="#9DBB1D"/>
<path d="M142.644 115.977C142.644 115.977 151.066 117.443 157.093 111.085C163.121 104.727 161.019 96.7422 161.019 96.7422C161.019 96.7422 154.988 110.719 142.644 115.977Z" fill="#6B9909"/>
<path d="M147.6 120.437C147.6 120.437 161.176 126.61 167.19 119.273C173.204 111.936 173.204 111.936 173.204 111.936C173.204 111.936 152.282 106.684 147.6 120.437Z" fill="#9DBB1D"/>
<path d="M147.842 120.113C147.842 120.113 154.609 125.336 162.905 122.522C171.202 119.707 173.065 111.663 173.065 111.663C173.065 111.663 161.214 121.216 147.842 120.113Z" fill="#7EA82C"/>
<path d="M145.84 133.895C145.84 133.895 152.356 147.31 161.668 145.496C170.98 143.682 170.98 143.682 170.98 143.682C170.98 143.682 158.219 126.292 145.84 133.895Z" fill="#95C23C"/>
<path d="M156.294 145.265C164.478 148.391 171.045 143.385 171.045 143.385C171.045 143.385 155.824 143.18 146.231 133.8C146.231 133.8 148.11 142.14 156.294 145.265Z" fill="#7EA82C"/>
<path d="M133.818 148.049C133.818 148.049 129.236 162.241 137.212 167.378C145.188 172.515 145.188 172.515 145.188 172.515C145.188 172.515 148.016 151.13 133.818 148.049Z" fill="#9DBB1D"/>
<path d="M134.167 148.252C134.167 148.252 129.75 155.571 133.494 163.492C137.238 171.413 145.442 172.345 145.442 172.345C145.442 172.345 134.599 161.663 134.167 148.252Z" fill="#7EA82C"/>
<path d="M102.458 151.131C100.44 160.401 100.44 160.401 100.44 160.401C100.44 160.401 121.461 155.56 119.374 141.183C119.374 141.183 104.476 141.861 102.458 151.131Z" fill="#9DBB1D"/>
<path d="M104.796 146.288C98.6882 152.569 100.688 160.58 100.688 160.58C100.688 160.58 106.897 146.682 119.306 141.581C119.306 141.581 110.904 140.007 104.796 146.288Z" fill="#6B9909"/>
<path d="M103.996 131.519C95.6621 136.053 95.6621 136.053 95.6621 136.053C95.6621 136.053 113.068 148.795 122.583 137.816C122.583 137.816 112.33 126.985 103.996 131.519Z" fill="#86B825"/>
<path d="M109.189 130.121C100.443 129.605 95.689 136.356 95.689 136.356C95.689 136.356 110.265 131.968 122.238 138.024C122.238 138.024 117.934 130.637 109.189 130.121Z" fill="#7EA82C"/>
<path d="M106.548 119.81C98.2422 123.585 98.2422 123.585 98.2422 123.585C98.2422 123.585 114.059 137.004 123.941 127.129C123.941 127.129 114.853 116.036 106.548 119.81Z" fill="#6B9909"/>
<path d="M111.625 118.828C103.272 117.731 98.2471 123.879 98.2471 123.879C98.2471 123.879 112.529 120.674 123.596 127.306C123.596 127.306 119.978 119.924 111.625 118.828Z" fill="#7EA82C"/>
<path d="M120.714 100.969C113.076 96.71 113.076 96.71 113.076 96.71C113.076 96.71 111.725 116.548 124.966 118.552C124.966 118.552 128.352 105.228 120.714 100.969Z" fill="#9DBB1D"/>
<path d="M112.852 96.8809C112.852 96.8809 123.452 106.075 124.633 118.386C124.633 118.386 128.268 111.395 124.361 104.327C120.454 97.2589 112.852 96.8809 112.852 96.8809Z" fill="#7EA82C"/>
<path d="M132.171 93.8882C132.171 93.8882 119.14 108.907 128.501 118.484C128.501 118.484 139.231 109.89 135.701 101.889C132.171 93.8882 132.171 93.8882 132.171 93.8882Z" fill="#9DBB1D"/>
<path d="M131.89 93.8901C131.89 93.8901 134.811 107.614 128.335 118.151C128.335 118.151 135.449 114.761 136.589 106.766C137.729 98.7711 131.89 93.8901 131.89 93.8901Z" fill="#7EA82C"/>
<path d="M128.189 143.926C128.189 143.926 118.184 161.109 129.164 168.775C129.164 168.775 138.106 158.333 133.147 151.129C128.189 143.926 128.189 143.926 128.189 143.926Z" fill="#6B9909"/>
<path d="M127.913 143.979C127.913 143.979 133.339 156.919 128.939 168.478C128.939 168.478 135.297 163.823 134.928 155.755C134.559 147.688 127.913 143.979 127.913 143.979Z" fill="#9DBB1D"/>
<path d="M136.599 121.903C136.599 121.903 150.341 122.295 152.827 113.911C155.314 105.527 155.314 105.527 155.314 105.527C155.314 105.527 135.66 108.544 136.599 121.903Z" fill="#6B9909"/>
<path d="M136.688 121.541C136.688 121.541 144.304 123.56 150.347 118.203C156.39 112.846 155.097 105.345 155.097 105.345C155.097 105.345 148.443 117.698 136.688 121.541Z" fill="#7EA82C"/>
<path d="M136.246 125.396C136.246 125.396 149.449 129.224 153.961 121.733C158.472 114.241 158.472 114.241 158.472 114.241C158.472 114.241 138.691 112.229 136.246 125.396Z" fill="#86B825"/>
<path d="M136.424 125.069C136.424 125.069 143.29 128.935 150.484 125.266C157.678 121.597 158.309 114.012 158.309 114.012C158.309 114.012 148.767 124.299 136.424 125.069Z" fill="#7EA82C"/>
<path d="M139.529 129.253C139.529 129.253 146.524 141.088 154.943 138.721C163.362 136.355 163.362 136.355 163.362 136.355C163.362 136.355 150.331 121.336 139.529 129.253Z" fill="#9DBB1D"/>
<path d="M139.883 129.136C139.883 129.136 142.236 136.656 149.99 138.912C157.744 141.168 163.4 136.076 163.4 136.076C163.4 136.076 149.402 137.032 139.883 129.136Z" fill="#7EA82C"/>
<path d="M137.704 139.982C137.704 139.982 135.759 153.591 143.808 157.011C151.857 160.431 151.857 160.431 151.857 160.431C151.857 160.431 151.083 140.562 137.704 139.982Z" fill="#86B825"/>
<path d="M138.053 140.113C138.053 140.113 135.185 147.452 139.823 154.063C144.462 160.674 152.06 160.238 152.06 160.238C152.06 160.238 140.54 152.227 138.053 140.113Z" fill="#6B9909"/>
<path d="M136.153 105.876C134.066 111.969 134.581 118.197 134.581 118.197C134.581 118.197 142.617 117.923 144.838 109.229C147.059 100.535 150.578 99.0918 150.578 99.0918C150.578 99.0918 138.24 99.7828 136.153 105.876Z" fill="#6B9909"/>
<path d="M136.152 105.876C134.279 113.555 134.58 118.197 134.58 118.197C134.58 118.197 140.061 112.132 141.461 106.938C142.861 101.744 150.577 99.092 150.577 99.092C150.577 99.092 138.025 98.197 136.152 105.876Z" fill="#86B825"/>
<path d="M143.506 124.125C137.591 125.761 132.969 129.516 132.969 129.516C132.969 129.516 137.507 135.69 145.541 132.761C153.575 129.831 156.603 131.824 156.603 131.824C156.603 131.824 149.422 122.489 143.506 124.125Z" fill="#6B9909"/>
<path d="M143.506 124.125C136.458 126.782 132.969 129.516 132.969 129.516C132.969 129.516 140.688 130.565 145.527 128.873C150.366 127.181 156.602 131.824 156.602 131.824C156.602 131.824 150.554 121.469 143.506 124.125Z" fill="#86B825"/>
<path d="M115.615 146.524C111.984 154.73 108.275 155.57 108.275 155.57C108.275 155.57 120.558 156.932 123.625 151.269C126.692 145.606 127.216 139.379 127.216 139.379C127.216 139.379 119.246 138.318 115.615 146.524Z" fill="#6B9909"/>
<path d="M118.565 149.342C116.324 154.232 108.275 155.57 108.275 155.57C108.275 155.57 120.506 158.532 123.625 151.269C126.744 144.006 127.216 139.379 127.216 139.379C127.216 139.379 120.806 144.453 118.565 149.342Z" fill="#86B825"/>
<path d="M130.197 137.157C130.197 137.157 126.346 144.215 132.703 150.549C139.06 156.883 138.512 160.647 138.512 160.647C138.512 160.647 144.192 149.671 140.007 144.776C135.821 139.881 130.197 137.157 130.197 137.157Z" fill="#6B9909"/>
<path d="M130.197 137.157C130.197 137.157 132.632 144.961 136.392 148.808C140.152 152.655 138.512 160.648 138.512 160.648C138.512 160.648 145.666 150.295 140.007 144.777C134.347 139.258 130.197 137.157 130.197 137.157Z" fill="#86B825"/>
<path d="M117.187 109.033C107 104.415 105.996 99.7832 105.996 99.7832C105.996 99.7832 104.159 115.076 111.183 118.963C118.206 122.849 125.961 123.573 125.961 123.573C125.961 123.573 127.374 113.651 117.187 109.033Z" fill="#6B9909"/>
<path d="M113.642 112.678C107.573 109.83 105.997 99.7832 105.997 99.7832C105.997 99.7832 102.168 114.993 111.184 118.963C120.2 122.933 125.962 123.573 125.962 123.573C125.962 123.573 119.71 115.526 113.642 112.678Z" fill="#86B825"/>
<path d="M119.287 145.623C122.061 153.916 122.061 153.916 122.061 153.916C122.061 153.916 136.426 140.167 127.991 129.765C127.991 129.765 116.513 137.33 119.287 145.623Z" fill="#9DBB1D"/>
<path d="M118.854 140.685C116.979 148.54 122.341 153.941 122.341 153.941C122.341 153.941 120.703 140.006 128.125 130.113C128.125 130.113 120.729 132.83 118.854 140.685Z" fill="#7EA82C"/>
<path d="M142.228 133.51C133.532 132.581 133.532 132.581 133.532 132.581C133.532 132.581 140.055 151.365 153.024 148.025C153.024 148.025 150.923 134.439 142.228 133.51Z" fill="#6B9909"/>
<path d="M146.899 135.171C140.537 130.197 133.394 132.825 133.394 132.825C133.394 132.825 146.747 137.135 152.653 148.002C152.653 148.002 153.261 140.146 146.899 135.171Z" fill="#7EA82C"/>
<path d="M130.641 128.621C130.641 128.621 128.451 138.821 134.364 141.835C140.277 144.848 140.277 144.848 140.277 144.848C140.277 144.848 140.74 129.766 130.641 128.621Z" fill="#9DBB1D"/>
<path d="M130.899 128.738C130.899 128.738 128.34 134.143 131.504 139.392C134.668 144.641 140.443 144.713 140.443 144.713C140.443 144.713 132.143 138.041 130.899 128.738Z" fill="#7EA82C"/>
<path d="M117.558 127.704C110.919 132.519 107.603 131.477 107.603 131.477C107.603 131.477 116.681 138.198 121.706 135.133C126.731 132.069 130.006 127.39 130.006 127.39C130.006 127.39 124.197 122.889 117.558 127.704Z" fill="#95C23C"/>
<path d="M107.603 131.477C107.603 131.477 115.904 139.437 121.706 135.133C127.507 130.829 130.006 127.39 130.006 127.39C130.006 127.39 122.611 128.453 118.593 131.286C114.576 134.118 107.603 131.477 107.603 131.477Z" fill="#6B9909"/>
<path d="M136.954 105.278C136.954 105.278 125.045 112.647 129.333 121.048C129.333 121.048 138.349 117.517 137.652 111.398C136.954 105.278 136.954 105.278 136.954 105.278Z" fill="#9DBB1D"/>
<path d="M129.291 120.79C129.291 120.79 134.785 120.001 137.226 114.864C139.668 109.727 136.764 105.221 136.764 105.221C136.764 105.221 135.853 115.061 129.291 120.79Z" fill="#7EA82C"/>
<path d="M128.526 123.3C128.526 123.3 137.593 126.696 141.163 121.677C144.733 116.658 144.733 116.658 144.733 116.658C144.733 116.658 130.948 114.184 128.526 123.3Z" fill="#9DBB1D"/>
<path d="M138.532 123.972C143.781 121.781 144.631 116.488 144.631 116.488C144.631 116.488 137.378 123.201 128.668 123.08C128.668 123.08 133.283 126.163 138.532 123.972Z" fill="#7EA82C"/>
<path d="M128.775 124.092C128.775 124.092 133.229 132.689 139.242 131.356C145.255 130.023 145.255 130.023 145.255 130.023C145.255 130.023 136.682 118.949 128.775 124.092Z" fill="#9DBB1D"/>
<path d="M129.028 124.023C129.028 124.023 130.387 129.404 135.751 131.296C141.115 133.187 145.293 129.829 145.293 129.829C145.293 129.829 135.411 129.95 129.028 124.023Z" fill="#7EA82C"/>
<path d="M130.275 122.768C130.275 122.768 123.638 129.818 126.888 135.051C130.138 140.283 130.138 140.283 130.138 140.283C130.138 140.283 137.747 128.525 130.275 122.768Z" fill="#9DBB1D"/>
<path d="M125.789 131.737C125.781 137.425 130.334 140.254 130.334 140.254C130.334 140.254 126.945 130.971 130.423 122.984C130.423 122.984 125.797 126.049 125.789 131.737Z" fill="#7EA82C"/>
<path d="M117.811 123.555C113.459 127.914 113.459 127.914 113.459 127.914C113.459 127.914 126.644 132.635 130.542 124.046C130.542 124.046 122.163 119.196 117.811 123.555Z" fill="#9DBB1D"/>
<path d="M120.786 121.727C115.247 123.019 113.532 128.098 113.532 128.098C113.532 128.098 121.796 122.678 130.366 124.24C130.366 124.24 126.325 120.436 120.786 121.727Z" fill="#7EA82C"/>
<path d="M123.884 113.043C117.88 111.668 117.88 111.668 117.88 111.668C117.88 111.668 120.876 125.349 130.224 124.094C130.224 124.094 129.888 114.418 123.884 113.043Z" fill="#9DBB1D"/>
<path d="M117.762 111.828C117.762 111.828 126.741 115.956 129.966 124.048C129.966 124.048 131.046 118.604 127.012 114.595C122.977 110.585 117.762 111.828 117.762 111.828Z" fill="#7EA82C"/>
</svg>
