<svg width="70" height="68" viewBox="0 0 70 68" fill="none" xmlns="http://www.w3.org/2000/svg">
<path d="M69.3928 28.5016C68.5668 27.0836 66.3187 26.7846 64.6667 26.5366C65.6077 25.4756 65.8078 24.0766 65.1608 22.7206C64.6468 21.6596 63.3107 21.9606 62.3368 22.3226C62.6688 20.6206 62.4987 19.4266 60.6497 19.1976C61.1107 18.2856 61.1477 17.2306 60.3337 16.5036C59.8107 16.0046 59.0508 16.3186 58.4198 16.7486C58.6678 16.0206 58.7308 15.2826 58.2718 14.5356C57.5258 13.3956 56.8787 13.1296 55.7248 13.0976C56.5838 11.3316 56.6838 9.24759 55.3307 7.61259C54.2038 6.25559 53.0478 6.0396 51.8908 6.7016C52.0058 5.6106 51.6608 4.36959 50.6488 3.93959C49.4128 3.37659 48.6327 4.36959 48.0897 5.42659C47.9058 4.95059 47.6207 4.50359 47.1937 4.36859C46.3867 4.17059 46.0357 4.95059 45.7207 5.67559C45.5448 4.10759 45.0767 2.0416 43.5117 2.0056C41.9377 1.9756 41.0797 3.24559 40.5627 4.63459C40.3517 3.51559 39.9868 2.38659 38.9967 2.07159C38.4027 1.88859 37.9398 2.53659 37.6418 3.27859C37.4777 2.86659 37.2137 2.57159 36.7997 2.55259C36.1537 2.55259 35.6927 2.9306 35.3117 3.4586C35.0287 1.8426 34.0368 0.0705893 32.6007 0.00458934C31.4578 -0.0594107 31.0987 1.0806 30.9817 2.1886C30.6007 1.6616 30.1027 1.27859 29.4097 1.44459C28.3867 1.75859 28.4177 3.89159 28.4507 5.32959C27.1287 3.95459 24.9447 2.20359 23.5877 2.57159C23.2927 1.80759 22.5998 1.3606 21.2778 1.5576C18.7677 1.9746 17.6587 4.00459 17.6097 6.30159C16.6837 5.80759 15.4417 5.39659 14.8287 6.41859C14.0727 7.72859 14.3697 8.8476 15.0317 9.9046C13.5707 9.3596 12.2857 9.50959 11.0937 11.1796C9.61175 13.2956 10.9137 15.3616 11.9547 17.3096C10.3357 17.1456 8.21475 16.8016 7.26175 18.2046C6.16975 19.8436 8.58375 21.5596 10.3707 22.4056C9.90375 22.8666 9.64175 23.6436 9.64175 24.4236C8.01675 23.0996 5.71975 22.0406 3.93675 23.5466C3.04575 24.2896 3.59075 25.3256 4.35075 26.2056C2.73575 25.8416 0.88175 25.9056 0.18475 27.4786C-0.54525 29.0466 1.69075 31.5296 3.26275 32.8656C2.20275 33.0036 0.995751 33.3266 0.745751 34.3066C0.413751 35.3626 1.47475 36.0906 2.36675 36.4046C2.30075 36.9856 2.44875 37.4466 2.74975 37.7936C2.21875 38.1566 1.90575 38.8036 1.77075 39.8246C1.65775 41.0326 2.28475 42.0416 3.17675 42.7836C1.90475 43.2516 0.631748 44.0436 0.215748 45.3116C-0.376252 47.1506 0.352748 48.6716 1.41075 50.1736C1.90475 50.8706 2.79575 52.1526 3.81875 51.8766C4.40275 51.7106 4.65075 51.1306 4.76175 50.4506C5.27375 51.0676 6.00575 51.4636 6.82975 51.4816C7.06175 51.4816 7.29075 51.4276 7.52275 51.3606C7.70975 52.4056 8.16875 53.4296 8.62975 53.9276C9.36775 54.7196 10.5967 54.5516 11.5687 53.9406C11.2917 55.6786 11.9517 57.2946 13.9707 58.1076C15.7537 58.8156 17.3748 57.8916 18.3967 56.4866C18.4967 57.6106 18.9787 58.6326 20.1487 59.1346C20.9747 59.4486 22.0997 59.7966 23.0827 59.7286C22.2997 60.9136 21.8057 62.2546 22.6318 63.4166C23.6728 64.8676 25.6257 64.4246 26.7977 63.3646C26.9287 64.5706 27.4067 65.5996 28.4147 66.5076C29.2277 67.2156 30.7157 67.5006 31.5727 66.7206C33.4417 65.0686 32.7158 62.1396 31.6217 59.9106C32.7158 60.3536 33.6857 59.9736 34.6997 59.1496C34.2347 60.5016 33.9398 61.9886 34.9618 63.0356C36.1177 64.2096 37.5208 63.1676 38.5658 61.9886C38.3667 63.0176 38.3347 64.0396 38.9597 64.8676C39.7407 65.9116 41.4597 66.0066 42.6117 65.9296C45.7407 65.7426 45.7407 63.7426 44.7287 61.8116C45.5057 62.2066 46.3337 62.4546 46.9277 62.0246C48.2207 61.1356 47.9867 59.2996 47.5897 57.8606C48.7807 58.2396 49.4097 57.5816 49.5737 56.4386C50.1027 57.0666 50.8078 57.4836 51.6268 56.8376C52.8787 55.8306 53.1618 54.5236 52.7477 53.2326C53.2787 53.4946 53.8688 53.6146 54.2677 53.2146C54.5817 52.9006 54.7308 52.5716 54.7617 52.2406C55.6567 52.3726 56.4178 51.3606 56.3828 49.9096C58.0708 50.3396 59.6877 50.6716 61.2887 49.8096C62.6818 49.0326 63.6887 46.5026 63.6577 45.0346C63.6577 44.2396 63.5557 43.7756 63.1287 43.1346C62.3667 41.9616 61.9417 42.5706 62.8257 41.3826C63.8867 40.0606 62.7947 39.0326 62.0347 38.0226C62.3997 37.6916 62.3357 37.2636 62.0347 36.7866C62.9117 36.5166 63.9897 35.8936 63.9347 34.9846C63.9207 34.7206 63.8527 34.4676 63.7707 34.2386C65.5088 34.7076 67.1927 34.1896 68.5348 32.1056C69.1488 31.1616 70.0688 29.6286 69.3928 28.5016Z" fill="#5DA800"/>
<path d="M43.2244 34.6496C41.7424 31.4436 38.2344 32.9126 37.1404 31.4966C38.7284 29.3786 35.2944 21.9606 32.6484 22.6026C36.2344 21.1616 34.9944 13.1466 31.0254 15.9226C27.9514 18.0546 28.3454 23.4096 32.3474 22.6846C30.7614 23.1466 29.0774 24.2016 28.0194 25.4596C27.7514 23.5106 27.7204 18.0066 24.5134 18.0236C20.5464 18.0366 21.8824 23.6256 23.0404 25.6426C17.2574 23.2446 15.3084 30.9616 22.5464 31.1466C22.1984 31.3306 10.9094 32.9296 15.8844 35.6096C19.6734 37.6606 16.1324 35.9576 18.8574 38.9646C21.3374 41.7036 24.5424 38.3376 25.7184 36.1686C29.5894 42.6856 36.2824 39.7576 31.9214 33.4436C35.4914 33.8056 35.0794 35.7736 38.4624 37.0476C40.0194 37.5956 44.6144 37.6906 43.2244 34.6496C43.6894 35.6946 42.2634 32.6036 43.2244 34.6496ZM27.3254 30.2236C26.6964 30.7366 26.0994 30.7166 25.5074 30.1916C25.9524 29.8456 26.1984 29.4106 26.2824 28.9156C26.2964 28.9336 28.8144 30.4016 27.3254 30.2236C27.4564 30.2376 26.9274 30.1906 27.3254 30.2236Z" fill="#7AD000"/>
<path d="M37.74 26.1536C36.254 22.9486 32.744 24.4056 31.658 23.0146C33.244 20.8826 29.803 13.4606 27.16 14.1056C30.73 12.6696 29.521 4.6526 25.533 7.41059C22.467 9.54259 22.859 14.8996 26.861 14.1756C25.291 14.6486 23.605 15.7106 22.533 16.9636C22.265 14.9966 22.236 9.49059 19.027 9.52459C15.056 9.54359 16.412 15.1466 17.552 17.1466C11.786 14.7336 9.83504 22.4886 17.06 22.6496C16.724 22.8166 5.43903 24.4236 10.4 27.1166C14.181 29.1816 10.646 27.4786 13.369 30.4686C15.849 33.2146 19.058 29.8456 20.25 27.6616C24.086 34.1736 30.795 31.2636 26.43 24.9456C29.988 25.2956 29.59 27.2966 32.996 28.5196C34.533 29.0996 39.123 29.1966 37.74 26.1536C38.201 27.1796 36.778 24.0916 37.74 26.1536ZM21.836 21.7256C21.207 22.2376 20.617 22.2236 20.016 21.6916C20.448 21.3426 20.715 20.9136 20.815 20.4206C20.815 20.4386 23.309 21.9056 21.836 21.7256C21.969 21.7436 21.438 21.6596 21.836 21.7256Z" fill="#7AD000"/>
<path d="M58.8462 37.6106C58.2012 37.5446 57.5712 37.4606 56.9122 37.3806C60.3182 30.4846 48.8142 32.6366 48.4182 38.7176C47.4592 34.9506 37.6902 32.1246 40.1662 37.9896C36.4342 36.9846 34.5512 39.4096 37.9862 41.7906C38.9472 42.4346 40.2832 41.6256 40.2832 40.5196C42.3362 40.3516 42.1012 40.5536 44.3122 40.9006C39.5232 44.5746 42.5332 49.5956 47.3222 45.3656C50.0042 53.7466 58.0502 47.6296 52.4982 41.4126C54.7792 40.5196 54.9632 40.2406 57.2772 40.1416C56.6152 41.2316 53.5722 41.9056 55.0952 43.5636C57.3402 45.9726 63.1292 39.5446 58.8462 37.6106C59.7232 38.0116 58.2012 37.3096 58.8462 37.6106Z" fill="#7AD000"/>
<path d="M26.5668 34.0406C25.9378 33.9746 25.3048 33.9066 24.6468 33.8236C28.0528 26.9156 16.5488 29.0466 16.1328 35.1476C15.1918 31.3936 5.40778 28.5516 7.88878 34.4176C4.16978 33.4296 2.28179 35.8605 5.71679 38.2195C6.66179 38.8645 8.01378 38.0576 8.01378 36.9506C10.0688 36.7856 9.83579 36.9846 12.0528 37.3466C7.25779 40.9986 10.2658 46.0236 15.0568 41.8116C17.7188 50.1726 25.7738 44.0576 20.2368 37.8406C22.4968 36.9496 22.6978 36.6645 24.9948 36.5665C24.3348 37.6615 21.3068 38.3386 22.8288 40.0026C25.0608 42.4026 30.8618 35.9586 26.5668 34.0406C27.4568 34.4346 25.9378 33.7606 26.5668 34.0406Z" fill="#7AD000"/>
<path d="M46.9941 50.3396C46.4311 50.2736 45.8671 50.2186 45.3081 50.1386C48.3001 44.0256 38.1031 45.9256 37.7401 51.3146C36.9101 48.0096 28.2501 45.4966 30.4331 50.6716C27.1241 49.7786 25.4721 51.9416 28.5131 54.0586C29.3571 54.6196 30.5461 53.9126 30.5641 52.9336C32.3471 52.7856 32.1501 52.9336 34.1361 53.2656C29.8681 56.5196 32.5461 60.9696 36.7771 57.2306C39.1621 64.6386 46.3041 59.2116 41.3751 53.6916C43.3911 52.9336 43.5571 52.6706 45.6051 52.5876C45.0131 53.5466 42.3351 54.1566 43.6891 55.6326C45.6531 57.7616 50.7951 52.0596 46.9941 50.3396C47.7871 50.7026 46.4321 50.0936 46.9941 50.3396Z" fill="#7AD000"/>
<path d="M36.7463 41.1676C36.1173 41.0976 35.4573 41.0316 34.8283 40.9476C38.2343 34.0536 26.7153 36.1886 26.2973 42.2706C25.3753 38.5366 15.6063 35.6946 18.0683 41.5616C14.3283 40.5526 12.4493 42.9816 15.9043 45.3466C16.8303 46.0066 18.1993 45.1996 18.1993 44.0896C20.2503 43.9226 20.0023 44.0896 22.1993 44.4686C17.4063 48.1196 20.4333 53.1646 25.2263 48.9496C27.9023 57.2936 35.9533 51.1796 30.3963 44.9696C32.6813 44.0896 32.8453 43.7756 35.1733 43.6936C34.5153 44.7826 31.4543 45.4636 33.0113 47.1316C35.2253 49.5466 41.0303 43.1156 36.7463 41.1676C37.6393 41.5806 36.1003 40.8826 36.7463 41.1676Z" fill="#7AD000"/>
<path d="M45.8208 27.6476C41.7898 28.3386 43.9338 37.6906 47.6058 36.5886C50.6598 35.6766 50.0348 26.9156 45.8208 27.6476C50.0668 26.9156 42.2048 28.2716 45.8208 27.6476Z" fill="#7AD000"/>
<path d="M61.3768 27.2446C64.4488 24.7146 55.5738 25.1136 54.6988 25.4286C55.8838 24.0256 55.4898 22.2706 53.5408 22.2706C54.5978 20.3226 53.8358 16.0036 50.7008 17.6296C48.0548 18.9996 50.6108 21.1316 50.3338 22.8156C49.5428 21.2626 47.7228 20.3026 46.0528 21.2116C44.0838 22.2836 46.5998 24.3856 46.1678 25.8056C45.8578 25.3956 43.8868 24.0246 43.9828 24.0756C44.8788 24.0416 45.3088 19.9556 44.9458 19.1606C42.9648 14.5196 38.4148 19.9066 42.2058 23.4096C41.3428 23.2256 40.4028 23.1936 39.8878 24.0906C38.1668 23.1316 32.8138 22.3206 32.6828 25.6436C32.5478 28.2556 36.9108 27.8766 38.2828 27.5886C38.6808 26.2676 39.2968 26.0376 40.1678 26.9146C41.0118 27.9696 42.0678 28.5666 43.4238 28.6976C41.5448 28.7166 36.9458 30.1896 37.4938 32.7486C38.4998 37.6276 47.4238 29.0146 43.5408 28.7166C44.8478 28.8156 45.7748 28.3206 46.3358 27.2796C46.7788 27.4976 47.0278 27.8046 47.0278 28.2386C44.4338 27.5086 44.6838 33.5936 45.0958 34.6856C46.4178 38.1716 49.1778 33.4766 48.9438 31.6056C49.4928 32.7486 52.1548 35.0826 52.9148 32.7636C57.7608 38.8006 61.9438 32.2406 55.6588 28.4666C57.6388 28.8156 59.7848 28.5526 61.3768 27.2446C61.9418 26.7666 59.7538 28.5676 61.3768 27.2446Z" fill="#7AD000"/>
<path d="M52.3666 16.9636C55.4386 14.4366 46.5616 14.8456 45.7026 15.1466C46.8786 13.7256 46.4796 11.9756 44.5096 11.9886C45.5916 10.0556 44.8456 5.72556 41.7006 7.34756C39.0406 8.71756 41.6066 10.8466 41.3216 12.5186C40.5466 10.9636 38.6966 10.0226 37.0466 10.9506C35.0796 12.0076 37.6056 14.1066 37.1406 15.5296C36.8436 15.1146 34.8596 13.7256 34.9766 13.7906C35.8726 13.7396 36.2836 9.67556 35.9536 8.88356C33.9716 4.25556 29.4066 9.62856 33.1936 13.1296C32.3166 12.9316 31.3926 12.9176 30.8796 13.8086C29.1416 12.8336 23.8186 12.0376 23.6586 15.3636C23.5416 17.9916 27.9186 17.5956 29.2756 17.3116C29.6716 15.9896 30.2856 15.7566 31.1606 16.6386C31.9826 17.6906 33.0766 18.2856 34.4146 18.4186C32.5316 18.4186 27.9516 19.9086 28.4806 22.4696C29.4906 27.3486 38.4146 18.7396 34.5336 18.4186C35.8536 18.5206 36.7776 18.0386 37.3086 16.9866C37.7736 17.1986 38.0036 17.5406 38.0366 17.9576C35.4216 17.2306 35.6756 23.2976 36.0856 24.4066C37.4076 27.9056 40.1656 23.1826 39.9356 21.3306C40.4806 22.4516 43.1426 24.8176 43.9196 22.4886C48.7436 28.5026 52.9116 21.9616 46.6596 18.1876C48.6306 18.5526 50.7636 18.2536 52.3666 16.9636C52.9486 16.4876 50.7636 18.2846 52.3666 16.9636Z" fill="#7AD000"/>
<path d="M40.4031 28.0266C39.2961 25.5956 36.6491 26.7036 35.8231 25.6436C37.0281 24.0416 34.4341 18.4686 32.4341 18.9456C35.1471 17.8726 34.2351 11.8246 31.2231 13.9226C28.9131 15.5296 29.2091 19.5566 32.2171 18.9996C31.0261 19.3586 29.7561 20.1536 28.9401 21.0956C28.7431 19.6226 28.7271 15.4916 26.3381 15.4916C23.3241 15.5286 24.3461 19.7276 25.2091 21.2456C20.8611 19.4256 19.3871 25.2636 24.8441 25.3806C24.6001 25.5096 16.0861 26.7356 19.8191 28.7336C22.6651 30.2886 20.0031 29.0006 22.0691 31.2796C23.9231 33.3266 26.3391 30.8016 27.2431 29.1686C30.1371 34.0726 35.1921 31.8606 31.9031 27.1166C34.5651 27.3776 34.2841 28.8836 36.8441 29.8276C37.9871 30.2376 41.4591 30.3216 40.4031 28.0266C40.7641 28.7866 39.6901 26.4696 40.4031 28.0266ZM28.4471 24.6876C27.9511 25.0666 27.5231 25.0466 27.0601 24.6696C27.3881 24.4056 27.5851 24.0916 27.6541 23.7106C27.6541 23.7106 29.5371 24.8356 28.4471 24.6876C28.5471 24.6986 28.1331 24.6516 28.4471 24.6876Z" fill="#9DFF0A"/>
<path d="M32.4472 26.1756C31.3922 28.4686 34.8592 28.4066 36.0192 27.9586C38.5642 27.0296 38.2812 25.5266 40.9412 25.2636C37.6712 30.0076 42.7322 32.2226 45.6052 27.3126C46.5152 28.9626 48.9082 31.4976 50.7942 29.4106C52.8472 27.1646 50.1832 28.4366 53.0282 26.9026C56.7802 24.8846 48.2512 23.6776 48.0202 23.5476C53.4562 23.4116 51.9852 17.5956 47.6182 19.3816C48.5122 17.8736 49.5182 13.6786 46.5322 13.6596C44.1162 13.6456 44.0832 17.7776 43.8852 19.2636C43.0922 18.3046 41.8342 17.5076 40.6292 17.1466C43.6542 17.7106 43.9322 13.6776 41.6372 12.0736C38.6102 9.9896 37.7022 16.0046 40.4122 17.1136C38.4122 16.6206 35.8202 22.2056 37.0252 23.8056C36.2172 24.8496 33.5722 23.7576 32.4472 26.1756C33.1782 24.6196 32.0862 26.9476 32.4472 26.1756ZM44.4182 22.8466C43.3242 22.9626 45.1922 21.8756 45.2112 21.8576C45.2722 22.2386 45.4612 22.5526 45.7742 22.8166C45.3402 23.1946 44.8792 23.2276 44.4182 22.8466C44.7132 22.7866 44.3132 22.8466 44.4182 22.8466Z" fill="#9DFF0A"/>
<path d="M25.6387 45.2306C24.9097 46.8536 27.3577 46.7986 28.1837 46.5036C29.9997 45.8256 29.8027 44.7736 31.7027 44.5736C29.3747 47.9586 32.9777 49.5116 35.0247 46.0396C35.6557 47.1786 37.3747 49.0186 38.6967 47.5296C40.1657 45.9256 38.2807 46.8316 40.3037 45.7276C42.9637 44.2876 36.9087 43.4306 36.7277 43.3316C40.6147 43.2506 39.5717 39.1166 36.4617 40.4066C37.0727 39.3296 37.8057 36.3186 35.6887 36.3056C33.9697 36.3056 33.9387 39.2296 33.7997 40.2886C33.2237 39.6236 32.3157 39.0476 31.4737 38.8016C33.6237 39.1966 33.8347 36.3186 32.1847 35.1806C30.0517 33.6926 29.4057 37.9896 31.3237 38.7686C29.9017 38.4206 28.0527 42.3876 28.9117 43.5286C28.3167 44.2886 26.4297 43.4966 25.6387 45.2306C26.1657 44.1226 25.4077 45.7746 25.6387 45.2306ZM34.1697 42.8496C33.3747 42.9516 34.7307 42.1586 34.7307 42.1586C34.7617 42.4206 34.9147 42.6526 35.1467 42.8346C34.8277 43.1156 34.4977 43.1156 34.1697 42.8496C34.3987 42.8336 34.0957 42.8496 34.1697 42.8496Z" fill="#9DFF0A"/>
<path d="M36.1506 40.6846C35.4046 42.3206 37.8696 42.2506 38.6796 41.9606C40.5016 41.2936 40.3046 40.2386 42.2046 40.0416C39.8566 43.4306 43.4586 44.9796 45.5426 41.5076C46.1536 42.6646 47.8536 44.4686 49.2086 42.9976C50.6596 41.3816 48.7596 42.2836 50.7946 41.1976C53.4566 39.7586 47.4056 38.8996 47.2246 38.8016C51.1116 38.7166 50.0666 34.5676 46.9626 35.8736C47.5896 34.7856 48.3006 31.7716 46.1676 31.7576C44.4506 31.7576 44.4316 34.7196 44.2806 35.7756C43.7196 35.0836 42.8276 34.5216 41.9716 34.2546C44.1166 34.6496 44.3116 31.7926 42.6986 30.6336C40.5466 29.1436 39.8866 33.4446 41.8056 34.2376C40.3796 33.8746 38.5456 37.8586 39.3916 38.9996C38.8276 39.7596 36.9436 38.9666 36.1506 40.6846C36.6486 39.5926 35.8866 41.2476 36.1506 40.6846ZM44.6636 38.3216C43.8866 38.4216 45.2106 37.6286 45.2106 37.6106C45.2716 37.8916 45.4076 38.1086 45.6366 38.2856C45.3216 38.5856 44.9956 38.5856 44.6636 38.3216C44.8786 38.2726 44.5996 38.3216 44.6636 38.3216Z" fill="#9DFF0A"/>
<path d="M34.4339 18.9816C34.5339 18.6336 34.5159 18.2846 34.2169 17.9896C33.8009 17.5396 33.2439 17.4466 32.6819 17.5076C32.6489 17.4616 32.5979 17.4106 32.5469 17.3646C31.8559 16.6676 30.8279 17.6086 31.2579 18.3546C30.5839 18.5186 29.9359 19.0126 29.9029 19.7276C29.8699 20.2706 30.1669 20.9486 30.7619 21.0656C31.0449 21.1156 31.2579 21.1306 31.5219 21.0946C31.5879 21.0946 31.6219 21.0656 31.6879 21.0656C31.6589 21.3296 31.6389 21.5926 31.7859 21.8426C31.9829 22.2696 32.4659 22.7856 32.9969 22.7196C33.5399 22.6646 33.9719 22.4876 34.2019 21.9226C34.2349 21.8086 34.2629 21.6586 34.2629 21.5396C34.5339 21.6906 34.8289 21.7896 35.1479 21.7896C35.7239 21.7896 36.2849 21.4746 36.3529 20.8326C36.4139 19.6926 35.4049 19.2636 34.4339 18.9816Z" fill="#C96900"/>
<path d="M49.7717 26.5866C49.1257 25.9566 48.3807 26.1536 47.6197 26.3726C47.6197 26.2056 47.5587 26.0386 47.5587 26.0386C47.3637 25.2156 46.2017 25.2956 45.9707 26.0386C45.8397 26.4696 45.9007 26.8646 45.9377 27.2966C45.8027 27.1796 45.6367 27.0836 45.4087 27.0996C44.9787 27.0996 44.4187 27.1166 44.1037 27.4426C43.6897 27.8596 43.6197 28.5206 44.0707 28.9626C44.5787 29.4446 45.1077 29.4586 45.7737 29.2476C45.8027 29.2306 45.8577 29.2306 45.9007 29.2126C45.9007 29.2616 45.9007 29.3116 45.9007 29.3646C46.1347 30.6656 47.6897 31.0446 48.4497 29.9736C48.5977 29.7216 48.6157 29.3976 48.6487 29.1296C48.6307 28.9836 48.6157 28.8336 48.5837 28.6846C48.4807 28.3036 48.5837 28.1536 48.1837 28.2556C48.6777 28.1216 49.1627 28.1996 49.5897 27.8766C50.0037 27.5596 50.1837 26.9956 49.7717 26.5866Z" fill="#C96900"/>
<path d="M21.4767 35.6106C21.4767 35.3466 21.3377 35.1316 21.1407 34.9956C21.1407 34.9506 21.1587 34.9156 21.1587 34.8636C21.1407 34.3396 20.9437 33.9256 20.4187 33.7766C20.1497 33.6926 19.7857 33.7596 19.6217 33.9736C19.4537 34.1726 19.3407 34.3866 19.2917 34.5676C18.9127 34.4526 18.4967 34.5216 18.2667 34.9156C18.0497 35.2636 18.1667 35.8456 18.5677 36.0226C18.6657 36.0896 18.7647 36.1026 18.8587 36.1556C18.8587 36.1706 18.8587 36.1706 18.8977 36.1886C18.9287 36.2256 18.9617 36.3056 18.9957 36.3536C18.7967 36.0896 19.0287 36.4676 19.0737 36.5666C19.1767 36.7856 19.3877 36.9286 19.6227 36.9996C19.9837 37.1126 20.3847 36.9846 20.6477 36.7186C20.7647 36.6186 20.8447 36.5016 20.9447 36.3696C20.9287 36.3866 20.9287 36.3866 20.9447 36.3696C21.2377 36.2716 21.4767 35.9256 21.4767 35.6106Z" fill="#C96900"/>
<path d="M40.547 46.2216C40.381 46.1096 40.217 46.0576 40.053 46.0396C40.086 45.8596 40.071 45.6776 39.936 45.4636C39.858 45.3806 39.887 45.2446 39.887 45.1276C39.887 44.3686 38.698 43.9236 38.35 44.7146C38.235 44.9816 38.155 45.2666 38.104 45.5646C37.442 45.3476 36.729 46.1576 37.196 46.8176C37.178 46.8176 37.157 46.8326 37.141 46.8326C36.401 47.1676 36.746 48.4356 37.557 48.3726C37.723 48.3376 37.87 48.3376 38.049 48.3056C38.067 48.3196 38.067 48.3196 38.104 48.3376C38.317 48.5516 38.532 48.7326 38.829 48.8046C39.376 48.9026 39.888 48.5886 39.888 48.0106C39.888 47.9106 39.888 47.8266 39.888 47.7426C39.97 47.7626 40.054 47.7756 40.118 47.7756C41.01 47.8256 41.11 46.6846 40.547 46.2216Z" fill="#C96900"/>
<path d="M34.5644 20.2046C34.5504 20.1056 34.4984 20.0036 34.4334 19.9416C34.5814 19.5916 34.2834 19.3426 33.8824 19.1166C34.0524 18.9456 34.1364 18.7186 33.9394 18.4016C33.7554 18.0876 33.4554 18.1026 33.1424 18.2396C33.1074 18.0876 33.0114 17.9746 32.8454 17.8576C32.6954 17.7256 32.5134 17.6436 32.3004 17.6736C31.8684 17.7256 31.5874 18.1566 31.6204 18.5516C31.3564 18.5676 31.1284 18.6656 30.9274 18.8976C30.6794 19.2116 30.7614 19.7746 31.1284 19.9566C31.3234 20.0736 31.5544 20.1406 31.7374 20.0876C31.6574 20.5856 31.7374 21.0956 32.2534 21.2286C32.5464 21.3146 32.8624 21.1316 32.9444 20.8476C32.9774 20.7176 32.9774 20.5856 32.9774 20.4396C32.9954 20.4686 33.0104 20.4686 33.0104 20.4906C33.3954 20.7186 33.7354 20.7186 34.1684 20.7006C34.4334 20.6996 34.6444 20.4526 34.5644 20.2046Z" fill="#C99100"/>
<path d="M48.7306 26.8646C48.5136 26.1536 47.7876 26.4836 47.2246 26.9016C47.2246 26.7846 47.2246 26.6806 47.1916 26.6006C47.0786 26.2996 46.6286 26.1536 46.4316 26.5206C46.3046 26.7976 46.3336 27.1626 46.4316 27.4776C45.7576 27.5586 44.9456 27.8226 45.3726 28.6186C45.5716 28.9996 46.0696 28.9996 46.5156 28.8666C46.5626 29.4586 46.8576 30.0736 47.4726 29.9916C48.2206 29.8916 47.9376 28.8156 47.6186 28.1226C48.2826 27.9916 48.9416 27.6086 48.7306 26.8646Z" fill="#C99100"/>
<path d="M20.9604 35.4466C20.8604 35.3616 20.7434 35.3136 20.6464 35.2966C20.5934 35.2966 20.5464 35.2966 20.5134 35.2796C20.5134 35.2616 20.5134 35.2616 20.5134 35.2616C20.6174 34.9486 20.6464 34.6326 20.4174 34.3496C20.2494 34.1396 19.9824 34.0706 19.7674 34.2686C19.5544 34.4656 19.6214 34.7186 19.5374 34.9946C19.4534 34.9826 19.3404 34.9496 19.2584 34.9496C19.0274 34.7306 18.5674 34.8626 18.5674 35.2466V35.3126C18.5674 35.5096 18.6924 35.6606 18.8584 35.7076C18.9954 35.7426 19.1434 35.7426 19.2924 35.7746C19.2264 36.0566 19.1774 36.3526 19.3764 36.6176C19.4894 36.8036 19.7224 36.8616 19.9194 36.7636C20.1344 36.6636 20.2514 36.4666 20.2844 36.2536C20.2844 36.2356 20.2844 36.2246 20.2844 36.2046C20.6474 36.3676 21.0114 36.3676 21.1414 35.9036C21.2064 35.7086 21.1094 35.5596 20.9604 35.4466Z" fill="#C99100"/>
<path d="M40.1019 46.5526C39.9359 46.2886 39.6719 46.2556 39.3929 46.2696C39.3929 46.2066 39.3759 46.1416 39.3269 46.0576C39.2609 45.9256 39.2609 45.8266 39.2609 45.6776C39.2609 45.1276 38.4309 45.1276 38.4309 45.6776C38.4309 45.8106 38.4309 45.9436 38.4149 46.0916C38.3509 46.0396 38.3019 46.0246 38.2349 45.9916C37.7739 45.7746 37.3759 46.4526 37.8069 46.6836C37.6899 46.7316 37.6059 46.8166 37.5389 46.9686C37.4749 47.1006 37.4409 47.2476 37.5389 47.3796C37.6719 47.5766 37.8689 47.7266 38.1539 47.6436C38.1829 47.6436 38.2339 47.6276 38.2809 47.5916C38.3809 47.9086 38.5639 48.1926 38.8589 48.2586C39.1909 48.3036 39.5229 48.0716 39.6229 47.7746C39.6889 47.5916 39.6889 47.4096 39.6719 47.2116C39.7519 47.2116 39.8359 47.1776 39.9489 47.1176C40.1169 46.9806 40.2169 46.7496 40.1019 46.5526Z" fill="#C99100"/>
<path d="M33.8362 19.0956C33.6722 19.0956 33.4422 19.0816 33.2252 19.1166C33.1782 19.1166 33.1082 19.1166 33.0612 19.1166C33.0452 19.1166 33.0452 19.0956 33.0122 19.0956C33.0452 18.7686 33.0762 18.4696 32.8642 18.1726C32.7162 17.9896 32.4012 17.8726 32.2182 18.0876C32.0012 18.3706 31.9372 18.6856 31.9842 18.9996C31.7532 19.2116 31.5562 19.5566 31.4252 19.8246C31.1952 20.3036 31.9042 20.6996 32.1342 20.2236C32.2182 20.0736 32.3182 19.9416 32.4022 19.7746C32.4662 19.8426 32.5482 19.8566 32.6502 19.9076C32.8472 20.2046 32.9982 20.5536 33.1792 20.8466C33.3762 21.1606 33.8022 21.0946 33.9412 20.7506C34.0052 20.5526 34.0052 20.3026 33.8712 20.1056C33.8382 20.0405 33.8032 19.9885 33.7582 19.9415C33.7762 19.9415 33.8032 19.9415 33.8382 19.9415C34.3852 19.9075 34.3672 19.1326 33.8362 19.0956Z" fill="#D2B800"/>
<path d="M39.6898 46.2886C39.5898 46.2556 39.4928 46.2556 39.3758 46.2216C39.3758 46.1416 39.3758 46.0576 39.3758 46.0076C39.3758 45.4636 38.6008 45.4636 38.5478 46.0076C38.5318 46.1096 38.5318 46.2216 38.5478 46.3686C38.4638 46.3686 38.4018 46.3686 38.3018 46.4046C37.7898 46.5036 38.0048 47.2806 38.5318 47.1776C38.5318 47.1776 38.6798 47.4296 38.6978 47.4636C38.7978 47.5436 38.8948 47.6136 39.0118 47.6436C39.1918 47.6946 39.3928 47.6146 39.4918 47.4636C39.5428 47.3636 39.5578 47.2646 39.5718 47.1656C39.6518 47.1656 39.7068 47.1776 39.7868 47.1776C40.0858 47.2326 40.2168 46.9146 40.1818 46.6836C40.1508 46.4526 39.9048 46.3376 39.6898 46.2886Z" fill="#D2B800"/>
<g opacity="0.5">
<path d="M18.8303 7.47758C19.2403 4.20258 22.7303 3.98957 23.1443 5.64457C23.9863 2.76657 28.4803 5.42558 29.7383 8.10658C30.5643 4.39958 32.6153 3.57358 33.0113 5.42558C33.4413 2.96558 36.9273 3.98858 37.7393 6.64958C38.7613 3.79258 40.6143 4.59757 40.6143 5.84057C42.6983 3.98857 45.7723 6.45158 45.9703 9.32658C47.8233 7.47658 50.9133 8.92758 49.2733 10.7656C53.1753 9.96058 53.3753 13.6586 53.3753 13.6586C53.3753 13.6586 54.0533 11.8756 56.2543 11.5606C56.5183 10.1876 56.3013 8.79658 55.3283 7.61058C54.2013 6.25358 53.0453 6.03758 51.8883 6.69958C52.0033 5.60858 51.6583 4.36757 50.6463 3.93757C49.4103 3.37457 48.6303 4.36757 48.0873 5.42457C47.9033 4.94857 47.6183 4.50157 47.1913 4.36657C46.3843 4.16857 46.0333 4.94858 45.7183 5.67358C45.5423 4.10558 45.0743 2.03958 43.5093 2.00358C41.9353 1.97358 41.0773 3.24358 40.5603 4.63258C40.3493 3.51358 39.9843 2.38458 38.9943 2.06958C38.4003 1.88658 37.9373 2.53458 37.6393 3.27658C37.4753 2.86458 37.2113 2.56958 36.7973 2.55058C36.1513 2.55058 35.6903 2.92859 35.3093 3.45659C35.0263 1.84059 34.0343 0.0685752 32.5983 0.00257518C31.4553 -0.0614248 31.0963 1.07858 30.9793 2.18658C30.5983 1.65958 30.1003 1.27658 29.4073 1.44258C28.3843 1.75658 28.4153 3.88957 28.4483 5.32757C27.1263 3.95257 24.9423 2.20158 23.5853 2.56958C23.2903 1.80558 22.5973 1.35858 21.2753 1.55558C18.7653 1.97258 17.6563 4.00257 17.6073 6.29957C16.7793 5.85757 15.6733 5.49058 15.0293 6.20358C16.3193 6.11758 17.7193 6.38558 18.8303 7.47758Z" fill="#5DA800"/>
<path d="M28.4808 58.0576C26.4298 60.9516 22.3338 58.9026 25.6258 54.7686C23.9868 54.9816 19.2408 54.3726 20.0848 51.0826C19.4538 51.0826 15.7548 52.1056 17.1748 49.2306C15.9518 49.4296 12.2508 49.6436 12.0538 45.3326C8.54784 46.1426 5.47184 43.6786 7.12784 39.3486C2.59684 40.3706 2.18284 34.2236 6.07084 32.1726C4.84584 31.3326 3.81684 30.3226 6.30084 29.2796C3.61684 27.6486 4.84584 26.8166 7.91584 25.3816C7.06084 24.3676 6.62884 23.5476 6.39784 22.8476C5.53684 22.7376 4.69484 22.9186 3.93284 23.5476C3.04184 24.2906 3.58684 25.3266 4.34684 26.2066C2.73184 25.8426 0.87784 25.9066 0.18084 27.4796C-0.54916 29.0476 1.68684 31.5306 3.25884 32.8666C2.19884 33.0046 0.991841 33.3276 0.741841 34.3076C0.409841 35.3636 1.47084 36.0916 2.36284 36.4056C2.29684 36.9866 2.44484 37.4476 2.74584 37.7946C2.21484 38.1576 1.90184 38.8046 1.76684 39.8256C1.65384 41.0336 2.28084 42.0426 3.17284 42.7846C1.90084 43.2526 0.627842 44.0446 0.211842 45.3126C-0.380158 47.1516 0.348842 48.6726 1.40684 50.1746C1.90084 50.8716 2.79184 52.1536 3.81484 51.8776C4.39884 51.7116 4.64684 51.1316 4.75784 50.4516C5.26984 51.0686 6.00184 51.4646 6.82584 51.4826C7.05784 51.4826 7.28684 51.4286 7.51884 51.3616C7.70584 52.4066 8.16484 53.4306 8.62584 53.9286C9.36384 54.7206 10.5928 54.5526 11.5648 53.9416C11.2878 55.6796 11.9478 57.2956 13.9668 58.1086C15.7498 58.8166 17.3708 57.8926 18.3928 56.4876C18.4928 57.6116 18.9748 58.6336 20.1448 59.1356C20.9708 59.4496 22.0958 59.7976 23.0788 59.7296C22.2958 60.9146 21.8018 62.2556 22.6278 63.4176C23.6688 64.8686 25.6218 64.4256 26.7938 63.3656C26.9248 64.5716 27.4028 65.6006 28.4108 66.5086C29.2238 67.2166 30.7118 67.5016 31.5688 66.7216C31.8328 66.5086 32.0358 66.2376 32.2138 65.9806C29.7718 63.9746 28.6448 60.6496 28.4808 58.0576Z" fill="#5DA800"/>
</g>
</svg>
