<svg width="225" height="223" viewBox="0 0 225 223" fill="none" xmlns="http://www.w3.org/2000/svg">
<path d="M214.487 82.6222C217.457 78.0222 214.794 70.8892 209.537 69.3602C211.9 68.0622 212.989 64.8522 211.903 62.3842C210.817 59.9172 207.713 58.5522 205.161 59.4182C207.814 53.1862 200.493 45.4512 194.125 47.7562C195.85 44.5862 193.594 40.0222 190.029 39.4652C192.13 38.7562 191.312 35.1332 189.17 34.5592C187.028 33.9852 184.87 35.4042 183.308 36.9782C185.235 29.7652 174.654 23.1922 169.041 28.1152C169.814 25.3552 170.264 22.1332 168.542 19.8412C166.821 17.5492 162.211 17.8912 161.931 20.7442C161.433 18.5842 160.935 16.4252 160.437 14.2652C158.258 14.4632 156.402 16.2722 155.913 18.3762C155.879 17.0282 155.57 15.6862 154.992 14.4682C153.94 14.0632 152.693 14.3782 151.869 15.1322C151.707 13.0532 149.345 10.7472 147.112 10.1032C144.134 9.24321 140.87 11.1122 139.306 13.7872C139.487 11.7902 138.118 9.7602 136.199 9.1792C134.28 8.5982 132.015 9.52821 131.057 11.2892C131.652 8.49121 130.462 5.2062 127.858 4.0202C125.512 2.9532 122.307 4.32019 121.62 6.69119C121.945 2.86819 117.466 -0.485781 113.514 0.169219C109.283 0.870219 106.177 4.62121 104.481 8.56021C102.58 4.78321 96.0771 4.8692 94.2771 8.6962C93.4461 6.9962 91.2881 6.07722 89.4871 6.65622C87.6851 7.23522 86.4671 9.23919 86.7821 11.1052C86.5221 8.45719 83.6021 6.4112 81.0241 7.0712C78.4461 7.7312 76.8681 10.9282 77.9131 13.3752C75.4211 11.3352 69.3491 12.6852 67.3891 15.4492C66.4671 14.7632 65.254 14.4612 64.158 14.8292C62.084 15.5262 61.1111 18.3882 62.3281 20.2052C55.7601 16.4192 46.0821 22.7272 46.8941 30.2652C42.8261 28.8212 38.3281 34.1372 40.4251 37.9102C37.8621 35.8012 33.4441 39.7662 35.2661 42.5412C28.8871 40.0462 21.2191 47.4582 23.4961 53.9182C21.6361 53.4012 22.108 53.9532 20.2 54.2442C19.066 54.4172 17.92 54.7512 17.033 55.4782C14.427 57.6132 15.2401 61.7212 16.2901 64.9232C13.7261 63.7972 10.4651 65.4782 9.50509 68.1082C8.54509 70.7392 8.92707 75.2332 11.0841 77.0192C6.54207 77.5532 4.74806 84.7042 8.50106 87.3182C5.09206 88.8532 4.79707 94.5272 8.02707 96.4082C-0.969934 100.52 -2.63292 114.916 5.18808 120.972C0.498076 123.781 1.05109 132.081 6.07309 134.241C1.71109 137.087 3.88909 145.38 9.08609 145.716C7.44109 147.442 6.48308 152.452 7.09408 154.757C8.44008 159.837 10.7661 163.019 17.2771 164.903C14.3331 171.851 21.8891 180.614 29.1941 178.724C25.8141 183.183 31.4571 190.712 36.6861 188.72C34.6231 192.046 39.7611 196.67 42.8521 194.268C41.1951 197.693 42.5111 202.267 45.7351 204.287C48.9591 206.307 53.6491 205.496 56.0081 202.511C56.0201 205.353 56.3511 208.525 58.5051 210.379C60.6591 212.232 65.0241 211.098 64.8671 208.26C65.0421 210.889 65.2171 213.519 65.3921 216.148C68.3991 217.088 71.9851 215.42 73.2031 212.515C73.3191 216.547 76.9991 220.141 81.0321 220.164C82.9321 220.175 84.7561 219.386 86.1771 218.134C87.6331 219.951 90.2351 221.567 91.9431 221.736C94.1481 221.954 96.3281 220.36 96.9851 218.276C96.9171 220.346 98.4881 222.465 100.578 222.763C103.049 223.116 105.544 220.825 105.402 218.332C107.675 221.207 111.28 223.28 114.913 222.803C118.547 222.326 121.74 218.677 120.92 215.106C121.165 217.517 123.225 219.622 125.631 219.918C128.037 220.214 130.546 218.673 131.369 216.393C131.977 218.566 134.379 220.07 136.6 219.667C138.82 219.265 140.542 217.013 140.348 214.765C142.81 217.854 148.03 217.292 150.856 214.533C153.681 211.773 154.612 207.624 154.961 203.689C154.427 207.151 157.596 210.687 161.095 210.536C164.594 210.384 167.445 206.587 166.614 203.184C168.641 205.354 172.425 205.543 174.658 203.586C176.11 202.313 177.416 199.324 177.639 196.756C183.88 198.35 191.311 191.706 189.48 185.23C194.364 186.409 198.964 179.776 196.148 175.615C201.584 173.584 205.686 168.359 206.368 162.596C215.515 159.534 220.058 147.18 215.074 138.921C217.437 136.476 219.893 133.866 220.69 130.561C221.487 127.256 219.884 123.117 216.561 122.402C220.785 122.246 222.084 115.029 218.18 113.41C221.29 111.299 220.254 105.506 216.604 104.604C221.62 104.539 225.013 98.6122 223.984 93.7032C222.955 88.7912 218.854 85.0902 214.487 82.6222Z" fill="#699415"/>
<path d="M192.268 68.8792C192.289 68.8142 192.305 68.7462 192.325 68.6802C191.902 68.6782 191.493 68.7552 191.137 68.9292C191.515 68.9132 191.892 68.8962 192.268 68.8792Z" fill="#79AE28"/>
<path d="M201.235 95.3829C202.846 94.8279 203.466 92.672 202.797 91.105C202.129 89.538 200.541 88.54 198.914 88.033C201.634 86.273 202.906 82.564 201.839 79.505C200.772 76.446 197.469 74.333 194.245 74.646C195.671 73.913 196.31 71.956 195.59 70.523C195.048 69.444 193.614 68.688 192.325 68.681C192.305 68.747 192.289 68.814 192.268 68.88C191.891 68.897 191.515 68.914 191.138 68.931C191.494 68.756 191.902 68.679 192.326 68.682C192.769 67.202 192.877 65.551 192.162 64.188C191.416 62.765 189.565 61.86 188.12 62.563C187.792 59.881 187.434 57.107 186.029 54.799C184.625 52.491 181.867 50.773 179.25 51.444C179.975 49.009 176.985 46.409 174.675 47.465C175.773 45.558 175.427 42.933 173.872 41.376C172.317 39.819 170.105 38.922 168.197 40.018C168.747 38.142 167.84 35.943 166.127 35.001C164.414 34.059 162.071 34.471 160.782 35.94C161.107 33.864 160.158 31.641 158.435 30.439C156.712 29.237 154.017 29.754 152.181 30.777C151.468 26.191 145.462 23.387 141.488 25.784C141.027 21.51 134.837 19.243 131.725 22.209C133.218 18.904 129.891 14.795 126.267 14.928C122.643 15.061 119.728 18.544 119.445 22.159C119.599 19.598 117.482 17.11 114.929 16.852C112.376 16.594 109.805 18.609 109.444 21.149C106.946 16.422 98.6909 16.774 96.6039 21.696C95.7709 19.244 91.2139 20.047 91.2699 22.637C89.7779 19.707 85.5689 19.084 82.6369 20.572C79.7049 22.06 77.8369 25.024 76.3919 27.977C73.9489 24.974 68.0369 26.869 67.7939 30.732C65.5139 27.966 60.8609 28.082 58.1519 30.43C55.4429 32.778 54.5279 36.706 55.0199 40.257C51.0969 39.217 46.8219 43.353 47.7299 47.308C46.4549 47.349 44.9989 46.773 43.9059 47.43C42.2989 48.397 42.9999 52.006 43.3069 53.856C41.3769 52.535 38.4989 53.348 37.1129 55.232C35.7269 57.116 35.6499 59.725 36.3869 61.945C34.9529 61.571 33.3109 62.237 32.5429 63.505C31.7749 64.773 31.9439 66.536 32.9389 67.635C30.3859 67.239 27.6539 68.618 26.4549 70.907C25.2559 73.196 25.6809 76.227 27.4619 78.099C26.5849 77.979 25.6639 78.557 25.3919 79.399C25.1199 80.241 25.5269 81.249 26.3079 81.666C20.6629 85.616 19.4159 94.5669 23.7659 99.9089C20.8079 100.6 19.7239 106.039 22.4589 107.361C20.4529 109.424 18.5319 111.902 18.4679 114.779C18.4039 117.655 21.1479 120.657 23.8919 119.793C22.0859 120.693 20.3459 122.186 20.0969 124.188C19.8479 126.19 21.9429 128.367 23.7819 127.537C22.4469 130.128 21.7339 133.174 22.5129 135.982C23.2919 138.79 25.8369 141.21 28.7509 141.209C26.9839 142.624 26.3839 145.312 27.3809 147.345C28.3789 149.378 30.8719 150.547 33.0729 150.014C32.1419 151.522 31.4229 153.296 31.7599 155.036C32.0959 156.776 33.8439 158.315 35.5599 157.874C34.1919 160.197 35.2239 163.295 37.0779 165.253C38.9309 167.211 41.4429 168.378 43.7119 169.834C43.1179 171.487 42.8649 173.109 44.1719 174.282C45.4799 175.454 47.5119 175.737 49.0909 174.967C48.5079 177.245 49.4129 179.831 51.2879 181.249C53.1629 182.667 55.8979 182.833 57.9309 181.652C56.9099 183.969 56.2109 187.923 57.6109 190.033C59.0109 192.143 62.5839 192.725 64.0279 190.645C63.6639 192.18 64.6309 193.914 66.1289 194.409C67.6269 194.905 69.4379 194.091 70.0609 192.641C69.6089 195.251 71.7289 197.841 74.2949 198.499C76.8599 199.157 79.6249 198.215 81.7459 196.628C82.5679 198.367 83.7649 200.034 85.5059 200.85C87.2469 201.666 89.6069 201.371 90.7079 199.793C90.3459 202.207 92.8949 204.746 95.2889 205.222C97.6839 205.698 100.303 204.035 100.892 201.666C101.514 203.322 103.112 204.569 104.87 204.769C106.628 204.969 108.466 204.113 109.444 202.639C109.427 203.215 109.411 203.79 109.394 204.366C112.513 206.511 117.548 204.431 118.244 200.711C119.015 203.131 122.028 204.404 124.449 203.636C126.87 202.868 128.54 200.442 128.844 197.921C129.142 199.183 130.412 200.142 131.708 200.082C133.004 200.022 134.18 198.95 134.359 197.666C134.672 199.059 136.607 199.512 137.871 198.847C139.135 198.182 139.861 196.836 140.514 195.566C142.417 198.448 146.308 199.758 149.686 199.043C153.065 198.328 155.745 194.793 155.066 191.407C155.988 193.276 158.969 193.076 160.37 191.533C161.771 189.99 162.023 187.755 162.207 185.679C162.339 187.332 164.863 187.754 166.094 186.642C167.324 185.53 167.557 183.717 167.713 182.066C167.617 183.04 168.722 183.81 169.693 183.68C170.664 183.55 171.438 182.798 171.98 181.983C173.073 180.341 171.293 177.331 170.963 175.387C172.889 175.98 174.947 176.577 176.887 176.028C178.827 175.48 180.434 173.283 179.598 171.449C180.625 172.931 183.126 172.71 184.261 171.31C185.397 169.909 185.344 167.834 184.626 166.18C187.039 167.489 190.336 165.854 191.279 163.276C192.222 160.698 191.601 157.266 189.639 155.346C192.489 154.285 194.131 150.744 193.098 147.884C195.236 148.215 197.223 146.334 197.755 144.237C198.287 142.14 197.731 139.932 197.084 137.867C199.66 137.925 201.767 135.492 202.182 132.949C202.596 130.406 201.72 127.837 200.684 125.477C202.749 125.002 201.335 121.835 201.716 119.751C201.879 118.859 202.454 118.108 202.926 117.333C205.391 113.284 205.059 107.718 202.13 103.991C204.975 101.96 204.44 96.7859 201.235 95.3829Z" fill="#79AE28"/>
<path d="M184.055 96.5604C184.356 96.6364 184.657 96.7125 184.958 96.7885C184.99 96.7425 185.019 96.6925 185.05 96.6455C184.717 96.5435 184.377 96.5074 184.055 96.5604Z" fill="#9DBB1D"/>
<path d="M185.148 101.803C186.446 101.564 187.414 100.173 187.187 98.8733C187.016 97.8943 186.066 96.9572 185.051 96.6462C185.02 96.6932 184.991 96.7422 184.959 96.7892C184.658 96.7132 184.357 96.6373 184.056 96.5613C184.378 96.5083 184.718 96.5442 185.051 96.6472C185.752 95.5852 186.229 94.3103 185.989 93.0663C185.739 91.7673 184.495 90.6142 183.189 90.8252C183.568 88.6332 183.944 86.3622 183.385 84.2092C182.826 82.0562 181.061 80.0482 178.838 79.9552C179.988 78.2082 178.249 75.4482 176.177 75.7322C177.496 74.4902 177.846 72.3393 176.99 70.7423C176.134 69.1463 174.604 67.9133 172.839 68.3243C173.718 66.9763 173.525 65.0272 172.399 63.8782C171.272 62.7292 169.328 62.4972 167.963 63.3492C168.712 61.7902 168.492 59.8122 167.419 58.4562C166.346 57.0992 164.099 56.8672 162.409 57.2372C162.936 53.4532 158.868 49.8162 155.166 50.7622C155.818 47.2832 151.477 44.0273 148.319 45.6263C150.281 43.3763 148.634 39.3463 145.746 38.5913C142.858 37.8363 139.733 39.8882 138.652 42.6702C139.382 40.6882 138.304 38.2242 136.353 37.4152C134.402 36.6062 131.897 37.5832 131.009 39.4992C130.163 35.1802 123.572 33.4972 120.758 36.8812C120.684 34.7502 116.901 34.3012 116.33 36.3562C115.85 33.6922 112.68 32.2022 110.016 32.6782C107.352 33.1552 105.176 35.0472 103.335 37.0322C102.123 34.0852 97.0132 34.1742 95.9042 37.1622C94.7642 34.4402 91.0692 33.4273 88.3762 34.6343C85.6832 35.8413 84.0292 38.7202 83.5742 41.6362C80.7292 39.8852 76.3772 42.1292 76.1542 45.4632C75.1392 45.1922 74.1252 44.9222 73.1112 44.6512C71.9912 45.7132 71.3102 48.0433 71.1132 49.5743C69.9052 48.0743 67.4442 48.0322 65.9042 49.1882C64.3642 50.3442 63.6842 52.3823 63.7372 54.3073C62.6952 53.6723 61.2432 53.8072 60.3362 54.6232C59.4292 55.4402 59.1442 56.8702 59.6672 57.9722C57.7482 57.0542 55.2682 57.4922 53.7792 59.0122C52.2912 60.5322 51.9062 63.0222 52.8652 64.9202C52.2032 64.6172 51.3392 64.8543 50.9252 65.4533C50.5102 66.0523 50.5922 66.9442 51.1092 67.4572C45.7212 69.2302 42.6132 75.9892 44.7732 81.2332C42.2772 81.0752 40.1322 85.1052 41.9732 86.7962C39.9022 87.9452 37.8002 89.4432 37.0662 91.6952C36.3322 93.9472 37.7822 96.9652 40.1502 96.9352C38.5132 97.2162 36.7872 97.9793 36.1152 99.4983C35.4432 101.017 36.5772 103.23 38.2242 103.012C36.5572 104.737 35.2712 106.969 35.2192 109.367C35.1662 111.766 36.5972 114.277 38.8942 114.969C37.1652 115.665 36.0542 117.641 36.3572 119.48C36.6612 121.319 38.3492 122.833 40.2102 122.936C39.1182 123.903 38.1302 125.131 37.9832 126.582C37.8352 128.033 38.8472 129.662 40.3052 129.721C38.6752 131.228 38.7532 133.914 39.7492 135.898C40.7452 137.881 42.4482 139.398 43.8902 141.085C43.0292 142.247 42.4452 143.465 43.1972 144.7C43.9502 145.935 45.4842 146.64 46.9112 146.408C45.9112 148.065 46.0092 150.318 47.1512 151.881C48.2922 153.444 50.4082 154.224 52.2912 153.776C50.9362 155.36 49.4462 158.31 50.0482 160.306C50.6502 162.302 53.3292 163.609 54.9612 162.312C54.3092 163.435 54.6602 165.031 55.7232 165.778C56.7862 166.525 58.4062 166.313 59.2422 165.319C58.2662 167.269 59.3222 169.814 61.1882 170.942C63.0542 172.07 65.4572 171.984 67.5052 171.237C67.7402 172.803 68.2882 174.401 69.4662 175.458C70.6452 176.515 72.5752 176.842 73.8172 175.861C72.9582 177.678 74.3652 180.284 76.1392 181.228C77.9132 182.172 80.3732 181.483 81.3992 179.756C81.4962 181.209 82.4602 182.572 83.7982 183.147C85.1362 183.722 86.7882 183.484 87.9092 182.554C87.7592 183.004 87.6102 183.453 87.4602 183.903C89.4092 186.334 93.8712 185.891 95.3042 183.124C95.3372 185.214 97.4102 186.933 99.5002 186.903C101.59 186.872 103.483 185.357 104.322 183.442C104.257 184.508 105.03 185.565 106.066 185.825C107.102 186.085 108.283 185.52 108.73 184.55C108.646 185.722 110.063 186.539 111.217 186.315C112.371 186.091 113.263 185.202 114.08 184.356C114.896 187.08 117.651 189.036 120.484 189.274C123.317 189.512 126.269 187.363 126.538 184.532C126.821 186.224 129.218 186.774 130.689 185.891C132.16 185.008 132.889 183.305 133.527 181.713C133.238 183.047 135.128 183.979 136.362 183.395C137.596 182.811 138.21 181.437 138.724 180.173C138.417 180.918 139.106 181.787 139.901 181.915C140.697 182.043 141.485 181.634 142.107 181.121C143.359 180.087 142.67 177.292 142.872 175.681C144.25 176.606 145.73 177.565 147.389 177.593C149.048 177.621 150.837 176.272 150.613 174.627C151.071 176.039 153.094 176.459 154.322 175.625C155.55 174.791 156.001 173.142 155.828 171.668C157.419 173.273 160.406 172.767 161.762 170.958C163.118 169.15 163.443 166.297 162.352 164.318C164.85 164.159 166.985 161.758 166.85 159.258C168.457 160.026 170.469 159.016 171.387 157.489C172.305 155.962 172.39 154.09 172.371 152.309C174.388 152.966 176.626 151.549 177.557 149.643C178.487 147.737 178.406 145.504 178.151 143.398C179.891 143.514 179.529 140.682 180.324 139.13C180.665 138.465 181.296 138.01 181.852 137.511C184.757 134.905 185.817 130.439 184.393 126.806C187.12 125.882 187.927 121.677 185.735 119.81C187.136 119.755 188.137 118.203 187.982 116.809C187.827 115.415 186.813 114.251 185.651 113.465C188.213 112.724 190.096 110.102 189.982 107.438C189.865 104.772 187.763 102.322 185.148 101.803Z" fill="#9DBB1D"/>
<path d="M169.637 95.2723C171.305 92.6893 169.809 88.6833 166.857 87.8243C168.184 87.0953 168.795 85.2923 168.185 83.9063C167.575 82.5203 165.832 81.7542 164.398 82.2402C165.888 78.7402 161.777 74.3963 158.2 75.6903C159.169 73.9103 157.902 71.3463 155.899 71.0343C157.079 70.6363 156.62 68.6013 155.417 68.2793C154.214 67.9563 153.002 68.7533 152.125 69.6373C153.207 65.5863 147.264 61.8943 144.112 64.6593C144.546 63.1093 144.799 61.2993 143.832 60.0123C142.865 58.7253 140.277 58.9172 140.119 60.5192C139.839 59.3062 139.559 58.0933 139.28 56.8803C138.056 56.9913 137.014 58.0073 136.739 59.1893C136.72 58.4323 136.546 57.6782 136.222 56.9942C135.631 56.7672 134.931 56.9433 134.468 57.3673C134.377 56.1993 133.05 54.9053 131.797 54.5423C130.125 54.0593 128.291 55.1083 127.413 56.6113C127.514 55.4903 126.746 54.3492 125.668 54.0232C124.59 53.6972 123.318 54.2192 122.78 55.2082C123.114 53.6362 122.446 51.7913 120.983 51.1263C119.665 50.5263 117.865 51.2943 117.48 52.6263C117.662 50.4793 115.147 48.5952 112.927 48.9632C110.551 49.3572 108.807 51.4633 107.854 53.6763C106.786 51.5553 103.134 51.6032 102.123 53.7522C101.657 52.7972 100.444 52.2812 99.4327 52.6062C98.4207 52.9312 97.7366 54.0572 97.9126 55.1052C97.7666 53.6182 96.1266 52.4692 94.6786 52.8392C93.2306 53.2102 92.3447 55.0053 92.9317 56.3803C91.5317 55.2343 88.1217 55.9922 87.0207 57.5452C86.5027 57.1602 85.8217 56.9903 85.2057 57.1973C84.0407 57.5883 83.4936 59.1953 84.1776 60.2163C80.4886 58.0903 75.0536 61.6333 75.5096 65.8663C73.2246 65.0553 70.6986 68.0413 71.8766 70.1593C70.4366 68.9743 67.9567 71.2012 68.9787 72.7602C65.3957 71.3592 61.0896 75.5212 62.3676 79.1492C61.3226 78.8592 61.5886 79.1683 60.5166 79.3323C59.8796 79.4293 59.2356 79.6173 58.7376 80.0253C57.2736 81.2243 57.7307 83.5313 58.3207 85.3293C56.8807 84.6963 55.0486 85.6403 54.5096 87.1183C53.9706 88.5953 54.1846 91.1203 55.3966 92.1233C52.8456 92.4233 51.8387 96.4393 53.9457 97.9073C52.0317 98.7693 51.8657 101.956 53.6797 103.012C48.6267 105.322 47.6927 113.407 52.0857 116.808C49.4517 118.385 49.7627 123.047 52.5827 124.26C50.1327 125.858 51.3556 130.516 54.2746 130.705C53.3506 131.675 52.8127 134.488 53.1557 135.783C53.9117 138.636 55.2177 140.423 58.8747 141.481C57.2207 145.383 61.4647 150.305 65.5677 149.243C63.6697 151.747 66.8387 155.976 69.7757 154.857C68.6167 156.725 71.5026 159.322 73.2386 157.973C72.3076 159.897 73.0466 162.465 74.8576 163.6C76.6686 164.735 79.3027 164.279 80.6277 162.602C80.6347 164.198 80.8206 165.98 82.0296 167.021C83.2396 168.062 85.6906 167.425 85.6026 165.831C85.7006 167.308 85.7996 168.784 85.8976 170.261C87.5856 170.789 89.6006 169.852 90.2846 168.221C90.3496 170.485 92.4167 172.504 94.6817 172.517C95.7487 172.523 96.7726 172.08 97.5716 171.377C98.3896 172.397 99.8507 173.305 100.81 173.4C102.048 173.522 103.273 172.627 103.642 171.457C103.604 172.62 104.486 173.809 105.66 173.977C107.048 174.175 108.449 172.888 108.369 171.489C109.645 173.104 111.67 174.268 113.711 174C115.752 173.732 117.545 171.683 117.084 169.677C117.222 171.031 118.379 172.213 119.73 172.379C121.081 172.545 122.49 171.68 122.952 170.399C123.293 171.62 124.643 172.464 125.89 172.238C127.137 172.012 128.104 170.748 127.995 169.485C129.378 171.22 132.309 170.904 133.896 169.355C135.483 167.805 136.006 165.474 136.202 163.265C135.902 165.209 137.682 167.195 139.647 167.11C141.612 167.025 143.213 164.892 142.747 162.981C143.885 164.2 146.011 164.306 147.265 163.207C148.081 162.492 148.814 160.813 148.939 159.371C152.444 160.266 156.617 156.535 155.589 152.897C158.332 153.559 160.915 149.834 159.334 147.497C162.387 146.357 164.691 143.422 165.074 140.185C170.211 138.465 172.763 131.527 169.963 126.889C171.29 125.516 172.67 124.05 173.117 122.194C173.564 120.338 172.665 118.013 170.798 117.611C173.17 117.523 173.9 113.47 171.707 112.561C173.454 111.375 172.872 108.122 170.822 107.615C173.639 107.579 175.545 104.25 174.967 101.493C174.393 98.7373 172.09 96.6583 169.637 95.2723Z" fill="#B6CC36"/>
<g opacity="0.16">
<path d="M189.244 38.5334C187.168 37.9774 185.078 39.3515 183.564 40.8765C185.431 33.8885 175.179 27.5194 169.741 32.2884C170.49 29.6134 170.926 26.4924 169.258 24.2714C167.59 22.0504 163.124 22.3824 162.852 25.1464C162.37 23.0544 161.887 20.9614 161.404 18.8694C159.293 19.0614 157.495 20.8134 157.021 22.8524C156.988 21.5464 156.689 20.2465 156.129 19.0655C155.11 18.6735 153.901 18.9774 153.103 19.7084C152.946 17.6944 150.657 15.4604 148.494 14.8354C145.609 14.0024 142.446 15.8124 140.93 18.4054C141.105 16.4704 139.779 14.5035 137.92 13.9405C136.061 13.3775 133.865 14.2784 132.937 15.9854C133.514 13.2734 132.361 10.0914 129.838 8.94244C127.565 7.90843 124.46 9.23345 123.795 11.5304C124.11 7.82645 119.771 4.57745 115.941 5.21145C111.842 5.89045 108.833 9.52445 107.189 13.3415C105.347 9.68145 99.0455 9.76544 97.3015 13.4734C96.4965 11.8264 94.4055 10.9355 92.6595 11.4965C90.9145 12.0575 89.7335 13.9995 90.0385 15.8075C89.7865 13.2415 86.9575 11.2594 84.4605 11.8984C81.9635 12.5374 80.4345 15.6354 81.4455 18.0064C79.0315 16.0294 73.1485 17.3374 71.2485 20.0154C70.3555 19.3504 69.1795 19.0575 68.1185 19.4145C66.1095 20.0895 65.1655 22.8624 66.3455 24.6234C59.9815 20.9554 50.6055 27.0674 51.3915 34.3704C47.4505 32.9714 43.0925 38.1224 45.1235 41.7774C42.6405 39.7334 38.3595 43.5754 40.1245 46.2644C33.9435 43.8474 26.5145 51.0284 28.7205 57.2874C26.9185 56.7864 27.3765 57.3214 25.5275 57.6034C24.4285 57.7714 23.3186 58.0944 22.4586 58.7994C19.9326 60.8674 20.7215 64.8484 21.7385 67.9504C19.2545 66.8594 16.0945 68.4874 15.1645 71.0364C14.2345 73.5854 14.6045 77.9404 16.6945 79.6704C12.2935 80.1874 10.5565 87.1165 14.1925 89.6495C10.8895 91.1365 10.6035 96.6344 13.7335 98.4564C5.01652 102.44 3.40452 116.388 10.9835 122.256C8.61552 123.674 7.6395 126.535 7.9245 129.248C8.9905 129.597 10.1365 129.626 11.2625 129.197C9.26351 132.419 14.2425 136.899 17.2365 134.572C15.6305 137.891 16.9055 142.322 20.0305 144.279C23.1545 146.236 27.6985 145.451 29.9835 142.558C29.9945 145.311 30.3155 148.385 32.4025 150.181C34.4895 151.977 38.7185 150.877 38.5665 148.128C38.7365 150.675 38.9055 153.223 39.0755 155.771C41.9885 156.682 45.4636 155.066 46.6436 152.251C46.7566 156.157 50.3205 159.64 54.2295 159.662C56.0695 159.672 57.8375 158.908 59.2145 157.695C60.6255 159.455 63.1465 161.021 64.8015 161.185C66.9375 161.396 69.0505 159.852 69.6865 157.833C69.6215 159.839 71.1425 161.891 73.1675 162.18C75.5625 162.522 77.9795 160.302 77.8415 157.887C80.0435 160.672 83.5365 162.681 87.0565 162.219C90.5775 161.757 93.6715 158.222 92.8765 154.761C93.1145 157.097 95.1105 159.136 97.4405 159.423C99.7715 159.71 102.203 158.216 103 156.007C103.589 158.113 105.915 159.57 108.067 159.18C110.218 158.79 111.887 156.609 111.7 154.43C114.085 157.422 119.143 156.879 121.881 154.205C124.618 151.531 125.52 147.511 125.859 143.699C125.342 147.053 128.412 150.479 131.803 150.332C135.193 150.185 137.956 146.506 137.151 143.209C139.115 145.311 142.781 145.494 144.945 143.598C146.352 142.365 147.618 139.469 147.833 136.981C153.88 138.525 161.079 132.088 159.306 125.813C164.038 126.955 168.495 120.529 165.767 116.497C171.034 114.529 175.009 109.466 175.669 103.883C184.532 100.916 188.933 88.9474 184.104 80.9454C186.393 78.5774 188.773 76.0475 189.545 72.8455C190.317 69.6435 188.765 65.6334 185.545 64.9394C189.637 64.7884 190.896 57.7954 187.114 56.2264C190.127 54.1804 189.123 48.5685 185.588 47.6945C188.161 47.6615 190.285 46.0294 191.574 43.8014C191.11 43.5524 190.612 43.3664 190.077 43.2834C192.112 42.5994 191.32 39.0894 189.244 38.5334Z" fill="#9BE719"/>
</g>
<path d="M28.3516 56.5041C28.3516 56.5041 29.0736 64.8061 40.8046 65.3471C40.8046 65.3471 38.8186 56.3241 28.3516 56.5041Z" fill="#B6CC36"/>
<path d="M80.9167 209.636C80.9167 209.636 88.0947 205.402 83.5207 194.586C83.5207 194.586 76.2377 200.272 80.9167 209.636Z" fill="#B6CC36"/>
<path d="M137.375 192.583C137.375 192.583 134.735 200.92 143.402 205.722C143.402 205.722 146.737 198.575 137.375 192.583Z" fill="#B6CC36"/>
<path d="M108.8 26.1041C108.8 26.1041 115.723 20.76 111.341 11.873C111.341 11.873 104.526 15.8441 108.8 26.1041Z" fill="#B6CC36"/>
<path d="M174.049 52.1832C174.049 52.1832 182.633 53.8522 186.413 44.6932C186.413 44.6932 178.931 42.1972 174.049 52.1832Z" fill="#B6CC36"/>
<path d="M199.648 108.308C199.648 108.308 203.533 110.927 207.313 107.2C207.313 107.2 204.144 104.405 199.648 108.308Z" fill="#B6CC36"/>
<path d="M197.453 116.981C197.453 116.981 201.073 122.242 207.729 119.402C207.729 119.402 205.105 114.273 197.453 116.981Z" fill="#B6CC36"/>
<path d="M130.933 27.2702C130.933 27.2702 136.759 23.9912 134.424 16.7842C134.424 16.7842 128.83 19.0362 130.933 27.2702Z" fill="#B6CC36"/>
<path d="M14.7646 117.359C14.7646 117.359 18.7386 123.36 27.8636 118.93C27.8636 118.93 22.6336 112.903 14.7646 117.359Z" fill="#B6CC36"/>
<path d="M25.8545 152.643C25.8545 152.643 30.1085 155.432 34.7985 150.01C34.7985 150.01 29.7205 147.555 25.8545 152.643Z" fill="#B6CC36"/>
<path d="M64.4258 198.97C64.4258 198.97 70.0178 198.509 70.4178 190.613C70.4178 190.613 64.3368 191.922 64.4258 198.97Z" fill="#B6CC36"/>
<path d="M51.6248 32.8364C51.6248 32.8364 50.0207 38.2124 57.2307 41.4574C57.2307 41.4574 58.2228 35.3164 51.6248 32.8364Z" fill="#B6CC36"/>
<path d="M171.948 176.544C171.948 176.544 172.442 182.745 179.44 183.587C179.44 183.587 179.722 177.983 171.948 176.544Z" fill="#B6CC36"/>
<path d="M66.3525 49.1304C66.3525 49.1304 64.6056 55.3064 72.9056 58.8994C72.9056 58.8994 73.9395 51.8584 66.3525 49.1304Z" fill="#B6CC36"/>
<path d="M62.3927 173.757C62.3927 173.757 68.7177 172.668 68.3767 163.63C68.3767 163.63 61.5797 165.736 62.3927 173.757Z" fill="#B6CC36"/>
<path d="M108.459 188.002C108.459 188.002 112.812 183.765 107.706 176.894C107.706 176.894 103.529 182.177 108.459 188.002Z" fill="#B6CC36"/>
<path d="M132.586 49.2054C132.586 49.2054 139.03 47.2474 138.302 39.6514C138.302 39.6514 132.31 40.6494 132.586 49.2054Z" fill="#B6CC36"/>
<path d="M172.454 85.8026C172.454 85.8026 178.18 89.3486 183.403 83.7846C183.403 83.7846 178.696 79.9446 172.454 85.8026Z" fill="#B6CC36"/>
<path d="M175.562 133.21C175.562 133.21 177.644 136.157 181.384 134.505C181.384 134.505 179.866 131.626 175.562 133.21Z" fill="#B6CC36"/>
<path d="M171.612 138.855C171.612 138.855 172.782 143.632 178.351 143.404C178.351 143.404 177.862 138.994 171.612 138.855Z" fill="#B6CC36"/>
<path d="M148.207 56.0882C148.207 56.0882 153.298 55.3172 153.584 49.4902C153.584 49.4902 148.941 49.5852 148.207 56.0882Z" fill="#B6CC36"/>
<path d="M39.9531 89.2435C39.9531 89.2435 41.1761 94.6506 48.9561 93.9516C48.9561 93.9516 46.8351 88.1825 39.9531 89.2435Z" fill="#B6CC36"/>
<path d="M38.3027 117.681C38.3027 117.681 40.6047 120.851 45.4627 118.227C45.4627 118.227 42.4757 115.072 38.3027 117.681Z" fill="#B6CC36"/>
<path d="M53.4297 161.573C53.4297 161.573 57.5817 162.768 60.0267 157.191C60.0267 157.191 55.2897 156.473 53.4297 161.573Z" fill="#B6CC36"/>
<path d="M89.5754 38.4414C89.5754 38.4414 86.9523 41.8754 91.2583 46.1804C91.2583 46.1804 93.6494 42.0284 89.5754 38.4414Z" fill="#B6CC36"/>
<path d="M136.983 174.783C136.983 174.783 135.646 179.384 140.455 181.901C140.455 181.901 142.188 177.943 136.983 174.783Z" fill="#B6CC36"/>
<path d="M101.371 56.0983C101.371 56.0983 104.892 50.9993 100.018 45.9453C100.018 45.9453 96.2738 50.0953 101.371 56.0983Z" fill="#79AE28"/>
<path d="M48.9014 141.739C48.9014 141.739 54.2594 143.326 57.4764 136.137C57.4764 136.137 51.3574 135.162 48.9014 141.739Z" fill="#79AE28"/>
<path d="M79.3848 170.612C79.3848 170.612 84.4169 168.981 83.0779 161.648C83.0779 161.648 77.7798 164.163 79.3848 170.612Z" fill="#79AE28"/>
<path d="M151.709 71.5261C151.709 71.5261 157.496 72.4801 159.854 66.2681C159.854 66.2681 154.79 64.7391 151.709 71.5261Z" fill="#79AE28"/>
<path d="M168.737 115.466C168.737 115.466 171.842 120.441 178.064 118.109C178.064 118.109 175.869 113.297 168.737 115.466Z" fill="#79AE28"/>
<path d="M152.897 153.684C152.897 153.684 153.389 156.787 156.945 156.939C156.945 156.939 156.868 154.106 152.897 153.684Z" fill="#79AE28"/>
<path d="M147.639 156.57C147.639 156.57 146.712 160.751 151.148 162.719C151.148 162.719 152.465 159.088 147.639 156.57Z" fill="#79AE28"/>
<path d="M161.254 82.9202C161.254 82.9202 165.526 84.2802 167.995 79.8402C167.995 79.8402 164.334 78.1252 161.254 82.9202Z" fill="#79AE28"/>
<path d="M63.945 67.0962C63.945 67.0962 62.8159 71.7892 69.1609 74.2422C69.1609 74.2422 69.729 68.9202 63.945 67.0962Z" fill="#79AE28"/>
<path d="M51.6982 88.6662C51.6982 88.6662 52.2742 92.0282 57.0782 91.8512C57.0782 91.8512 55.9622 88.2372 51.6982 88.6662Z" fill="#79AE28"/>
<path d="M46.5977 128.77C46.5977 128.77 49.3797 131.303 53.4377 127.89C53.4377 127.89 50.0147 125.504 46.5977 128.77Z" fill="#79AE28"/>
<path d="M120.602 53.2393C120.602 53.2393 124.069 50.9193 122.27 46.5483C122.27 46.5483 118.899 48.2183 120.602 53.2393Z" fill="#79AE28"/>
<path d="M106.72 178.178C106.72 178.178 109.599 175.755 106.751 171.282C106.751 171.282 103.934 174.358 106.72 178.178Z" fill="#79AE28"/>
<path d="M86.7306 67.5566C86.7306 67.5566 85.0836 71.4926 90.2746 74.5276C90.2746 74.5276 91.5196 69.9636 86.7306 67.5566Z" fill="#79AE28"/>
<path d="M74.1553 149.489C74.1553 149.489 78.4163 149.276 78.9143 143.284C78.9143 143.284 74.2593 144.13 74.1553 149.489Z" fill="#79AE28"/>
<path d="M103.419 162.573C103.419 162.573 106.63 160.125 103.81 155.182C103.81 155.182 100.631 158.334 103.419 162.573Z" fill="#79AE28"/>
<path d="M130.437 72.9003C130.437 72.9003 134.847 72.1233 134.973 67.0513C134.973 67.0513 130.939 67.2313 130.437 72.9003Z" fill="#79AE28"/>
<path d="M153.822 100.239C153.822 100.239 157.318 103.037 161.209 99.7821C161.209 99.7821 158.41 96.8721 153.822 100.239Z" fill="#79AE28"/>
<path d="M152.084 131.774C152.084 131.774 153.223 133.885 155.823 133.094C155.823 133.094 155.051 131.073 152.084 131.774Z" fill="#79AE28"/>
<path d="M149.027 135.186C149.027 135.186 149.418 138.432 153.111 138.727C153.111 138.727 153.14 135.778 149.027 135.186Z" fill="#79AE28"/>
<path d="M140.195 78.6903C140.195 78.6903 143.617 78.5882 144.271 74.7662C144.271 74.7662 141.199 74.4573 140.195 78.6903Z" fill="#79AE28"/>
<path d="M66.1006 91.9192C66.1006 91.9192 66.4756 95.5852 71.6666 95.7462C71.6666 95.7462 70.7276 91.7692 66.1006 91.9192Z" fill="#79AE28"/>
<path d="M62.7383 110.554C62.7383 110.554 64.0043 112.83 67.4193 111.487C67.4193 111.487 65.7013 109.166 62.7383 110.554Z" fill="#79AE28"/>
<path d="M69.2129 140.732C69.2129 140.732 71.8579 141.853 73.9169 138.367C73.9169 138.367 70.8479 137.515 69.2129 140.732Z" fill="#79AE28"/>
<path d="M103.404 67.6004C103.404 67.6004 105.314 65.0514 102.912 62.3584C102.912 62.3584 100.906 64.4144 103.404 67.6004Z" fill="#79AE28"/>
<path d="M123.299 156.128C123.299 156.128 122.049 159.057 125.022 161.103C125.022 161.103 126.482 158.63 123.299 156.128Z" fill="#79AE28"/>
</svg>
