<svg width="231" height="236" viewBox="0 0 231 236" fill="none" xmlns="http://www.w3.org/2000/svg">
<path d="M58.2691 169.614C19.1071 164.526 22.3941 207.408 22.3941 207.408C48.8631 207.756 97.4311 174.702 58.2691 169.614Z" fill="#79AE28"/>
<path d="M58.269 169.614C40.732 171.469 22.394 207.408 22.394 207.408C22.394 207.408 26.878 209.347 42.105 204.142C57.333 198.937 69.907 189.419 73.039 179.368C76.171 169.318 58.269 169.614 58.269 169.614Z" fill="#9DBB1D"/>
<path opacity="0.66" d="M59.6611 173.726C44.9321 171.688 36.5571 194.476 36.5571 194.476C36.5571 194.476 74.3891 175.764 59.6611 173.726Z" fill="#DDDD26"/>
<path d="M87.4644 32.252C91.9814 42.459 104.361 53.19 104.361 53.19C104.361 53.19 111.715 39.963 111.946 28.548C112.177 17.133 95.2034 0 95.2034 0C95.2034 0 82.9474 22.044 87.4644 32.252Z" fill="#608616"/>
<path d="M95.2033 0C95.2033 0 82.2063 19.709 85.9073 31.386C89.0533 41.313 97.3933 47.392 104.361 53.19C104.361 53.19 106.226 38.836 98.5953 26.897C90.9643 14.958 95.2033 0 95.2033 0Z" fill="#699415"/>
<path opacity="0.66" d="M95.2032 0C95.2032 0 90.7942 10.375 95.9412 21.894C101.088 33.413 103.593 39.295 103.593 39.295C103.593 39.295 103.377 30.517 99.7232 23.035C96.0692 15.552 95.2032 0 95.2032 0Z" fill="#DDDD26"/>
<path d="M188.921 173.258C174.566 169.852 163.134 171.421 163.134 171.421C163.134 171.421 161.602 179.069 175.565 193.458C188.609 206.899 205.102 209.564 205.102 209.564C205.017 202.408 203.276 176.664 188.921 173.258Z" fill="#9DBB1D"/>
<path d="M192.233 190.872C182.634 186.216 175.253 187.378 163.133 171.421C162.449 170.52 170.489 188.032 182.205 190.158C193.92 192.284 205.102 209.564 205.102 209.564C205.102 209.564 201.832 195.528 192.233 190.872Z" fill="#79AE28"/>
<path d="M189.233 179.337C179.575 179.692 172.158 177.872 163.134 171.42C163.134 171.42 171.749 183.602 179.894 186.368C188.039 189.133 193.063 190.385 197.52 194.029C201.978 197.673 198.891 178.983 189.233 179.337Z" fill="#699415"/>
<path d="M141.827 175.739C118.019 199.466 155.213 228.897 155.213 228.897C189.425 187.096 141.827 175.739 141.827 175.739Z" fill="#699415"/>
<path d="M141.827 175.739C141.827 175.739 130.584 185.391 135.34 203.05C140.096 220.71 155.212 228.896 155.212 228.896C155.212 228.896 158.024 201.185 149.755 192.309C141.487 183.433 143.055 177.133 141.827 175.739Z" fill="#699415"/>
<path d="M145.444 173.877L141.462 173.643C141.462 173.643 142.095 183.269 148.431 191.033C154.767 198.797 155.448 211.023 155.448 211.023C155.448 211.023 158.363 198.808 152.577 191.876C146.792 184.944 145.444 173.877 145.444 173.877Z" fill="#506A08"/>
<path d="M140.48 186.97C136.809 184.559 141.009 211.973 147.462 217.746C153.916 223.519 153.175 195.307 140.48 186.97Z" fill="#79AE28"/>
<path d="M84.8182 203.644C76.3552 217.474 72.6182 223.887 72.6182 223.887C72.6182 223.887 86.7972 226.165 96.0622 212.926C105.327 199.687 102.7 187.04 96.5232 179.664C96.5232 179.664 93.2802 189.814 84.8182 203.644Z" fill="#608616"/>
<path d="M72.4762 188.843C63.1682 203.533 71.0042 221.707 72.6182 223.887C72.6182 223.887 77.9442 216.664 79.8402 204.682C81.7362 192.7 96.5222 179.664 96.5222 179.664C96.5222 179.664 81.7852 174.152 72.4762 188.843Z" fill="#79AE28"/>
<path d="M80.9752 197.094C77.8622 206.692 72.6182 223.887 72.6182 223.887C72.6182 223.887 84.6802 211.224 87.9962 202.023C91.3112 192.822 96.5232 179.664 96.5232 179.664C96.5232 179.664 84.0872 187.496 80.9752 197.094Z" fill="#9DBB1D"/>
<path d="M116.85 179.394C116.85 179.394 103.427 193.177 101.864 207.653C100.301 222.128 116.188 235.128 116.188 235.128C116.188 235.128 130.442 219.185 128.836 207.609C127.232 196.033 116.85 179.394 116.85 179.394Z" fill="#ABC825"/>
<path d="M101.865 207.652C100.304 223.574 116.189 235.127 116.189 235.127C116.189 235.127 112.99 219.212 112.976 210.529C112.962 201.846 120.871 187.36 120.871 187.36C120.871 187.36 103.425 191.73 101.865 207.652Z" fill="#9DBB1D"/>
<path opacity="0.66" d="M102.128 206.687C101.347 214.166 110.337 213.427 111.381 204.983C112.425 196.539 120.079 187.36 120.079 187.36C106.6 192.689 102.909 199.208 102.128 206.687Z" fill="#DDDD26"/>
<path d="M182.488 132.373C153.33 139.478 218.35 176.678 229.866 168.456C230.798 167.791 211.647 125.268 182.488 132.373Z" fill="#699415"/>
<path d="M217.233 139.108C201.845 126.14 189.326 140.447 189.326 140.447C189.326 140.447 200.605 138.288 212.066 149.121C223.527 159.954 229.865 168.456 229.865 168.456C229.865 168.456 232.62 152.076 217.233 139.108Z" fill="#9DBB1D"/>
<path d="M208.01 143.639C198.735 138.525 187.773 136.257 187.773 136.257L185.875 142.054C187.404 141.422 197.154 139.895 207.009 147.275C216.863 154.655 222.739 160.638 222.739 160.638C222.739 160.638 217.285 148.753 208.01 143.639Z" fill="#506A08"/>
<path d="M137.832 144.982C137.832 144.982 135.241 164.843 140.528 178.998C145.815 193.154 175.06 205.945 175.06 205.945C175.06 205.945 179.378 172.844 168.839 162.492C158.299 152.141 137.832 144.982 137.832 144.982Z" fill="#608616"/>
<path d="M137.832 144.982C137.832 144.982 142.543 163.551 157.759 174.513C172.975 185.475 175.06 205.946 175.06 205.946C175.06 205.946 181.428 175.357 171.177 162.798C162.461 152.121 149.234 148.714 137.832 144.982Z" fill="#699415"/>
<path d="M91.4873 181.513C91.4873 181.513 91.8943 199.094 97.3883 207.341C97.3883 207.341 116.121 198.244 118.578 179.101C121.035 159.959 117.829 143.586 117.829 143.586L91.4873 181.513Z" fill="#79AE28"/>
<path d="M127.921 146.636C127.921 146.636 119.528 165.666 117.338 178.307C115.148 190.948 117.679 203.897 131.109 208.911C131.109 208.911 140.426 200.255 139.836 185.426C139.245 170.597 127.921 146.636 127.921 146.636Z" fill="#79AE28"/>
<path d="M127.921 146.636C127.921 146.636 132.538 161.319 136.573 176.567C140.198 190.265 131.108 208.911 131.108 208.911C131.108 208.911 143.193 201.517 141.384 183.736C139.576 165.955 131.252 153.269 127.921 146.636Z" fill="#9DBB1D"/>
<path opacity="0.66" d="M145.559 161.701C145.559 161.701 150.109 172.394 158.256 179.816C166.403 187.238 175.06 205.947 175.06 205.947C175.06 205.947 175.42 191.032 163.466 179.373C151.512 167.714 145.559 161.701 145.559 161.701Z" fill="#DDDD26"/>
<path d="M58.4118 196.956C58.4118 196.956 81.9848 194.664 93.7628 181.053C105.541 167.442 106.57 135.509 106.57 135.509C106.57 135.509 93.6058 147.238 72.0638 155.782C49.7578 164.629 58.4118 196.956 58.4118 196.956Z" fill="#9DBB1D"/>
<path d="M56.9569 174.948C54.8279 190.849 58.4109 196.956 58.4109 196.956C58.4109 196.956 65.8869 183.199 78.1809 174.999C97.3259 162.23 106.569 135.509 106.569 135.509C106.569 135.509 85.5309 150.911 79.7439 152.03C73.9559 153.15 59.0859 159.048 56.9569 174.948Z" fill="#699415"/>
<path opacity="0.66" d="M89.8331 181.435C82.3601 189.636 58.4111 196.956 58.4111 196.956C58.4111 196.956 82.6881 198.306 96.1811 179.074C109.673 159.842 106.569 135.509 106.569 135.509C106.569 135.509 104.775 165.04 89.8331 181.435Z" fill="#DDDD26"/>
<path d="M106.685 63.052C106.685 63.052 125.694 69.14 138.769 53.448C151.843 37.756 145.613 22.634 145.613 22.634C145.613 22.634 104.856 32.162 106.685 63.052Z" fill="#79AE28"/>
<path d="M106.685 63.052C153.38 51.436 128.53 6.14404 128.53 6.14404C90.5005 22 106.685 63.052 106.685 63.052Z" fill="#9DBB1D"/>
<path d="M117.767 38.403C105.481 51.97 106.685 63.052 106.685 63.052C106.685 63.052 107.09 57.402 122.179 41.491C137.268 25.58 128.53 6.14404 128.53 6.14404C128.53 6.14404 130.052 24.836 117.767 38.403Z" fill="#608616"/>
<path d="M64.368 16.791C60.074 23.96 55.539 45.881 66.76 57.759C77.981 69.637 92.145 71.817 92.145 71.817C92.145 71.817 107.728 55.366 94.584 37.611C81.441 19.854 64.368 16.791 64.368 16.791Z" fill="#9DBB1D"/>
<path d="M82.2662 49.397C69.9802 39.52 64.3682 16.79 64.3682 16.79C64.3682 16.79 65.3372 39.005 75.1052 49.156C84.8732 59.307 90.8442 66.401 92.1452 71.817C92.1452 71.817 94.5522 59.274 82.2662 49.397Z" fill="#608616"/>
<path opacity="0.66" d="M85.1021 33.2889C74.4911 24.7589 70.7461 23.127 70.7461 23.127C70.7461 23.127 70.3741 38.4569 79.9331 42.0049C89.4931 45.5529 94.9571 53.6229 94.9571 53.6229C94.9571 53.6229 95.7131 41.8199 85.1021 33.2889Z" fill="#DDDD26"/>
<path d="M191.424 148.263C170.612 130.764 160.898 133.481 160.898 133.481C160.898 133.481 160.58 148.96 167.17 167.933C173.76 186.905 207.496 187.018 216.813 186.516C216.813 186.516 210.865 164.61 191.424 148.263Z" fill="#9DBB1D"/>
<path opacity="0.66" d="M188.133 157.461C183.605 141.921 159.624 132.641 160.899 133.482C183.473 148.371 183.073 158.378 190.572 170.859C198.071 183.34 216.814 186.516 216.814 186.516C216.814 186.516 192.661 173.001 188.133 157.461Z" fill="#DDDD26"/>
<path d="M182.857 154.685C178.035 143.993 160.898 133.481 160.898 133.481C170.646 145.035 174.129 154.833 175.122 167.826C176.115 180.819 200.882 183.348 195.473 177.681C190.062 172.013 187.678 165.377 182.857 154.685Z" fill="#79AE28"/>
<path d="M203.248 64.931L169.22 99.08C169.22 99.08 184.575 97.334 200.792 89.813C217.009 82.292 219.805 63.206 219.805 63.206C210.987 60.66 203.248 64.931 203.248 64.931Z" fill="#79AE28"/>
<path d="M198.624 93.081C188.734 99.669 175.754 113.905 175.754 113.905C175.754 113.905 200.293 114.528 213.078 109.476C225.863 104.424 229.708 93.289 229.708 93.289C220.432 83.789 208.514 86.493 198.624 93.081Z" fill="#79AE28"/>
<path d="M204.351 110.029C189.922 112.319 175.754 113.905 175.754 113.905C182.62 114.244 196.485 116.546 212.227 111.421C227.969 106.296 229.708 93.2891 229.708 93.2891C229.708 93.2891 217.314 107.971 204.351 110.029Z" fill="#9DBB1D"/>
<path d="M196.758 110.542C182.811 109.362 165.744 116.635 165.744 116.635C165.744 116.635 177.242 133.102 189.108 139.916C200.974 146.73 229.419 134.61 229.419 134.61C229.419 134.61 210.704 111.722 196.758 110.542Z" fill="#608616"/>
<path d="M197.062 127.031C183.484 116.198 165.744 116.635 165.744 116.635C171.921 125.873 178.264 136.82 189.964 141.926C203.727 147.932 229.419 134.611 229.419 134.611C229.419 134.611 210.64 137.864 197.062 127.031Z" fill="#699415"/>
<path opacity="0.66" d="M182.586 119.351C182.586 119.351 189.436 123.159 202.822 130.908C216.207 138.658 229.42 134.61 229.42 134.61C229.42 134.61 210.57 131.563 201.915 126.15C193.26 120.737 182.586 119.351 182.586 119.351Z" fill="#DDDD26"/>
<path d="M166.816 62.0419C162.768 83.1219 154.338 96.9479 154.338 96.9479C154.338 96.9479 183.217 90.4869 193.565 77.4149C203.913 64.3429 201.92 42.4959 201.92 42.4959C201.92 42.4959 171.008 40.2149 166.816 62.0419Z" fill="#9DBB1D"/>
<path d="M181.643 44.98C167.542 49.668 164.748 64.219 164.731 69.68C164.714 75.14 154.338 96.948 154.338 96.948C154.338 96.948 177.054 83.915 185.361 64.285C190.696 51.679 201.92 42.496 201.92 42.496C201.92 42.496 195.743 40.293 181.643 44.98Z" fill="#608616"/>
<path d="M193.233 73.7741C180.899 90.2071 154.338 96.9481 154.338 96.9481C154.338 96.9481 177.017 95.5631 192.183 79.9591C207.349 64.3541 201.921 42.4961 201.921 42.4961C201.921 42.4961 199.402 65.5541 193.233 73.7741Z" fill="#608616"/>
<path d="M27.814 93.497C16.104 94.23 0 113.07 0 113.07C0 113.07 23.617 123.748 33.687 118.255C43.756 112.761 53.694 99.171 53.694 99.171C53.694 99.171 39.524 92.763 27.814 93.497Z" fill="#608616"/>
<path d="M27.258 107.31C15.68 116.14 0.000976562 113.069 0.000976562 113.069C0.000976562 113.069 21.29 124.704 32.934 119.922C42.833 115.857 48.349 106.799 53.695 99.1698C53.695 99.1698 38.836 98.4798 27.258 107.31Z" fill="#699415"/>
<path d="M34.909 81.2999C26.741 75.5979 16.802 73.1129 8.854 80.9049C8.854 80.9049 11.872 90.3069 22.495 94.7749C33.117 99.2429 53.694 99.1699 53.694 99.1699C53.694 99.1699 43.077 87.0019 34.909 81.2999Z" fill="#79AE28"/>
<path d="M8.85498 80.905C8.85498 80.905 10.075 91.838 23.174 96.421C36.273 101.004 47.935 99.328 53.695 99.17C53.695 99.17 41.85 97.582 29.799 95.398C18.973 93.437 8.85498 80.905 8.85498 80.905Z" fill="#9DBB1D"/>
<path d="M0.000976562 113.069C0.000976562 113.069 11 116.703 22.36 110.453C33.719 104.203 39.53 101.138 39.53 101.138C39.53 101.138 30.559 102.105 23.207 106.483C15.854 110.861 0.000976562 113.069 0.000976562 113.069Z" fill="#79AE28"/>
<path d="M37.6006 120.979C15.1076 120.737 11.1406 151.856 11.1406 151.856C11.1406 151.856 32.4066 158.235 47.4566 150.607C62.5066 142.979 74.7346 115.639 74.7346 115.639C74.7346 115.639 59.3226 121.213 37.6006 120.979Z" fill="#9DBB1D"/>
<path d="M45.5959 120.45C40.1769 119.367 25.1819 119.205 17.6909 132.245C10.1999 145.285 11.1399 151.855 11.1399 151.855C11.1399 151.855 22.5089 142.573 36.0869 139.823C57.2299 135.54 74.7339 115.638 74.7339 115.638C74.7339 115.638 51.0149 121.534 45.5959 120.45Z" fill="#699415"/>
<path opacity="0.66" d="M43.9116 149.543C34.5166 154.005 11.1406 151.856 11.1406 151.856C11.1406 151.856 31.7246 161.645 50.2576 149.749C68.7906 137.853 74.7346 115.639 74.7346 115.639C74.7346 115.639 62.6946 140.623 43.9116 149.543Z" fill="#DDDD26"/>
<path d="M57.3401 39.573C52.8281 33.318 52.364 30.013 31.6021 28.926C31.6021 28.926 34.7751 48.13 47.3291 57.672C59.8831 67.214 74.884 59.329 74.884 59.329C74.884 59.329 63.2641 47.787 57.3401 39.573Z" fill="#699415"/>
<path d="M44.6271 28.712C36.7831 28.708 31.6021 28.926 31.6021 28.926C31.6021 28.926 41.523 39.277 50.537 42.281C64.187 46.831 69.6471 53.201 75.0131 59.122C75.0131 59.122 72.6601 54.08 66.0081 40.461C64.0741 36.505 52.4711 28.716 44.6271 28.712Z" fill="#79AE28"/>
<path d="M33.3362 154.56C18.1802 172.171 21.2192 178.602 21.2192 178.602C21.2192 178.602 60.2372 193.744 68.0002 144.519C68.3642 142.218 48.4912 136.948 33.3362 154.56Z" fill="#79AE28"/>
<path d="M51.1282 161.271C44.4222 176.611 30.5102 178.876 21.2202 178.602C21.2202 178.602 41.2752 186.442 54.8312 173.694C68.3862 160.946 68.0022 144.519 68.0022 144.519C67.3812 146.175 57.1512 147.494 51.1282 161.271Z" fill="#608616"/>
<path d="M28.1274 171.338C28.1274 171.338 46.8984 171.117 45.0244 154.259C45.0244 154.259 29.4004 160.274 28.1274 171.338Z" fill="#ABC825"/>
<path d="M17.5791 59.6041C26.1821 84.0781 72.9711 117.625 64.4511 79.8741C55.9301 42.1241 17.5791 59.6041 17.5791 59.6041Z" fill="#79AE28"/>
<path d="M17.5789 59.604C17.5789 59.604 17.3059 64.383 27.2289 76.641C37.1519 88.898 50.1489 97.261 60.4539 96.754C70.7579 96.247 64.4509 79.875 64.4509 79.875C56.8319 64.363 17.5789 59.604 17.5789 59.604Z" fill="#9DBB1D"/>
<path opacity="0.66" d="M34.2529 68.2771C34.2529 68.2771 64.2259 96.7811 61.1359 82.5421C58.0459 68.3011 34.2529 68.2771 34.2529 68.2771Z" fill="#DDDD26"/>
<path d="M140.593 41.1849C136.192 49.8479 142.755 70.5589 142.755 70.5589C142.755 70.5589 161.937 66.4969 166.472 53.1329C169.594 43.9319 172.744 27.1789 168.21 19.8679C168.21 19.8679 144.994 32.5219 140.593 41.1849Z" fill="#9DBB1D"/>
<path d="M154.381 39.2989C143.003 49.9219 142.755 70.5589 142.755 70.5589C142.755 70.5589 163.284 69.8389 168.971 48.0619C174.657 26.2849 168.211 19.8689 168.211 19.8689C168.211 19.8689 165.759 28.6759 154.381 39.2989Z" fill="#608616"/>
<path d="M150.737 42.8599C142.137 52.9609 142.231 68.7619 142.231 68.7619C142.231 68.7619 149.647 50.8299 159.957 41.4149C170.267 31.9989 168.212 19.8679 168.212 19.8679C167.456 24.6069 159.336 32.7589 150.737 42.8599Z" fill="#506A08"/>
<path d="M154.224 97.291C154.224 97.291 168.694 84.888 164.56 51.815C164.56 51.815 150.09 53.882 139.755 66.285C139.755 66.285 139.755 51.815 131.487 41.48C131.487 41.48 121.152 45.614 119.085 58.017C119.085 58.017 110.127 38.724 95.313 32.178C95.313 32.178 86.7 45.959 86.7 64.563C86.7 64.563 69.648 53.203 46.898 54.113C46.898 54.113 43.764 79.931 62.368 92.334C62.368 92.334 39.846 99.36 24.687 113.83C24.687 113.83 40.535 122.098 69.474 117.964C69.474 117.964 52.937 134.501 57.071 159.306C57.071 159.306 86.011 159.306 96.346 142.769C96.346 142.769 96.346 167.574 112.883 177.91C112.883 177.91 141.822 163.44 141.822 144.836C141.822 144.836 160.426 163.44 183.164 161.373C183.164 161.373 187.298 132.433 168.694 122.098C168.694 122.098 195.566 120.031 201.768 93.159C201.767 93.157 172.828 86.955 154.224 97.291Z" fill="#608616"/>
<path d="M69.4728 126.231C48.8018 138.634 55.0028 163.439 55.0028 163.439C65.3388 165.506 94.4958 155.71 96.3448 142.768C98.4118 128.298 108.748 117.963 108.748 117.963C108.748 117.963 90.1438 113.828 69.4728 126.231Z" fill="#9DBB1D"/>
<path d="M65.3381 91.0899C42.6001 93.1569 23.9961 113.828 23.9961 113.828C50.3521 128.04 53.4521 124.422 63.7881 120.288C77.3591 114.86 100.479 109.694 100.479 109.694C100.479 109.694 88.0771 89.0229 65.3381 91.0899Z" fill="#ABC825"/>
<path d="M135.62 68.3519C129.419 80.7549 129.419 99.3579 129.419 99.3579C129.419 99.3579 148.023 95.2239 158.358 86.9549C168.694 78.6869 168.694 47.6799 168.694 47.6799C168.694 47.6799 141.821 55.9489 135.62 68.3519Z" fill="#79AE28"/>
<path d="M164.56 91.0901C140.219 99.9411 137.688 109.694 137.688 109.694C137.688 109.694 150.09 117.962 168.694 122.097C187.298 126.231 203.836 97.2921 207.97 89.0231C207.97 89.0231 187.299 82.8211 164.56 91.0901Z" fill="#9DBB1D"/>
<path d="M150.09 74.5529C135.62 82.8209 129.419 99.3579 129.419 99.3579C139.754 97.2909 151.639 95.7429 160.426 86.9549C170.762 76.6199 168.694 47.6799 168.694 47.6799C168.694 47.6799 164.559 66.2849 150.09 74.5529Z" fill="#699415"/>
<path d="M103.235 148.28C101.512 170.329 120.461 175.841 120.461 175.841L120.116 117.962C120.116 117.962 104.958 126.231 103.235 148.28Z" fill="#506A08"/>
<path d="M57.0701 107.627C40.5331 105.56 23.9961 113.828 23.9961 113.828C23.9961 113.828 30.1971 117.962 39.8441 123.819C49.4901 129.676 59.5891 127.811 64.9941 124.508C83.5981 113.139 100.479 110.038 100.479 110.038C86.0101 97.636 73.6071 109.694 57.0701 107.627Z" fill="#9DBB1D"/>
<path opacity="0.66" d="M84.631 139.667C80.152 152.07 55.002 163.439 55.002 163.439C60.859 166.884 95.3109 157.238 96.6889 144.835C98.0669 132.432 108.747 117.963 108.747 117.963C108.747 117.963 89.11 127.264 84.631 139.667Z" fill="#959110"/>
<path d="M97.3794 43.2019C92.9004 50.0919 94.2794 58.0159 94.2794 58.0159L112.883 97.2909C112.883 97.2909 115.639 83.5099 113.917 67.3179C112.193 51.1259 97.3794 43.2019 97.3794 43.2019Z" fill="#506A08"/>
<path d="M131.486 41.479C119.772 46.302 117.705 58.361 119.772 70.074C121.839 81.788 129.419 99.358 129.419 99.358C129.419 99.358 139.066 76.964 139.41 63.184C139.754 49.403 131.486 41.479 131.486 41.479Z" fill="#79AE28"/>
<path d="M131.486 41.479C131.486 41.479 139.671 58.685 136.654 71.452C133.295 85.664 129.419 99.358 129.419 99.358C132.261 93.157 139.41 81.271 140.788 64.734C142.166 48.197 131.486 41.479 131.486 41.479Z" fill="#9DBB1D"/>
<path opacity="0.66" d="M151.123 69.7299C143.199 75.5869 138.031 84.8889 138.031 84.8889C138.031 84.8889 143.888 80.0659 155.602 70.7639C167.316 61.4619 168.694 47.6809 168.694 47.6809C168.694 47.6809 159.047 63.8729 151.123 69.7299Z" fill="#DDDD26"/>
<path opacity="0.66" d="M170.416 98.669C155.602 94.535 136.383 110.355 137.687 109.693C160.77 97.979 168.694 103.492 182.474 103.492C196.255 103.492 207.968 89.022 207.968 89.022C207.968 89.022 185.231 102.803 170.416 98.669Z" fill="#DDDD26"/>
<path opacity="0.66" d="M88.0771 101.081C82.2201 99.358 69.4731 106.593 52.9361 104.182C36.3991 101.77 23.9971 113.828 23.9971 113.828C23.9971 113.828 39.1561 107.627 45.7011 108.66C52.2471 109.694 63.2711 109.349 77.7411 105.904C92.2111 102.459 100.479 110.038 100.479 110.038C100.479 110.038 93.9331 102.803 88.0771 101.081Z" fill="#DDDD26"/>
<path d="M190.398 102.803C183.163 104.526 176.618 103.147 165.594 101.77C154.569 100.392 137.688 109.694 137.688 109.694C151.812 107.282 161.459 109.349 172.483 115.206C183.508 121.063 197.633 101.081 190.398 102.803Z" fill="#699415"/>
<path d="M61.549 140.011C57.07 157.237 70.506 151.38 74.985 144.145C79.464 136.91 79.119 127.608 98.757 119.34C98.757 119.34 66.027 122.786 61.549 140.011Z" fill="#ABC825"/>
<path d="M83.2529 140.356C77.0519 152.414 55.0029 163.439 55.0029 163.439C73.2629 159.649 83.0169 150.578 86.0099 144.146C90.0859 135.386 105.135 120.682 108.196 118.267C105.019 120.047 88.8359 129.502 83.2529 140.356Z" fill="#506A08"/>
<path d="M108.196 118.267C108.548 118.07 108.748 117.962 108.748 117.962C108.784 117.844 108.578 117.965 108.196 118.267Z" fill="#506A08"/>
<path d="M120.117 117.962C120.117 117.962 110.815 130.365 108.748 146.902C106.681 163.439 125.285 186.177 125.285 186.177C125.285 186.177 145.956 167.573 143.889 146.902C141.821 126.231 120.117 117.962 120.117 117.962Z" fill="#ABC825"/>
<path d="M119.083 117.962C119.083 117.962 129.418 138.633 129.418 151.036C129.418 163.439 125.284 186.177 125.284 186.177C125.284 186.177 145.955 169.64 143.888 146.902C141.821 124.163 119.083 117.962 119.083 117.962Z" fill="#9DBB1D"/>
<path opacity="0.66" d="M120.117 117.962C120.117 117.962 130.108 131.054 131.486 143.112C132.864 155.17 144.578 156.204 143.544 145.523C142.51 134.844 137.687 125.542 120.117 117.962Z" fill="#DDDD26"/>
<path d="M164.559 139.15C154.74 134.499 144.921 121.58 144.921 121.58C144.921 121.58 149.572 137.6 161.458 142.768C173.344 147.936 176.961 156.204 176.961 156.204C176.961 156.204 174.378 143.801 164.559 139.15Z" fill="#506A08"/>
<path d="M94.2779 58.016C81.8749 47.68 61.2039 49.748 61.2039 49.748C61.2039 49.748 59.1369 80.755 79.8079 84.889C99.7709 88.882 112.882 97.292 112.882 97.292C112.882 97.292 106.681 68.352 94.2779 58.016Z" fill="#9DBB1D"/>
<path d="M81.8747 66.285C69.9277 60.975 61.2037 49.748 61.2037 49.748C61.2037 49.748 59.1367 55.9491 63.6157 70.0751C68.0947 84.2001 81.8747 86.9561 87.0427 86.9561C92.2107 86.9561 112.882 97.2921 112.882 97.2921C112.882 97.2921 100.479 74.553 81.8747 66.285Z" fill="#699415"/>
<path opacity="0.66" d="M61.2041 49.748C61.2041 49.748 83.0351 52.2 90.8331 58.361C106.422 70.677 112.882 97.291 112.882 97.291C112.882 97.291 111.504 74.553 96.6901 59.394C81.8751 44.235 61.2041 49.748 61.2041 49.748Z" fill="#DDDD26"/>
</svg>
