<svg width="169" height="168" viewBox="0 0 169 168" fill="none" xmlns="http://www.w3.org/2000/svg">
<path d="M160.879 10.113H10.113V160.879H160.879V10.113Z" fill="#B59686"/>
<path d="M19.3689 0.856934H0.856934V19.369H19.3689V0.856934Z" fill="#CADBE0"/>
<path d="M19.369 20.226H0.857025C0.383025 20.226 0 19.842 0 19.369V0.856995C0 0.382995 0.384025 0 0.857025 0H19.369C19.843 0 20.226 0.383995 20.226 0.856995V19.369C20.227 19.842 19.843 20.226 19.369 20.226ZM1.71503 18.511H18.512V1.71405H1.71503V18.511Z" fill="#939598"/>
<path d="M19.3689 19.3689H0.856934V37.8809H19.3689V19.3689Z" fill="#CADBE0"/>
<path d="M19.369 38.738H0.857025C0.383025 38.738 0 38.354 0 37.881V19.369C0 18.895 0.384025 18.512 0.857025 18.512H19.369C19.843 18.512 20.226 18.896 20.226 19.369V37.881C20.227 38.354 19.843 38.738 19.369 38.738ZM1.71503 37.0229H18.512V20.226H1.71503V37.0229Z" fill="#939598"/>
<path d="M19.3689 37.8799H0.856934V56.3919H19.3689V37.8799Z" fill="#CADBE0"/>
<path d="M19.369 57.2489H0.857025C0.383025 57.2489 0 56.8649 0 56.3919V37.8809C0 37.4069 0.384025 37.0239 0.857025 37.0239H19.369C19.843 37.0239 20.226 37.4079 20.226 37.8809V56.3919C20.227 56.8649 19.843 57.2489 19.369 57.2489ZM1.71503 55.5349H18.512V38.7379H1.71503V55.5349Z" fill="#939598"/>
<path d="M19.3689 56.3921H0.856934V74.9041H19.3689V56.3921Z" fill="#CADBE0"/>
<path d="M19.369 75.7612H0.857025C0.383025 75.7612 0 75.3782 0 74.9042V56.3922C0 55.9192 0.384025 55.5352 0.857025 55.5352H19.369C19.843 55.5352 20.226 55.9192 20.226 56.3922V74.9042C20.227 75.3782 19.843 75.7612 19.369 75.7612ZM1.71503 74.0461H18.512V57.2491H1.71503V74.0461Z" fill="#939598"/>
<path d="M19.3689 74.9038H0.856934V93.4158H19.3689V74.9038Z" fill="#CADBE0"/>
<path d="M19.369 94.2719H0.857025C0.383025 94.2719 0 93.8889 0 93.4149V74.9029C0 74.4299 0.384025 74.0459 0.857025 74.0459H19.369C19.843 74.0459 20.226 74.4309 20.226 74.9029V93.4149C20.227 93.8889 19.843 94.2719 19.369 94.2719ZM1.71503 92.5579H18.512V75.7609H1.71503V92.5579Z" fill="#939598"/>
<path d="M19.3689 93.416H0.856934V111.928H19.3689V93.416Z" fill="#CADBE0"/>
<path d="M19.369 112.785H0.857025C0.383025 112.785 0 112.401 0 111.928V93.415C0 92.942 0.384025 92.5581 0.857025 92.5581H19.369C19.843 92.5581 20.226 92.943 20.226 93.415V111.928C20.227 112.401 19.843 112.785 19.369 112.785ZM1.71503 111.07H18.512V94.2721H1.71503V111.07Z" fill="#939598"/>
<path d="M19.3689 111.928H0.856934V130.44H19.3689V111.928Z" fill="#CADBE0"/>
<path d="M19.369 131.297H0.857025C0.383025 131.297 0 130.913 0 130.439V111.927C0 111.453 0.384025 111.07 0.857025 111.07H19.369C19.843 111.07 20.226 111.454 20.226 111.927V130.439C20.227 130.913 19.843 131.297 19.369 131.297ZM1.71503 129.582H18.512V112.785H1.71503V129.582Z" fill="#939598"/>
<path d="M19.3689 130.439H0.856934V148.951H19.3689V130.439Z" fill="#CADBE0"/>
<path d="M19.369 149.809H0.857025C0.383025 149.809 0 149.425 0 148.952V130.44C0 129.966 0.384025 129.583 0.857025 129.583H19.369C19.843 129.583 20.226 129.967 20.226 130.44V148.952C20.227 149.425 19.843 149.809 19.369 149.809ZM1.71503 148.094H18.512V131.297H1.71503V148.094Z" fill="#939598"/>
<path d="M167.464 18.428H148.952V36.9399H167.464V18.428Z" fill="#CADBE0"/>
<path d="M167.463 37.797H148.951C148.477 37.797 148.094 37.413 148.094 36.94V18.428C148.094 17.954 148.478 17.571 148.951 17.571H167.463C167.937 17.571 168.32 17.955 168.32 18.428V36.94C168.321 37.413 167.937 37.797 167.463 37.797ZM149.809 36.082H166.606V19.285H149.809V36.082Z" fill="#939598"/>
<path d="M167.464 36.9399H148.952V55.452H167.464V36.9399Z" fill="#CADBE0"/>
<path d="M167.463 56.309H148.951C148.477 56.309 148.094 55.9251 148.094 55.451V36.939C148.094 36.465 148.478 36.082 148.951 36.082H167.463C167.937 36.082 168.32 36.466 168.32 36.939V55.451C168.321 55.9251 167.937 56.309 167.463 56.309ZM149.809 54.5941H166.606V37.797H149.809V54.5941Z" fill="#939598"/>
<path d="M167.464 55.4519H148.952V73.9629H167.464V55.4519Z" fill="#CADBE0"/>
<path d="M167.463 74.821H148.951C148.477 74.821 148.094 74.436 148.094 73.964V55.452C148.094 54.978 148.478 54.595 148.951 54.595H167.463C167.937 54.595 168.32 54.979 168.32 55.452V73.964C168.321 74.436 167.937 74.821 167.463 74.821ZM149.809 73.106H166.606V56.309H149.809V73.106Z" fill="#939598"/>
<path d="M167.464 73.9629H148.952V92.4749H167.464V73.9629Z" fill="#CADBE0"/>
<path d="M167.463 93.3319H148.951C148.477 93.3319 148.094 92.948 148.094 92.476V73.964C148.094 73.489 148.478 73.1069 148.951 73.1069H167.463C167.937 73.1069 168.32 73.49 168.32 73.964V92.476C168.321 92.948 167.937 93.3319 167.463 93.3319ZM149.809 91.6179H166.606V74.821H149.809V91.6179Z" fill="#939598"/>
<path d="M167.464 92.4751H148.952V110.987H167.464V92.4751Z" fill="#CADBE0"/>
<path d="M167.463 111.844H148.951C148.477 111.844 148.094 111.46 148.094 110.987V92.4761C148.094 92.0011 148.478 91.6191 148.951 91.6191H167.463C167.937 91.6191 168.32 92.0021 168.32 92.4761V110.987C168.321 111.46 167.937 111.844 167.463 111.844ZM149.809 110.13H166.606V93.332H149.809V110.13Z" fill="#939598"/>
<path d="M167.464 110.986H148.952V129.498H167.464V110.986Z" fill="#CADBE0"/>
<path d="M167.463 130.356H148.951C148.477 130.356 148.094 129.971 148.094 129.498V110.986C148.094 110.512 148.478 110.13 148.951 110.13H167.463C167.937 110.13 168.32 110.513 168.32 110.986V129.498C168.321 129.972 167.937 130.356 167.463 130.356ZM149.809 128.641H166.606V111.844H149.809V128.641Z" fill="#939598"/>
<path d="M167.464 129.498H148.952V148.01H167.464V129.498Z" fill="#CADBE0"/>
<path d="M167.463 148.868H148.951C148.477 148.868 148.094 148.483 148.094 148.01V129.498C148.094 129.024 148.478 128.641 148.951 128.641H167.463C167.937 128.641 168.32 129.025 168.32 129.498V148.01C168.321 148.483 167.937 148.868 167.463 148.868ZM149.809 147.152H166.606V130.356H149.809V147.152Z" fill="#939598"/>
<path d="M167.464 148.01H148.952V166.523H167.464V148.01Z" fill="#CADBE0"/>
<path d="M167.463 167.38H148.951C148.477 167.38 148.094 166.995 148.094 166.523V148.01C148.094 147.536 148.478 147.153 148.951 147.153H167.463C167.937 147.153 168.32 147.537 168.32 148.01V166.523C168.321 166.995 167.937 167.38 167.463 167.38ZM149.809 165.664H166.606V148.868H149.809V165.664Z" fill="#939598"/>
<path d="M19.3691 0.856659V19.3687H37.8812V0.856659H19.3691Z" fill="#CADBE0"/>
<path d="M37.881 20.226H19.369C18.895 20.226 18.512 19.842 18.512 19.369V0.856995C18.512 0.382995 18.896 0 19.369 0H37.881C38.355 0 38.739 0.383995 38.739 0.856995V19.369C38.738 19.842 38.354 20.226 37.881 20.226ZM20.227 18.511H37.024V1.71405H20.227V18.511Z" fill="#939598"/>
<path d="M37.8809 0.856415V19.3684H56.3929V0.856415H37.8809Z" fill="#CADBE0"/>
<path d="M56.3929 20.226H37.8809C37.4069 20.226 37.0239 19.842 37.0239 19.369V0.856995C37.0239 0.382995 37.4079 0 37.8809 0H56.3929C56.8669 0 57.2499 0.383995 57.2499 0.856995V19.369C57.2499 19.842 56.8659 20.226 56.3929 20.226ZM38.7379 18.511H55.5349V1.71405H38.7379V18.511Z" fill="#939598"/>
<path d="M56.3928 0.856171V19.3682H74.9048V0.856171H56.3928Z" fill="#CADBE0"/>
<path d="M74.904 20.226H56.3919C55.9179 20.226 55.5339 19.842 55.5339 19.369V0.856995C55.5339 0.382995 55.9179 0 56.3919 0H74.904C75.378 0 75.761 0.383995 75.761 0.856995V19.369C75.762 19.842 75.378 20.226 74.904 20.226ZM57.2499 18.511H74.0469V1.71405H57.2499V18.511Z" fill="#939598"/>
<path d="M74.9043 0.856903V19.3689H93.4163V0.856903H74.9043Z" fill="#CADBE0"/>
<path d="M93.4159 20.226H74.9039C74.4299 20.226 74.0469 19.842 74.0469 19.369V0.856995C74.0469 0.382995 74.4309 0 74.9039 0H93.4159C93.8899 0 94.2729 0.383995 94.2729 0.856995V19.369C94.2729 19.842 93.8899 20.226 93.4159 20.226ZM75.7619 18.511H92.5589V1.71405H75.7619V18.511Z" fill="#939598"/>
<path d="M93.4165 0.856659V19.3687H111.929V0.856659H93.4165Z" fill="#CADBE0"/>
<path d="M111.928 20.226H93.4161C92.9421 20.226 92.5591 19.842 92.5591 19.369V0.856995C92.5591 0.382995 92.9431 0 93.4161 0H111.928C112.402 0 112.785 0.383995 112.785 0.856995V19.369C112.786 19.842 112.402 20.226 111.928 20.226ZM94.2731 18.511H111.07V1.71405H94.2731V18.511Z" fill="#939598"/>
<path d="M111.928 0.856659V19.3687H130.44V0.856659H111.928Z" fill="#CADBE0"/>
<path d="M130.44 20.226H111.928C111.454 20.226 111.071 19.842 111.071 19.369V0.856995C111.071 0.382995 111.455 0 111.928 0H130.44C130.914 0 131.297 0.383995 131.297 0.856995V19.369C131.297 19.842 130.914 20.226 130.44 20.226ZM112.786 18.511H129.583V1.71405H112.786V18.511Z" fill="#939598"/>
<path d="M130.44 0.856384V19.3684H148.952V0.856384H130.44Z" fill="#CADBE0"/>
<path d="M148.952 20.226H130.44C129.966 20.226 129.583 19.842 129.583 19.369V0.856995C129.583 0.382995 129.967 0 130.44 0H148.952C149.426 0 149.81 0.383995 149.81 0.856995V19.369C149.809 19.842 149.425 20.226 148.952 20.226ZM131.297 18.511H148.094V1.71405H131.297V18.511Z" fill="#939598"/>
<path d="M148.952 0.856171V19.3682H167.464V0.856171H148.952Z" fill="#CADBE0"/>
<path d="M167.463 20.226H148.951C148.477 20.226 148.094 19.842 148.094 19.369V0.856995C148.094 0.382995 148.478 0 148.951 0H167.463C167.937 0 168.32 0.383995 168.32 0.856995V19.369C168.321 19.842 167.937 20.226 167.463 20.226ZM149.809 18.511H166.606V1.71405H149.809V18.511Z" fill="#939598"/>
<path d="M19.3689 148.01H0.856934V166.523H19.3689V148.01Z" fill="#CADBE0"/>
<path d="M19.369 167.38H0.857025C0.383025 167.38 0 166.995 0 166.523V148.01C0 147.536 0.384025 147.153 0.857025 147.153H19.369C19.843 147.153 20.226 147.537 20.226 148.01V166.523C20.227 166.995 19.843 167.38 19.369 167.38ZM1.71503 165.664H18.512V148.868H1.71503V165.664Z" fill="#939598"/>
<path d="M19.3689 148.009V166.522H37.8809V148.009H19.3689Z" fill="#CADBE0"/>
<path d="M37.881 167.38H19.369C18.895 167.38 18.512 166.995 18.512 166.523V148.01C18.512 147.536 18.896 147.153 19.369 147.153H37.881C38.355 147.153 38.739 147.537 38.739 148.01V166.523C38.738 166.995 38.354 167.38 37.881 167.38ZM20.227 165.664H37.024V148.868H20.227V165.664Z" fill="#939598"/>
<path d="M37.8806 148.01V166.523H56.3926V148.01H37.8806Z" fill="#CADBE0"/>
<path d="M56.3929 167.38H37.8809C37.4069 167.38 37.0239 166.995 37.0239 166.523V148.01C37.0239 147.536 37.4079 147.153 37.8809 147.153H56.3929C56.8669 147.153 57.2499 147.537 57.2499 148.01V166.523C57.2499 166.995 56.8659 167.38 56.3929 167.38ZM38.7379 165.664H55.5349V148.868H38.7379V165.664Z" fill="#939598"/>
<path d="M56.3923 148.009V166.522H74.9043V148.009H56.3923Z" fill="#CADBE0"/>
<path d="M74.904 167.38H56.3919C55.9179 167.38 55.5339 166.995 55.5339 166.523V148.01C55.5339 147.536 55.9179 147.153 56.3919 147.153H74.904C75.378 147.153 75.761 147.537 75.761 148.01V166.523C75.762 166.995 75.378 167.38 74.904 167.38ZM57.2499 165.664H74.0469V148.868H57.2499V165.664Z" fill="#939598"/>
<path d="M74.9041 148.009V166.522H93.416V148.009H74.9041Z" fill="#CADBE0"/>
<path d="M93.4159 167.38H74.9039C74.4299 167.38 74.0469 166.995 74.0469 166.523V148.01C74.0469 147.536 74.4309 147.153 74.9039 147.153H93.4159C93.8899 147.153 94.2729 147.537 94.2729 148.01V166.523C94.2729 166.995 93.8899 167.38 93.4159 167.38ZM75.7619 165.664H92.5589V148.868H75.7619V165.664Z" fill="#939598"/>
<path d="M93.416 148.009V166.522H111.928V148.009H93.416Z" fill="#CADBE0"/>
<path d="M111.928 167.38H93.4161C92.9421 167.38 92.5591 166.995 92.5591 166.523V148.01C92.5591 147.536 92.9431 147.153 93.4161 147.153H111.928C112.402 147.153 112.785 147.537 112.785 148.01V166.523C112.786 166.995 112.402 167.38 111.928 167.38ZM94.2731 165.664H111.07V148.868H94.2731V165.664Z" fill="#939598"/>
<path d="M111.928 148.009V166.522H130.44V148.009H111.928Z" fill="#CADBE0"/>
<path d="M130.44 167.38H111.928C111.454 167.38 111.071 166.995 111.071 166.523V148.01C111.071 147.536 111.455 147.153 111.928 147.153H130.44C130.914 147.153 131.297 147.537 131.297 148.01V166.523C131.297 166.995 130.914 167.38 130.44 167.38ZM112.786 165.664H129.583V148.868H112.786V165.664Z" fill="#939598"/>
<path d="M130.44 148.01V166.523H148.952V148.01H130.44Z" fill="#CADBE0"/>
<path d="M148.952 167.38H130.44C129.966 167.38 129.583 166.995 129.583 166.523V148.01C129.583 147.536 129.967 147.153 130.44 147.153H148.952C149.426 147.153 149.81 147.537 149.81 148.01V166.523C149.809 166.995 149.425 167.38 148.952 167.38ZM131.297 165.664H148.094V148.868H131.297V165.664Z" fill="#939598"/>
<path d="M148.951 148.009V166.522H167.463V148.009H148.951Z" fill="#CADBE0"/>
<path d="M167.463 167.38H148.951C148.477 167.38 148.094 166.995 148.094 166.523V148.01C148.094 147.536 148.478 147.153 148.951 147.153H167.463C167.937 147.153 168.32 147.537 168.32 148.01V166.523C168.321 166.995 167.937 167.38 167.463 167.38ZM149.809 165.664H166.606V148.868H149.809V165.664Z" fill="#939598"/>
<path d="M23.0039 40.491C17.9789 47.581 18.9769 58.856 26.2549 63.605C19.7569 70.691 15.2059 79.9491 15.3459 89.562C15.4869 99.175 20.9639 108.937 29.8389 112.632C35.9999 115.196 42.9469 114.714 49.5999 114.187C48.2799 122.814 47.1589 132.392 52.0819 139.598C54.5259 143.175 58.2479 145.736 62.2449 147.405C74.6829 152.601 90.2819 148.86 99.0099 138.588C100.197 141.087 103.117 142.218 105.833 142.745C115.262 144.576 125.493 141.644 132.521 135.098C138.837 129.213 142.497 119.97 140.052 111.691C137.582 103.329 129.556 97.626 121.194 95.156C129.944 95.091 139.002 93.589 146.223 88.646C153.444 83.704 158.371 74.71 156.537 66.155C155.115 59.518 149.817 54.089 143.521 51.555C142.363 51.089 141.099 50.657 140.358 49.653C139.749 48.828 139.607 47.761 139.294 46.785C138.08 42.996 134.176 40.58 130.247 39.956C126.318 39.332 122.32 40.166 118.429 40.996C122.614 35.297 121.192 26.793 116.569 21.443C111.946 16.093 104.873 13.453 97.8859 12.366C91.6709 11.4 85.1449 11.531 79.3019 13.86C73.4599 16.19 68.3909 20.947 66.7049 27.006C67.4649 24.275 56.1899 23.244 54.8119 23.47C50.1869 24.226 48.1199 27.524 44.3899 29.673C36.9329 33.972 28.7059 32.446 23.0039 40.491Z" fill="#2B7D53"/>
<path d="M33.1191 80.5372C33.5521 74.0162 38.7381 68.3262 45.0021 66.4642C39.1881 62.4812 37.0641 53.9471 40.3311 47.7031C43.5981 41.4581 51.8201 38.3382 58.4071 40.8442C61.5901 36.7652 66.9891 34.5342 72.1221 35.1752C77.2561 35.8162 81.9401 39.3062 84.0231 44.0422C80.2801 41.6292 75.3261 41.2142 71.2341 42.9702C67.1421 44.7272 64.0301 48.6041 63.2011 52.9791C59.8371 49.2661 52.7181 51.1411 51.0331 55.8591C49.3491 60.5781 52.8621 66.1851 57.7181 67.4191C52.7181 69.8951 47.5601 72.4921 44.0161 76.8021C39.6361 82.1301 40.5771 87.0571 41.8651 92.9241C36.3801 94.3951 32.8451 84.6652 33.1191 80.5372Z" fill="#369E66"/>
<path d="M105.912 60.2621C111.294 55.9421 120.182 57.7711 124.062 63.4781C127.942 69.1861 126.808 77.4981 122.114 82.5571C126.126 80.8711 129.982 78.4741 132.489 74.9171C134.996 71.3591 135.928 66.4811 134.024 62.5681C131.193 56.7491 123.703 55.1611 117.235 54.9391C117.578 51.1541 115.635 47.2511 112.408 45.2421C109.181 43.2331 104.822 43.2131 101.576 45.1921C100.777 43.1851 98.5171 42.0281 96.3571 42.0281C94.1971 42.0281 92.1441 42.9931 90.3551 44.2041C88.0041 45.7961 83.1241 50.2181 83.6771 53.5271C84.5461 58.7321 87.6591 55.3481 90.1161 54.0281C93.4101 52.2581 96.7311 51.6161 100.263 53.2221C101.235 53.6661 107.752 58.7851 105.912 60.2621Z" fill="#369E66"/>
<path d="M54.547 100.942C55.399 94.192 62.0411 88.7049 68.8311 89.1419C66.9791 84.7739 69.238 79.6319 72.599 76.2849C78.79 70.1189 88.8601 68.243 96.8561 71.766C104.853 75.29 110.263 83.987 109.89 92.718C108.244 85.942 100.454 81.3509 93.729 83.1949C87.004 85.0379 82.643 92.9599 84.682 99.6279C79.927 96.5599 73.181 97.0099 68.875 100.681C64.334 104.552 63.952 110.119 64.82 115.542C58.367 114.965 53.783 106.999 54.547 100.942Z" fill="#369E66"/>
<path d="M40.502 115.804C39.458 115.504 38.096 116.068 37.977 117.147C37.885 117.985 38.533 118.704 39.132 119.296C37.956 119.777 36.995 120.759 36.538 121.945C36.413 122.269 36.324 122.622 36.388 122.964C36.527 123.706 37.325 124.137 38.07 124.261C38.815 124.386 39.596 124.316 40.309 124.563C39.854 125.344 39.39 126.149 39.249 127.042C39.107 127.936 39.358 128.95 40.096 129.473C41.084 130.175 42.449 129.752 43.558 129.266C43.633 130.802 44.911 132.194 46.435 132.399C47.959 132.604 49.56 131.6 50.038 130.138C52.359 130.629 54.906 128.854 55.249 126.506C55.385 125.576 55.094 124.455 54.222 124.106C55.472 123.599 56.277 122.172 56.064 120.84C55.851 119.507 54.642 118.402 53.296 118.311C54.243 117.245 54.119 115.407 53.039 114.476C51.959 113.545 50.124 113.696 49.209 114.789C49.253 113.717 48.27 112.714 47.196 112.737C46.123 112.761 45.184 113.805 45.275 114.875C45.213 114.143 43.796 114.282 43.402 114.449C42.541 114.816 42.294 115.781 42.146 116.611C41.651 116.378 41.078 115.969 40.502 115.804Z" fill="#69C7D1"/>
<path d="M27.3731 83.4791C26.3291 83.1791 24.9671 83.7432 24.8491 84.8222C24.7571 85.6612 25.4041 86.3791 26.0041 86.9711C24.8281 87.4521 23.8671 88.4351 23.4101 89.6201C23.2851 89.9441 23.1961 90.2971 23.2601 90.6381C23.3991 91.3801 24.1971 91.8111 24.9421 91.9361C25.6871 92.0601 26.4681 91.9901 27.1811 92.2371C26.7261 93.0181 26.2631 93.8231 26.1211 94.7161C25.9801 95.6081 26.2311 96.6231 26.9681 97.1471C27.9561 97.8481 29.3201 97.4251 30.4301 96.9391C30.5051 98.4761 31.7821 99.8672 33.3071 100.072C34.8321 100.277 36.4321 99.2742 36.9111 97.8122C39.2321 98.3022 41.7791 96.5271 42.1211 94.1791C42.2561 93.2491 41.9661 92.1281 41.0941 91.7791C42.3451 91.2721 43.1501 89.8461 42.9371 88.5121C42.7241 87.1801 41.5151 86.0741 40.1691 85.9831C41.1151 84.9171 40.9921 83.0791 39.9121 82.1481C38.8321 81.2171 36.9971 81.3681 36.0811 82.4611C36.1251 81.3891 35.1421 80.3871 34.0691 80.4101C32.9961 80.4331 32.0571 81.4771 32.1481 82.5471C32.0861 81.8151 30.6681 81.9541 30.2751 82.1221C29.4141 82.4881 29.1671 83.4531 29.0191 84.2831C28.5221 84.0541 27.9491 83.6441 27.3731 83.4791Z" fill="#69C7D1"/>
<path d="M77.9029 55.5151C76.8589 55.2161 75.4969 55.7791 75.3779 56.8591C75.2859 57.6971 75.9339 58.4151 76.5329 59.0071C75.3569 59.4891 74.3959 60.4711 73.9389 61.6561C73.8139 61.9811 73.7249 62.3341 73.7889 62.6761C73.9279 63.4181 74.7259 63.8491 75.4709 63.9731C76.2159 64.0971 76.9969 64.0271 77.7099 64.2751C77.2549 65.0561 76.7919 65.8601 76.6499 66.7541C76.5089 67.6471 76.7599 68.6611 77.4969 69.1851C78.4849 69.8861 79.8489 69.4632 80.9589 68.9772C81.0339 70.5142 82.3109 71.9051 83.8359 72.1111C85.3609 72.3161 86.9609 71.3122 87.4399 69.8502C89.7609 70.3402 92.3079 68.5652 92.6499 66.2172C92.7859 65.2872 92.4949 64.1662 91.6229 63.8182C92.8739 63.3112 93.6789 61.8841 93.4659 60.5511C93.2529 59.2191 92.0439 58.1132 90.6979 58.0222C91.6449 56.9562 91.5209 55.1182 90.4409 54.1882C89.3609 53.2582 87.5259 53.4082 86.6109 54.5012C86.6549 53.4292 85.6719 52.4261 84.5979 52.4501C83.5249 52.4731 82.5859 53.5181 82.6769 54.5881C82.6149 53.8561 81.1969 53.9952 80.8039 54.1622C79.9429 54.5292 79.6959 55.4941 79.5479 56.3231C79.0509 56.0901 78.4779 55.6811 77.9029 55.5151Z" fill="#69C7D1"/>
<path d="M84.21 24.947C83.166 24.648 81.804 25.211 81.685 26.29C81.593 27.128 82.241 27.846 82.841 28.439C81.665 28.921 80.704 29.902 80.247 31.088C80.121 31.413 80.032 31.765 80.096 32.107C80.235 32.849 81.034 33.28 81.778 33.404C82.523 33.528 83.303 33.458 84.017 33.705C83.562 34.486 83.099 35.291 82.957 36.184C82.815 37.077 83.066 38.091 83.804 38.615C84.792 39.316 86.156 38.893 87.267 38.408C87.342 39.945 88.619 41.336 90.144 41.541C91.669 41.746 93.269 40.743 93.748 39.281C96.069 39.772 98.616 37.996 98.958 35.649C99.094 34.719 98.803 33.598 97.931 33.249C99.181 32.742 99.987 31.315 99.774 29.983C99.561 28.651 98.351 27.545 97.005 27.454C97.952 26.388 97.829 24.55 96.748 23.619C95.668 22.688 93.833 22.839 92.918 23.932C92.962 22.86 91.978 21.857 90.905 21.881C89.832 21.904 88.893 22.949 88.984 24.018C88.922 23.286 87.504 23.425 87.111 23.593C86.249 23.96 86.003 24.924 85.855 25.754C85.359 25.521 84.786 25.112 84.21 24.947Z" fill="#69C7D1"/>
<path d="M124.708 54.5381C123.664 54.2381 122.302 54.8022 122.184 55.8812C122.092 56.7192 122.739 57.4372 123.339 58.0292C122.163 58.5112 121.202 59.4932 120.745 60.6782C120.62 61.0032 120.531 61.3561 120.595 61.6971C120.734 62.4391 121.532 62.8701 122.277 62.9941C123.022 63.1181 123.803 63.0481 124.516 63.2961C124.061 64.0771 123.598 64.8821 123.456 65.7751C123.315 66.6681 123.566 67.6822 124.303 68.2062C125.291 68.9072 126.655 68.4841 127.765 67.9991C127.84 69.5351 129.118 70.9271 130.643 71.1321C132.167 71.3371 133.767 70.3331 134.246 68.8711C136.567 69.3621 139.114 67.5872 139.456 65.2382C139.592 64.3092 139.301 63.1882 138.429 62.8392C139.679 62.3322 140.485 60.9051 140.272 59.5731C140.059 58.2401 138.85 57.1351 137.503 57.0441C138.449 55.9771 138.326 54.1402 137.246 53.2092C136.166 52.2782 134.33 52.4292 133.415 53.5222C133.459 52.4502 132.476 51.4471 131.403 51.4711C130.33 51.4951 129.391 52.5391 129.482 53.6091C129.419 52.8771 128.002 53.0162 127.609 53.1832C126.748 53.5502 126.501 54.5151 126.353 55.3451C125.857 55.1121 125.284 54.7021 124.708 54.5381Z" fill="#69C7D1"/>
<path d="M77.9029 113.466C76.8589 113.166 75.4969 113.73 75.3779 114.809C75.2859 115.648 75.9339 116.366 76.5329 116.958C75.3569 117.439 74.3959 118.422 73.9389 119.607C73.8139 119.931 73.7249 120.284 73.7889 120.626C73.9279 121.368 74.7259 121.799 75.4709 121.924C76.2159 122.048 76.9969 121.978 77.7099 122.225C77.2549 123.006 76.7919 123.811 76.6499 124.704C76.5089 125.597 76.7599 126.611 77.4969 127.135C78.4849 127.836 79.8489 127.413 80.9589 126.927C81.0339 128.464 82.3109 129.855 83.8359 130.06C85.3609 130.266 86.9609 129.262 87.4399 127.8C89.7609 128.29 92.3079 126.515 92.6499 124.167C92.7859 123.237 92.4949 122.116 91.6229 121.768C92.8739 121.261 93.6789 119.834 93.4659 118.501C93.2529 117.169 92.0439 116.063 90.6979 115.972C91.6449 114.906 91.5209 113.068 90.4409 112.138C89.3609 111.207 87.5259 111.357 86.6109 112.451C86.6549 111.379 85.6719 110.377 84.5979 110.4C83.5249 110.423 82.5859 111.467 82.6769 112.537C82.6149 111.805 81.1969 111.944 80.8039 112.112C79.9429 112.478 79.6959 113.443 79.5479 114.273C79.0509 114.04 78.4779 113.631 77.9029 113.466Z" fill="#69C7D1"/>
<path d="M117.934 89.4331C116.89 89.1331 115.528 89.6971 115.409 90.7771C115.317 91.6151 115.965 92.3331 116.565 92.9251C115.389 93.4061 114.428 94.3891 113.971 95.5741C113.846 95.8981 113.756 96.2512 113.82 96.5932C113.959 97.3352 114.758 97.7671 115.502 97.8911C116.247 98.0151 117.028 97.9451 117.741 98.1931C117.286 98.9741 116.823 99.7781 116.681 100.672C116.539 101.565 116.791 102.579 117.528 103.103C118.516 103.804 119.88 103.381 120.99 102.895C121.065 104.432 122.343 105.823 123.867 106.028C125.392 106.234 126.992 105.23 127.47 103.768C129.791 104.258 132.338 102.483 132.68 100.135C132.816 99.2052 132.525 98.0841 131.653 97.7361C132.903 97.2291 133.709 95.8021 133.496 94.4691C133.283 93.1371 132.074 92.0311 130.728 91.9401C131.674 90.8741 131.551 89.0361 130.471 88.1061C129.39 87.1751 127.555 87.3251 126.64 88.4191C126.684 87.3471 125.7 86.3451 124.627 86.3681C123.554 86.3911 122.615 87.4361 122.707 88.5061C122.645 87.7741 121.227 87.9121 120.834 88.0801C119.972 88.4471 119.726 89.4111 119.578 90.2411C119.083 90.0071 118.51 89.5981 117.934 89.4331Z" fill="#69C7D1"/>
<path d="M37.2401 39.4189C36.1961 39.1189 34.8341 39.683 34.7151 40.762C34.6231 41.6 35.271 42.3189 35.871 42.9109C34.695 43.3929 33.734 44.3739 33.276 45.5599C33.151 45.8839 33.062 46.237 33.126 46.579C33.265 47.321 34.064 47.752 34.808 47.876C35.553 48.001 36.333 47.9299 37.047 48.1769C36.592 48.9589 36.128 49.7629 35.987 50.6559C35.845 51.5489 36.096 52.564 36.834 53.087C37.822 53.789 39.187 53.366 40.297 52.879C40.372 54.416 41.649 55.807 43.174 56.012C44.699 56.217 46.299 55.2139 46.777 53.7519C49.098 54.2429 51.645 52.4669 51.988 50.1199C52.124 49.1899 51.833 48.069 50.961 47.72C52.212 47.213 53.017 45.786 52.804 44.454C52.591 43.121 51.381 42.016 50.035 41.925C50.982 40.859 50.8591 39.021 49.7791 38.09C48.6981 37.159 46.863 37.3089 45.948 38.4029C45.992 37.3309 45.009 36.328 43.935 36.352C42.862 36.376 41.923 37.42 42.014 38.49C41.952 37.758 40.5351 37.897 40.1411 38.064C39.2801 38.431 39.033 39.3959 38.885 40.2259C38.389 39.9929 37.8151 39.5839 37.2401 39.4189Z" fill="#69C7D1"/>
<path d="M107.071 121.079C105.961 120.761 104.512 121.36 104.385 122.509C104.287 123.401 104.976 124.164 105.614 124.795C104.363 125.308 103.341 126.352 102.854 127.613C102.721 127.959 102.625 128.333 102.694 128.697C102.842 129.486 103.691 129.945 104.483 130.077C105.276 130.21 106.107 130.135 106.865 130.398C106.381 131.229 105.888 132.085 105.738 133.035C105.587 133.985 105.854 135.064 106.639 135.621C107.69 136.367 109.142 135.917 110.323 135.4C110.403 137.035 111.762 138.514 113.384 138.733C115.006 138.952 116.708 137.883 117.217 136.328C119.687 136.85 122.396 134.962 122.76 132.464C122.904 131.476 122.595 130.282 121.667 129.911C122.998 129.372 123.854 127.854 123.628 126.436C123.401 125.018 122.115 123.842 120.683 123.745C121.69 122.611 121.559 120.656 120.41 119.666C119.261 118.676 117.308 118.836 116.335 119.999C116.381 118.858 115.335 117.792 114.193 117.817C113.051 117.841 112.053 118.953 112.15 120.09C112.084 119.311 110.576 119.459 110.158 119.637C109.241 120.028 108.979 121.054 108.822 121.937C108.294 121.69 107.684 121.255 107.071 121.079Z" fill="#69C7D1"/>
</svg>
