<svg width="43" height="37" viewBox="0 0 43 37" fill="none" xmlns="http://www.w3.org/2000/svg">
<path d="M41.0992 2.23557H2.58252V35.5627H41.0992V2.23557Z" fill="#B59686"/>
<path d="M4.94856 0.189392H0.219238V4.28152H4.94856V0.189392Z" fill="#CADBE0"/>
<path d="M4.94827 4.47101H0.218947C0.0978527 4.47101 0 4.38612 0 4.28157V0.189441C0 0.0846619 0.0981081 0 0.218947 0H4.94827C5.06936 0 5.1672 0.0848829 5.1672 0.189441V4.28157C5.16746 4.38612 5.06936 4.47101 4.94827 4.47101ZM0.438143 4.09191H4.72933V0.378895H0.438143V4.09191Z" fill="#939598"/>
<path d="M4.94856 4.28131H0.219238V8.37344H4.94856V4.28131Z" fill="#CADBE0"/>
<path d="M4.94827 8.56293H0.218947C0.0978527 8.56293 0 8.47804 0 8.37349V4.28136C0 4.17658 0.0981081 4.09192 0.218947 4.09192H4.94827C5.06936 4.09192 5.1672 4.1768 5.1672 4.28136V8.37349C5.16746 8.47804 5.06936 8.56293 4.94827 8.56293ZM0.438143 8.18382H4.72933V4.4708H0.438143V8.18382Z" fill="#939598"/>
<path d="M4.94856 8.37411H0.219238V12.4662H4.94856V8.37411Z" fill="#CADBE0"/>
<path d="M4.94827 12.6555H0.218947C0.0978527 12.6555 0 12.5706 0 12.4661V8.37416C0 8.26938 0.0981081 8.18472 0.218947 8.18472H4.94827C5.06936 8.18472 5.1672 8.26961 5.1672 8.37416V12.4661C5.16746 12.5706 5.06936 12.6555 4.94827 12.6555ZM0.438143 12.2766H4.72933V8.5636H0.438143V12.2766Z" fill="#939598"/>
<path d="M4.94856 12.4659H0.219238V16.558H4.94856V12.4659Z" fill="#CADBE0"/>
<path d="M4.94827 16.7475H0.218947C0.0978527 16.7475 0 16.6628 0 16.5581V12.4659C0 12.3614 0.0981081 12.2765 0.218947 12.2765H4.94827C5.06936 12.2765 5.1672 12.3614 5.1672 12.4659V16.5581C5.16746 16.6628 5.06936 16.7475 4.94827 16.7475ZM0.438143 16.3684H4.72933V12.6554H0.438143V16.3684Z" fill="#939598"/>
<path d="M4.94856 16.5582H0.219238V20.6503H4.94856V16.5582Z" fill="#CADBE0"/>
<path d="M4.94827 20.8393H0.218947C0.0978527 20.8393 0 20.7546 0 20.6499V16.5578C0 16.4532 0.0981081 16.3683 0.218947 16.3683H4.94827C5.06936 16.3683 5.1672 16.4534 5.1672 16.5578V20.6499C5.16746 20.7546 5.06936 20.8393 4.94827 20.8393ZM0.438143 20.4604H4.72933V16.7474H0.438143V20.4604Z" fill="#939598"/>
<path d="M4.94856 20.6501H0.219238V24.7422H4.94856V20.6501Z" fill="#CADBE0"/>
<path d="M4.94827 24.9314H0.218947C0.0978527 24.9314 0 24.8466 0 24.742V20.6497C0 20.5451 0.0981081 20.4602 0.218947 20.4602H4.94827C5.06936 20.4602 5.1672 20.5453 5.1672 20.6497V24.742C5.16746 24.8466 5.06936 24.9314 4.94827 24.9314ZM0.438143 24.5523H4.72933V20.8391H0.438143V24.5523Z" fill="#939598"/>
<path d="M4.94856 24.7421H0.219238V28.8342H4.94856V24.7421Z" fill="#CADBE0"/>
<path d="M4.94827 29.0234H0.218947C0.0978527 29.0234 0 28.9385 0 28.8338V24.7416C0 24.6369 0.0981081 24.5522 0.218947 24.5522H4.94827C5.06936 24.5522 5.1672 24.6371 5.1672 24.7416V28.8338C5.16746 28.9385 5.06936 29.0234 4.94827 29.0234ZM0.438143 28.6443H4.72933V24.9313H0.438143V28.6443Z" fill="#939598"/>
<path d="M4.94856 28.8344H0.219238V32.9265H4.94856V28.8344Z" fill="#CADBE0"/>
<path d="M4.94827 33.116H0.218947C0.0978527 33.116 0 33.0311 0 32.9265V28.8344C0 28.7296 0.0981081 28.645 0.218947 28.645H4.94827C5.06936 28.645 5.1672 28.7298 5.1672 28.8344V32.9265C5.16746 33.0311 5.06936 33.116 4.94827 33.116ZM0.438143 32.7369H4.72933V29.0238H0.438143V32.7369Z" fill="#939598"/>
<path d="M42.7816 4.0737H38.0522V8.16581H42.7816V4.0737Z" fill="#CADBE0"/>
<path d="M42.7813 8.35527H38.0519C37.9309 8.35527 37.833 8.27039 37.833 8.16583V4.07372C37.833 3.96894 37.9311 3.88428 38.0519 3.88428H42.7813C42.9024 3.88428 43.0002 3.96916 43.0002 4.07372V8.16583C43.0005 8.27039 42.9024 8.35527 42.7813 8.35527ZM38.2711 7.97617H42.5623V4.26316H38.2711V7.97617Z" fill="#939598"/>
<path d="M42.7816 8.16602H38.0522V12.2581H42.7816V8.16602Z" fill="#CADBE0"/>
<path d="M42.7813 12.4472H38.0519C37.9309 12.4472 37.833 12.3623 37.833 12.2575V8.16542C37.833 8.06064 37.9311 7.97598 38.0519 7.97598H42.7813C42.9024 7.97598 43.0002 8.06087 43.0002 8.16542V12.2575C43.0005 12.3623 42.9024 12.4472 42.7813 12.4472ZM38.2711 12.0681H42.5623V8.35508H38.2711V12.0681Z" fill="#939598"/>
<path d="M42.7816 12.2584H38.0522V16.3503H42.7816V12.2584Z" fill="#CADBE0"/>
<path d="M42.7813 16.5397H38.0519C37.9309 16.5397 37.833 16.4546 37.833 16.3502V12.2581C37.833 12.1533 37.9311 12.0687 38.0519 12.0687H42.7813C42.9024 12.0687 43.0002 12.1535 43.0002 12.2581V16.3502C43.0005 16.4546 42.9024 16.5397 42.7813 16.5397ZM38.2711 16.1606H42.5623V12.4475H38.2711V16.1606Z" fill="#939598"/>
<path d="M42.7816 16.3493H38.0522V20.4415H42.7816V16.3493Z" fill="#CADBE0"/>
<path d="M42.7813 20.6312H38.0519C37.9309 20.6312 37.833 20.5463 37.833 20.442V16.3499C37.833 16.2449 37.9311 16.1604 38.0519 16.1604H42.7813C42.9024 16.1604 43.0002 16.2451 43.0002 16.3499V20.442C43.0005 20.5463 42.9024 20.6312 42.7813 20.6312ZM38.2711 20.2523H42.5623V16.5393H38.2711V20.2523Z" fill="#939598"/>
<path d="M42.7816 20.4422H38.0522V24.5343H42.7816V20.4422Z" fill="#CADBE0"/>
<path d="M42.7813 24.7234H38.0519C37.9309 24.7234 37.833 24.6385 37.833 24.5339V20.4421C37.833 20.3371 37.9311 20.2526 38.0519 20.2526H42.7813C42.9024 20.2526 43.0002 20.3373 43.0002 20.4421V24.5339C43.0005 24.6385 42.9024 24.7234 42.7813 24.7234ZM38.2711 24.3445H42.5623V20.6313H38.2711V24.3445Z" fill="#939598"/>
<path d="M42.7816 24.5341H38.0522V28.6263H42.7816V24.5341Z" fill="#CADBE0"/>
<path d="M42.7813 28.8158H38.0519C37.9309 28.8158 37.833 28.7307 37.833 28.6262V24.5341C37.833 24.4293 37.9311 24.3448 38.0519 24.3448H42.7813C42.9024 24.3448 43.0002 24.4295 43.0002 24.5341V28.6262C43.0005 28.731 42.9024 28.8158 42.7813 28.8158ZM38.2711 28.4367H42.5623V24.7237H38.2711V28.4367Z" fill="#939598"/>
<path d="M42.7816 28.6259H38.0522V32.718H42.7816V28.6259Z" fill="#CADBE0"/>
<path d="M42.7813 32.9077H38.0519C37.9309 32.9077 37.833 32.8226 37.833 32.7181V28.626C37.833 28.5212 37.9311 28.4365 38.0519 28.4365H42.7813C42.9024 28.4365 43.0002 28.5214 43.0002 28.626V32.7181C43.0005 32.8226 42.9024 32.9077 42.7813 32.9077ZM38.2711 32.5284H42.5623V28.8156H38.2711V32.5284Z" fill="#939598"/>
<path d="M42.7816 32.7178H38.0522V36.8101H42.7816V32.7178Z" fill="#CADBE0"/>
<path d="M42.7813 37H38.0519C37.9309 37 37.833 36.9149 37.833 36.8105V32.7182C37.833 32.6134 37.9311 32.5287 38.0519 32.5287H42.7813C42.9024 32.5287 43.0002 32.6136 43.0002 32.7182V36.8105C43.0005 36.9149 42.9024 37 42.7813 37ZM38.2711 36.6206H42.5623V32.9078H38.2711V36.6206Z" fill="#939598"/>
<path d="M4.94629 0.189436V4.28156H9.67562V0.189436H4.94629Z" fill="#CADBE0"/>
<path d="M9.67531 4.47101H4.94599C4.8249 4.47101 4.72705 4.38612 4.72705 4.28157V0.189441C4.72705 0.0846619 4.82515 0 4.94599 0H9.67531C9.7964 0 9.89451 0.0848829 9.89451 0.189441V4.28157C9.89425 4.38612 9.79615 4.47101 9.67531 4.47101ZM5.16519 4.09191H9.45637V0.378895H5.16519V4.09191Z" fill="#939598"/>
<path d="M9.67627 0.189466V4.28159H14.4056V0.189466H9.67627Z" fill="#CADBE0"/>
<path d="M14.4053 4.4711H9.67597C9.55488 4.4711 9.45703 4.38622 9.45703 4.28166V0.189532C9.45703 0.0847534 9.55513 9.15527e-05 9.67597 9.15527e-05H14.4053C14.5264 9.15527e-05 14.6242 0.0849745 14.6242 0.189532V4.28166C14.6242 4.38622 14.5261 4.4711 14.4053 4.4711ZM9.89491 4.092H14.1861V0.378986H9.89491V4.092Z" fill="#939598"/>
<path d="M14.4072 0.189436V4.28156H19.1366V0.189436H14.4072Z" fill="#CADBE0"/>
<path d="M19.1365 4.47101H14.4072C14.2861 4.47101 14.188 4.38612 14.188 4.28157V0.189441C14.188 0.0846619 14.2861 0 14.4072 0H19.1365C19.2576 0 19.3555 0.0848829 19.3555 0.189441V4.28157C19.3557 4.38612 19.2576 4.47101 19.1365 4.47101ZM14.6264 4.09191H18.9176V0.378895H14.6264V4.09191Z" fill="#939598"/>
<path d="M19.1343 0.189436V4.28156H23.8636V0.189436H19.1343Z" fill="#CADBE0"/>
<path d="M23.8633 4.47101H19.134C19.0129 4.47101 18.915 4.38612 18.915 4.28157V0.189441C18.915 0.0846619 19.0131 0 19.134 0H23.8633C23.9844 0 24.0822 0.0848829 24.0822 0.189441V4.28157C24.0822 4.38612 23.9844 4.47101 23.8633 4.47101ZM19.3532 4.09191H23.6444V0.378895H19.3532V4.09191Z" fill="#939598"/>
<path d="M23.8638 0.189466V4.28159H28.5931V0.189466H23.8638Z" fill="#CADBE0"/>
<path d="M28.5928 4.4711H23.8635C23.7424 4.4711 23.6445 4.38622 23.6445 4.28166V0.189532C23.6445 0.0847534 23.7426 9.15527e-05 23.8635 9.15527e-05H28.5928C28.7139 9.15527e-05 28.8117 0.0849745 28.8117 0.189532V4.28166C28.812 4.38622 28.7139 4.4711 28.5928 4.4711ZM24.0824 4.092H28.3736V0.378986H24.0824V4.092Z" fill="#939598"/>
<path d="M28.5947 0.189436V4.28156H33.3241V0.189436H28.5947Z" fill="#CADBE0"/>
<path d="M33.3237 4.47101H28.5944C28.4733 4.47101 28.3755 4.38612 28.3755 4.28157V0.189441C28.3755 0.0846619 28.4736 0 28.5944 0H33.3237C33.4448 0 33.5427 0.0848829 33.5427 0.189441V4.28157C33.5427 4.38612 33.4448 4.47101 33.3237 4.47101ZM28.8136 4.09191H33.1048V0.378895H28.8136V4.09191Z" fill="#939598"/>
<path d="M33.3213 0.189429V4.28156H38.0506V0.189429H33.3213Z" fill="#CADBE0"/>
<path d="M38.0503 4.47101H33.321C33.1999 4.47101 33.1021 4.38612 33.1021 4.28157V0.189441C33.1021 0.0846619 33.2002 0 33.321 0H38.0503C38.1714 0 38.2695 0.0848829 38.2695 0.189441V4.28157C38.2692 4.38612 38.1712 4.47101 38.0503 4.47101ZM33.5399 4.09191H37.8311V0.378895H33.5399V4.09191Z" fill="#939598"/>
<path d="M38.0522 0.189466V4.28159H42.7816V0.189466H38.0522Z" fill="#CADBE0"/>
<path d="M42.7813 4.4711H38.0519C37.9309 4.4711 37.833 4.38622 37.833 4.28166V0.189532C37.833 0.0847534 37.9311 9.15527e-05 38.0519 9.15527e-05H42.7813C42.9024 9.15527e-05 43.0002 0.0849745 43.0002 0.189532V4.28166C43.0005 4.38622 42.9024 4.4711 42.7813 4.4711ZM38.2711 4.092H42.5623V0.378986H38.2711V4.092Z" fill="#939598"/>
<path d="M4.94856 32.7178H0.219238V36.8101H4.94856V32.7178Z" fill="#CADBE0"/>
<path d="M4.94827 36.9997H0.218947C0.0978527 36.9997 0 36.9146 0 36.8102V32.7179C0 32.6131 0.0981081 32.5284 0.218947 32.5284H4.94827C5.06936 32.5284 5.1672 32.6133 5.1672 32.7179V36.8102C5.16746 36.9146 5.06936 36.9997 4.94827 36.9997ZM0.438143 36.6203H4.72933V32.9075H0.438143V36.6203Z" fill="#939598"/>
<path d="M4.94629 32.7177V36.81H9.6756V32.7177H4.94629Z" fill="#CADBE0"/>
<path d="M9.67531 36.9997H4.94599C4.8249 36.9997 4.72705 36.9146 4.72705 36.8102V32.7179C4.72705 32.6131 4.82515 32.5284 4.94599 32.5284H9.67531C9.7964 32.5284 9.89451 32.6133 9.89451 32.7179V36.8102C9.89425 36.9146 9.79615 36.9997 9.67531 36.9997ZM5.16519 36.6203H9.45637V32.9075H5.16519V36.6203Z" fill="#939598"/>
<path d="M9.67627 32.7177V36.81H14.4056V32.7177H9.67627Z" fill="#CADBE0"/>
<path d="M14.4053 37H9.67597C9.55488 37 9.45703 36.9149 9.45703 36.8105V32.7182C9.45703 32.6134 9.55513 32.5287 9.67597 32.5287H14.4053C14.5264 32.5287 14.6242 32.6136 14.6242 32.7182V36.8105C14.6242 36.9149 14.5261 37 14.4053 37ZM9.89491 36.6206H14.1861V32.9078H9.89491V36.6206Z" fill="#939598"/>
<path d="M14.4072 32.7177V36.81H19.1365V32.7177H14.4072Z" fill="#CADBE0"/>
<path d="M19.1365 36.9997H14.4072C14.2861 36.9997 14.188 36.9146 14.188 36.8102V32.7179C14.188 32.6131 14.2861 32.5284 14.4072 32.5284H19.1365C19.2576 32.5284 19.3555 32.6133 19.3555 32.7179V36.8102C19.3557 36.9146 19.2576 36.9997 19.1365 36.9997ZM14.6264 36.6203H18.9176V32.9075H14.6264V36.6203Z" fill="#939598"/>
<path d="M19.1343 32.7177V36.81H23.8636V32.7177H19.1343Z" fill="#CADBE0"/>
<path d="M23.8633 36.9997H19.134C19.0129 36.9997 18.915 36.9146 18.915 36.8102V32.7179C18.915 32.6131 19.0131 32.5284 19.134 32.5284H23.8633C23.9844 32.5284 24.0822 32.6133 24.0822 32.7179V36.8102C24.0822 36.9146 23.9844 36.9997 23.8633 36.9997ZM19.3532 36.6203H23.6444V32.9075H19.3532V36.6203Z" fill="#939598"/>
<path d="M23.8638 32.7177V36.81H28.5931V32.7177H23.8638Z" fill="#CADBE0"/>
<path d="M28.5928 37H23.8635C23.7424 37 23.6445 36.9149 23.6445 36.8105V32.7182C23.6445 32.6134 23.7426 32.5287 23.8635 32.5287H28.5928C28.7139 32.5287 28.8117 32.6136 28.8117 32.7182V36.8105C28.812 36.9149 28.7139 37 28.5928 37ZM24.0824 36.6206H28.3736V32.9078H24.0824V36.6206Z" fill="#939598"/>
<path d="M28.5947 32.7177V36.81H33.324V32.7177H28.5947Z" fill="#CADBE0"/>
<path d="M33.3237 36.9997H28.5944C28.4733 36.9997 28.3755 36.9146 28.3755 36.8102V32.7179C28.3755 32.6131 28.4736 32.5284 28.5944 32.5284H33.3237C33.4448 32.5284 33.5427 32.6133 33.5427 32.7179V36.8102C33.5427 36.9146 33.4448 36.9997 33.3237 36.9997ZM28.8136 36.6203H33.1048V32.9075H28.8136V36.6203Z" fill="#939598"/>
<path d="M33.3213 32.7177V36.81H38.0506V32.7177H33.3213Z" fill="#CADBE0"/>
<path d="M38.0503 36.9997H33.321C33.1999 36.9997 33.1021 36.9146 33.1021 36.8102V32.7179C33.1021 32.6131 33.2002 32.5284 33.321 32.5284H38.0503C38.1714 32.5284 38.2695 32.6133 38.2695 32.7179V36.8102C38.2692 36.9146 38.1712 36.9997 38.0503 36.9997ZM33.5399 36.6203H37.8311V32.9075H33.5399V36.6203Z" fill="#939598"/>
<path d="M38.0522 32.7177V36.81H42.7816V32.7177H38.0522Z" fill="#CADBE0"/>
<path d="M42.7813 37H38.0519C37.9309 37 37.833 36.9149 37.833 36.8105V32.7182C37.833 32.6134 37.9311 32.5287 38.0519 32.5287H42.7813C42.9024 32.5287 43.0002 32.6136 43.0002 32.7182V36.8105C43.0005 36.9149 42.9024 37 42.7813 37ZM38.2711 36.6206H42.5623V32.9078H38.2711V36.6206Z" fill="#939598"/>
<path d="M5.87567 8.95084C4.59192 10.5181 4.84688 13.0105 6.70622 14.0603C5.04615 15.6266 3.88349 17.6731 3.91926 19.7981C3.95528 21.9231 5.35451 24.081 7.62184 24.8978C9.19581 25.4646 10.9706 25.358 12.6702 25.2415C12.333 27.1485 12.0466 29.2658 13.3043 30.8587C13.9287 31.6494 14.8796 32.2155 15.9007 32.5844C19.0783 33.733 23.0634 32.9061 25.2932 30.6354C25.5964 31.1878 26.3424 31.4378 27.0363 31.5543C29.4451 31.9591 32.0589 31.311 33.8543 29.864C35.4679 28.5631 36.4029 26.5199 35.7783 24.6898C35.1473 22.8413 33.0969 21.5807 30.9606 21.0347C33.196 21.0203 35.5101 20.6883 37.3548 19.5956C39.1996 18.5032 40.4583 16.515 39.9898 14.6239C39.6265 13.1568 38.273 11.9567 36.6645 11.3966C36.3687 11.2936 36.0458 11.1981 35.8565 10.9761C35.7009 10.7938 35.6646 10.5579 35.5847 10.3421C35.2745 9.50458 34.2771 8.97052 33.2734 8.83259C32.2696 8.69465 31.2483 8.879 30.2542 9.06248C31.3234 7.8027 30.9601 5.92288 29.779 4.74025C28.598 3.55762 26.791 2.97403 25.006 2.73375C23.4183 2.52021 21.751 2.54917 20.2583 3.064C18.7658 3.57906 17.4708 4.6306 17.0401 5.96996C17.2343 5.36626 14.3538 5.13836 14.0018 5.18831C12.8202 5.35543 12.2921 6.08446 11.3392 6.5595C9.43416 7.50981 7.33238 7.17248 5.87567 8.95084Z" fill="#2B7D53"/>
<path d="M8.45888 17.8034C8.5695 16.3619 9.89438 15.1041 11.4947 14.6925C10.0093 13.8121 9.46672 11.9256 10.3014 10.5453C11.136 9.16486 13.2365 8.47519 14.9193 9.02914C15.7325 8.12747 17.1118 7.6343 18.4231 7.776C19.7347 7.91769 20.9313 8.68916 21.4635 9.73607C20.5072 9.20267 19.2416 9.11093 18.1962 9.4991C17.1508 9.88748 16.3558 10.7445 16.144 11.7116C15.2846 10.8908 13.4659 11.3053 13.0354 12.3482C12.6052 13.3914 13.5027 14.6308 14.7433 14.9036C13.4659 15.4509 12.1482 16.025 11.2428 16.9777C10.1238 18.1555 10.3642 19.2446 10.6932 20.5415C9.29198 20.8667 8.38888 18.7159 8.45888 17.8034Z" fill="#369E66"/>
<path d="M27.0538 13.3214C28.4288 12.3664 30.6994 12.7707 31.6907 14.0323C32.6819 15.294 32.3922 17.1314 31.193 18.2497C32.218 17.877 33.2031 17.3472 33.8435 16.5609C34.484 15.7744 34.7221 14.6961 34.2357 13.8311C33.5124 12.5448 31.5989 12.1938 29.9465 12.1447C30.0342 11.308 29.5378 10.4452 28.7134 10.0011C27.889 9.55705 26.7754 9.55263 25.9461 9.99009C25.742 9.54644 25.1646 9.29068 24.6128 9.29068C24.061 9.29068 23.5365 9.504 23.0794 9.7717C22.4788 10.1236 21.2321 11.1011 21.3734 11.8326C21.5954 12.9831 22.3907 12.2351 23.0184 11.9433C23.8599 11.552 24.7083 11.4101 25.6107 11.7651C25.859 11.8633 27.5239 12.9949 27.0538 13.3214Z" fill="#369E66"/>
<path d="M13.9324 22.3137C14.15 20.8216 15.8469 19.6087 17.5816 19.7053C17.1084 18.7398 17.6855 17.6031 18.5442 16.8632C20.1258 15.5002 22.6984 15.0855 24.7412 15.8643C26.7842 16.6433 28.1663 18.5658 28.071 20.4958C27.6505 18.998 25.6604 17.9831 23.9423 18.3907C22.2243 18.7981 21.1102 20.5493 21.6311 22.0233C20.4163 21.3451 18.6929 21.4445 17.5928 22.256C16.4327 23.1117 16.3351 24.3423 16.5569 25.5411C14.9083 25.4136 13.7372 23.6527 13.9324 22.3137Z" fill="#369E66"/>
<path d="M10.3421 25.5992C10.0754 25.5329 9.72744 25.6576 9.69704 25.8961C9.67353 26.0813 9.83908 26.2403 9.99211 26.3712C9.69167 26.4775 9.44616 26.6945 9.32941 26.9567C9.29748 27.0283 9.27474 27.1064 9.29109 27.182C9.3266 27.346 9.53047 27.4413 9.72079 27.4687C9.91112 27.4963 10.1106 27.4808 10.2928 27.5354C10.1766 27.7081 10.058 27.886 10.022 28.0834C9.98572 28.281 10.0498 28.5052 10.2384 28.6208C10.4908 28.776 10.8395 28.6825 11.1228 28.575C11.142 28.9146 11.4685 29.2223 11.8578 29.2676C12.2472 29.3129 12.6562 29.091 12.7783 28.7678C13.3713 28.8763 14.0219 28.484 14.1096 27.9649C14.1443 27.7594 14.07 27.5116 13.8472 27.4344C14.1665 27.3223 14.3722 27.0069 14.3178 26.7125C14.2634 26.4178 13.9545 26.1735 13.6106 26.1534C13.8526 25.9178 13.8209 25.5115 13.545 25.3057C13.2691 25.0999 12.8003 25.1332 12.5665 25.3749C12.5778 25.1379 12.3266 24.9162 12.0522 24.9213C11.7781 24.9266 11.5382 25.1574 11.5615 25.3939C11.5456 25.2321 11.1836 25.2628 11.083 25.2997C10.863 25.3808 10.7999 25.5941 10.7621 25.7776C10.6356 25.7261 10.4893 25.6357 10.3421 25.5992Z" fill="#69C7D1"/>
<path d="M6.99175 18.4533C6.72504 18.3869 6.37708 18.5116 6.34693 18.7501C6.32343 18.9356 6.48872 19.0943 6.642 19.2252C6.34157 19.3315 6.09606 19.5488 5.97931 19.8107C5.94737 19.8824 5.92464 19.9604 5.94099 20.0358C5.9765 20.1998 6.18037 20.2951 6.3707 20.3227C6.56102 20.3501 6.76054 20.3346 6.9427 20.3892C6.82646 20.5619 6.70817 20.7398 6.6719 20.9372C6.63587 21.1344 6.7 21.3588 6.88829 21.4746C7.14069 21.6296 7.48916 21.5361 7.77274 21.4286C7.7919 21.7684 8.11813 22.0759 8.50773 22.1212C8.89733 22.1665 9.30608 21.9448 9.42845 21.6216C10.0214 21.7299 10.6721 21.3375 10.7595 20.8185C10.794 20.6129 10.7199 20.3651 10.4971 20.288C10.8167 20.1759 11.0224 19.8607 10.9679 19.5658C10.9135 19.2714 10.6047 19.0269 10.2608 19.0068C10.5025 18.7711 10.471 18.3648 10.1951 18.159C9.91922 17.9532 9.45043 17.9866 9.21642 18.2282C9.22766 17.9913 8.97652 17.7698 8.7024 17.7748C8.42827 17.7799 8.18839 18.0107 8.21164 18.2472C8.1958 18.0854 7.83354 18.1161 7.73314 18.1533C7.51318 18.2342 7.45007 18.4475 7.41226 18.631C7.28529 18.5804 7.13891 18.4897 6.99175 18.4533Z" fill="#69C7D1"/>
<path d="M19.8987 12.2718C19.632 12.2057 19.2841 12.3301 19.2537 12.5689C19.2302 12.7541 19.3957 12.9128 19.5487 13.0437C19.2483 13.1502 19.0028 13.3673 18.8861 13.6292C18.8541 13.7011 18.8314 13.7791 18.8477 13.8547C18.8832 14.0187 19.0871 14.114 19.2774 14.1414C19.4678 14.1688 19.6673 14.1534 19.8494 14.2082C19.7332 14.3808 19.6149 14.5586 19.5786 14.7562C19.5426 14.9536 19.6067 15.1777 19.795 15.2935C20.0474 15.4485 20.3959 15.355 20.6795 15.2476C20.6986 15.5873 21.0249 15.8948 21.4145 15.9404C21.8041 15.9857 22.2128 15.7637 22.3352 15.4406C22.9281 15.5489 23.5788 15.1565 23.6662 14.6375C23.701 14.4319 23.6266 14.1841 23.4038 14.1072C23.7234 13.9951 23.9291 13.6797 23.8747 13.385C23.8203 13.0905 23.5114 12.8461 23.1675 12.8259C23.4095 12.5903 23.3778 12.184 23.1019 11.9784C22.826 11.7729 22.3572 11.806 22.1234 12.0476C22.1347 11.8107 21.8835 11.5889 21.6091 11.5942C21.335 11.5993 21.0951 11.8303 21.1184 12.0669C21.1025 11.905 20.7403 11.9358 20.6399 11.9727C20.4199 12.0538 20.3568 12.2671 20.319 12.4504C20.192 12.3989 20.0456 12.3085 19.8987 12.2718Z" fill="#69C7D1"/>
<path d="M21.5115 5.51484C21.2448 5.44875 20.8969 5.5732 20.8665 5.81172C20.843 5.99696 21.0085 6.15567 21.1618 6.28676C20.8614 6.3933 20.6158 6.61015 20.4991 6.87232C20.4669 6.94416 20.4442 7.02197 20.4605 7.09757C20.496 7.26159 20.7002 7.35688 20.8902 7.38429C21.0806 7.4117 21.2798 7.39622 21.4622 7.45082C21.346 7.62346 21.2277 7.80141 21.1914 7.99881C21.1551 8.1962 21.2193 8.42036 21.4078 8.53619C21.6602 8.69115 22.0087 8.59764 22.2925 8.49043C22.3117 8.83018 22.6379 9.13767 23.0275 9.18298C23.4171 9.2283 23.8259 9.00658 23.9482 8.6834C24.5412 8.79194 25.1919 8.39936 25.2793 7.88055C25.314 7.67497 25.2397 7.42716 25.0169 7.35002C25.3362 7.23794 25.5421 6.9225 25.4877 6.62806C25.4333 6.33362 25.1242 6.08914 24.7803 6.06902C25.0222 5.83338 24.9908 5.42708 24.7147 5.22128C24.4387 5.01548 23.97 5.04886 23.7362 5.29047C23.7474 5.0535 23.496 4.83179 23.2219 4.8371C22.9478 4.84218 22.7079 5.07317 22.7312 5.30948C22.7153 5.14767 22.3531 5.1784 22.2527 5.21553C22.0324 5.29666 21.9696 5.50976 21.9318 5.69323C21.8051 5.64173 21.6587 5.55131 21.5115 5.51484Z" fill="#69C7D1"/>
<path d="M31.8555 12.0563C31.5888 11.99 31.2409 12.1147 31.2107 12.3532C31.1872 12.5384 31.3525 12.6971 31.5058 12.828C31.2053 12.9345 30.9598 13.1516 30.8431 13.4136C30.8112 13.4854 30.7884 13.5634 30.8048 13.6388C30.8403 13.8028 31.0441 13.8981 31.2345 13.9255C31.4248 13.9529 31.6243 13.9375 31.8065 13.9923C31.6902 14.1649 31.5719 14.3429 31.5357 14.5403C31.4997 14.7377 31.5638 14.9618 31.7521 15.0776C32.0045 15.2326 32.3529 15.1391 32.6365 15.0319C32.6557 15.3714 32.9822 15.6791 33.3718 15.7244C33.7611 15.7698 34.1699 15.5478 34.2922 15.2246C34.8852 15.3332 35.5359 14.9408 35.6232 14.4216C35.658 14.2162 35.5836 13.9684 35.3609 13.8913C35.6802 13.7792 35.8861 13.4637 35.8317 13.1693C35.7773 12.8746 35.4684 12.6304 35.1243 12.6103C35.366 12.3744 35.3346 11.9683 35.0586 11.7625C34.7827 11.5567 34.3137 11.5901 34.0799 11.8317C34.0912 11.5947 33.84 11.373 33.5659 11.3783C33.2918 11.3836 33.0519 11.6144 33.0752 11.8509C33.0591 11.6891 32.697 11.7199 32.5966 11.7568C32.3767 11.8379 32.3136 12.0512 32.2758 12.2347C32.1491 12.1832 32.0027 12.0926 31.8555 12.0563Z" fill="#69C7D1"/>
<path d="M19.8987 25.0828C19.632 25.0164 19.2841 25.1411 19.2537 25.3796C19.2302 25.5651 19.3957 25.7238 19.5487 25.8547C19.2483 25.961 19.0028 26.1783 18.8861 26.4402C18.8541 26.5119 18.8314 26.5899 18.8477 26.6655C18.8832 26.8295 19.0871 26.9248 19.2774 26.9524C19.4678 26.9798 19.6673 26.9644 19.8494 27.019C19.7332 27.1916 19.6149 27.3695 19.5786 27.5669C19.5426 27.7643 19.6067 27.9885 19.795 28.1043C20.0474 28.2593 20.3959 28.1658 20.6795 28.0584C20.6986 28.3981 21.0249 28.7056 21.4145 28.7509C21.8041 28.7964 22.2128 28.5745 22.3352 28.2513C22.9281 28.3596 23.5788 27.9673 23.6662 27.4482C23.701 27.2427 23.6266 26.9949 23.4038 26.9179C23.7234 26.8059 23.9291 26.4904 23.8747 26.1958C23.8203 25.9013 23.5114 25.6568 23.1675 25.6367C23.4095 25.4011 23.3778 24.9948 23.1019 24.7892C22.826 24.5834 22.3572 24.6165 22.1234 24.8584C22.1347 24.6214 21.8835 24.3999 21.6091 24.405C21.335 24.4101 21.0951 24.6409 21.1184 24.8774C21.1025 24.7156 20.7403 24.7463 20.6399 24.7834C20.4199 24.8644 20.3568 25.0777 20.319 25.2611C20.192 25.2096 20.0456 25.1192 19.8987 25.0828Z" fill="#69C7D1"/>
<path d="M30.1248 19.7693C29.8581 19.703 29.5101 19.8277 29.4797 20.0664C29.4562 20.2516 29.6218 20.4103 29.775 20.5412C29.4746 20.6475 29.2291 20.8648 29.1123 21.1268C29.0804 21.1984 29.0574 21.2764 29.0738 21.352C29.1093 21.5161 29.3134 21.6116 29.5035 21.639C29.6938 21.6664 29.8933 21.6509 30.0755 21.7057C29.9592 21.8784 29.841 22.0561 29.8047 22.2537C29.7684 22.4511 29.8328 22.6752 30.0211 22.7911C30.2735 22.946 30.6219 22.8525 30.9055 22.7451C30.9247 23.0849 31.2512 23.3923 31.6405 23.4377C32.0301 23.4832 32.4389 23.2613 32.561 22.9381C33.1539 23.0464 33.8046 22.654 33.892 22.135C33.9267 21.9294 33.8524 21.6816 33.6296 21.6047C33.949 21.4926 34.1549 21.1772 34.1005 20.8825C34.046 20.5881 33.7372 20.3436 33.3933 20.3235C33.635 20.0878 33.6036 19.6815 33.3277 19.476C33.0515 19.2702 32.5827 19.3033 32.3489 19.5451C32.3602 19.3082 32.1088 19.0867 31.8347 19.0918C31.5605 19.0968 31.3207 19.3279 31.3442 19.5644C31.3283 19.4026 30.9661 19.4331 30.8657 19.4702C30.6454 19.5513 30.5826 19.7644 30.5448 19.9479C30.4183 19.8962 30.2719 19.8058 30.1248 19.7693Z" fill="#69C7D1"/>
<path d="M9.51154 8.71354C9.24483 8.64723 8.89687 8.7719 8.86647 9.01042C8.84297 9.19566 9.00851 9.3546 9.16179 9.48546C8.86136 9.59201 8.61585 9.80886 8.49884 10.071C8.46691 10.1426 8.44417 10.2207 8.46052 10.2963C8.49603 10.4603 8.70016 10.5556 8.89023 10.583C9.08056 10.6106 9.27982 10.5949 9.46223 10.6495C9.34599 10.8224 9.22745 11.0001 9.19143 11.1975C9.15515 11.3949 9.21928 11.6193 9.40782 11.7349C9.66022 11.8901 10.0089 11.7966 10.2925 11.6889C10.3117 12.0287 10.6379 12.3362 11.0275 12.3815C11.4171 12.4268 11.8259 12.2051 11.948 11.8819C12.5409 11.9904 13.1916 11.5978 13.2793 11.079C13.314 10.8734 13.2397 10.6257 13.0169 10.5485C13.3365 10.4364 13.5421 10.121 13.4877 9.82655C13.4333 9.53189 13.1242 9.28762 12.7803 9.26751C13.0222 9.03187 12.9908 8.62557 12.7149 8.41977C12.4388 8.21397 11.97 8.24712 11.7362 8.48896C11.7474 8.25199 11.4963 8.03028 11.2219 8.03559C10.9478 8.04089 10.7079 8.27167 10.7312 8.5082C10.7153 8.34638 10.3533 8.37711 10.2527 8.41402C10.0327 8.49515 9.9696 8.70846 9.93179 8.89193C9.80508 8.84043 9.65844 8.75002 9.51154 8.71354Z" fill="#69C7D1"/>
<path d="M27.3526 26.765C27.069 26.6947 26.6988 26.8271 26.6664 27.0811C26.6414 27.2783 26.8174 27.447 26.9804 27.5865C26.6608 27.6999 26.3997 27.9306 26.2753 28.2094C26.2413 28.2859 26.2168 28.3686 26.2344 28.449C26.2722 28.6234 26.4891 28.7249 26.6914 28.7541C26.894 28.7835 27.1063 28.7669 27.3 28.825C27.1763 29.0087 27.0504 29.1979 27.012 29.4079C26.9735 29.6179 27.0417 29.8565 27.2422 29.9796C27.5107 30.1445 27.8817 30.045 28.1834 29.9307C28.2038 30.2922 28.551 30.6191 28.9654 30.6675C29.3798 30.7159 29.8146 30.4796 29.9446 30.1359C30.5756 30.2513 31.2677 29.8339 31.3607 29.2817C31.3975 29.0633 31.3186 28.7994 31.0815 28.7174C31.4215 28.5982 31.6402 28.2627 31.5825 27.9492C31.5245 27.6358 31.1959 27.3758 30.8301 27.3544C31.0874 27.1037 31.0539 26.6715 30.7604 26.4527C30.4668 26.2339 29.9679 26.2692 29.7193 26.5263C29.7311 26.2741 29.4638 26.0385 29.1721 26.044C28.8803 26.0493 28.6254 26.2951 28.6501 26.5464C28.6333 26.3742 28.248 26.4069 28.1412 26.4463C27.907 26.5327 27.84 26.7595 27.7999 26.9547C27.665 26.9001 27.5092 26.8039 27.3526 26.765Z" fill="#69C7D1"/>
</svg>
