<svg width="226" height="227" viewBox="0 0 226 227" fill="none" xmlns="http://www.w3.org/2000/svg">
<path d="M217.783 104.199C220.757 103.322 222.862 100.137 222.505 97.057C222.147 93.977 219.368 91.36 216.272 91.187C222.602 86.523 225.842 77.704 223.216 70.293C220.589 62.882 211.79 58.0029 204.32 60.4559C207.268 56.6679 209.502 51.673 207.935 47.135C206.368 42.598 199.434 40.292 196.613 44.176C197.697 39.016 194.562 33.299 189.629 31.44C184.695 29.58 177.43 30.08 174.839 34.671C175.82 31.552 176.619 28.23 175.914 25.038C175.209 21.845 172.579 18.861 169.31 18.777C166.182 18.697 163.605 21.129 161.599 23.529C162.16 16.384 161.039 8.35101 155.53 3.76601C150.671 -0.277994 143.321 -0.478996 137.662 2.339C132.003 5.157 127.941 10.554 125.601 16.427C126.156 11.569 121.253 6.42797 116.45 5.51497C111.646 4.60197 106.419 7.882 105.152 12.605C99.7799 6.048 90.1669 3.83295 82.0139 6.15095C73.8609 8.46895 69.2619 17.01 67.4599 24.595C65.1739 21.005 57.906 16.093 51.888 19.345C48.144 21.369 46.5679 26.578 48.4379 30.402C41.7729 27.717 33.6079 30.7 29.3799 36.51C25.1529 42.321 24.6149 50.318 26.9959 57.098C22.1069 56.198 16.778 58.8729 14.577 63.3309C12.376 67.7889 13.4939 73.646 17.1819 76.98C14.1759 76.926 11.2799 79.147 10.5519 82.064C9.82394 84.981 14.0959 90.425 16.7739 91.791C9.34994 94.321 1.03094 99.466 0.532944 107.294C0.0349443 115.121 4.62795 123.036 11.672 126.487C7.34095 127.674 4.15695 132.14 4.44695 136.622C4.73695 141.103 11.2699 144.34 15.7179 144.958C11.0529 148.533 6.73495 156.414 9.53095 161.583C12.3269 166.753 19.099 169.369 24.644 167.421C23.006 169.621 23.257 173.013 25.202 174.946C27.147 176.88 34.0459 176.411 36.2359 174.76C33.6229 182.441 32.285 192.234 38.082 197.912C43.879 203.589 53.015 205.567 60.64 202.795C59.465 205.559 60.678 209.113 63.297 210.582C65.916 212.051 69.582 211.232 71.327 208.789C72.745 215.773 79.071 221.463 86.166 222.137C93.261 222.811 100.545 218.413 103.252 211.821C105.351 218.472 110.891 223.931 117.572 225.933C124.252 227.935 131.882 226.421 137.293 222.021C145.459 215.38 147.605 203.996 149.211 193.593C151.746 198.67 155.885 203.645 161.521 204.309C167.157 204.973 173.143 198.634 170.287 193.73C174.966 198.174 182.251 200.246 188.114 197.551C193.977 194.855 197.079 186.728 193.44 181.399C197.467 184.583 204.182 181.82 205.81 176.951C207.438 172.082 204.763 166.515 200.532 163.608C206.542 167.822 215.832 163.687 218.305 156.776C220.779 149.866 219.107 143.209 213.714 138.23C219.363 134.37 224.016 128.635 225.263 121.907C226.514 115.18 223.755 107.538 217.783 104.199Z" fill="#79AE28"/>
<path d="M143.758 103.596C144.651 103.332 145.284 102.376 145.176 101.451C145.069 100.526 144.234 99.74 143.304 99.688C145.205 98.287 146.178 95.638 145.39 93.412C144.601 91.186 141.958 89.721 139.714 90.457C140.6 89.319 141.271 87.819 140.8 86.456C140.329 85.093 138.247 84.401 137.399 85.567C137.725 84.017 136.783 82.3 135.301 81.741C133.819 81.182 131.637 81.332 130.859 82.712C131.154 81.775 131.394 80.777 131.182 79.818C130.97 78.859 130.18 77.963 129.199 77.938C128.259 77.914 127.485 78.644 126.883 79.365C127.052 77.219 126.715 74.806 125.06 73.429C123.6 72.214 121.393 72.154 119.693 73C117.993 73.847 116.773 75.468 116.071 77.232C116.238 75.773 114.765 74.229 113.322 73.954C111.879 73.68 110.309 74.665 109.929 76.084C108.316 74.115 105.428 73.449 102.979 74.146C100.53 74.842 99.1492 77.408 98.6072 79.686C97.9202 78.608 95.7372 77.132 93.9302 78.109C92.8052 78.717 92.3322 80.282 92.8942 81.43C90.8922 80.623 88.4392 81.519 87.1702 83.265C85.9002 85.01 85.7392 87.412 86.4542 89.449C84.9852 89.179 83.3852 89.982 82.7242 91.321C82.0632 92.66 82.3992 94.419 83.5072 95.421C82.6042 95.405 81.7342 96.072 81.5152 96.948C81.2962 97.824 82.5802 99.459 83.3842 99.87C81.1542 100.63 78.6552 102.175 78.5062 104.526C78.3562 106.877 79.7362 109.254 81.8522 110.291C80.5512 110.648 79.5952 111.989 79.6822 113.335C79.7692 114.681 81.7312 115.653 83.0672 115.839C81.6662 116.913 80.3692 119.28 81.2092 120.833C82.0492 122.386 84.0832 123.172 85.7482 122.587C85.2562 123.248 85.3322 124.267 85.9162 124.847C86.5002 125.428 88.5722 125.287 89.2302 124.791C88.4452 127.098 88.0432 130.04 89.7842 131.745C91.5252 133.45 94.2692 134.044 96.5602 133.212C96.2072 134.042 96.5712 135.11 97.3582 135.551C98.1452 135.992 99.2463 135.746 99.7703 135.012C100.196 137.11 102.096 138.819 104.227 139.021C106.358 139.223 108.546 137.902 109.359 135.922C109.99 137.92 111.654 139.559 113.66 140.161C115.666 140.763 117.958 140.308 119.583 138.986C122.036 136.991 122.681 133.572 123.163 130.447C123.924 131.972 125.168 133.466 126.861 133.666C128.554 133.866 130.352 131.962 129.494 130.488C130.899 131.823 133.088 132.445 134.849 131.636C136.61 130.826 137.542 128.385 136.449 126.785C137.659 127.741 139.676 126.911 140.164 125.449C140.653 123.987 139.85 122.315 138.579 121.441C140.384 122.707 143.174 121.465 143.918 119.389C144.661 117.313 144.159 115.314 142.539 113.818C144.236 112.659 145.633 110.936 146.008 108.915C146.38 106.894 145.552 104.599 143.758 103.596Z" fill="#9DBB1D"/>
<path d="M167.352 105.468C168.567 104.996 169.337 103.589 169.079 102.311C168.821 101.033 167.566 100.035 166.263 100.071C168.751 97.8959 169.799 94.0888 168.439 91.0768C167.079 88.0648 163.223 86.3298 160.181 87.6188C161.283 85.9288 162.043 83.7588 161.228 81.9138C160.413 80.0688 157.428 79.3458 156.383 81.0718C156.656 78.8728 155.143 76.5878 153.012 75.9818C150.881 75.3758 147.855 75.8398 146.931 77.8538C148.514 77.1098 150.483 77.3778 151.659 78.6718C152.516 79.6158 152.658 81.0428 152.34 82.2778C152.021 83.5118 151.309 84.6018 150.607 85.6668C151.529 85.3188 152.471 84.9678 153.456 84.9398C154.44 84.9118 155.492 85.2678 156.049 86.0798C156.481 86.7088 156.561 87.5158 156.515 88.2778C156.362 90.8328 154.897 93.1408 152.688 94.4348C155.814 92.9548 156.181 93.3388 157.888 92.9728C159.218 92.6878 160.767 92.7118 161.741 93.6608C162.505 94.4048 162.731 95.5608 162.635 96.6218C162.367 99.5728 159.639 102.093 156.676 102.126C158.489 103.13 160.55 103.739 162.121 105.09C163.693 106.441 164.595 108.948 163.332 110.592C162.137 112.147 159.813 112.076 157.864 111.856C158.962 112.657 160.029 113.809 160.727 114.976C161.991 117.087 160.388 119.973 158.134 120.957C155.879 121.941 153.293 121.58 150.863 121.201C153.563 123.068 156.594 125.644 156.123 128.892C156.036 129.494 155.756 130.148 155.182 130.351C154.841 130.471 154.467 130.406 154.112 130.34C152.952 130.124 151.792 129.907 150.632 129.691C152.257 131.623 153.866 134.401 152.429 136.476C151.687 137.547 150.294 138.024 148.993 137.955C147.692 137.885 146.463 137.348 145.313 136.736C142.501 135.242 139.954 133.251 137.825 130.884C138.851 132.414 139.892 133.994 140.29 135.793C140.688 137.592 140.307 139.684 138.88 140.849C137.453 142.014 134.918 141.73 134.165 140.049C134.461 142.132 134.479 144.254 134.218 146.342C134.1 147.287 133.903 148.273 133.285 148.996C132.438 149.987 130.951 150.245 129.693 149.906C128.435 149.566 127.371 148.726 126.445 147.809C125.135 146.511 123.474 145.31 122.606 143.682C123.117 145.627 123.167 147.789 122.211 149.558C121.255 151.327 119.103 152.532 117.18 151.946C114.836 151.232 113.891 148.489 113.283 146.116C112.624 147.199 111.964 148.283 111.305 149.366C111.082 149.732 110.82 150.129 110.405 150.234C109.977 150.343 109.539 150.1 109.198 149.819C107.275 148.235 106.895 145.488 106.651 143.008C106.432 146.189 103.461 148.929 100.273 148.891C97.0854 148.853 94.1804 146.043 94.0374 142.858C93.2584 145.634 93.1584 149.175 95.3794 151.014C98.0064 153.189 101.901 153.697 104.998 152.269C104.603 153.467 105.235 154.914 106.384 155.437C107.532 155.96 109.039 155.489 109.684 154.405C110.523 157.28 113.372 159.442 116.366 159.475C119.361 159.509 122.257 157.411 123.16 154.556C124.272 157.268 126.784 159.36 129.652 159.964C132.52 160.568 135.662 159.667 137.774 157.635C140.961 154.568 141.461 149.724 141.769 145.312C143.009 147.349 144.916 149.288 147.3 149.369C149.684 149.45 151.968 146.585 150.601 144.631C152.717 146.328 155.84 146.941 158.201 145.606C160.562 144.271 161.576 140.759 159.865 138.655C161.663 139.848 164.379 138.455 164.89 136.359C165.401 134.263 164.086 132.025 162.212 130.956C164.877 132.51 168.623 130.453 169.416 127.472C170.21 124.491 167.485 120.283 165.052 118.387C168.683 118.083 170.821 115.486 171.108 112.625C171.393 109.761 169.97 106.657 167.352 105.468Z" fill="#699415"/>
<path d="M139.821 53.2868C137.368 51.8248 133.844 52.5787 132.204 54.9157C131.833 52.8017 130.221 49.8937 128.722 48.3587C127.222 46.8237 125.003 45.9108 122.892 46.2978C120.364 46.7618 118.35 49.2017 118.374 51.7727C117.597 50.1227 116.607 48.2937 114.84 47.8407C113.366 47.4627 111.78 48.2368 110.807 49.4078C109.834 50.5788 109.483 52.4737 109.125 53.9527C108.589 51.5257 105.584 47.3768 101.632 47.9568C99.1728 48.3178 97.2408 52.9447 97.5018 55.4167C94.3828 52.6097 89.3308 50.5288 85.8488 52.8708C82.3668 55.2128 80.4708 59.4928 80.4208 63.6888C77.9178 62.2168 74.4588 62.6178 72.3598 64.6238C70.2608 66.6288 69.7018 70.0658 71.0578 72.6338C69.4198 72.0028 67.3858 72.6417 66.4028 74.0957C65.4198 75.5497 66.6738 79.3928 67.8708 80.6778C63.2918 80.5798 57.6968 81.7388 55.8578 85.9338C54.0178 90.1288 54.9548 95.3897 58.1288 98.6927C55.5148 98.4777 52.8738 100.291 52.1368 102.808C51.3988 105.325 54.3358 108.408 56.6528 109.637C53.3778 110.664 49.4318 114.125 49.9318 117.521C50.4308 120.917 53.6228 123.707 57.0558 123.748C55.7168 124.627 55.1758 126.538 55.8568 127.989C56.5368 129.439 60.4158 130.563 61.9478 130.095C58.9768 133.787 56.2828 138.892 58.3278 143.167C60.3718 147.442 64.9888 150.355 69.7278 150.36C68.5298 151.641 68.4848 153.834 69.6278 155.164C70.7708 156.494 72.9458 156.779 74.3928 155.787C73.7738 159.903 76.7178 161.525 80.1818 161.092C77.0068 156.423 76.4388 154.223 78.8668 149.126C76.9828 150.76 73.7188 149.866 72.4748 147.704C71.2308 145.542 71.7738 142.675 73.2898 140.695C71.1558 141.988 68.1608 141.153 66.5958 139.21C65.0308 137.267 64.7478 134.516 65.3568 132.097C65.9658 129.677 67.3618 127.532 68.8888 125.558C66.5968 125.641 64.2238 125.577 62.1368 124.627C60.0498 123.677 58.3088 121.639 58.3538 119.346C58.3788 118.093 58.9218 116.901 59.6318 115.868C60.9118 114.006 62.7728 112.551 64.8888 111.757C63.3808 110.776 62.3538 109.129 61.1538 107.789C60.3958 106.941 59.6688 105.901 59.8018 104.771C59.9238 103.737 60.7678 102.903 61.7248 102.493C62.6818 102.083 63.7468 102.02 64.7858 101.963C62.7388 100.522 61.4308 98.2538 60.4608 95.9458C59.7018 94.1428 59.1588 91.9128 60.3408 90.3548C60.8808 89.6428 61.7018 89.2017 62.5288 88.8637C66.0738 87.4157 70.3808 88.2558 73.8288 89.9208C71.2308 86.8888 70.8198 84.4948 72.1988 82.8338C73.5788 81.1728 76.1588 80.9458 78.1528 81.7748C77.0938 80.4968 76.0178 79.1917 75.4008 77.6507C74.7838 76.1097 74.6908 74.2658 75.5648 72.8548C76.6248 71.1418 78.8678 70.4698 80.8678 70.7068C82.8678 70.9438 84.6938 71.9207 86.4648 72.8797C86.0948 70.5727 85.4338 67.6587 86.6998 65.6947C87.9038 63.8267 90.3198 63.0008 92.5318 63.2118C94.7438 63.4228 96.8598 63.8287 98.6788 65.1067C97.3938 63.8557 98.0998 61.2208 99.4128 60.0008C100.727 58.7798 102.802 58.6197 104.457 59.3117C106.112 60.0027 107.378 61.4188 108.249 62.9858C108.659 61.1168 109.093 59.1928 110.2 57.6318C111.306 56.0708 113.27 54.9537 115.125 55.4237C116.209 55.6977 117.101 56.4608 117.87 57.2718C119.63 59.1288 120.977 61.3747 121.785 63.8017C122.002 61.4817 122.628 58.6448 124.877 58.0348C126.252 57.6618 127.738 58.3728 128.681 59.4408C129.625 60.5088 130.137 61.8787 130.63 63.2157C131.585 60.5887 133.898 58.3638 136.672 58.0218C139.446 57.6798 142.24 58.3448 142.663 61.1078C143.936 58.5508 142.274 54.7488 139.821 53.2868Z" fill="#B6CC36"/>
<path d="M65.6572 172.724C65.7982 172.527 65.9282 172.321 66.0342 172.094C65.8792 172.292 65.7592 172.505 65.6572 172.724Z" fill="#699415"/>
<path d="M204.311 119.8C200.559 127.173 192.138 131.219 183.982 129.831C186.544 132.718 189.194 135.771 190.078 139.529C190.962 143.286 189.395 147.923 185.728 149.129C181.799 150.42 177.73 148.238 173.744 147.134C175.544 149.207 176.92 151.764 177.062 154.506C177.204 157.247 175.919 160.154 173.496 161.444C171.073 162.734 167.596 161.928 166.387 159.464C167.206 162.948 167.771 167.254 165.007 169.528C163.356 170.886 160.95 170.997 158.913 170.348C156.876 169.699 155.121 168.4 153.407 167.122C152.463 166.418 151.444 165.593 151.276 164.428C151.541 165.909 151.806 167.424 151.561 168.908C151.316 170.392 150.458 171.864 149.065 172.43C147.387 173.111 145.474 172.326 143.974 171.312C140.861 169.208 137.662 166.106 136.505 162.531C137.238 168.234 136.178 174.155 133.513 179.25C132.181 181.797 130.154 184.334 127.314 184.771C125.005 185.126 122.539 183.826 121.525 181.722C121.303 183.941 120.992 186.223 119.863 188.146C118.734 190.069 116.586 191.56 114.376 191.261C112.904 191.062 111.641 190.128 110.546 189.125C107.167 186.029 104.702 181.946 103.535 177.514C103.053 179.968 102.549 182.48 101.25 184.616C99.9508 186.753 97.6708 188.473 95.1708 188.39C92.1348 188.29 89.5778 185.138 90.1048 182.147C88.9348 184.558 86.8258 187.41 84.2738 186.592C82.9968 186.183 82.1898 184.94 81.6058 183.733C79.7218 179.837 79.0678 175.358 79.7598 171.086C78.4588 173.26 77.1128 175.484 75.1238 177.053C73.1348 178.623 70.3318 179.42 68.0198 178.384C65.9368 177.451 64.7318 174.714 65.6558 172.723C63.9978 175.046 60.1238 175.334 57.7968 173.523C55.2718 171.558 54.4738 167.978 55.0028 164.823C55.5318 161.668 57.1628 158.823 58.7648 156.054C55.6438 157.968 52.2168 159.955 48.5768 159.561C44.9368 159.166 41.5988 155.064 43.3898 151.871C40.0928 154.073 39.2698 160.012 42.0818 162.807C43.6588 164.375 49.2538 163.995 51.0288 162.656C48.9098 168.885 47.8248 176.826 52.5258 181.43C57.2268 186.034 64.6348 187.637 70.8178 185.389C69.8648 187.63 70.8488 190.512 72.9728 191.704C75.0968 192.895 78.0688 192.231 79.4848 190.25C80.6348 195.913 85.7648 200.527 91.5178 201.074C97.2708 201.62 103.177 198.054 105.373 192.709C107.075 198.102 111.568 202.529 116.985 204.152C122.402 205.775 128.589 204.548 132.976 200.98C139.598 195.595 141.338 186.363 142.64 177.928C144.696 182.045 148.052 186.079 152.622 186.617C157.192 187.155 162.046 182.015 159.731 178.038C163.526 181.641 169.433 183.322 174.187 181.136C178.941 178.95 181.457 172.36 178.506 168.039C181.771 170.621 187.216 168.38 188.536 164.432C189.856 160.484 187.687 155.97 184.256 153.612C189.129 157.029 196.662 153.676 198.668 148.072C200.674 142.468 199.318 137.071 194.945 133.033C199.526 129.906 203.3 125.255 204.311 119.8Z" fill="#699415"/>
<path d="M146.602 44.1431C146.484 44.4391 146.396 44.7451 146.37 45.0651C146.456 44.7611 146.528 44.4511 146.602 44.1431Z" fill="#9DBB1D"/>
<path d="M208.649 75.7138C206.374 69.2958 198.754 65.0697 192.284 67.1947C194.837 63.9137 196.772 59.5877 195.415 55.6587C194.058 51.7287 188.053 49.7317 185.609 53.0957C186.548 48.6267 183.833 43.6757 179.56 42.0647C175.287 40.4537 168.995 40.8868 166.751 44.8638C167.601 42.1628 168.293 39.2857 167.682 36.5207C167.072 33.7557 164.794 31.1707 161.963 31.0987C159.254 31.0297 157.022 33.1348 155.285 35.2148C155.771 29.0268 154.8 22.0698 150.029 18.0978C145.821 14.5948 139.456 14.4207 134.554 16.8617C129.653 19.3027 126.135 23.9768 124.109 29.0638C124.59 24.8558 120.343 20.4038 116.183 19.6128C112.023 18.8218 107.495 21.6628 106.399 25.7528C101.747 20.0738 93.4211 18.1557 86.3601 20.1637C79.2991 22.1717 75.3161 29.5687 73.7551 36.1377C71.7751 33.0287 65.4811 28.7747 60.2691 31.5907C57.0261 33.3437 55.6621 37.8557 57.2811 41.1667C51.5091 38.8407 44.4371 41.4248 40.7761 46.4568C37.1151 51.4888 36.6491 58.4158 38.7111 64.2868C34.4761 63.5078 29.8611 65.8237 27.9561 69.6847C26.0501 73.5457 27.0181 78.6177 30.2121 81.5047C27.6091 81.4577 25.1001 83.3818 24.4691 85.9078C23.8381 88.4338 27.5391 93.1498 29.8581 94.3318C23.4281 96.5228 16.2231 100.98 15.7921 107.759C15.3611 114.538 19.3391 121.392 25.4391 124.381C21.6881 125.409 18.9301 129.277 19.1811 133.158C19.4321 137.039 25.0901 139.842 28.9421 140.378C28.9421 140.378 20.2311 134.804 27.1611 128.741C34.0901 122.678 39.2871 121.811 39.2871 121.811C39.2871 121.811 24.5621 120.945 25.4281 107.952C26.2941 94.9588 41.0191 98.4237 41.0191 98.4237C41.0191 98.4237 29.7591 92.3608 31.4911 88.0298C33.2231 83.6988 41.8851 82.8327 41.8851 82.8327C41.8851 82.8327 33.2231 77.6357 34.9561 73.3047C36.6881 68.9737 47.0831 70.7057 47.0831 70.7057C46.4751 68.9527 45.7491 65.8407 45.1411 64.0877C44.3191 61.7167 43.6111 58.7618 45.3621 56.9648C46.5331 55.7628 48.4641 55.5927 50.0611 56.1067C51.6581 56.6207 53.0021 57.6987 54.3051 58.7547C54.1411 56.6147 53.9791 54.4348 54.4741 52.3468C54.9691 50.2588 56.2341 48.2387 58.2021 47.3827C60.2151 46.5067 62.6291 47.0077 64.4661 48.2077C66.3031 49.4087 67.6521 51.2208 68.8081 53.0868C69.4791 50.7448 69.8741 47.4068 71.5511 45.6388C72.5911 44.5428 74.3411 44.3918 75.7731 44.8728C77.2051 45.3538 78.3961 46.3508 79.5491 47.3268C80.0741 41.7588 79.2531 35.1327 83.5641 31.5677C86.2991 29.3067 90.4251 29.2468 93.5991 30.8338C96.7731 32.4208 99.0711 35.3998 100.547 38.6268C100.504 36.8088 100.999 34.9528 101.718 33.2828C102.437 31.6128 104.127 30.2148 105.931 30.4408C106.949 30.5688 107.842 31.1798 108.607 31.8638C110.7 33.7358 112.154 36.3088 112.679 39.0668C113.238 36.0698 116.387 33.8077 119.406 34.2337C122.425 34.6597 124.824 37.7058 124.531 40.7398C126.371 37.8648 128.514 35.1837 130.912 32.7547C132.743 30.8997 134.88 29.1158 137.46 28.7438C141.111 28.2168 144.705 30.8387 146.183 34.2187C147.534 37.3097 147.398 40.8447 146.602 44.1427C147.643 41.5427 151.928 39.9768 154.28 41.5318C156.899 43.2638 157.515 47.0858 156.285 49.9748C157.886 47.5958 161.734 47.1928 163.793 49.1888C165.853 51.1848 165.571 55.0427 163.243 56.7187C168.214 54.1297 174.973 51.7878 178.812 55.8708C182.318 59.5998 180.374 65.6257 178.245 70.2807C180.316 68.2857 184.062 68.4517 185.948 70.6217C187.835 72.7907 187.479 76.5238 185.216 78.2978C189.205 76.7248 194.347 76.6388 197.174 79.8628C199.222 82.1968 199.472 85.6957 198.593 88.6737C197.714 91.6517 195.872 94.2368 194.061 96.7588C198.905 95.4078 205.442 100.28 203.943 105.08C206.519 104.32 208.342 101.562 208.032 98.8938C207.722 96.2258 205.315 93.9597 202.634 93.8097C208.118 89.7707 210.924 82.1318 208.649 75.7138Z" fill="#9DBB1D"/>
</svg>
