<svg width="211" height="213" viewBox="0 0 211 213" fill="none" xmlns="http://www.w3.org/2000/svg">
<path d="M104.546 106.03L105.388 1.04614C133.195 1.26914 159.805 12.5311 179.324 32.3371C198.843 52.1431 209.715 78.9151 209.532 106.722L104.546 106.03Z" fill="#CADBE0"/>
<path d="M209.525 107.634L104.54 106.942C104.298 106.941 104.066 106.842 103.896 106.671C103.726 106.498 103.632 106.266 103.634 106.023L104.476 1.04001C104.478 0.797009 104.576 0.566004 104.749 0.397004C104.921 0.228004 105.154 0.133041 105.395 0.135041H105.396C133.244 0.358041 160.427 11.863 179.975 31.698C199.522 51.533 210.628 78.881 210.445 106.73C210.44 107.232 210.029 107.638 209.525 107.634ZM105.466 105.123L208.62 105.804C208.555 78.751 197.671 52.2551 178.674 32.9781C159.677 13.7011 133.342 2.43104 106.294 1.97104L105.466 105.123Z" fill="#939598"/>
<path d="M107.446 106.961C107.093 106.958 106.758 106.75 106.612 106.404C106.415 105.941 106.632 105.405 107.095 105.208L201.276 65.2439C201.74 65.0459 202.276 65.2649 202.473 65.7279C202.67 66.1909 202.454 66.7269 201.99 66.9239L107.809 106.888C107.69 106.939 107.567 106.962 107.446 106.961Z" fill="#939598"/>
<path d="M104.558 104.656C104.439 104.655 104.319 104.631 104.203 104.581C103.74 104.382 103.527 103.845 103.726 103.382L144.423 8.90292C144.622 8.44092 145.159 8.22689 145.622 8.42489C146.085 8.62489 146.299 9.16193 146.099 9.62393L105.402 104.103C105.253 104.451 104.914 104.658 104.558 104.656Z" fill="#939598"/>
<path d="M104.54 106.942C104.393 106.941 104.245 106.905 104.11 106.832C103.766 106.644 103.58 106.259 103.647 105.874L121.659 2.44695C121.746 1.95095 122.221 1.62194 122.715 1.70494C123.212 1.79094 123.544 2.26391 123.458 2.76091L105.909 103.529L181.034 34.1129C181.405 33.7699 181.983 33.7939 182.324 34.1639C182.666 34.5339 182.643 35.1109 182.273 35.4539L105.167 106.701C104.991 106.861 104.766 106.944 104.54 106.942Z" fill="#939598"/>
<path d="M104.711 105.962C104.473 105.961 104.236 105.866 104.061 105.685C103.761 105.374 103.719 104.896 103.962 104.537L162.376 18.399C162.659 17.982 163.226 17.874 163.644 18.156C164.061 18.439 164.17 19.006 163.887 19.424L107.925 101.946L192.441 48.601C192.868 48.331 193.431 48.459 193.7 48.886C193.969 49.312 193.842 49.876 193.415 50.144L105.205 105.821C105.052 105.917 104.881 105.964 104.711 105.962Z" fill="#939598"/>
<path d="M104.539 106.942C104.108 106.939 103.727 106.63 103.648 106.191C103.559 105.695 103.889 105.22 104.386 105.131L207.724 86.6239C208.217 86.5349 208.694 86.8649 208.783 87.3609C208.872 87.8569 208.542 88.3308 208.045 88.4198L104.707 106.928C104.651 106.938 104.595 106.943 104.539 106.942Z" fill="#939598"/>
<path d="M104.545 106.169L104.141 211.155C131.949 211.261 158.69 200.316 178.443 180.743C198.196 161.171 209.384 134.529 209.531 106.722L104.545 106.169Z" fill="#CADBE0"/>
<path d="M210.444 106.727C210.297 134.576 198.867 161.79 179.086 181.391C159.304 200.994 131.987 212.174 104.138 212.067H104.137C103.896 212.066 103.664 211.969 103.494 211.797C103.323 211.625 103.228 211.393 103.229 211.151L103.633 106.165C103.634 105.923 103.731 105.69 103.903 105.52C104.075 105.349 104.308 105.254 104.55 105.255L209.535 105.809C210.04 105.812 210.446 106.223 210.444 106.727ZM105.057 210.242C132.109 210.102 158.575 199.145 177.8 180.096C197.025 161.046 208.223 134.681 208.609 107.63L105.454 107.086L105.057 210.242Z" fill="#939598"/>
<path d="M107.456 105.271C107.102 105.269 106.766 105.473 106.615 105.817C106.413 106.278 106.623 106.817 107.084 107.019L200.784 148.098C201.246 148.302 201.784 148.089 201.986 147.628C202.188 147.167 201.978 146.629 201.517 146.426L107.817 105.347C107.7 105.295 107.577 105.271 107.456 105.271Z" fill="#939598"/>
<path d="M104.541 107.542C104.422 107.541 104.302 107.564 104.186 107.612C103.721 107.805 103.501 108.34 103.695 108.805L143.268 203.761C143.461 204.226 143.996 204.446 144.461 204.252C144.926 204.058 145.146 203.523 144.952 203.059L105.379 108.103C105.233 107.755 104.896 107.544 104.541 107.542Z" fill="#939598"/>
<path d="M104.55 105.255C104.403 105.254 104.255 105.289 104.119 105.362C103.773 105.545 103.582 105.927 103.645 106.314L120.428 209.947C120.509 210.444 120.98 210.779 121.475 210.702C121.972 210.621 122.31 210.152 122.23 209.655L105.878 108.685L180.173 178.988C180.54 179.335 181.118 179.318 181.463 178.953C181.81 178.587 181.794 178.009 181.427 177.662L105.173 105.506C105 105.342 104.776 105.256 104.55 105.255Z" fill="#939598"/>
<path d="M104.709 106.237C104.471 106.235 104.234 106.328 104.056 106.508C103.752 106.815 103.705 107.292 103.943 107.654L161.331 194.478C161.609 194.9 162.175 195.014 162.596 194.737C163.017 194.459 163.132 193.893 162.854 193.472L107.875 110.291L191.751 164.636C192.175 164.91 192.739 164.789 193.013 164.366C193.287 163.943 193.167 163.378 192.743 163.104L105.199 106.383C105.05 106.286 104.879 106.238 104.709 106.237Z" fill="#939598"/>
<path d="M104.549 105.255C104.118 105.253 103.733 105.557 103.649 105.996C103.554 106.491 103.879 106.969 104.374 107.063L207.485 126.795C207.976 126.89 208.458 126.566 208.552 126.07C208.646 125.574 208.323 125.097 207.827 125.003L104.716 105.271C104.66 105.26 104.604 105.255 104.549 105.255Z" fill="#939598"/>
<path d="M105.9 105.899L105.648 0.913086C77.8401 0.980086 51.1671 12.0921 31.5381 31.7881C11.9081 51.4841 0.886135 78.1941 0.913135 106.002L105.9 105.899Z" fill="#CADBE0"/>
<path d="M4.84498e-05 106.003C-0.0269516 78.154 11.2321 50.869 30.8911 31.144C50.5501 11.418 77.7971 0.067 105.646 0C105.888 0 106.12 0.0959912 106.292 0.265991C106.463 0.436991 106.56 0.669011 106.561 0.911011L106.813 105.898C106.814 106.14 106.718 106.374 106.547 106.545C106.376 106.717 106.144 106.814 105.901 106.814L0.91405 106.917C0.40905 106.915 0.00104845 106.506 4.84498e-05 106.003ZM104.737 1.83203C77.6861 2.14003 51.289 13.262 32.184 32.432C13.079 51.602 2.04606 78.036 1.82906 105.089L104.985 104.988L104.737 1.83203Z" fill="#939598"/>
<path d="M102.994 106.815C103.347 106.815 103.683 106.608 103.832 106.263C104.031 105.8 103.818 105.264 103.355 105.064L9.40102 64.5721C8.93802 64.3711 8.40101 64.5871 8.20101 65.0491C8.00201 65.5111 8.21503 66.048 8.67803 66.248L102.632 106.741C102.751 106.792 102.874 106.815 102.994 106.815Z" fill="#939598"/>
<path d="M105.895 104.525C106.014 104.525 106.134 104.502 106.25 104.453C106.714 104.256 106.931 103.721 106.734 103.257L66.5681 8.54997C66.3711 8.08597 65.8361 7.86996 65.3711 8.06596C64.9071 8.26296 64.6911 8.79899 64.8881 9.26299L105.053 103.97C105.202 104.317 105.54 104.525 105.895 104.525Z" fill="#939598"/>
<path d="M105.901 106.812C106.048 106.812 106.196 106.776 106.332 106.704C106.677 106.518 106.865 106.134 106.8 105.749L89.3691 2.22206C89.2861 1.72506 88.8121 1.39407 88.3181 1.47407C87.8211 1.55707 87.4861 2.02908 87.5691 2.52608L104.552 103.392L29.8191 33.5551C29.4501 33.2101 28.8721 33.2311 28.5291 33.5991C28.1851 33.9671 28.2041 34.5451 28.5731 34.8891L105.277 106.568C105.45 106.728 105.675 106.812 105.901 106.812Z" fill="#939598"/>
<path d="M105.736 105.832C105.975 105.832 106.211 105.738 106.388 105.558C106.69 105.249 106.734 104.771 106.494 104.412L48.564 17.9479C48.284 17.5289 47.717 17.4179 47.298 17.6979C46.879 17.9789 46.767 18.5449 47.048 18.9649L102.546 101.8L18.332 47.9809C17.907 47.7089 17.343 47.8339 17.072 48.2579C16.8 48.6819 16.924 49.2469 17.349 49.5179L105.245 105.69C105.395 105.785 105.566 105.832 105.736 105.832Z" fill="#939598"/>
<path d="M105.902 106.812C106.333 106.811 106.716 106.504 106.797 106.065C106.889 105.57 106.562 105.093 106.066 105.002L2.83407 85.9139C2.34207 85.8219 1.86206 86.149 1.77106 86.645C1.68006 87.14 2.00705 87.6169 2.50305 87.7079L105.735 106.795C105.79 106.807 105.846 106.812 105.902 106.812Z" fill="#939598"/>
<path d="M105.9 106.038L105.714 211.025C77.9061 210.975 51.2271 199.881 31.5851 180.197C11.9421 160.512 0.903093 133.809 0.913093 106.002L105.9 106.038Z" fill="#CADBE0"/>
<path d="M0.913001 105.089L105.9 105.125C106.143 105.125 106.375 105.221 106.546 105.393C106.717 105.565 106.813 105.797 106.813 106.039L106.627 211.026C106.627 211.268 106.53 211.5 106.358 211.671C106.187 211.842 105.955 211.938 105.714 211.938H105.713C77.863 211.888 50.61 200.554 30.938 180.841C11.267 161.128 -0.00999335 133.851 6.64505e-06 106.001C6.64505e-06 105.498 0.409001 105.089 0.913001 105.089ZM104.986 106.95L1.83002 106.915C2.06402 133.967 13.114 160.394 32.231 179.553C51.349 198.71 77.753 209.816 104.804 210.108L104.986 106.95Z" fill="#939598"/>
<path d="M102.994 105.125C103.348 105.125 103.683 105.331 103.832 105.676C104.032 106.138 103.818 106.675 103.356 106.875L9.42708 147.427C8.96408 147.628 8.42707 147.413 8.22707 146.95C8.02707 146.488 8.24109 145.951 8.70409 145.751L102.633 105.199C102.75 105.148 102.873 105.125 102.994 105.125Z" fill="#939598"/>
<path d="M105.896 107.413C106.015 107.413 106.135 107.436 106.252 107.484C106.716 107.681 106.933 108.216 106.736 108.68L66.6309 203.412C66.4349 203.876 65.8999 204.093 65.4349 203.897C64.9709 203.7 64.7539 203.165 64.9509 202.701L105.057 107.969C105.203 107.621 105.541 107.412 105.896 107.413Z" fill="#939598"/>
<path d="M105.901 105.125C106.048 105.125 106.196 105.16 106.332 105.233C106.677 105.418 106.865 105.802 106.801 106.187L89.436 209.725C89.353 210.221 88.8789 210.553 88.3849 210.474C87.8879 210.39 87.553 209.919 87.636 209.422L104.555 108.546L29.8659 178.43C29.4969 178.775 28.919 178.755 28.576 178.387C28.231 178.02 28.25 177.442 28.618 177.098L105.277 105.37C105.45 105.209 105.674 105.125 105.901 105.125Z" fill="#939598"/>
<path d="M105.736 106.106C105.975 106.106 106.211 106.199 106.388 106.379C106.691 106.688 106.735 107.166 106.495 107.525L48.62 194.026C48.34 194.446 47.7729 194.557 47.3539 194.277C46.9349 193.997 46.8229 193.43 47.1029 193.01L102.548 110.141L18.3669 164.013C17.9419 164.285 17.3779 164.16 17.1059 163.736C16.8349 163.312 16.958 162.748 17.383 162.476L105.244 106.248C105.395 106.153 105.566 106.106 105.736 106.106Z" fill="#939598"/>
<path d="M105.902 105.125C106.333 105.125 106.716 105.432 106.798 105.871C106.89 106.366 106.563 106.843 106.067 106.935L2.84707 126.087C2.35507 126.179 1.87505 125.853 1.78405 125.357C1.69205 124.862 2.01907 124.385 2.51507 124.294L105.735 105.141C105.79 105.13 105.846 105.125 105.902 105.125Z" fill="#939598"/>
<path d="M194.08 106.826C193.757 155.755 153.831 195.157 104.903 194.835C55.975 194.512 16.572 154.586 16.895 105.658C17.217 56.7299 57.1431 17.3269 106.071 17.6499C155.001 17.9719 194.403 57.8979 194.08 106.826Z" fill="#B59686"/>
<path d="M106.419 196.205C106.216 196.205 106.015 196.204 105.812 196.203C56.458 195.878 16.571 155.461 16.897 106.108C17.055 82.2 26.513 59.7839 43.53 42.9899C60.547 26.1959 83.111 17.034 106.992 17.192C130.9 17.35 153.315 26.8079 170.109 43.8249C186.902 60.8419 196.065 83.3799 195.907 107.287C195.749 131.195 186.291 153.61 169.274 170.404C152.402 187.056 130.101 196.205 106.419 196.205ZM106.386 19.0159C83.186 19.0159 61.342 27.9769 44.812 44.2899C28.142 60.7409 18.877 82.6999 18.722 106.12C18.568 129.54 27.543 151.618 43.994 168.288C60.445 184.958 82.404 194.224 105.824 194.378C129.233 194.554 151.323 185.558 167.992 169.106C184.662 152.656 193.928 130.697 194.082 107.277C194.236 83.8569 185.261 61.7789 168.81 45.1089C152.359 28.4389 130.4 19.1729 106.98 19.0189C106.783 19.0159 106.583 19.0159 106.386 19.0159Z" fill="#939598"/>
<path d="M88.5131 10.6941C102.768 16.1531 113.674 29.5571 116.119 44.6251C123.938 34.9291 133.833 26.9151 144.944 21.2841C146.276 20.6091 147.928 19.9791 149.183 20.7881C150.407 21.5781 150.544 23.282 150.553 24.738C150.576 28.622 150.599 32.5071 150.622 36.3901C156.749 35.6881 162.992 36.0171 169.01 37.3591C170.095 37.6011 171.242 37.9171 171.975 38.7521C174.131 41.2101 170.9 45.198 172.102 48.238C178.673 49.733 186.658 52.7711 187.163 59.4911C187.285 61.1101 186.91 62.7251 186.874 64.3481C186.757 69.7321 190.308 74.499 191.288 79.795C193.15 89.852 185.664 99.027 178.522 106.347C187.163 108.392 195.457 111.894 202.95 116.66C203.463 121.776 198.804 126.012 194.014 127.882C189.224 129.752 183.899 130.233 179.411 132.741C182.361 138.727 185.041 144.847 187.442 151.075C187.924 152.325 188.403 153.644 188.224 154.972C187.453 160.697 177.369 159.282 174.63 164.368C173.504 166.458 174.014 169.04 173.429 171.341C172.707 174.179 170.415 176.304 168.232 178.255C164.391 181.688 160.55 185.121 156.71 188.554C154.961 190.117 153.109 191.736 150.824 192.264C147.087 193.128 143.41 190.881 140.231 188.737C134.336 184.759 128.442 180.783 122.547 176.805C116.962 186.654 109.683 195.538 101.126 202.951C99.496 204.363 97.352 205.809 95.346 205.017C94.2 204.565 93.443 203.483 92.799 202.433C87.34 193.546 85.0541 182.754 86.4401 172.416C74.9531 177.239 63.179 181.378 51.2 184.804C48.633 177.979 49.292 170.018 52.945 163.707C46.652 164.981 40.136 165.145 33.787 164.187C31.143 163.788 28.283 163.041 26.735 160.862C24.667 157.95 25.861 153.914 27.384 150.683C32.258 140.351 39.8841 131.331 49.2631 124.808C37.9661 121.301 26.845 117.23 15.955 112.613C11.238 110.614 5.89204 107.63 5.39404 102.531C11.126 100.982 16.859 99.4341 22.592 97.8851C23.392 97.6691 24.29 97.373 24.634 96.618C25.049 95.706 24.424 94.6831 23.821 93.8821C19.974 88.7701 15.865 83.854 11.515 79.162C15.797 78.791 21.251 77.32 21.601 73.037C21.843 70.087 19.4801 66.4671 21.7451 64.5601C22.5461 63.8861 23.664 63.7741 24.708 63.6921C29.17 63.3401 33.6321 62.988 38.0941 62.636C34.3851 55.771 34.06 47.1781 37.239 40.0521C44.117 40.8791 50.923 42.3161 57.549 44.3401C57.051 39.5691 56.8541 34.7671 56.9611 29.9711C56.9831 28.9821 57.057 27.8961 57.742 27.1821C58.468 26.4251 59.635 26.3421 60.683 26.3741C67.622 26.5851 73.002 30.0071 78.243 34.1411C83.01 27.5691 82.4251 17.7651 88.5131 10.6941Z" fill="#78A015"/>
<path d="M91.879 82.8901C90.298 77.7811 92.864 72.3961 95.456 67.7191C101.788 56.2911 108.722 45.1961 116.219 34.4951C119.333 48.2321 122.447 61.9702 125.561 75.7072C132.558 59.8702 146.811 47.4131 163.442 42.5991C161.399 54.7981 157.279 66.6461 151.314 77.4811C166.197 81.9461 179.943 90.1501 190.937 101.133C175.73 106.796 160.019 111.105 144.05 113.989C155.368 123.285 166.687 132.581 178.005 141.877C161.33 144.027 144.655 146.177 127.981 148.327C127.925 161.928 125.424 175.515 120.634 188.245C114.366 180.901 109.454 172.404 106.22 163.307C105.589 161.531 104.898 159.577 103.267 158.632C101.957 157.874 100.342 157.958 98.8329 158.082C80.2039 159.612 61.805 163.915 44.43 170.806C50.041 164.293 55.653 157.781 61.265 151.267C50.708 147.982 40.151 144.698 29.595 141.413C39.012 129.398 50.261 119.495 60.496 108.384C41.388 94.0231 30.288 82.2151 29.666 56.6731C40.924 54.4051 54.207 57.6151 64.612 62.1371C72.344 65.4961 89.142 74.0421 91.879 82.8901Z" fill="#94D31A"/>
<path d="M85.0801 67.153C86.8391 56.051 90.9662 45.331 97.1052 35.916C106.98 52.194 117.249 70.754 112.709 89.245C116.924 69.081 124.435 47.113 142.715 37.616C139.94 48.275 137.164 58.934 134.388 69.594C148.039 65.839 163.257 68.227 175.102 75.982C165.976 88.587 152.366 97.874 137.302 101.779C147.985 103.975 158.341 107.755 167.927 112.957C162.157 114.771 156.386 116.585 150.616 118.399C155.524 124.733 160.484 131.154 163.667 138.507C166.851 145.861 168.118 154.37 165.419 161.915C146.273 163.946 126.355 156.632 113.072 142.695C113.932 155.783 112.402 169.024 108.579 181.572C103.764 173.693 100.742 164.726 99.8052 155.54C91.5732 164.952 79.1242 170.528 66.6202 170.404C68.8862 158.253 74.9622 146.84 83.7792 138.177C74.1822 141.687 64.5842 145.196 54.9872 148.704C57.6292 138.174 64.9912 128.923 74.6592 123.984C56.8002 121.704 40.2382 110.821 31.0562 95.335C43.0282 88.852 57.7412 87.649 70.6052 92.105C66.8412 87.775 63.0781 83.444 59.3141 79.113C59.7181 79.578 71.0212 79.186 72.8452 79.709C77.2752 80.981 81.0401 84.059 84.9261 85.605C86.7041 80.563 84.1671 72.919 85.0801 67.153Z" fill="#7EBB15"/>
<path d="M63.8972 50.436C62.2692 49.957 60.1342 50.823 59.9372 52.509C59.7842 53.818 60.7892 54.947 61.7212 55.879C59.8782 56.62 58.3662 58.145 57.6392 59.993C57.4402 60.499 57.2972 61.049 57.3932 61.584C57.6022 62.745 58.8462 63.426 60.0082 63.628C61.1712 63.83 62.3922 63.729 63.5042 64.122C62.7852 65.339 62.0532 66.591 61.8222 67.985C61.5922 69.379 61.9742 70.967 63.1212 71.793C64.6582 72.899 66.7942 72.252 68.5352 71.504C68.6362 73.906 70.6182 76.093 72.9992 76.43C75.3802 76.766 77.8912 75.215 78.6542 72.934C82.2772 73.725 86.2752 70.976 86.8352 67.311C87.0572 65.859 86.6142 64.104 85.2542 63.55C87.2142 62.771 88.4872 60.55 88.1682 58.465C87.8492 56.381 85.9701 54.641 83.8671 54.483C85.3571 52.826 85.1842 49.953 83.5051 48.487C81.8261 47.022 78.9562 47.237 77.5162 48.937C77.5962 47.261 76.0692 45.685 74.3912 45.71C72.7142 45.736 71.2362 47.358 71.3672 49.031C71.2772 47.885 69.0602 48.089 68.4442 48.346C67.0942 48.91 66.6982 50.416 66.4592 51.711C65.6872 51.345 64.7952 50.7 63.8972 50.436Z" fill="#D3CD0D"/>
<path d="M35.1391 142.146C33.5111 141.666 31.3761 142.533 31.1791 144.219C31.0261 145.528 32.0311 146.657 32.9631 147.589C31.1201 148.33 29.6081 149.855 28.8811 151.703C28.6821 152.209 28.5391 152.759 28.6351 153.294C28.8441 154.455 30.0881 155.137 31.2501 155.338C32.4131 155.54 33.6341 155.439 34.7461 155.832C34.0271 157.049 33.2951 158.302 33.0641 159.695C32.8341 161.09 33.2161 162.678 34.3631 163.503C35.9001 164.609 38.0361 163.963 39.7771 163.215C39.8791 165.617 41.8601 167.804 44.2411 168.141C46.6221 168.477 49.1331 166.925 49.8961 164.645C53.5191 165.436 57.5171 162.688 58.0771 159.022C58.2991 157.571 57.8561 155.816 56.4961 155.261C58.4561 154.482 59.7291 152.26 59.4101 150.175C59.0911 148.091 57.2121 146.352 55.1091 146.194C56.5991 144.538 56.4261 141.665 54.7471 140.199C53.0691 138.733 50.1981 138.949 48.7581 140.649C48.8381 138.973 47.3111 137.396 45.6331 137.422C43.9561 137.447 42.4781 139.07 42.6091 140.742C42.5201 139.597 40.3031 139.8 39.6861 140.057C38.3361 140.622 37.9401 142.127 37.7011 143.422C36.9281 143.055 36.0361 142.41 35.1391 142.146Z" fill="#D3CD0D"/>
<path d="M103.565 127.212C101.937 126.733 99.8021 127.599 99.6061 129.285C99.4531 130.594 100.458 131.723 101.389 132.655C99.5461 133.395 98.0341 134.92 97.3071 136.768C97.1081 137.274 96.9651 137.825 97.0611 138.359C97.2701 139.52 98.5141 140.202 99.6761 140.404C100.839 140.606 102.06 140.505 103.172 140.898C102.453 142.115 101.72 143.367 101.49 144.761C101.26 146.156 101.642 147.744 102.788 148.569C104.326 149.675 106.462 149.029 108.202 148.28C108.303 150.682 110.285 152.87 112.666 153.207C115.047 153.543 117.557 151.991 118.321 149.711C121.943 150.502 125.942 147.754 126.502 144.088C126.724 142.637 126.281 140.881 124.921 140.327C126.88 139.548 128.153 137.326 127.835 135.241C127.517 133.156 125.637 131.417 123.534 131.26C125.024 129.603 124.851 126.73 123.172 125.265C121.493 123.799 118.623 124.015 117.182 125.715C117.262 124.039 115.735 122.462 114.058 122.488C112.381 122.513 110.903 124.135 111.034 125.808C110.944 124.662 108.727 124.866 108.111 125.123C106.761 125.687 106.365 127.192 106.126 128.488C105.355 128.122 104.463 127.476 103.565 127.212Z" fill="#D3CD0D"/>
<path d="M109.572 81.5071C107.944 81.0281 105.809 81.8941 105.613 83.5801C105.46 84.8891 106.465 86.0181 107.397 86.9501C105.554 87.6911 104.042 89.2161 103.316 91.0641C103.117 91.5701 102.973 92.1201 103.07 92.6551C103.279 93.8161 104.523 94.498 105.685 94.699C106.847 94.901 108.069 94.8 109.181 95.193C108.462 96.41 107.729 97.6631 107.499 99.0561C107.269 100.451 107.651 102.038 108.798 102.864C110.336 103.97 112.471 103.324 114.212 102.576C114.314 104.978 116.295 107.165 118.676 107.502C121.057 107.838 123.568 106.286 124.331 104.006C127.954 104.797 131.952 102.049 132.512 98.383C132.734 96.932 132.291 95.1771 130.932 94.6221C132.892 93.8431 134.165 91.6211 133.845 89.5361C133.526 87.4521 131.647 85.7121 129.544 85.5541C131.034 83.8971 130.861 81.0241 129.182 79.5591C127.504 78.0931 124.633 78.309 123.193 80.009C123.273 78.333 121.746 76.757 120.069 76.782C118.392 76.808 116.914 78.4301 117.045 80.1031C116.956 78.9581 114.739 79.1611 114.122 79.4181C112.772 79.9831 112.376 81.4881 112.137 82.7831C111.361 82.4171 110.469 81.7711 109.572 81.5071Z" fill="#D3CD0D"/>
<path d="M169.121 101.112C167.493 100.633 165.358 101.5 165.162 103.185C165.009 104.495 166.014 105.623 166.946 106.556C165.103 107.296 163.591 108.821 162.864 110.669C162.665 111.175 162.522 111.725 162.618 112.26C162.827 113.421 164.071 114.103 165.233 114.305C166.396 114.507 167.617 114.406 168.729 114.799C168.01 116.016 167.277 117.268 167.047 118.662C166.816 120.056 167.198 121.644 168.345 122.47C169.883 123.576 172.018 122.929 173.759 122.181C173.861 124.583 175.842 126.771 178.223 127.107C180.604 127.444 183.115 125.892 183.878 123.612C187.5 124.403 191.499 121.654 192.059 117.989C192.28 116.538 191.838 114.782 190.478 114.227C192.437 113.449 193.71 111.227 193.392 109.142C193.073 107.057 191.194 105.318 189.091 105.161C190.581 103.504 190.407 100.631 188.729 99.165C187.051 97.7 184.18 97.916 182.74 99.615C182.82 97.94 181.293 96.363 179.616 96.388C177.938 96.414 176.461 98.036 176.592 99.709C176.503 98.564 174.286 98.767 173.67 99.024C172.319 99.589 171.924 101.093 171.684 102.389C170.91 102.022 170.019 101.377 169.121 101.112Z" fill="#D3CD0D"/>
<path d="M160.252 54.902C158.624 54.423 156.489 55.289 156.292 56.975C156.14 58.284 157.144 59.4131 158.076 60.3451C156.233 61.0861 154.72 62.611 153.994 64.459C153.795 64.965 153.652 65.515 153.748 66.05C153.958 67.211 155.201 67.893 156.363 68.094C157.526 68.296 158.747 68.1941 159.859 68.5881C159.14 69.8041 158.407 71.057 158.177 72.451C157.947 73.845 158.329 75.433 159.475 76.259C161.013 77.365 163.149 76.7181 164.889 75.9701C164.991 78.3721 166.973 80.559 169.353 80.896C171.734 81.232 174.245 79.6811 175.008 77.4001C178.631 78.1911 182.629 75.442 183.189 71.777C183.411 70.325 182.968 68.57 181.608 68.016C183.567 67.237 184.84 65.0151 184.522 62.9311C184.203 60.8471 182.324 59.107 180.221 58.949C181.711 57.292 181.537 54.4191 179.859 52.9531C178.18 51.4871 175.31 51.7031 173.869 53.4031C173.949 51.7271 172.422 50.1511 170.745 50.1761C169.068 50.2011 167.59 51.8241 167.721 53.4971C167.631 52.3511 165.414 52.5551 164.798 52.8121C163.448 53.3761 163.052 54.8821 162.813 56.1771C162.042 55.8121 161.15 55.166 160.252 54.902Z" fill="#D3CD0D"/>
</svg>
