<svg width="216" height="216" viewBox="0 0 216 216" fill="none" xmlns="http://www.w3.org/2000/svg">
<path d="M106.703 107.356L106.845 7.67261C133.247 7.71061 158.583 18.2366 177.239 36.9186C195.895 55.6016 206.385 80.9516 206.385 107.355L106.703 107.356Z" fill="#CADBE0"/>
<path d="M206.386 108.222H106.704C106.474 108.222 106.253 108.13 106.091 107.967C105.928 107.805 105.838 107.584 105.838 107.354L105.98 7.67163C105.981 7.44163 106.072 7.22165 106.235 7.05865C106.398 6.89665 106.617 6.80566 106.847 6.80566C133.289 6.84366 159.171 17.5966 177.854 36.3066C196.538 55.0156 207.253 80.9126 207.253 107.354C207.252 107.834 206.865 108.222 206.386 108.222ZM107.571 106.489H205.515C205.284 80.8036 194.785 55.7156 176.626 37.5316C158.468 19.3476 133.395 8.81262 107.711 8.54462L107.571 106.489Z" fill="#939598"/>
<path d="M109.463 108.222C109.127 108.222 108.808 108.026 108.667 107.699C108.477 107.26 108.679 106.751 109.119 106.56L198.288 68.0258C198.728 67.8348 199.237 68.0388 199.427 68.4778C199.617 68.9168 199.415 69.4268 198.975 69.6168L109.806 108.15C109.694 108.2 109.578 108.222 109.463 108.222Z" fill="#939598"/>
<path d="M106.706 106.051C106.593 106.051 106.479 106.03 106.369 105.983C105.928 105.796 105.722 105.289 105.909 104.847L143.957 14.8888C144.143 14.4488 144.651 14.2428 145.092 14.4278C145.533 14.6148 145.739 15.1227 145.553 15.5627L107.505 105.521C107.365 105.852 107.044 106.051 106.706 106.051Z" fill="#939598"/>
<path d="M106.703 108.222C106.563 108.222 106.423 108.188 106.294 108.12C105.966 107.944 105.787 107.579 105.848 107.213L122.303 8.90175C122.382 8.42975 122.831 8.11475 123.3 8.19075C123.772 8.26975 124.091 8.71673 124.012 9.18873L107.981 104.973L178.873 38.5957C179.223 38.2677 179.772 38.2867 180.098 38.6357C180.425 38.9847 180.407 39.5337 180.058 39.8607L107.296 107.989C107.131 108.142 106.918 108.222 106.703 108.222Z" fill="#939598"/>
<path d="M106.859 107.292C106.632 107.292 106.408 107.203 106.24 107.031C105.953 106.738 105.91 106.284 106.138 105.943L161.06 23.7937C161.326 23.3957 161.864 23.2897 162.262 23.5557C162.66 23.8217 162.767 24.3597 162.501 24.7577L109.884 103.458L189.793 52.2807C190.197 52.0217 190.732 52.1397 190.99 52.5427C191.248 52.9457 191.131 53.4807 190.728 53.7397L107.325 107.155C107.183 107.247 107.02 107.292 106.859 107.292Z" fill="#939598"/>
<path d="M106.702 108.222C106.293 108.222 105.929 107.931 105.851 107.514C105.764 107.043 106.074 106.591 106.545 106.503L204.544 88.2836C205.011 88.1966 205.466 88.5076 205.554 88.9766C205.641 89.4476 205.331 89.8997 204.86 89.9877L106.862 108.207C106.809 108.218 106.755 108.222 106.702 108.222Z" fill="#939598"/>
<path d="M106.703 107.487L106.976 207.169C133.378 207.097 158.7 196.537 177.331 177.83C195.963 159.123 206.419 133.759 206.384 107.355L106.703 107.487Z" fill="#CADBE0"/>
<path d="M207.252 107.354C207.287 133.796 196.605 159.707 177.946 178.441C159.287 197.176 133.421 207.962 106.979 208.036H106.978C106.748 208.036 106.528 207.945 106.365 207.784C106.202 207.622 106.11 207.402 106.11 207.172L105.836 107.489C105.835 107.26 105.926 107.039 106.088 106.876C106.251 106.713 106.471 106.621 106.701 106.621L206.384 106.489C206.863 106.488 207.251 106.876 207.252 107.354ZM107.841 206.297C133.525 205.995 158.585 195.427 176.718 177.219C194.852 159.012 205.319 133.909 205.516 108.224L107.572 108.353L107.841 206.297Z" fill="#939598"/>
<path d="M109.462 106.617C109.127 106.617 108.808 106.813 108.667 107.141C108.478 107.579 108.681 108.089 109.12 108.279L198.34 146.695C198.78 146.885 199.29 146.681 199.479 146.242C199.668 145.803 199.465 145.293 199.026 145.103L109.806 106.687C109.693 106.639 109.576 106.617 109.462 106.617Z" fill="#939598"/>
<path d="M106.708 108.792C106.596 108.792 106.481 108.814 106.371 108.861C105.931 109.048 105.726 109.556 105.913 109.997L144.079 199.905C144.266 200.345 144.774 200.551 145.215 200.365C145.655 200.177 145.861 199.669 145.674 199.228L107.507 109.32C107.367 108.99 107.046 108.792 106.708 108.792Z" fill="#939598"/>
<path d="M106.702 106.621C106.562 106.621 106.422 106.655 106.293 106.723C105.965 106.899 105.787 107.265 105.849 107.63L122.432 205.92C122.512 206.392 122.962 206.706 123.431 206.63C123.903 206.551 124.221 206.104 124.141 205.631L107.983 109.867L178.963 176.151C179.314 176.478 179.862 176.458 180.188 176.109C180.515 175.759 180.496 175.212 180.146 174.884L107.294 106.853C107.13 106.7 106.917 106.62 106.702 106.621Z" fill="#939598"/>
<path d="M106.859 107.552C106.632 107.552 106.408 107.641 106.24 107.813C105.953 108.106 105.911 108.56 106.14 108.901L161.171 190.978C161.437 191.375 161.976 191.481 162.373 191.215C162.77 190.947 162.877 190.41 162.61 190.012L109.89 111.381L189.867 162.453C190.271 162.711 190.806 162.593 191.064 162.189C191.322 161.785 191.204 161.25 190.8 160.993L107.327 107.688C107.183 107.596 107.02 107.552 106.859 107.552Z" fill="#939598"/>
<path d="M106.701 106.621C106.292 106.621 105.928 106.913 105.851 107.33C105.764 107.801 106.075 108.253 106.546 108.34L204.568 126.429C205.035 126.516 205.49 126.204 205.577 125.735C205.664 125.264 205.353 124.812 204.882 124.725L106.86 106.636C106.807 106.625 106.754 106.621 106.701 106.621Z" fill="#939598"/>
<path d="M107.988 107.223L107.091 7.54468C80.6898 7.78268 55.4348 18.4997 36.9208 37.3237C18.4058 56.1467 8.10877 81.5757 8.30877 107.978L107.988 107.223Z" fill="#CADBE0"/>
<path d="M7.44177 107.985C7.24177 81.5428 17.7608 55.5667 36.3028 36.7157C54.8438 17.8637 80.6428 6.91577 107.084 6.67777H107.085C107.314 6.67577 107.535 6.76575 107.699 6.92575C107.863 7.08775 107.956 7.30671 107.958 7.53671L108.854 107.215C108.856 107.445 108.767 107.667 108.605 107.83C108.444 107.994 108.224 108.088 107.994 108.089L8.31377 108.844C7.83577 108.848 7.44577 108.463 7.44177 107.985ZM106.232 8.42374C80.5508 8.88574 55.5578 19.6107 37.5378 37.9317C19.5178 56.2517 9.20777 81.4197 9.17177 107.106L107.113 106.365L106.232 8.42374Z" fill="#939598"/>
<path d="M105.235 108.111C105.57 108.108 105.888 107.91 106.027 107.582C106.214 107.142 106.007 106.634 105.567 106.446L16.1078 68.5888C15.6668 68.4008 15.1588 68.6088 14.9718 69.0498C14.7858 69.4898 14.9918 69.9989 15.4318 70.1859L104.891 108.043C105.004 108.091 105.12 108.112 105.235 108.111Z" fill="#939598"/>
<path d="M107.975 105.919C108.087 105.918 108.202 105.896 108.311 105.849C108.75 105.659 108.953 105.149 108.763 104.709L70.0348 15.0409C69.8458 14.6009 69.3358 14.3998 68.8958 14.5888C68.4568 14.7788 68.2538 15.2889 68.4438 15.7279L107.173 105.396C107.315 105.725 107.638 105.922 107.975 105.919Z" fill="#939598"/>
<path d="M107.995 108.09C108.135 108.089 108.275 108.055 108.403 107.985C108.729 107.807 108.905 107.441 108.841 107.076L91.6427 8.89076C91.5597 8.41976 91.1077 8.10778 90.6397 8.18678C90.1687 8.26978 89.8527 8.71877 89.9357 9.18977L106.692 104.851L35.2987 39.0118C34.9457 38.6868 34.3977 38.7098 34.0737 39.0608C33.7497 39.4128 33.7717 39.9608 34.1237 40.2858L107.399 107.861C107.566 108.013 107.78 108.092 107.995 108.09Z" fill="#939598"/>
<path d="M107.831 107.161C108.058 107.159 108.281 107.068 108.448 106.895C108.733 106.6 108.772 106.146 108.541 105.806L52.9989 24.0747C52.7299 23.6787 52.1909 23.5767 51.7949 23.8457C51.3989 24.1157 51.2959 24.6537 51.5649 25.0497L104.776 103.35L24.4819 52.7787C24.0769 52.5227 23.5419 52.6447 23.2869 53.0497C23.0319 53.4537 23.1529 53.9887 23.5579 54.2437L107.363 107.026C107.508 107.118 107.67 107.162 107.831 107.161Z" fill="#939598"/>
<path d="M107.995 108.09C108.404 108.087 108.766 107.793 108.841 107.376C108.924 106.905 108.611 106.455 108.139 106.371L10.0057 88.8938C9.53769 88.8098 9.08469 89.1228 9.00069 89.5948C8.91669 90.0658 9.22969 90.5158 9.70169 90.5998L107.836 108.077C107.889 108.087 107.943 108.091 107.995 108.09Z" fill="#939598"/>
<path d="M107.989 107.355L108.47 207.036C82.0676 207.164 56.6666 196.796 37.8936 178.23C19.1206 159.664 8.47262 134.38 8.30762 107.978L107.989 107.355Z" fill="#CADBE0"/>
<path d="M8.30267 107.112L107.983 106.489C108.213 106.487 108.435 106.577 108.598 106.739C108.761 106.901 108.854 107.121 108.855 107.35L109.336 207.032C109.337 207.262 109.247 207.483 109.085 207.646C108.924 207.809 108.704 207.901 108.475 207.903H108.474C82.0327 208.03 56.0847 197.439 37.2847 178.846C18.4847 160.253 7.60667 134.425 7.44167 107.983C7.43867 107.505 7.82467 107.115 8.30267 107.112ZM107.127 108.227L9.18467 108.839C9.57667 134.521 20.2327 159.544 38.5037 177.614C56.7747 195.683 81.9137 206.062 107.599 206.17L107.127 108.227Z" fill="#939598"/>
<path d="M105.224 106.506C105.559 106.504 105.88 106.697 106.023 107.025C106.215 107.463 106.017 107.973 105.579 108.167L16.6518 147.257C16.2128 147.451 15.7018 147.25 15.5098 146.813C15.3168 146.375 15.5158 145.864 15.9538 145.67L104.881 106.58C104.993 106.53 105.11 106.507 105.224 106.506Z" fill="#939598"/>
<path d="M107.994 108.66C108.106 108.659 108.221 108.681 108.331 108.726C108.773 108.91 108.982 109.417 108.799 109.859L71.3136 200.053C71.1296 200.494 70.6236 200.704 70.1806 200.521C69.7386 200.337 69.5296 199.83 69.7136 199.388L107.199 109.194C107.337 108.863 107.657 108.662 107.994 108.66Z" fill="#939598"/>
<path d="M107.984 106.489C108.124 106.488 108.264 106.52 108.394 106.589C108.723 106.763 108.904 107.126 108.845 107.493L93.0056 205.905C92.9296 206.377 92.4827 206.695 92.0126 206.623C91.5396 206.547 91.2186 206.101 91.2946 205.629L106.727 109.746L36.2506 176.565C35.9026 176.895 35.3537 176.879 35.0257 176.533C34.6967 176.185 34.7116 175.637 35.0586 175.307L107.394 106.726C107.556 106.571 107.768 106.49 107.984 106.489Z" fill="#939598"/>
<path d="M107.833 107.421C108.06 107.419 108.285 107.507 108.454 107.677C108.743 107.968 108.788 108.422 108.562 108.765L54.1538 191.255C53.8908 191.655 53.3528 191.765 52.9528 191.502C52.5538 191.237 52.4428 190.7 52.7068 190.301L104.83 111.273L25.2418 162.95C24.8398 163.211 24.3038 163.096 24.0428 162.695C23.7828 162.294 23.8968 161.756 24.2978 161.497L107.365 107.561C107.51 107.468 107.672 107.422 107.833 107.421Z" fill="#939598"/>
<path d="M107.985 106.489C108.394 106.486 108.76 106.775 108.84 107.191C108.93 107.661 108.623 108.116 108.153 108.206L10.2697 127.037C9.80267 127.127 9.34567 126.819 9.25467 126.349C9.16467 125.879 9.47167 125.425 9.94267 125.334L107.826 106.504C107.879 106.494 107.932 106.489 107.985 106.489Z" fill="#939598"/>
<path d="M186.75 135.959C202.429 92.2294 179.689 44.0691 135.959 28.3898C92.2292 12.7105 44.0686 35.4498 28.3895 79.1793C12.7104 122.909 35.4503 171.069 79.1803 186.748C122.91 202.428 171.071 179.689 186.75 135.959Z" fill="#B59686"/>
<path d="M108.47 192.963C61.6098 192.963 23.4858 154.839 23.4858 107.979C23.4858 61.1189 61.6098 22.9949 108.47 22.9949C155.33 22.9949 193.454 61.1189 193.454 107.979C193.454 154.839 155.33 192.963 108.47 192.963ZM108.47 24.7269C62.5648 24.7269 25.2188 62.0728 25.2188 107.978C25.2188 153.883 62.5648 191.229 108.47 191.229C154.375 191.229 191.721 153.883 191.721 107.978C191.721 62.0728 154.375 24.7269 108.47 24.7269Z" fill="#939598"/>
<path d="M78.7117 43.3468C69.2967 42.8558 59.7207 46.6618 54.1627 53.1048C52.7217 54.7758 51.5007 56.7348 51.6477 58.7998C51.7947 60.8638 53.7707 62.9368 56.2147 62.8528C49.7037 66.6578 42.9067 70.7398 39.5357 76.7938C36.1647 82.8478 37.7837 91.4358 44.9697 94.2418C40.7687 97.4778 36.5107 100.771 33.5227 104.858C30.5347 108.945 28.9297 114.004 30.5057 118.62C32.0817 123.236 37.4267 127.058 43.0817 126.573C40.1617 130.715 37.4607 135.093 36.5907 139.858C35.7207 144.623 36.9457 149.883 40.9837 153.29C45.0217 156.695 52.1627 157.551 56.4857 154.406C58.7177 161.992 65.2707 168.581 73.7277 171.743C82.1847 174.904 92.3597 174.569 100.5 170.86C108.429 177.415 121.214 179.346 131.337 175.517C136.543 173.548 141.435 169.122 140.049 164.445C146.515 165.076 153.271 163.029 157.793 159.071C162.314 155.113 164.497 149.334 163.526 143.893C172.585 142.65 180.21 135.966 181.35 128.268C181.974 124.06 180.328 119.18 175.831 117.299C183.221 118.876 190.053 111.636 188.921 105.264C187.788 98.8928 181.373 94.0898 174.591 91.1498C180.501 89.4278 181.527 82.0798 177.883 77.7868C174.238 73.4948 167.841 71.6378 161.783 70.3378C165.813 66.0868 163.112 59.5348 158.553 55.6838C153.203 51.1638 145.531 48.6818 137.979 49.0248C139.795 47.0428 138.868 43.9658 136.69 42.2648C134.511 40.5628 131.464 39.9358 128.532 39.5598C123.795 38.9538 118.971 38.8408 114.201 39.2238C111.161 39.4688 107.326 40.7078 107.493 43.2848C107.797 40.9268 105.849 38.6858 103.398 37.5308C100.947 36.3758 98.0727 36.0858 95.2787 35.8568C90.2537 35.4448 85.0837 35.1688 80.2407 36.3778C75.3987 37.5858 70.8837 40.5698 69.6287 44.7048L78.7117 43.3468Z" fill="#78A015"/>
<path d="M59.0257 88.7707C55.5477 93.0437 51.9607 97.5407 50.8297 102.933C49.6987 108.326 51.9057 114.85 57.0837 116.73C54.6697 123.333 59.3787 131.545 66.2957 132.797C69.9377 133.456 73.6487 132.426 77.2057 131.405C77.8917 131.208 78.6097 130.992 79.1097 130.483C80.9537 128.606 78.1747 125.75 75.7167 124.809C73.2587 123.871 70.1027 121.857 71.2227 119.476C71.8857 118.066 73.7847 117.642 74.5877 116.307C75.4737 114.835 74.6547 112.888 73.4527 111.661C72.2507 110.434 70.6867 109.574 69.6337 108.217C67.0967 104.946 68.3747 100.245 69.7617 96.3458C70.2347 95.0168 70.7787 93.5948 71.9587 92.8238C74.9977 90.8388 78.4768 94.6068 81.9748 95.5728C85.6357 96.5838 89.6137 94.1038 91.2497 90.6788C92.8867 87.2518 92.5937 83.1907 91.5417 79.5417C96.0057 75.2277 103.572 79.6598 109.569 78.0568C113.838 76.9148 116.84 72.2498 116.109 67.8918C118.658 66.3078 119.533 62.5447 117.945 59.9977C116.357 57.4517 112.593 56.5808 110.049 58.1728C107.445 54.8798 102.779 53.3798 98.7437 54.5388C94.7087 55.6978 91.5497 59.4438 91.0887 63.6168C91.0227 64.2138 90.9777 64.8817 90.5337 65.2867C90.0287 65.7477 89.2457 65.6568 88.5767 65.5178C85.3587 64.8498 82.1497 63.7258 78.8757 64.0178C75.5867 64.3108 72.6367 66.4288 71.9177 69.7158C63.2017 66.9538 51.7377 81.4767 59.0257 88.7707Z" fill="#7EBB15"/>
<path d="M120.78 85.7657C123.272 84.7287 125.358 81.1038 127.654 82.5228C128.156 82.8328 128.495 83.3418 128.802 83.8448C131.35 88.0138 133.932 93.5717 138.818 93.5187C140.591 93.4997 142.306 92.6548 144.073 92.8118C147.091 93.0798 149.11 96.1618 149.718 99.1297C150.326 102.099 150.005 105.21 150.724 108.153C150.938 109.029 151.276 109.93 151.982 110.491C152.653 111.024 153.55 111.165 154.405 111.231C157.373 111.462 160.516 110.965 162.898 109.179C165.28 107.393 166.677 104.121 165.685 101.314C164.854 98.9618 162.495 96.7668 163.389 94.4388C164.05 92.7188 166.121 92.1218 167.603 91.0278C169.709 89.4738 170.693 86.5508 169.956 84.0408C169.219 81.5298 166.811 79.6028 164.2 79.4338C162.772 79.3418 161.284 79.7188 159.936 79.2388C157.527 78.3818 156.807 75.3418 156.758 72.7848C156.708 70.2278 156.848 67.3497 155.088 65.4947C154.056 64.4067 152.564 63.9108 151.136 63.4538C147.59 62.3198 143 61.4818 140.749 64.4468C139.394 66.2318 139.279 69.0628 137.263 70.0408C135.198 71.0428 132.927 69.2878 130.693 68.7618C126.884 67.8638 122.744 71.4887 123.131 75.3827C122.971 73.7747 116.254 78.2318 115.764 79.4468C114.477 82.6398 116.883 87.3877 120.78 85.7657Z" fill="#7EBB15"/>
<path d="M68.7227 152.304C71.2317 153.96 73.7416 155.617 76.2506 157.274C74.0936 160.031 72.4237 163.169 71.3417 166.498C74.1847 165.073 77.0277 163.647 79.8697 162.222C78.4167 166.86 78.0927 171.846 78.9327 176.632C81.0947 173.909 83.2567 171.187 85.4177 168.464C86.9737 171.386 89.2967 173.895 92.0907 175.67C92.4867 171.953 92.7857 168.226 92.9867 164.493C96.5157 165.227 100.268 164.851 103.582 163.433C100.924 162.734 98.2657 162.035 95.6067 161.336C98.6037 158.945 101.326 156.21 103.702 153.2C100.057 153.242 96.4187 153.851 92.9597 155.001C93.1947 152.393 93.0177 149.75 92.4367 147.198C90.7657 149.513 89.0947 151.829 87.4237 154.144C86.3367 150.845 85.2487 147.547 84.1617 144.248C83.7957 146.859 83.4297 149.47 83.0627 152.081C83.0067 152.482 82.9147 152.939 82.5637 153.142C82.2057 153.349 81.7567 153.19 81.3787 153.023C78.8507 151.905 76.4797 150.475 74.1497 149.021C75.0357 150.348 75.0037 151.866 75.2047 153.174C73.7257 152.958 69.8937 153.078 68.7227 152.304Z" fill="#F4E2B5"/>
<path d="M133.285 131.171C135.794 132.828 138.304 134.484 140.813 136.142C138.656 138.899 136.986 142.035 135.904 145.366C138.747 143.94 141.59 142.514 144.432 141.09C142.979 145.727 142.655 150.713 143.496 155.499C145.657 152.776 147.819 150.054 149.981 147.331C151.537 150.253 153.86 152.762 156.654 154.537C157.05 150.82 157.349 147.094 157.55 143.36C161.079 144.094 164.831 143.718 168.145 142.299C165.487 141.601 162.829 140.902 160.17 140.202C163.167 137.811 165.889 135.076 168.265 132.067C164.62 132.108 160.982 132.717 157.523 133.867C157.758 131.261 157.581 128.616 157 126.064C155.329 128.379 153.658 130.695 151.987 133.01C150.9 129.712 149.812 126.413 148.725 123.114C148.359 125.725 147.993 128.337 147.626 130.947C147.57 131.349 147.478 131.805 147.127 132.009C146.769 132.215 146.319 132.056 145.941 131.889C143.413 130.771 141.042 129.341 138.712 127.887C139.598 129.214 139.566 130.732 139.767 132.04C138.288 131.825 134.456 131.944 133.285 131.171Z" fill="#F4E2B5"/>
<path d="M65.9949 87.3478C68.5049 89.0048 71.0139 90.6618 73.5239 92.3188C71.3659 95.0758 69.6969 98.2128 68.6149 101.543C71.4569 100.117 74.2999 98.6908 77.1429 97.2668C75.6899 101.904 75.3669 106.89 76.2069 111.676C78.3689 108.953 80.5299 106.231 82.6919 103.508C84.2489 106.43 86.5719 108.939 89.3649 110.714C89.7619 106.997 90.0609 103.271 90.2609 99.5367C93.7899 100.271 97.5429 99.8948 100.856 98.4758C98.1979 97.7768 95.5399 97.0788 92.8819 96.3788C95.8789 93.9878 98.6009 91.2528 100.977 88.2438C97.3319 88.2848 93.6939 88.8938 90.2349 90.0438C90.4699 87.4368 90.2929 84.7928 89.7119 82.2408C88.0409 84.5558 86.3699 86.8718 84.6989 89.1868C83.6119 85.8878 82.5239 82.5898 81.4369 79.2908C81.0709 81.9018 80.7049 84.5128 80.3379 87.1238C80.2819 87.5248 80.1899 87.9818 79.8389 88.1858C79.4809 88.3918 79.0309 88.2328 78.6539 88.0658C76.1259 86.9478 73.7549 85.5178 71.4249 84.0638C72.3099 85.3908 72.2789 86.9088 72.4799 88.2168C70.9979 88.0018 67.1659 88.1218 65.9949 87.3478Z" fill="#F4E2B5"/>
<path d="M112.141 49.3788C114.651 51.0358 117.161 52.6918 119.67 54.3488C117.513 57.1058 115.843 60.2428 114.761 63.5728C117.603 62.1468 120.447 60.7218 123.289 59.2958C121.836 63.9328 121.513 68.9198 122.353 73.7057C124.515 70.9827 126.676 68.2608 128.838 65.5378C130.395 68.4598 132.718 70.9688 135.511 72.7438C135.908 69.0268 136.207 65.2997 136.407 61.5677C139.936 62.3017 143.689 61.9258 147.002 60.5068C144.344 59.8078 141.686 59.1098 139.028 58.4098C142.025 56.0188 144.747 53.2838 147.123 50.2748C143.478 50.3168 139.84 50.9258 136.381 52.0748C136.616 49.4678 136.439 46.8248 135.858 44.2718C134.187 46.5868 132.516 48.9028 130.845 51.2178C129.758 47.9198 128.67 44.6208 127.583 41.3228C127.217 43.9338 126.851 46.5448 126.484 49.1558C126.428 49.5568 126.336 50.0138 125.985 50.2168C125.627 50.4228 125.177 50.2637 124.8 50.0967C122.272 48.9787 119.901 47.5498 117.571 46.0958C118.456 47.4228 118.425 48.9408 118.626 50.2488C117.144 50.0328 113.312 50.1518 112.141 49.3788Z" fill="#F4E2B5"/>
<path d="M119.015 99.3849C121.062 100.737 123.11 102.088 125.158 103.44C123.398 105.689 122.035 108.249 121.153 110.965C123.472 109.802 125.791 108.639 128.111 107.476C126.926 111.259 126.662 115.328 127.347 119.233C129.111 117.011 130.874 114.79 132.638 112.569C133.908 114.953 135.803 117 138.082 118.448C138.406 115.416 138.65 112.375 138.813 109.33C141.693 109.929 144.754 109.622 147.458 108.465C145.289 107.895 143.121 107.324 140.952 106.754C143.397 104.804 145.618 102.571 147.556 100.116C144.582 100.15 141.614 100.647 138.792 101.585C138.983 99.458 138.839 97.3019 138.366 95.2189C137.003 97.1089 135.639 98.998 134.276 100.887C133.389 98.196 132.502 95.504 131.615 92.814C131.316 94.944 131.017 97.074 130.719 99.205C130.673 99.532 130.598 99.9049 130.312 100.07C130.02 100.239 129.653 100.109 129.345 99.9719C127.283 99.0599 125.349 97.894 123.448 96.707C124.171 97.79 124.145 99.0279 124.309 100.096C123.096 99.9179 119.971 100.015 119.015 99.3849Z" fill="#F4E2B5"/>
<path d="M158.405 78.2629C160.452 79.6149 162.5 80.9669 164.548 82.3179C162.788 84.5669 161.426 87.1269 160.543 89.8429C162.862 88.6799 165.182 87.5169 167.501 86.3539C166.316 90.1369 166.052 94.2059 166.737 98.1099C168.501 95.8889 170.264 93.6679 172.028 91.4469C173.298 93.8309 175.193 95.8779 177.472 97.3259C177.796 94.2939 178.039 91.2529 178.203 88.2079C181.082 88.8069 184.144 88.4999 186.847 87.3419C184.678 86.7719 182.51 86.2019 180.341 85.6319C182.786 83.6809 185.007 81.4489 186.946 78.9939C183.972 79.0279 181.004 79.5249 178.182 80.4629C178.373 78.3359 178.229 76.1789 177.755 74.0969C176.392 75.9869 175.028 77.8749 173.665 79.7649C172.778 77.0739 171.891 74.3819 171.004 71.6909C170.705 73.8209 170.406 75.9519 170.108 78.0819C170.062 78.4099 169.987 78.7829 169.7 78.9479C169.408 79.1159 169.041 78.9869 168.733 78.8499C166.67 77.9379 164.736 76.7709 162.836 75.5849C163.559 76.6679 163.533 77.9059 163.697 78.9729C162.487 78.7959 159.361 78.8939 158.405 78.2629Z" fill="#F4E2B5"/>
<path d="M66.3047 37.3348C68.3517 38.6868 70.3997 40.0378 72.4467 41.3898C70.6867 43.6398 69.3247 46.1988 68.4417 48.9148C70.7607 47.7518 73.0807 46.5888 75.3997 45.4258C74.2137 49.2088 73.9497 53.2768 74.6357 57.1818C76.3997 54.9608 78.1627 52.7398 79.9267 50.5178C81.1967 52.9018 83.0917 54.9488 85.3717 56.3968C85.6957 53.3638 85.9387 50.3238 86.1027 47.2778C88.9817 47.8768 92.0427 47.5697 94.7467 46.4117C92.5787 45.8417 90.4097 45.2717 88.2407 44.7007C90.6857 42.7507 92.9067 40.5188 94.8447 38.0638C91.8707 38.0978 88.9027 38.5948 86.0807 39.5328C86.2727 37.4058 86.1277 35.2487 85.6547 33.1667C84.2917 35.0557 82.9277 36.9447 81.5647 38.8337C80.6777 36.1427 79.7907 33.4517 78.9027 30.7607C78.6037 32.8907 78.3047 35.0208 78.0067 37.1518C77.9607 37.4798 77.8857 37.8518 77.5997 38.0178C77.3077 38.1868 76.9407 38.0567 76.6327 37.9197C74.5707 37.0077 72.6357 35.8408 70.7357 34.6548C71.4577 35.7378 71.4317 36.9758 71.5967 38.0438C70.3867 37.8678 67.2607 37.9658 66.3047 37.3348Z" fill="#F4E2B5"/>
<path d="M22.8027 107.135C25.2487 107.329 27.6947 107.524 30.1397 107.717C29.6857 110.537 29.7297 113.436 30.2697 116.24C31.7377 114.101 33.2067 111.963 34.6747 109.823C35.4657 113.708 37.1997 117.397 39.6877 120.485C40.1577 117.687 40.6287 114.89 41.0997 112.093C43.3637 113.567 46.0117 114.443 48.7077 114.61C47.5257 111.798 46.2697 109.018 44.9407 106.273C47.7517 105.406 50.2827 103.659 52.0907 101.338C49.9167 101.887 47.7427 102.436 45.5687 102.984C46.7667 100.094 47.6327 97.067 48.1427 93.981C45.5557 95.448 43.1977 97.318 41.1797 99.502C40.3197 97.547 39.1507 95.7289 37.7297 94.1349C37.4487 96.4479 37.1677 98.7599 36.8877 101.073C34.8107 99.1449 32.7337 97.219 30.6557 95.291C31.4237 97.301 32.1917 99.31 32.9597 101.319C33.0777 101.628 33.1927 101.99 33.0217 102.274C32.8477 102.562 32.4637 102.626 32.1277 102.656C29.8807 102.853 27.6237 102.767 25.3867 102.647C26.5427 103.246 27.1177 104.342 27.7777 105.197C26.6337 105.631 23.9447 107.226 22.8027 107.135Z" fill="#F4E2B5"/>
</svg>
