<svg width="439" height="423" viewBox="0 0 439 423" fill="none" xmlns="http://www.w3.org/2000/svg">
<path d="M0.0137665 240.274C0.302766 250.436 6.45173 261.198 16.3927 263.332C14.2907 271.662 12.1838 280.405 14.2668 288.74C16.3498 297.075 24.1338 304.662 32.6278 303.376C27.3898 318.552 37.2058 337.139 52.6928 341.371C54.0078 348.762 55.5028 356.542 60.4077 362.225C65.3128 367.908 74.8468 370.314 80.3438 365.202C82.4558 377.588 96.5717 386.436 108.64 382.94C111.101 388.681 113.773 394.695 118.788 398.417C123.804 402.139 131.924 402.451 135.589 397.393C135.346 405.583 143.103 413.096 151.28 412.593C154.348 412.404 157.366 411.262 160.42 411.608C170.2 412.717 177.114 420.868 186.84 422.384C198.431 424.191 200.076 413.224 211.227 409.578C219.392 406.908 227.697 412.474 236.033 414.548C244.369 416.621 256.354 410.454 252.884 402.596C261.232 406.725 270.133 410.964 279.406 410.101C288.679 409.238 297.92 401.035 296.269 391.869C304.206 400.088 321.176 391.586 319.345 380.309C326.53 385.688 337.099 386.032 344.617 381.129C352.136 376.227 356.085 366.417 354.06 357.672C361.791 363.282 374.142 360.681 378.954 352.429C383.767 344.177 379.949 332.148 371.259 328.181C378.839 331.547 388.693 328.449 392.983 321.351C397.274 314.253 395.436 304.088 388.932 298.941C394.902 298.035 401.112 295.418 404.025 290.128C406.938 284.838 404.64 276.702 398.728 275.473C416.942 272.128 426.926 247.196 416.055 232.203C425.341 234.552 435.926 228.215 438.241 218.92C440.556 209.626 434.18 199.064 424.878 196.782C433.112 192.148 437.666 181.791 435.516 172.591C433.365 163.391 424.691 156.126 415.256 155.622C420.339 144.74 409.787 130.209 397.866 131.674C404.003 127.233 406.161 118.099 402.661 111.38C399.161 104.662 390.44 101.195 383.283 103.678C393.712 91.6579 382.834 69.0729 366.934 69.7359C370.242 62.8289 365.333 54.2459 358.485 50.8179C351.636 47.3899 343.589 47.7229 335.942 48.1339C334.619 40.0779 333.013 31.4539 327.217 25.7049C321.422 19.9559 309.934 19.4319 306.221 26.7019C301.051 9.86988 278.47 1.22488 263.382 10.3009C257.346 -3.49212 233.654 -3.41412 227.709 10.4189C212.527 -4.96712 183.404 -2.43111 171.109 15.3469C160.091 2.67489 135.22 9.09788 131.716 25.5199C116.065 15.7209 92.0028 26.3129 88.6598 44.4739C75.7508 37.4909 57.1968 47.7969 56.3048 62.4469C41.9588 67.7369 33.2778 85.0099 37.5918 99.6779C30.8988 103.007 27.7377 115.029 26.8537 125.028C26.5567 128.384 24.5047 131.365 21.4677 132.823C16.1007 135.399 8.76677 141.448 7.53177 155.973C6.75877 165.062 11.8497 176.356 11.6997 178.044C11.5387 179.848 -8.53822 190.275 7.36978 211.781C3.86578 220.842 -0.269234 230.298 0.0137665 240.274Z" fill="#7EBB15"/>
<path d="M278.249 81.5309C274.739 80.2469 270.701 79.9769 267.088 80.8679C268.192 81.8859 269.279 82.9119 270.36 83.9149C288.412 79.1529 289.989 94.8629 291.117 95.4329C292.173 95.9669 300.81 95.5799 306.504 98.4289C315.603 102.981 317.632 109.298 317.917 113.443C318.078 115.789 319.481 117.889 321.581 118.948C327.836 122.103 334.815 127.257 335.246 132.456C345.871 133.446 354.829 143.535 354.556 154.202C363.825 158.563 365.718 173.255 357.856 179.822C368.769 186.678 369.424 205.015 359.029 212.633C368.773 219.146 366.516 236.931 355.454 240.803C363.807 253.365 357.932 272.904 344.036 278.776C351.47 286.202 345.403 301.585 334.902 301.937C336.891 314.064 325.455 326.474 313.206 325.48C316.961 329.765 313.656 337.078 308.431 339.352C303.207 341.625 297.2 340.44 291.635 339.218C289.927 344.283 288.065 349.587 284.074 353.142C280.084 356.697 273.251 357.664 269.626 353.736C265.95 364.217 248.497 365.439 243.396 355.573C243.158 360.855 238.659 365.615 233.398 366.15C228.138 366.684 222.773 362.926 221.477 357.801C219.349 365.908 207.203 368.998 201.459 362.893C200.419 365.145 198.788 367.08 196.809 368.566C197.823 374.964 203.277 380.425 209.691 381.39C216.212 382.371 223.162 378.623 225.924 372.635C231.668 378.74 243.815 375.651 245.943 367.543C247.238 372.668 252.604 376.426 257.864 375.892C263.124 375.358 267.624 370.598 267.861 365.316C272.962 375.182 290.415 373.959 294.092 363.479C297.716 367.407 304.549 366.44 308.54 362.885C312.531 359.329 314.393 354.026 316.101 348.961C321.666 350.183 327.673 351.369 332.897 349.095C338.121 346.821 341.427 339.508 337.672 335.223C349.921 336.217 361.357 323.807 359.367 311.68C369.869 311.328 375.936 295.945 368.502 288.519C382.398 282.647 388.273 263.108 379.92 250.546C390.982 246.673 393.238 228.888 383.495 222.376C393.89 214.758 393.234 196.421 382.322 189.565C390.183 182.998 388.291 168.306 379.022 163.945C379.295 153.278 370.337 143.189 359.712 142.199C359.282 136.999 352.303 131.846 346.048 128.69C343.948 127.631 342.545 125.531 342.384 123.185C342.1 119.04 340.071 112.723 330.972 108.171C325.278 105.322 316.64 105.709 315.584 105.175C314.456 104.605 312.879 88.8949 294.827 93.6569C289.854 89.0449 284.791 83.9229 278.249 81.5309Z" fill="#78A015"/>
<path d="M263.569 159.29C261.427 156.808 258.525 154.818 255.516 153.85C255.967 155.072 256.401 156.291 256.84 157.492C271.986 162.107 267.45 174.077 268.082 174.988C268.672 175.84 275.232 179.406 278.429 183.983C283.537 191.296 282.75 196.73 281.455 199.829C280.722 201.583 281.002 203.714 282.178 205.407C285.68 210.453 288.994 217.254 287.425 221.176C294.961 226.612 297.953 237.835 293.874 245.364C299.178 252.615 295.246 263.996 287.018 265.209C292.637 274.982 286.462 288.426 275.969 289.266C280.844 298.272 272.705 310.025 263.077 307.882C264.72 320.609 253.255 332.009 240.794 330.039C243.621 338.673 233.523 347.008 225.591 342.588C222.663 352.171 209.656 355.985 200.914 349.823C202.148 354.567 197.034 358.342 192.325 357.649C187.616 356.956 183.583 353.433 179.892 350.081C176.782 352.954 173.472 355.93 169.214 356.705C164.957 357.48 159.527 355.134 158.261 350.703C151.721 356.585 138.306 349.698 138.1 340.352C136.004 344.035 130.931 345.447 126.828 343.491C122.725 341.535 120.103 336.452 121.002 332.2C116.475 337.069 106.325 333.881 104.275 326.947C102.684 328.1 100.768 328.762 98.7582 328.948C97.1872 333.988 99.2562 340.332 103.672 343.877C108.162 347.481 114.689 347.885 118.917 344.819C120.967 351.754 131.117 354.941 135.644 350.072C134.745 354.325 137.366 359.407 141.47 361.364C145.573 363.32 150.647 361.908 152.743 358.225C152.949 367.571 166.364 374.458 172.904 368.576C174.17 373.006 179.599 375.352 183.857 374.577C188.114 373.802 191.425 370.826 194.535 367.953C198.227 371.305 202.26 374.828 206.969 375.521C211.678 376.214 216.792 372.439 215.558 367.695C224.3 373.857 237.308 370.044 240.235 360.46C248.168 364.879 258.265 356.544 255.438 347.911C267.899 349.881 279.364 338.48 277.72 325.754C287.348 327.897 295.487 316.145 290.612 307.139C301.105 306.299 307.28 292.854 301.661 283.082C309.89 281.869 313.821 270.489 308.517 263.237C312.597 255.707 309.604 244.486 302.068 239.048C303.638 235.127 300.323 228.326 296.821 223.28C295.646 221.587 295.366 219.456 296.098 217.701C297.393 214.601 298.18 209.168 293.072 201.855C289.875 197.279 283.316 193.713 282.725 192.861C282.094 191.95 286.63 179.98 271.484 175.365C269.463 169.842 267.561 163.916 263.569 159.29Z" fill="#78A015"/>
<path d="M208.783 290.859C207.262 291.143 205.936 292.284 205.308 293.839C203.558 298.168 200.694 303.069 197.577 304.252C197.172 304.406 196.902 304.772 196.86 305.203C196.174 312.233 190.424 318.64 183.968 319.554C183.572 319.61 183.241 319.861 183.076 320.226C180.381 326.189 172.284 328.426 167.673 324.689C167.173 324.284 166.432 324.441 166.083 324.982C161.716 331.734 151.707 333.282 146.384 328.071C145.889 327.587 145.106 327.653 144.695 328.209C140.452 333.94 130.913 333.684 127.576 327.734C127.257 327.164 126.534 326.97 126.004 327.353C118.442 332.81 107.267 330.507 102.688 322.603C102.343 322.008 101.545 321.832 101.027 322.286C96.374 326.363 88.175 323.743 86.84 317.654C86.71 317.061 86.157 316.668 85.559 316.775C78.661 318.008 71.664 312.268 70.819 304.88C70.733 304.126 69.939 303.727 69.246 304.037C66.535 305.251 62.9399 303.514 61.5829 300.585C60.0879 297.359 60.47 293.458 61.034 289.739C61.119 289.175 60.7649 288.64 60.2129 288.498C57.1759 287.714 54.1079 286.736 51.9159 284.43C49.7669 282.169 48.874 278.189 50.402 275.337C50.689 274.801 50.4769 274.122 49.9289 273.858C44.6779 271.325 43.495 262.218 47.538 257.434C48.052 256.826 47.724 255.919 46.965 255.681C44.445 254.892 42.392 252.543 42.003 249.68C41.605 246.747 42.99 243.567 45.249 241.754C45.86 241.264 45.783 240.34 45.112 239.935C41.556 237.79 40.1469 231.918 42.4839 227.962C42.8079 227.414 42.635 226.729 42.081 226.416C41.251 225.946 40.497 225.335 39.839 224.616C39.524 224.273 39.019 224.182 38.585 224.351C34.821 225.815 31.827 229.799 31.412 234.087C31.005 238.293 33.1099 242.465 36.4399 244.353C36.9959 244.668 37.174 245.352 36.849 245.902C34.512 249.858 35.921 255.731 39.477 257.876C40.148 258.28 40.2259 259.204 39.6139 259.694C37.3559 261.507 35.97 264.687 36.369 267.619C36.758 270.483 38.811 272.832 41.331 273.621C42.09 273.859 42.418 274.766 41.904 275.374C37.861 280.158 39.044 289.265 44.295 291.798C44.842 292.062 45.0549 292.741 44.7679 293.277C43.2399 296.129 44.133 300.109 46.282 302.37C48.474 304.676 51.543 305.655 54.579 306.438C55.131 306.58 55.485 307.115 55.4 307.679C54.836 311.398 54.455 315.299 55.949 318.525C57.306 321.454 60.901 323.19 63.612 321.977C64.305 321.667 65.099 322.066 65.185 322.82C66.03 330.208 73.028 335.948 79.925 334.715C80.523 334.609 81.075 335.001 81.206 335.595C82.541 341.684 90.7399 344.304 95.3929 340.226C95.9109 339.772 96.7089 339.948 97.0539 340.543C101.634 348.448 112.809 350.75 120.37 345.293C120.9 344.911 121.623 345.105 121.943 345.674C125.28 351.624 134.818 351.881 139.062 346.149C139.474 345.593 140.257 345.527 140.752 346.011C146.074 351.221 156.083 349.673 160.451 342.921C160.801 342.38 161.541 342.223 162.041 342.629C166.652 346.365 174.749 344.128 177.444 338.166C177.608 337.801 177.939 337.55 178.336 337.494C184.792 336.58 190.542 330.173 191.228 323.143C191.27 322.712 191.541 322.346 191.946 322.192C195.062 321.009 197.927 316.108 199.676 311.779C200.304 310.223 201.63 309.082 203.152 308.799C205.84 308.298 209.89 306.409 212.59 299.67C214.279 295.452 213.78 289.396 214.097 288.614C214.427 287.791 211.471 290.358 208.783 290.859Z" fill="#78A015"/>
<path d="M240.836 247.366C239.299 247.183 237.694 247.878 236.63 249.175C233.67 252.787 229.475 256.611 226.148 256.812C225.715 256.838 225.348 257.106 225.179 257.506C222.429 264.012 215.031 268.415 208.596 267.363C208.201 267.298 207.81 267.439 207.545 267.739C203.196 272.628 194.799 272.35 191.512 267.41C191.155 266.874 190.402 266.804 189.906 267.215C183.725 272.358 173.71 270.854 170.182 264.294C169.854 263.685 169.087 263.514 168.528 263.922C162.77 268.129 153.741 265.041 152.329 258.367C152.194 257.728 151.561 257.327 150.942 257.534C142.098 260.49 132.116 254.962 130.1 246.051C129.948 245.38 129.239 244.975 128.609 245.254C122.953 247.759 115.906 242.816 116.447 236.605C116.499 236 116.089 235.46 115.486 235.384C108.534 234.506 103.566 226.941 104.96 219.637C105.103 218.892 104.463 218.274 103.71 218.364C100.76 218.714 97.8458 215.986 97.4228 212.785C96.9578 209.261 98.4839 205.65 100.131 202.268C100.38 201.755 100.202 201.139 99.7169 200.839C97.0519 199.186 94.4138 197.338 93.0088 194.484C91.6308 191.685 91.9649 187.62 94.2739 185.353C94.7079 184.927 94.7069 184.215 94.2629 183.8C90.0049 179.818 91.5899 170.772 96.8749 167.41C97.5459 166.983 97.5039 166.019 96.8499 165.566C94.6789 164.062 93.4199 161.208 93.9019 158.358C94.3949 155.439 96.6658 152.817 99.3608 151.76C100.09 151.474 100.292 150.569 99.7718 149.983C97.0158 146.876 97.4209 140.851 100.831 137.771C101.304 137.344 101.342 136.639 100.907 136.175C100.255 135.479 99.7178 134.671 99.3038 133.789C99.1058 133.368 98.6508 133.131 98.1858 133.163C94.1568 133.439 90.1109 136.349 88.4379 140.319C86.7959 144.213 87.5619 148.823 90.1779 151.617C90.6149 152.083 90.5809 152.79 90.1069 153.218C86.6979 156.298 86.2918 162.323 89.0478 165.431C89.5678 166.017 89.3658 166.922 88.6368 167.208C85.9408 168.265 83.6709 170.888 83.1779 173.806C82.6969 176.656 83.9559 179.51 86.1259 181.014C86.7799 181.467 86.8219 182.431 86.1509 182.858C80.8659 186.22 79.2808 195.266 83.5378 199.249C83.9818 199.664 83.9818 200.375 83.5488 200.801C81.2398 203.068 80.9058 207.133 82.2848 209.932C83.6898 212.786 86.3279 214.635 88.9929 216.287C89.4779 216.587 89.6569 217.204 89.4069 217.716C87.7599 221.098 86.2338 224.709 86.6988 228.233C87.1208 231.434 90.0359 234.162 92.9849 233.812C93.7389 233.722 94.3778 234.34 94.2358 235.085C92.8408 242.389 97.8098 249.954 104.762 250.832C105.365 250.908 105.775 251.448 105.722 252.053C105.182 258.263 112.228 263.207 117.885 260.702C118.514 260.423 119.223 260.828 119.376 261.499C121.392 270.41 131.373 275.937 140.217 272.982C140.837 272.775 141.469 273.175 141.605 273.814C143.018 280.488 152.046 283.575 157.804 279.369C158.363 278.961 159.13 279.131 159.458 279.741C162.986 286.301 173.002 287.806 179.183 282.662C179.678 282.25 180.431 282.321 180.788 282.857C184.076 287.797 192.472 288.076 196.821 283.186C197.087 282.887 197.477 282.746 197.872 282.81C204.307 283.861 211.705 279.459 214.455 272.953C214.624 272.554 214.991 272.285 215.424 272.259C218.751 272.059 222.946 268.234 225.906 264.623C226.97 263.325 228.575 262.631 230.112 262.813C232.827 263.135 237.256 262.54 241.841 256.911C244.71 253.387 243.551 247.688 240.836 247.366Z" fill="#78A015"/>
<path d="M59.4328 203.659C60.1258 202.276 60.0188 200.53 59.1598 199.089C56.6058 194.804 54.3008 189.112 55.7758 186.011C55.7818 185.998 55.7788 185.985 55.7678 185.976C49.9738 181.139 48.1808 171.886 51.8958 166.006C51.9028 165.995 51.9028 165.98 51.8958 165.968C48.0248 159.796 51.8308 150.82 58.5458 150.262C58.5668 150.26 58.5798 150.239 58.5698 150.219C54.5978 141.983 60.3468 131.46 68.8848 131.346C68.8988 131.346 68.9058 131.333 68.9008 131.321C65.4758 123.739 72.7378 114.676 80.4258 116.955C79.8068 106.545 89.7248 97.9429 99.7158 100.205C99.7378 100.21 99.7578 100.191 99.7518 100.168C97.9968 93.0369 106.592 86.8859 112.767 90.8499C112.793 90.8659 112.823 90.8569 112.834 90.8289C115.774 83.2649 126.488 80.9169 133.227 86.3669C133.239 86.3759 133.254 86.3659 133.251 86.3519C132.553 82.4519 136.9 79.6959 140.672 80.5209C144.447 81.3469 147.519 84.4209 150.323 87.3439C150.334 87.3559 150.352 87.3569 150.365 87.3469C153.045 85.1949 155.894 82.9749 159.385 82.5869C162.871 82.1989 167.127 84.3889 167.931 88.0299C167.936 88.0509 167.96 88.0599 167.978 88.0469C173.603 83.7139 183.993 89.9729 183.734 97.5119C183.733 97.5439 183.769 97.5559 183.787 97.5299C185.721 94.7249 189.869 93.8979 193.059 95.6989C196.251 97.5019 198.091 101.715 197.181 105.102C197.173 105.132 197.204 105.15 197.226 105.129C201.197 101.537 209.159 104.682 210.438 110.383C210.44 110.391 210.449 110.395 210.456 110.391C211.794 109.559 213.362 109.132 214.98 109.086C215.012 109.085 215.041 109.065 215.052 109.036C216.581 105.038 215.255 99.8009 211.882 96.6859C208.442 93.5099 203.173 92.8139 199.567 95.0579C199.562 95.0609 199.555 95.0579 199.553 95.0519C198.277 89.3479 190.312 86.2009 186.34 89.7939C186.317 89.8139 186.286 89.7959 186.295 89.7669C187.205 86.3789 185.366 82.1659 182.173 80.3629C178.983 78.5619 174.835 79.3889 172.9 82.1939C172.882 82.2199 172.846 82.2089 172.847 82.1759C173.106 74.6369 162.715 68.3789 157.091 72.7119C157.073 72.7259 157.049 72.7169 157.044 72.6949C156.239 69.0539 151.984 66.8639 148.497 67.2519C145.006 67.6409 142.157 69.8599 139.477 72.0119C139.464 72.0219 139.446 72.0209 139.435 72.0099C136.631 69.0869 133.56 66.0119 129.784 65.1869C126.013 64.3619 121.665 67.1179 122.363 71.0189C122.366 71.0339 122.351 71.0429 122.339 71.0339C115.601 65.5839 104.886 67.9319 101.946 75.4959C101.935 75.5239 101.905 75.5339 101.88 75.5169C95.7038 71.5529 87.1088 77.7039 88.8648 84.8349C88.8698 84.8579 88.8508 84.8769 88.8288 84.8719C78.8378 82.6099 68.9208 91.2119 69.5388 101.622C61.8508 99.3429 54.5888 108.407 58.0138 115.988C58.0188 116 58.0108 116.013 57.9978 116.013C49.4588 116.127 43.7108 126.65 47.6828 134.887C47.6918 134.906 47.6798 134.927 47.6588 134.929C40.9428 135.487 37.1368 144.463 41.0078 150.635C41.0148 150.646 41.0148 150.661 41.0078 150.673C37.2918 156.552 39.0858 165.805 44.8798 170.642C44.8908 170.651 44.8938 170.665 44.8878 170.677C43.4128 173.777 45.7178 179.47 48.2718 183.755C49.1308 185.196 49.2388 186.942 48.5448 188.325C47.3188 190.769 46.3748 195.137 50.1118 201.362C52.4528 205.257 58.2068 206.104 59.4328 203.659Z" fill="#94D31A"/>
<path d="M167.181 173.797C167.987 173.118 168.389 171.998 168.239 170.867C167.792 167.506 167.879 163.331 169.636 161.787C169.643 161.781 169.645 161.771 169.641 161.763C167.312 157.19 168.677 150.927 172.586 148.245C172.593 148.24 172.597 148.231 172.596 148.222C171.831 143.329 176.629 138.736 180.985 140.184C180.999 140.189 181.012 140.179 181.012 140.164C180.739 133.954 187.169 128.914 192.548 131.126C192.556 131.129 192.565 131.123 192.565 131.115C192.458 125.46 199.444 121.738 203.647 125.218C206.059 118.546 214.584 115.823 220.233 119.908C220.246 119.917 220.263 119.91 220.265 119.894C221.083 114.968 228.12 113.422 230.923 117.551C230.935 117.568 230.956 117.57 230.97 117.556C234.846 113.614 242.187 115.013 244.943 120.222C244.948 120.231 244.96 120.229 244.962 120.219C245.573 117.595 249.038 117.034 251.178 118.559C253.321 120.085 254.418 122.828 255.388 125.405C255.392 125.415 255.403 125.421 255.414 125.418C257.671 124.789 260.053 124.164 262.344 124.855C264.632 125.545 266.708 128.052 266.234 130.543C266.231 130.558 266.244 130.57 266.258 130.566C270.946 129.362 275.771 136.053 273.582 140.696C273.573 140.716 273.592 140.733 273.61 140.721C275.576 139.485 278.397 140.077 279.91 142.056C281.425 144.037 281.444 147.163 279.963 149.036C279.95 149.053 279.965 149.072 279.984 149.065C283.437 147.882 287.578 151.978 286.846 155.883C286.845 155.888 286.849 155.893 286.855 155.892C287.918 155.73 289.014 155.883 290.04 156.287C290.06 156.295 290.083 156.29 290.099 156.275C292.132 154.185 292.709 150.557 291.434 147.708C290.134 144.803 287.02 142.958 284.159 143.397C284.155 143.397 284.151 143.394 284.152 143.39C284.886 139.484 280.744 135.386 277.29 136.569C277.27 136.576 277.255 136.556 277.269 136.54C278.75 134.666 278.731 131.541 277.216 129.56C275.702 127.581 272.882 126.989 270.916 128.225C270.897 128.236 270.878 128.22 270.888 128.2C273.078 123.557 268.252 116.866 263.564 118.07C263.549 118.074 263.536 118.062 263.539 118.047C264.014 115.556 261.937 113.049 259.65 112.359C257.359 111.668 254.978 112.293 252.72 112.922C252.709 112.925 252.698 112.919 252.694 112.909C251.724 110.332 250.627 107.589 248.484 106.063C246.344 104.539 242.88 105.099 242.268 107.723C242.266 107.733 242.253 107.735 242.249 107.726C239.494 102.518 232.152 101.119 228.276 105.061C228.262 105.076 228.24 105.074 228.229 105.057C225.426 100.928 218.389 102.473 217.571 107.4C217.569 107.416 217.552 107.423 217.539 107.414C211.889 103.328 203.364 106.052 200.953 112.724C196.75 109.243 189.765 112.966 189.871 118.621C189.871 118.63 189.863 118.636 189.854 118.633C184.475 116.421 178.045 121.46 178.318 127.671C178.318 127.686 178.305 127.696 178.291 127.691C173.935 126.243 169.137 130.836 169.902 135.729C169.903 135.738 169.899 135.747 169.892 135.752C165.983 138.433 164.619 144.696 166.947 149.27C166.951 149.278 166.949 149.288 166.943 149.294C165.186 150.838 165.098 155.012 165.546 158.374C165.697 159.504 165.295 160.624 164.488 161.304C163.063 162.504 161.297 164.981 161.964 169.871C162.38 172.929 165.756 174.997 167.181 173.797Z" fill="#94D31A"/>
<path d="M167.211 240.637C167.294 239.773 166.835 238.753 166.011 237.965C163.564 235.624 160.939 232.437 161.08 230.506C161.08 230.498 161.075 230.49 161.067 230.486C156.629 228.051 153.486 222.731 154.284 219.003C154.285 218.996 154.282 218.987 154.275 218.981C150.639 215.623 150.782 210.066 154.521 209.259C154.533 209.257 154.535 209.243 154.525 209.232C150.36 204.666 151.269 198.06 156.157 197.384C156.165 197.383 156.166 197.375 156.16 197.368C152.459 193.148 154.572 187.294 159.517 188.087C156.787 182.002 160.532 176.23 166.798 176.849C166.812 176.85 166.819 176.838 166.81 176.825C164.173 172.751 167.717 168.517 172.176 170.411C172.194 170.419 172.21 170.411 172.209 170.394C172.176 165.73 177.807 163.584 182.928 166.312C182.936 166.316 182.943 166.31 182.938 166.301C181.646 164.054 183.52 162.122 185.879 162.338C188.24 162.555 190.709 164.146 192.989 165.668C192.998 165.674 193.009 165.673 193.014 165.667C194.065 164.209 195.199 162.699 197.12 162.221C199.038 161.744 201.987 162.73 203.281 164.817C203.289 164.83 203.305 164.833 203.312 164.824C205.56 161.871 212.969 164.816 214.539 169.273C214.545 169.292 214.569 169.296 214.573 169.279C215.047 167.489 217.245 166.707 219.492 167.54C221.741 168.374 223.761 170.724 224.009 172.783C224.011 172.801 224.033 172.809 224.042 172.795C225.508 170.397 230.808 171.681 232.844 174.947C232.847 174.952 232.853 174.953 232.856 174.95C233.437 174.365 234.242 174.001 235.163 173.859C235.181 173.856 235.193 173.842 235.193 173.824C235.161 171.361 233.203 168.372 230.552 166.779C227.848 165.154 224.656 165.12 223.093 166.698C223.09 166.7 223.086 166.699 223.084 166.695C221.049 163.428 215.747 162.142 214.28 164.541C214.272 164.555 214.25 164.546 214.248 164.528C213.999 162.469 211.98 160.119 209.731 159.285C207.484 158.452 205.285 159.235 204.812 161.024C204.808 161.041 204.784 161.037 204.777 161.018C203.207 156.561 195.799 153.616 193.55 156.569C193.543 156.578 193.527 156.575 193.519 156.562C192.226 154.476 189.277 153.489 187.359 153.967C185.439 154.445 184.305 155.954 183.254 157.413C183.249 157.42 183.238 157.421 183.229 157.414C180.948 155.893 178.479 154.302 176.118 154.085C173.76 153.868 171.886 155.801 173.177 158.048C173.182 158.056 173.176 158.063 173.167 158.058C168.046 155.329 162.414 157.476 162.448 162.14C162.448 162.157 162.433 162.165 162.414 162.157C157.956 160.264 154.412 164.498 157.049 168.572C157.057 168.585 157.051 168.598 157.037 168.596C150.771 167.977 147.025 173.749 149.755 179.834C144.81 179.04 142.698 184.895 146.398 189.115C146.404 189.122 146.402 189.13 146.395 189.131C141.507 189.807 140.599 196.413 144.763 200.979C144.773 200.99 144.77 201.003 144.759 201.006C141.021 201.813 140.878 207.37 144.514 210.728C144.521 210.734 144.524 210.743 144.523 210.75C143.725 214.477 146.868 219.797 151.306 222.232C151.314 222.236 151.319 222.245 151.318 222.252C151.176 224.183 153.801 227.371 156.249 229.712C157.072 230.499 157.532 231.52 157.449 232.383C157.302 233.909 157.754 236.548 161.324 239.948C163.558 242.076 167.063 242.164 167.211 240.637Z" fill="#94D31A"/>
<path d="M164.561 78.7889C165.74 78.3029 166.542 77.2989 166.665 76.1629C167.03 72.7859 168.277 68.7309 170.864 67.6109C170.875 67.6069 170.879 67.5969 170.876 67.5879C169.253 62.6149 172.644 56.8039 178.195 55.0449C178.206 55.0419 178.213 55.0339 178.214 55.0249C178.606 50.0829 185.774 46.6539 190.749 49.0219C190.765 49.0289 190.785 49.0219 190.788 49.0079C192.146 42.8889 201.448 39.3819 207.476 42.7189C207.485 42.7239 207.497 42.7199 207.5 42.7109C208.912 37.1709 218.539 35.0699 222.771 39.3869C227.564 33.4059 238.818 32.6169 244.668 37.8429C244.681 37.8549 244.704 37.8509 244.711 37.8369C247.064 33.2089 256.161 33.2439 258.489 37.8879C258.499 37.9069 258.525 37.9139 258.547 37.9029C264.4 34.9069 273.07 37.8809 275.045 43.5669C275.048 43.5769 275.064 43.5779 275.069 43.5679C276.539 41.1409 280.962 41.3549 283.185 43.3109C285.411 45.2689 286.015 48.1869 286.507 50.9139C286.509 50.9249 286.521 50.9329 286.535 50.9329C289.489 50.8139 292.596 50.7269 295.232 51.9029C297.864 53.0769 299.74 55.9789 298.475 58.3049C298.467 58.3189 298.48 58.3339 298.499 58.3329C304.607 58.1869 308.73 65.7729 304.764 69.8229C304.747 69.8399 304.766 69.8609 304.792 69.8539C307.552 69.0788 310.868 70.2749 312.194 72.5389C313.521 74.8039 312.692 77.8569 310.355 79.3609C310.335 79.3739 310.348 79.3959 310.374 79.3939C314.954 78.9969 318.942 83.8999 316.974 87.5509C316.972 87.5559 316.975 87.5619 316.983 87.5619C318.337 87.6369 319.648 88.0259 320.802 88.6459C320.824 88.6579 320.855 88.6589 320.877 88.6469C323.953 87.0528 325.655 83.6399 324.86 80.5809C324.049 77.4609 320.714 74.9789 317.067 74.7789C317.061 74.7779 317.058 74.7739 317.06 74.7699C319.031 71.1199 315.042 66.2129 310.461 66.6109C310.435 66.6129 310.422 66.5909 310.443 66.5779C312.78 65.0749 313.61 62.0209 312.282 59.7559C310.956 57.4929 307.64 56.2969 304.879 57.0719C304.853 57.0789 304.834 57.0579 304.851 57.0409C308.817 52.9909 304.694 45.4049 298.586 45.5519C298.566 45.5519 298.554 45.5379 298.562 45.5239C299.827 43.1979 297.951 40.2959 295.319 39.1219C292.683 37.9459 289.577 38.0329 286.622 38.1519C286.608 38.1529 286.596 38.1449 286.594 38.1329C286.101 35.4059 285.497 32.4889 283.272 30.5299C281.049 28.5739 276.625 28.3599 275.155 30.7869C275.15 30.7959 275.135 30.7949 275.131 30.7859C273.155 25.0999 264.486 22.1259 258.633 25.1219C258.611 25.1329 258.585 25.1259 258.576 25.1069C256.248 20.4639 247.15 20.4289 244.798 25.0559C244.79 25.0709 244.767 25.0739 244.754 25.0619C238.904 19.8359 227.651 20.6249 222.857 26.6059C218.626 22.2889 208.998 24.3889 207.586 29.9299C207.584 29.9389 207.572 29.9429 207.563 29.9379C201.535 26.5999 192.233 30.1069 190.875 36.2269C190.872 36.2419 190.852 36.2479 190.836 36.2409C185.86 33.8729 178.693 37.3029 178.301 42.2449C178.3 42.2539 178.293 42.2629 178.282 42.2659C172.732 44.0249 169.341 49.8369 170.964 54.8089C170.967 54.8179 170.962 54.8269 170.952 54.8309C168.364 55.9519 167.118 60.0059 166.752 63.3839C166.63 64.5199 165.828 65.5249 164.648 66.0099C162.565 66.8679 159.711 68.8979 159.199 73.8159C158.878 76.8889 162.477 79.6469 164.561 78.7889Z" fill="#94D31A"/>
</svg>
