<svg width="461" height="414" viewBox="0 0 461 414" fill="none" xmlns="http://www.w3.org/2000/svg">
<path d="M79.9348 35.835C76.2538 37.88 72.5918 40.6969 71.4878 44.7589C70.6558 47.8189 71.4217 51.0639 71.3067 54.2329C70.9647 63.6949 63.0057 71.055 54.9177 75.98C46.8307 80.904 37.6958 84.851 32.0088 92.421C26.3218 99.991 26.2667 112.9 34.7157 117.173C15.1327 124.968 2.75373 145.675 0.379726 166.62C-1.21727 180.708 3.7607 198.249 17.5997 201.332C20.0557 201.879 22.8287 202.002 24.6207 203.768C26.8537 205.969 26.4937 209.622 25.7767 212.675C21.6967 230.07 11.4707 245.482 6.8237 262.735C2.1767 279.987 5.31374 301.867 21.1237 310.192C29.1537 314.421 39.3017 314.486 46.1567 320.433C51.6647 325.211 53.7728 332.708 55.7068 339.739C59.3138 352.854 64.1837 367.119 75.9737 373.901C89.9237 381.926 107.648 376.236 123.445 379.308C138.51 382.237 150.783 392.898 164.885 398.952C178.358 404.734 193.647 406.195 207.97 403.07C216.74 401.157 225.312 397.559 234.283 397.829C245.867 398.177 256.145 404.852 266.916 409.132C288.986 417.901 317.425 415.068 332.128 396.419C344.2 381.105 347.913 355.91 366.949 351.68C380.846 348.591 394.917 359.701 408.866 356.864C425.444 353.492 431.964 333.114 431.894 316.196C431.877 311.996 431.674 307.655 433.224 303.752C437.101 293.984 449.807 291.102 456.188 282.753C462.02 275.123 461.461 264.252 458.218 255.213C454.975 246.174 449.43 238.133 445.756 229.26C439.026 213.004 438.991 194.09 445.662 177.81C451.137 164.452 461.107 150.686 456.4 137.039C451.938 124.101 436.186 118.367 429.943 106.187C424.847 96.244 426.837 83.373 420.198 74.385C412.966 64.594 398.322 63.236 390.155 54.211C382.381 45.621 380.866 30.691 369.912 26.918C366.031 25.581 361.796 26.084 357.701 26.381C333.685 28.127 309.163 22.01 288.782 9.18796C282.129 5.00196 275.19 -0.0860099 267.347 0.44199C259.482 0.97199 252.939 7.11096 245.12 8.12296C239.334 8.87196 233.38 6.72698 227.682 7.97898C215.968 10.55 209.092 26.4059 197.151 25.3109C193.388 24.9659 190.05 22.8819 186.721 21.0949C169.332 11.7579 148.141 9.78698 129.234 15.32C120.445 17.892 115.291 23.62 107.653 27.211C98.7867 31.379 88.8308 30.892 79.9348 35.835Z" fill="#7EBB15"/>
<path d="M0.0996094 172.585C0.113609 173.386 0.145684 174.189 0.200684 174.993C0.252684 174.172 0.229609 173.359 0.0996094 172.585Z" fill="#78A015"/>
<path d="M458.212 255.212C454.968 246.173 449.424 238.132 445.75 229.259C439.02 213.003 438.985 194.089 445.656 177.809C451.131 164.451 461.101 150.685 456.394 137.038C452.265 125.067 438.478 119.259 431.494 108.811C432.107 120.424 424.217 132.065 419.567 143.412C412.896 159.692 412.93 178.606 419.661 194.862C423.335 203.735 428.879 211.776 432.123 220.815C435.366 229.854 435.924 240.725 430.093 248.356C423.712 256.705 411.006 259.587 407.129 269.354C405.579 273.258 405.781 277.599 405.799 281.799C405.867 298.716 399.349 319.095 382.771 322.467C368.821 325.304 354.75 314.195 340.854 317.282C321.817 321.513 318.104 346.707 306.032 362.021C291.33 380.671 262.89 383.504 240.821 374.735C230.05 370.456 219.772 363.78 208.188 363.432C199.216 363.162 190.643 366.759 181.875 368.673C167.551 371.798 152.263 370.336 138.79 364.554C124.686 358.501 112.415 347.84 97.3496 344.911C83.9276 342.302 69.1176 346.012 56.4106 342.266C59.9606 354.647 64.9316 367.551 75.9686 373.9C89.9176 381.925 107.643 376.235 123.44 379.307C138.505 382.236 150.777 392.897 164.88 398.951C178.353 404.733 193.641 406.194 207.965 403.069C216.735 401.156 225.307 397.558 234.278 397.828C245.862 398.176 256.14 404.851 266.911 409.131C288.98 417.9 317.42 415.067 332.122 396.418C344.195 381.104 347.908 355.909 366.944 351.679C380.84 348.59 394.911 359.7 408.861 356.863C425.439 353.491 431.959 333.113 431.889 316.195C431.871 311.995 431.669 307.654 433.219 303.751C437.096 293.983 449.802 291.101 456.183 282.752C462.014 275.122 461.455 264.251 458.212 255.212Z" fill="#78A015"/>
<path d="M306.781 50.259C304.513 48.059 301.668 46.032 298.381 46.089C295.906 46.131 293.604 47.351 291.186 47.927C283.969 49.648 276.848 45.5 271.541 40.756C266.235 36.011 261.463 30.317 254.627 27.833C247.792 25.35 238.025 27.99 236.452 34.903C226.724 22.556 208.65 18.029 192.356 20.685C181.397 22.472 169.116 29.664 169.498 40.172C169.566 42.037 170.016 44.039 169.033 45.684C167.807 47.734 164.975 48.235 162.529 48.358C148.584 49.06 134.931 44.968 120.984 45.236C107.035 45.505 91.1146 52.285 87.9206 65.287C86.2986 71.892 88.2376 79.141 85.0856 85.266C82.5546 90.185 77.3016 93.245 72.3676 96.084C63.1626 101.38 53.3375 107.814 50.5215 117.63C47.1895 129.244 54.9615 140.701 55.7355 152.604C56.4735 163.955 50.8216 174.92 49.0106 186.234C47.2806 197.042 49.1705 208.248 54.3395 217.813C57.5035 223.669 61.9016 229.035 63.4556 235.489C65.4626 243.822 62.4315 252.538 61.3085 261.106C59.0055 278.665 66.7176 298.357 83.6926 304.968C97.6316 310.398 117.399 307.814 124.326 320.51C129.383 329.779 123.744 342.119 128.622 351.478C134.418 362.599 151.096 363.017 163.867 359.455C167.038 358.571 170.279 357.525 173.532 357.82C181.674 358.556 186.341 367.018 193.901 369.836C200.809 372.41 208.916 369.755 215.111 365.565C221.306 361.375 226.298 355.752 232.283 351.289C243.25 343.114 257.536 339.162 271.146 340.539C282.314 341.669 294.669 345.922 304.061 339.732C312.964 333.863 314.21 321.44 322.191 314.46C328.707 308.761 338.824 307.507 344.315 300.906C350.297 293.717 348.456 282.992 353.675 275.294C358.644 267.967 369.63 263.786 370.335 255.192C370.585 252.147 369.374 249.231 368.347 246.373C362.323 229.611 362.14 210.853 367.836 193.657C369.696 188.044 372.183 182.039 370.247 176.556C368.306 171.057 362.383 167.666 360.087 162.301C358.388 158.331 358.842 153.639 356.78 149.836C352.542 142.017 339.212 140.406 337.7 131.663C337.223 128.908 338.144 126.095 338.843 123.35C342.493 109.012 339.829 93.49 331.945 81.157C328.279 75.423 322.94 72.937 318.73 68.237C313.842 62.778 312.26 55.577 306.781 50.259Z" fill="#7EBB15"/>
<path d="M187.794 21.723C187.191 21.899 186.591 22.089 185.994 22.295C186.625 22.162 187.235 21.977 187.794 21.723Z" fill="#78A015"/>
<path d="M215.11 365.561C221.305 361.371 226.297 355.748 232.282 351.286C243.248 343.11 257.535 339.159 271.145 340.536C282.312 341.666 294.668 345.918 304.06 339.727C312.297 334.297 313.985 323.259 320.512 316.11C311.856 318.959 301.513 315.75 292.027 314.79C278.417 313.413 264.131 317.364 253.164 325.54C247.179 330.002 242.187 335.625 235.992 339.816C229.797 344.005 221.69 346.661 214.781 344.086C207.221 341.27 202.554 332.807 194.413 332.07C191.159 331.776 187.919 332.821 184.748 333.706C171.977 337.268 155.299 336.851 149.503 325.728C144.625 316.37 150.264 304.03 145.207 294.76C138.28 282.064 118.514 284.648 104.574 279.219C87.5985 272.607 79.8865 252.915 82.1885 235.357C83.3125 226.788 86.3436 218.072 84.3366 209.739C82.7816 203.286 78.3845 197.92 75.2205 192.064C70.0515 182.499 68.1605 171.293 69.8915 160.485C71.7025 149.171 77.3545 138.206 76.6165 126.855C75.9595 116.742 70.2545 106.951 70.5955 97.112C61.9345 102.214 53.1566 108.439 50.5206 117.627C47.1896 129.241 54.9615 140.698 55.7355 152.601C56.4735 163.952 50.8216 174.917 49.0106 186.231C47.2806 197.039 49.1705 208.245 54.3395 217.81C57.5035 223.666 61.9016 229.032 63.4556 235.485C65.4626 243.818 62.4316 252.534 61.3076 261.103C59.0056 278.662 66.7176 298.354 83.6926 304.965C97.6306 310.394 117.399 307.811 124.326 320.507C129.383 329.776 123.744 342.115 128.622 351.475C134.418 362.596 151.096 363.014 163.867 359.452C167.038 358.567 170.278 357.522 173.532 357.816C181.673 358.552 186.341 367.015 193.901 369.832C200.809 372.405 208.915 369.75 215.11 365.561Z" fill="#78A015"/>
<path d="M136.628 109.209C135.048 111.123 133.64 113.478 133.893 116.041C134.082 117.971 135.185 119.687 135.79 121.537C137.598 127.058 134.798 132.89 131.416 137.345C128.033 141.799 123.871 145.9 122.358 151.399C120.845 156.898 123.536 164.349 129.054 165.122C119.993 173.529 117.591 187.937 120.708 200.481C122.805 208.919 129.222 218.032 137.437 217.042C138.894 216.866 140.435 216.383 141.787 217.043C143.472 217.864 144.045 220.042 144.297 221.944C145.733 232.784 143.392 243.711 144.488 254.582C145.584 265.452 151.91 277.435 162.305 279.071C167.585 279.903 173.146 277.912 178.147 279.968C182.165 281.62 184.897 285.52 187.435 289.185C192.171 296.022 197.839 303.268 205.713 304.82C215.028 306.656 223.518 299.835 232.799 298.447C241.652 297.123 250.606 300.813 259.59 301.482C268.173 302.122 276.837 299.908 284.007 295.243C288.398 292.388 292.325 288.601 297.285 286.963C303.69 284.848 310.716 286.641 317.504 286.953C331.415 287.595 346.363 280.277 350.468 266.591C353.839 255.353 350.56 240.092 360.072 233.848C367.016 229.29 377.05 232.88 384.076 228.456C392.427 223.199 391.695 210.152 388.092 200.416C387.197 197.999 386.172 195.538 386.196 192.978C386.257 186.575 392.594 182.373 394.322 176.287C395.901 170.724 393.305 164.571 389.628 160.01C385.949 155.45 381.224 151.924 377.347 147.545C370.242 139.522 366.237 128.63 366.451 117.915C366.628 109.123 369.177 99.197 363.727 92.273C358.561 85.709 348.743 85.554 342.764 79.783C337.883 75.072 336.257 67.257 330.735 63.4051C324.718 59.2091 316.428 61.353 310.062 57.785C304.002 54.389 300.028 46.088 293.245 46.103C290.843 46.108 288.633 47.245 286.458 48.235C273.7 54.042 259.006 55.419 245.164 52.105C240.645 51.023 235.78 49.477 231.605 51.35C227.417 53.228 225.134 58.074 221.075 60.22C218.07 61.808 214.364 61.762 211.512 63.622C205.653 67.445 205.236 77.957 198.478 79.713C196.348 80.267 194.084 79.733 191.889 79.368C180.416 77.463 168.418 80.564 159.249 87.532C154.987 90.771 153.377 95.102 149.96 98.699C145.993 102.873 140.449 104.582 136.628 109.209Z" fill="#7EBB15"/>
<path d="M121.812 203.974C121.99 204.433 122.175 204.89 122.375 205.342C122.229 204.857 122.046 204.393 121.812 203.974Z" fill="#78A015"/>
<path d="M389.625 160.011C385.947 155.451 381.222 151.925 377.344 147.546C370.239 139.524 366.234 128.631 366.449 117.916C366.626 109.123 369.175 99.198 363.725 92.274C358.946 86.201 350.185 85.61 344.165 80.986C346.948 87.555 345.089 95.841 344.938 103.31C344.723 114.025 348.728 124.918 355.833 132.94C359.712 137.319 364.437 140.845 368.115 145.405C371.793 149.966 374.388 156.118 372.809 161.681C371.081 167.768 364.744 171.969 364.683 178.372C364.659 180.932 365.684 183.393 366.579 185.81C370.183 195.545 370.914 208.592 362.563 213.85C355.537 218.274 345.504 214.684 338.559 219.242C329.045 225.485 332.327 240.746 328.955 251.984C324.85 265.671 309.902 272.988 295.99 272.347C289.202 272.034 282.177 270.242 275.771 272.357C270.811 273.995 266.883 277.782 262.494 280.637C255.323 285.301 246.659 287.515 238.076 286.876C229.092 286.207 220.137 282.517 211.285 283.84C203.399 285.02 196.086 290.117 188.351 290.499C192.9 296.925 198.337 303.367 205.707 304.819C215.023 306.655 223.512 299.834 232.794 298.446C241.646 297.123 250.601 300.813 259.585 301.482C268.167 302.121 276.831 299.907 284.002 295.243C288.392 292.387 292.319 288.6 297.28 286.962C303.684 284.847 310.71 286.64 317.499 286.952C331.41 287.594 346.358 280.276 350.463 266.59C353.834 255.352 350.554 240.091 360.067 233.848C367.011 229.289 377.044 232.879 384.071 228.455C392.421 223.198 391.69 210.151 388.087 200.416C387.192 197.999 386.167 195.538 386.191 192.978C386.252 186.575 392.589 182.374 394.318 176.286C395.899 170.725 393.303 164.572 389.625 160.011Z" fill="#78A015"/>
<path d="M299.185 218.685C300.835 217.551 302.436 216.064 302.754 214.143C302.993 212.697 302.462 211.251 302.353 209.793C302.03 205.439 305.449 201.641 309.052 198.952C312.656 196.263 316.812 193.965 319.135 190.192C321.458 186.419 320.821 180.502 316.571 178.997C325.511 174.377 330.351 164.226 330.407 154.504C330.444 147.964 327.168 140.193 320.408 139.522C319.208 139.403 317.881 139.495 316.934 138.781C315.756 137.892 315.741 136.199 315.924 134.762C316.977 126.574 321.062 118.965 322.391 110.811C323.721 102.658 321.099 92.801 313.129 89.833C309.081 88.325 304.238 88.839 300.662 86.481C297.789 84.586 296.397 81.265 295.113 78.147C292.717 72.331 289.662 66.056 283.688 63.58C276.622 60.65 268.46 64.205 260.767 63.644C253.431 63.108 247.028 58.881 239.989 56.863C233.265 54.935 225.898 55.084 219.225 57.283C215.141 58.629 211.237 60.736 206.944 61.093C201.4 61.553 196.154 59.045 190.797 57.661C179.818 54.825 166.399 57.645 160.344 66.977C155.373 74.64 154.899 86.382 146.035 89.339C139.565 91.498 132.282 87.161 125.774 89.208C118.04 91.641 115.976 101.326 116.879 109.073C117.104 110.997 117.423 112.975 116.885 114.846C115.537 119.529 109.625 121.529 107.011 125.696C104.621 129.504 105.447 134.455 107.458 138.423C109.471 142.391 112.529 145.778 114.738 149.647C118.784 156.734 119.772 165.398 117.427 173.214C115.502 179.628 111.454 186.468 114.402 192.469C117.195 198.158 125.004 199.942 128.608 205.188C131.55 209.47 131.263 215.475 134.892 219.237C138.845 223.336 145.9 223.174 150.26 226.872C154.41 230.391 155.901 237.15 161.321 238.293C163.241 238.698 165.234 238.241 167.172 237.885C178.538 235.799 190.55 237.289 200.932 242.073C204.321 243.635 207.893 245.594 211.607 244.932C215.332 244.269 218.136 241.106 221.813 240.223C224.535 239.571 227.485 240.234 230.139 239.356C235.593 237.551 238.058 229.918 243.811 229.781C245.624 229.737 247.324 230.513 249.003 231.154C257.777 234.502 267.986 234.269 276.721 230.722C280.782 229.074 282.947 226.173 286.404 224.118C290.421 221.736 295.195 221.427 299.185 218.685Z" fill="#7EBB15"/>
<path d="M330.233 151.757C330.185 151.391 330.13 151.025 330.062 150.659C330.08 151.038 330.131 151.409 330.233 151.757Z" fill="#78A015"/>
<path d="M107.463 138.426C109.475 142.394 112.533 145.781 114.742 149.65C118.788 156.738 119.777 165.401 117.432 173.218C115.507 179.631 111.459 186.472 114.406 192.473C116.992 197.736 123.867 199.659 127.736 204.072C126.845 198.784 130.01 193.028 131.645 187.58C133.99 179.764 133.001 171.1 128.955 164.012C126.747 160.143 123.688 156.756 121.677 152.788C119.664 148.82 118.839 143.87 121.229 140.061C123.843 135.894 129.756 133.893 131.103 129.21C131.641 127.338 131.322 125.36 131.098 123.437C130.195 115.69 132.256 106.004 139.991 103.571C146.5 101.524 153.783 105.861 160.253 103.702C169.116 100.744 169.591 89.002 174.563 81.34C180.617 72.008 194.037 69.188 205.015 72.024C210.372 73.408 215.619 75.917 221.162 75.456C225.456 75.099 229.359 72.992 233.444 71.646C240.116 69.447 247.484 69.298 254.208 71.227C261.247 73.245 267.648 77.473 274.985 78.008C281.521 78.485 288.395 75.992 294.649 77.028C292.319 71.546 289.284 65.899 283.693 63.581C276.627 60.651 268.464 64.207 260.771 63.646C253.434 63.11 247.033 58.883 239.994 56.864C233.27 54.936 225.903 55.085 219.231 57.284C215.146 58.63 211.242 60.737 206.949 61.094C201.405 61.555 196.159 59.046 190.802 57.662C179.823 54.826 166.404 57.646 160.349 66.978C155.378 74.641 154.903 86.383 146.04 89.34C139.569 91.499 132.286 87.162 125.778 89.209C118.044 91.642 115.982 101.328 116.884 109.075C117.108 110.998 117.428 112.976 116.89 114.848C115.542 119.531 109.63 121.531 107.016 125.699C104.626 129.508 105.451 134.458 107.463 138.426Z" fill="#78A015"/>
<path d="M222.466 80.813C220.954 80.899 219.291 81.261 218.136 82.501C217.266 83.435 216.833 84.709 216.155 85.805C214.13 89.077 210.262 90.298 206.852 90.639C203.442 90.98 199.918 90.798 196.685 92.484C193.452 94.17 190.81 98.704 192.457 101.662C185.039 101.036 177.141 106.195 172.175 113.158C168.835 117.842 166.75 124.873 170.245 128.34C170.865 128.955 171.666 129.475 171.841 130.405C172.059 131.564 171.208 132.788 170.374 133.739C165.621 139.159 159.441 142.825 154.549 148.098C149.656 153.371 146.142 161.612 149.157 167.263C150.688 170.134 153.698 171.903 154.53 175.176C155.199 177.805 154.302 180.807 153.449 183.614C151.856 188.851 150.406 194.71 152.538 199.126C155.061 204.351 161.497 205.398 165.577 209.198C169.469 212.822 170.956 218.686 173.926 223.243C176.763 227.597 181.02 230.742 185.921 232.106C188.922 232.942 192.207 233.151 194.824 234.789C198.203 236.905 199.907 241.023 202.245 244.384C207.035 251.268 216.082 255.164 224.253 251.13C230.963 247.817 237.192 239.588 243.723 241.374C248.491 242.678 250.422 249.01 255.154 250.412C260.778 252.077 266.863 246.026 270.283 240.059C271.132 238.578 271.954 237.015 273.21 235.908C276.351 233.137 280.722 234.309 284.32 232.468C287.608 230.785 289.653 226.863 290.525 223.123C291.397 219.383 291.38 215.599 292.09 211.844C293.392 204.964 297.228 198.301 302.526 193.718C306.873 189.958 312.641 186.829 314.015 181.215C315.317 175.893 311.791 171.164 312.409 165.803C312.913 161.426 316.123 157.238 315.973 152.932C315.81 148.241 311.725 145.243 311.127 140.661C310.559 136.3 313.144 130.784 310.648 127.571C309.763 126.433 308.4 125.881 307.12 125.281C299.612 121.763 293.553 115.39 290.089 107.37C288.959 104.752 287.927 101.767 285.484 100.603C283.034 99.436 279.837 100.471 277.302 99.481C275.426 98.749 274.089 96.97 272.137 96.43C268.125 95.319 262.854 99.718 259.52 97.277C258.469 96.508 257.899 95.2 257.27 93.998C253.991 87.719 248.08 83.379 241.323 82.073C238.182 81.466 235.482 82.595 232.477 82.545C228.987 82.488 226.121 80.604 222.466 80.813Z" fill="#7EBB15"/>
<path d="M170.879 115.209C170.72 115.493 170.566 115.782 170.419 116.074C170.602 115.794 170.761 115.504 170.879 115.209Z" fill="#78A015"/>
<path d="M290.522 223.122C291.394 219.382 291.378 215.598 292.088 211.843C293.389 204.963 297.225 198.3 302.523 193.717C306.87 189.957 312.639 186.828 314.012 181.214C315.216 176.29 312.29 171.873 312.335 166.994C310.156 171.187 305.439 173.927 301.747 177.121C296.448 181.704 292.612 188.367 291.311 195.247C290.601 199.002 290.618 202.787 289.745 206.526C288.873 210.266 286.829 214.188 283.54 215.871C279.942 217.712 275.571 216.54 272.431 219.31C271.175 220.417 270.353 221.98 269.504 223.462C266.084 229.428 259.998 235.48 254.374 233.814C249.643 232.413 247.711 226.081 242.944 224.776C236.414 222.99 230.184 231.219 223.474 234.532C215.303 238.567 206.256 234.67 201.466 227.786C199.128 224.427 197.424 220.308 194.045 218.192C191.427 216.553 188.143 216.344 185.142 215.509C180.24 214.144 175.984 210.999 173.147 206.645C170.177 202.087 168.69 196.223 164.798 192.6C161.331 189.372 156.165 188.129 153.143 184.624C151.682 189.593 150.539 194.991 152.535 199.124C155.058 204.349 161.494 205.396 165.575 209.196C169.466 212.82 170.953 218.684 173.923 223.241C176.76 227.595 181.017 230.739 185.918 232.105C188.919 232.941 192.204 233.15 194.821 234.788C198.201 236.904 199.904 241.022 202.242 244.383C207.032 251.267 216.079 255.163 224.25 251.129C230.961 247.816 237.189 239.586 243.72 241.373C248.488 242.677 250.419 249.009 255.151 250.411C260.775 252.076 266.861 246.025 270.28 240.058C271.129 238.576 271.952 237.014 273.207 235.907C276.349 233.135 280.719 234.308 284.317 232.468C287.606 230.785 289.65 226.862 290.522 223.122Z" fill="#78A015"/>
<path d="M286.41 143.635C284.735 138.221 281.713 133.339 278.722 128.525C277.047 125.83 275.373 123.135 273.699 120.44C272.453 118.435 271.192 116.41 269.525 114.737C267.133 112.337 264.012 110.776 260.793 109.718C250.713 106.404 239.163 107.905 230.266 113.686C228.3 114.963 226.268 116.497 223.924 116.445C222.355 116.41 220.907 115.656 219.459 115.053C211.77 111.85 202.477 112.842 195.636 117.596C188.796 122.35 184.626 130.714 184.947 139.038C177.896 139.78 171.48 144.847 169.126 151.535C166 160.413 174.366 185.854 187.104 183.006C194.008 181.461 198.04 173.536 197.266 166.504C202.647 167.922 208.602 162.632 207.829 157.122C207.519 154.92 206.367 152.939 205.68 150.825C204.005 145.679 205.322 139.674 208.995 135.7C211.814 140.635 218.665 142.773 223.791 140.317C227.281 138.645 231.259 135.185 234.33 137.54C236.905 139.516 235.776 143.514 236.019 146.751C236.443 152.399 241.93 156.6 247.52 157.508C253.11 158.416 258.769 156.814 264.206 155.228C262.013 160.455 266.288 166.914 271.868 167.91C277.448 168.906 283.181 165.266 285.736 160.206C288.289 155.148 288.085 149.049 286.41 143.635Z" fill="#94D31A"/>
<path d="M84.9395 157.607C86.0515 155.224 87.6805 153.063 88.3905 150.531C91.1185 140.8 79.4555 130.794 83.2705 121.435C84.2865 118.942 86.3195 116.919 87.0645 114.332C88.4305 109.586 85.1385 104.905 83.7915 100.153C81.4135 91.772 85.9775 81.987 93.9265 78.422C96.3785 77.322 99.0786 76.757 101.362 75.338C105.718 72.627 107.684 67.441 110.06 62.894C113.254 56.778 118.328 50.888 125.157 49.894C131.985 48.9 139.669 55.547 137.368 62.053C134.657 69.721 122.358 69.751 118.979 77.15C118.087 79.104 117.964 81.341 117.064 83.29C114.43 88.995 106.528 90.061 102.59 94.958C100.611 97.419 99.8336 100.61 99.1966 103.703C93.3786 131.922 94.7885 161.601 103.256 189.142C90.9575 192.101 80.7095 166.672 84.9395 157.607Z" fill="#94D31A"/>
<path d="M289.111 97.818C294.861 100.575 299.59 106.521 298.865 112.856C298.679 114.477 298.186 116.263 299.068 117.636C300.062 119.184 302.209 119.327 304.028 119.601C315.219 121.287 322.092 135.944 316.232 145.625C326.235 147.912 330.582 160.574 328.192 170.553C325.802 180.532 318.872 188.673 313.305 197.294C311.068 200.758 308.954 204.671 309.406 208.77C309.857 212.869 314.074 216.722 317.933 215.27C321.537 213.913 322.428 209.371 324.243 205.974C329.361 196.392 343.9 194.209 347.555 183.979C350.188 176.61 345.8 168.509 346.69 160.735C347.263 155.728 350.022 150.919 349.262 145.938C348.235 139.21 341.407 135.138 337.787 129.375C333.086 121.89 334.081 111.968 329.808 104.229C324.128 93.938 311.223 90.556 299.715 88.161C291.722 86.497 283.577 84.825 275.455 85.646C270.662 86.13 265.798 89.716 270.255 94.113C273.124 96.944 284.861 95.78 289.111 97.818Z" fill="#94D31A"/>
<path d="M229.684 35.99C235.038 33.044 241.625 34.274 247.594 35.582C265.99 39.613 284.486 43.675 301.948 50.724C305.011 51.96 308.195 53.411 310.097 56.111C312.99 60.217 312.252 66.273 315.668 69.954C320.257 74.899 328.274 72.192 334.897 70.908C346.09 68.738 358.231 72.179 366.621 79.901C375.012 87.623 379.446 99.437 378.21 110.772C377.871 113.877 377.136 117.023 377.74 120.088C378.344 123.153 380.841 126.162 383.962 126.017C386.208 125.912 388.079 124.238 389.388 122.409C395.942 113.245 392.549 100.611 388.911 89.948C386.411 82.619 383.86 75.186 379.47 68.808C375.08 62.429 368.538 57.127 360.876 56.002C354.03 54.996 346.36 57.216 340.547 53.462C335.827 50.414 333.946 44.322 329.567 40.804C321.455 34.289 309.189 39.175 299.239 36.135C290.074 33.335 284.073 24.181 275.09 20.843C267.94 18.186 260 19.589 252.509 21.024C242.703 22.902 217.891 22.793 212.434 32.196C210.655 35.263 209.88 39.824 213.144 42.142C218.825 46.177 225.322 38.171 229.684 35.99Z" fill="#94D31A"/>
<path d="M106.46 234.766C107.161 235.185 107.943 235.586 108.312 236.316C108.8 237.283 108.382 238.444 107.922 239.424C105.537 244.518 101.986 250.123 104.184 255.3C106.303 260.293 112.585 261.797 117.997 262.171C123.407 262.545 129.496 262.722 133.191 266.692C135.441 269.109 136.729 272.852 139.924 273.684C141.592 274.118 143.358 273.591 145.075 273.73C148.903 274.038 151.712 277.537 153.154 281.096C154.597 284.656 155.189 288.572 157.125 291.89C159.061 295.207 163.044 297.858 166.653 296.544C169.592 295.475 171.123 292.275 172.039 289.284C173.853 283.357 174.415 276.913 172.68 270.962C170.945 265.012 166.704 259.637 160.923 257.401C157.662 256.14 153.864 255.79 151.356 253.355C145.901 248.06 150.16 236.74 143.792 232.587C141.971 231.4 139.71 231.189 137.591 230.704C132.39 229.514 127.64 226.438 124.426 222.179C123.03 220.328 121.899 218.247 120.19 216.68C105.077 202.83 91.0886 225.597 106.46 234.766Z" fill="#94D31A"/>
<path d="M28.4586 239.8C27.5626 241.804 26.6456 243.967 27.0496 246.125C27.4116 248.061 28.7955 249.688 29.1525 251.624C30.0175 256.316 24.9666 259.639 21.9356 263.322C17.8816 268.245 17.2075 275.578 19.9445 281.338C22.6805 287.099 28.5535 291.141 34.8665 292.049C36.3525 292.263 37.8886 292.323 39.2766 292.899C43.1716 294.512 44.3875 299.274 46.3135 303.025C49.4605 309.154 55.3345 313.331 60.9905 317.265C63.3465 318.903 65.8145 320.587 68.6525 321.006C71.4915 321.425 74.8006 320.153 75.7396 317.442C76.8976 314.099 74.0996 310.764 71.3826 308.5C66.8606 304.731 61.8756 301.495 57.7396 297.305C53.6046 293.116 50.2945 287.687 50.2465 281.801C50.2255 279.293 50.7526 276.584 49.4776 274.425C47.4926 271.063 42.2896 270.944 40.0856 267.721C45.4656 262.891 50.9206 256.016 48.6326 249.158C47.7456 246.503 45.7795 244.314 44.8765 241.665C43.1495 236.598 48.8585 222.72 41.3295 221.724C34.7635 220.853 30.1876 235.93 28.4586 239.8Z" fill="#94D31A"/>
<path d="M17.8379 146.133C15.7679 152.358 15.7599 159.053 15.7739 165.613C15.7769 167.501 15.8519 169.581 17.1289 170.971C19.0119 173.019 22.6078 172.595 24.5158 174.62C26.9548 177.212 25.2058 182.212 27.9708 184.454C30.5228 186.525 34.3729 184.181 36.0969 181.384C39.5219 175.823 39.1769 168.183 35.2649 162.954C33.1649 160.148 30.0508 157.771 29.5528 154.302C29.1388 151.416 30.7258 148.6 32.6838 146.439C36.1218 142.643 47.4238 130.099 35.7158 128.513C28.4648 127.531 19.6399 140.717 17.8379 146.133Z" fill="#94D31A"/>
<path d="M141.485 37.599C143.277 37.772 145.191 38.052 146.515 39.271C148.141 40.768 148.386 43.189 149.076 45.289C150.711 50.269 155.578 54.012 160.81 54.314C166.043 54.616 171.308 51.458 173.505 46.699C174.943 43.584 175.152 39.939 177.018 37.06C177.774 35.893 178.814 34.812 178.981 33.433C179.351 30.365 175.526 28.727 172.498 28.113C167.063 27.011 161.628 25.909 156.191 24.807C153.187 24.198 150.149 23.586 147.086 23.693C144.073 23.799 141.134 24.595 138.226 25.388C131.176 27.309 68.9546 38.127 86.7836 52.797C93.7456 58.526 102.695 45.148 109.433 42.052C119.326 37.509 130.757 36.561 141.485 37.599Z" fill="#94D31A"/>
<path d="M139.117 133.774C139.038 129.973 140.769 125.876 144.225 124.293C146.285 123.351 148.646 123.405 150.849 122.88C153.399 122.273 155.691 120.903 157.937 119.553C161.432 117.451 164.927 115.35 168.422 113.249C170.562 111.962 172.765 110.619 174.205 108.579C177.213 104.32 176.149 98.181 179.019 93.829C180.483 91.61 182.827 90.108 185.276 89.074C188.846 87.566 193.078 86.968 196.529 88.731C199.981 90.494 202.01 95.208 199.937 98.482C197.647 102.098 192.205 102.095 189.111 105.053C186.39 107.655 186.116 111.87 184.287 115.16C181.691 119.827 176.27 122.17 172.914 126.324C170.209 129.673 168.822 134.211 165.226 136.577C163.515 137.702 161.439 138.223 159.831 139.492C157.03 141.701 156.286 145.659 156.488 149.22C156.69 152.791 157.462 156.123 157.158 159.661C145.248 162.579 139.302 142.581 139.117 133.774Z" fill="#94D31A"/>
<path d="M218.056 83.696C214.188 85.537 211.457 89.566 211.18 93.839C211.12 94.763 211.177 95.732 211.626 96.541C213.532 99.971 219.073 97.149 222.647 98.772C223.812 99.301 224.692 100.29 225.694 101.086C230.251 104.704 237.294 103.892 241.833 100.253C246.371 96.613 248.679 90.776 249.374 85C249.52 83.794 249.544 82.41 248.678 81.559C247.997 80.892 246.97 80.7621 246.02 80.6891C236.219 79.9391 226.248 81.537 217.172 85.311L218.056 83.696Z" fill="#94D31A"/>
</svg>
