<svg width="477" height="437" viewBox="0 0 477 437" fill="none" xmlns="http://www.w3.org/2000/svg">
<path d="M75.0874 123.513C57.4484 124.68 39.1524 126.032 23.6924 134.603C8.23235 143.175 -3.51463 161.178 0.962373 178.279C6.15637 198.126 28.8952 207.041 48.8652 211.739C38.2962 221.42 27.5402 231.334 20.5942 243.871C13.6482 256.408 11.0533 272.256 17.4663 285.073C28.2073 306.541 57.6952 309.986 81.2282 305.252C59.4372 326.144 54.8362 364.087 74.2502 387.203C93.6642 410.319 135.689 410.308 152.242 385.063C152.986 410.054 173.809 432.917 198.623 435.985C223.436 439.054 249.201 421.953 256.012 397.896C261.224 414.552 275.127 428.218 291.87 433.143C308.613 438.068 327.701 434.107 341.102 422.927C353.964 412.197 360.978 392.092 351.352 378.384C365.79 383.987 381.889 386.588 396.843 382.56C411.798 378.533 425.248 366.971 428.652 351.863C432.056 336.755 423.189 319.057 408.195 315.177C422.386 311.808 436.792 308.356 449.492 301.183C462.191 294.01 473.183 282.486 476.274 268.232C481.687 243.266 456.201 217.032 431.089 221.722C442.953 214.732 455.068 207.532 463.862 196.935C472.657 186.339 477.62 171.491 472.971 158.529C468.835 146.994 457.806 138.977 446.048 135.523C434.291 132.069 421.772 132.528 409.552 133.456C424.37 117.884 438.521 96.52 431.176 76.318C426.973 64.758 415.541 56.196 403.266 55.416C390.991 54.636 378.566 61.681 372.932 72.615C381.972 47.764 363.259 17.458 337.233 12.782C311.206 8.10596 283.893 28.269 278.966 54.249C288.783 31.33 269.654 1.95197 244.789 0.0999695C219.925 -1.75203 197.057 22.433 198.633 47.316C197.081 28.928 178.391 13.837 160.088 16.195C141.785 18.553 127.531 37.888 130.692 56.069C127.586 38.604 100.881 31.643 89.6423 45.365C82.8143 53.701 85.8532 64.526 88.5722 73.247C58.8012 72.086 51.5884 108.091 75.0874 123.513Z" fill="#78A015"/>
<path d="M129.383 103.527C117.824 105.566 105.375 109.422 99.1002 119.341C92.8262 129.259 98.1742 146.076 109.911 146.136C93.6992 151.25 77.7352 162.39 73.9402 178.96C70.1452 195.53 85.1881 215.485 101.632 211.176C88.3681 220.131 78.4711 236.085 81.5821 251.782C84.6941 267.479 104.683 278.821 117.937 269.855C112.972 280.212 107.908 290.973 107.679 302.456C107.45 313.938 113.462 326.392 124.401 329.892C135.869 333.562 147.769 326.606 157.803 319.951C145.907 339.609 155.613 368.874 176.896 377.529C198.18 386.184 225.554 371.997 230.753 349.616C242.91 364.498 262.296 374.6 281.255 371.467C300.214 368.333 316.403 349.258 312.583 330.426C326.018 341.583 345.645 344.72 361.888 338.309C369.583 335.271 376.713 329.973 380.239 322.489C383.763 315.006 382.928 305.198 376.931 299.5C387.71 303.855 399.849 297.102 407.967 288.779C415.783 280.767 422.091 270.067 420.772 258.952C419.453 247.838 407.63 237.896 397.168 241.872C404.572 236.088 412.132 230.135 417.096 222.158C422.059 214.18 423.978 203.633 419.5 195.374C412.572 182.595 395.123 181.167 380.588 181.348C393.276 178.441 401.907 164.628 400.411 151.699C398.914 138.769 388.502 127.776 376.044 124.006C363.586 120.236 349.664 123.126 338.697 130.136C345.674 123.468 352.825 116.554 356.68 107.707C360.536 98.86 360.294 87.495 353.507 80.634C348.943 76.019 342.247 74.165 335.778 73.641C322.847 72.594 309.585 76.282 299.05 83.854C306.113 75.045 301.62 60.559 291.845 54.908C282.071 49.257 269.326 51.131 259.59 56.849C249.855 62.567 242.535 71.557 235.687 80.534C240.563 69.648 232.016 55.179 220.129 54.194C208.195 53.205 198.23 65.517 200.325 76.907C195.85 27.394 107.34 58.486 129.383 103.527Z" fill="#7EBB15"/>
<path d="M186.087 113.45C187.907 103.699 197.696 95.8969 207.557 96.9749C217.418 98.0529 225.418 108.472 223.287 118.159C230.557 105.87 243.255 95.1219 257.488 96.2539C271.72 97.3849 283.172 115.866 274.044 126.845C284.981 122.113 296.92 118.695 308.731 120.277C320.54 121.86 332.124 129.386 335.688 140.755C339.254 152.124 332.193 166.494 320.41 168.261C332.973 171.06 346.041 176.214 352.999 187.041C359.958 197.869 357.107 215.391 344.942 219.595C358.264 220.83 369.144 234.353 367.499 247.63C365.853 260.908 352.001 271.365 338.78 269.31C343.495 285.789 326.513 300.65 310.128 305.678C303.993 307.561 297.301 308.764 291.222 306.707C285.144 304.649 280.101 298.393 281.368 292.102C268.741 305.675 249.658 312.96 231.198 311.254C220.181 310.235 207.161 302.286 209.683 291.513C194.329 293.368 177.208 285.581 171.834 271.079C166.461 256.576 177.479 237.451 192.939 237.838C180.861 239.03 168.484 237.058 157.374 232.171C152.613 230.077 147.708 227.016 146.123 222.062C144.147 215.884 148.387 209.094 154.073 205.975C159.761 202.856 166.505 202.514 172.986 202.242C159.269 200.091 146.951 186.925 149.379 173.254C151.806 159.583 172.461 152.389 180.793 163.496C170.171 162.717 162.79 149.269 167.835 139.89C172.465 131.284 182.334 133.033 189.749 130.696C186.918 125.628 184.995 119.301 186.087 113.45Z" fill="#94D31A"/>
</svg>
