<svg width="484" height="453" viewBox="0 0 484 453" fill="none" xmlns="http://www.w3.org/2000/svg">
<path d="M11.4737 125.88C-6.26629 168.172 -3.2753 218.607 19.3387 258.505C21.4887 262.3 23.8179 266.027 25.3529 270.11C27.9259 276.962 28.1328 284.429 28.7708 291.72C34.4128 356.167 79.0849 415.626 139.415 438.985C177.422 453.701 219.588 454.637 259.943 448.928C289.797 444.704 319.793 436.665 344.662 419.615C369.53 402.565 388.724 375.36 390.503 345.261C422.161 340.598 444.924 312.363 459.312 283.779C482.082 238.543 492.032 184.752 475.969 136.722C459.907 88.6932 413.858 49.2842 363.234 50.6932C364.088 36.8392 349.95 27.2022 337.229 21.6462C279.502 -3.5668 212.529 -6.9088 152.579 12.4322C135.771 17.8552 126.667 27.2022 112.573 36.3382C101.322 43.6312 87.5588 46.6542 75.8128 53.4432C47.3868 69.8722 24.1947 95.5512 11.4737 125.88Z" fill="#7EBB15"/>
<path d="M49.8108 130.656C52.6618 130.656 55.3927 128.149 55.2607 125.206C55.1277 122.253 52.8658 119.756 49.8108 119.756C46.9598 119.756 44.2286 122.263 44.3606 125.206C44.4916 128.159 46.7548 130.656 49.8108 130.656Z" fill="#94D31A"/>
<path d="M48.3879 130.337C54.1379 131.556 59.7538 133.32 65.1708 135.604C64.7358 135.421 64.3029 135.238 63.8679 135.055C66.5199 136.184 69.116 137.432 71.654 138.799C74.163 140.151 77.7038 139.507 79.1108 136.843C80.4508 134.306 79.836 130.83 77.155 129.386C69.042 125.016 60.3028 121.738 51.2858 119.826C48.5038 119.236 45.262 120.645 44.581 123.633C43.958 126.369 45.4049 129.704 48.3879 130.337Z" fill="#94D31A"/>
<path d="M52.5066 174.117C60.6536 169.534 68.8017 164.952 76.9497 160.368C79.4357 158.97 80.4818 155.357 78.9048 152.911C77.2838 150.396 74.1077 149.459 71.4478 150.956C63.2998 155.538 55.1516 160.121 47.0046 164.704C44.5186 166.103 43.4728 169.716 45.0498 172.161C46.6708 174.676 49.8466 175.614 52.5066 174.117Z" fill="#94D31A"/>
<path d="M63.5598 217.734C66.4108 217.734 69.1417 215.227 69.0097 212.284C68.8777 209.331 66.6148 206.834 63.5598 206.834C60.7088 206.834 57.9776 209.341 58.1096 212.284C58.2406 215.236 60.5038 217.734 63.5598 217.734Z" fill="#94D31A"/>
<path d="M67.4479 216.174C74.4939 209.466 81.5399 202.759 88.5849 196.051C90.6539 194.081 90.7179 190.301 88.5849 188.344C86.3649 186.306 83.0849 186.242 80.8769 188.344C73.8319 195.051 66.7859 201.759 59.7399 208.467C57.6709 210.437 57.6069 214.217 59.7399 216.175C61.9599 218.212 65.2409 218.276 67.4479 216.174Z" fill="#94D31A"/>
<path d="M93.4028 154.959C96.8008 159.167 100.201 163.374 103.6 167.582C104.422 168.601 106.204 169.178 107.454 169.178C108.79 169.178 110.388 168.584 111.308 167.582C112.261 166.543 112.97 165.18 112.905 163.728C112.84 163.245 112.775 162.762 112.71 162.279C112.451 161.356 111.984 160.554 111.309 159.874C107.911 155.667 104.511 151.459 101.113 147.252C100.29 146.233 98.509 145.655 97.259 145.655C95.922 145.655 94.325 146.249 93.405 147.252C92.451 148.291 91.7428 149.654 91.8078 151.106C91.8728 151.589 91.9379 152.072 92.0019 152.555C92.2599 153.477 92.7278 154.279 93.4028 154.959Z" fill="#94D31A"/>
<path d="M104.807 127.601C107.659 127.601 110.389 125.094 110.256 122.151C110.124 119.198 107.862 116.7 104.807 116.7C101.956 116.7 99.2256 119.207 99.3566 122.151C99.4886 125.103 101.751 127.601 104.807 127.601Z" fill="#94D31A"/>
<path d="M107.551 126.843C115.244 122.876 122.938 118.909 130.631 114.943C133.17 113.634 134.123 109.87 132.586 107.486C130.918 104.898 127.845 104.131 125.129 105.531C117.436 109.498 109.743 113.465 102.05 117.431C99.5105 118.74 98.5575 122.504 100.093 124.888C101.762 127.477 104.835 128.244 107.551 126.843Z" fill="#94D31A"/>
<path d="M84.2649 106.198C88.8719 102.151 93.4789 98.1051 98.0859 94.0581C99.0949 93.1721 99.6829 91.5101 99.6829 90.2041C99.6829 88.8671 99.0889 87.2701 98.0859 86.3501C97.0479 85.3961 95.6839 84.6891 94.2319 84.7541C92.7339 84.8211 91.5079 85.3561 90.3779 86.3501C85.7709 90.3961 81.1639 94.4431 76.5569 98.4901C75.5479 99.3761 74.9609 101.038 74.9609 102.344C74.9609 103.681 75.5549 105.277 76.5569 106.198C77.5959 107.151 78.9589 107.859 80.4109 107.794C81.9089 107.727 83.1339 107.192 84.2649 106.198Z" fill="#94D31A"/>
<path d="M129.39 68.9091C138.025 70.0821 146.66 71.2541 155.296 72.4271C156.817 72.6331 158.111 72.6881 159.496 71.8781C160.626 71.2161 161.705 69.9201 162.001 68.6211C162.319 67.2261 162.251 65.6601 161.452 64.4211C160.742 63.3211 159.556 62.1021 158.193 61.9171C149.557 60.7441 140.922 59.5721 132.286 58.3991C130.765 58.1921 129.472 58.1381 128.087 58.9481C126.956 59.6101 125.878 60.9061 125.583 62.2051C125.265 63.6011 125.332 65.1661 126.131 66.4051C126.84 67.5051 128.026 68.7241 129.39 68.9091Z" fill="#94D31A"/>
<path d="M136.904 93.8102C144.023 94.4292 151.143 95.0482 158.262 95.6672C159.582 95.7822 161.21 94.9772 162.116 94.0712C163.06 93.1262 163.773 91.5742 163.713 90.2172C163.57 87.0522 161.313 85.0322 158.262 84.7662C151.143 84.1472 144.023 83.5282 136.904 82.9102C135.585 82.7952 133.956 83.6002 133.05 84.5062C132.105 85.4512 131.394 87.0022 131.454 88.3602C131.596 91.5252 133.853 93.5452 136.904 93.8102Z" fill="#94D31A"/>
<path d="M191.667 94.1331C197.388 85.0411 203.106 75.9491 208.826 66.8581C210.347 64.4411 209.415 60.7451 206.87 59.4011C204.187 57.9831 201.036 58.7761 199.413 61.3561C193.694 70.4481 187.975 79.5401 182.255 88.6311C180.734 91.0481 181.666 94.7441 184.21 96.0881C186.894 97.5071 190.044 96.7141 191.667 94.1331Z" fill="#94D31A"/>
<path d="M175.501 48.6881C175.946 46.6921 176.567 44.7491 177.356 42.8621C177.173 43.2961 176.99 43.7301 176.807 44.1641C177.946 41.4981 179.408 38.9951 181.172 36.6961C180.889 37.0641 180.604 37.4311 180.32 37.7991C180.843 37.1281 181.388 36.4761 181.957 35.8441C182.924 34.7691 183.555 33.4651 183.555 31.9901C183.555 30.6531 182.96 29.0561 181.957 28.1361C179.877 26.2261 176.285 25.8711 174.25 28.1361C169.754 33.1381 166.458 39.2071 164.988 45.7911C164.671 47.2131 164.789 48.7101 165.538 49.9911C166.199 51.1211 167.496 52.2001 168.795 52.4961C171.56 53.1241 174.837 51.6641 175.501 48.6881Z" fill="#94D31A"/>
<path d="M208.689 37.4671C217.346 37.4671 226.003 37.4671 234.66 37.4671C237.512 37.4671 240.242 34.9602 240.111 32.0172C239.978 29.0642 237.716 26.5671 234.66 26.5671C226.004 26.5671 217.347 26.5671 208.689 26.5671C205.838 26.5671 203.107 29.0742 203.24 32.0172C203.371 34.9702 205.634 37.4671 208.689 37.4671Z" fill="#94D31A"/>
<path d="M263.773 40.7851C266.288 46.4001 268.802 52.0161 271.318 57.6321C271.841 58.8001 273.394 59.8111 274.575 60.1361C275.88 60.4951 277.617 60.3331 278.775 59.5871C279.939 58.8361 280.963 57.7191 281.279 56.3301C281.625 54.8151 281.361 53.5391 280.73 52.1301C278.215 46.5141 275.701 40.8991 273.185 35.2831C272.662 34.1141 271.109 33.1041 269.928 32.7791C268.623 32.4201 266.886 32.5821 265.728 33.3281C264.564 34.0791 263.54 35.1961 263.224 36.5851C262.878 38.1001 263.142 39.3761 263.773 40.7851Z" fill="#94D31A"/>
<path d="M243.369 83.8441C243.559 85.0131 243.733 86.1851 243.892 87.3601C243.827 86.8771 243.762 86.3941 243.698 85.9111C244.817 94.3761 245.052 102.935 244.395 111.449C244.175 114.299 247.059 117.024 249.845 116.899C252.986 116.758 255.06 114.501 255.295 111.449C256.082 101.245 255.519 91.0411 253.879 80.9461C253.674 79.6811 252.434 78.3081 251.375 77.6891C250.207 77.0051 248.484 76.7161 247.175 77.1401C245.857 77.5671 244.584 78.3841 243.918 79.6451C243.193 81.0181 243.122 82.3191 243.369 83.8441Z" fill="#94D31A"/>
<path d="M199.916 146.586C200.974 147.307 202.009 148.057 203.024 148.836C202.656 148.552 202.289 148.268 201.92 147.984C205.783 150.97 209.302 154.372 212.414 158.134C213.254 159.151 215.002 159.731 216.268 159.731C217.605 159.731 219.202 159.137 220.122 158.134C221.076 157.095 221.784 155.732 221.719 154.28C221.651 152.759 221.09 151.595 220.122 150.426C215.895 145.315 210.893 140.909 205.418 137.173C204.298 136.408 202.488 136.274 201.218 136.623C199.954 136.971 198.584 137.949 197.961 139.128C197.293 140.393 196.958 141.925 197.411 143.328C197.866 144.733 198.692 145.751 199.916 146.586Z" fill="#94D31A"/>
<path d="M164.655 155.965C167.345 157.122 169.877 158.607 172.204 160.385C171.836 160.101 171.469 159.817 171.1 159.533C172.283 160.447 173.406 161.43 174.466 162.483C175.46 163.47 176.917 164.08 178.32 164.08C179.657 164.08 181.254 163.486 182.174 162.483C183.127 161.444 183.835 160.081 183.77 158.629C183.706 157.187 183.219 155.813 182.174 154.775C178.725 151.351 174.625 148.475 170.156 146.552C169.531 146.154 168.855 145.938 168.13 145.905C167.405 145.743 166.682 145.776 165.957 146.003C164.692 146.351 163.322 147.329 162.699 148.507C162.031 149.772 161.696 151.304 162.15 152.707C162.557 153.962 163.387 155.42 164.655 155.965Z" fill="#94D31A"/>
<path d="M145.665 202.98C146.016 204.694 146.309 206.416 146.546 208.15C146.482 207.667 146.416 207.184 146.351 206.701C147.129 212.604 147.214 218.57 146.596 224.492C146.46 225.796 147.302 227.456 148.193 228.346C149.138 229.291 150.689 230.003 152.047 229.943C153.456 229.879 154.918 229.417 155.901 228.346C156.935 227.22 157.339 226.008 157.498 224.492C158.349 216.34 157.82 208.107 156.178 200.082C155.605 197.284 152.145 195.411 149.474 196.275C146.507 197.235 145.051 199.983 145.665 202.98Z" fill="#94D31A"/>
<path d="M94.113 258.981C96.964 258.981 99.6949 256.474 99.5629 253.53C99.4299 250.577 97.168 248.08 94.113 248.08C91.262 248.08 88.5308 250.587 88.6628 253.53C88.7948 256.484 91.058 258.981 94.113 258.981Z" fill="#94D31A"/>
<path d="M88.9962 254.941C90.4102 260.065 91.8254 265.188 93.2404 270.311C93.9994 273.059 97.1424 275.025 99.9454 274.118C102.754 273.209 104.564 270.358 103.752 267.414C102.337 262.29 100.922 257.167 99.5075 252.043C98.7485 249.296 95.6063 247.33 92.8033 248.236C89.9943 249.146 88.1832 251.997 88.9962 254.941Z" fill="#94D31A"/>
<path d="M55.4067 290.065C56.9867 293.606 58.5658 297.148 60.1458 300.689C60.6668 301.858 62.2238 302.869 63.4038 303.194C64.7078 303.553 66.4448 303.391 67.6028 302.645C68.7668 301.895 69.7907 300.777 70.1077 299.388C70.1717 298.905 70.2378 298.422 70.3018 297.939C70.2988 296.955 70.0506 296.038 69.5576 295.188C67.9786 291.646 66.3986 288.105 64.8186 284.564C64.2976 283.395 62.7408 282.384 61.5608 282.059C60.2558 281.7 58.5198 281.862 57.3618 282.609C56.1978 283.359 55.1737 284.476 54.8567 285.866C54.7917 286.349 54.7266 286.832 54.6626 287.315C54.6656 288.298 54.9137 289.215 55.4067 290.065Z" fill="#94D31A"/>
<path d="M76.3756 343.399C81.9186 347.551 87.4615 351.703 93.0045 355.856C94.0625 356.648 95.9915 356.739 97.2035 356.405C98.4685 356.057 99.8386 355.079 100.462 353.9C101.13 352.635 101.465 351.103 101.011 349.7C100.547 348.265 99.7055 347.341 98.5065 346.443C92.9635 342.291 87.4206 338.139 81.8776 333.986C80.8196 333.194 78.8906 333.103 77.6786 333.437C76.4136 333.785 75.0436 334.763 74.4206 335.942C73.7526 337.207 73.4175 338.739 73.8715 340.142C74.3355 341.576 75.1766 342.5 76.3756 343.399Z" fill="#94D31A"/>
<path d="M139.943 384.251C146.563 384.251 153.183 384.251 159.803 384.251C162.654 384.251 165.385 381.744 165.253 378.801C165.121 375.848 162.857 373.35 159.803 373.35C153.183 373.35 146.563 373.35 139.943 373.35C137.092 373.35 134.361 375.857 134.493 378.801C134.626 381.753 136.888 384.251 139.943 384.251Z" fill="#94D31A"/>
<path d="M135.364 314.098C143.757 313.811 151.782 311.9 159.495 308.642C160.66 308.15 161.683 306.538 162.001 305.385C162.359 304.08 162.198 302.343 161.451 301.185C160.701 300.021 159.584 298.997 158.194 298.68C156.664 298.332 155.423 298.626 153.994 299.23C153.891 299.273 153.789 299.316 153.686 299.36C154.12 299.177 154.554 298.993 154.989 298.81C150.152 300.82 145.087 302.19 139.897 302.899C140.38 302.834 140.864 302.769 141.346 302.704C139.36 302.964 137.366 303.129 135.364 303.197C132.518 303.294 129.779 305.634 129.914 308.647C130.042 311.518 132.312 314.203 135.364 314.098Z" fill="#94D31A"/>
<path d="M173.551 255.964C178.116 257.543 182.683 259.121 187.247 260.699C188.533 261.143 190.302 260.82 191.447 260.149C192.577 259.487 193.656 258.192 193.952 256.892C194.643 253.857 193.033 251.186 190.145 250.187C185.579 248.608 181.014 247.03 176.448 245.452C175.163 245.008 173.393 245.331 172.249 246.001C171.118 246.663 170.04 247.959 169.744 249.258C169.053 252.294 170.663 254.965 173.551 255.964Z" fill="#94D31A"/>
<path d="M233.359 266.047C236.893 267.643 240.426 269.238 243.961 270.833C244.587 271.231 245.262 271.447 245.987 271.48C246.712 271.642 247.436 271.609 248.161 271.382C249.425 271.034 250.795 270.056 251.418 268.878C252.087 267.613 252.421 266.081 251.968 264.678C251.558 263.409 250.732 261.993 249.463 261.421C245.929 259.825 242.395 258.23 238.86 256.635C238.235 256.237 237.559 256.021 236.835 255.988C236.11 255.826 235.386 255.858 234.661 256.085C233.397 256.434 232.026 257.411 231.403 258.59C230.735 259.855 230.4 261.387 230.854 262.79C231.265 264.058 232.091 265.474 233.359 266.047Z" fill="#94D31A"/>
<path d="M229.273 209.948C230.877 208.44 232.55 207.019 234.267 205.64C235.008 205.045 233.498 206.221 234.033 205.818C234.241 205.66 234.449 205.501 234.659 205.344C235.12 204.999 235.586 204.66 236.055 204.326C236.951 203.688 237.86 203.07 238.783 202.472C242.475 200.078 246.378 198.022 250.429 196.308C249.995 196.491 249.562 196.674 249.127 196.857C249.417 196.736 249.707 196.616 249.998 196.497C251.367 195.938 252.478 195.32 253.255 193.993C253.939 192.825 254.229 191.103 253.805 189.793C253.378 188.475 252.561 187.202 251.3 186.536C250.093 185.898 248.427 185.446 247.101 185.987C237.64 189.848 229.028 195.231 221.566 202.241C219.484 204.198 219.443 208 221.566 209.949C223.798 211.997 227.052 212.035 229.273 209.948Z" fill="#94D31A"/>
<path d="M289.191 167.823C295.87 163.99 302.053 159.18 307.402 153.64C309.383 151.587 309.596 147.947 307.402 145.932C305.257 143.964 301.809 143.741 299.694 145.932C297.102 148.616 294.325 151.107 291.378 153.394C291.745 153.11 292.113 152.826 292.482 152.542C289.685 154.695 286.751 156.654 283.69 158.41C281.216 159.829 280.148 163.407 281.735 165.867C283.344 168.365 286.544 169.342 289.191 167.823Z" fill="#94D31A"/>
<path d="M282.816 133.643C286.38 130.078 289.945 126.514 293.509 122.949C294.498 121.961 295.106 120.493 295.106 119.095C295.106 117.759 294.512 116.161 293.509 115.241C292.471 114.288 291.107 113.58 289.655 113.645C288.209 113.71 286.843 114.198 285.801 115.241C282.237 118.806 278.672 122.37 275.108 125.935C274.12 126.923 273.511 128.392 273.511 129.789C273.511 131.126 274.105 132.723 275.108 133.643C276.147 134.597 277.51 135.304 278.962 135.239C280.408 135.175 281.773 134.686 282.816 133.643Z" fill="#94D31A"/>
<path d="M300.398 90.7722C308.103 94.1852 315.808 97.5992 323.513 101.013C324.899 101.627 326.192 101.981 327.713 101.562C328.978 101.214 330.347 100.236 330.971 99.0572C331.639 97.7922 331.974 96.2602 331.52 94.8572C331.112 93.5942 330.284 92.1622 329.015 91.6002C321.31 88.1862 313.605 84.7732 305.9 81.3592C304.514 80.7452 303.221 80.3912 301.7 80.8102C300.436 81.1582 299.066 82.1362 298.443 83.3152C297.774 84.5802 297.439 86.1122 297.893 87.5152C298.302 88.7782 299.129 90.2102 300.398 90.7722Z" fill="#94D31A"/>
<path d="M303.405 43.5781C306.256 43.5781 308.987 41.0711 308.855 38.1281C308.723 35.1751 306.46 32.6781 303.405 32.6781C300.553 32.6781 297.823 35.1851 297.955 38.1281C298.087 41.0811 300.35 43.5781 303.405 43.5781Z" fill="#94D31A"/>
<path d="M302.088 43.0361C308.716 45.5611 315.344 48.0861 321.972 50.6121C323.22 51.0881 325.062 50.7121 326.172 50.0631C327.302 49.4011 328.381 48.1051 328.677 46.8061C328.995 45.4111 328.925 43.8451 328.127 42.6061C327.316 41.3501 326.264 40.6321 324.869 40.1011C318.241 37.5761 311.613 35.0511 304.985 32.5251C303.737 32.0501 301.894 32.4251 300.785 33.0751C299.655 33.7371 298.578 35.0331 298.282 36.3321C297.964 37.7281 298.033 39.2931 298.831 40.5321C299.642 41.7881 300.693 42.5051 302.088 43.0361Z" fill="#94D31A"/>
<path d="M21.8915 192.393C20.7195 183.246 19.5476 174.1 18.3756 164.954C18.1836 163.452 17.8957 162.215 16.7797 161.1C15.8347 160.155 14.2837 159.443 12.9257 159.503C11.5167 159.567 10.0537 160.029 9.07167 161.1C8.16667 162.086 7.2965 163.559 7.4745 164.954C8.6465 174.1 9.81862 183.246 10.9906 192.393C11.1826 193.895 11.4715 195.132 12.5875 196.247C13.5325 197.192 15.0835 197.904 16.4415 197.843C17.8515 197.78 19.3135 197.317 20.2955 196.247C21.2005 195.261 22.0695 193.787 21.8915 192.393Z" fill="#94D31A"/>
<path d="M24.0343 232.426C29.7553 236.325 35.4745 240.225 41.1955 244.124C43.5575 245.734 47.3423 244.648 48.6523 242.169C50.1133 239.405 49.2174 236.43 46.6974 234.712C40.9764 230.813 35.2573 226.913 29.5363 223.014C27.1743 221.404 23.3893 222.49 22.0793 224.97C20.6193 227.733 21.5143 230.708 24.0343 232.426Z" fill="#94D31A"/>
<path d="M63.5598 242.176C66.4108 242.176 69.1417 239.669 69.0097 236.726C68.8777 233.773 66.6148 231.276 63.5598 231.276C60.7088 231.276 57.9776 233.783 58.1096 236.726C58.2406 239.679 60.5038 242.176 63.5598 242.176Z" fill="#94D31A"/>
<path d="M67.5764 239.248C73.1264 234.604 78.6775 229.96 84.2275 225.316C85.2425 224.467 85.8245 222.735 85.8245 221.462C85.8245 220.126 85.2305 218.528 84.2275 217.608C83.1885 216.655 81.8255 215.947 80.3735 216.012C78.8575 216.08 77.6835 216.636 76.5195 217.608C70.9685 222.252 65.4174 226.896 59.8684 231.54C58.8534 232.389 58.2715 234.121 58.2715 235.394C58.2715 236.731 58.8654 238.328 59.8684 239.248C60.9064 240.202 62.2704 240.909 63.7224 240.844C65.2384 240.776 66.4134 240.22 67.5764 239.248Z" fill="#94D31A"/>
<path d="M106.265 221.116C110.372 228.736 114.48 236.357 118.587 243.977C119.941 246.49 123.629 247.489 126.044 245.932C128.595 244.287 129.448 241.163 127.999 238.475C123.892 230.855 119.784 223.235 115.677 215.614C114.323 213.101 110.635 212.102 108.22 213.659C105.669 215.304 104.815 218.428 106.265 221.116Z" fill="#94D31A"/>
<path d="M130.775 181.021C136.628 180.719 142.389 179.011 147.335 175.83C148.52 175.068 149.46 173.952 149.839 172.573C150.199 171.268 150.036 169.531 149.29 168.373C147.746 165.978 144.397 164.768 141.833 166.418C140.481 167.287 139.065 168.038 137.589 168.673C138.024 168.49 138.457 168.306 138.892 168.124C136.592 169.089 134.192 169.75 131.722 170.097C132.204 170.032 132.688 169.967 133.171 169.902C132.374 170.006 131.577 170.08 130.775 170.121C129.334 170.195 127.96 170.678 126.921 171.717C125.976 172.662 125.265 174.214 125.325 175.571C125.388 176.981 125.85 178.443 126.921 179.425C127.956 180.374 129.327 181.095 130.775 181.021Z" fill="#94D31A"/>
<path d="M51.3383 101.63C54.1893 101.63 56.9203 99.1231 56.7873 96.1801C56.6553 93.2271 54.3923 90.7301 51.3383 90.7301C48.4863 90.7301 45.7554 93.2371 45.8874 96.1801C46.0204 99.1331 48.2813 101.63 51.3383 101.63Z" fill="#94D31A"/>
<path d="M55.1751 100.019C56.5351 98.4862 57.961 97.0142 59.46 95.6162C60.209 94.9172 60.9749 94.2361 61.7559 93.5741C62.1479 93.2431 62.542 92.9171 62.941 92.5951C63.171 92.4091 63.4129 92.1802 63.6629 92.0212C63.3289 92.2342 62.7249 92.7372 63.4119 92.2172C66.7229 89.7122 70.273 87.5401 74.001 85.7141C76.568 84.4571 77.4711 80.6051 75.9561 78.2571C74.2611 75.6271 71.244 74.9572 68.5 76.3012C60.566 80.1862 53.3301 85.7032 47.4681 92.3102C45.5761 94.4422 45.2111 97.9461 47.4681 100.018C49.5361 101.918 53.1541 102.296 55.1751 100.019Z" fill="#94D31A"/>
<path d="M127.722 52.7441C130.574 52.7441 133.304 50.2371 133.173 47.2941C133.04 44.3411 130.777 41.8441 127.722 41.8441C124.871 41.8441 122.14 44.3511 122.273 47.2941C122.404 50.2471 124.667 52.7441 127.722 52.7441Z" fill="#94D31A"/>
<path d="M129.201 52.7571C134.468 51.9811 139.61 50.0671 144.181 47.3501C145.365 46.6461 146.32 45.4241 146.686 44.0931C147.045 42.7881 146.883 41.0511 146.136 39.8931C144.546 37.4271 141.302 36.3791 138.68 37.9371C137.212 38.8091 135.693 39.5801 134.123 40.2501C134.557 40.0671 134.99 39.8841 135.425 39.7011C132.499 40.9281 129.442 41.7841 126.302 42.2461C125.045 42.4311 123.656 43.7081 123.045 44.7501C122.361 45.9191 122.071 47.6401 122.496 48.9501C122.922 50.2691 123.739 51.5411 125 52.2071C125.434 52.3901 125.868 52.5731 126.302 52.7561C127.269 53.0161 128.235 53.0161 129.201 52.7571Z" fill="#94D31A"/>
<path d="M156.203 31.7801C161.368 28.3251 166.534 24.8701 171.699 21.4151C172.884 20.6231 173.817 19.5611 174.204 18.1581C174.563 16.8531 174.401 15.1161 173.654 13.9581C172.133 11.6001 168.732 10.3081 166.197 12.0031C161.032 15.4581 155.866 18.9131 150.701 22.3681C149.516 23.1601 148.583 24.2221 148.196 25.6251C147.837 26.9291 147.999 28.6671 148.745 29.8251C150.267 32.1831 153.668 33.4761 156.203 31.7801Z" fill="#94D31A"/>
<path d="M92.4965 73.8852C98.0025 72.8622 103.039 70.2022 107.286 66.6042C108.3 65.7462 108.883 64.0322 108.883 62.7502C108.883 61.4142 108.288 59.8162 107.286 58.8962C106.247 57.9422 104.884 57.2342 103.432 57.2992C101.92 57.3672 100.733 57.9172 99.5776 58.8962C99.2616 59.1642 98.9407 59.4242 98.6147 59.6792C98.9817 59.3952 99.3497 59.1112 99.7177 58.8272C97.9067 60.2172 95.9366 61.3672 93.8376 62.2652C94.2726 62.0822 94.7056 61.8992 95.1396 61.7162C93.3546 62.4642 91.5025 63.0202 89.5995 63.3732C88.3215 63.6102 86.9767 64.7942 86.3417 65.8782C85.6577 67.0462 85.3686 68.7682 85.7926 70.0782C86.2196 71.3972 87.0365 72.6692 88.2975 73.3352C89.6545 74.0532 90.9855 74.1652 92.4965 73.8852Z" fill="#94D31A"/>
<path d="M190.357 185.653C193.209 185.653 195.939 183.146 195.808 180.203C195.675 177.25 193.412 174.752 190.357 174.752C187.506 174.752 184.775 177.259 184.908 180.203C185.039 183.155 187.302 185.653 190.357 185.653Z" fill="#94D31A"/>
<path d="M184.907 183.257C184.907 190.895 184.907 198.534 184.907 206.172C184.907 209.023 187.413 211.754 190.356 211.622C193.309 211.49 195.807 209.227 195.807 206.172C195.807 198.534 195.807 190.895 195.807 183.257C195.807 180.406 193.3 177.675 190.356 177.807C187.404 177.94 184.907 180.202 184.907 183.257Z" fill="#94D31A"/>
<path d="M140.207 131.27C139.728 135.348 139.251 139.425 138.773 143.503C138.622 144.795 139.491 146.478 140.369 147.357C141.315 148.302 142.866 149.014 144.223 148.954C145.632 148.891 147.094 148.428 148.077 147.357C148.361 146.989 148.645 146.622 148.93 146.254C149.423 145.404 149.671 144.487 149.674 143.504C150.152 139.426 150.63 135.349 151.108 131.271C151.259 129.979 150.39 128.296 149.511 127.417C148.566 126.472 147.015 125.76 145.657 125.821C144.247 125.884 142.785 126.347 141.803 127.417C141.519 127.785 141.236 128.152 140.951 128.521C140.458 129.369 140.21 130.286 140.207 131.27Z" fill="#94D31A"/>
<path d="M184.241 130.609C188.926 130.066 193.225 128.905 197.526 126.965C201.373 125.23 204.888 122.777 207.999 119.936C210.109 118.008 210.102 114.158 207.999 112.228C205.743 110.157 202.543 110.171 200.291 112.228C199.921 112.566 199.548 112.899 199.164 113.222C198.828 113.505 197.438 114.492 198.859 113.496C198.079 114.043 197.321 114.613 196.516 115.126C194.866 116.177 193.131 117.081 191.335 117.855C191.77 117.671 192.203 117.488 192.637 117.305C189.766 118.513 186.771 119.351 183.686 119.791C184.169 119.726 184.653 119.662 185.135 119.597C184.837 119.636 184.539 119.674 184.24 119.708C182.747 119.881 181.489 120.201 180.386 121.305C179.441 122.25 178.729 123.801 178.79 125.159C178.853 126.568 179.316 128.03 180.386 129.013C181.381 129.925 182.837 130.772 184.241 130.609Z" fill="#94D31A"/>
<path d="M222.705 85.2461C225.324 78.6551 227.943 72.0641 230.563 65.4731C231.051 64.2431 230.653 62.3671 230.012 61.2731C229.351 60.1431 228.055 59.0651 226.755 58.7691C225.36 58.4511 223.794 58.5201 222.555 59.3181C221.29 60.1331 220.604 61.1841 220.051 62.5751C217.432 69.1661 214.813 75.7571 212.194 82.3471C211.705 83.5781 212.103 85.4541 212.743 86.5471C213.405 87.6781 214.701 88.7561 216.001 89.0521C217.396 89.3701 218.962 89.3011 220.2 88.5031C221.466 87.6881 222.152 86.6371 222.705 85.2461Z" fill="#94D31A"/>
<path d="M263.846 374.498C275.839 376.991 288.101 378.287 300.351 378.266C303.202 378.261 305.933 375.763 305.801 372.816C305.669 369.867 303.405 367.36 300.351 367.366C292.699 367.379 285.056 366.881 277.471 365.875C277.954 365.94 278.437 366.005 278.92 366.07C274.837 365.52 270.777 364.826 266.744 363.987C263.96 363.408 260.722 364.799 260.04 367.794C259.418 370.521 260.86 373.878 263.846 374.498Z" fill="#78A015"/>
<path d="M286.601 407.166C289.453 407.166 292.183 404.659 292.051 401.716C291.919 398.763 289.656 396.266 286.601 396.266C283.75 396.266 281.019 398.773 281.151 401.716C281.282 404.669 283.545 407.166 286.601 407.166Z" fill="#78A015"/>
<path d="M289.353 406.423C298.791 401.853 307.906 396.635 316.625 390.809C318.991 389.228 320.24 385.929 318.579 383.352C317.058 380.993 313.658 379.703 311.123 381.397C302.403 387.223 293.288 392.44 283.85 397.011C281.277 398.257 280.386 402.127 281.895 404.468C283.597 407.107 286.601 407.755 289.353 406.423Z" fill="#78A015"/>
<path d="M341.033 382.786C345.543 377.126 350.054 371.467 354.562 365.807C355.499 364.633 356.159 363.516 356.159 361.953C356.159 360.616 355.566 359.019 354.562 358.099C353.524 357.145 352.16 356.438 350.708 356.503C349.359 356.563 347.734 356.994 346.854 358.099C342.345 363.759 337.834 369.418 333.325 375.078C332.389 376.251 331.729 377.369 331.729 378.932C331.729 380.269 332.322 381.866 333.325 382.786C334.363 383.74 335.727 384.448 337.179 384.383C338.527 384.322 340.152 383.892 341.033 382.786Z" fill="#78A015"/>
<path d="M324.916 352.525C326.221 349.951 327.762 347.51 329.522 345.223C329.238 345.591 328.954 345.958 328.669 346.326C330.489 343.986 332.523 341.829 334.756 339.879C335.766 338.998 336.353 337.327 336.353 336.025C336.353 334.689 335.759 333.091 334.756 332.172C333.718 331.218 332.354 330.51 330.902 330.575C329.402 330.642 328.183 331.18 327.048 332.172C322.321 336.298 318.338 341.428 315.501 347.024C314.838 348.333 314.554 349.776 314.952 351.224C315.3 352.488 316.278 353.858 317.457 354.481C319.94 355.792 323.54 355.24 324.916 352.525Z" fill="#78A015"/>
<path d="M300.355 321.66C304.23 321.263 308.124 321.32 311.986 321.818C311.504 321.753 311.02 321.689 310.537 321.624C314.396 322.147 318.172 323.105 321.809 324.497C323.056 324.973 324.901 324.596 326.009 323.947C327.139 323.285 328.218 321.989 328.513 320.69C328.831 319.295 328.762 317.729 327.964 316.49C327.153 315.233 326.101 314.518 324.706 313.985C317.03 311.051 308.53 309.923 300.354 310.76C298.872 310.912 297.59 311.266 296.5 312.356C295.555 313.301 294.842 314.852 294.903 316.21C295.025 318.914 297.317 321.971 300.355 321.66Z" fill="#78A015"/>
<path d="M367.567 336.893C370.419 336.893 373.149 334.386 373.018 331.442C372.885 328.489 370.622 325.992 367.567 325.992C364.716 325.992 361.985 328.499 362.117 331.442C362.25 334.395 364.512 336.893 367.567 336.893Z" fill="#78A015"/>
<path d="M364.912 336.007C365.149 336.17 365.382 336.339 365.61 336.514C365.242 336.23 364.874 335.946 364.505 335.662C365.451 336.404 366.293 337.257 367.029 338.207C366.744 337.839 366.461 337.472 366.176 337.104C366.902 338.063 367.505 339.098 367.982 340.202C367.798 339.768 367.615 339.334 367.432 338.9C367.859 339.92 368.167 340.977 368.35 342.067C368.562 343.335 369.79 344.701 370.855 345.324C372.024 346.008 373.746 346.297 375.055 345.873C376.374 345.446 377.646 344.629 378.312 343.369C378.496 342.935 378.679 342.501 378.862 342.067C379.122 341.101 379.122 340.135 378.862 339.169C378.7 338.199 378.44 337.25 378.079 336.334C377.561 335.025 377.015 333.727 376.251 332.542C374.696 330.131 372.771 328.211 370.412 326.594C369.295 325.828 367.48 325.696 366.213 326.045C364.949 326.393 363.578 327.371 362.956 328.549C362.287 329.814 361.952 331.346 362.406 332.749C362.59 333.183 362.772 333.617 362.956 334.051C363.441 334.871 364.093 335.523 364.912 336.007Z" fill="#78A015"/>
<path d="M408.46 310.06C415.669 306.961 422.266 302.51 427.984 297.146C430.069 295.191 430.106 291.386 427.984 289.438C425.751 287.388 422.5 287.352 420.276 289.438C418.968 290.665 417.609 291.829 416.212 292.953C415.469 293.55 416.976 292.377 416.441 292.78C416.272 292.906 416.105 293.035 415.936 293.161C415.599 293.414 415.258 293.662 414.916 293.909C414.145 294.462 413.362 294.997 412.567 295.515C409.517 297.501 406.299 299.211 402.957 300.648C401.791 301.149 400.772 302.743 400.453 303.905C400.094 305.21 400.256 306.947 401.002 308.105C401.752 309.269 402.869 310.293 404.26 310.609C405.786 310.957 407.037 310.672 408.46 310.06Z" fill="#78A015"/>
<path d="M404.232 326.199C407.083 326.199 409.813 323.692 409.682 320.749C409.549 317.796 407.286 315.298 404.232 315.298C401.38 315.298 398.649 317.805 398.782 320.749C398.914 323.701 401.177 326.199 404.232 326.199Z" fill="#78A015"/>
<path d="M404.216 326.315C405.974 326.547 407.828 326.325 409.537 325.893C411.232 325.464 412.94 324.727 414.394 323.749C417.709 321.52 420.263 318.35 421.344 314.462C421.722 313.101 421.507 311.48 420.794 310.262C420.133 309.132 418.836 308.054 417.537 307.758C416.141 307.44 414.575 307.509 413.337 308.307C412.141 309.078 411.222 310.167 410.833 311.564C410.714 311.993 410.568 312.411 410.398 312.823C410.581 312.389 410.764 311.955 410.948 311.521C410.593 312.337 410.143 313.095 409.605 313.803C409.889 313.435 410.173 313.068 410.458 312.7C409.873 313.446 409.206 314.11 408.464 314.699C408.831 314.415 409.199 314.131 409.567 313.846C408.77 314.459 407.911 314.968 406.989 315.371C407.424 315.188 407.857 315.005 408.291 314.822C407.367 315.209 406.41 315.478 405.418 315.616C405.9 315.551 406.384 315.487 406.866 315.422C405.981 315.53 405.1 315.531 404.216 315.415C402.937 315.246 401.227 316.146 400.362 317.011C399.417 317.956 398.704 319.507 398.765 320.865C398.828 322.275 399.291 323.736 400.362 324.719C400.73 325.003 401.097 325.287 401.466 325.571C402.315 326.064 403.232 326.312 404.216 326.315Z" fill="#78A015"/>
<path d="M373.074 302.386C374.544 294.737 376.013 287.087 377.483 279.437C377.763 277.979 377.704 276.554 376.934 275.237C376.272 274.107 374.975 273.028 373.676 272.732C370.985 272.119 367.547 273.545 366.971 276.539C365.502 284.189 364.033 291.838 362.563 299.488C362.283 300.946 362.341 302.371 363.112 303.688C363.774 304.819 365.07 305.897 366.37 306.193C369.061 306.805 372.499 305.38 373.074 302.386Z" fill="#78A015"/>
<path d="M391.989 249.426C399.658 248.972 407.235 246.481 413.427 241.875C414.607 240.997 415.526 240.09 415.931 238.618C416.29 237.313 416.128 235.576 415.382 234.418C414.632 233.254 413.515 232.23 412.124 231.913C410.786 231.608 409.077 231.605 407.925 232.463C405.677 234.135 403.25 235.522 400.673 236.62C401.107 236.437 401.54 236.254 401.975 236.071C399.196 237.226 396.3 238.026 393.321 238.452C393.804 238.387 394.287 238.322 394.769 238.257C393.845 238.381 392.92 238.47 391.99 238.525C389.149 238.693 386.402 240.911 386.54 243.975C386.665 246.785 388.941 249.607 391.989 249.426Z" fill="#78A015"/>
<path d="M405.763 274.307C413.39 271.727 421.017 269.147 428.644 266.567C431.339 265.655 433.393 262.775 432.451 259.862C431.584 257.184 428.638 255.077 425.746 256.055C418.119 258.635 410.493 261.215 402.866 263.795C400.171 264.707 398.116 267.587 399.058 270.5C399.924 273.178 402.872 275.285 405.763 274.307Z" fill="#78A015"/>
<path d="M448.534 274.258C451.386 274.258 454.116 271.751 453.985 268.807C453.852 265.854 451.589 263.357 448.534 263.357C445.683 263.357 442.952 265.864 443.084 268.807C443.217 271.761 445.479 274.258 448.534 274.258Z" fill="#78A015"/>
<path d="M453.659 270.211C456.811 261.079 459.965 251.946 463.118 242.814C464.05 240.116 462.055 236.734 459.311 236.109C456.277 235.418 453.604 237.027 452.606 239.916C449.454 249.048 446.3 258.181 443.147 267.313C442.215 270.011 444.21 273.393 446.954 274.018C449.988 274.709 452.661 273.1 453.659 270.211Z" fill="#78A015"/>
<path d="M449.401 218.394C449.401 210.755 449.401 203.117 449.401 195.479C449.401 192.628 446.895 189.897 443.951 190.029C440.999 190.161 438.501 192.424 438.501 195.479C438.501 203.118 438.501 210.756 438.501 218.394C438.501 221.245 441.008 223.976 443.951 223.844C446.904 223.712 449.401 221.449 449.401 218.394Z" fill="#78A015"/>
<path d="M367.773 189.486C373.32 190.741 378.869 191.997 384.416 193.252C387.191 193.88 390.446 192.406 391.121 189.445C391.752 186.675 390.288 183.413 387.314 182.74C381.766 181.485 376.218 180.229 370.67 178.974C367.896 178.346 364.64 179.82 363.966 182.781C363.335 185.551 364.798 188.813 367.773 189.486Z" fill="#78A015"/>
<path d="M317.827 211.622C320.515 213.88 322.95 216.411 325.106 219.182C324.823 218.814 324.539 218.447 324.254 218.079C326.395 220.861 328.236 223.852 329.749 227.021C330.309 228.194 331.795 229.192 333.006 229.525C334.311 229.884 336.048 229.722 337.206 228.976C338.369 228.226 339.394 227.108 339.711 225.719C340.052 224.222 339.822 222.904 339.161 221.519C335.957 214.808 331.228 208.697 325.534 203.915C324.403 202.965 323.205 202.319 321.68 202.319C320.343 202.319 318.746 202.913 317.826 203.915C315.973 205.934 315.495 209.664 317.827 211.622Z" fill="#78A015"/>
<path d="M271.817 237.742C273.043 239.079 274.233 240.448 275.379 241.855C275.649 242.186 275.916 242.519 276.181 242.853C276.314 243.021 276.442 243.191 276.577 243.356C275.622 242.189 276.2 242.866 276.408 243.141C276.958 243.863 277.496 244.593 278.023 245.331C280.132 248.285 282.056 251.365 283.801 254.546C285.173 257.048 288.83 258.067 291.258 256.502C293.794 254.866 294.681 251.722 293.213 249.045C289.452 242.188 284.81 235.796 279.525 230.034C277.593 227.927 273.75 227.929 271.818 230.034C269.749 232.288 269.756 235.495 271.817 237.742Z" fill="#78A015"/>
<path d="M298.853 291.155C308.25 287.553 317.374 283.26 326.073 278.196C328.538 276.761 329.622 273.21 328.029 270.739C326.426 268.254 323.209 267.249 320.572 268.784C314.037 272.587 307.268 275.973 300.305 278.921C300.739 278.738 301.172 278.555 301.607 278.372C299.735 279.16 297.851 279.918 295.955 280.645C294.593 281.167 293.459 281.849 292.698 283.15C292.014 284.318 291.724 286.04 292.148 287.35C292.984 289.935 296.002 292.247 298.853 291.155Z" fill="#78A015"/>
<path d="M228.509 335.276C235.172 332.848 241.835 330.421 248.498 327.993C249.854 327.499 251.006 326.768 251.755 325.488C252.439 324.32 252.729 322.598 252.305 321.288C251.455 318.663 248.468 316.436 245.601 317.481C238.937 319.909 232.275 322.336 225.611 324.764C224.255 325.258 223.103 325.988 222.354 327.269C221.67 328.437 221.38 330.159 221.804 331.469C222.653 334.093 225.641 336.321 228.509 335.276Z" fill="#78A015"/>
<path d="M217.856 297.173C221.42 297.173 224.985 297.173 228.549 297.173C229.946 297.173 231.415 296.565 232.403 295.576C233.348 294.631 234.059 293.08 233.999 291.723C233.936 290.313 233.474 288.851 232.403 287.869C231.337 286.89 230.025 286.272 228.549 286.272C224.985 286.272 221.42 286.272 217.856 286.272C216.459 286.272 214.99 286.88 214.002 287.869C213.057 288.814 212.345 290.365 212.406 291.723C212.469 293.132 212.931 294.594 214.002 295.576C215.067 296.555 216.378 297.173 217.856 297.173Z" fill="#78A015"/>
<path d="M190.357 376.612C193.209 376.612 195.939 374.105 195.808 371.162C195.675 368.209 193.412 365.712 190.357 365.712C187.506 365.712 184.775 368.219 184.908 371.162C185.039 374.115 187.302 376.612 190.357 376.612Z" fill="#78A015"/>
<path d="M188.806 376.857C194.455 378.179 200.105 379.501 205.754 380.822C208.525 381.47 211.788 379.962 212.459 377.015C213.094 374.228 211.622 371.005 208.652 370.31C203.003 368.988 197.352 367.666 191.703 366.345C188.932 365.697 185.67 367.205 184.999 370.152C184.364 372.939 185.836 376.162 188.806 376.857Z" fill="#78A015"/>
<path d="M168.97 434.664C171.821 434.664 174.552 432.157 174.42 429.214C174.287 426.261 172.024 423.764 168.97 423.764C166.118 423.764 163.388 426.271 163.52 429.214C163.651 432.167 165.914 434.664 168.97 434.664Z" fill="#78A015"/>
<path d="M168.98 434.532C179.187 435.382 189.387 434.874 199.501 433.301C200.763 433.105 202.143 431.848 202.758 430.796C203.442 429.627 203.732 427.906 203.308 426.596C202.88 425.277 202.064 424.005 200.803 423.339C199.425 422.611 198.133 422.551 196.603 422.79C195.666 422.936 194.728 423.072 193.789 423.198C194.271 423.133 194.754 423.068 195.237 423.003C186.533 424.148 177.73 424.36 168.981 423.631C166.132 423.394 163.407 426.307 163.531 429.081C163.671 432.238 165.928 434.278 168.98 434.532Z" fill="#78A015"/>
<path d="M227.022 411.749C229.873 411.749 232.604 409.242 232.472 406.299C232.339 403.346 230.077 400.849 227.022 400.849C224.17 400.849 221.439 403.356 221.572 406.299C221.703 409.252 223.966 411.749 227.022 411.749Z" fill="#78A015"/>
<path d="M226.987 412.158C232.591 412.629 238.196 413.1 243.8 413.571C245.122 413.682 246.745 412.883 247.654 411.974C248.599 411.029 249.31 409.478 249.25 408.12C249.187 406.711 248.725 405.249 247.654 404.266C246.539 403.242 245.31 402.796 243.8 402.669C238.196 402.198 232.591 401.728 226.987 401.257C225.665 401.146 224.042 401.945 223.133 402.853C222.188 403.798 221.476 405.35 221.536 406.707C221.599 408.117 222.062 409.579 223.133 410.561C224.248 411.586 225.477 412.031 226.987 412.158Z" fill="#78A015"/>
<path d="M257.551 437.453C265.977 436.673 273.91 433.144 279.838 427.032C281.824 424.984 282.029 421.336 279.838 419.324C277.69 417.352 274.251 417.137 272.131 419.324C271.447 420.028 270.737 420.702 269.988 421.336C269.839 421.462 269.685 421.585 269.535 421.711C268.721 422.393 270.339 421.121 269.827 421.492C269.43 421.78 269.039 422.072 268.633 422.347C267.048 423.421 265.361 424.328 263.604 425.085C264.038 424.902 264.472 424.719 264.906 424.536C262.458 425.562 259.904 426.265 257.272 426.62C257.754 426.555 258.238 426.49 258.72 426.425C258.331 426.473 257.942 426.516 257.551 426.552C256.076 426.688 254.777 427.069 253.697 428.148C252.751 429.093 252.039 430.645 252.1 432.002C252.223 434.731 254.51 437.735 257.551 437.453Z" fill="#78A015"/>
<path d="M311.043 420.915C313.894 420.915 316.625 418.408 316.493 415.465C316.36 412.512 314.097 410.015 311.043 410.015C308.191 410.015 305.46 412.522 305.592 415.465C305.725 418.418 307.987 420.915 311.043 420.915Z" fill="#78A015"/>
<path d="M314.065 420.809C322.626 417.144 330.367 411.234 336.172 403.953C337.107 402.78 337.768 401.661 337.768 400.099C337.768 398.763 337.174 397.165 336.172 396.245C335.133 395.291 333.77 394.583 332.318 394.648C330.969 394.709 329.345 395.139 328.464 396.245C327.094 397.964 325.626 399.603 324.057 401.144C323.273 401.914 322.464 402.66 321.634 403.381C321.22 403.741 320.799 404.095 320.373 404.443C320.179 404.601 319.983 404.756 319.789 404.913C318.923 405.618 320.841 404.13 319.944 404.796C316.402 407.427 312.623 409.659 308.563 411.397C307.397 411.896 306.377 413.494 306.058 414.654C305.7 415.959 305.861 417.696 306.608 418.854C307.358 420.018 308.475 421.043 309.866 421.359C311.392 421.706 312.641 421.419 314.065 420.809Z" fill="#78A015"/>
<path d="M412.733 158.863C411.504 151.366 408.569 144.051 404.321 137.755C402.729 135.395 399.449 134.133 396.864 135.799C394.514 137.314 393.204 140.728 394.909 143.256C396.738 145.967 398.292 148.84 399.565 151.852C399.382 151.418 399.2 150.984 399.016 150.55C400.514 154.155 401.59 157.908 402.222 161.761C402.43 163.027 403.666 164.398 404.727 165.018C405.895 165.702 407.617 165.992 408.926 165.567C410.245 165.14 411.518 164.323 412.184 163.063C412.909 161.69 412.983 160.387 412.733 158.863Z" fill="#78A015"/>
<path d="M343.247 146.995C347.853 150.014 352.46 153.034 357.066 156.053C359.456 157.619 363.196 156.609 364.523 154.098C365.962 151.374 365.118 148.312 362.568 146.641C357.962 143.621 353.354 140.603 348.748 137.583C346.358 136.017 342.618 137.027 341.291 139.539C339.853 142.262 340.696 145.324 343.247 146.995Z" fill="#78A015"/>
<path d="M364.817 111.58C367.363 113.108 369.909 114.635 372.455 116.163C373.659 116.886 375.307 117.084 376.655 116.712C377.919 116.364 379.289 115.386 379.912 114.208C380.581 112.943 380.915 111.411 380.462 110.008C380.021 108.647 379.204 107.499 377.957 106.751C375.411 105.223 372.864 103.695 370.318 102.168C369.114 101.445 367.466 101.248 366.118 101.619C364.854 101.967 363.484 102.945 362.861 104.124C362.193 105.389 361.858 106.921 362.311 108.324C362.753 109.684 363.57 110.832 364.817 111.58Z" fill="#78A015"/>
<path d="M392.067 93.8701C393.744 94.3931 395.394 94.9921 397.016 95.6661C396.582 95.4831 396.149 95.3001 395.714 95.1171C398.333 96.2221 400.867 97.5151 403.287 99.0071C404.475 99.7381 405.634 100.515 406.762 101.335C407.012 101.517 407.259 101.705 407.509 101.888C407.961 102.232 407.839 102.137 407.144 101.602C407.307 101.729 407.469 101.857 407.629 101.986C408.194 102.438 408.749 102.902 409.297 103.375C410.404 104.332 411.646 104.971 413.151 104.971C414.488 104.971 416.085 104.377 417.005 103.375C418.882 101.331 419.311 97.6561 417.005 95.6671C410.544 90.0931 403.12 85.9021 394.964 83.3601C392.242 82.5121 388.899 84.3631 388.26 87.1671C387.586 90.1261 389.151 92.9621 392.067 93.8701Z" fill="#78A015"/>
<path d="M436.236 123.349C440.26 131.013 444.286 138.677 448.309 146.342C449.637 148.87 453.371 149.843 455.767 148.297C458.34 146.638 459.142 143.544 457.722 140.84C453.698 133.176 449.672 125.512 445.648 117.847C444.321 115.319 440.587 114.347 438.191 115.892C435.618 117.551 434.816 120.645 436.236 123.349Z" fill="#78A015"/>
<path d="M434.785 158.154C437.637 158.154 440.368 155.647 440.235 152.703C440.103 149.75 437.84 147.253 434.785 147.253C431.934 147.253 429.203 149.76 429.335 152.703C429.468 155.657 431.73 158.154 434.785 158.154Z" fill="#78A015"/>
<path d="M429.503 154.162C430.148 156.024 430.6 157.933 430.871 159.884C430.806 159.401 430.741 158.918 430.676 158.435C431.019 161.112 431.008 163.803 430.651 166.478C430.716 165.995 430.781 165.512 430.846 165.029C430.475 167.596 429.792 170.09 428.786 172.482C428.97 172.048 429.152 171.614 429.336 171.18C429.089 171.75 428.827 172.312 428.549 172.867C427.275 175.413 427.787 178.888 430.504 180.324C432.976 181.63 436.599 181.091 437.961 178.369C442.137 170.029 443.085 160.14 440.014 151.264C439.084 148.576 436.237 146.51 433.31 147.457C430.647 148.319 428.504 151.278 429.503 154.162Z" fill="#78A015"/>
<path d="M404.331 212.844C409.908 213.851 415.684 213.611 421.04 211.649C422.397 211.152 423.546 210.427 424.297 209.144C424.981 207.976 425.271 206.254 424.847 204.944C424.42 203.625 423.603 202.353 422.342 201.687C421.107 201.034 419.506 200.638 418.142 201.138C416.333 201.801 414.47 202.263 412.563 202.53C413.045 202.465 413.529 202.4 414.011 202.335C411.685 202.637 409.344 202.64 407.018 202.336C407.5 202.401 407.984 202.466 408.466 202.531C408.052 202.473 407.641 202.407 407.23 202.333C405.759 202.067 404.361 202.104 403.03 202.882C401.9 203.544 400.821 204.84 400.525 206.139C400.208 207.534 400.276 209.1 401.075 210.339C401.804 211.471 402.954 212.595 404.331 212.844Z" fill="#78A015"/>
<path d="M460.755 199.402C463.607 199.402 466.338 196.895 466.206 193.952C466.074 190.999 463.81 188.501 460.755 188.501C457.904 188.501 455.173 191.008 455.305 193.952C455.438 196.904 457.699 199.402 460.755 199.402Z" fill="#78A015"/>
<path d="M466.444 192.432C467.98 184.796 469.517 177.159 471.054 169.522C471.345 168.075 471.269 166.628 470.504 165.322C469.843 164.192 468.546 163.114 467.247 162.817C464.534 162.199 461.143 163.635 460.542 166.624C459.005 174.26 457.469 181.897 455.932 189.534C455.641 190.981 455.717 192.428 456.482 193.734C457.143 194.864 458.439 195.942 459.739 196.238C462.451 196.857 465.842 195.421 466.444 192.432Z" fill="#78A015"/>
<path d="M346.651 250.379C346.715 250.428 346.781 250.478 346.844 250.528C346.477 250.244 346.109 249.96 345.741 249.675C350.059 253.019 353.939 256.893 357.291 261.205C357.007 260.837 356.723 260.47 356.438 260.102C357.035 260.876 357.615 261.662 358.178 262.46C359.014 263.643 359.998 264.569 361.437 264.965C362.742 265.324 364.477 265.162 365.635 264.416C366.799 263.665 367.823 262.548 368.14 261.159C368.45 259.799 368.429 258.144 367.591 256.959C365.447 253.922 363.108 251.006 360.531 248.323C357.943 245.628 355.111 243.24 352.151 240.966C351.11 240.167 349.148 240.087 347.951 240.417C346.687 240.765 345.317 241.743 344.694 242.922C344.025 244.187 343.692 245.719 344.145 247.122C344.329 247.556 344.511 247.99 344.694 248.424C345.181 249.243 345.832 249.894 346.651 250.379Z" fill="#78A015"/>
<path d="M375.267 220.694C378.317 221.239 381.366 221.784 384.414 222.329C385.138 222.556 385.862 222.589 386.587 222.426C387.313 222.393 387.988 222.177 388.614 221.779C389.744 221.117 390.822 219.821 391.118 218.522C391.436 217.127 391.367 215.561 390.569 214.322C389.84 213.192 388.688 212.063 387.311 211.817C384.262 211.272 381.213 210.727 378.165 210.182C377.44 209.955 376.716 209.923 375.991 210.085C375.266 210.118 374.591 210.334 373.965 210.732C372.835 211.394 371.757 212.69 371.46 213.989C371.143 215.384 371.211 216.95 372.01 218.189C372.738 219.319 373.89 220.447 375.267 220.694Z" fill="#78A015"/>
<path d="M338.456 305.149C338.686 305.628 338.906 306.11 339.118 306.597C338.934 306.163 338.751 305.729 338.568 305.295C339.727 308.044 340.513 310.914 340.929 313.867C340.864 313.384 340.799 312.901 340.735 312.418C341.123 315.375 341.131 318.351 340.747 321.31C340.811 320.827 340.877 320.344 340.941 319.861C340.897 320.177 340.85 320.491 340.799 320.806C340.56 322.3 340.556 323.651 341.349 325.006C342.01 326.136 343.307 327.215 344.606 327.511C346.002 327.828 347.567 327.76 348.805 326.961C349.923 326.241 351.09 325.075 351.31 323.704C352.01 319.339 352.05 315.183 351.418 310.812C350.853 306.904 349.576 303.2 347.867 299.647C346.628 297.071 342.746 296.186 340.41 297.692C337.767 299.397 337.131 302.394 338.456 305.149Z" fill="#78A015"/>
<path d="M352.29 402.583C355.141 402.583 357.872 400.076 357.74 397.133C357.607 394.18 355.345 391.683 352.29 391.683C349.439 391.683 346.709 394.19 346.841 397.133C346.973 400.085 349.234 402.583 352.29 402.583Z" fill="#78A015"/>
<path d="M356.633 399.696C360.799 391.596 364.966 383.496 369.132 375.396C370.436 372.863 369.874 369.364 367.177 367.939C364.682 366.621 361.113 367.187 359.72 369.894C355.554 377.994 351.387 386.094 347.22 394.194C345.917 396.727 346.478 400.226 349.176 401.651C351.671 402.969 355.24 402.403 356.633 399.696Z" fill="#78A015"/>
<path d="M286.671 338.257C287.433 338.462 288.176 338.715 288.904 339.017C288.47 338.834 288.036 338.65 287.602 338.467C289.01 339.063 290.331 339.83 291.547 340.757C291.18 340.473 290.812 340.189 290.444 339.904C291.575 340.78 292.594 341.779 293.487 342.897C293.981 343.428 294.566 343.804 295.241 344.024C295.89 344.365 296.591 344.522 297.342 344.493C298.678 344.493 300.276 343.899 301.196 342.897C302.15 341.858 302.857 340.495 302.793 339.043C302.728 338.56 302.663 338.077 302.599 337.594C302.339 336.671 301.872 335.869 301.197 335.189C299.744 333.37 297.91 331.848 295.968 330.576C294.028 329.305 291.806 328.349 289.57 327.746C288.2 327.377 286.597 327.577 285.37 328.295C284.24 328.957 283.161 330.253 282.865 331.552C282.548 332.947 282.617 334.513 283.415 335.752C284.183 336.943 285.274 337.88 286.671 338.257Z" fill="#78A015"/>
<path d="M106.875 399.909C113.956 404.065 121.037 408.22 128.118 412.376C130.579 413.82 134.202 413.02 135.575 410.421C136.958 407.804 136.247 404.506 133.62 402.964C126.539 398.808 119.458 394.652 112.377 390.496C109.917 389.052 106.293 389.852 104.92 392.452C103.537 395.068 104.248 398.367 106.875 399.909Z" fill="#78A015"/>
<path d="M76.5098 375.016C78.5468 377.053 80.5836 379.09 82.6206 381.127C83.1136 381.658 83.6987 382.034 84.3747 382.254C85.0237 382.595 85.7246 382.752 86.4756 382.723C87.2256 382.751 87.9247 382.595 88.5757 382.254C89.2517 382.034 89.8356 381.658 90.3296 381.127C91.2826 380.088 91.9908 378.725 91.9258 377.273C91.8618 375.827 91.3726 374.462 90.3296 373.419C88.2926 371.382 86.2557 369.345 84.2187 367.308C83.7257 366.777 83.1406 366.401 82.4646 366.181C81.8156 365.84 81.1147 365.683 80.3647 365.712C79.6147 365.684 78.9136 365.84 78.2646 366.181C77.5886 366.401 77.0038 366.777 76.5098 367.308C75.5568 368.347 74.8488 369.71 74.9138 371.162C74.9788 372.608 75.4668 373.973 76.5098 375.016Z" fill="#78A015"/>
<path d="M93.5547 313.635C97.0847 316.729 100.617 319.823 104.148 322.916C105.244 323.876 106.508 324.513 108.002 324.513C109.339 324.513 110.936 323.919 111.856 322.916C112.81 321.877 113.518 320.514 113.453 319.062C113.391 317.672 112.94 316.157 111.856 315.208C108.326 312.114 104.794 309.02 101.264 305.927C100.167 304.967 98.9037 304.33 97.4097 304.33C96.0727 304.33 94.4757 304.924 93.5557 305.927C92.6017 306.966 91.8937 308.329 91.9587 309.781C92.0207 311.171 92.4717 312.686 93.5547 313.635Z" fill="#78A015"/>
<path d="M149.137 348.89C154.216 349.506 159.296 350.121 164.375 350.737C165.663 350.893 167.354 350.016 168.229 349.141C169.174 348.196 169.886 346.645 169.826 345.287C169.763 343.877 169.3 342.416 168.229 341.433C167.862 341.149 167.494 340.865 167.126 340.581C166.275 340.088 165.358 339.84 164.375 339.837C159.296 339.221 154.216 338.606 149.137 337.99C147.849 337.834 146.158 338.711 145.283 339.586C144.337 340.531 143.626 342.082 143.686 343.44C143.749 344.85 144.212 346.311 145.283 347.294C145.65 347.578 146.018 347.862 146.386 348.146C147.236 348.639 148.153 348.887 149.137 348.89Z" fill="#78A015"/>
<path d="M240.771 225.372C243.622 225.372 246.353 222.865 246.221 219.921C246.089 216.968 243.826 214.471 240.771 214.471C237.919 214.471 235.189 216.978 235.321 219.921C235.452 222.875 237.715 225.372 240.771 225.372Z" fill="#78A015"/>
<path d="M240.759 225.104C247.592 224.761 254.341 221.767 258.823 216.516C259.776 215.398 260.419 214.175 260.419 212.662C260.419 211.325 259.825 209.728 258.823 208.808C257.784 207.854 256.42 207.146 254.969 207.212C253.591 207.273 252.045 207.718 251.115 208.808C250.244 209.829 249.279 210.753 248.225 211.584C248.592 211.3 248.96 211.016 249.328 210.732C247.909 211.826 246.367 212.725 244.719 213.427C245.153 213.244 245.586 213.061 246.021 212.877C244.434 213.532 242.787 213.988 241.088 214.234C241.57 214.17 242.053 214.105 242.536 214.04C241.945 214.119 241.354 214.173 240.76 214.203C239.32 214.275 237.944 214.762 236.906 215.8C235.961 216.745 235.249 218.296 235.309 219.654C235.435 222.484 237.709 225.257 240.759 225.104Z" fill="#78A015"/>
<path d="M332.817 70.2251C336.296 72.8841 339.774 75.5431 343.253 78.2021C344.296 79.0001 346.253 79.0821 347.452 78.7521C348.717 78.4041 350.087 77.4261 350.71 76.2471C351.378 74.9821 351.713 73.4501 351.259 72.0471C351.076 71.6131 350.893 71.1791 350.71 70.7451C350.225 69.9261 349.573 69.2741 348.754 68.7901C345.276 66.1311 341.798 63.4721 338.319 60.8131C337.275 60.0151 335.319 59.9331 334.119 60.2631C332.854 60.6111 331.485 61.5891 330.862 62.7681C330.193 64.0331 329.858 65.5651 330.312 66.9681C330.495 67.4021 330.678 67.8361 330.862 68.2701C331.347 69.0891 331.999 69.7411 332.817 70.2251Z" fill="#78A015"/>
<path d="M382.839 75.7081C383.081 75.7361 383.321 75.7662 383.563 75.7972C383.08 75.7322 382.597 75.6671 382.115 75.6021C385.171 76.0251 388.15 76.8351 391.001 78.0151C390.567 77.8321 390.133 77.6491 389.699 77.4661C391.119 78.0651 392.496 78.7502 393.83 79.5212C396.3 80.9492 399.908 80.1761 401.287 77.5661C402.662 74.9632 401.969 71.6331 399.332 70.1091C396.828 68.6611 394.14 67.4781 391.395 66.5671C388.61 65.6431 385.75 65.1461 382.839 64.8061C381.546 64.6551 379.864 65.5241 378.985 66.4021C378.04 67.3471 377.328 68.8992 377.388 70.2562C377.451 71.6662 377.914 73.1281 378.985 74.1101C379.352 74.3941 379.72 74.6782 380.088 74.9632C380.939 75.4562 381.856 75.7041 382.839 75.7081Z" fill="#78A015"/>
<path d="M254.651 351.672C262.676 353.089 270.81 353.843 278.962 353.78C281.813 353.758 284.545 351.289 284.412 348.33C284.281 345.396 282.017 342.856 278.962 342.88C273.068 342.925 267.182 342.558 261.338 341.783C261.821 341.848 262.305 341.912 262.787 341.977C261.035 341.74 259.29 341.467 257.55 341.16C256.074 340.9 254.685 340.928 253.35 341.709C252.219 342.371 251.141 343.667 250.844 344.966C250.24 347.622 251.648 351.142 254.651 351.672Z" fill="#78A015"/>
<path d="M226.658 369.909C233.621 375.711 240.583 381.513 247.546 387.314C248.683 388.262 249.87 388.911 251.4 388.911C252.737 388.911 254.334 388.317 255.254 387.314C257.103 385.301 257.593 381.555 255.254 379.606C248.291 373.804 241.329 368.002 234.366 362.201C233.229 361.253 232.043 360.604 230.512 360.604C229.175 360.604 227.578 361.198 226.658 362.201C224.811 364.215 224.319 367.961 226.658 369.909Z" fill="#78A015"/>
<path d="M219.383 437.719C222.234 437.719 224.964 435.212 224.832 432.269C224.7 429.316 222.438 426.818 219.383 426.818C216.532 426.818 213.8 429.325 213.932 432.269C214.064 435.222 216.327 437.719 219.383 437.719Z" fill="#78A015"/>
<path d="M217.944 437.459C221.332 438.043 224.534 438.048 227.915 437.373C230.747 436.808 233.558 435.636 235.977 434.062C237.162 433.291 238.099 432.191 238.481 430.805C238.84 429.5 238.678 427.763 237.931 426.605C236.394 424.221 233.03 422.986 230.474 424.65C229.494 425.288 228.467 425.833 227.391 426.29C227.825 426.107 228.258 425.924 228.693 425.741C227.104 426.394 225.453 426.837 223.752 427.072C224.235 427.007 224.718 426.942 225.201 426.877C223.497 427.091 221.788 427.091 220.086 426.863C220.568 426.928 221.052 426.993 221.534 427.058C221.304 427.024 221.074 426.987 220.845 426.948C219.366 426.693 217.985 426.713 216.645 427.497C215.514 428.159 214.435 429.455 214.139 430.754C213.822 432.15 213.89 433.715 214.689 434.954C215.414 436.08 216.569 437.221 217.944 437.459Z" fill="#78A015"/>
<path d="M175.08 411.95C180.174 410.939 185.268 409.927 190.361 408.916C191.645 408.661 192.975 407.51 193.618 406.411C194.302 405.243 194.592 403.521 194.168 402.211C193.204 399.233 190.465 397.808 187.464 398.404C182.37 399.415 177.276 400.426 172.183 401.438C170.899 401.693 169.568 402.844 168.925 403.942C168.241 405.11 167.952 406.832 168.376 408.142C169.339 411.121 172.078 412.546 175.08 411.95Z" fill="#78A015"/>
<path d="M421.644 95.5921C425.205 98.6521 428.766 101.712 432.327 104.772C433.439 105.728 434.674 106.368 436.181 106.368C437.517 106.368 439.115 105.774 440.035 104.772C440.988 103.733 441.696 102.37 441.631 100.918C441.569 99.5371 441.123 97.9991 440.035 97.0641C436.474 94.0041 432.913 90.9441 429.352 87.8851C428.241 86.9291 427.006 86.2881 425.498 86.2881C424.161 86.2881 422.564 86.8821 421.644 87.8851C420.691 88.9241 419.983 90.2871 420.048 91.7391C420.109 93.1191 420.556 94.6571 421.644 95.5921Z" fill="#78A015"/>
</svg>
