<svg width="523" height="487" viewBox="0 0 523 487" fill="none" xmlns="http://www.w3.org/2000/svg">
<path d="M306.51 145.738C321.076 129.858 339.274 117.329 359.308 109.39C366.866 106.395 375.145 104.023 383.052 105.916C395.075 108.795 403.05 121.371 403.532 133.725C404.014 146.079 398.349 157.947 390.925 167.833C381.765 180.031 369.545 190.162 355.265 195.527C340.986 200.893 324.604 201.222 310.636 195.089C305.742 192.94 300.693 189.296 300.15 183.979C299.922 181.743 300.546 179.511 301.281 177.387C306.856 161.278 319.543 147.777 335.275 141.214L306.51 145.738Z" fill="#78A015"/>
<path d="M93.5561 231.174C83.7921 229.96 73.84 225.913 68.164 217.876C62.489 209.838 62.6781 197.325 70.3731 191.194C75.9381 186.76 83.8011 186.48 89.8891 182.795C97.7561 178.034 101.388 167.31 98.0331 158.748C96.9891 156.084 95.3481 153.583 95.0661 150.735C94.3921 143.916 101.465 139.022 107.896 136.656C114.327 134.289 121.845 132.179 124.814 126.004C127.305 120.824 125.575 114.695 126.013 108.964C126.822 98.357 135.09 89.735 144.164 84.182C161.906 73.326 183.925 70.852 204.43 74.344C209.423 75.194 214.451 76.4149 218.785 79.0349C227.127 84.0769 231.673 93.432 235.773 102.275C246.531 125.481 257.545 151.048 251.179 175.821C248.195 187.433 241.532 197.826 233.605 206.821C211.483 231.923 178.501 247.107 145.045 247.59C135.904 247.722 125.006 245.622 121.442 237.203L93.5561 231.174Z" fill="#78A015"/>
<path d="M185.347 363.285C179.161 376.31 173.892 389.772 169.592 403.536C164.565 419.627 162.025 440.003 174.976 450.794C184.133 458.425 198.067 457.761 208.702 452.378C219.337 446.995 227.427 437.768 235.237 428.763C248.262 439.143 268.698 430.772 278.198 417.092C280.072 414.393 282.037 411.266 285.248 410.571C291.956 409.12 294.965 418.333 298.387 424.282C306.448 438.299 329.269 437.078 339.851 424.852C350.433 412.628 350.824 394.366 346.511 378.782C355.439 389.498 365.526 399.247 376.539 407.803C378.391 409.242 380.853 410.709 382.921 409.605C384.438 408.794 385.005 406.932 385.329 405.244C386.948 396.795 386.008 388.028 387.449 379.547C388.889 371.066 393.689 362.191 401.989 359.927C408.269 358.214 414.841 360.681 421.331 361.188C427.821 361.695 435.855 358.679 436.412 352.194C436.901 346.49 431.415 342.34 426.884 338.841C417.963 331.954 410.527 323.154 405.226 313.209C404.373 311.609 403.553 309.8 404.005 308.044C404.628 305.621 407.326 304.436 409.741 303.782C419.038 301.267 428.827 301.604 438.439 300.987C448.051 300.369 458.064 298.583 465.625 292.615C473.186 286.648 477.319 275.435 472.656 267.009C470.638 263.361 467.297 260.664 464.04 258.063C451.712 248.221 439.036 238.187 424.054 233.25C410.632 228.827 396.218 228.785 382.087 228.787C355.02 228.789 327.698 228.818 301.268 234.652C284.74 238.301 268.56 244.286 254.595 253.85C230.199 270.558 214.301 296.759 199.147 322.15L185.347 363.285Z" fill="#78A015"/>
<path d="M368.141 155.243C388.93 141.48 409.718 127.717 430.506 113.953C435.857 110.411 443.711 107.118 447.932 111.951C449.705 113.982 450.093 116.874 450.006 119.569C449.441 137.238 433.181 149.574 419.72 161.034C393.582 183.286 372.582 211.892 343.12 229.509C340.159 231.28 336.896 232.982 333.457 232.7C328.26 232.273 324.371 227.217 323.644 222.053C322.917 216.889 324.648 211.709 326.673 206.903C331.655 195.08 338.596 184.085 347.127 174.501L368.141 155.243Z" fill="#78A015"/>
<path d="M519.449 191.085C516.816 188.572 513.072 187.659 509.486 187.034C461.478 178.663 415.492 204.177 368.535 218.606C368.079 216.524 367.57 214.461 367.006 212.421C403.758 180.923 460.992 173.6 489.105 133.635C491.536 130.179 493.775 125.831 492.23 121.898C490.032 116.302 482.275 115.926 476.393 117.164C454.354 121.802 435.305 135.242 417.47 148.995C398.095 163.936 379.31 179.644 361.161 196.053C360.163 193.797 359.1 191.578 357.97 189.398C374.425 164.534 390.881 139.669 407.336 114.805C413.909 104.873 420.6 94.678 423.392 83.099C424.187 79.801 424.617 76.165 423.069 73.145C420.614 68.355 413.941 67.102 408.92 69.043C403.899 70.984 400.192 75.243 396.797 79.42C374.97 106.279 357.196 136.413 344.148 168.467C335.352 157.782 324.731 148.66 312.767 141.562C335.577 119.706 357.774 97.21 379.313 74.103C384.437 68.606 389.739 62.661 391.127 55.276C392.516 47.891 388.138 38.905 380.654 38.227C377.029 37.899 373.53 39.515 370.335 41.257C334.881 60.589 314.997 97.268 293.421 132.326C289.291 130.796 285.052 129.492 280.722 128.42C295.061 89.478 323.578 53.477 321.146 12.147C320.897 7.92896 319.944 3.13197 316.286 1.01597C311.083 -1.99603 304.778 2.53701 300.944 7.16801C286.581 24.516 280.036 46.891 274.638 68.756C270.009 87.503 265.978 106.396 262.514 125.393C259.089 125.093 255.625 124.93 252.123 124.926C249.891 99.385 247.658 73.845 245.426 48.305C244.388 36.44 243.28 24.296 238.259 13.496C236.828 10.419 234.902 7.30597 231.811 5.90697C226.908 3.68597 220.905 6.85897 218.184 11.503C215.463 16.147 215.211 21.788 215.154 27.17C214.797 60.934 219.393 94.737 228.661 127.204C223.749 128.176 218.945 129.449 214.269 131.004C213.227 97.54 211.244 64.096 208.313 30.731C207.655 23.246 206.793 15.327 202.46 9.31999C198.127 3.31399 189.044 0.479008 183.868 5.53801C181.361 7.98801 180.303 11.657 179.525 15.188C170.523 56.038 185.442 97.135 196.842 138.394C193.415 140.182 190.086 142.131 186.863 144.231C166.791 106.695 159.954 58.894 128.124 31.806C124.995 29.143 121.015 26.61 117.227 27.878C111.837 29.682 111.074 37.387 111.931 43.338C115.141 65.629 126.803 85.549 138.825 104.28C149.813 121.4 161.333 138.141 173.35 154.474C171.063 156.477 168.856 158.567 166.729 160.737C146.509 144.496 126.29 128.255 106.07 112.014C97.056 104.774 87.8001 97.398 77.0351 93.813C73.9681 92.792 70.564 92.112 67.638 93.446C62.994 95.562 61.461 102.127 63.026 107.266C64.591 112.405 68.408 116.396 72.167 120.069C96.107 143.469 123.285 163.127 152.497 178.297C148.685 184.032 145.358 190.115 142.57 196.489C118.865 174.817 94.54 153.822 69.63 133.545C63.802 128.801 57.515 123.91 50.054 123.019C42.593 122.128 33.92 127.099 33.745 134.611C33.66 138.25 35.507 141.632 37.46 144.704C59.594 179.522 98.705 196.912 135.845 216.594C134.868 220.707 134.099 224.9 133.56 229.166C92.5931 217.965 53.8611 190.401 11.7121 195.734C7.52007 196.265 2.79807 197.538 0.931069 201.329C-1.72493 206.722 3.22006 212.71 8.09806 216.225C26.3691 229.393 49.1331 234.424 71.3101 238.346C91.6511 241.943 112.113 244.863 132.647 247.11C132.719 250.227 132.91 253.315 133.217 256.368C106.432 260.533 79.646 264.698 52.861 268.862C41.092 270.692 29.05 272.613 18.611 278.346C15.637 279.979 12.66 282.111 11.471 285.288C9.58399 290.329 13.1511 296.106 17.9681 298.51C22.7841 300.913 28.429 300.786 33.803 300.483C69.25 298.479 104.374 291.006 137.601 278.502C140.169 287.096 143.678 295.283 148.011 302.944C113.493 309.739 79.1881 317.613 45.1651 326.563C37.8971 328.475 30.2411 330.67 25.1231 336.173C20.0051 341.676 18.9091 351.611 24.8741 356.181C27.7641 358.394 31.5841 358.896 35.2171 359.129C79.0201 361.94 118.214 337.601 158.534 318.54C160.772 321.353 163.13 324.064 165.608 326.661C132.081 356.138 82.962 370.708 61.263 410.007C59.221 413.706 57.466 418.271 59.428 422.013C62.22 427.338 69.9711 426.872 75.6851 425.004C97.0921 418.005 114.573 402.581 130.813 386.977C147.176 371.254 162.954 354.924 178.135 338.057C180.17 339.661 182.261 341.196 184.4 342.667C171.13 368.4 157.861 394.134 144.591 419.867C139.132 430.453 133.586 441.312 132.064 453.126C131.631 456.49 131.598 460.151 133.464 462.985C136.424 467.48 143.193 468.003 147.974 465.53C152.755 463.056 155.979 458.422 158.902 453.901C178.886 422.986 193.918 388.886 203.353 353.305C212.67 357.465 222.617 360.464 233.012 362.122C224.903 392.503 217.64 423.108 211.25 453.896C209.723 461.253 208.276 469.086 210.922 476.121C213.567 483.154 221.973 488.563 228.722 485.259C231.991 483.659 234.143 480.462 235.97 477.315C255.581 443.533 254.316 403.438 254.437 363.595C259.179 363.498 263.851 363.122 268.442 362.488C274.792 401.591 270.78 444.319 293.124 476.671C295.525 480.149 298.83 483.753 303.055 483.664C309.066 483.538 312.103 476.392 312.977 470.443C316.252 448.161 310.234 425.637 303.502 404.145C298.659 388.683 293.406 373.349 287.769 358.159C292.024 356.822 296.175 355.25 300.21 353.464C313.168 371.132 326.127 388.8 339.085 406.468C346.129 416.072 353.379 425.877 363.276 432.503C366.095 434.391 369.358 436.052 372.726 435.645C378.07 434.999 381.555 429.171 381.471 423.79C381.387 418.407 378.675 413.456 375.93 408.825C361.159 383.904 343.254 360.853 322.822 340.317C328.407 336.189 333.624 331.59 338.404 326.57C365.538 351.599 393.493 375.738 422.218 398.924C428.066 403.644 434.373 408.509 441.838 409.369C449.303 410.229 457.955 405.223 458.099 397.71C458.169 394.07 456.308 390.696 454.343 387.632C430.851 351.013 388.564 333.849 349.598 312.929C351.842 309.743 353.933 306.443 355.862 303.038C397.626 313.689 437.059 342.095 479.88 336.497C484.07 335.949 488.787 334.657 490.638 330.858C493.272 325.454 488.302 319.487 483.41 315.992C465.085 302.899 442.3 297.963 420.106 294.133C401.405 290.906 382.604 288.267 363.742 286.179C365.122 282.5 366.325 278.736 367.342 274.894C391.037 271.11 414.733 267.326 438.428 263.541C450.189 261.663 462.223 259.693 472.639 253.916C475.606 252.27 478.574 250.127 479.75 246.944C481.616 241.896 478.025 236.133 473.199 233.749C468.373 231.365 462.729 231.515 457.356 231.841C428.124 233.615 399.127 239.108 371.247 248.072C371.286 246.811 371.313 245.546 371.313 244.275C371.313 240.237 371.11 236.247 370.718 232.312C412.658 229.223 454.482 224.56 496.071 218.33C503.503 217.217 511.353 215.863 517.036 210.947C522.718 206.033 524.884 196.274 519.449 191.085Z" fill="#78A015"/>
<path d="M485.026 226.063C483.074 223.661 480.014 222.489 477.056 221.577C437.454 209.365 395.925 225.954 354.764 233.09C354.602 231.284 354.394 229.489 354.138 227.707C388.52 205.079 437.588 205.042 465.591 174.343C468.013 171.688 470.368 168.26 469.487 164.777C468.233 159.821 461.73 158.671 456.634 159.085C437.545 160.633 420.033 169.927 403.512 179.616C385.564 190.141 368.033 201.377 350.962 213.272C350.362 211.262 349.704 209.276 348.983 207.316C365.532 188.106 382.082 168.897 398.63 149.687C405.241 142.014 411.978 134.131 415.576 124.663C416.601 121.966 417.353 118.945 416.371 116.232C414.813 111.928 409.318 110.154 404.875 111.253C400.432 112.352 396.847 115.547 393.535 118.706C372.241 139.022 354.014 162.536 339.568 188.177C333.294 178.22 325.313 169.385 315.982 162.114C337.569 146.124 358.707 129.528 379.357 112.345C384.269 108.258 389.379 103.811 391.343 97.73C393.307 91.649 390.577 83.599 384.337 82.224C381.315 81.558 378.19 82.546 375.307 83.673C343.324 96.177 322.615 124.986 300.653 152.246C297.333 150.513 293.898 148.957 290.36 147.589C306.634 116.276 334.553 88.966 336.935 53.839C337.178 50.253 336.888 46.105 334.03 43.927C329.964 40.828 324.158 43.976 320.427 47.471C306.449 60.564 298.528 78.738 291.628 96.604C285.712 111.922 280.285 127.428 275.325 143.081C272.468 142.46 269.563 141.952 266.609 141.572C267.466 119.787 268.322 98.002 269.179 76.218C269.576 66.097 269.944 55.734 266.866 46.085C265.99 43.336 264.698 40.503 262.241 38.991C258.343 36.592 252.938 38.624 250.145 42.25C247.351 45.875 246.534 50.607 245.908 55.141C241.985 83.585 242.236 112.595 246.571 140.977C242.322 141.27 238.133 141.829 234.022 142.639C236.733 114.298 238.648 85.871 239.755 57.411C240.003 51.026 240.126 44.253 237.114 38.722C234.103 33.19 226.745 29.824 221.836 33.536C219.458 35.334 218.172 38.316 217.137 41.211C205.16 74.706 213.337 110.975 218.527 147.004C215.444 148.145 212.427 149.432 209.484 150.858C196.578 117.04 195.939 75.982 171.994 49.716C169.64 47.134 166.555 44.57 163.223 45.234C158.483 46.177 157.012 52.596 157.097 57.708C157.413 76.856 165.114 94.912 173.246 112.003C180.679 127.624 188.6 142.982 196.986 158.05C194.842 159.495 192.756 161.021 190.728 162.624C175.414 146.754 160.099 130.884 144.784 115.015C137.956 107.94 130.94 100.725 122.243 96.546C119.765 95.356 116.967 94.417 114.355 95.228C110.21 96.515 108.213 101.889 108.982 106.392C109.751 110.895 112.544 114.671 115.319 118.173C133.004 140.481 153.822 159.98 176.837 175.911C173.006 180.34 169.547 185.115 166.511 190.193C148.839 169.367 130.571 149.046 111.732 129.269C107.325 124.642 102.545 119.841 96.347 118.289C90.148 116.737 82.2989 120 81.3459 126.318C80.8839 129.379 82.0789 132.43 83.3969 135.231C98.3339 166.978 129.461 185.843 158.681 206.431C157.416 209.796 156.317 213.25 155.405 216.791C122.048 202.947 92.3299 175.539 56.2019 175.516C52.6079 175.513 48.4889 176.081 46.5069 179.079C43.6879 183.344 47.2169 188.925 50.9549 192.413C64.9549 205.482 83.6189 212.168 101.907 217.855C118.681 223.072 135.628 227.73 152.71 231.829C152.437 234.466 152.267 237.091 152.198 239.7C129.156 240.34 106.113 240.98 83.0699 241.619C72.9459 241.9 62.581 242.228 53.159 245.945C50.475 247.004 47.7359 248.482 46.3909 251.035C44.2579 255.085 46.6479 260.342 50.4529 262.886C54.2579 265.431 59.0339 265.93 63.5989 266.249C93.7169 268.361 124.148 265.826 153.52 258.842C154.765 266.368 156.846 273.652 159.68 280.579C129.832 282.607 100.048 285.57 70.3869 289.47C64.0509 290.303 57.3559 291.334 52.4489 295.427C47.5419 299.52 45.5509 307.783 50.0939 312.278C52.2939 314.455 55.4629 315.288 58.5019 315.875C95.1519 322.945 130.827 306.618 166.885 294.865C168.471 297.476 170.169 300.017 171.981 302.474C140.536 323.743 97.5369 330.765 75.0159 361.588C72.8959 364.489 70.927 368.151 72.18 371.52C73.964 376.311 80.5529 376.749 85.5739 375.787C104.384 372.181 120.785 361.045 136.159 349.623C151.65 338.115 166.711 326.031 181.327 313.432C182.871 315.003 184.472 316.522 186.118 317.993C172.163 338.278 158.209 358.563 144.254 378.847C138.514 387.192 132.67 395.758 130.119 405.56C129.392 408.352 128.972 411.437 130.242 414.028C132.257 418.138 137.911 419.305 142.209 417.731C146.507 416.158 149.725 412.593 152.675 409.094C172.85 385.157 189.189 358.004 200.966 329.001C208.379 333.51 216.449 337.106 225.04 339.621C214.939 364.379 205.53 389.419 196.836 414.706C194.758 420.749 192.697 427.202 194.174 433.419C195.651 439.636 202.162 445.101 208.21 443.037C211.139 442.038 213.298 439.572 215.177 437.113C235.344 410.718 238.579 376.759 242.956 343.161C246.966 343.589 250.948 343.773 254.889 343.73C256.051 377.397 248.082 413.012 263.461 442.701C265.113 445.891 267.514 449.287 271.088 449.666C276.172 450.204 279.501 444.501 280.876 439.577C286.029 421.132 283.369 401.485 279.996 382.633C277.569 369.07 274.783 355.57 271.657 342.152C275.391 341.48 279.061 340.599 282.657 339.526C291.693 355.821 300.729 372.116 309.765 388.411C314.677 397.268 319.741 406.317 327.379 412.969C329.555 414.864 332.129 416.615 335.014 416.632C339.591 416.66 343.156 412.118 343.663 407.569C344.169 403.02 342.413 398.551 340.594 394.35C330.807 371.744 318.175 350.376 303.142 330.861C308.297 327.978 313.191 324.658 317.762 320.936C337.967 344.961 358.96 368.323 380.704 390.963C385.131 395.572 389.929 400.354 396.134 401.88C402.34 403.406 410.175 400.111 411.103 393.788C411.552 390.726 410.345 387.68 409.016 384.885C393.127 351.473 359.295 332.456 328.668 310.628C330.903 308.182 333.021 305.621 335.014 302.957C369.102 316.422 399.32 344.615 436.044 344.487C439.638 344.474 443.755 343.89 445.724 340.884C448.526 336.607 444.973 331.04 441.222 327.568C427.168 314.557 408.476 307.948 390.165 302.336C374.736 297.608 359.158 293.364 343.471 289.579C345.03 286.623 346.449 283.577 347.719 280.445C368.114 279.795 388.509 279.144 408.904 278.494C419.028 278.171 429.39 277.8 438.797 274.044C441.477 272.975 444.211 271.484 445.544 268.926C447.66 264.867 445.249 259.621 441.433 257.093C437.618 254.564 432.841 254.085 428.273 253.784C403.422 252.144 378.372 253.668 353.891 258.239C354.059 257.178 354.218 256.114 354.354 255.042C354.787 251.636 355.044 248.248 355.135 244.886C390.846 246.78 426.628 247.333 462.381 246.539C468.769 246.397 475.537 246.098 480.859 242.56C486.18 239.022 489.054 231.023 485.026 226.063Z" fill="#7EBB15"/>
<path d="M439.048 202.765C444.229 197.322 445.441 187.4 439.528 182.762C436.664 180.515 432.849 179.969 429.22 179.694C386.932 176.488 348.654 198.673 309.551 216.946C303.946 216.458 298.329 216.107 292.707 215.889C326.493 183.105 380.323 169.836 403.766 128.517C405.851 124.841 407.659 120.297 405.74 116.532C403.011 111.175 395.254 111.551 389.518 113.353C368.032 120.103 350.372 135.323 333.953 150.738C311.975 171.371 291.002 193.073 271.11 215.724C270.248 215.744 269.386 215.761 268.524 215.787C285.869 183.088 303.213 150.389 320.558 117.689C326.139 107.167 331.811 96.373 333.469 84.578C333.942 81.218 334.017 77.557 332.184 74.703C329.277 70.173 322.514 69.572 317.705 71.99C312.896 74.408 309.618 79.005 306.643 83.491C292.851 104.293 281.324 126.586 272.257 149.84C274.97 124.556 277.113 99.211 278.674 73.83C279.135 66.33 279.449 58.37 275.827 51.786C272.205 45.202 263.113 41.048 256.905 45.282C253.898 47.333 252.224 50.804 250.865 54.18C231.227 102.957 250.663 157.659 253.139 210.183C221.622 167.11 230.676 102.113 194.388 62.975C191.514 59.876 187.729 56.78 183.56 57.471C177.629 58.453 175.643 65.961 175.627 71.972C175.566 94.494 184.737 115.928 194.467 136.239C200.895 149.657 207.661 162.912 214.719 176.01C193.218 156.572 171.216 137.69 148.737 119.392C142.909 114.648 136.622 109.757 129.16 108.866C121.699 107.975 113.027 112.946 112.851 120.458C112.8 122.618 113.433 124.685 114.361 126.653C114.385 127.081 114.424 127.507 114.49 127.926C115.342 133.241 118.733 137.755 122.11 141.947C142.594 167.368 166.68 189.872 193.375 208.666C159.363 195.916 126.3 177.091 90.8171 181.58C86.6251 182.111 81.903 183.384 80.036 187.175C77.38 192.568 82.325 198.555 87.203 202.071C105.474 215.239 128.238 220.27 150.415 224.192C171.1 227.849 191.908 230.81 212.792 233.072C194.762 238.582 176.824 244.393 158.99 250.507C149.982 251.907 140.975 253.308 131.967 254.709C120.198 256.539 108.156 258.459 97.7171 264.192C94.7431 265.826 91.7661 267.958 90.5771 271.134C89.1991 274.816 90.736 278.883 93.537 281.749C91.27 287.548 92.1881 294.74 97.3831 297.943C100.481 299.853 104.333 299.967 107.97 299.832C133.578 298.883 156.688 288.883 179.088 276.143C196.389 271.761 213.359 266.071 229.796 259.118C199.427 289.05 155.769 308.571 139.02 347.82C137.362 351.707 136.077 356.425 138.407 359.951C141.722 364.967 149.387 363.721 154.884 361.285C175.474 352.161 191.309 335.05 205.89 317.885C222.515 298.314 238.329 278.055 253.295 257.187C254.268 259.653 255.246 262.116 256.23 264.578C245.127 292.791 234.023 321.004 222.92 349.217C218.558 360.3 214.137 371.664 213.816 383.571C213.725 386.963 214.062 390.608 216.204 393.239C219.603 397.413 226.391 397.25 230.897 394.305C235.403 391.362 238.144 386.425 240.594 381.632C253.961 355.493 263.988 327.658 270.441 299.018C281.588 325.204 293.396 351.108 305.86 376.692C309.151 383.448 312.797 390.53 319.191 394.477C325.585 398.424 335.544 397.564 338.863 390.823C340.471 387.557 340.219 383.712 339.739 380.104C333.974 336.688 302.591 303.04 276.076 267.296C276.616 263.166 277.078 259.027 277.469 254.881C315.754 281.401 339.806 330.385 384.566 344.643C388.593 345.926 393.412 346.757 396.7 344.104C401.379 340.328 399.411 332.816 396.466 327.576C385.431 307.943 366.897 293.802 348.427 280.914C327.681 266.436 306.348 252.803 284.501 240.049C288.836 239.332 293.168 238.593 297.498 237.842C324.333 245.558 351.168 253.275 378.002 260.99C389.449 264.282 401.181 267.606 413.064 266.797C416.449 266.566 420.046 265.885 422.462 263.503C426.295 259.724 425.489 252.982 422.131 248.775C418.773 244.569 413.599 242.309 408.596 240.323C393.314 234.259 377.6 229.294 361.617 225.442C380.786 221.344 399.883 216.911 418.895 212.145C426.185 210.314 433.867 208.208 439.048 202.765ZM228.302 209.717C231.126 211.31 233.926 212.931 236.69 214.591C237.675 216.229 238.677 217.857 239.672 219.489C239.044 219.462 238.417 219.425 237.79 219.386C234.628 216.163 231.465 212.94 228.302 209.717ZM245.247 236.364C245.334 236.594 245.422 236.824 245.509 237.054C244.776 237.168 244.043 237.282 243.31 237.396C243.955 237.049 244.601 236.705 245.247 236.364ZM262.693 248.155C262.209 247.407 261.729 246.658 261.254 245.907C261.312 245.823 261.369 245.74 261.427 245.657C262.063 245.948 262.698 246.244 263.326 246.549C263.115 247.084 262.904 247.62 262.693 248.155Z" fill="#94D31A"/>
</svg>
