<svg width="527" height="526" viewBox="0 0 527 526" fill="none" xmlns="http://www.w3.org/2000/svg">
<path d="M184.031 117.515C174.503 122.703 164.895 128.498 158.538 137.275C154.867 142.344 152.397 148.264 148.237 152.944C140.478 161.673 128.28 164.672 118.207 170.599C95.4052 184.017 85.2112 211.054 76.6392 236.036C72.0762 249.332 67.5052 263.902 72.3012 277.116C74.9352 284.375 80.1972 290.468 82.7572 297.754C87.1862 310.362 82.9672 324.729 87.2462 337.389C94.1322 357.759 119.388 365.606 131.32 383.508C143.151 401.257 142.336 428.958 161.646 438.087C171.914 442.941 184.425 440.207 194.948 444.486C207.169 449.455 215.144 463.232 228.208 465.104C236.767 466.331 245.032 461.99 253.535 460.425C271.608 457.1 290.14 466.429 308.293 463.57C320.899 461.585 331.785 453.973 342.169 446.574C356.452 436.397 370.734 426.22 385.016 416.043C393.707 409.85 402.689 403.336 407.799 393.981C412.143 386.028 413.267 376.762 416.326 368.235C422.061 352.246 434.322 339.478 442.02 324.332C460.94 287.107 449.883 242.204 436.289 202.733C427.981 178.609 418.452 154.104 401.04 135.414C375.731 108.25 332.067 90.643 295.761 85.839C255.468 80.508 218.795 98.587 184.031 117.515Z" fill="#94D31A"/>
<path d="M106.918 279.919C105.303 264.539 110.39 248.962 118.87 236.029C127.349 223.096 139.042 212.569 151.456 203.348C137.497 213.208 122.235 221.714 105.545 225.389C88.8552 229.065 70.5222 227.498 56.0532 218.403C78.1622 201.291 106 191.718 133.958 191.611C104.841 187.204 78.7783 166.376 68.0573 138.949C79.2173 136.095 90.8932 140.595 101.055 146.02C119.549 155.894 136.228 169.154 150.016 184.946C143.137 171.131 136.607 156.92 133.816 141.741C131.025 126.562 132.287 110.14 140.217 96.9C164.418 116.427 176.539 149.834 170.489 180.336C187.46 165.714 207.146 150.169 229.446 152.306C230.583 166.213 218.805 177.408 208.057 186.306C197.99 194.641 187.85 202.052 175.841 207.31C163.74 212.608 162.388 216.978 157.028 228.796C151.926 240.046 144.918 250.348 136.25 259.159C133.815 261.635 106.941 280.143 106.918 279.919Z" fill="#78A015"/>
<path d="M186.493 399.439C172.348 393.188 161.366 381.024 154.367 367.235C147.367 353.445 144.054 338.064 142.231 322.708C143.838 339.723 143.623 357.192 138.508 373.499C133.392 389.806 122.911 404.929 107.823 412.955C103.98 385.262 109.526 356.351 123.344 332.047C105.034 355.11 74.0003 367.357 44.8743 363.01C47.9513 351.91 57.6632 344.021 67.4252 337.905C85.1912 326.775 104.992 318.905 125.551 314.801C110.145 313.894 94.5692 312.488 80.0132 307.358C65.4582 302.226 51.8412 292.96 44.3022 279.495C73.2812 268.217 108.29 274.325 131.74 294.748C127.499 272.752 123.81 247.941 136.759 229.661C149.388 235.594 153.239 251.38 155.611 265.131C157.832 278.01 159.215 290.493 157.801 303.527C156.376 316.66 159.493 320.006 167.078 330.537C174.299 340.56 179.748 351.765 183.078 363.667C184.015 367.011 186.699 399.53 186.493 399.439Z" fill="#78A015"/>
<path d="M317.395 396.978C304.796 405.946 288.73 409.173 273.299 408.148C257.869 407.122 242.953 402.114 228.819 395.838C244.268 403.147 259.178 412.255 270.584 424.983C281.99 437.71 289.638 454.445 288.831 471.516C263.06 460.675 241.038 441.14 227.201 416.846C237.678 444.367 232.354 477.303 213.74 500.122C205.768 491.806 203.947 479.428 203.676 467.911C203.182 446.952 206.53 425.909 213.503 406.139C204.854 418.921 195.689 431.594 183.844 441.486C171.998 451.379 157.077 458.353 141.649 457.957C146.756 427.282 169.888 400.304 199.424 390.576C178.347 382.987 155.133 373.485 146.031 353.016C157.582 345.189 173.121 349.942 186.155 354.926C198.362 359.595 209.8 364.78 220.283 372.655C230.846 380.588 235.315 379.618 248.242 378.474C260.548 377.386 272.963 378.424 284.897 381.641C288.251 382.544 317.579 396.847 317.395 396.978Z" fill="#78A015"/>
<path d="M401.605 309.986C401.012 325.439 393.756 340.132 383.52 351.724C373.285 363.317 360.21 372.069 346.608 379.428C361.83 371.657 378.148 365.414 395.192 364.155C412.236 362.896 430.158 367.059 443.184 378.124C418.861 391.91 389.943 397.419 362.255 393.539C390.446 402.051 413.275 426.381 419.978 455.056C408.525 456.291 397.61 450.173 388.325 443.355C371.427 430.947 356.808 415.445 345.411 397.848C350.251 412.503 354.689 427.499 355.288 442.92C355.887 458.342 352.297 474.417 342.561 486.392C321.39 463.615 314.154 428.822 324.488 399.493C305.607 411.548 283.906 424.128 262.139 418.835C262.996 404.907 276.249 395.506 288.155 388.23C299.307 381.415 310.399 375.525 323.036 372.032C335.768 368.512 337.73 364.381 344.719 353.446C351.373 343.038 359.777 333.84 369.613 326.355C372.377 324.25 401.614 309.761 401.605 309.986Z" fill="#78A015"/>
<path d="M371.774 202.227C383.927 211.79 391.551 226.295 394.914 241.39C398.276 256.484 397.673 272.206 395.632 287.536C398.293 270.654 402.832 253.783 411.83 239.253C420.829 224.724 434.731 212.671 451.338 208.636C448.196 236.417 435.656 263.051 416.244 283.171C439.7 265.366 472.801 261.195 499.94 272.627C494.208 282.619 482.843 287.854 471.869 291.359C451.898 297.737 430.765 300.453 409.83 299.332C424.531 304.029 439.272 309.253 452.101 317.832C464.93 326.411 475.825 338.764 479.79 353.679C448.919 357.42 416.517 342.824 398.863 317.226C397.519 339.587 394.942 364.538 377.866 379.038C367.101 370.159 367.284 353.911 368.396 340.001C369.437 326.974 371.19 314.537 375.792 302.261C380.428 289.892 378.237 285.876 373.499 273.795C368.989 262.295 366.487 250.089 366.212 237.732C366.136 234.257 371.597 202.087 371.774 202.227Z" fill="#78A015"/>
<path d="M278.375 115.16C293.689 113.008 309.435 117.548 322.656 125.57C335.877 133.592 346.805 144.911 356.456 156.995C346.114 143.389 337.08 128.434 332.824 111.882C328.568 95.33 329.493 76.954 338.077 62.176C355.951 83.674 366.492 111.161 367.575 139.098C370.962 109.845 390.866 83.07 417.902 71.397C421.145 82.451 417.055 94.276 411.988 104.621C402.767 123.449 390.097 140.581 374.797 154.913C388.363 147.556 402.337 140.533 417.409 137.213C432.481 133.894 448.937 134.581 462.447 142.044C443.778 166.913 410.814 180.193 380.119 175.214C395.326 191.663 411.549 210.794 410.192 233.154C396.333 234.776 384.734 223.397 375.465 212.966C366.783 203.197 359.023 193.322 353.348 181.504C347.63 169.596 343.216 168.397 331.218 163.453C319.796 158.747 309.256 152.104 300.148 143.749C297.588 141.401 278.152 115.191 278.375 115.16Z" fill="#78A015"/>
<path d="M167.786 166.365C176.054 153.297 189.704 144.228 204.375 139.338C219.046 134.448 234.747 133.439 250.205 133.9C233.14 132.981 215.892 130.193 200.517 122.729C185.143 115.265 171.73 102.669 166.017 86.562C193.974 86.844 221.751 96.592 243.753 113.842C223.64 92.332 216.104 59.832 224.697 31.665C235.223 36.345 241.594 47.114 246.203 57.671C254.592 76.884 259.457 97.629 260.485 118.568C263.653 103.464 267.34 88.265 274.561 74.626C281.782 60.986 292.954 48.884 307.385 43.413C314.267 73.738 303.065 107.465 279.407 127.646C301.788 126.694 326.872 126.704 343.043 142.206C335.313 153.823 319.131 155.304 305.181 155.623C292.115 155.921 279.565 155.449 266.882 152.129C254.103 148.783 250.333 151.373 238.8 157.323C227.821 162.987 215.936 166.725 203.673 168.263C200.226 168.695 167.665 166.555 167.786 166.365Z" fill="#78A015"/>
<path d="M100.011 334.28C91.4372 321.41 88.7062 305.252 90.2082 289.86C91.7102 274.469 97.1762 259.715 103.886 245.782C96.1032 260.998 86.5392 275.619 73.4662 286.626C60.3932 297.634 43.4302 304.761 26.3922 303.428C38.0232 278.004 58.2292 256.595 82.9392 243.516C55.1072 253.137 22.3522 246.799 0.118164 227.49C8.67616 219.778 21.1052 218.34 32.6242 218.425C53.5882 218.579 74.5182 222.574 94.0642 230.155C81.5552 221.115 69.1722 211.564 59.6502 199.419C50.1282 187.273 43.6182 172.144 44.4912 156.735C74.9932 162.786 101.244 186.741 110.055 216.563C118.292 195.73 128.505 172.821 149.246 164.355C156.713 176.143 151.482 191.527 146.098 204.4C141.054 216.457 135.517 227.73 127.324 237.964C119.069 248.277 119.901 252.774 120.644 265.73C121.351 278.063 119.931 290.441 116.347 302.27C115.337 305.595 100.136 334.468 100.011 334.28Z" fill="#78A015"/>
<path d="M235.774 419.922C221.035 424.603 204.752 422.759 190.376 417.06C176 411.36 163.333 402.028 151.799 391.727C164.269 403.413 175.676 416.647 182.639 432.254C189.602 447.861 191.762 466.135 185.769 482.14C164.553 463.932 149.566 438.594 143.829 411.231C145.379 440.638 130.231 470.364 105.526 486.392C100.482 476.036 102.537 463.693 105.803 452.646C111.747 432.542 121.375 413.534 134.064 396.845C121.918 406.366 109.315 415.626 95.0103 421.419C80.7053 427.211 64.3653 429.283 49.7993 424.184C64.0493 396.544 94.3283 377.941 125.424 377.72C107.681 364.044 88.4893 347.894 86.0893 325.621C99.4823 321.704 112.82 330.985 123.702 339.72C133.894 347.901 143.196 356.338 150.767 367.042C158.395 377.827 162.947 378.271 175.603 381.14C187.651 383.87 199.153 388.659 209.53 395.373C212.446 397.261 235.989 419.854 235.774 419.922Z" fill="#78A015"/>
<path d="M376.065 379.043C370.384 393.426 358.669 404.885 345.169 412.43C331.67 419.975 316.434 423.9 301.162 426.334C318.099 424.049 335.564 423.565 352.062 428.025C368.56 432.486 384.089 442.353 392.712 457.109C365.195 462.056 336.085 457.67 311.248 444.833C335.025 462.207 348.502 492.726 345.322 522.003C334.107 519.372 325.836 509.983 319.336 500.473C307.505 483.166 298.85 463.696 293.929 443.317C293.638 458.747 292.856 474.367 288.31 489.116C283.765 503.864 275.05 517.841 261.895 525.912C249.469 497.406 254.173 462.181 273.643 437.934C251.834 443.05 227.19 447.728 208.408 435.519C213.831 422.663 229.451 418.185 243.096 415.266C255.876 412.532 268.294 410.651 281.374 411.542C294.553 412.441 297.773 409.193 307.991 401.193C317.718 393.578 328.696 387.684 340.456 383.883C343.761 382.814 376.147 378.833 376.065 379.043Z" fill="#78A015"/>
<path d="M436.012 286.081C439.831 301.066 437.046 317.216 430.523 331.236C424 345.257 413.949 357.363 402.996 368.28C415.386 356.509 429.259 345.888 445.244 339.842C461.228 333.794 479.596 332.698 495.226 339.609C475.819 359.734 449.655 373.227 422.005 377.369C451.453 377.525 480.25 394.372 494.818 419.964C484.187 424.4 471.985 421.633 461.146 417.731C441.42 410.631 423.001 399.918 407.077 386.283C415.879 398.96 424.392 412.079 429.346 426.696C434.299 441.312 435.421 457.745 429.486 471.991C402.719 456.163 385.902 424.856 387.484 393.8C372.803 410.72 355.567 428.944 333.193 430.049C330.059 416.452 340.098 403.674 349.448 393.317C358.205 383.616 367.169 374.819 378.294 367.881C389.503 360.892 390.211 356.372 393.808 343.903C397.232 332.034 402.679 320.829 409.984 310.858C412.037 308.057 435.956 285.862 436.012 286.081Z" fill="#78A015"/>
<path d="M359.679 137.96C374.917 140.597 388.518 149.738 398.65 161.421C408.782 173.104 415.723 187.224 421.213 201.681C415.531 185.563 411.507 168.561 412.519 151.5C413.532 134.44 420.036 117.229 432.73 105.786C443.168 131.723 444.792 161.116 437.274 188.044C449.45 161.231 476.593 141.831 505.904 138.991C505.609 150.507 498.097 160.513 490.108 168.812C475.567 183.915 458.263 196.348 439.311 205.31C454.478 202.457 469.931 200.047 485.295 201.499C500.659 202.951 516.116 208.641 526.693 219.879C501.309 237.842 465.863 240.399 438.165 226.265C447.609 246.578 457.199 269.756 449.065 290.629C435.374 287.933 427.814 273.549 422.181 260.783C416.905 248.825 412.538 237.05 410.752 224.062C408.953 210.976 405.118 208.483 395.207 200.105C385.773 192.129 377.771 182.58 371.657 171.838C369.94 168.822 359.456 137.921 359.679 137.96Z" fill="#78A015"/>
<path d="M229.108 121.216C239.792 110.035 254.962 103.838 270.309 101.938C285.657 100.039 301.248 102.146 316.311 105.647C299.762 101.38 283.403 95.244 269.803 84.894C256.203 74.544 245.539 59.55 243.115 42.632C270.467 48.423 295.776 63.459 313.942 84.711C298.468 59.656 297.491 26.308 311.471 0.388977C320.867 7.05398 324.989 18.868 327.425 30.127C331.859 50.617 332.536 71.914 329.413 92.645C335.499 78.462 342.111 64.29 351.881 52.343C361.651 40.396 374.991 30.735 390.217 28.218C390.982 59.305 373.346 90.159 346.172 105.277C368.301 108.759 392.89 113.717 405.685 132.105C395.815 141.968 379.66 140.228 365.921 137.789C353.053 135.504 340.842 132.565 329.064 126.808C317.196 121.008 312.989 122.803 300.509 126.361C288.629 129.748 276.24 131.068 263.914 130.157C260.45 129.899 228.952 121.378 229.108 121.216Z" fill="#78A015"/>
<path d="M122.087 205.178C123.388 189.769 131.31 175.423 142.066 164.312C152.823 153.201 166.284 145.057 180.209 138.33C164.646 145.393 148.06 150.883 130.976 151.359C113.892 151.836 96.1803 146.855 83.6753 135.205C108.604 122.548 137.745 118.372 165.225 123.517C137.454 113.722 115.764 88.371 110.383 59.419C121.88 58.711 132.504 65.322 141.466 72.559C157.777 85.729 171.67 101.885 182.248 119.985C178.085 105.124 174.339 89.94 174.448 74.507C174.556 59.074 178.88 43.181 189.155 31.665C209.259 55.389 214.893 90.477 203.224 119.301C222.638 108.125 244.893 96.552 266.394 102.839C264.9 116.713 251.23 125.496 239.002 132.219C227.55 138.515 216.199 143.891 203.416 146.801C190.536 149.733 188.387 153.771 180.904 164.373C173.78 174.466 164.963 183.269 154.795 190.295C151.939 192.269 122.068 205.402 122.087 205.178Z" fill="#78A015"/>
<path d="M443.106 275.716C432.022 271.047 419.584 269.927 407.762 272.098C407.052 265.099 404.758 258.036 401.962 251.222C402.798 249.007 403.547 246.761 404.215 244.49C423.383 251.535 446.036 248.81 462.751 236.982C454.984 228.729 443.633 224.55 432.35 223.484C421.067 222.418 409.719 224.188 398.581 226.283C412.498 219.701 425.206 210.571 435.884 199.48C441.751 193.386 447.268 186.037 447.485 177.581C425.96 179.666 406.028 193.913 397.086 213.603C398.864 207.236 399.941 200.681 400.335 194.084C406.167 190.224 411.365 185.426 415.571 179.822C410.643 177.1 405.18 175.607 399.574 175.092C398.52 167.594 396.576 160.222 393.749 153.196C386.92 159.351 382.541 167.782 380.389 176.774C372.98 178.649 365.926 181.693 359.067 185.143C358.344 184.616 357.606 184.111 356.859 183.622C358.623 181.747 360.328 179.818 361.975 177.84C366.488 177.292 370.649 175.76 373.889 172.523C372.63 170.713 371.212 169.086 369.667 167.61C372.964 162.732 375.927 157.628 378.517 152.34C382.238 144.743 385.241 136.059 382.86 127.941C369.454 133.729 358.443 144.576 351.935 157.623C348.768 156.572 345.489 155.722 342.179 155C341.344 152.15 340.373 149.341 339.277 146.581C353.969 134.391 363.001 115.373 362.53 96.232C351.348 98.081 341.552 105.175 334.377 113.949C331.62 117.321 329.206 120.936 327.024 124.699C326.124 123.501 325.198 122.323 324.239 121.17C320.596 127.441 318.842 134.594 318.604 141.861C318.36 142.423 318.118 142.984 317.877 143.546C320.171 128.322 319.673 112.683 316.417 97.635C314.628 89.367 311.601 80.691 304.701 75.797C299.21 85.976 296.865 97.714 297.605 109.248C292.872 111.743 288.699 115.227 285.134 119.297C275.753 113.393 265.348 109.114 254.503 106.818C256.283 119.242 264.115 130.253 274.102 137.854C274.112 137.861 274.121 137.868 274.13 137.874C272.489 142.015 271.168 146.288 270.029 150.618C268.686 150.299 267.339 150.074 265.99 149.93C264.331 138.9 261.234 128.085 256.77 117.863C253.385 110.111 248.707 102.202 240.977 98.765C235.572 116.48 238.862 136.524 249.194 151.839C248.124 152.163 247.057 152.521 245.993 152.904C240.749 149.714 235.193 147.038 229.43 144.917C230.7 128.436 225.588 111.404 214.877 98.765C207.332 107.222 204.157 118.893 204.077 130.226C204.056 133.297 204.247 136.354 204.591 139.398C202.361 139.212 200.123 139.102 197.884 139.079C199.884 144.719 203.18 149.764 207.295 154.102C208.066 157.294 208.921 160.469 209.805 163.623C202.037 150.331 191.834 138.467 179.856 128.795C173.274 123.481 165.473 118.625 157.029 119.145C159.438 132.106 166.302 144.077 175.909 153.084C174.533 156.858 173.722 160.839 173.406 164.887C160.91 165.781 148.587 169.129 137.415 174.801C139.522 176.764 141.838 178.457 144.296 179.916C138.381 177.429 132.058 175.987 125.945 177.55C132.805 195.1 148.22 208.968 166.218 214.387C165.752 215.164 165.299 215.953 164.857 216.752C159.837 217.291 154.862 218.238 149.992 219.571C140.822 204.925 125.631 193.983 108.638 190.612C107.997 201.927 112.778 213.038 119.77 221.957C121.863 224.626 124.147 227.123 126.563 229.492C123.291 231.431 120.138 233.569 117.129 235.898C118.203 236.573 119.312 237.176 120.439 237.74C113.664 236.582 106.796 235.965 99.9232 235.915C91.4642 235.853 82.3362 236.909 76.0522 242.572C92.3802 256.752 116.434 261.406 136.873 254.341C118.727 263.946 103.889 279.668 95.3472 298.338C103.655 298.988 111.933 296.889 119.373 293.045C123.975 296.568 129.258 299.296 134.725 301.224C137.341 302.146 140.001 302.902 142.693 303.531C143.271 306.946 144.181 310.291 145.466 313.48C145.07 313.64 144.674 313.803 144.28 313.967C142.589 313.936 140.888 314.138 139.187 314.635C139.241 315.135 139.307 315.629 139.383 316.12C134.6 318.344 129.95 320.855 125.48 323.656C118.311 328.147 111.179 333.94 108.919 342.093C122.36 344.099 136.354 341.29 148.235 334.724C150.819 337.925 153.788 340.921 156.931 343.755C156.082 347.281 155.434 350.856 154.99 354.455C137.088 358.587 120.979 370.639 112.535 387.017C123.232 390.761 135.231 389.24 145.737 384.986C156.242 380.732 165.497 373.932 174.417 366.94C165.098 379.195 158.028 393.155 153.663 407.919C151.265 416.03 149.755 425.095 153.46 432.7C171.603 420.93 182.727 399.101 181.588 377.505C182.711 382.862 184.322 388.111 186.369 393.187C183.273 399.01 181.073 405.298 179.988 411.818C185.027 411.948 189.99 411.002 194.715 409.278C199.601 416.841 205.554 423.713 212.388 429.578C216.081 419.715 215.547 408.682 212.262 398.615C217.02 394.439 221.188 389.658 225.042 384.61C226.448 384.916 227.863 385.166 229.285 385.36C226.545 396.383 225.271 407.772 225.539 419.129C225.738 427.586 227.076 436.678 232.93 442.783C242.436 431.13 247.216 415.883 246.662 400.879C250.12 401.126 253.659 401.023 257.221 400.683C260.78 404.326 264.628 407.685 268.721 410.715C261.703 426.712 261.293 445.667 268.292 461.723C277.952 455.796 284.352 445.532 287.69 434.701C291.028 423.87 291.603 412.399 291.816 401.068C295.43 416.033 301.786 430.332 310.474 443.042C315.247 450.025 321.321 456.921 329.557 458.853C330.58 449.431 329.254 439.833 325.972 430.951C326.48 431.544 326.998 432.129 327.53 432.702C332.339 426.787 335.098 419.51 336.261 411.934C345.596 413.084 355.1 412.864 364.359 411.199C358.236 400.722 347.368 393.611 335.703 390.19C335.529 389.201 335.334 388.214 335.129 387.229C337.332 386.084 339.46 384.743 341.518 383.251C347.417 389.857 353.999 395.855 361.138 401.098C365.588 404.366 370.55 407.404 375.797 408.875C380.216 414.107 385.457 418.633 391.365 422.126C395.723 411.664 394.9 399.597 391.262 388.863C388.08 379.473 382.897 370.925 377.323 362.7C377.802 362.583 378.279 362.465 378.755 362.341C389.533 370.859 401.69 377.628 414.615 382.28C422.574 385.145 431.536 387.176 439.343 383.92C430.903 369.093 415.957 358.27 399.406 354.302C400.083 353.941 400.757 353.573 401.424 353.195C400.123 352.09 398.751 351.088 397.327 350.167C408.241 347.081 418.595 342.013 427.739 335.301C427.928 335.28 428.118 335.266 428.307 335.242C428.281 335.143 428.246 335.047 428.22 334.948C432.291 331.92 436.119 328.565 439.642 324.911C433.912 322.378 427.681 321.31 421.416 321.429C417.733 316.545 413.064 312.324 407.973 308.918C404.464 306.571 400.76 304.567 396.935 302.797C397.313 300.133 397.475 297.447 397.401 294.772C405.914 293.853 414.334 292.083 422.49 289.478C430.551 286.897 438.896 283.054 443.106 275.716ZM391.373 277.483C387.952 279.16 384.685 281.15 381.644 283.459C384.452 280.549 387.06 277.451 389.462 274.2C390.066 275.318 390.701 276.418 391.373 277.483ZM138.684 277.13C144.041 270.72 148.445 263.461 152.259 256.003C148.86 263.06 145.897 270.405 144.023 277.991C142.256 277.63 140.474 277.346 138.684 277.13ZM259.71 173.841C256.185 173.736 252.642 173.735 249.11 173.892C249.612 173.624 250.115 173.353 250.617 173.079C253.642 173.432 256.68 173.678 259.71 173.841ZM201.68 204.91C203.667 202.813 205.538 200.607 207.284 198.298C209.002 198.408 210.854 198.521 212.703 198.627C208.688 201.559 204.842 204.778 201.171 207.942C201.371 206.935 201.534 205.924 201.68 204.91ZM187.193 224.841C185.365 226.199 183.56 227.598 181.789 229.039C181.901 228.785 182.011 228.529 182.122 228.273C183.837 227.161 185.529 226.016 187.193 224.841ZM164.685 274.128C166.453 272.893 168.238 271.633 169.862 270.473C170.108 277.654 171.372 284.999 172.714 291.961C169.994 289.592 167.06 287.486 163.967 285.651C164.486 281.835 164.736 277.985 164.685 274.128ZM191.285 243.53C195.221 234.851 196.215 231.642 205.101 227.751C213.92 223.89 221.367 218.447 228.759 212.327C234.712 207.398 241.092 201.51 243.512 194.532C246.175 193.508 248.79 192.354 251.333 191.042C259.802 186.673 262.571 184.771 271.955 187.228C281.269 189.666 290.485 190.013 300.08 189.793C302.438 189.739 304.884 189.639 307.321 189.414C311.092 191.789 315.067 193.841 319.2 195.544C328.012 199.174 331.253 200.055 335.452 208.8C338.849 215.876 343.275 221.999 348.244 227.908C347.054 234.702 344.857 248.197 344.899 250.089C345.101 259.164 346.938 268.127 350.251 276.572C353.73 285.444 355.339 288.393 351.935 297.476C349.771 303.249 348.467 309.073 347.606 315.025C347.525 315.079 347.451 315.129 347.397 315.171C340.174 320.668 334.003 327.423 329.116 335.067C323.983 343.096 322.543 346.13 313.193 348.715C305.311 350.894 298.248 354.345 291.28 358.401C288.29 357.018 285.909 355.967 285.185 355.772C276.421 353.41 267.303 352.647 258.266 353.447C248.773 354.286 245.491 354.999 237.734 349.173C230.035 343.392 221.635 339.583 212.671 336.154C211.015 335.52 209.303 334.893 207.562 334.317C205.242 328.636 202.26 323.237 198.663 318.244C193.093 310.511 190.804 308.053 191.85 298.409C192.889 288.838 191.872 279.671 190.241 270.213C189.297 264.741 188.032 258.834 185.598 253.873C187.746 250.575 189.655 247.123 191.285 243.53ZM347.245 343.435C347.523 344.527 347.864 345.588 348.276 346.61C342.166 348.603 336.23 351.226 330.505 354.148C336.331 350.996 342.02 347.492 347.245 343.435ZM201.556 374.229C200.868 374.82 200.194 375.425 199.532 376.044C195.842 371.466 191.732 367.195 187.446 363.179C191.897 367.155 196.582 370.93 201.556 374.229ZM244.006 366.197C252.73 370.071 261.86 373.279 271.278 374.654C270.615 375.717 270.051 376.826 269.604 377.983C268.012 378.14 266.424 378.334 264.836 378.565C258.443 373.66 251.309 369.652 244.006 366.197ZM367.908 320.206C368.072 318.796 368.214 317.384 368.338 315.975C369.032 314.038 369.595 312.062 370.018 310.055C370.56 310.787 371.12 311.504 371.695 312.209C370.277 314.798 369.022 317.472 367.908 320.206ZM366.506 286.665C368.005 275.408 368.448 263.862 365.978 252.777C365.174 249.167 364.032 245.605 362.557 242.197C366.975 245.349 371.858 247.354 377.198 246.729C377.57 240.593 376.139 234.789 373.619 229.295C375.717 231.875 376.888 234.802 377.61 240.053C378.053 243.272 378.715 246.388 379.543 249.444C379.153 250.026 378.77 250.612 378.402 251.207C371.794 261.877 368.46 274.268 366.506 286.665ZM385.292 223.617C382.708 216.81 379.681 210.108 375.883 203.912C377.209 203.671 378.528 203.387 379.837 203.063C380.97 210.049 382.937 216.937 385.292 223.617ZM346 176.923C345.968 177.168 345.93 177.412 345.901 177.658C345.891 177.406 345.876 177.153 345.864 176.901C345.909 176.908 345.955 176.916 346 176.923ZM317.621 168.632C320.323 169.953 323.056 171.072 325.826 172.037C329.115 178.66 333.255 184.905 337.737 190.801C330.651 181.927 322.625 173.615 312.916 167.724C311.928 167.125 310.917 166.56 309.893 166.016C312.106 166.307 314.501 167.108 317.621 168.632ZM306.517 137.719C305.074 136.031 303.566 134.4 302.005 132.822C302.19 131.86 302.346 130.892 302.488 129.923C303.637 132.613 304.976 135.223 306.517 137.719ZM308.256 153.093C304.135 152.135 299.96 151.32 295.76 150.745C295.976 150.331 296.184 149.913 296.391 149.494C300.287 150.882 304.263 152.063 308.256 153.093ZM200.458 181.166C200.401 180.932 200.35 180.696 200.29 180.462C202.999 179.42 205.674 178.291 208.308 177.095C205.659 178.375 203.033 179.726 200.458 181.166ZM197.305 166.216C196.399 166.046 195.49 165.895 194.579 165.753C194.444 165.501 194.31 165.249 194.172 164.998C195.205 165.432 196.248 165.843 197.305 166.216ZM172.153 186.663C173.39 186.628 174.622 186.548 175.851 186.444C176.866 190.024 178.121 193.536 179.53 196.995C178.321 198.29 177.158 199.636 176.066 201.038C168.419 194.061 159.921 188.018 150.818 183.091C157.537 185.725 164.92 186.865 172.153 186.663ZM142.087 242.368C143.071 243.093 144.058 243.812 145.046 244.527C143.008 243.736 140.947 243.006 138.871 242.321C139.941 242.368 141.014 242.385 142.087 242.368ZM157.396 305.867C160.981 306.227 164.581 306.476 168.169 306.687C163.819 307.555 159.519 308.661 155.285 309.979C156 308.598 156.717 307.204 157.396 305.867ZM163.761 322.603C164.728 321.554 165.66 320.472 166.549 319.353C165.836 320.608 165.156 321.881 164.502 323.168C164.256 322.979 164.009 322.791 163.761 322.603ZM180.353 337.293C181.385 329.108 181.196 320.729 180.418 312.494C181.273 319.701 182.58 326.913 184.751 333.824C184.228 334.102 183.713 334.409 183.209 334.75C184.47 337.587 186.102 340.136 188.021 342.443C188.439 343.368 188.87 344.287 189.33 345.193C190.471 347.441 191.765 349.626 193.188 351.722C191.012 350.38 189.05 348.393 186.687 345.051C184.726 342.279 182.603 339.716 180.353 337.293ZM310.943 385.698C310.911 386.264 310.89 386.832 310.874 387.399C306.277 387.546 301.678 387.979 297.132 388.593C301.769 387.854 306.402 386.923 310.943 385.698ZM314.866 411.831C311.818 408.225 308.36 404.971 304.538 402.179C307.305 403.609 310.145 404.894 313.041 406.035C313.56 407.995 314.169 409.93 314.866 411.831ZM360.805 374.113C359.064 372.806 357.257 371.588 355.391 370.47C356.982 368.74 358.531 366.989 360.043 365.251C360.197 365.242 360.351 365.233 360.505 365.225C360.381 368.195 360.487 371.166 360.805 374.113ZM374.86 342.949C379.758 337.806 384.305 332.3 388.033 326.298C389.889 327.415 391.8 328.44 393.758 329.369C387.057 333.091 380.889 337.812 375.153 342.969C375.055 342.961 374.958 342.956 374.86 342.949ZM383.368 297.449C381.229 296.716 379.081 296.012 376.933 295.326C379.76 295.478 382.592 295.532 385.423 295.494C384.724 296.156 384.036 296.81 383.368 297.449Z" fill="#7EBB15"/>
<path d="M358.433 342.404C355.167 335.241 349.729 329.048 343.167 324.609C345.842 321.15 347.792 316.937 349.395 312.606C350.747 311.996 352.071 311.334 353.366 310.622C359.456 322.55 371.412 331.696 384.461 334.049C384.317 326.798 380.714 319.732 375.802 314.091C370.89 308.449 364.727 304.049 358.523 299.89C367.982 303.312 377.962 305.038 387.82 304.957C393.237 304.913 399.027 304.146 402.771 300.458C391.627 291.542 376.005 288.8 363.271 293.526C366.859 291.488 370.194 289.046 373.222 286.271C377.66 287.211 382.201 287.441 386.616 286.857C385.443 283.382 383.485 280.214 381.038 277.417C383.765 273.576 386.014 269.386 387.693 264.945C381.792 264.576 376.078 266.348 371.181 269.39C366.848 266.839 362.179 264.974 357.429 263.38C357.312 262.813 357.177 262.249 357.033 261.689C358.68 261.656 360.322 261.573 361.958 261.441C364.342 263.261 366.982 264.48 369.918 264.512C370.098 263.126 370.123 261.748 370.023 260.38C373.693 259.704 377.301 258.774 380.811 257.591C385.853 255.892 391.022 253.377 393.384 248.651C384.511 245.108 374.599 244.927 365.884 247.792C364.829 245.872 363.634 243.99 362.369 242.152C363.199 240.494 363.946 238.791 364.613 237.053C376.855 238.318 389.343 233.934 397.361 225.146C391.243 220.857 383.525 219.551 376.332 220.197C373.567 220.446 370.862 220.96 368.203 221.647C368.29 220.698 368.357 219.747 368.397 218.792C363.963 219.934 360.048 222.334 356.806 225.48C356.449 225.62 356.091 225.76 355.735 225.902C363.381 220.134 369.879 212.902 374.808 204.673C377.517 200.152 379.812 194.881 378.635 189.531C371.638 191.577 365.467 195.76 360.854 201.265C357.527 200.217 354.04 199.867 350.591 200.059C348.668 193.121 345.558 186.443 341.384 180.452C336.882 186.831 335.868 195.346 337.349 203.32C337.35 203.327 337.352 203.335 337.354 203.342C334.79 204.446 332.321 205.754 329.915 207.172C329.413 206.414 328.869 205.697 328.289 205.015C332.249 199.316 335.431 193.055 337.708 186.435C339.435 181.414 340.614 175.731 338.414 170.654C328.214 176.114 321.149 186.597 319.473 198.184C318.824 197.839 318.162 197.511 317.491 197.196C316.369 193.367 314.876 189.626 313.046 186.039C320.747 179.239 325.648 169.272 325.991 158.709C318.758 159.044 312.221 162.817 307.303 167.857C305.97 169.223 304.745 170.68 303.598 172.2C302.617 171.096 301.599 170.022 300.543 168.988C299.067 172.429 298.463 176.197 298.554 180.023C297.547 181.806 296.587 183.619 295.649 185.436C297.674 175.928 297.927 165.946 296.39 156.132C295.546 150.74 293.923 144.995 289.68 141.364C285.246 148.27 283.359 156.773 284.054 165.203C281.774 166.263 279.674 167.675 277.78 169.344C271.448 164.026 264.14 159.886 256.381 157.313C256.539 159.156 256.912 160.975 257.454 162.753C255.709 158.932 253.32 155.392 249.738 153.295C245.446 164.295 246.813 177.559 253.046 188.223C252.489 188.358 251.934 188.504 251.379 188.659C248.758 186.603 245.982 184.751 243.09 183.119C245.031 172.363 242.512 160.511 235.875 151.224C230.698 155.998 228.189 163.162 227.677 170.357C227.524 172.51 227.536 174.673 227.666 176.84C225.273 176.211 222.852 175.725 220.417 175.391C220.637 176.185 220.905 176.962 221.199 177.731C218.473 174.111 215.47 170.692 212.22 167.524C208.22 163.625 203.421 159.921 197.991 159.581C199.657 173.404 209.102 186.497 221.873 192.686C209.1 188.683 195.267 188.933 183.162 193.386C186.836 197.479 191.681 200.327 196.877 202.01C197.551 205.694 198.891 209.333 200.663 212.699C201.511 214.309 202.452 215.865 203.462 217.379C202.267 219.173 201.26 221.087 200.498 223.104C200.241 222.994 199.982 222.887 199.724 222.779C198.932 221.992 198.036 221.304 197.011 220.748C196.822 220.996 196.64 221.248 196.465 221.503C193.231 220.31 189.937 219.307 186.603 218.516C181.257 217.246 175.368 216.577 170.782 219.194C176.316 226.244 184.186 231.39 192.669 233.886C192.521 236.502 192.643 239.203 192.919 241.91C190.997 243.101 189.149 244.405 187.388 245.814C177.088 239.472 164.231 237.498 153.16 240.968C156.639 247.541 163.006 252.35 169.838 255.253C176.67 258.156 184.003 259.346 191.259 260.296C181.547 261.52 172.171 264.536 163.736 269.15C159.102 271.685 154.481 275.054 152.969 280.155C166.673 283.186 181.367 278.501 190.124 268.308C188.352 271.221 186.858 274.309 185.647 277.519C181.666 278.71 177.911 280.519 174.587 282.943C176.929 285.306 179.699 287.154 182.691 288.545C181.76 294.168 181.634 299.971 182.362 305.725C188.367 302.998 192.863 297.812 195.635 291.799C199.698 292.107 203.74 291.873 207.748 291.376C208.286 292.156 208.852 292.916 209.445 293.653C203.394 297.336 197.884 301.854 193.121 307.062C189.574 310.941 186.297 315.625 186.454 321.039C195.997 320.17 204.837 315.529 211.034 308.556C212.574 310.249 214.303 311.823 216.144 313.301C216.269 316.561 216.655 319.826 217.298 323.057C207.069 327.009 198.712 335.311 195.131 345.704C202.281 347.471 209.747 345.803 215.999 342.479C222.252 339.156 227.464 334.282 232.445 329.304C227.721 337.66 224.59 346.973 223.253 356.641C222.518 361.954 222.44 367.821 225.528 372.455C230.072 368.704 233.573 363.799 235.836 358.317C235.822 358.816 235.817 359.315 235.824 359.815C240.66 359.367 245.107 357.37 248.922 354.509C252.87 359.296 257.489 363.547 262.613 367.038C264.21 359.544 262.099 351.386 258.019 344.516C258.362 343.993 258.694 343.462 259.021 342.927C260.562 343.422 262.153 343.795 263.774 344.069C263.737 349.728 264.287 355.426 265.428 361.041C266.139 364.541 267.193 368.173 269.057 371.232C268.907 375.598 269.453 380.024 270.761 384.292C277.341 381.602 282.145 375.819 285.035 369.348C287.564 363.687 288.778 357.487 289.666 351.251C289.944 351.418 290.222 351.583 290.502 351.746C291.965 360.493 294.836 369.088 298.985 377.087C301.54 382.013 304.931 387.023 310.049 389.138C312.416 378.635 309.963 366.949 303.793 357.597C304.27 357.744 304.749 357.888 305.23 358.025C305.087 356.934 304.865 355.857 304.584 354.794C311.108 358.406 318.219 360.875 325.461 362.054C325.56 362.131 325.657 362.211 325.756 362.287C325.786 362.231 325.812 362.172 325.841 362.115C329.083 362.623 332.349 362.872 335.599 362.847C333.962 359.09 331.456 355.761 328.424 352.947C328.774 349.074 328.369 345.048 327.412 341.192C326.752 338.535 325.852 335.943 324.793 333.399C326.121 332.38 327.354 331.251 328.471 330.018C332.919 333.502 337.689 336.563 342.693 339.128C347.641 341.667 353.269 343.765 358.433 342.404ZM333.047 319.521C330.697 318.707 328.285 318.103 325.843 317.746C328.432 317.727 331.008 317.533 333.551 317.177C333.357 317.953 333.185 318.736 333.047 319.521ZM212.922 203.723C218.232 203.304 223.453 202.068 228.481 200.474C223.824 202.079 219.251 204.012 215.093 206.552C214.407 205.581 213.682 204.639 212.922 203.723ZM315.004 212.851C313.371 211.191 311.686 209.569 309.937 208.023C310.291 208.133 310.647 208.241 311.004 208.349C312.292 209.891 313.632 211.391 315.004 212.851ZM274.004 200.208C275.853 200.178 277.693 200.046 279.518 199.812C280.289 200.648 281.122 201.545 281.956 202.44C278.782 201.915 275.565 201.597 272.456 201.334C272.985 200.974 273.498 200.595 274.004 200.208ZM258.527 202.504C257.072 202.275 255.61 202.076 254.147 201.911C254.31 201.848 254.473 201.784 254.636 201.721C255.931 202.008 257.229 202.269 258.527 202.504ZM226.591 214.277C227.964 214.533 229.356 214.786 230.629 215.009C227.654 218.337 225.093 222.206 222.734 225.938C222.459 223.631 221.969 221.346 221.288 219.108C223.178 217.638 224.955 216.028 226.591 214.277ZM252.428 212.747C258.039 210.661 259.893 209.679 265.798 212.003C271.658 214.31 277.546 215.28 283.7 215.922C288.656 216.439 294.228 216.722 298.385 214.705C300.093 215.465 301.835 216.145 303.611 216.721C309.524 218.64 311.66 219.055 315.069 224.45C318.452 229.804 322.69 234.177 327.351 238.471C328.497 239.526 329.705 240.6 330.961 241.614C331.734 244.403 332.742 247.141 333.976 249.796C336.607 255.454 337.771 257.332 336.004 263.17C334.574 267.894 334.044 272.661 333.865 277.582C330.373 280.08 323.517 285.119 322.722 285.985C318.911 290.141 315.926 294.997 313.866 300.295C311.702 305.86 311.198 307.917 305.666 310.428C302.15 312.024 299.022 314.034 296.049 316.306C295.988 316.293 295.93 316.282 295.887 316.276C290.082 315.432 284.236 315.633 278.619 316.82C272.719 318.067 270.726 318.767 265.163 315.645C260.473 313.014 255.625 311.327 250.562 309.956C249.734 307.968 249.053 306.408 248.792 305.989C245.638 300.92 241.626 296.406 236.98 292.628C232.1 288.66 230.231 287.477 229.047 281.318C227.872 275.205 225.514 269.655 222.723 264.018C222.207 262.976 221.663 261.912 221.082 260.857C222.424 257.251 223.329 253.468 223.767 249.586C224.445 243.574 224.414 241.425 229.064 237.585C233.68 233.773 237.143 229.203 240.439 224.221C242.345 221.339 244.287 218.114 245.265 214.779C247.709 214.282 250.104 213.61 252.428 212.747ZM283.644 328.862C283.306 329.478 283.011 330.11 282.768 330.755C279.001 328.852 275.046 327.31 271.063 325.999C275.193 327.254 279.41 328.289 283.644 328.862ZM201.039 275.98C200.457 275.93 199.875 275.893 199.294 275.867C199.509 272.128 199.391 268.335 199.081 264.574C199.487 268.393 200.092 272.227 201.039 275.98ZM224.703 291.81C227.187 297.538 230.152 303.153 234.043 308.079C233.269 308.252 232.523 308.49 231.812 308.804C230.987 308.146 230.147 307.506 229.292 306.883C228.361 301.76 226.691 296.7 224.703 291.81ZM303.482 327.916C304.167 327.359 304.843 326.792 305.509 326.218C306.673 325.668 307.792 325.041 308.858 324.336C308.801 324.911 308.759 325.489 308.729 326.068C306.938 326.578 305.189 327.201 303.482 327.916ZM317.257 312.253C322.818 307.897 328 302.93 331.597 296.835C332.769 294.85 333.759 292.733 334.524 290.53C335.27 293.965 336.731 297.096 339.542 299.26C342.361 296.683 344.179 293.429 345.345 289.815C345.233 291.93 344.53 293.777 342.613 296.46C341.438 298.105 340.411 299.803 339.489 301.55C339.053 301.633 338.618 301.72 338.187 301.818C330.447 303.571 323.525 307.595 317.257 312.253ZM353.346 292.613C355.047 288.383 356.492 283.996 357.352 279.483C358.087 279.981 358.837 280.458 359.6 280.912C357.132 284.56 355.102 288.544 353.346 292.613ZM354.75 253.721C354.629 253.816 354.506 253.908 354.387 254.005C354.491 253.887 354.592 253.767 354.696 253.649C354.713 253.672 354.731 253.696 354.75 253.721ZM344.811 237.021C345.529 238.849 346.348 240.601 347.251 242.301C345.965 246.772 345.247 251.464 344.841 256.155C345.289 248.938 345.048 241.542 342.963 234.461C342.751 233.74 342.513 233.024 342.26 232.312C343.188 233.455 343.983 234.91 344.811 237.021ZM352.837 218.094C352.877 216.677 352.862 215.257 352.798 213.836C353.301 213.49 353.792 213.128 354.277 212.759C353.665 214.489 353.178 216.271 352.837 218.094ZM347.045 225.775C345.496 223.46 343.86 221.184 342.108 219.005C342.389 218.918 342.668 218.826 342.947 218.734C344.204 221.138 345.588 223.487 347.045 225.775ZM283.647 189.015C283.721 188.884 283.798 188.755 283.87 188.622C285.608 189.395 287.368 190.114 289.137 190.784C287.324 190.145 285.493 189.549 283.647 189.015ZM288.583 180.877C288.225 180.386 287.857 179.902 287.485 179.422C287.529 179.248 287.574 179.073 287.616 178.898C287.921 179.564 288.24 180.226 288.583 180.877ZM267.808 178.523C268.412 179.074 269.032 179.602 269.662 180.118C268.604 182.185 267.689 184.333 266.87 186.527C265.736 186.554 264.604 186.625 263.48 186.753C262.844 180.129 261.401 173.534 259.19 167.161C261.254 171.414 264.277 175.304 267.808 178.523ZM229.51 189.711C229.666 190.486 229.826 191.26 229.989 192.032C229.359 190.745 228.694 189.475 227.999 188.218C228.489 188.729 228.992 189.228 229.51 189.711ZM209.456 225.156C211.007 226.958 212.614 228.718 214.23 230.454C211.786 228.852 209.263 227.379 206.68 226.032C207.615 225.74 208.556 225.443 209.456 225.156ZM205.278 235.563C206.19 235.536 207.1 235.478 208.005 235.383C207.125 235.618 206.253 235.877 205.388 236.155C205.352 235.958 205.316 235.761 205.278 235.563ZM206.851 249.736C210.866 246.542 214.385 242.704 217.56 238.66C214.864 242.279 212.38 246.107 210.437 250.196C210.068 250.081 209.691 249.983 209.305 249.905C208.684 251.753 208.363 253.641 208.283 255.552C208.084 256.158 207.893 256.766 207.722 257.383C207.297 258.912 206.972 260.483 206.747 262.073C206.289 260.476 206.211 258.688 206.525 256.11C206.785 253.97 206.879 251.851 206.851 249.736ZM248.167 331.177C247.908 331.416 247.654 331.661 247.401 331.907C245.15 329.869 242.774 327.959 240.346 326.153C242.873 327.944 245.478 329.647 248.167 331.177ZM238.782 344.677C238.884 341.667 238.639 338.626 238.022 335.627C238.723 337.533 239.522 339.409 240.409 341.246C239.813 342.36 239.269 343.506 238.782 344.677ZM276.889 348.808C276.623 347.426 276.287 346.054 275.881 344.699C277.383 344.653 278.874 344.577 280.342 344.491C280.419 344.557 280.496 344.625 280.573 344.691C279.236 345.963 278.007 347.342 276.889 348.808ZM296.998 341.283C301.543 341.221 306.079 340.836 310.438 339.854C310.84 341.204 311.309 342.537 311.84 343.849C307.048 342.449 302.078 341.741 297.128 341.425C297.086 341.378 297.042 341.331 296.998 341.283ZM320.64 324.8C319.938 323.492 319.218 322.195 318.491 320.904C319.771 322.265 321.096 323.586 322.46 324.864C321.842 324.841 321.232 324.819 320.64 324.8Z" fill="#94D31A"/>
<path d="M249.322 222.516C246.237 224.102 243.602 227.024 243.356 230.485C243.109 233.945 246.002 237.6 249.46 237.32C235.563 247.609 225.296 262.705 220.836 279.412C220.26 281.571 219.779 283.871 220.412 286.015C221.044 288.158 223.16 290.023 225.356 289.611C226.633 289.372 227.714 288.431 229.005 288.287C233.01 287.836 233.552 293.768 234.255 297.735C235.698 305.885 246.163 310.921 253.432 306.962C256.369 305.361 258.723 302.632 261.951 301.758C265.998 300.664 270.117 302.77 274.091 304.104C282.357 306.878 293.223 305.33 297.129 297.535C299.995 291.813 298.009 284.619 293.963 279.661C289.917 274.703 284.167 271.498 278.562 268.411C285.156 261.992 296.312 260.94 303.989 266.015C308.041 268.694 311.774 273.03 316.61 272.562C318.538 272.375 320.324 271.388 321.748 270.075C328.286 264.047 326.549 253.252 322.71 245.23C320.728 241.087 318.036 236.889 313.778 235.169C309.519 233.45 303.543 235.602 302.92 240.152C307.237 236.68 310.882 232.374 313.592 227.541C314.398 226.104 315.14 224.543 315.088 222.897C315.006 220.349 313.047 218.245 310.93 216.825C301.734 210.655 287.492 214.381 282.495 224.264C280.636 220.588 278.616 216.861 275.464 214.208C272.314 211.557 267.752 210.188 263.986 211.851C260.414 213.428 259.206 217.826 259.591 221.172C256.137 220.51 252.47 220.897 249.322 222.516Z" fill="#B2ED20"/>
</svg>
