<svg width="474" height="470" viewBox="0 0 474 470" fill="none" xmlns="http://www.w3.org/2000/svg">
<path d="M161.447 61.9371C163.408 45.9331 172.52 30.4471 186.781 22.9221C201.041 15.3981 220.295 17.2171 231.472 28.8381C241.273 15.4601 255.669 4.68712 272.119 2.58312C288.57 0.47912 306.74 8.66612 313.267 23.9111C337.376 28.5571 353.436 57.5261 344.601 80.4351C343.273 83.8791 341.487 87.1661 340.62 90.7541C339.824 94.0451 339.831 97.4711 339.351 100.823C337.935 110.721 332.336 119.556 325.797 127.121C310.967 144.278 290.861 156.357 269.486 163.934C246.74 171.995 220.978 175.023 198.79 165.534C180.689 157.793 165.286 139.514 164.233 119.327C163.862 112.209 166.235 105.398 165.793 98.2671C165.012 85.6701 159.843 75.0271 161.447 61.9371Z" fill="#7EBB15"/>
<path d="M182.605 136.773C181.824 124.175 176.656 113.532 178.259 100.442C180.22 84.4382 189.332 68.9512 203.592 61.4272C217.853 53.9032 237.106 55.7232 248.283 67.3432C258.084 53.9662 272.481 43.1932 288.931 41.0892C305.38 38.9852 323.552 47.1722 330.078 62.4172C336.223 63.6012 341.84 66.3712 346.66 70.2122C349.689 49.0242 334.656 25.7742 313.274 21.6542C306.748 6.40917 288.576 -1.77784 272.126 0.326162C255.677 2.43016 241.278 13.2032 231.478 26.5802C220.3 14.9602 201.047 13.1402 186.788 20.6642C172.529 28.1882 163.415 43.6752 161.454 59.6792C159.85 72.7692 165.018 83.4122 165.801 96.0102C166.243 103.141 163.87 109.952 164.241 117.07C164.926 130.193 171.677 142.506 181.289 151.646C181.827 146.7 182.919 141.816 182.605 136.773Z" fill="#94D31A"/>
<path d="M407.516 387.181C428.002 385.077 445.619 364.877 442.682 344.493C456.371 342.722 468.536 332.251 472.326 318.978C476.115 305.705 471.311 290.391 460.621 281.659C470.319 275.674 472.77 261.726 468.315 251.236C463.86 240.746 454.121 233.377 443.858 228.42C413.733 213.871 375.697 217.371 348.733 237.175C346.132 239.085 343.598 241.151 340.651 242.464C336.911 244.13 332.732 244.484 328.81 245.659C313.071 250.373 304.007 267.893 303.849 284.322C303.691 300.75 310.474 316.359 317.272 331.315C325.675 349.805 342.774 349.178 357.427 359.985C374.033 372.232 383.712 389.625 407.516 387.181Z" fill="#7EBB15"/>
<path d="M460.621 281.411C470.319 275.426 472.77 261.478 468.315 250.988C463.86 240.498 454.121 233.129 443.858 228.172C434.404 223.606 424.17 220.82 413.744 219.755C421.901 224.553 429.135 231.063 432.797 239.685C437.252 250.175 434.802 264.123 425.103 270.108C435.794 278.839 440.597 294.154 436.807 307.427C433.018 320.7 420.854 331.17 407.164 332.942C409.947 352.257 394.272 371.396 375.19 375.141C383.905 382.639 393.131 388.409 407.516 386.932C428.002 384.828 445.619 364.628 442.682 344.244C456.371 342.473 468.536 332.002 472.326 318.729C476.115 305.456 471.311 290.142 460.621 281.411Z" fill="#78A015"/>
<path d="M22.5766 267.758C15.0586 281.645 16.8026 299.999 26.7996 312.222C13.3986 324.355 5.13264 341.989 4.38164 360.052C3.75564 375.099 9.40258 391.715 22.7436 398.703C35.6306 405.453 51.2736 401.432 65.2156 397.277C60.9836 406.129 63.2546 417.175 69.2406 424.949C75.2266 432.723 84.3716 437.554 93.8146 440.22C107.02 443.947 121.653 443.711 134.002 437.73C146.352 431.748 155.971 419.561 157.108 405.886C169.388 411.376 184.391 408.135 195.11 400.008C205.829 391.882 212.711 379.561 216.883 366.773C222.009 351.063 223.398 333.754 218.306 318.032C213.214 302.31 201.049 288.481 185.234 283.687C187.574 274.495 189.823 264.333 185.512 255.883C181.473 247.966 172.766 243.759 164.563 240.338C146.857 232.952 128.247 226.573 109.063 226.678C87.9845 226.794 79.0726 237.407 62.0826 245.779C47.1136 253.155 32.4826 249.456 22.5766 267.758Z" fill="#7EBB15"/>
<path d="M185.24 261.66C186.043 261.903 186.833 262.175 187.615 262.464C187.346 260.767 186.907 259.106 186.255 257.497C185.931 258.899 185.588 260.291 185.24 261.66Z" fill="#78A015"/>
<path d="M216.888 344.745C212.716 357.533 205.835 369.853 195.117 377.98C184.398 386.107 169.394 389.347 157.114 383.858C155.976 397.532 146.357 409.72 134.008 415.702C121.659 421.684 107.028 421.92 93.8215 418.193C84.3785 415.528 75.2335 410.696 69.2475 402.922C63.2615 395.148 60.9895 384.101 65.2215 375.249C51.2815 379.403 35.6374 383.424 22.7504 376.675C13.1964 371.671 7.58944 361.729 5.40544 350.962C4.86144 353.964 4.5145 357.002 4.3875 360.053C3.7615 375.1 9.40844 391.716 22.7494 398.704C35.6364 405.454 51.2795 401.433 65.2205 397.278C60.9895 406.13 63.2605 417.176 69.2465 424.95C75.2325 432.724 84.3775 437.555 93.8205 440.221C107.026 443.948 121.658 443.712 134.007 437.731C146.357 431.749 155.976 419.562 157.113 405.887C169.393 411.377 184.397 408.136 195.116 400.009C205.835 391.883 212.716 379.562 216.887 366.774C220.919 354.421 222.621 341.083 220.698 328.302C219.927 333.883 218.63 339.407 216.888 344.745Z" fill="#78A015"/>
<path d="M26.8054 290.194C23.3274 285.942 20.8525 280.947 19.4145 275.658C17.4035 282.902 17.4654 290.728 19.4944 297.982C21.7204 295.199 24.1624 292.587 26.8054 290.194Z" fill="#78A015"/>
<path d="M38.9783 84.3702C35.1413 88.2762 31.2483 92.6092 30.2763 97.9972C29.3033 103.385 32.6314 109.893 38.0944 110.264C18.7404 118.273 4.12439 136.788 0.825393 157.472C-0.904607 168.325 0.298356 179.449 2.46236 190.224C4.70436 201.383 11.0354 214.73 22.4094 214.292C24.7914 214.201 27.2083 213.457 29.5153 214.053C34.7093 215.394 35.9184 222.007 37.0964 227.239C40.7774 243.598 54.4314 257.28 70.7844 260.993C87.1364 264.705 105.36 258.262 115.745 245.097C117.28 243.15 118.801 240.962 121.138 240.133C124.791 238.836 128.565 241.366 131.828 243.459C147.151 253.283 167.104 255.502 184.213 249.285C201.32 243.068 215.193 228.556 220.634 211.186C238.147 199.544 248.447 177.869 246.411 156.938C244.376 136.007 230.094 116.722 210.666 108.672C218.3 101.744 219.817 89.6622 215.922 80.1182C212.026 70.5742 203.597 63.4432 194.284 59.0232C183.274 53.7982 170.701 51.9252 158.646 53.7162C154.862 54.2782 151.071 55.1952 147.257 54.8832C143.445 54.5722 139.855 53.0542 136.206 51.9082C118.928 46.4812 99.2244 50.1482 84.5554 60.6072C76.1574 66.5952 74.1834 69.7172 65.4204 71.7122C54.4224 74.2142 47.5973 75.5932 38.9783 84.3702Z" fill="#7EBB15"/>
<path d="M246.413 156.938C244.885 141.219 236.448 126.43 224.114 116.629C225.543 120.77 226.51 125.068 226.934 129.439C228.969 150.37 218.67 172.045 201.158 183.687C195.717 201.058 181.845 215.569 164.737 221.787C147.629 228.004 127.675 225.785 112.352 215.961C109.087 213.868 105.315 211.337 101.661 212.634C99.3246 213.464 97.8047 215.652 96.2687 217.598C85.8837 230.764 67.6596 237.207 51.3066 233.494C46.2546 232.347 41.4616 230.246 37.1396 227.411C40.8776 243.694 54.4906 257.292 70.7856 260.993C87.1386 264.705 105.362 258.262 115.747 245.097C117.282 243.15 118.803 240.962 121.14 240.133C124.793 238.836 128.567 241.366 131.83 243.459C147.153 253.283 167.106 255.502 184.215 249.285C201.322 243.068 215.195 228.556 220.636 211.186C238.148 199.543 248.448 177.868 246.413 156.938Z" fill="#78A015"/>
<path d="M52.9044 134.467C37.9684 135.155 26.4885 151.626 29.5285 166.265C32.5685 180.904 47.9735 191.284 62.8915 190.288C67.8835 189.954 73.1694 188.28 76.0724 184.203C78.2794 181.104 78.7635 177.124 78.9455 173.324C79.2625 166.727 78.8774 160.096 77.7974 153.581C87.8834 154.335 98.0605 147.601 101.31 138.022C103.764 130.789 103.926 120.797 111.23 118.562C115.367 117.296 119.793 119.528 124.097 119.112C129.871 118.554 134.102 113.459 136.908 108.38C139.66 103.398 141.706 97.2702 139.272 92.1252C135.852 84.8982 126.146 83.9252 118.152 83.9662C106.309 84.0272 94.4674 84.0872 82.6254 84.1472C64.9834 84.2362 65.5735 90.9452 60.1485 103.987C55.9065 114.183 44.3374 121.907 52.9044 134.467Z" fill="#94D31A"/>
<path d="M243.923 246.382C238.479 246.959 232.719 247.829 228.543 251.37C224.367 254.911 222.8 262.051 226.781 265.809C206.75 259.69 183.697 264.692 168.003 278.563C159.769 285.841 153.626 295.193 148.448 304.887C143.086 314.927 139.489 329.255 148.548 336.147C150.444 337.59 152.784 338.553 154.187 340.48C157.344 344.817 154.075 350.69 151.657 355.478C144.099 370.447 145.945 389.688 156.208 402.949C166.472 416.209 184.637 422.819 201.021 419.257C203.444 418.73 206.008 418.008 208.339 418.852C211.984 420.174 213.288 424.525 214.478 428.216C220.063 445.541 234.055 459.937 251.214 466.011C268.372 472.086 288.306 469.701 303.548 459.751C324.468 461.895 346.196 451.709 357.93 434.257C369.663 416.805 370.897 392.839 361.016 374.276C371.313 373.78 380.164 365.418 383.224 355.573C386.283 345.729 384.309 334.866 379.929 325.534C374.751 314.502 366.235 305.065 355.79 298.784C352.512 296.812 349.003 295.11 346.257 292.446C343.512 289.783 341.705 286.329 339.616 283.125C329.727 267.952 312.185 258.259 294.214 257.008C283.924 256.292 280.416 257.448 272.384 253.418C262.301 248.359 256.156 245.085 243.923 246.382Z" fill="#7EBB15"/>
<path d="M357.93 434.257C366.742 421.151 369.63 404.372 366.338 388.965C364.81 393.07 362.823 397.002 360.372 400.648C348.639 418.1 326.91 428.286 305.99 426.141C290.749 436.092 270.815 438.477 253.656 432.402C236.497 426.327 222.505 411.931 216.92 394.606C215.731 390.916 214.427 386.564 210.781 385.243C208.451 384.398 205.885 385.121 203.464 385.647C187.078 389.21 168.913 382.6 158.65 369.339C155.48 365.242 153.115 360.573 151.58 355.637C144.116 370.583 145.98 389.734 156.208 402.948C166.472 416.208 184.637 422.818 201.021 419.256C203.444 418.729 206.008 418.007 208.339 418.852C211.985 420.173 213.288 424.525 214.478 428.215C220.063 445.54 234.055 459.936 251.214 466.01C268.372 472.085 288.306 469.7 303.548 459.75C324.468 461.895 346.197 451.708 357.93 434.257Z" fill="#78A015"/>
<path d="M227.815 311.864C215.848 302.902 196.515 308.319 189.556 321.552C182.598 334.785 187.893 352.591 200.042 361.304C204.108 364.22 209.254 366.287 214.085 364.986C217.759 363.996 220.662 361.232 223.219 358.414C227.657 353.522 231.573 348.159 234.881 342.442C242.189 349.436 254.325 350.706 262.923 345.378C269.415 341.354 275.892 333.744 282.95 336.66C286.947 338.311 288.946 342.848 292.534 345.263C297.347 348.504 303.85 347.258 309.245 345.121C314.536 343.024 320.011 339.595 321.402 334.075C323.356 326.323 316.482 319.402 310.284 314.352C301.104 306.871 291.924 299.39 282.743 291.909C269.067 280.764 265.259 286.318 252.78 292.938C243.026 298.113 229.186 296.724 227.815 311.864Z" fill="#94D31A"/>
<path d="M312.67 68.7602C307.225 69.3372 301.465 70.2072 297.289 73.7492C293.114 77.2912 291.546 84.4302 295.528 88.1882C275.496 82.0692 252.444 87.0712 236.75 100.942C228.516 108.22 222.373 117.572 217.195 127.266C211.832 137.305 208.235 151.634 217.294 158.526C219.191 159.969 221.53 160.931 222.934 162.858C226.09 167.194 222.821 173.068 220.403 177.856C212.846 192.825 214.691 212.066 224.954 225.327C235.218 238.588 253.383 245.198 269.768 241.635C272.19 241.108 274.755 240.386 277.085 241.23C280.731 242.552 282.034 246.903 283.224 250.594C288.809 267.918 302.802 282.315 319.96 288.389C337.119 294.464 357.053 292.079 372.295 282.128C393.214 284.273 414.943 274.086 426.676 256.635C438.41 239.183 439.643 215.217 429.763 196.654C440.059 196.158 448.91 187.795 451.97 177.951C455.03 168.107 453.055 157.244 448.675 147.913C443.497 136.881 434.981 127.443 424.537 121.163C421.258 119.191 417.75 117.489 415.003 114.825C412.259 112.161 410.451 108.708 408.363 105.504C398.474 90.3312 380.931 80.6382 362.96 79.3872C352.67 78.6712 349.162 79.8271 341.131 75.7971C331.047 70.7371 324.902 67.4642 312.67 68.7602Z" fill="#7EBB15"/>
<path d="M426.676 256.635C435.489 243.529 438.377 226.75 435.085 211.343C433.556 215.448 431.57 219.381 429.119 223.026C417.386 240.477 395.656 250.663 374.737 248.519C359.496 258.47 339.561 260.854 322.403 254.78C305.244 248.705 291.252 234.309 285.666 216.984C284.477 213.294 283.173 208.942 279.528 207.621C277.197 206.776 274.632 207.498 272.21 208.025C255.824 211.588 237.66 204.978 227.397 191.717C224.226 187.62 221.861 182.951 220.327 178.015C212.862 192.961 214.727 212.112 224.955 225.326C235.219 238.586 253.383 245.196 269.768 241.634C272.19 241.107 274.755 240.385 277.085 241.229C280.731 242.551 282.034 246.902 283.224 250.593C288.809 267.917 302.802 282.314 319.96 288.388C337.119 294.463 357.053 292.078 372.295 282.127C393.214 284.273 414.944 274.087 426.676 256.635Z" fill="#78A015"/>
<path d="M291.576 116.286C279.608 107.324 260.275 112.741 253.317 125.974C246.359 139.207 251.653 157.013 263.803 165.726C267.869 168.642 273.014 170.709 277.846 169.408C281.519 168.418 284.423 165.654 286.979 162.836C291.417 157.944 295.333 152.58 298.642 146.864C305.949 153.858 318.085 155.128 326.683 149.799C333.175 145.775 339.652 138.165 346.711 141.081C350.708 142.732 352.706 147.27 356.294 149.685C361.107 152.925 367.61 151.68 373.005 149.543C378.297 147.446 383.772 144.017 385.163 138.498C387.116 130.746 380.242 123.825 374.045 118.775C364.864 111.294 355.685 103.813 346.504 96.3321C332.827 85.1871 329.02 90.7411 316.541 97.3611C306.786 102.535 292.946 101.145 291.576 116.286Z" fill="#94D31A"/>
<path d="M106.269 203.541C100.17 207.373 94.2004 211.821 90.4564 217.974C82.4114 231.199 86.6284 248.227 91.8834 262.788C73.7144 269.013 68.3805 295.391 79.8765 310.776C91.3725 326.161 114.022 330.07 132.123 323.647C144.948 336.46 163.635 343.158 181.68 341.41C199.724 339.661 216.778 329.501 226.904 314.464C228.959 311.413 230.986 307.967 234.417 306.64C237.289 305.529 240.492 306.175 243.568 306.302C253.925 306.731 263.905 300.845 270.08 292.519C276.255 284.193 278.99 273.725 279.643 263.379C279.966 258.245 279.826 253 281.344 248.085C282.453 244.495 284.406 241.231 285.844 237.76C291.412 224.315 288.57 208.083 279.756 196.502C270.943 184.921 256.747 177.967 242.246 176.741C234.642 162.183 219.149 152.066 202.76 150.958C178.565 149.325 170.101 163.621 156.253 178.817C144.707 191.49 121.506 193.969 106.269 203.541Z" fill="#7EBB15"/>
<path d="M118.795 287.792C113.52 273.141 109.286 256.005 117.362 242.698C121.12 236.506 127.114 232.03 133.236 228.175C148.532 218.543 171.823 216.048 183.415 203.297C197.315 188.006 205.812 173.621 230.102 175.264C246.555 176.378 262.109 186.558 269.741 201.207C275.977 201.736 282.154 203.33 287.877 205.886C286.376 200.565 283.894 195.508 280.559 191.115C271.712 179.461 257.461 172.465 242.904 171.231C235.271 156.582 219.718 146.401 203.265 145.287C178.976 143.644 170.478 158.03 156.577 173.321C144.985 186.071 121.695 188.566 106.399 198.199C100.276 202.054 94.2826 206.531 90.5246 212.722C82.4486 226.03 86.6816 243.165 91.9576 257.816C73.7176 264.08 68.3626 290.623 79.9036 306.104C85.0916 313.063 92.5456 317.682 100.827 320.079C99.5596 306.548 106.004 292.184 118.795 287.792Z" fill="#94D31A"/>
<path d="M279.755 196.978C278.287 195.05 276.659 193.263 274.917 191.597C275.241 197.426 274.365 203.288 272.122 208.699C270.684 212.17 268.732 215.434 267.623 219.024C266.103 223.939 266.246 229.184 265.922 234.318C265.27 244.664 262.535 255.131 256.36 263.458C250.185 271.785 240.206 277.67 229.848 277.241C226.772 277.113 223.568 276.469 220.697 277.579C217.266 278.906 215.239 282.352 213.184 285.403C203.058 300.44 186.004 310.601 167.96 312.349C149.915 314.098 131.229 307.399 118.403 294.586C103.784 299.774 86.1996 298.217 73.9186 289.322C73.3426 297.059 75.2376 305.05 79.8736 311.253C91.3706 326.638 114.021 330.548 132.121 324.124C144.946 336.938 163.633 343.635 181.678 341.887C199.722 340.138 216.776 329.978 226.902 314.94C228.957 311.889 230.984 308.443 234.415 307.116C237.287 306.005 240.49 306.651 243.566 306.778C253.923 307.207 263.903 301.321 270.078 292.995C276.253 284.668 278.988 274.201 279.64 263.855C279.964 258.721 279.823 253.476 281.341 248.561C282.45 244.971 284.403 241.707 285.841 238.236C291.411 224.791 288.568 208.56 279.755 196.978Z" fill="#78A015"/>
<path d="M226.398 180.884C212.685 186.621 199.905 196.488 194.574 210.363C189.244 224.239 193.499 242.279 206.535 249.421C205.69 258.902 205.151 269.453 211.143 276.849C216.504 283.467 225.614 285.592 234.09 286.426C247.177 287.714 263.161 285.167 268.41 273.109C277.848 281.608 291.711 284.89 303.959 281.527C316.206 278.163 326.448 268.261 330.223 256.134C331.525 251.949 332.116 247.509 334.058 243.579C335.362 240.943 337.232 238.627 338.662 236.058C342.898 228.444 342.852 218.622 338.545 211.048C334.237 203.474 325.817 198.414 317.108 198.164C316.538 188.291 310.508 178.908 301.765 174.287C290.482 168.324 280.981 173.399 269.869 174.331C254.475 175.622 241.271 174.661 226.398 180.884Z" fill="#7EBB15"/>
<path d="M338.544 211.047C335.863 206.335 331.592 202.598 326.648 200.385C326.125 202.522 325.33 204.59 324.257 206.516C322.827 209.086 320.958 211.401 319.654 214.038C317.712 217.968 317.12 222.408 315.817 226.593C312.043 238.721 301.801 248.622 289.553 251.986C277.305 255.349 263.444 252.067 254.004 243.568C248.755 255.626 232.771 258.172 219.684 256.884C215.14 256.437 210.419 255.611 206.187 253.928C205.683 262.123 206.084 270.608 211.141 276.848C216.502 283.466 225.612 285.591 234.088 286.425C247.175 287.713 263.159 285.166 268.408 273.108C277.846 281.607 291.709 284.889 303.957 281.526C316.204 278.162 326.445 268.26 330.221 256.133C331.524 251.948 332.115 247.508 334.057 243.578C335.361 240.942 337.231 238.626 338.661 236.057C342.898 228.443 342.851 218.621 338.544 211.047Z" fill="#78A015"/>
</svg>
