<svg width="441" height="442" viewBox="0 0 441 442" fill="none" xmlns="http://www.w3.org/2000/svg">
<path d="M208.1 11.546C211.674 8.35802 215.842 5.83702 220.325 4.15002C222.265 7.08402 224.206 10.019 226.146 12.953C229.526 8.959 233.417 5.39797 237.694 2.38397C240.145 5.86097 241.817 9.883 242.553 14.073C246.215 9.197 250.708 4.94501 255.78 1.55701C256.928 6.14001 258.077 10.724 259.226 15.308C263.391 12.574 267.013 9.014 269.819 4.896C271.372 9.652 272.924 14.408 274.477 19.163C276.938 17.487 279.399 15.811 281.86 14.136C281.864 21.766 283.144 29.394 285.633 36.607C289.451 31.798 295.019 26.435 300.795 28.523C305.017 30.049 306.896 34.854 310.002 38.095C313.107 41.337 320.19 41.737 320.692 37.276C323.456 41.665 324.968 46.831 325.008 52.017C329.241 52.397 332.152 48.1 334.777 44.758C337.402 41.415 342.64 38.566 345.508 41.702C347.835 44.246 346.227 48.26 346.344 51.705C346.461 55.151 352.026 58.06 352.708 54.681C352.536 61.639 352.364 68.598 352.193 75.556C355.339 72.628 358.484 69.699 361.63 66.77C360.876 74.911 361.339 83.164 363.001 91.169C369.574 90.565 375.871 87.349 380.212 82.377C378.024 90.256 378.524 98.856 381.609 106.429C389.319 100.862 398.134 96.832 407.389 94.644C403.76 105.415 400.131 116.185 396.502 126.956C401.484 124.232 406.468 121.508 411.45 118.784C405.429 125.1 400.512 132.467 396.99 140.451C401.148 141.535 405.305 142.62 409.464 143.704C407.078 144.586 404.693 145.467 402.308 146.349C406.813 153.299 411.318 160.249 415.823 167.199C413.204 166.414 410.586 165.629 407.968 164.844C414.031 173.484 420.093 182.124 426.156 190.764C423.568 189.631 420.98 188.497 418.392 187.364C423.192 192.268 427.993 197.172 432.792 202.076C428.781 200.251 424.77 198.425 420.759 196.599C427.271 204.468 433.783 212.337 440.295 220.206C433.564 219.402 426.947 217.646 420.703 215.003C422.377 224.274 424.964 233.379 428.413 242.146C424.844 240.326 420.701 239.653 416.739 240.25C418.46 247.991 420.18 255.732 421.901 263.474C418.951 263.141 416 262.807 413.049 262.473C414.333 268.161 415.618 273.847 416.902 279.534C412.013 278.976 407.124 278.419 402.235 277.861C405.192 284.497 408.149 291.133 411.106 297.769C406.472 296.948 401.839 296.125 397.206 295.303C402.011 302.493 405.765 310.384 408.31 318.648C402.986 317.308 397.663 315.968 392.338 314.629C394.954 322.002 396.781 329.655 397.777 337.416C391.693 335.709 385.399 334.756 379.083 334.584C381.169 343.538 383.255 352.491 385.341 361.445C380.528 361.164 375.772 359.915 371.442 357.793C373.462 362.528 374.724 367.584 375.17 372.713C367.302 370.144 359.434 367.574 351.566 365.005C353.6 369.43 354.7 374.281 354.769 379.151C348.836 377.366 342.904 375.582 336.971 373.797C337.817 378.72 338.664 383.642 339.51 388.565C335.734 384.081 331.957 379.597 328.18 375.113C328.693 379.243 329.205 383.372 329.717 387.501C324.187 384.846 319.073 381.323 314.621 377.103C312.689 388.668 310.759 400.234 308.828 411.8C301.968 408.012 295.571 403.387 289.825 398.06C288.428 403.794 286.25 410.068 280.99 412.748C275.73 415.426 267.48 410.793 269.414 405.216C267.164 413.091 264.914 420.967 262.664 428.842C258.692 422.151 254.721 415.461 250.749 408.771C243.905 416.206 237.917 424.426 232.938 433.22C228.836 426.915 224.734 420.611 220.632 414.306C216.877 423.371 213.122 432.437 209.367 441.503C205.89 434.605 202.414 427.706 198.937 420.808C196.193 423.134 193.449 425.461 190.705 427.787C187.068 420.115 185.04 411.684 184.789 403.198C183.468 407.446 182.146 411.694 180.825 415.943C176.032 409.742 172.917 402.258 171.889 394.49C165.551 401.346 159.211 408.202 152.872 415.058C151.351 410.324 150.995 405.219 151.842 400.319C143.88 406.784 135.919 413.249 127.957 419.713C126.883 414.387 127.16 408.794 128.756 403.601C119.738 404.746 110.721 405.891 101.702 407.037C106.905 399.646 112.107 392.256 117.311 384.865C108.963 384.663 100.617 384.46 92.269 384.258C94.752 380.239 97.236 376.221 99.72 372.202C91.697 371.157 83.577 370.857 75.499 371.306C77.827 368.348 79.4709 364.854 80.2649 361.173C69.2439 360.153 58.1579 359.86 47.0979 360.293C52.1709 357.244 57.2451 354.195 62.3201 351.147C53.1321 349.036 43.9451 346.925 34.7571 344.814C41.5821 343.705 43.1881 333.543 38.8601 328.15C34.5321 322.758 27.185 321.055 20.408 319.687C27.271 316.995 35.5689 311.686 33.6399 304.57C33.0449 302.378 31.5091 300.579 29.9551 298.924C24.9981 293.644 19.3861 288.979 13.2871 285.072C15.9101 283.526 18.533 281.981 21.157 280.435C17.078 274.272 12.226 268.62 6.75098 263.656C14.71 260.283 22.668 256.91 30.626 253.537C26.787 246.531 22.049 240.018 16.564 234.21C14.476 226.957 10.002 220.411 4.00195 215.831C9.22695 217.642 14.0589 210.787 12.6689 205.434C11.2799 200.081 6.37498 196.514 1.80298 193.403C5.61098 192.082 9.4181 190.761 13.2251 189.44C10.0831 184.763 6.94107 180.086 3.79907 175.41C7.66007 174.582 11.523 173.754 15.384 172.927C10.366 164.254 5.34808 155.581 0.330078 146.908C7.31408 146.593 14.298 146.277 21.281 145.961C17.729 137.543 13.2199 129.529 7.86792 122.125C14.8589 122.48 21.85 122.835 28.842 123.19C26.606 117.82 24.3681 112.451 22.1311 107.081C29.4061 104.384 37.5709 104.158 44.9839 106.448C42.8219 99.276 40.6601 92.103 38.4971 84.93C45.3931 86.276 52.29 87.621 59.186 88.967C57.791 84.433 56.397 79.9 55.002 75.366C61.449 77.038 67.898 78.71 74.345 80.381C72.65 74.914 70.9531 69.447 69.2581 63.98C73.3931 61.545 78.7461 61.322 83.0691 63.403C81.9341 59.022 82.4701 54.228 84.5481 50.206C90.8621 51.615 97.177 53.024 103.49 54.433C101.592 48.525 101.435 42.069 103.046 36.077C108.427 36.701 113.683 38.387 118.421 41.012C118.048 37.861 117.677 34.709 117.304 31.558C120.713 31.299 124.202 32.264 126.993 34.238C128.143 29.999 128.593 25.458 129.145 21.175C135.666 22.924 141.889 26.307 148.409 28.154C148.928 0.127993 189.648 25.107 202.243 0.807983C204.354 4.27498 206.203 7.91902 208.1 11.546Z" fill="#7EBB15"/>
<path d="M182.328 262.734C182.267 262.259 182.208 261.785 182.148 261.309C181.207 261.416 181.615 262.26 182.328 262.734Z" fill="#78A015"/>
<path d="M416.985 240.25C420.947 239.653 425.089 240.326 428.659 242.146C427.028 238.002 425.597 233.78 424.358 229.503C422.048 229.114 419.851 228.077 418.184 226.426C417.461 227.818 416.739 229.21 416.016 230.602C415.759 229.932 415.14 229.291 414.391 229.509C412.863 229.955 412.193 231.731 410.959 232.739C409.726 233.747 407.056 232.723 407.931 231.392C405.95 234.196 403.967 237 401.985 239.805C399.646 238.457 397.308 237.11 394.97 235.762C393.702 239.096 392.436 242.43 391.168 245.765C388.22 245.587 385.339 244.44 383.076 242.542C382.798 244.622 381.833 246.604 380.367 248.106C376.397 246.793 372.679 244.725 369.469 242.043C369.683 245.61 363.881 245.794 361.238 243.39C358.595 240.985 356.467 237.244 352.894 237.128C352.9 239.653 352.906 242.179 352.911 244.704C349.855 240.701 346.801 236.698 343.745 232.695C342.786 241.903 340.484 250.969 336.933 259.519C332.863 253.287 328.3 247.376 323.302 241.86C323.188 244.821 323.073 247.781 322.96 250.742C318.623 245.759 314.286 240.775 309.949 235.792C309.973 238.054 309.998 240.315 310.022 242.578C306.333 239.539 302.995 236.075 300.094 232.277C299.9 235.631 299.706 238.984 299.514 242.337C297.086 239.267 294.659 236.196 292.232 233.127C291.916 235.425 291.045 237.645 289.715 239.545C285.902 235.009 281.43 231.029 276.481 227.77C275.344 230.734 274.208 233.698 273.071 236.662C270.446 233.074 267.821 229.486 265.197 225.898C264.616 228.542 264.036 231.186 263.455 233.83C259.448 230.323 256.009 226.168 253.313 221.575C252.387 224.778 251.462 227.98 250.538 231.183C246.636 225.671 242.326 220.448 237.656 215.569C237.159 218.5 236.663 221.431 236.166 224.361C232.588 219.951 229.095 215.437 225.375 211.155C226.478 217.135 220.685 215.568 217.242 216.968C212.275 218.989 215.04 219.684 211.804 223.162C208.75 226.444 207.596 226.045 202.487 226.162C204.044 231.259 205.599 236.356 207.155 241.453C204.8 241.031 202.443 240.609 200.087 240.187C199.646 242.604 199.204 245.02 198.763 247.436C194.921 248.057 191.078 248.678 187.237 249.298C187.406 251.759 187.574 254.22 187.743 256.681C187.308 255.778 184.937 256.288 184.633 257.699C184.278 259.347 185.032 261.272 184.055 262.646C183.626 263.25 182.885 263.102 182.328 262.73C182.545 264.452 182.763 266.173 182.98 267.895C186.019 274.455 189.059 281.016 192.099 287.576C183.733 283.804 175.843 278.975 168.678 273.242C174.39 280.881 180.101 288.519 185.812 296.158C179.309 291.174 172.806 286.188 166.303 281.204C169.367 288.424 172.432 295.644 175.496 302.864C171.615 299.569 167.733 296.274 163.852 292.979C165.706 297.031 167.562 301.083 169.416 305.135C165.546 302.912 161.676 300.691 157.807 298.468C159.686 302.571 161.565 306.672 163.444 310.775C159.362 308.666 154.928 307.24 150.381 306.574C151.862 312.251 153.343 317.928 154.823 323.604C149.38 321.092 143.935 318.58 138.492 316.068C139.988 321.487 141.485 326.905 142.981 332.324C138.722 329.734 134.169 327.627 129.439 326.056C129.995 327.759 130.549 329.463 131.104 331.167C128.103 330.085 125.101 329.002 122.1 327.919C123.516 330.592 124.932 333.265 126.348 335.938C122.285 333.861 118.222 331.783 114.16 329.705C115.211 332.234 116.263 334.763 117.314 337.292C113.527 336.385 109.74 335.478 105.953 334.57C106.799 337.258 107.645 339.945 108.491 342.633C102.304 342.552 96.1189 342.471 89.9329 342.39C89.7709 344.713 89.6088 347.036 89.4468 349.359C86.5218 349.671 83.5969 349.981 80.6729 350.293C71.3749 352.536 62.0758 354.778 52.7788 357.021C50.9668 358.11 49.1558 359.198 47.3438 360.287C58.4028 359.853 69.4897 360.147 80.5107 361.167C79.7167 364.848 78.0729 368.341 75.7449 371.3C83.8229 370.851 91.9418 371.151 99.9648 372.196C97.4818 376.215 94.9977 380.233 92.5146 384.252C100.863 384.454 109.209 384.657 117.556 384.86C112.353 392.25 107.151 399.64 101.948 407.031C110.966 405.885 119.984 404.741 129.002 403.595C127.406 408.788 127.129 414.381 128.203 419.707C136.164 413.242 144.127 406.777 152.088 400.313C151.241 405.213 151.598 410.318 153.118 415.052C159.457 408.196 165.796 401.34 172.135 394.484C173.162 402.253 176.279 409.736 181.07 415.937C182.391 411.688 183.714 407.44 185.035 403.192C185.286 411.678 187.313 420.109 190.951 427.781C193.694 425.455 196.439 423.128 199.183 420.802C202.66 427.7 206.136 434.599 209.613 441.497C213.368 432.431 217.123 423.365 220.878 414.3C224.98 420.605 229.082 426.909 233.184 433.214C238.163 424.42 244.151 416.199 250.994 408.765C254.967 415.455 258.938 422.146 262.91 428.836C265.16 420.961 267.41 413.086 269.66 405.21C267.725 410.787 275.976 415.42 281.236 412.742C286.496 410.063 288.674 403.789 290.071 398.054C295.817 403.381 302.214 408.006 309.074 411.794C311.005 400.227 312.935 388.662 314.867 377.097C319.318 381.318 324.431 384.84 329.963 387.495C329.45 383.366 328.939 379.237 328.426 375.107C332.203 379.591 335.98 384.075 339.756 388.559C338.909 383.636 338.064 378.714 337.216 373.791C343.15 375.576 349.082 377.36 355.015 379.145C354.946 374.276 353.846 369.424 351.811 364.999C359.68 367.568 367.548 370.138 375.417 372.707C374.971 367.578 373.707 362.522 371.688 357.787C376.019 359.909 380.775 361.158 385.588 361.439C383.502 352.485 381.416 343.532 379.33 334.578C385.646 334.75 391.94 335.703 398.023 337.41C397.028 329.649 395.201 321.996 392.585 314.623C397.909 315.963 403.232 317.303 408.557 318.642C406.01 310.378 402.257 302.488 397.453 295.297C402.087 296.119 406.72 296.941 411.353 297.763C408.396 291.127 405.439 284.491 402.482 277.855C407.372 278.412 412.26 278.97 417.15 279.528C415.866 273.841 414.581 268.155 413.296 262.467C416.246 262.801 419.197 263.135 422.148 263.468C420.427 255.732 418.706 247.991 416.985 240.25Z" fill="#78A015"/>
<path d="M174.896 207.376C176.908 208.576 178.919 209.776 180.931 210.976C173.185 208.747 165.438 206.518 157.692 204.288C158.998 204.941 160.303 205.594 161.609 206.246C154.828 203.261 147.839 200.747 140.71 198.73C144.379 201.268 148.335 203.389 152.479 205.043C144.446 202.69 136.207 201.043 127.887 200.125C128.323 201.234 128.759 202.343 129.196 203.453C122.104 198.786 114.727 194.556 107.117 190.792C108.364 191.859 109.612 192.927 110.859 193.995C106.167 187.514 101.475 181.033 96.7839 174.551C100.479 176.509 104.529 177.797 108.677 178.333C103.645 172.25 98.2509 166.466 92.5349 161.02C94.7299 162.272 96.9251 163.525 99.1201 164.777C93.1051 160.994 86.831 157.626 80.354 154.704C83.184 155.41 86.014 156.115 88.844 156.821C82.223 152.983 75.6019 149.144 68.9819 145.306C72.3229 146.447 75.6649 147.589 79.0049 148.73C72.7409 143.797 66.288 139.105 59.665 134.667C62.818 135.55 66.137 135.84 69.394 135.518C64.144 130.013 58.8921 124.508 53.6411 119.003C57.5131 120.017 61.3839 121.031 65.2549 122.046C61.5629 117.68 57.87 113.314 54.177 108.948C57.807 110.361 61.8311 111.786 65.4961 110.469C69.1621 109.152 71.2529 103.644 68.1479 101.292C71.9209 101.661 75.695 102.03 79.468 102.399C78.774 99.51 78.079 96.621 77.385 93.731C80 94 82.6599 93.817 85.2129 93.193C84.5439 91.377 83.875 89.56 83.207 87.743C86.079 87.858 88.951 87.972 91.824 88.088C91.391 85.642 90.9601 83.196 90.5271 80.751C93.0581 81.818 95.754 82.495 98.488 82.751C99.25 79.212 99.08 75.478 98 72.024C103.303 74.187 108.605 76.35 113.908 78.513C114.701 78.836 115.635 79.153 116.373 78.719C117.282 78.183 117.296 76.895 117.195 75.844C116.87 72.422 116.545 69 116.219 65.578C119.616 67.742 123.013 69.906 126.41 72.069C126.332 65.913 126.253 59.758 126.175 53.601C126.163 52.633 126.182 51.573 126.807 50.833C128.642 48.661 131.667 51.764 134.097 53.24C137.158 55.1 141.322 53.95 143.96 51.53C146.6 49.109 148.065 45.701 149.457 42.402C150.896 45.724 152.434 49.178 155.241 51.464C158.048 53.75 162.531 54.417 165.175 51.945C168.275 56.439 176.666 54.902 177.972 49.601C176.605 52.178 180.671 54.838 183.273 53.517C185.875 52.197 186.869 49.054 187.614 46.233C188.38 48.749 189.145 51.266 189.911 53.782C193.712 48.17 197.513 42.559 201.313 36.947C201.047 41.025 201.753 45.163 203.355 48.923C209.579 43.991 214.713 37.691 218.289 30.6C218.762 32.64 219.233 34.68 219.705 36.72C224.118 33.677 228.304 30.305 232.217 26.642C231.136 31.896 230.354 37.212 229.875 42.555C233.006 40.823 236.136 39.09 239.266 37.357C238.281 42.521 238.591 47.927 240.163 52.943C244.366 49.193 248.569 45.445 252.772 41.695C251.091 47.001 249.782 52.425 248.857 57.914C252.236 56.469 255.381 54.479 258.134 52.045C257.284 55.041 257.997 58.436 259.981 60.837C262.761 59.176 265.543 57.515 268.323 55.855C266.769 59.931 265.694 64.191 265.127 68.516C267.68 67.923 269.953 66.214 271.231 63.925C264.722 78.529 258.212 93.132 251.703 107.735C259.566 97.217 267.981 87.112 276.902 77.475C273.838 84.641 270.774 91.808 267.71 98.974C270.557 96.659 273.404 94.346 276.252 92.031C271.493 101.845 266.734 111.659 261.977 121.473C263.79 118.7 265.603 115.928 267.416 113.155C263.641 122.401 259.35 131.437 254.569 140.206C258.507 134.233 263.279 128.811 268.703 124.146C267.872 128.883 266.625 133.546 264.982 138.065C266.275 136.999 267.568 135.932 268.861 134.865C265.22 145.091 260.548 154.95 254.939 164.243C255.209 163.205 255.48 162.167 255.75 161.13C251.367 167.887 246.985 174.645 242.603 181.403C242.911 179.569 243.217 177.735 243.524 175.902C238.949 183.013 234.669 190.522 229.632 197.292C229.762 195.4 229.252 193.229 229.404 191.325C224.601 198 221.199 206.088 212.63 208.564C204.875 210.805 195.771 208.198 187.914 208.011C189.561 208.863 191.154 210.077 192.855 210.85C186.921 209.397 180.973 208.115 174.896 207.376Z" fill="#94D31A"/>
<path d="M41.6729 161.108C39.3189 155.222 36.5367 149.507 33.3547 144.025C37.3127 147.043 42.0489 149.032 46.9749 149.744C45.1079 144.532 43.2398 139.319 41.3708 134.107C45.7309 138.19 50.4477 141.891 55.4507 145.153C56.0507 142.739 55.7028 140.105 54.4988 137.929C61.4648 149.891 71.4968 160.05 83.3708 167.163C79.6928 163.598 76.0156 160.033 72.3376 156.468C80.2946 169.637 88.6549 182.562 97.4019 195.221C94.5869 191.432 91.7718 187.643 88.9568 183.854C95.3088 190.574 102.016 196.958 109.042 202.967C107.938 201.781 106.834 200.595 105.729 199.407C110.611 205.001 115.492 210.595 120.373 216.189C112.979 212.687 105.144 210.12 97.1118 208.567C100.672 211.015 104.231 213.463 107.791 215.911C98.6188 211.109 89.6169 205.983 80.8079 200.547C83.9159 202.72 86.7619 205.267 89.2659 208.115C79.6199 203.971 69.9736 199.828 60.3276 195.684C63.2336 198.191 66.1409 200.698 69.0479 203.205C61.0709 199.572 53.0957 195.938 45.1177 192.306C47.4387 194.528 49.7907 196.728 52.0457 199.011C46.1797 195.988 39.8377 191.895 35.2817 187.12C41.3997 187.096 36.2989 180.284 35.2979 177.4C32.3129 168.8 35.2907 173.15 43.0837 172.502C39.7847 167.46 35.5618 162.919 32.0098 158.02C35.0528 159.56 38.2579 160.728 41.6729 161.108Z" fill="#94D31A"/>
<path d="M273.58 74.655C277.871 69.634 282.163 64.613 286.455 59.592C285.553 64.05 284.833 68.546 284.297 73.063C286.528 70.986 288.759 68.909 290.99 66.831C290.186 72.076 289.251 77.299 288.183 82.497C289.489 81.393 290.794 80.288 292.101 79.184C291.048 85.854 289.498 92.446 287.47 98.887C289.829 96.764 291.775 94.183 293.165 91.33C290.921 97.967 288.677 104.603 286.433 111.24C288.603 107.432 290.774 103.624 292.944 99.816C287.16 117.326 281.993 135.04 277.456 152.913C279.706 141.604 284.476 130.803 291.319 121.522C284.078 138.297 276.838 155.072 269.597 171.848C276.643 157.167 285.239 143.231 295.195 130.344C293.181 134.348 291.494 138.515 290.152 142.791C293.131 136.593 296.586 130.624 300.475 124.953C300.197 126.502 299.919 128.052 299.64 129.601C302.47 125.8 305.3 121.999 308.129 118.198C307.505 118.671 308.168 119.781 308.951 119.782C309.734 119.783 310.36 119.161 310.889 118.583C317.598 111.259 324.307 103.935 331.016 96.612C330.338 99.223 329.259 101.73 327.828 104.017C330.671 96.977 332.096 89.369 331.993 81.778C328.835 85.153 325.676 88.53 322.517 91.906C323.711 86.58 324.405 81.141 324.583 75.685C323.542 76.825 322.328 77.806 320.995 78.584C322.382 73.723 323.161 68.689 323.308 63.637C320.416 65.887 317.673 68.328 315.103 70.939C314.813 66.81 314.524 62.68 314.235 58.551C310.828 59.684 307.677 61.583 305.085 64.067C305.115 60.442 305.146 56.817 305.176 53.192C302.542 54.394 300.212 56.258 298.462 58.566C298.372 54.526 298.281 50.486 298.191 46.446C298.224 47.906 293.476 52.155 292.508 53.376C293.136 48.16 284.628 52.924 283.14 54.849C278.884 60.352 276.126 68.238 273.58 74.655Z" fill="#94D31A"/>
<path d="M48.7952 335.254C52.5282 336.6 56.6513 336.844 60.5183 335.948C55.9323 332.527 51.2842 329.192 46.5752 325.946C50.4542 326.594 54.4591 326.482 58.2961 325.619C54.1411 322.399 49.9853 319.18 45.8303 315.96C51.2003 317.615 57.0953 317.515 62.4062 315.68C56.7703 311.025 50.1082 307.62 43.0342 305.784C58.0632 305.121 73.0333 303.087 87.6963 299.716C83.3143 299.852 78.9323 299.988 74.5513 300.124C87.2873 301.558 100.303 300.463 112.621 296.922C110.414 296.326 108.078 296.214 105.825 296.595C115.342 294.991 124.769 292.86 134.051 290.215C131.666 290.785 129.359 291.674 127.207 292.851C126.727 293.114 126.213 293.442 126.07 293.971C125.773 295.073 127.205 295.783 128.327 295.992C132.413 296.752 136.577 297.091 140.732 297.003C136.387 298.822 132.043 300.643 127.697 302.462C132.868 302.971 138.071 303.158 143.265 303.022C131.673 308.598 119.765 313.515 107.618 317.744C110.713 318.043 113.808 318.343 116.904 318.641C109.379 320.816 101.852 322.991 94.3262 325.166C95.2622 325.831 96.1973 326.496 97.1333 327.162C91.2843 327.923 85.4362 328.683 79.5872 329.444C81.0272 331.086 82.7313 332.494 84.6133 333.599C82.6593 332.452 76.2473 333.714 74.1353 334.148C78.4863 338.581 88.6963 341.824 76.4863 341.869C66.9363 341.902 57.3782 339.344 48.7952 335.254Z" fill="#78A015"/>
<path d="M128.534 69.289C129.108 71.959 130.574 74.43 132.643 76.214C128.489 75.889 124.259 76.582 120.425 78.215C122.782 79.921 125.392 81.278 128.143 82.229C123.122 82.013 118.071 82.493 113.18 83.651C117.868 86.388 123 88.361 128.316 89.468C119.915 90.446 111.514 91.423 103.113 92.401C108.455 95.133 114.483 96.142 120.402 97.116C133.786 99.319 147.169 101.521 160.552 103.723C146.817 104.292 133.081 104.862 119.347 105.431C129.856 110.167 140.365 114.902 150.874 119.638C146.332 118.332 141.79 117.027 137.249 115.721C146.188 120.343 155.128 124.965 164.067 129.587C159.602 127.215 154.767 125.541 149.791 124.645C158.419 131.214 167.046 137.782 175.672 144.351C171.916 142.363 167.929 140.813 163.817 139.743C172.032 145.195 180.247 150.646 188.463 156.098C185.517 154.553 182.57 153.007 179.625 151.461C187.035 159.079 194.445 166.696 201.855 174.313C200.328 172.917 198.8 171.521 197.272 170.125C201.412 174.251 205.142 178.786 208.394 183.642C203.282 169.472 199.929 154.667 198.439 139.677C198.882 143.363 199.327 147.049 199.771 150.735C199.498 141.918 199.224 133.102 198.951 124.285C198.566 127.064 198.181 129.844 197.798 132.623C196.782 126.354 195.767 120.085 194.751 113.816C191.943 120.372 189.893 127.253 188.653 134.277C187.974 122.908 187.815 111.507 188.174 100.123C186.448 108.401 184.208 116.572 181.471 124.573C181.425 109.919 183.45 95.26 187.47 81.167C184.106 88.98 180.742 96.795 177.378 104.608C181.107 90.986 183.406 76.973 184.226 62.874C179.96 70.217 175.695 77.561 171.43 84.905C173.165 76.519 174.902 68.133 176.638 59.747C171.968 66.244 167.805 73.104 164.199 80.247C164.202 73.945 164.205 67.643 164.208 61.342C163.213 65.957 162.218 70.573 161.223 75.188C160.48 69.902 157.688 64.93 153.559 61.545C152.614 64.067 152.26 66.809 152.537 69.488C149.099 66.421 145.662 63.353 142.225 60.286C142.965 61.97 143.706 63.653 144.448 65.336C139.37 63.244 134.313 60.985 129.157 59.122C132.472 62.015 135.025 65.344 137.393 69.089C134.461 68.709 131.454 68.62 128.534 69.289Z" fill="#B2ED20"/>
<path d="M197.111 58.318C197.269 59.991 197.427 61.665 197.587 63.339C199.461 60.922 201.334 58.506 203.208 56.089C203.322 58.287 203.437 60.485 203.552 62.682C205.118 58.945 207.68 55.63 210.9 53.17C211.626 54.984 211.71 57.046 211.133 58.913C213.103 56.77 215.071 54.629 217.041 52.487C216.007 63.913 208.15 73.883 207.184 85.315C211.731 76.194 216.278 67.072 220.825 57.951C215.204 74.306 209.555 90.769 206.953 107.866C207.231 101.8 207.509 95.733 207.786 89.667C206.104 94.52 204.422 99.373 202.739 104.226C201.703 97.344 201.276 90.371 201.465 83.414C200.592 85.431 199.718 87.447 198.845 89.463C198.568 83.135 198.29 76.806 198.013 70.478C197.404 71.842 196.794 73.205 196.185 74.568C195.558 70.22 195.401 65.858 195.296 61.479C187.298 76.055 183.504 60.62 191.528 54.996C192.648 57.401 192.454 60.481 192.633 63.198C193.406 62.467 197.21 59.364 197.111 58.318Z" fill="#B2ED20"/>
<path d="M83.8899 100.387C87.9189 100.825 91.95 101.263 95.979 101.701C92.398 103.829 88.553 105.515 84.562 106.709C86.87 106.451 89.262 107.059 91.166 108.387C87.228 109.617 83.291 110.847 79.354 112.077C81.189 113.301 83.0239 114.525 84.8589 115.749C81.2659 116.37 77.7301 117.32 74.3101 118.583C77.9741 120.569 82.3 121.308 86.415 120.651C82.406 121.371 78.3969 122.09 74.3889 122.811C76.1849 124.178 78.6129 124.265 80.8679 124.307C91.6549 124.504 102.822 125.023 112.47 129.852C108.986 128.107 105.502 126.363 102.019 124.618C107.833 125.248 113.683 125.56 119.532 125.551C114.908 122.985 110.034 120.871 105.001 119.249C107.154 119.073 109.308 118.897 111.461 118.721C109.857 117.176 107.927 115.972 105.833 115.214C109.459 115.215 113.085 115.217 116.711 115.218C110.865 114.016 105.033 112.748 99.217 111.414C100.276 111.436 99.832 109.705 99.04 109C97.681 107.791 96.228 106.543 95.613 104.831C94.999 103.119 95.624 100.81 97.364 100.278C98.452 99.945 99.343 99.882 100.272 99.2C96.874 91.036 88.7769 100.918 83.8899 100.387Z" fill="#B2ED20"/>
</svg>
