<svg width="493" height="484" viewBox="0 0 493 484" fill="none" xmlns="http://www.w3.org/2000/svg">
<path d="M148.828 47.47C150.161 49.76 154.059 48.611 155.133 46.188C156.207 43.766 155.487 40.979 155.019 38.371C153.279 28.699 155.408 18.385 160.836 10.192C169.945 11.585 176.483 19.347 182.699 26.15C196.42 41.166 212.668 53.868 230.552 63.559C235.311 50.251 240.154 36.776 248.152 25.124C256.149 13.472 267.797 3.654 281.661 0.914001C281.515 19.611 285.308 38.088 289.082 56.4C290.954 65.483 293.322 75.378 300.724 80.964C320.153 70.438 339.582 59.913 359.011 49.387C367.686 44.688 377.297 39.833 386.964 41.808C386.019 45.73 385.075 49.653 384.131 53.576C393.564 49.969 403.376 60.666 403.212 70.764C403.049 80.862 396.684 89.636 391.014 97.993C382.676 110.283 375.298 123.224 368.972 136.66C406.58 143.706 449.299 124.955 481.803 145.142C472.647 149.157 464.084 154.521 456.476 161.007C463.92 162.687 464.989 173.749 460.425 179.864C455.861 185.98 448.283 188.865 441.934 193.099C429.867 201.147 422.201 214.156 414.947 226.716C442.27 224.774 470.197 232.905 492.206 249.213C486.911 248.144 487.188 257.088 490.111 261.631C480.778 262.584 473.438 269.63 466.15 275.537C450.459 288.256 431.681 297.141 411.896 301.208C423.367 316.647 433.622 332.991 442.536 350.036C434.671 348.29 426.631 357.151 429.131 364.809C426.059 364.898 422.986 364.986 419.913 365.074C420.418 378.454 422.034 391.793 424.74 404.907C402.641 394.887 380.541 384.868 358.442 374.848C365.076 385.829 368.396 398.785 367.863 411.603C367.659 416.505 362.987 422.997 359.479 419.565C356.845 433.705 354.21 447.845 351.575 461.985C344.95 468.75 333.022 466.684 325.845 460.507C318.669 454.33 314.8 445.282 310.203 437.005C305.607 428.727 299.338 420.419 290.198 417.948C287.804 417.301 284.086 419.757 286.145 421.138C283.947 419.24 281.749 417.34 279.55 415.441C275.052 424.216 281.159 437.679 273.051 443.29C269.016 446.081 263.563 445.009 258.749 445.955C248.762 447.918 242.926 457.984 237.619 466.67C232.313 475.355 224.176 484.602 214.087 483.254C213.875 472.543 213.663 461.832 213.451 451.121C194.24 443.628 181.936 421.56 185.661 401.278C182.439 412.736 168.005 415.941 156.16 417.102C135.601 419.117 115.042 421.132 94.484 423.147C114.002 400.969 134.678 379.811 156.401 359.788C141.796 358.5 127.765 364.814 113.661 368.815C88.238 376.029 60.741 375.762 35.461 368.058C35.833 353.142 47.574 341.12 59.497 332.148C71.42 323.176 84.88 314.937 91.648 301.639C59.896 302.041 28.08 293.4 0.893995 276.991C-0.451005 272.053 4.121 267.659 8.204 264.572C23.38 253.1 38.557 241.629 53.733 230.156C60.783 224.827 68.778 219.217 77.566 220.144C51.796 208.415 29.31 189.568 13.259 166.245C40.512 160.069 67.944 154.683 95.509 150.095C85.494 137.167 75.478 124.239 65.463 111.311C72.22 113.031 78.977 114.75 85.734 116.47C74.528 106.724 65.237 94.785 58.543 81.529C66.75 76.242 75.503 70.779 85.261 70.506C91.555 70.33 97.679 72.354 103.652 74.354C112.903 77.452 143.36 93.684 152.075 90.071C162.167 85.888 153.323 55.193 148.828 47.47Z" fill="#78A015"/>
<path d="M242.831 111.491C248.892 104.157 258.939 66.993 263.187 58.48C261.591 76.986 275.303 101.668 273.708 120.174C304.146 118.746 321.096 94.443 351.558 93.665C348.221 105.272 329.497 132.306 323.838 142.976C328.19 143.187 332.541 143.398 336.893 143.61C333.876 150.383 330.859 157.155 327.842 163.927C354.702 162.366 381.771 164.438 408.081 170.069C391.802 186.134 375.522 202.2 359.243 218.266C355.013 222.441 350.488 228.726 353.745 233.697C382.219 237.817 410.692 241.937 439.165 246.056C413.728 259.632 384.797 266.595 355.969 266.078C373.712 285.833 388.601 308.146 400.033 332.112C392.572 341.786 377.621 339.415 365.865 336.089C351.261 331.956 336.656 327.823 322.052 323.691C326.519 345.885 331.218 368.034 336.15 390.13C325.533 387.302 318.235 377.945 310.533 370.109C302.832 362.272 292.05 355.091 281.547 358.319C278.395 371.854 275.243 385.39 272.092 398.925C268.883 397.799 265.675 396.672 262.467 395.546C259.662 411.624 243.847 424.356 227.541 423.663C229.438 403.653 229.965 383.513 229.116 363.432C213.08 374.68 194.88 382.831 175.809 387.304C178.161 377.239 191.732 374.29 196.855 365.313C203.768 353.2 190.584 337.939 176.744 336.219C162.904 334.498 149.549 340.919 136.098 344.606C119.511 349.151 101.806 349.562 85.0262 345.791C102.503 328.9 119.98 312.01 137.457 295.119C109.508 282.754 79.4742 275.114 49.0132 272.622C69.2072 260.047 89.4012 247.471 109.595 234.895C111.263 233.856 113.053 232.666 113.646 230.792C114.538 227.971 112.335 225.188 110.263 223.077C99.4742 212.086 87.7202 202.045 75.1802 193.105C85.8062 192.709 97.2202 192.035 105.57 185.452C118.62 175.162 116.669 151.439 102.112 143.421C107.733 143.334 113.353 143.248 118.974 143.161C114.18 129.357 106.497 116.565 96.5672 105.848C111.529 103.243 147.611 115.221 162.692 111.753C176.387 108.604 173.27 58.001 184.866 51.417C194.032 46.211 200.456 89.193 210.585 90.775C216.147 91.643 248.867 104.188 242.831 111.491Z" fill="#7EBB15"/>
<path d="M261.502 164.124C265.921 160.331 276.316 138.713 279.828 133.987C276.63 145.149 281.564 161.875 278.367 173.037C296.219 175.699 309.043 162.768 326.828 165.831C323.465 172.56 309.275 186.959 304.68 192.844C307.181 193.479 309.682 194.115 312.183 194.75C309.6 198.552 307.017 202.354 304.434 206.156C320.224 208.321 335.689 212.737 350.276 219.247C338.851 227.205 327.426 235.164 316.001 243.122C313.032 245.19 309.633 248.518 310.915 251.944C326.945 257.78 342.974 263.615 359.004 269.45C342.566 274.817 324.911 275.724 308.234 272.057C316.113 286.231 322.022 301.643 325.72 317.666C320.2 322.73 311.809 319.538 305.39 316.133C297.416 311.902 289.442 307.671 281.468 303.44C281.338 317.568 281.35 331.694 281.502 345.815C275.684 342.846 272.594 336.261 269.084 330.561C265.573 324.861 260.193 319.206 253.698 319.963C250.206 327.896 246.715 335.829 243.224 343.762C241.499 342.699 239.774 341.635 238.049 340.571C234.447 350.103 223.701 356.071 214.317 353.752C217.874 341.703 220.652 329.416 222.623 317.005C211.931 322.038 200.361 324.92 188.738 325.446C191.339 319.548 199.582 319.317 203.658 314.408C209.159 307.785 203.376 296.895 195.55 294.232C187.724 291.569 179.18 293.954 170.917 294.651C160.727 295.509 150.396 293.704 141.114 289.441C153.336 281.116 165.557 272.792 177.779 264.466C163.066 253.635 146.562 245.461 129.179 240.393C142.449 235.03 155.719 229.666 168.989 224.303C170.086 223.86 171.271 223.338 171.845 222.258C172.709 220.632 171.771 218.67 170.827 217.135C165.911 209.142 160.317 201.619 154.132 194.68C160.351 195.672 167.062 196.585 172.719 193.519C181.56 188.727 183.338 173.954 175.868 167.346C179.143 167.946 182.417 168.546 185.692 169.146C184.602 160.125 181.71 151.389 177.259 143.664C186.267 143.806 205.751 155.343 214.934 154.97C223.274 154.631 227.673 123.242 235.214 120.553C241.176 118.426 239.632 145.527 245.32 147.674C248.441 148.854 265.903 160.348 261.502 164.124Z" fill="#94D31A"/>
<path d="M190.183 177.294C198.244 188.871 208.323 199.64 220.072 209.234C212.423 206.821 204.091 205.658 195.809 205.847C202.142 210.169 210.2 213.02 218.638 213.926C209.104 218.029 198.874 221.2 188.28 223.337C197.166 223.424 206.053 223.511 214.939 223.598C204.606 228.527 193.687 232.751 182.357 236.2C190.11 237.18 198.028 237.405 205.856 236.867C196.211 241.227 186.566 245.588 176.921 249.948C190.836 246.622 204.751 243.297 218.665 239.971C213.599 249.752 206.54 258.939 197.816 267.107C204.283 262.437 210.75 257.767 217.217 253.097C216.308 263.644 213.933 274.119 210.143 284.292C214.1 279.173 218.056 274.054 222.012 268.935C224.155 281.541 223.867 294.384 221.161 306.928C227.995 294.87 234.828 282.813 241.661 270.754C244.494 279.4 247.327 288.048 250.16 296.694C252.492 286.304 254.825 275.914 257.157 265.524C260.946 273.241 267.895 280.046 276.799 284.764C276.592 276.169 275.214 267.592 272.691 259.212C279.221 262.861 286.79 265.438 294.728 266.712C291.286 258.927 284.938 251.895 276.612 246.643C284.743 248.359 293.141 249.346 301.576 249.577C291.816 244.351 282.056 239.125 272.297 233.899C285.025 232.968 297.754 232.037 310.482 231.106C300.241 225.224 287.354 222.04 274.507 222.216C287.805 220.644 300.927 218.216 313.684 214.964C295.395 212.437 276.54 212.287 258.185 214.522C267.719 206.816 275.692 198.004 281.741 188.488C279.231 195.676 276.721 202.863 274.211 210.05C272.721 203.646 270.119 197.392 266.495 191.498C265.691 190.19 264.776 188.846 263.219 188.016C260.037 186.322 255.34 187.54 252.918 189.846C250.496 192.151 249.765 195.193 249.111 198.097C248.461 191.652 246.683 185.272 243.839 179.178C242.788 186.185 241.736 193.192 240.685 200.198C239.364 189.362 232.924 178.924 222.799 171.207C219.982 175.657 219.009 180.765 220.051 185.636C218.241 181.322 215.394 177.259 211.692 173.707C211.147 177.749 211.427 182.203 211.488 186.034C207.857 183.414 191.578 179.297 190.183 177.294Z" fill="#B2ED20"/>
</svg>
