<svg width="439" height="423" viewBox="0 0 439 423" fill="none" xmlns="http://www.w3.org/2000/svg">
<path d="M0.0147463 240.274C0.303746 250.436 6.4528 261.198 16.3928 263.332C14.2908 271.662 12.1837 280.405 14.2667 288.74C16.3497 297.075 24.1338 304.662 32.6278 303.376C27.3898 318.552 37.2057 337.139 52.6927 341.371C54.0077 348.762 55.5028 356.542 60.4078 362.225C65.3128 367.908 74.8467 370.314 80.3447 365.202C82.4567 377.588 96.5727 386.436 108.641 382.94C111.102 388.681 113.773 394.695 118.789 398.417C123.805 402.139 131.925 402.451 135.589 397.393C135.346 405.583 143.103 413.096 151.28 412.593C154.348 412.404 157.366 411.262 160.42 411.608C170.2 412.717 177.115 420.868 186.84 422.384C198.432 424.191 200.077 413.224 211.227 409.578C219.392 406.908 227.697 412.474 236.033 414.548C244.369 416.621 256.354 410.454 252.884 402.596C261.232 406.725 270.133 410.964 279.406 410.101C288.679 409.238 297.921 401.035 296.269 391.869C304.205 400.088 321.176 391.586 319.345 380.309C326.53 385.688 337.099 386.032 344.618 381.129C352.136 376.227 356.086 366.417 354.061 357.672C361.792 363.282 374.142 360.681 378.955 352.429C383.768 344.177 379.95 332.148 371.26 328.181C378.84 331.547 388.694 328.449 392.985 321.351C397.275 314.253 395.438 304.088 388.934 298.941C394.904 298.035 401.114 295.418 404.027 290.128C406.94 284.838 404.642 276.702 398.73 275.473C416.944 272.128 426.929 247.196 416.057 232.203C425.343 234.552 435.928 228.215 438.243 218.92C440.558 209.626 434.183 199.064 424.88 196.782C433.114 192.148 437.668 181.791 435.517 172.591C433.366 163.391 424.693 156.126 415.258 155.622C420.341 144.74 409.789 130.209 397.868 131.674C404.005 127.233 406.163 118.099 402.663 111.38C399.163 104.662 390.442 101.195 383.285 103.678C393.714 91.6579 382.835 69.0729 366.935 69.7359C370.243 62.8289 365.334 54.2459 358.486 50.8179C351.638 47.3899 343.59 47.7229 335.944 48.1339C334.621 40.0779 333.015 31.4539 327.219 25.7049C321.423 19.9559 309.936 19.4319 306.222 26.7019C301.053 9.86988 278.472 1.22488 263.383 10.3009C257.348 -3.49212 233.655 -3.41412 227.711 10.4189C212.528 -4.96712 183.406 -2.43111 171.111 15.3469C160.093 2.67489 135.222 9.09788 131.717 25.5199C116.066 15.7209 92.0037 26.3129 88.6617 44.4739C75.7527 37.4909 57.1987 47.7969 56.3067 62.4469C41.9617 67.7369 33.2807 85.0099 37.5947 99.6779C30.9007 103.007 27.7408 115.029 26.8558 125.028C26.5588 128.384 24.5067 131.365 21.4697 132.823C16.1027 135.399 8.76981 141.448 7.53281 155.973C6.75981 165.062 11.8518 176.356 11.7008 178.044C11.5398 179.848 -8.5363 190.275 7.3707 211.781C3.8657 220.842 -0.268254 230.298 0.0147463 240.274Z" fill="#78A015"/>
<path d="M384.74 81.4829C381.27 74.6469 374.706 69.4119 366.935 69.7359C370.243 62.8289 365.334 54.2459 358.486 50.8179C351.638 47.3899 343.59 47.7229 335.944 48.1339C334.621 40.0779 333.015 31.4539 327.219 25.7049C321.423 19.9559 309.936 19.4319 306.222 26.7019C301.053 9.86988 278.472 1.22488 263.383 10.3009C257.347 -3.49212 233.655 -3.41412 227.71 10.4189C212.528 -4.96712 183.405 -2.43111 171.11 15.3469C160.092 2.67489 135.221 9.09788 131.716 25.5199C116.065 15.7209 92.0027 26.3129 88.6607 44.4739C75.7517 37.4909 57.1978 47.7969 56.3058 62.4469C41.9608 67.7369 33.2787 85.0099 37.5937 99.6779C30.8997 103.007 27.7397 115.029 26.8547 125.028C26.5577 128.384 24.5057 131.365 21.4687 132.823C16.1017 135.399 8.76871 141.448 7.53171 155.973C6.75871 165.062 11.8508 176.356 11.6998 178.044C11.5388 179.848 -8.53728 190.275 7.36972 211.781C3.86572 220.844 -0.269233 230.3 0.0137667 240.276C0.302767 250.438 6.4517 261.2 16.3917 263.334C14.2897 271.664 12.1827 280.407 14.2657 288.742C16.3487 297.077 24.1328 304.664 32.6268 303.378C27.3888 318.554 37.2047 337.141 52.6917 341.373C54.0067 348.764 55.5017 356.544 60.4067 362.227C65.3117 367.91 74.8457 370.316 80.3437 365.204C82.4557 377.59 96.5717 386.438 108.64 382.942C111.101 388.683 113.772 394.697 118.788 398.419C123.804 402.141 131.924 402.453 135.588 397.395C135.345 405.585 143.102 413.098 151.279 412.595C154.347 412.406 157.365 411.264 160.419 411.61C170.199 412.719 177.114 420.87 186.839 422.386C198.431 424.193 200.075 413.226 211.226 409.579C219.391 406.91 227.696 412.476 236.032 414.549C244.368 416.622 256.353 410.455 252.883 402.597C261.172 406.697 270.007 410.899 279.209 410.114C280.246 407.225 281.043 404.245 281.563 401.181C281.877 399.324 282.077 397.348 281.337 395.616C280 392.487 276.265 391.354 273.344 389.608C267.449 386.085 264.161 379.228 258.284 375.675C249.913 370.614 239.269 373.645 229.489 373.663C219.708 373.681 207.685 366.55 210.421 357.159C213.851 345.384 232.413 349.983 242.593 343.143C242.104 338.492 237.802 334.555 233.127 334.477C233.898 327.487 242.265 324.703 248.827 322.176C255.39 319.649 262.382 312.29 258.198 306.638C253.643 300.485 242.293 305.874 236.879 300.461C231.981 295.563 237.139 286.682 243.74 284.585C250.342 282.487 257.54 284.164 264.398 283.192C271.256 282.22 278.642 276.307 276.694 269.66C273.796 259.772 255.046 261.461 253.698 251.246C253.053 246.358 257.375 241.541 255.893 236.838C254.168 231.359 246.143 231.047 241.216 234C236.289 236.953 232.648 241.909 227.352 244.134C219.981 247.231 210.467 243.444 207.241 236.129C204.015 228.814 207.635 219.234 214.892 215.88C220.643 213.222 227.415 214.308 233.552 212.732C239.689 211.156 245.543 204.153 241.979 198.915C237.109 196.846 232.239 194.777 227.369 192.708C234.626 180.22 246.469 170.466 260.117 165.738C252.958 162.082 253.98 150.589 260.02 145.284C266.059 139.979 274.659 139.082 282.646 138.179C301.501 136.046 334.093 134.901 349.232 123.06C332.135 102.862 363.412 89.4519 380.445 83.1049C381.919 82.5529 383.346 82.0159 384.74 81.4829Z" fill="#7EBB15"/>
<path d="M101.744 312.338C96.1845 308.733 92.5515 302.886 89.0985 297.231C81.9685 285.549 74.8375 273.867 67.7075 262.186C64.2415 256.508 63.7495 245.693 70.3385 246.608C65.9905 239.422 64.0635 226.654 72.4115 225.732C60.2715 222.453 50.2666 212.241 47.2366 200.037C45.5326 193.174 46.1415 185.298 50.7325 179.919C52.9505 177.321 55.9315 175.477 58.2385 172.956C62.6325 168.155 64.1585 160.911 62.0775 154.745C65.2855 152.6 68.4945 150.456 71.7025 148.311C70.5955 145.429 69.4885 142.547 68.3805 139.665C73.0055 136.173 72.7666 128.019 67.9456 124.804C70.9296 122.557 71.7266 118.52 73.0016 115.008C78.7776 99.0999 99.9576 91.0599 114.836 99.1269C121.815 90.9319 110.983 75.8269 118.711 68.3349C124.609 62.6169 134.201 67.866 142.414 68.054C151.699 68.266 159.581 61.5919 168.424 58.7569C179.814 55.1049 192.283 58.0179 203.377 62.4889C213.897 66.7289 224.323 72.8049 230.049 82.5959C235.775 92.3879 235.124 106.592 226.094 113.456C220.34 117.831 212.657 118.444 205.443 118.891C193.288 119.644 181.133 120.397 168.978 121.15C165.091 121.391 161.028 121.685 157.703 123.712C152.124 127.114 150.258 135.001 152.807 141.018C155.355 147.035 161.535 151.037 167.987 152.064C166.516 159.694 158.502 164.229 150.93 165.974C143.358 167.719 135.255 167.789 128.332 171.319C121.41 174.849 116.237 183.788 120.266 190.433C125.505 189.538 131.114 191.124 135.109 194.629C127.697 201.72 122.449 211.044 120.233 221.059C135.401 232.559 151.929 242.265 169.361 249.91C164.797 252.966 160.233 256.023 155.669 259.079C151.555 261.834 147.074 265.141 146.309 270.033C145.544 274.924 151.754 280.186 155.375 276.812C154.385 277.734 154.207 292.112 152.602 295.28C149.5 301.404 144.771 304.763 139.281 308.54C128.174 316.183 114.349 320.515 101.744 312.338Z" fill="#94D31A"/>
<path d="M332.433 74.7939C330.907 73.8249 329.184 73.2079 327.614 72.3099C323.747 70.0999 320.984 66.3029 317.127 64.0779C313.424 61.9409 309.02 61.4229 305.062 59.8059C301.104 58.1889 297.266 54.7269 297.542 50.4599C297.723 47.6589 299.658 44.8899 298.715 42.2469C298.017 40.2919 295.971 39.1889 294.029 38.4579C286.401 35.5849 277.683 35.7319 270.156 38.8589C266.863 40.2269 262.63 41.9819 260.171 39.3999C258.619 37.7719 258.75 35.2379 258.276 33.0399C257.112 27.6409 251.86 23.8899 246.449 22.7829C241.038 21.6759 235.444 22.6849 230.014 23.6949C221.658 25.2479 206.824 24.3029 205.264 35.7849C205.064 36.9799 205.136 38.4019 206.1 39.1359C207.03 39.8429 208.333 39.5879 209.5 39.6219C211.235 39.6729 212.86 40.4339 214.428 41.1799C220.893 44.2569 228.283 48.6419 228.664 55.7919C228.757 57.5439 228.401 59.3799 229.064 61.0049C230.346 64.1459 234.581 64.7319 237.917 64.1129C241.253 63.4939 244.721 62.1749 247.924 63.2939C254.367 65.5439 253.964 75.0489 250.597 80.9859C247.231 86.9219 241.999 92.6789 242.786 99.4579C247.117 101.691 251.726 103.385 256.473 104.486C254.637 107.859 251.382 110.191 248.93 113.145C246.477 116.1 244.858 120.468 246.908 123.715C250.031 128.661 257.854 126.291 262.202 122.379C266.551 118.466 270.94 113.153 276.77 113.635C279.41 113.853 281.764 115.288 284.166 116.405C289.442 118.86 295.379 119.877 301.171 119.32C303.525 119.093 306.002 118.535 307.669 116.859C313.074 111.422 306.401 99.0439 313.346 95.7969C316.603 94.2739 320.284 96.4299 323.827 97.0479C329.315 98.0039 335.248 94.6499 337.258 89.4539C339.267 84.2539 337.136 77.7809 332.433 74.7939Z" fill="#94D31A"/>
<path d="M166.12 223.8C162.189 226.398 160.529 232.815 164.185 235.785C165.633 236.962 167.544 237.345 169.292 237.997C176.553 240.707 180.887 247.992 184.649 254.768C186.441 257.994 188.106 262.39 185.501 265.004C183.828 266.684 181.17 266.692 178.897 267.365C172.161 269.361 169.156 278.926 173.541 284.415C175.124 286.396 177.391 287.802 178.719 289.962C181.491 294.469 179.264 300.27 177.005 305.055C174.323 310.735 171.642 316.415 168.96 322.095C167.459 325.275 165.893 328.544 163.276 330.892C159.676 334.123 154.66 335.13 149.904 336.013C139.65 337.917 128.936 339.802 118.936 336.843C114.937 335.659 111.109 333.712 106.954 333.361C102.799 333.009 97.9997 334.881 96.8007 338.875C95.2967 343.885 100.35 348.691 105.453 349.841C110.556 350.991 115.932 349.956 121.083 350.87C122.779 351.171 124.498 351.716 125.766 352.882C129.148 355.99 127.808 361.441 128.012 366.029C128.319 372.968 133.25 379.472 139.849 381.64C146.448 383.809 154.275 381.497 158.638 376.092C161.86 381.564 165.277 387.103 170.247 391.056C175.218 395.009 182.112 397.128 188.05 394.878C193.988 392.628 197.862 385.08 194.857 379.485C192.819 375.691 188.515 373.784 185.453 370.756C181.343 366.691 179.627 360.363 181.122 354.779C182.616 349.194 187.263 344.569 192.854 343.101C196.762 342.075 201.707 342.045 203.604 338.478C204.423 336.939 204.398 335.101 204.242 333.365C203.718 327.532 201.924 321.817 199.02 316.731C207.198 313.104 215.873 308.713 219.816 300.683C223.759 292.653 219.479 280.407 210.539 280.075C207.106 279.947 203.081 281.375 200.602 278.997C198.367 276.852 199.167 273.059 200.792 270.422C202.418 267.786 204.744 265.425 205.293 262.377C206.847 253.741 194.321 249.628 190.807 241.587C189.145 237.786 189.685 233.387 188.602 229.377C186.103 220.139 172.948 219.289 166.12 223.8Z" fill="#94D31A"/>
<path d="M23.5307 238.403C23.2847 239.489 23.1107 240.678 23.5017 241.707C24.4957 244.326 27.7677 243.754 30.2287 244.136C34.6917 244.829 37.7166 250.028 38.4376 255.145C39.1586 260.262 38.1877 265.466 37.8667 270.637C37.4687 277.044 38.1236 283.698 40.7706 289.351C43.4176 295.005 48.2857 299.507 53.8397 300.126C55.0867 303.987 55.5657 308.12 56.6487 312.046C57.7317 315.972 59.5856 319.876 62.7086 321.886C65.8316 323.897 70.4057 323.257 72.1997 319.694C74.0347 316.051 72.3127 311.36 69.9527 308.142C67.5927 304.924 64.5367 302.207 63.1807 298.296C61.6667 293.929 62.5837 288.976 61.9647 284.329C61.1177 277.974 57.4967 272.653 55.0187 266.891C52.5407 261.129 51.3807 253.568 55.0537 248.724C55.7387 247.821 56.5857 247.019 56.9447 245.895C57.5007 244.155 56.7256 242.262 55.9696 240.624C49.4086 226.417 28.1717 217.932 23.5307 238.403Z" fill="#94D31A"/>
<path d="M64.7435 72.9829C67.0035 74.6279 69.7275 75.6259 72.5145 75.8309C74.2055 77.6749 72.5385 80.7789 70.3155 81.9289C68.0925 83.0779 65.4245 83.2309 63.3125 84.5739C60.6085 86.2919 59.3905 89.5489 58.3475 92.5769C56.7725 97.1459 55.1985 101.716 53.6235 106.285C52.9055 108.368 52.1995 110.717 53.1615 112.699C54.7335 115.939 59.8685 115.69 62.3495 113.08C64.8305 110.469 65.3545 106.613 65.7005 103.028C66.0465 99.4429 66.4345 95.6029 68.7485 92.8429C75.3785 84.9349 91.5835 91.9409 96.8695 83.0769C99.1385 79.2709 97.9335 74.4529 98.1695 70.0279C98.4055 65.6039 101.989 60.3859 106.163 61.8719C112.324 64.0649 118.697 59.6419 123.745 55.4839C126.757 53.0039 130.099 49.5189 128.932 45.7959C128.499 44.4139 127.47 43.2789 126.276 42.4599C120.746 38.6599 113.118 41.4999 107.613 45.3359C102.109 49.1719 96.7576 54.1319 90.0636 54.5949C78.4696 55.3959 66.6175 58.7489 64.7435 72.9829Z" fill="#94D31A"/>
</svg>
