<svg width="494" height="449" viewBox="0 0 494 449" fill="none" xmlns="http://www.w3.org/2000/svg">
<path d="M8.63383 127.849C-3.73817 152.812 -0.410164 184.768 16.8398 206.647C4.38684 229.947 -3.43517 256.892 1.49383 282.847C6.42283 308.803 26.4818 332.925 52.6308 336.698C49.9628 381.719 79.5188 426.783 121.875 442.275C164.23 457.767 215.887 442.408 242.897 406.291C281.592 424.677 329.478 440.163 368.106 421.639C406.734 403.115 431.114 346.024 415.51 306.126C435.197 290.332 464.375 276.35 478.03 255.122C497.959 224.14 497.995 185.294 482.682 155.823C468.009 127.583 431.08 101.756 399.509 105.761C396.841 77.1224 379.414 50.2584 354.35 36.1484C329.286 22.0394 297.279 21.0744 271.411 33.6494C255.408 13.8354 230.436 2.13939 205.035 0.280394C179.634 -1.57861 154 5.9254 132.294 19.2484C118.64 27.6294 106.436 38.3334 96.2478 50.6914C88.6158 59.9494 82.9198 78.1994 73.6048 84.8144C64.1638 91.5194 48.3288 90.8294 37.5848 97.1594C25.3088 104.391 14.9778 115.049 8.63383 127.849Z" fill="#7EBB15"/>
<path d="M482.683 155.823C476.332 143.6 465.811 131.831 453.36 122.736C454 123.83 454.611 124.93 455.184 126.033C470.497 155.504 470.461 194.35 450.532 225.332C436.878 246.56 407.699 260.542 388.012 276.336C403.616 316.234 379.237 373.326 340.608 391.849C301.979 410.373 254.093 394.888 215.398 376.501C188.388 412.618 136.731 427.978 94.3756 412.485C85.3706 409.191 76.9466 404.556 69.2856 398.874C81.6556 418.485 100.069 434.299 121.874 442.275C164.229 457.767 215.886 442.408 242.896 406.291C281.591 424.677 329.477 440.163 368.105 421.639C406.733 403.115 431.113 346.024 415.509 306.126C435.196 290.332 464.374 276.35 478.029 255.122C497.959 224.14 497.995 185.294 482.683 155.823Z" fill="#78A015"/>
<path d="M46.2499 255.097C38.9519 239.562 39.8229 220.456 48.5049 205.65C49.7309 203.561 51.1459 201.397 51.1199 198.975C51.0989 196.953 50.0669 195.101 49.1979 193.275C41.6329 177.382 46.1049 156.65 59.5479 145.29C69.1649 137.162 81.9489 134.016 94.3299 131.72C105.967 129.561 118.345 127.998 129.345 132.366C113.617 134.227 98.3529 143.441 91.5729 157.753C84.7919 172.064 88.1869 191.191 100.951 200.564C86.4299 207.657 73.4089 219.233 68.0179 234.468C63.0639 248.463 74.5019 265.979 67.5279 277.2C58.1249 273.956 50.4539 264.046 46.2499 255.097Z" fill="#94D31A"/>
<path d="M174.995 53.5604C191.939 46.2254 215.242 52.5314 221.796 69.7924C235.32 60.1274 252.633 57.1903 269.251 57.5933C283.701 57.9443 299.082 61.1294 309.168 71.4824C324.184 86.8954 322.108 112.041 315.388 132.483C312.682 110.942 291.272 95.1574 269.634 93.4024C247.995 91.6474 226.859 101.223 209.286 113.97C210.385 98.4734 199.396 82.9654 184.41 78.8644C169.227 74.7094 155.629 90.8374 145.299 87.5844C149.113 73.2814 161.344 59.4694 174.995 53.5604Z" fill="#94D31A"/>
<path d="M164.897 207.437C172.932 191.006 191.798 180.576 209.985 182.51C215.6 169.412 228.424 160.264 242.246 156.79C256.067 153.316 270.759 154.969 284.442 158.955C290.439 160.702 296.461 162.979 301.13 167.13C305.35 170.882 308.189 175.921 310.714 180.972C315.918 191.38 320.209 202.721 319.496 214.335C318.783 225.95 311.956 237.827 300.885 241.41C299.387 227.041 288.051 214.232 273.971 210.998C259.891 207.765 244.102 214.345 236.485 226.62C225.379 214.425 205.969 210.112 191.348 217.746C181.683 222.792 174.294 251.039 171.457 251.68C156.191 255.128 161.828 213.712 164.897 207.437Z" fill="#94D31A"/>
</svg>
