<svg width="574" height="1286" viewBox="0 0 574 1286" fill="none" xmlns="http://www.w3.org/2000/svg">
<path d="M122.962 1215.36C123.254 1215.7 123.449 1215.95 123.546 1216.2C123.351 1215.7 123.157 1215.45 122.962 1215.36Z" fill="#5A7A35"/>
<path d="M193.22 1244.54L193.319 1244.79C193.513 1245.04 193.708 1245.29 193.903 1245.46C193.903 1245.46 193.708 1245.12 193.123 1244.46L193.22 1244.54Z" fill="#5A7A35"/>
<path d="M348.178 1279.15C373.906 1289.16 405.676 1288.41 429.844 1275.48C453.525 1262.81 467.949 1238.04 461.907 1214.27C460.932 1210.51 459.373 1206.35 457.327 1202.18C465.903 1202.09 473.406 1197.92 479.351 1192.42C487.147 1185.08 492.117 1174.74 494.554 1165.23C496.405 1158.06 497.185 1150.3 495.528 1143.04C512.388 1140.71 528.37 1134.7 539.772 1125.45C552.928 1114.85 560.725 1100.43 559.458 1084.91C558.289 1069.23 550.59 1053.14 538.896 1041.04C537.921 1040.04 536.849 1039.04 535.875 1038.04C541.819 1036.87 547.471 1034.96 551.369 1030.87C553.416 1028.7 552.149 1024.7 550.395 1022.78C542.988 1014.52 531.781 1010.77 521.549 1005.77C516.481 1003.26 511.316 1000.68 505.956 998.677C506.054 997.927 506.054 997.926 506.151 997.175C516.871 995.007 527.786 992.672 536.556 986.584C541.234 983.248 537.336 977.826 533.73 975.408C529.93 972.906 525.836 970.904 521.646 969.32C531.684 968.402 541.819 966.234 550.492 961.647C560.14 956.476 566.377 947.468 566.572 937.627C566.962 926.117 558.874 915.777 548.154 909.355C547.666 909.021 547.081 908.771 546.496 908.437C545.619 904.267 543.768 900.013 541.527 896.344C543.866 894.926 546.205 893.425 548.349 891.84C560.53 883.083 571.25 871.741 573.589 857.98C577.974 830.958 546.497 810.941 517.163 812.443C517.553 812.192 517.943 811.943 518.333 811.609C523.985 807.022 526.324 801.517 523.4 795.012C522.718 793.511 521.354 792.009 519.697 791.008C527.883 785.921 534.12 778.833 536.654 769.909C542.306 749.475 526.031 730.793 506.541 720.034C528.37 714.697 551.467 703.854 561.895 686.924C573.492 667.992 566.767 647.226 551.662 632.214C553.513 630.045 552.344 626.125 550.59 624.206C548.446 621.871 546.107 619.954 543.476 618.202C549.908 613.198 555.56 607.526 560.141 601.188C569.886 587.677 574.466 571.58 570.276 555.901C565.988 539.721 554.293 525.544 538.993 515.536C536.264 513.784 533.536 512.283 530.612 510.865C532.464 510.031 534.315 509.114 536.069 508.03C544.061 503.026 548.251 495.352 546.107 486.845C544.255 479.756 538.798 473.668 531.879 469.414C544.061 462.492 554.683 453.068 561.115 441.976C576.61 415.121 558.581 383.011 535.387 363.579C534.9 363.162 534.412 362.829 534.023 362.412C535.484 361.744 536.946 361.076 538.408 360.326C538.7 360.242 538.993 360.242 539.383 360.159C541.039 359.742 542.014 358.909 542.696 357.908C550.2 353.321 556.632 347.233 560.725 340.31C566.767 329.969 568.326 318.041 562.284 307.449C559.653 302.862 555.95 298.776 551.662 295.106C551.954 294.773 552.149 294.523 552.344 294.106C560.238 287.601 565.695 278.843 567.352 269.586C571.25 246.484 551.467 225.801 528.955 215.542C526.129 214.208 523.205 213.123 520.282 212.039C523.4 208.286 525.641 204.033 526.031 199.196C526.421 194.942 521.646 189.938 516.578 189.688C514.337 189.605 512.095 189.438 509.854 189.271C517.65 183.433 524.083 176.51 527.786 167.837C533.731 153.992 529.735 137.563 519.112 126.22C510.244 116.712 498.257 109.539 485.49 104.368C481.202 102.617 476.719 101.116 472.042 99.9485C475.063 91.8586 474.478 83.6023 466.487 76.0962C457.229 67.5059 444.17 67.6717 432.866 72.1754C432.184 67.1713 430.624 62.2515 428.772 57.9146C422.535 43.8199 411.133 30.309 397.587 20.7179C375.27 4.87171 339.992 3.2862 316.115 17.7146C313.289 19.466 310.756 21.3842 308.514 23.4692C304.226 20.4668 299.548 17.965 294.578 16.1302C285.32 12.7107 273.041 11.6262 264.367 16.797C260.664 19.0488 258.228 22.1349 256.474 25.6378C240.199 10.7924 214.081 1.3681 193.128 0.117086C154.049 -2.13474 126.47 28.4741 121.792 59.1656C119.843 58.2482 117.991 57.4137 115.945 56.5797C110.39 54.4947 104.25 53.3274 98.2081 54.8286C91.2889 56.58 85.6368 60.1659 82.8106 65.9205C79.4972 72.676 80.5689 80.2651 83.2976 87.4376C80.9588 93.4425 82.2261 100.615 83.8828 106.703C80.8617 106.703 77.8404 107.038 74.9167 107.872C64.1968 111.124 57.9599 119.547 59.7141 129.138C60.2988 132.057 61.3705 134.81 62.9298 137.563C59.1291 137.563 55.2313 137.728 51.4306 138.312C23.8511 142.315 1.33918 161.749 0.0722743 186.102C-0.902266 205.701 8.16099 226.801 16.2497 244.732C22.6816 258.993 30.3801 273.089 39.9306 286.183C36.6172 288.518 33.6939 291.103 31.2575 294.189C24.1434 303.363 23.9484 315.706 30.088 325.298C32.9142 329.718 36.7147 333.054 41.1976 335.64C22.4864 346.565 8.64789 363.495 4.74973 383.511C-1.68224 417.122 21.1219 449.231 56.3028 462.242C46.1676 462.742 36.0328 465.161 27.1645 469.165C-14.7407 488.097 17.711 532.632 40.2228 553.232C42.4643 557.069 45.5831 560.572 49.1889 563.908C42.7569 565.159 36.6172 566.993 30.3802 568.495C28.1387 568.995 27.0666 570.33 26.6767 571.831C18.9779 575.334 13.5207 581.172 12.6436 589.596C11.0844 604.608 25.0204 617.034 38.0793 625.291C38.664 625.624 39.2486 625.875 39.7358 626.208C35.5453 628.794 31.7448 631.796 28.5288 635.298C19.0758 645.473 17.6137 659.902 26.2871 670.911C31.1598 676.999 38.1769 680.752 45.9732 682.754C45.8757 683.921 45.9731 685.173 46.168 686.424L46.2654 686.757C34.5709 687.841 23.3637 691.344 15.1775 698.933C1.43651 711.694 3.48306 730.376 11.0845 745.138C17.0292 756.897 26.287 767.49 37.2993 776.33C37.007 776.497 36.7151 776.581 36.4227 776.748C25.0206 782.836 17.7112 792.343 19.4654 804.102C21.9992 820.115 37.9818 833.127 55.7184 836.963C57.5701 837.38 59.4216 837.629 61.3706 837.879C58.9343 841.049 56.6927 844.552 54.9385 848.388C54.5487 849.139 54.4515 849.806 54.4515 850.557C49.3839 851.141 44.3159 852.308 40.3202 855.061C34.6679 858.897 31.7449 864.818 31.1601 870.823C30.5754 876.494 32.0367 882.165 34.8628 887.503C30.2825 887.086 27.5543 890.006 28.4314 894.093C29.9907 901.182 36.6171 906.018 42.7567 910.688C32.1343 914.025 22.4865 919.78 15.3723 927.37C-9.38099 953.641 7.08848 993.006 37.4941 1010.77C35.6425 1014.69 34.4735 1018.78 33.9862 1022.95C32.3295 1035.54 36.7151 1048.38 44.6088 1058.98C47.1426 1062.31 50.1633 1065.65 53.4767 1068.65C50.0658 1071.57 47.4348 1074.91 46.3628 1078.83C38.3716 1084.58 31.7447 1091.84 28.821 1100.59C25.8 1109.77 27.3596 1119.44 30.8679 1128.36C36.4228 1142.46 47.0449 1153.97 60.1037 1163.56C72.5778 1172.73 87.0013 1181.41 102.886 1185.58C103.666 1185.83 104.543 1185.91 105.323 1186.08C103.569 1190.25 102.691 1194.67 102.691 1199.01C102.691 1214.27 113.703 1231.7 132.219 1235.28C137.385 1236.29 142.647 1236.29 147.812 1235.04C153.757 1233.62 161.846 1230.62 162.431 1224.78C171.396 1219.69 178.9 1212.43 185.917 1205.68C190.01 1201.76 193.908 1197.75 197.806 1193.67C195.76 1198.09 193.811 1202.59 192.057 1207.1C191.277 1207.01 190.595 1207.01 189.815 1207.26C189.133 1207.51 188.45 1207.68 187.768 1207.93C185.917 1208.43 184.845 1209.6 183.578 1210.77C182.506 1211.85 181.531 1213.02 180.752 1214.27C178.997 1216.94 177.438 1219.77 176.366 1222.69C174.515 1227.78 174.028 1233.03 174.807 1238.37C176.172 1247.63 182.993 1255.97 192.252 1260.89C206.772 1268.56 229.187 1269.15 242.44 1258.97C243.22 1258.39 243.902 1257.72 244.487 1257.14C244.779 1257.39 244.974 1257.64 245.169 1257.89C253.355 1265.98 265.05 1272.82 277.914 1273.48C291.167 1274.15 305.201 1269.06 312.705 1259.47C313.387 1258.55 314.069 1257.55 314.654 1256.55C323.717 1266.06 334.534 1273.82 348.178 1279.15Z" fill="#5A7A35"/>
<path d="M398.743 680.585C409.658 688.759 427.297 689.341 435.776 677.915C443.182 667.907 441.33 654.397 438.114 642.887C443.572 647.391 449.809 651.311 456.923 654.397C476.901 662.987 508.769 666.991 518.612 644.806C525.628 628.96 517.052 610.944 508.184 597.016C498.146 581.337 485.477 566.242 469.787 554.149C472.906 550.813 474.757 546.476 475.634 542.389C478.363 529.962 476.414 515.534 470.274 503.274C480.312 500.856 489.765 495.602 496.1 488.263C515.59 465.828 490.058 434.886 466.961 422.626C482.554 410.95 493.566 392.852 495.807 377.673C497.951 362.911 491.714 347.981 476.901 339.641C464.135 332.385 447.665 331.052 432.754 332.886C444.351 307.199 444.254 276.424 427.59 254.74C445.911 251.904 462.771 237.642 468.228 221.963C472.614 209.286 466.669 196.192 456.436 185.851C472.808 182.848 485.477 174.174 482.164 156.493C477.096 128.971 430.806 123.717 405.078 125.468C402.544 125.635 399.815 125.968 397.086 126.302C397.086 124.217 396.892 122.215 396.502 120.381C394.65 110.539 388.316 100.781 377.888 95.7774C368.338 91.1903 356.935 91.5238 346.995 94.8599C336.86 78.1797 319.221 63.4182 299.048 55.7453C281.409 48.9898 261.82 52.4088 248.664 64.6688C234.923 77.4291 230.635 96.6119 231.22 113.459C231.317 115.544 231.512 117.712 231.707 119.88C230.732 119.463 229.758 118.963 228.881 118.629C208.123 109.622 175.866 102.033 156.375 117.378C136.397 132.974 140.198 161.33 154.621 178.594C169.629 196.442 193.797 207.618 217.576 215.291C212.411 217.042 207.343 219.127 202.568 221.546C186.488 229.719 175.671 242.313 177.036 258.826C178.497 277.592 193.7 293.27 212.703 301.694C223.326 306.364 235.215 309.451 247.202 310.118C245.155 316.54 246.13 323.379 248.957 329.634C254.024 340.726 263.185 348.065 275.171 352.068C274.489 352.485 273.807 352.986 273.125 353.403C255.973 365.747 246.423 382.01 245.058 401.192C244.084 415.287 247.592 429.381 254.024 442.308C240.867 452.817 229.952 465.745 223.033 477.838C217.966 486.678 213.873 496.019 212.411 505.86C211.632 511.615 212.801 517.62 213.97 523.291C217.381 538.887 223.131 555.067 233.169 568.578C237.944 575.083 245.351 582.172 254.804 583.256C254.706 590.845 256.363 598.601 258.604 605.691C264.159 622.955 274.002 639.719 287.451 653.563C299.145 665.573 314.835 676.582 333.936 677.499C350.113 678.25 362.003 669.159 368.825 657.4C371.748 652.479 373.892 647.391 375.744 642.22V642.387C380.422 655.564 386.171 671.078 398.743 680.585ZM426.42 177.845C421.158 177.511 415.895 176.593 411.119 175.175L410.827 175.092C415.797 174.592 421.158 175.593 426.42 177.845Z" fill="#6C8F42"/>
<path d="M342.799 536.141L342.994 536.391C343.871 537.309 342.994 536.307 342.799 536.141Z" fill="#6C8F42"/>
<path d="M412.02 984.826C426.151 971.899 432.973 953.3 436.286 936.202C439.794 918.021 440.184 898.672 434.044 880.824C436.188 880.24 438.332 879.657 440.476 879.073C454.217 874.986 467.763 869.65 477.411 860.142C494.173 843.712 489.691 820.026 476.729 802.928C468.251 791.836 453.535 780.743 437.553 777.824C427.223 758.808 396.817 757.141 374.89 761.728C373.331 762.062 371.771 762.395 370.115 762.812C371.966 753.722 369.725 744.297 365.242 735.957C354.425 715.857 332.303 699.345 308.427 691.338C287.377 684.332 258.53 684.833 239.916 696.759C223.057 707.518 217.209 725.866 216.722 743.13C216.332 756.308 218.574 769.651 222.667 782.578C216.819 780.16 210.387 778.825 203.663 778.575C185.244 777.991 167.508 786.748 165.656 803.429C163.512 821.86 178.715 838.79 194.307 849.966C213.019 863.394 236.018 873.152 259.797 878.073C267.691 879.741 276.169 880.992 284.745 881.325C278.605 892.751 277.144 906.763 280.457 919.44C284.063 933.201 293.418 946.044 308.328 952.716C320.023 957.887 333.862 959.639 346.823 957.721C347.213 969.897 351.111 982.323 361.344 990.663C376.937 1003.09 398.961 996.752 412.02 984.826Z" fill="#6C8F42"/>
<path d="M285.709 165.576C288.73 163.908 290.679 160.738 290.679 157.653C290.679 154.817 289.51 152.315 287.755 150.063C287.56 146.31 284.345 143.224 280.836 141.389C277.328 139.554 273.43 138.637 269.434 138.053C265.731 137.553 261.735 137.552 258.129 138.303C254.621 139.053 251.016 140.722 249.261 143.557C246.435 148.144 247.312 154.067 250.626 158.403C254.232 163.157 260.761 165.826 267.095 166.993C273.04 168.161 280.252 168.662 285.709 165.576Z" fill="#6C8F42"/>
<path d="M235.427 167.748C235.915 167.581 236.402 167.498 236.889 167.415C237.669 167.331 238.35 167.164 239.033 166.831C239.91 166.247 240.495 165.58 240.787 164.662C240.787 164.579 240.885 164.412 240.885 164.329C240.69 164.662 240.592 164.913 240.397 165.246C240.787 164.746 241.08 164.162 241.08 163.578C241.274 162.911 241.274 162.243 241.08 161.576C240.885 161.076 240.689 160.659 240.494 160.159C240.007 159.158 239.325 158.323 238.448 157.573C238.058 157.156 237.571 156.906 237.084 156.572C236.402 156.072 235.524 155.654 234.647 155.404L232.991 155.155C232.504 155.238 231.919 155.237 231.432 155.237C231.334 155.237 231.139 155.321 231.139 155.321C230.846 155.405 230.554 155.571 230.262 155.655C229.97 155.738 229.677 155.905 229.385 155.988C229.092 156.155 228.8 156.239 228.606 156.406C228.508 156.489 228.313 156.572 228.215 156.655C227.728 157.072 227.241 157.406 226.851 157.823C226.364 158.407 226.169 158.991 226.169 159.658C225.974 160.326 225.974 161.076 226.266 161.743C226.461 162.243 226.656 162.744 226.851 163.245C227.241 164.079 227.728 164.745 228.41 165.329C228.8 165.746 229.287 166.164 229.774 166.497C230.457 166.998 231.236 167.331 232.016 167.582L233.575 167.831C234.16 168.081 234.745 167.915 235.427 167.748Z" fill="#6C8F42"/>
<path d="M127.243 333.701C130.07 332.366 132.018 330.115 133.09 327.613C134.162 325.277 134.162 322.359 133.383 319.94C132.311 316.604 130.167 313.685 127.243 311.433C126.659 310.849 126.073 310.349 125.489 309.848C122.857 307.847 119.934 306.43 116.718 305.262C114.282 304.345 111.456 303.593 108.824 303.676C105.219 303.676 101.808 304.344 98.6895 305.845C96.0582 307.179 94.3041 309.265 93.2321 311.684C92.1601 314.019 92.2569 317.021 93.0365 319.356C93.9136 322.192 95.3759 324.944 97.5199 327.279C102.198 332.2 108.922 335.87 116.523 335.953C120.324 335.953 123.833 335.285 127.243 333.701Z" fill="#6C8F42"/>
<path d="M153.55 350.895C153.745 350.729 154.038 350.478 154.038 350.478C154.232 350.395 154.427 350.311 154.622 350.227C155.402 349.81 155.889 349.227 156.181 348.56C156.668 347.893 156.864 347.142 156.766 346.308C156.766 345.39 156.668 344.557 156.279 343.723C155.986 342.806 155.499 341.971 154.817 341.137C154.232 340.303 153.452 339.637 152.478 339.053C151.698 338.469 150.821 338.052 149.846 337.802C149.262 337.718 148.677 337.55 148.092 337.467C146.923 337.384 145.851 337.634 144.877 338.218C144.487 338.551 144.097 338.886 143.707 339.219C143.025 340.053 142.732 341.053 142.732 342.137C142.83 342.721 142.83 343.222 142.927 343.806C143.122 344.723 143.512 345.641 144.194 346.392C144.487 346.892 144.877 347.226 145.266 347.643L145.364 347.809C145.754 348.477 146.338 349.144 147.02 349.645C147.41 349.978 147.897 350.228 148.287 350.562C148.969 350.979 149.652 351.146 150.432 351.229C150.919 351.396 151.309 351.395 151.796 351.312C152.381 351.395 152.965 351.229 153.55 350.895Z" fill="#6C8F42"/>
<path d="M100.243 361.317C100.341 361.317 100.438 361.233 100.536 361.233C101.51 361.066 102.29 360.565 102.875 359.982C103.362 359.314 103.654 358.564 103.654 357.73C103.654 357.063 103.557 356.396 103.264 355.729C103.069 354.978 102.68 354.311 102.095 353.727C101.413 352.893 100.633 352.225 99.6583 351.725C98.7812 351.141 97.612 351.058 96.54 350.807C96.4426 350.807 96.3453 350.808 96.2478 350.725C95.2733 350.641 94.4935 350.891 93.7139 351.308C93.4216 351.558 93.129 351.892 92.7392 352.142C92.2519 352.81 91.96 353.643 91.96 354.394C91.96 355.061 92.0572 355.728 92.3496 356.395C92.5445 357.146 92.9344 357.813 93.5191 358.397C94.0064 359.064 94.5908 359.565 95.3705 359.982C95.9552 360.482 96.6377 360.816 97.4174 360.983C98.3919 361.484 99.2689 361.483 100.243 361.317Z" fill="#6C8F42"/>
<path d="M141.954 562.406C139.907 561.155 137.373 560.738 134.839 560.988C132.5 561.155 130.064 562.239 128.408 563.49C125.971 565.325 124.314 567.659 123.437 570.245C123.145 570.829 122.95 571.329 122.755 571.913C121.975 574.165 121.878 576.5 122.073 578.919C122.17 580.754 122.56 582.672 123.535 584.34C124.801 586.509 126.556 588.344 128.895 589.761C130.941 590.929 133.28 591.263 135.619 591.012C137.958 590.846 140.394 589.678 142.051 588.426C144.098 586.925 145.851 585.008 147.021 582.923C149.457 578.335 150.14 572.998 147.508 568.327C146.242 565.908 144.487 563.907 141.954 562.406Z" fill="#6C8F42"/>
<path d="M146.928 540.381C146.733 540.297 146.539 540.296 146.344 540.213C146.344 540.213 146.149 540.047 145.954 539.963C145.37 539.63 144.687 539.546 144.005 539.63C143.323 539.63 142.543 539.712 141.959 540.046C141.179 540.296 140.594 540.713 140.009 541.297C139.327 541.797 138.84 542.382 138.353 543.049C137.865 543.716 137.573 544.467 137.475 545.218C137.28 545.885 137.183 546.552 137.28 547.302C137.378 547.719 137.573 548.136 137.67 548.469C138.06 549.22 138.548 549.804 139.425 550.138C139.815 550.221 140.302 550.388 140.692 550.471C141.666 550.554 142.543 550.388 143.42 550.055C143.908 549.805 144.297 549.554 144.785 549.304C145.467 548.887 146.051 548.303 146.539 547.636C146.831 547.302 147.026 546.886 147.22 546.469L147.319 546.385C147.806 545.884 148.098 545.384 148.293 544.8C148.39 544.467 148.487 544.05 148.585 543.716C148.682 543.216 148.585 542.715 148.39 542.214C148.39 541.881 148.195 541.631 148 541.381C147.806 540.88 147.513 540.547 146.928 540.381Z" fill="#6C8F42"/>
<path d="M174.412 569.164L174.217 568.997L174.119 568.915C173.632 568.414 173.048 568.164 172.268 567.997C171.488 567.914 170.806 567.997 170.124 568.331C169.539 568.581 169.052 568.831 168.662 569.248C168.175 569.665 167.687 570.082 167.395 570.666C167.005 571.333 166.713 572.084 166.616 572.834C166.421 573.585 166.713 574.336 167.005 575.003L167.103 575.253C167.395 575.837 167.785 576.254 168.467 576.587C168.76 576.671 169.15 576.754 169.442 576.838C170.222 576.921 170.903 576.838 171.586 576.504C172.17 576.254 172.658 575.92 173.145 575.503C173.633 575.086 174.12 574.669 174.412 574.085C174.802 573.585 174.997 573.001 175.094 572.417C175.289 571.916 175.289 571.334 175.192 570.75C175.094 570.249 174.802 569.665 174.412 569.164Z" fill="#6C8F42"/>
<path d="M347.09 610.012C345.044 608.761 342.51 608.344 339.976 608.594C337.637 608.761 335.201 609.845 333.544 611.096C331.108 612.931 329.451 615.182 328.574 617.851C328.281 618.435 328.087 618.935 327.892 619.519C327.112 621.771 327.014 624.106 327.209 626.525C327.307 628.276 327.697 630.278 328.672 631.946C329.939 634.115 331.693 635.949 334.032 637.283C336.078 638.451 338.417 638.785 340.755 638.534C343.094 638.368 345.531 637.201 347.188 635.95C349.234 634.449 351.086 632.529 352.158 630.444C354.594 625.857 355.276 620.521 352.645 615.85C351.378 613.432 349.624 611.513 347.09 610.012Z" fill="#6C8F42"/>
<path d="M352.082 588.007C351.888 587.923 351.692 587.922 351.497 587.839L351.108 587.589C350.523 587.256 349.841 587.172 349.159 587.256C348.477 587.172 347.794 587.338 347.112 587.672C346.332 587.922 345.748 588.339 345.163 588.923C344.481 589.423 343.993 590.008 343.506 590.675C343.019 591.342 342.727 592.093 342.629 592.844C342.435 593.511 342.337 594.178 342.532 594.928C342.629 595.345 342.727 595.763 342.922 596.096C343.311 596.847 343.896 597.431 344.676 597.848C345.065 597.931 345.553 598.098 345.943 598.181C346.917 598.264 347.794 598.097 348.671 597.764C349.159 597.513 349.548 597.263 350.036 597.097C350.718 596.68 351.303 596.096 351.79 595.428C352.083 595.095 352.277 594.678 352.472 594.261L352.569 594.095C352.959 593.594 353.349 593.094 353.544 592.51C353.642 592.093 353.739 591.76 353.836 591.426C353.934 590.926 353.837 590.425 353.642 589.924C353.642 589.591 353.447 589.341 353.252 589.091C352.96 588.507 352.57 588.173 352.082 588.007Z" fill="#6C8F42"/>
<path d="M379.452 616.698L379.354 616.531L379.257 616.447C378.77 615.947 378.185 615.696 377.405 615.53C376.626 615.446 375.943 615.614 375.261 615.864C374.676 616.115 374.189 616.364 373.799 616.781C373.312 617.198 372.825 617.615 372.532 618.116C372.045 618.783 371.85 619.533 371.752 620.284C371.558 621.035 371.85 621.785 372.143 622.453L372.24 622.703C372.533 623.287 372.922 623.787 373.605 624.037C373.897 624.12 374.286 624.204 374.579 624.288C375.358 624.371 376.041 624.288 376.723 623.954C377.308 623.704 377.795 623.37 378.282 622.953C378.867 622.536 379.257 622.119 379.549 621.535C379.939 621.035 380.134 620.45 380.232 619.867C380.426 619.366 380.426 618.783 380.329 618.2C380.231 617.783 379.939 617.282 379.452 616.698Z" fill="#6C8F42"/>
<path d="M99.9594 414.95C96.9383 413.115 92.845 413.199 89.5316 414.116C85.4385 416.201 82.8072 419.204 81.5403 422.79C81.2479 423.374 81.0527 423.874 80.8578 424.457C79.7858 427.793 79.9808 431.297 80.5655 434.8C81.8325 437.802 83.8792 440.471 86.9977 442.223C89.0442 443.39 91.3832 443.641 93.722 443.474C96.0609 443.307 98.4975 442.139 100.154 440.888C102.201 439.387 103.954 437.469 105.124 435.384C107.56 430.797 108.243 425.459 105.612 420.788C104.247 418.453 102.493 416.534 99.9594 414.95Z" fill="#6C8F42"/>
<path d="M222.457 261.655C222.263 261.571 222.068 261.571 221.873 261.488L221.483 261.238C220.898 260.905 220.216 260.82 219.534 260.904C218.852 260.904 218.169 260.988 217.487 261.321C216.707 261.571 216.123 261.988 215.538 262.572C214.856 263.072 214.369 263.656 213.882 264.323C213.395 264.99 213.102 265.658 213.004 266.409C212.81 267.076 212.712 267.743 212.907 268.493C213.004 268.91 213.102 269.328 213.297 269.662C213.686 270.412 214.272 270.995 215.051 271.329C215.441 271.412 215.928 271.58 216.318 271.664C217.293 271.747 218.17 271.58 219.047 271.246C219.437 270.996 219.924 270.746 220.411 270.579C221.094 270.162 221.678 269.578 222.165 268.911C222.458 268.577 222.652 268.16 222.847 267.743L222.944 267.66C223.334 267.16 223.724 266.659 223.919 266.076C224.017 265.659 224.114 265.325 224.211 264.991C224.309 264.491 224.212 263.99 224.017 263.49C224.017 263.156 223.822 262.906 223.627 262.656C223.335 262.239 222.945 261.905 222.457 261.655Z" fill="#6C8F42"/>
<path d="M321.952 1107.27C326.142 1105.35 328.286 1101.34 328.871 1097.59C328.384 1092.42 325.947 1088.25 321.952 1085.08C321.367 1084.5 320.782 1084 320.197 1083.5C316.689 1080.83 312.498 1079.16 308.015 1077.82C307.333 1077.57 306.066 1077.41 305.287 1077.32C301.096 1077.07 296.905 1077.66 293.3 1079.49C289.596 1081.33 287.55 1084.91 286.868 1088.42C286.868 1088.58 286.868 1088.75 286.868 1088.92C287.355 1093 289.012 1097.51 292.228 1100.93C296.906 1105.85 303.533 1109.52 311.232 1109.6C314.935 1109.43 318.541 1108.85 321.952 1107.27Z" fill="#6C8F42"/>
<path d="M146.632 913.181C146.827 913.015 147.119 912.765 147.119 912.765C147.314 912.682 147.606 912.514 147.606 912.514C148.386 912.097 148.873 911.513 149.166 910.846C149.653 910.179 149.847 909.429 149.75 908.595C149.75 907.677 149.653 906.843 149.263 906.009C148.971 905.092 148.483 904.258 147.801 903.424C147.216 902.59 146.437 901.922 145.462 901.339C144.682 900.755 143.805 900.338 142.831 900.005C142.246 899.921 141.662 899.838 141.077 899.671C139.907 899.588 138.836 899.837 137.861 900.421C137.471 900.755 137.081 901.089 136.692 901.423C136.009 902.257 135.717 903.258 135.717 904.342C135.814 904.926 135.814 905.425 135.912 906.009C136.107 906.926 136.496 907.844 137.081 908.595C137.374 909.095 137.861 909.429 138.251 909.846L138.348 910.013C138.738 910.68 139.225 911.347 139.907 911.848C140.395 912.181 140.784 912.432 141.272 912.765C141.954 913.182 142.636 913.349 143.416 913.432C143.903 913.599 144.293 913.599 144.78 913.516C145.462 913.683 146.047 913.515 146.632 913.181Z" fill="#6C8F42"/>
<path d="M93.315 923.599C93.4125 923.599 93.5098 923.516 93.6072 923.516C94.5818 923.349 95.3616 922.849 95.9463 922.265C96.4336 921.598 96.7255 920.847 96.7255 920.013C96.7255 919.346 96.6283 918.68 96.3359 918.012C96.141 917.262 95.751 916.594 95.2638 916.01C94.5816 915.176 93.8018 914.509 92.8273 914.009C91.9502 913.425 90.781 913.341 89.709 913.174C89.6115 913.174 89.5142 913.175 89.4168 913.091C88.4422 913.008 87.6625 913.258 86.8829 913.675C86.5905 913.925 86.2979 914.259 85.9081 914.509C85.4208 915.176 85.1289 916.009 85.1289 916.76C85.1289 917.427 85.2261 918.095 85.5185 918.762C85.7134 919.512 86.1033 920.18 86.6881 920.764C87.1753 921.431 87.7598 921.931 88.5394 922.348C89.1241 922.765 89.8067 923.183 90.5863 923.35C91.4634 923.767 92.3405 923.766 93.315 923.599Z" fill="#6C8F42"/>
<path d="M135.024 1124.69C132.003 1122.86 127.91 1122.94 124.597 1123.86C120.504 1125.94 117.873 1128.95 116.606 1132.53C116.313 1133.12 116.118 1133.62 115.923 1134.2C114.851 1137.54 115.046 1140.96 115.631 1144.54C116.898 1147.54 118.945 1150.21 122.063 1151.97C124.012 1153.13 126.449 1153.47 128.787 1153.22C131.126 1153.05 133.563 1151.96 135.22 1150.63C137.266 1149.13 139.117 1147.21 140.189 1145.13C142.626 1140.54 143.308 1135.2 140.677 1130.53C139.313 1128.2 137.46 1126.19 135.024 1124.69Z" fill="#6C8F42"/>
<path d="M140 1102.67C139.805 1102.58 139.61 1102.58 139.415 1102.5L139.025 1102.25C138.44 1101.92 137.758 1101.83 137.076 1101.91C136.394 1101.91 135.711 1102 135.029 1102.33C134.25 1102.58 133.665 1103 133.08 1103.58C132.398 1104.08 131.814 1104.67 131.424 1105.33C130.937 1106 130.644 1106.75 130.547 1107.42C130.352 1108.09 130.254 1108.75 130.352 1109.5C130.449 1109.92 130.644 1110.34 130.741 1110.67C131.131 1111.42 131.619 1112.01 132.496 1112.42C132.886 1112.51 133.373 1112.67 133.763 1112.76C134.738 1112.84 135.615 1112.67 136.492 1112.34C136.979 1112.09 137.369 1111.84 137.856 1111.67C138.538 1111.26 139.123 1110.67 139.61 1110C139.902 1109.67 140.097 1109.25 140.292 1108.84L140.389 1108.67C140.779 1108.17 141.169 1107.67 141.364 1107.09C141.461 1106.67 141.559 1106.34 141.656 1106C141.754 1105.5 141.656 1105 141.461 1104.5C141.461 1104.17 141.267 1103.92 141.072 1103.67C140.877 1103.17 140.487 1102.92 140 1102.67Z" fill="#6C8F42"/>
<path d="M167.386 1131.44L167.288 1131.27L167.191 1131.19C166.703 1130.69 166.119 1130.44 165.339 1130.27C164.56 1130.19 163.877 1130.35 163.195 1130.6C162.61 1130.85 162.123 1131.19 161.733 1131.52C161.246 1131.94 160.759 1132.35 160.466 1132.94C159.979 1133.61 159.785 1134.36 159.687 1135.11C159.492 1135.86 159.784 1136.61 160.077 1137.28L160.174 1137.53C160.467 1138.11 160.856 1138.53 161.539 1138.86C161.831 1138.94 162.221 1139.03 162.513 1139.11C163.293 1139.19 163.975 1139.11 164.657 1138.78C165.242 1138.53 165.729 1138.19 166.217 1137.78C166.704 1137.36 167.191 1136.94 167.483 1136.36C167.873 1135.86 168.068 1135.27 168.165 1134.69C168.36 1134.19 168.36 1133.61 168.263 1133.02C168.165 1132.52 167.873 1131.94 167.386 1131.44Z" fill="#6C8F42"/>
<path d="M93.0346 977.317C90.0135 975.482 85.921 975.565 82.5101 976.482C78.417 978.567 75.7857 981.57 74.5188 985.156C74.2265 985.74 74.0312 986.241 73.8363 986.825C72.7643 990.161 72.9593 993.579 73.5441 997.166C74.811 1000.17 76.8577 1002.84 79.9762 1004.59C82.0227 1005.76 84.3617 1006.01 86.7006 1005.84C89.0395 1005.67 91.476 1004.5 93.1327 1003.25C95.1792 1001.75 97.0304 999.835 98.1024 997.75C100.539 993.163 101.221 987.825 98.5901 983.154C97.3232 980.736 95.4709 978.818 93.0346 977.317Z" fill="#6C8F42"/>
<path d="M215.54 823.936C215.345 823.853 215.15 823.853 214.955 823.769C214.955 823.769 214.76 823.602 214.565 823.519C213.98 823.185 213.298 823.102 212.616 823.185C211.934 823.185 211.251 823.269 210.569 823.603C209.79 823.853 209.205 824.269 208.62 824.77C207.938 825.27 207.451 825.855 206.964 826.522C206.477 827.189 206.184 827.856 206.087 828.606C205.892 829.274 205.794 829.94 205.892 830.691C205.989 831.108 206.184 831.526 206.281 831.859C206.671 832.61 207.158 833.194 208.035 833.528C208.425 833.611 208.912 833.778 209.302 833.861C210.277 833.944 211.154 833.777 212.031 833.444C212.518 833.193 212.908 832.944 213.395 832.777C214.077 832.36 214.663 831.776 215.15 831.108C215.442 830.775 215.637 830.357 215.832 829.94L215.929 829.857C216.416 829.357 216.709 828.857 216.904 828.273C217.001 827.939 217.099 827.522 217.196 827.189C217.294 826.688 217.196 826.187 217.001 825.687C217.001 825.353 216.807 825.104 216.612 824.854C216.417 824.52 216.027 824.186 215.54 823.936Z" fill="#6C8F42"/>
<path d="M379.452 616.698L379.354 616.531L379.257 616.447C378.77 615.947 378.185 615.696 377.405 615.53C376.626 615.446 375.943 615.614 375.261 615.864C374.676 616.115 374.189 616.364 373.799 616.781C373.312 617.198 372.825 617.615 372.532 618.116C372.045 618.783 371.85 619.533 371.752 620.284C371.558 621.035 371.85 621.785 372.143 622.453L372.24 622.703C372.533 623.287 372.922 623.787 373.605 624.037C373.897 624.12 374.286 624.204 374.579 624.288C375.358 624.371 376.041 624.288 376.723 623.954C377.308 623.704 377.795 623.37 378.282 622.953C378.867 622.536 379.257 622.119 379.549 621.535C379.939 621.035 380.134 620.45 380.232 619.867C380.426 619.366 380.426 618.783 380.329 618.2C380.231 617.783 379.939 617.282 379.452 616.698Z" fill="#6C8F42"/>
</svg>
