<svg width="476" height="458" viewBox="0 0 476 458" fill="none" xmlns="http://www.w3.org/2000/svg">
<path d="M198.23 358.96C187.759 365.431 177.49 373.355 174.013 384.623C170.535 395.892 176.727 411.041 189.639 414.845C187.276 426.685 193.691 440.282 205.156 447.738C216.621 455.193 232.428 456.046 243.392 449.8C245.302 448.711 247.176 447.397 249.492 447.196C253.263 446.868 256.739 449.511 260.068 451.515C271.541 458.417 286.569 458.651 297.842 453.348C309.115 448.045 316.711 437.794 319.78 426.43C321.043 421.753 321.608 416.857 323.367 412.351C325.184 407.695 328.238 403.563 329.807 398.815C333.242 388.415 328.467 375.588 318.44 368.282C314.556 365.452 310.039 363.424 306.305 360.426C300.912 356.098 297.588 350.121 293.209 344.947C288.831 339.772 282.372 335.023 275.578 335.499C272.431 335.719 269.252 337.035 266.226 335.864C264.102 335.043 262.655 333.197 261.198 331.537C228.689 294.472 176.826 347.979 198.23 358.96Z" fill="#78A015"/>
<path d="M365.061 99.6144C352.863 101.265 340.259 104.331 332.499 113.211C324.739 122.091 324.235 138.447 334.484 147.174C327.51 157.029 327.84 172.062 335.282 183.535C342.723 195.009 356.818 202.217 369.375 200.97C371.563 200.753 373.809 200.313 376.007 201.071C379.585 202.305 381.686 206.135 383.912 209.319C391.586 220.292 405.221 226.615 417.676 226.356C430.131 226.096 441.239 219.821 448.665 210.687C451.722 206.928 454.229 202.684 457.668 199.283C461.222 195.769 465.692 193.237 469.056 189.538C476.424 181.433 477.278 167.772 471.09 157.019C468.693 152.854 465.39 149.165 463.198 144.908C460.032 138.76 459.425 131.948 457.53 125.439C455.635 118.93 451.666 111.965 445.266 109.637C442.301 108.558 438.862 108.469 436.573 106.168C434.967 104.554 434.395 102.277 433.74 100.168C419.115 53.0875 349.973 80.8764 365.061 99.6144Z" fill="#78A015"/>
<path d="M79.3105 80.8844C67.1825 84.4944 54.6375 89.5845 46.8495 99.7215C39.0615 109.858 38.4095 126.32 48.5065 133.415C41.4895 144.403 41.6785 159.404 48.9615 169.702C56.2455 180 70.1745 184.959 82.6555 181.697C84.8295 181.129 87.0645 180.329 89.2405 180.736C92.7815 181.398 94.8325 184.896 97.0135 187.728C104.533 197.487 118.014 201.635 130.384 199.378C142.755 197.122 153.843 189.057 161.301 178.72C164.371 174.465 166.9 169.813 170.347 165.856C173.909 161.766 178.371 158.513 181.746 154.269C189.138 144.971 190.113 131.154 184.067 121.377C181.725 117.59 178.48 114.424 176.342 110.512C173.255 104.863 172.716 98.1385 170.894 91.9245C169.072 85.7095 165.197 79.3705 158.863 78.0645C155.929 77.4605 152.513 77.9205 150.262 75.9845C148.682 74.6245 148.136 72.4375 147.505 70.4305C133.418 25.6245 64.5015 64.5374 79.3105 80.8844Z" fill="#78A015"/>
<path d="M310.681 326.049C310.304 323.255 309.844 320.47 309.289 317.698C303.786 290.246 288.802 264.219 265.843 248.193C254.715 240.425 241.797 234.954 232.414 225.149C243.557 212.464 262.453 211.794 279.507 211.115C292.052 229.502 311.472 243.114 333.073 248.525C354.515 253.896 377.697 251.492 398.287 259.533C398.545 258.142 398.804 256.752 399.062 255.361C381.65 251.048 364.238 246.736 346.826 242.423C336.567 239.882 326.176 237.29 316.907 232.212C307.919 227.288 299.974 219.672 296.703 209.994C322.6 207.557 348.169 201.626 372.476 192.362C380.184 189.424 388.921 184.655 389.62 176.437C361.797 189.225 330.903 195.228 300.316 193.932C304.579 177.691 315.884 164.099 328.133 152.362C354.288 153.307 380.646 148.39 404.683 138.032C406.007 137.462 407.403 136.808 408.157 135.581C384.882 146.294 358.657 150.502 333.198 147.639C345.962 135.973 359.538 124.927 369.177 110.612C368.671 109.766 368.164 108.921 367.658 108.075C352.433 134.318 319.487 145.997 303.344 171.684C299.097 178.441 296.188 185.927 293.742 193.54C291.027 193.331 288.316 193.072 285.612 192.746C273.065 191.236 260.507 188.493 247.915 189.572C238.308 190.396 228.417 193.96 221.684 200.585C215.35 187.369 211.953 172.753 213.107 158.2C213.33 155.393 213.716 152.616 214.221 149.861C225.456 143.719 239.328 141.434 251.285 136.067C266.941 129.041 279.822 116.032 286.694 100.308C290.6 91.3704 292.589 81.7344 294.551 72.1804C293.343 71.9284 292.447 73.2464 291.933 74.3684C285.22 88.9984 279.822 104.989 267.928 115.835C262.727 120.578 256.526 124.079 250.23 127.226C239.332 132.672 227.967 137.176 216.301 140.686C219.291 129.347 223.499 118.217 225.741 106.688C229.122 89.3054 226.621 68.5893 212.181 58.3383C220.219 73.1723 218.222 91.4643 213.272 107.593C211.565 113.156 209.533 118.628 207.484 124.09C197.585 118.273 191.076 107.759 187.503 96.8013C183.802 85.4483 182.823 73.4254 181.209 61.5944C180.953 59.7144 180.634 57.7314 179.416 56.2774C178.198 54.8234 175.76 54.2214 174.405 55.5494C176.456 70.5564 176.61 85.8794 180.36 100.554C180.633 101.623 180.933 102.692 181.253 103.757C158.719 108.958 131.548 102.487 109.596 94.9864L104.414 97.0613C114.452 103.247 124.618 107.117 136.189 109.037C124.307 131.699 106.544 151.251 85.1061 165.225C85.9381 166.088 86.7701 166.953 87.6011 167.817C108.292 150.524 127.326 131.252 144.372 110.357C144.533 110.383 144.694 110.409 144.855 110.436C158.211 112.637 171.914 115.701 185.312 114.291C189.437 122.869 195.375 130.459 203.374 135.266C201.021 141.954 198.945 148.712 197.71 155.694C195.588 167.681 195.984 180.375 199.1 192.163C201.565 201.483 210.995 210.605 203.002 217.638C195.894 223.893 177.063 223.103 168.164 223.996C155.673 225.25 142.977 226.263 131.281 231.211C127.608 232.765 124.13 234.679 120.848 236.886C108.228 232.09 94.8111 229.465 81.3131 228.992C74.7781 209.307 57.9501 193.26 37.8751 187.913C37.3401 188.972 36.3911 189.813 35.2761 190.219C53.0461 195.68 67.3781 210.999 71.8581 229.012C55.6151 229.654 39.5001 233.416 24.7661 240.294C25.0021 241.763 25.2391 243.232 25.4761 244.7C33.3221 241.935 41.3641 239.616 49.5281 238.032C53.1851 245.888 52.8711 255.197 51.9821 263.927C51.1781 271.82 50.0161 279.676 48.4991 287.462C49.5141 287.87 50.5281 288.277 51.5431 288.686C52.6201 283.29 53.6971 277.895 54.7741 272.499C57.1461 260.62 59.5221 248.622 59.2891 236.516C62.8521 236.106 66.4341 235.849 70.0261 235.784C84.1901 235.523 98.5821 238.248 111.096 244.831C103.267 252.437 96.9931 261.817 92.4361 271.769C84.4591 289.186 81.2021 308.365 78.9361 327.387C88.6591 315.747 90.0061 299.001 98.9301 286.738C109.407 272.341 124.906 254.03 142.123 249.487C148.524 247.799 155.409 248.121 162.394 248.863C166.755 255.584 170.873 262.487 173.424 270.057C175.737 276.919 176.692 284.125 177.024 291.382C165.314 297.479 153.75 304.026 143.646 312.513C133.191 321.296 124.298 332.334 119.858 345.247C127.162 334.476 134.583 323.638 144.057 314.716C153.041 306.254 164.134 299.556 176.286 297.653L177.132 294.673C177.153 295.626 177.168 296.578 177.173 297.53C176.877 297.57 176.58 297.607 176.286 297.653L175.957 298.812C176.362 298.561 176.768 298.31 177.174 298.06C177.177 299.225 177.171 300.389 177.156 301.551C176.934 319.272 175.105 336.973 171.701 354.365C172.821 354.41 173.941 354.454 175.06 354.498C178.91 334.703 182.774 314.766 182.842 294.601C182.892 279.538 180.689 264.212 175.087 250.313C181.535 250.932 187.872 251.092 193.795 249.53C197.994 248.423 202.288 247.305 206.619 247.624C212.454 248.056 217.751 251.035 222.828 253.944C243.403 265.737 265.139 278.953 280.075 296.715C264.133 301.766 250.616 313.734 242.166 328.278C232.688 344.592 229.132 363.849 229.415 382.715C230.312 382.886 233.594 384.556 234.491 384.728C236.597 370.714 238.532 355.541 244.823 342.844C259.88 358.032 270.559 377.534 275.161 398.426C275.799 397.979 276.436 397.532 277.074 397.085C272.733 385.337 269.731 373.127 265.377 361.383C261.736 351.561 255.073 344.49 247.682 337.388C248.019 336.779 248.353 336.168 248.701 335.564C253.177 327.763 258.545 320.281 265.752 314.9C272.138 310.133 280.15 307.173 288.038 307.738C291.294 313.098 293.932 318.839 295.785 325.03C302.515 347.526 297.394 371.723 299.28 395.13C299.466 397.436 300.326 400.359 302.635 400.502C309.569 379.33 313.159 356.807 311.567 334.657C316.253 332.032 321.599 330.455 326.949 329.758C335.74 328.612 344.654 329.591 353.465 330.571C364.415 331.79 375.458 333.028 385.923 336.472C386.227 335.765 386.53 335.058 386.834 334.351C363.607 322.41 335.932 319.421 310.681 326.049Z" fill="#93733E"/>
<path d="M20.5522 173.939C12.5732 180.401 4.62818 188.122 1.28318 198.252C-2.06082 208.383 1.21221 221.173 10.1542 223.52C7.56321 234.067 11.1142 245.484 18.7432 251.139C26.3722 256.793 37.6092 256.336 45.9232 250.033C47.3722 248.935 48.8112 247.64 50.4832 247.288C53.2032 246.714 55.4872 248.763 57.7152 250.263C65.3922 255.434 76.1192 254.492 84.5822 248.992C93.0452 243.491 99.2562 233.937 102.316 223.754C103.575 219.563 104.352 215.233 105.953 211.153C107.607 206.938 110.105 203.087 111.588 198.811C114.835 189.443 112.398 178.578 105.786 172.944C103.225 170.762 100.149 169.331 97.7082 166.991C94.1822 163.612 92.2602 158.633 89.5242 154.434C86.7882 150.237 82.5322 146.57 77.6392 147.503C75.3722 147.936 72.9992 149.331 70.9252 148.537C69.4692 147.978 68.5752 146.472 67.6602 145.129C47.2392 115.155 6.08522 165.953 20.5522 173.939Z" fill="#7EBB15"/>
<path d="M101.327 315.601C94.3133 320.569 87.3862 326.575 84.7682 334.763C82.1502 342.951 85.6993 353.615 93.9763 355.933C92.0663 364.496 95.8093 374.041 103.029 379.024C110.249 384.007 120.502 384.119 127.829 379.295C129.106 378.454 130.366 377.453 131.878 377.235C134.34 376.881 136.518 378.667 138.619 379.998C145.862 384.584 155.628 384.276 163.126 380.12C170.624 375.963 175.887 368.375 178.242 360.131C179.211 356.738 179.733 353.21 181.019 349.925C182.348 346.529 184.464 343.471 185.634 340.018C188.196 332.454 185.495 323.41 179.205 318.489C176.768 316.583 173.895 315.271 171.562 313.241C168.191 310.307 166.218 306.128 163.534 302.556C160.85 298.985 156.8 295.785 152.367 296.339C150.313 296.596 148.205 297.641 146.273 296.897C144.918 296.376 144.035 295.097 143.14 293.953C123.17 268.409 87.7543 308.403 101.327 315.601Z" fill="#78A015"/>
<path d="M29.2043 310.857C21.2353 316.502 13.3653 323.326 10.3913 332.628C7.4173 341.93 11.4493 354.045 20.8523 356.68C18.6823 366.409 22.9343 377.253 31.1373 382.914C39.3403 388.575 50.9893 388.702 59.3133 383.222C60.7643 382.268 62.1953 381.129 63.9143 380.882C66.7113 380.48 69.1853 382.509 71.5733 384.021C79.8023 389.232 90.8983 388.882 99.4163 384.16C107.935 379.437 113.914 370.816 116.59 361.45C117.691 357.596 118.284 353.588 119.745 349.854C121.255 345.997 123.659 342.523 124.988 338.599C127.899 330.005 124.831 319.73 117.685 314.138C114.917 311.973 111.652 310.483 109 308.175C105.171 304.843 102.929 300.095 99.8793 296.037C96.8303 291.979 92.2283 288.344 87.1913 288.974C84.8583 289.266 82.4622 290.453 80.2682 289.608C78.7282 289.015 77.7253 287.563 76.7083 286.263C54.0213 257.241 13.7843 302.68 29.2043 310.857Z" fill="#7EBB15"/>
<path d="M167.707 30.5635C160.579 35.6135 153.539 41.7175 150.879 50.0385C148.219 58.3585 151.825 69.1965 160.237 71.5535C158.296 80.2555 162.099 89.9564 169.437 95.0204C176.775 100.083 187.194 100.198 194.641 95.2955C195.938 94.4415 197.219 93.4234 198.756 93.2024C201.259 92.8424 203.471 94.6574 205.607 96.0094C212.968 100.67 222.893 100.358 230.513 96.1335C238.133 91.9085 243.482 84.1965 245.875 75.8195C246.86 72.3725 247.391 68.7864 248.698 65.4474C250.049 61.9974 252.199 58.8884 253.388 55.3794C255.992 47.6914 253.247 38.5004 246.855 33.4994C244.379 31.5614 241.459 30.2285 239.087 28.1655C235.662 25.1845 233.656 20.9365 230.928 17.3085C228.201 13.6785 224.084 10.4255 219.579 10.9905C217.492 11.2515 215.349 12.3124 213.387 11.5564C212.009 11.0264 211.112 9.7275 210.203 8.5645C189.906 -17.3955 153.913 23.2495 167.707 30.5635Z" fill="#7EBB15"/>
<path d="M71.8894 146.877C66.2744 150.856 60.7284 155.664 58.6334 162.218C56.5384 168.773 59.3794 177.31 66.0054 179.166C64.4764 186.021 67.4724 193.663 73.2534 197.652C79.0334 201.64 87.2414 201.73 93.1074 197.869C94.1284 197.196 95.1374 196.394 96.3494 196.22C98.3204 195.937 100.063 197.366 101.745 198.432C107.544 202.104 115.362 201.858 121.365 198.53C127.368 195.202 131.581 189.128 133.467 182.528C134.242 179.811 134.66 176.987 135.69 174.357C136.754 171.639 138.448 169.19 139.384 166.426C141.435 160.369 139.273 153.129 134.238 149.19C132.287 147.664 129.986 146.614 128.118 144.989C125.42 142.64 123.84 139.295 121.691 136.435C119.543 133.576 116.3 131.014 112.751 131.458C111.107 131.663 109.419 132.5 107.873 131.904C106.788 131.486 106.081 130.463 105.365 129.547C89.3754 109.098 61.0234 141.116 71.8894 146.877Z" fill="#94D31A"/>
<path d="M264.579 67.6915C256.47 73.4365 248.46 80.3805 245.434 89.8465C242.408 99.3135 246.511 111.643 256.08 114.325C253.872 124.224 258.199 135.259 266.547 141.02C274.895 146.782 286.749 146.912 295.221 141.334C296.697 140.362 298.154 139.203 299.903 138.952C302.75 138.543 305.267 140.608 307.697 142.147C316.072 147.45 327.363 147.094 336.032 142.288C344.701 137.482 350.786 128.709 353.509 119.178C354.63 115.255 355.233 111.176 356.72 107.377C358.257 103.452 360.703 99.9155 362.056 95.9225C365.018 87.1775 361.896 76.7205 354.624 71.0295C351.807 68.8265 348.484 67.3094 345.786 64.9624C341.89 61.5704 339.608 56.7385 336.504 52.6095C333.401 48.4795 328.718 44.7794 323.593 45.4214C321.218 45.7194 318.78 46.9264 316.548 46.0674C314.981 45.4634 313.96 43.9865 312.925 42.6635C289.833 13.1295 248.887 59.3705 264.579 67.6915Z" fill="#7EBB15"/>
<path d="M347.939 278.453C337.947 285.531 328.078 294.088 324.35 305.751C320.622 317.414 325.677 332.605 337.468 335.909C334.747 348.107 340.078 361.705 350.364 368.804C360.65 375.903 375.256 376.062 385.694 369.19C387.512 367.993 389.307 366.566 391.462 366.256C394.97 365.751 398.071 368.295 401.066 370.192C411.384 376.725 425.296 376.288 435.978 370.366C446.659 364.444 454.157 353.634 457.512 341.89C458.892 337.057 459.636 332.032 461.468 327.351C463.361 322.514 466.376 318.158 468.042 313.238C471.692 302.463 467.845 289.579 458.884 282.568C455.413 279.852 451.32 277.984 447.995 275.091C443.194 270.912 440.383 264.959 436.559 259.871C432.736 254.783 426.966 250.224 420.651 251.015C417.725 251.381 414.722 252.869 411.97 251.809C410.039 251.066 408.782 249.246 407.507 247.615C379.055 211.227 328.603 268.201 347.939 278.453Z" fill="#7EBB15"/>
<path d="M202.809 272.247C195.23 277.796 187.73 284.484 184.821 293.513C181.911 302.541 185.575 314.211 194.412 316.653C192.255 326.084 196.141 336.523 203.812 341.903C211.483 347.284 222.466 347.274 230.378 341.881C231.756 340.942 233.119 339.824 234.743 339.566C237.386 339.145 239.695 341.08 241.93 342.514C249.631 347.459 260.097 346.996 268.184 342.332C276.271 337.668 282.008 329.264 284.637 320.176C285.72 316.437 286.324 312.554 287.744 308.928C289.212 305.181 291.518 301.793 292.816 297.985C295.658 289.641 292.882 279.741 286.207 274.415C283.622 272.352 280.56 270.949 278.086 268.748C274.513 265.569 272.453 261.004 269.624 257.114C266.794 253.225 262.497 249.761 257.74 250.428C255.537 250.738 253.264 251.912 251.205 251.119C249.759 250.563 248.83 249.171 247.886 247.926C226.82 220.119 188.36 264.516 202.809 272.247Z" fill="#7EBB15"/>
<path d="M354.98 87.6845C349.365 91.6625 343.818 96.4704 341.724 103.025C339.629 109.579 342.47 118.116 349.096 119.973C347.567 126.827 350.563 134.47 356.344 138.459C362.125 142.448 370.332 142.536 376.198 138.675C377.22 138.002 378.229 137.2 379.44 137.027C381.411 136.743 383.154 138.173 384.837 139.238C390.635 142.91 398.454 142.664 404.457 139.337C410.459 136.009 414.673 129.934 416.559 123.334C417.334 120.618 417.752 117.794 418.782 115.163C419.846 112.445 421.54 109.997 422.476 107.232C424.527 101.176 422.365 93.9365 417.33 89.9965C415.379 88.4705 413.079 87.4214 411.21 85.7954C408.512 83.4464 406.932 80.1015 404.783 77.2415C402.634 74.3815 399.392 71.8204 395.843 72.2644C394.198 72.4704 392.511 73.3065 390.965 72.7105C389.88 72.2925 389.173 71.2705 388.457 70.3545C372.466 49.9045 344.114 81.9225 354.98 87.6845Z" fill="#94D31A"/>
<path d="M287.475 363.967C280.674 368.633 273.968 374.29 271.499 382.076C269.03 389.862 272.615 400.079 280.73 402.383C278.956 410.534 282.718 419.686 289.83 424.521C296.941 429.355 306.963 429.574 314.073 425.049C315.312 424.261 316.532 423.319 318.008 423.127C320.411 422.815 322.558 424.544 324.627 425.837C331.756 430.294 341.298 430.107 348.582 426.221C355.866 422.334 360.927 415.149 363.139 407.307C364.049 404.078 364.521 400.717 365.743 397.595C367.005 394.369 369.04 391.473 370.145 388.19C372.567 380.999 369.829 372.336 363.628 367.571C361.226 365.725 358.403 364.442 356.1 362.478C352.774 359.642 350.8 355.632 348.138 352.194C345.475 348.756 341.482 345.657 337.155 346.138C335.151 346.362 333.101 347.335 331.205 346.604C329.874 346.091 328.998 344.862 328.111 343.76C308.311 319.162 274.131 356.95 287.475 363.967Z" fill="#94D31A"/>
<path d="M205.797 103.429C198.982 108.256 192.252 114.092 189.709 122.046C187.167 130.001 190.614 140.361 198.655 142.614C196.8 150.933 200.435 160.207 207.45 165.049C214.465 169.89 224.426 169.998 231.545 165.312C232.785 164.496 234.009 163.523 235.479 163.311C237.871 162.967 239.987 164.703 242.028 165.996C249.065 170.452 258.553 170.153 265.838 166.114C273.123 162.076 278.236 154.703 280.524 146.694C281.465 143.397 281.972 139.969 283.222 136.778C284.513 133.479 286.569 130.507 287.705 127.153C290.194 119.803 287.571 111.016 281.459 106.235C279.092 104.383 276.3 103.109 274.033 101.136C270.759 98.2864 268.841 94.2264 266.234 90.7564C263.626 87.2854 259.691 84.1764 255.384 84.7164C253.389 84.9654 251.341 85.9804 249.464 85.2574C248.147 84.7504 247.289 83.5094 246.42 82.3974C227.019 57.5804 192.61 96.4374 205.797 103.429Z" fill="#94D31A"/>
<path d="M341.319 194.765C332.208 201.22 323.208 209.022 319.808 219.659C316.408 230.295 321.018 244.149 331.77 247.162C329.289 258.285 334.15 270.685 343.53 277.158C352.91 283.631 366.229 283.776 375.748 277.509C377.407 276.417 379.044 275.118 381.008 274.835C384.207 274.374 387.035 276.694 389.765 278.423C399.175 284.382 411.861 283.982 421.602 278.581C431.343 273.18 438.18 263.323 441.239 252.614C442.498 248.206 443.176 243.623 444.847 239.355C446.574 234.944 449.323 230.972 450.842 226.486C454.17 216.659 450.662 204.91 442.491 198.517C439.326 196.04 435.593 194.336 432.561 191.699C428.183 187.889 425.619 182.459 422.132 177.819C418.645 173.179 413.384 169.021 407.625 169.743C404.958 170.077 402.218 171.433 399.709 170.467C397.948 169.789 396.801 168.129 395.639 166.643C369.695 133.46 323.687 185.415 341.319 194.765Z" fill="#94D31A"/>
</svg>
