<svg width="86" height="84" viewBox="0 0 86 84" fill="none" xmlns="http://www.w3.org/2000/svg">
<path d="M83.0287 38.5029C84.1652 38.1774 84.9695 36.9955 84.8331 35.8525C84.6963 34.7096 83.6344 33.7384 82.4514 33.6742C84.8702 31.9435 86.1082 28.6708 85.1048 25.9207C84.101 23.1705 80.7387 21.36 77.8843 22.2703C79.0108 20.8646 79.8644 19.011 79.2657 17.327C78.6669 15.6433 76.0173 14.7876 74.9393 16.2289C75.3536 14.3141 74.1556 12.1926 72.2707 11.5027C70.3853 10.8125 67.6092 10.998 66.6192 12.7017C66.994 11.5443 67.2993 10.3115 67.0299 9.127C66.7605 7.94211 65.7556 6.83478 64.5064 6.80361C63.3112 6.77392 62.3265 7.67642 61.5599 8.56703C61.7743 5.9156 61.346 2.93463 59.2409 1.23318C57.3842 -0.267506 54.5756 -0.342096 52.4132 0.703636C50.2509 1.74937 48.6987 3.75212 47.8045 5.93153C48.0166 4.12878 46.1431 2.22101 44.3078 1.8822C42.4721 1.5434 40.4748 2.76058 39.9907 4.51324C37.9379 2.08001 34.2647 1.25803 31.1493 2.11821C28.0339 2.9784 26.2765 6.14789 25.5879 8.96261C24.7144 7.63039 21.9372 5.8076 19.6376 7.01439C18.207 7.76547 17.6048 9.69848 18.3193 11.1175C15.7725 10.1212 12.6526 11.2281 11.037 13.3841C9.42177 15.5405 9.21619 18.5082 10.126 21.0241C8.25785 20.6902 6.22156 21.6828 5.38052 23.3371C4.53948 24.9915 4.96668 27.1649 6.37593 28.4022C5.22729 28.3821 4.12068 29.2063 3.8425 30.2888C3.56432 31.3712 5.19672 33.3915 6.22002 33.8984C3.3832 34.8372 0.204375 36.7465 0.0140812 39.6514C-0.176213 42.5559 1.57885 45.4931 4.27047 46.7737C2.61553 47.2142 1.39887 48.8715 1.50968 50.5347C1.6205 52.1976 4.11686 53.3988 5.81651 53.6281C4.03394 54.9548 2.38396 57.8793 3.45236 59.7975C4.52076 61.716 7.10845 62.6868 9.22728 61.9639C8.60137 62.7803 8.69728 64.039 9.4405 64.7564C10.1837 65.4741 12.8199 65.3 13.6568 64.6873C12.6583 67.5377 12.147 71.1718 14.3622 73.2788C16.5773 75.3855 20.0683 76.1195 22.9819 75.0909C22.5329 76.1165 22.9964 77.4354 23.9972 77.9805C24.998 78.5257 26.3988 78.2217 27.0656 77.3151C27.6074 79.9068 30.0247 82.0183 32.7358 82.2685C35.4469 82.5186 38.2303 80.8865 39.2646 78.4403C40.0667 80.9084 42.1836 82.9342 44.7365 83.6771C47.2891 84.4201 50.2046 83.8582 52.2722 82.2254C55.3926 79.761 56.2126 75.5365 56.8263 71.6761C57.795 73.5601 59.3765 75.4063 61.5301 75.6527C63.6837 75.8991 65.9711 73.5467 64.8798 71.7269C66.6677 73.376 69.4514 74.1449 71.6917 73.1448C73.9321 72.1444 75.1174 69.1285 73.7269 67.151C75.2657 68.3326 77.8316 67.3072 78.4537 65.5004C79.0758 63.6936 78.0536 61.6277 76.4369 60.5489C78.7334 62.1127 82.2832 60.5782 83.2282 58.0136C84.1736 55.4494 83.5347 52.9791 81.4739 51.1314C83.6325 49.699 85.4105 47.5708 85.887 45.0741C86.365 42.5778 85.3107 39.7419 83.0287 38.5029Z" fill="#79AE28"/>
<path d="M54.7418 38.2781C55.083 38.1802 55.3249 37.8254 55.2836 37.4822C55.2427 37.1389 54.9237 36.8472 54.5683 36.8279C55.2947 36.308 55.6665 35.325 55.3654 34.499C55.0639 33.6729 54.054 33.1293 53.1965 33.4024C53.5351 32.9801 53.7915 32.4234 53.6115 31.9176C53.4315 31.4118 52.6359 31.1551 52.3119 31.5878C52.4365 31.0126 52.0765 30.3754 51.5102 30.168C50.9439 29.9605 50.1102 30.0162 49.8129 30.5283C49.9256 30.1806 50.0173 29.8102 49.9363 29.4543C49.8553 29.0985 49.5534 28.766 49.1786 28.7567C48.8194 28.7478 48.5236 29.0187 48.2936 29.2863C48.3581 28.4899 48.2294 27.5945 47.597 27.0835C47.0391 26.6326 46.1958 26.6103 45.5462 26.9243C44.8966 27.2386 44.4304 27.8401 44.1621 28.4947C44.226 27.9533 43.6631 27.3803 43.1117 27.2783C42.5603 27.1766 41.9604 27.5421 41.8152 28.0687C41.1988 27.338 40.0953 27.0909 39.1595 27.3495C38.2237 27.6078 37.696 28.56 37.4889 29.4054C37.2264 29.0053 36.3922 28.4576 35.7017 28.8202C35.2718 29.0458 35.0911 29.6265 35.3058 30.0525C34.5408 29.7531 33.6035 30.0856 33.1186 30.7335C32.6333 31.3811 32.5718 32.2724 32.845 33.0283C32.2837 32.9281 31.6723 33.2261 31.4197 33.723C31.1671 34.2199 31.2955 34.8726 31.7189 35.2445C31.3739 35.2385 31.0414 35.486 30.9577 35.8111C30.8741 36.1362 31.3647 36.7429 31.6719 36.8954C30.8198 37.1775 29.8649 37.7508 29.808 38.6232C29.7506 39.4957 30.278 40.3778 31.0865 40.7626C30.5894 40.8951 30.2241 41.3927 30.2573 41.8922C30.2906 42.3917 31.0403 42.7524 31.5508 42.8214C31.0154 43.22 30.5198 44.0983 30.8408 44.6746C31.1618 45.2509 31.939 45.5426 32.5752 45.3255C32.3872 45.5708 32.4163 45.9489 32.6394 46.1642C32.8626 46.3798 33.6543 46.3274 33.9058 46.1434C33.6058 46.9995 33.4522 48.0912 34.1175 48.7239C34.7827 49.3566 35.8312 49.5771 36.7067 49.2683C36.5718 49.5763 36.7109 49.9727 37.0116 50.1363C37.3123 50.3 37.733 50.2087 37.9333 49.9363C38.0961 50.7148 38.8221 51.349 39.6364 51.424C40.4507 51.4989 41.2867 51.0087 41.5974 50.274C41.8385 51.0154 42.4743 51.6236 43.2409 51.847C44.0074 52.0704 44.8832 51.9016 45.5041 51.411C46.4415 50.6707 46.6879 49.4019 46.8721 48.2423C47.1629 48.8082 47.6383 49.3626 48.2852 49.4368C48.9321 49.511 49.6191 48.8045 49.2913 48.2575C49.8282 48.7529 50.6646 48.9837 51.3375 48.6835C52.0104 48.3829 52.3665 47.4771 51.9489 46.8833C52.4113 47.2381 53.182 46.9301 53.3685 46.3876C53.5553 45.845 53.2485 45.2246 52.7628 44.9002C53.4525 45.37 54.5186 44.9091 54.8029 44.1388C55.0868 43.3684 54.895 42.6266 54.276 42.0714C54.9244 41.6413 55.4582 41.0019 55.6015 40.252C55.7437 39.502 55.4273 38.6503 54.7418 38.2781Z" fill="#9DBB1D"/>
<path d="M63.7573 38.9734C64.2216 38.7982 64.5158 38.2761 64.4172 37.8019C64.3186 37.3276 63.8391 36.9573 63.3412 36.9706C64.2919 36.1635 64.6923 34.7508 64.1726 33.633C63.653 32.5153 62.1795 31.8715 61.0171 32.3498C61.4382 31.7227 61.7286 30.9174 61.4172 30.2327C61.1058 29.5481 59.9652 29.2798 59.5659 29.9203C59.6702 29.1043 59.092 28.2563 58.2778 28.0314C57.4635 27.8065 56.3072 27.9787 55.9541 28.7261C56.559 28.45 57.3114 28.5495 57.7607 29.0297C58.0882 29.38 58.1425 29.9095 58.021 30.3678C57.8991 30.8257 57.627 31.2302 57.3588 31.6254C57.7111 31.4963 58.071 31.366 58.4474 31.3557C58.8234 31.3453 59.2254 31.4774 59.4382 31.7787C59.6033 32.0121 59.6339 32.3116 59.6163 32.5944C59.5578 33.5425 58.998 34.399 58.1539 34.8791C59.3484 34.3299 59.4887 34.4724 60.1409 34.3366C60.6492 34.2309 61.2411 34.2398 61.6132 34.5919C61.9052 34.868 61.9915 35.297 61.9549 35.6907C61.8524 36.7858 60.81 37.721 59.6778 37.7332C60.3706 38.1058 61.1581 38.3318 61.7584 38.8331C62.3591 39.3345 62.7038 40.2648 62.2212 40.8749C61.7646 41.4519 60.8765 41.4256 60.1318 41.3439C60.5513 41.6412 60.9591 42.0687 61.2258 42.5017C61.7088 43.2851 61.0962 44.3561 60.2349 44.7212C59.3733 45.0864 58.3851 44.9524 57.4566 44.8118C58.4883 45.5046 59.6465 46.4605 59.4665 47.6658C59.4333 47.8892 59.3263 48.1319 59.1069 48.2072C58.9766 48.2518 58.8337 48.2276 58.6981 48.2031C58.2548 48.123 57.8116 48.0425 57.3683 47.9623C57.9893 48.6793 58.6041 49.7101 58.055 50.4801C57.7715 50.8776 57.2392 51.0546 56.742 51.029C56.2449 51.003 55.7753 50.8037 55.3358 50.5766C54.2613 50.0222 53.2881 49.2834 52.4746 48.405C52.8666 48.9728 53.2644 49.5591 53.4165 50.2267C53.5686 50.8943 53.423 51.6706 52.8777 52.1029C52.3324 52.5352 51.3637 52.4299 51.076 51.8061C51.1891 52.579 51.196 53.3665 51.0963 54.1413C51.0512 54.492 50.9759 54.8579 50.7398 55.1262C50.4161 55.494 49.8479 55.5897 49.3672 55.4639C48.8865 55.3377 48.4799 55.026 48.1261 54.6857C47.6255 54.204 46.9908 53.7584 46.6591 53.1542C46.8544 53.876 46.8735 54.6783 46.5082 55.3348C46.1429 55.9912 45.3206 56.4384 44.5858 56.2209C43.6901 55.956 43.329 54.9381 43.0967 54.0575C42.8449 54.4594 42.5927 54.8616 42.3409 55.2635C42.2556 55.3993 42.1555 55.5466 41.9969 55.5856C41.8334 55.6261 41.666 55.5359 41.5357 55.4316C40.8009 54.8438 40.6557 53.8244 40.5625 52.9041C40.4788 54.0845 39.3435 55.1013 38.1253 55.0872C36.9072 55.0731 35.7971 54.0304 35.7425 52.8484C35.4448 53.8786 35.4066 55.1926 36.2553 55.8751C37.2591 56.6822 38.7474 56.8707 39.9308 56.3408C39.7799 56.7853 40.0214 57.3223 40.4605 57.5164C40.8991 57.7105 41.475 57.5357 41.7214 57.1334C42.042 58.2003 43.1307 59.0026 44.2747 59.0149C45.4192 59.0275 46.5258 58.2489 46.8708 57.1895C47.2957 58.1959 48.2556 58.9722 49.3515 59.1963C50.4474 59.4205 51.648 59.0861 52.4551 58.332C53.6729 57.1939 53.8639 55.3963 53.9816 53.7591C54.4554 54.515 55.1841 55.2346 56.0951 55.2646C57.0061 55.2947 57.8788 54.2315 57.3565 53.5064C58.165 54.1361 59.3584 54.3636 60.2606 53.8682C61.1627 53.3728 61.5502 52.0695 60.8964 51.2888C61.5834 51.7315 62.6213 51.2145 62.8165 50.4367C63.0118 49.6589 62.5093 48.8284 61.7932 48.4317C62.8116 49.0084 64.243 48.2451 64.546 47.1389C64.8494 46.0326 63.8081 44.4711 62.8784 43.7675C64.2659 43.6547 65.0828 42.691 65.1925 41.6293C65.3014 40.5665 64.7577 39.4146 63.7573 38.9734Z" fill="#699415"/>
<path d="M53.238 19.6095C52.3007 19.067 50.9541 19.3468 50.3274 20.214C50.1857 19.4295 49.5697 18.3504 48.9969 17.7808C48.4237 17.2112 47.5758 16.8724 46.7692 17.016C45.8032 17.1882 45.0336 18.0936 45.0428 19.0477C44.7459 18.4354 44.3676 17.7567 43.6924 17.5886C43.1291 17.4483 42.5231 17.7355 42.1513 18.1701C41.7795 18.6046 41.6454 19.3078 41.5086 19.8567C41.3038 18.956 40.1555 17.4164 38.6454 17.6316C37.7058 17.7656 36.9675 19.4826 37.0673 20.3999C35.8754 19.3583 33.945 18.5861 32.6145 19.4552C31.2839 20.3242 30.5594 21.9125 30.5403 23.4696C29.5839 22.9234 28.2622 23.0722 27.4601 23.8166C26.6581 24.5606 26.4444 25.836 26.9626 26.789C26.3367 26.5548 25.5595 26.792 25.1838 27.3315C24.8082 27.8711 25.2874 29.2972 25.7448 29.7741C23.9951 29.7377 21.8571 30.1678 21.1544 31.7245C20.4513 33.2812 20.8094 35.2335 22.0222 36.4592C21.0234 36.3794 20.0142 37.0522 19.7326 37.9863C19.4506 38.9203 20.5729 40.0644 21.4582 40.5204C20.2068 40.9016 18.699 42.1859 18.89 43.4461C19.0807 44.7063 20.3004 45.7417 21.6122 45.7569C21.1006 46.0831 20.8938 46.7922 21.1541 47.3307C21.4139 47.8688 22.8961 48.2859 23.4815 48.1122C22.3463 49.4823 21.3168 51.3767 22.0983 52.9631C22.8793 54.5495 24.6435 55.6305 26.4544 55.6324C25.9966 56.1077 25.9794 56.9215 26.4162 57.4151C26.8529 57.9086 27.684 58.0144 28.2369 57.6463C28.0004 59.1737 29.1254 59.7756 30.449 59.6149C29.2358 57.8823 29.0188 57.0659 29.9465 55.1744C29.2266 55.7808 27.9794 55.449 27.5041 54.6467C27.0287 53.8444 27.2362 52.7805 27.8155 52.0457C27 52.5256 25.8556 52.2157 25.2576 51.4947C24.6596 50.7737 24.5514 49.7528 24.7842 48.8551C25.0169 47.9571 25.5503 47.1611 26.1338 46.4286C25.258 46.4594 24.3512 46.4356 23.5537 46.0831C22.7563 45.7305 22.091 44.9743 22.1082 44.1234C22.1177 43.6584 22.3252 43.216 22.5965 42.8327C23.0856 42.1417 23.7968 41.6018 24.6053 41.3072C24.0291 40.9431 23.6367 40.3319 23.1781 39.8347C22.8885 39.52 22.6107 39.134 22.6615 38.7147C22.7081 38.331 23.0306 38.0215 23.3963 37.8694C23.762 37.7172 24.1689 37.6938 24.566 37.6727C23.7838 37.138 23.284 36.2963 22.9133 35.4399C22.6233 34.7708 22.4158 33.9433 22.8675 33.3651C23.0738 33.1009 23.3875 32.9372 23.7035 32.8118C25.0581 32.2744 26.7039 32.5862 28.0214 33.204C27.0287 32.0789 26.8716 31.1905 27.3986 30.5741C27.9259 29.9577 28.9118 29.8735 29.6737 30.1811C29.269 29.7069 28.8579 29.2226 28.6221 28.6508C28.3864 28.0789 28.3508 27.3946 28.6848 26.871C29.0898 26.2353 29.9469 25.986 30.7112 26.0739C31.4754 26.1619 32.1731 26.5244 32.8499 26.8803C32.7085 26.0242 32.4559 24.9428 32.9397 24.214C33.3997 23.5208 34.3229 23.2143 35.1682 23.2926C36.0134 23.3709 36.8219 23.5215 37.517 23.9958C37.026 23.5316 37.2958 22.5538 37.7975 22.101C38.2996 21.6479 39.0925 21.5885 39.7249 21.8453C40.3573 22.1018 40.841 22.6272 41.1739 23.2087C41.3305 22.5152 41.4964 21.8012 41.9194 21.2219C42.342 20.6426 43.0925 20.2281 43.8013 20.4025C44.2155 20.5042 44.5563 20.7874 44.8502 21.0883C45.5227 21.7774 46.0374 22.6109 46.3462 23.5115C46.4291 22.6506 46.6683 21.5978 47.5277 21.3715C48.0531 21.233 48.6209 21.4969 48.9813 21.8932C49.342 22.2895 49.5376 22.7979 49.726 23.2941C50.0909 22.3192 50.9747 21.4936 52.0347 21.3666C53.0947 21.2397 54.1624 21.4865 54.324 22.5118C54.8104 21.5629 54.1754 20.1521 53.238 19.6095Z" fill="#B6CC36"/>
<path d="M24.8984 63.9312C24.9523 63.8581 25.002 63.7816 25.0425 63.6974C24.9833 63.7709 24.9374 63.8499 24.8984 63.9312Z" fill="#699415"/>
<path d="M77.8809 44.2918C76.4472 47.0278 73.2294 48.5292 70.1128 48.0141C71.0918 49.0855 72.1044 50.2184 72.4422 51.613C72.78 53.0072 72.1812 54.7279 70.78 55.1755C69.2787 55.6545 67.7238 54.8448 66.2007 54.4351C66.8885 55.2044 67.4143 56.1533 67.4686 57.1708C67.5228 58.188 67.0318 59.2667 66.106 59.7454C65.1801 60.2241 63.8515 59.925 63.3895 59.0107C63.7025 60.3036 63.9183 61.9015 62.8622 62.7453C62.2313 63.2493 61.3119 63.2904 60.5336 63.0496C59.7552 62.8088 59.0846 62.3267 58.4296 61.8525C58.0689 61.5912 57.6795 61.2851 57.6153 60.8528C57.7166 61.4023 57.8179 61.9645 57.7242 62.5152C57.6306 63.0659 57.3028 63.6122 56.7705 63.8222C56.1293 64.0749 55.3983 63.7836 54.8251 63.4073C53.6356 62.6266 52.4132 61.4754 51.9711 60.1488C52.2512 62.2651 51.8462 64.4623 50.8278 66.353C50.3188 67.2982 49.5443 68.2397 48.4591 68.4018C47.5768 68.5336 46.6345 68.0512 46.247 67.2704C46.1622 68.0938 46.0433 68.9407 45.6119 69.6543C45.1805 70.3679 44.3597 70.9212 43.5153 70.8102C42.9528 70.7364 42.4702 70.3898 42.0518 70.0176C40.7606 68.8687 39.8187 67.3535 39.3727 65.7088C39.1886 66.6195 38.996 67.5517 38.4996 68.3443C38.0032 69.1373 37.132 69.7756 36.1767 69.7448C35.0166 69.7077 34.0396 68.538 34.2409 67.4281C33.7939 68.3228 32.988 69.3812 32.0128 69.0776C31.5249 68.9258 31.2165 68.4646 30.9933 68.0167C30.2734 66.5709 30.0235 64.9088 30.2879 63.3235C29.7908 64.1302 29.2765 64.9555 28.5165 65.5378C27.7564 66.1204 26.6854 66.4161 25.8019 66.0317C25.006 65.6855 24.5455 64.6698 24.8986 63.931C24.265 64.793 22.7847 64.8999 21.8955 64.2278C20.9307 63.4986 20.6258 62.1701 20.8279 60.9993C21.03 59.8285 21.6533 58.7728 22.2654 57.7452C21.0728 58.4555 19.7633 59.1929 18.3724 59.0467C16.9815 58.9001 15.706 57.3779 16.3904 56.193C15.1306 57.0101 14.8161 59.214 15.8906 60.2512C16.4932 60.8331 18.6311 60.6921 19.3094 60.1952C18.4997 62.5067 18.0851 65.4535 19.8814 67.162C21.6777 68.8705 24.5084 69.4654 26.8711 68.6312C26.5069 69.4628 26.8829 70.5323 27.6945 70.9746C28.5061 71.4166 29.6418 71.1702 30.1829 70.435C30.6223 72.5365 32.5826 74.2487 34.7809 74.4517C36.9792 74.6543 39.236 73.331 40.0751 71.3476C40.7254 73.3489 42.4423 74.9917 44.5122 75.5939C46.5821 76.1962 48.9463 75.7409 50.6226 74.4168C53.153 72.4185 53.8179 68.9926 54.3154 65.8625C55.101 67.3903 56.3834 68.8872 58.1297 69.0869C59.8759 69.2865 61.7307 67.3791 60.8461 65.9033C62.2963 67.2403 64.5534 67.8641 66.37 67.0529C68.1866 66.2417 69.148 63.7962 68.0204 62.1928C69.268 63.1509 71.3486 62.3193 71.853 60.8542C72.3574 59.3892 71.5286 57.7141 70.2175 56.839C72.0796 58.1071 74.958 56.8628 75.7246 54.7832C76.4911 52.7036 75.9729 50.7008 74.302 49.2024C76.0524 48.042 77.4945 46.3161 77.8809 44.2918Z" fill="#699415"/>
<path d="M55.8294 16.2159C55.7843 16.3257 55.7507 16.4393 55.7407 16.558C55.7736 16.4452 55.8011 16.3302 55.8294 16.2159Z" fill="#9DBB1D"/>
<path d="M79.5384 27.9321C78.6691 25.5504 75.7574 23.9822 73.2851 24.7707C74.2606 23.5532 75 21.9478 74.4815 20.4898C73.963 19.0314 71.6684 18.2904 70.7345 19.5387C71.0933 17.8803 70.0558 16.0431 68.423 15.4452C66.7903 14.8474 64.386 15.0081 63.5285 16.4839C63.8533 15.4816 64.1177 14.414 63.8843 13.3879C63.6512 12.3618 62.7807 11.4026 61.699 11.3759C60.6638 11.3503 59.8109 12.1314 59.1472 12.9033C59.3329 10.607 58.9619 8.0253 57.1388 6.55133C55.5308 5.2514 53.0987 5.18682 51.2255 6.09265C49.3528 6.99848 48.0085 8.73297 47.2343 10.6207C47.4181 9.05916 45.7953 7.40707 44.2057 7.11354C42.6161 6.82 40.8859 7.87428 40.4671 9.39203C38.6895 7.28461 35.508 6.57284 32.8098 7.31799C30.1117 8.06314 28.5898 10.8081 27.9933 13.2458C27.2367 12.0921 24.8317 10.5135 22.8401 11.5584C21.6009 12.209 21.0797 13.8833 21.6983 15.112C19.4927 14.2488 16.7904 15.2077 15.3915 17.0751C13.9926 18.9424 13.8145 21.5129 14.6024 23.6916C12.9842 23.4025 11.2207 24.262 10.4928 25.6947C9.76444 27.1275 10.1343 29.0097 11.3548 30.081C10.3602 30.0636 9.40143 30.7776 9.16032 31.7149C8.9192 32.6523 10.3334 34.4024 11.2195 34.841C8.76254 35.6541 6.00939 37.308 5.8447 39.8236C5.68001 42.3393 7.20006 44.8827 9.53097 45.9919C8.09765 46.3734 7.04378 47.8087 7.13969 49.2489C7.2356 50.6891 9.39761 51.7293 10.8695 51.9282C10.8695 51.9282 7.54091 49.8598 10.189 47.6098C12.8367 45.3599 14.8225 45.0382 14.8225 45.0382C14.8225 45.0382 9.19585 44.7168 9.52677 39.8952C9.85768 35.0737 15.4843 36.3595 15.4843 36.3595C15.4843 36.3595 11.1817 34.1096 11.8435 32.5024C12.5054 30.8952 15.8152 30.5738 15.8152 30.5738C15.8152 30.5738 12.5054 28.6453 13.1676 27.0381C13.8294 25.4309 17.8015 26.0736 17.8015 26.0736C17.5692 25.4231 17.2917 24.2683 17.0594 23.6178C16.7453 22.7379 16.4748 21.6413 17.1439 20.9745C17.5913 20.5284 18.3292 20.4653 18.9394 20.6561C19.5497 20.8468 20.0632 21.2469 20.5611 21.6387C20.4985 20.8446 20.4366 20.0356 20.6257 19.2608C20.8149 18.486 21.2982 17.7363 22.0502 17.4187C22.8194 17.0936 23.7419 17.2795 24.4438 17.7248C25.1457 18.1705 25.6612 18.8429 26.103 19.5354C26.3594 18.6663 26.5103 17.4276 27.1511 16.7715C27.5485 16.3648 28.2172 16.3088 28.7644 16.4873C29.3116 16.6658 29.7667 17.0357 30.2073 17.3979C30.4079 15.3317 30.0941 12.8728 31.7415 11.5499C32.7865 10.7109 34.3631 10.6886 35.576 11.2775C36.7888 11.8665 37.6669 12.9719 38.2309 14.1694C38.2145 13.4948 38.4036 12.8061 38.6784 12.1863C38.9531 11.5666 39.5989 11.0478 40.2882 11.1317C40.6772 11.1792 41.0185 11.4059 41.3108 11.6598C42.1105 12.3544 42.6661 13.3092 42.8668 14.3327C43.0804 13.2206 44.2836 12.3811 45.4372 12.5392C46.5909 12.6973 47.5075 13.8277 47.3956 14.9536C48.0987 13.8867 48.9176 12.8918 49.8339 11.9904C50.5335 11.302 51.3501 10.64 52.336 10.502C53.7311 10.3064 55.1044 11.2794 55.6692 12.5337C56.1854 13.6807 56.1334 14.9925 55.8293 16.2164C56.2271 15.2515 57.8644 14.6704 58.7631 15.2475C59.7639 15.8902 59.9993 17.3085 59.5293 18.3806C60.1411 17.4977 61.6114 17.3482 62.3982 18.0889C63.1854 18.8296 63.0776 20.2612 62.1881 20.8832C64.0876 19.9224 66.6703 19.0534 68.1372 20.5685C69.4769 21.9523 68.7341 24.1885 67.9206 25.9159C68.7119 25.1756 70.1433 25.2372 70.864 26.0425C71.585 26.8473 71.449 28.2326 70.5843 28.891C72.1086 28.3072 74.0734 28.2753 75.1536 29.4717C75.9362 30.3378 76.0317 31.6363 75.6959 32.7414C75.36 33.8465 74.6561 34.8058 73.9641 35.7416C75.8151 35.2403 78.313 37.0482 77.7402 38.8295C78.7245 38.5474 79.4211 37.524 79.3026 36.5339C79.1842 35.5439 78.2644 34.7029 77.24 34.6473C79.3355 33.1485 80.4077 30.3137 79.5384 27.9321Z" fill="#9DBB1D"/>
</svg>
