<svg width="480" height="444" viewBox="0 0 480 444" fill="none" xmlns="http://www.w3.org/2000/svg">
<path d="M138.956 54.499L230.781 240.137L246.16 228.737L138.956 54.499Z" fill="#93733E"/>
<path d="M125.331 392.821L230.781 240.137L246.16 250.022L125.331 392.821Z" fill="#93733E"/>
<path d="M235.175 228.737L432.848 153.359L246.16 250.022L230.781 240.137L235.175 228.737Z" fill="#93733E"/>
<path d="M317.265 208.282L413.805 296.157L331.814 201.691L317.265 208.282Z" fill="#93733E"/>
<path d="M351.879 184.235C352.277 184.083 356.236 86.354 356.236 86.354L366.134 184.235H351.879Z" fill="#93733E"/>
<path d="M203.28 159.046L230.781 29.234L214.631 177.494L203.28 159.046Z" fill="#93733E"/>
<path d="M172.843 123.008L74.8022 112.717L178.921 135.295L172.843 123.008Z" fill="#93733E"/>
<path d="M174.167 322.11L38.5532 296.157L185.745 305.346L174.167 322.11Z" fill="#93733E"/>
<path d="M317.265 409.298L203.28 291.764L207.714 273.536L317.265 409.298Z" fill="#93733E"/>
<path d="M352.261 240.137C354.093 241.804 331.815 336.8 331.815 336.8L363.122 250.023L352.261 240.137Z" fill="#93733E"/>
<path d="M390.581 175.244L452.667 220.914L401.053 169.822L390.581 175.244Z" fill="#93733E"/>
<path d="M359.006 131.391L410.377 96.24L361.957 142.934L359.006 131.391Z" fill="#93733E"/>
<path d="M120.856 301.295L74.8022 213.774L138.956 309.134L120.856 301.295Z" fill="#93733E"/>
<path d="M96.4383 307.235L91.2783 377.442L105.009 307.235H96.4383Z" fill="#93733E"/>
<path d="M105.009 177.494L158.833 128.095L147.849 124.006L105.009 177.494Z" fill="#93733E"/>
<path d="M222.706 103.364C222.715 103.279 297.787 86.354 297.787 86.354L222.706 90.199V103.364Z" fill="#93733E"/>
<path d="M230.781 316.479C233.884 316.353 319.755 316.479 319.755 316.479L238.258 327.137L230.781 316.479Z" fill="#93733E"/>
<path d="M378.019 254.926C378.455 255.429 437.839 240.137 437.839 240.137L383.685 261.454L378.019 254.926Z" fill="#93733E"/>
<path d="M386.167 119.587C388.596 117.244 437.838 124.006 437.838 124.006L393.291 112.717L386.167 119.587Z" fill="#93733E"/>
<path d="M221.138 74.756L175.31 29.234L222.706 64.9351L221.138 74.756Z" fill="#93733E"/>
<path d="M119.838 195.368C119.289 195.649 104.132 257.373 104.132 257.373L112.148 273.536L119.838 195.368Z" fill="#93733E"/>
<path d="M162.663 348.701L199.008 404.354L168.046 342.339L162.663 348.701Z" fill="#93733E"/>
<path d="M323.825 422.287C335.361 422.287 344.712 412.936 344.712 401.4C344.712 389.864 335.361 380.513 323.825 380.513C312.289 380.513 302.938 389.864 302.938 401.4C302.938 412.936 312.289 422.287 323.825 422.287Z" fill="#78A015"/>
<path d="M331.814 359.223C343.35 359.223 352.701 349.872 352.701 338.336C352.701 326.8 343.35 317.449 331.814 317.449C320.279 317.449 310.927 326.8 310.927 338.336C310.927 349.872 320.279 359.223 331.814 359.223Z" fill="#78A015"/>
<path d="M416.774 348.024C428.31 348.024 437.661 338.673 437.661 327.137C437.661 315.601 428.31 306.25 416.774 306.25C405.239 306.25 395.887 315.601 395.887 327.137C395.887 338.673 405.239 348.024 416.774 348.024Z" fill="#78A015"/>
<path d="M437.661 294.423C449.197 294.423 458.548 285.072 458.548 273.536C458.548 262 449.197 252.649 437.661 252.649C426.125 252.649 416.774 262 416.774 273.536C416.774 285.072 426.125 294.423 437.661 294.423Z" fill="#78A015"/>
<path d="M458.383 227.69C469.919 227.69 479.27 218.339 479.27 206.803C479.27 195.267 469.919 185.916 458.383 185.916C446.848 185.916 437.496 195.267 437.496 206.803C437.496 218.339 446.848 227.69 458.383 227.69Z" fill="#78A015"/>
<path d="M447.603 175.301C455.76 167.144 455.76 153.919 447.603 145.763C439.446 137.606 426.221 137.606 418.065 145.763C409.908 153.919 409.908 167.144 418.065 175.301C426.221 183.458 439.446 183.458 447.603 175.301Z" fill="#78A015"/>
<path d="M436.984 128.327C447.664 123.968 452.789 111.775 448.43 101.094C444.07 90.4136 431.878 85.289 421.197 89.6483C410.516 94.0076 405.392 106.2 409.751 116.881C414.11 127.562 426.303 132.686 436.984 128.327Z" fill="#78A015"/>
<path d="M284.876 309.356C296.412 309.356 305.763 300.005 305.763 288.469C305.763 276.933 296.412 267.582 284.876 267.582C273.341 267.582 263.989 276.933 263.989 288.469C263.989 300.005 273.341 309.356 284.876 309.356Z" fill="#78A015"/>
<path d="M243.093 385.298C245.767 374.076 238.837 362.811 227.615 360.137C216.394 357.463 205.129 364.393 202.455 375.614C199.781 386.836 206.71 398.101 217.932 400.775C229.154 403.449 240.419 396.52 243.093 385.298Z" fill="#78A015"/>
<path d="M152.808 390.418C152.808 401.954 143.457 411.305 131.921 411.305C120.386 411.305 111.034 401.954 111.034 390.418C111.034 378.883 120.386 369.532 131.921 369.532C143.456 369.532 152.808 378.883 152.808 390.418Z" fill="#78A015"/>
<path d="M281.133 422.287C281.133 433.822 271.782 443.174 260.246 443.174C248.711 443.174 239.36 433.822 239.36 422.287C239.36 410.752 248.711 401.4 260.246 401.4C271.782 401.4 281.133 410.752 281.133 422.287Z" fill="#78A015"/>
<path d="M103.675 372.142C105.51 360.753 97.7655 350.032 86.3765 348.197C74.9874 346.361 64.2668 354.106 62.4315 365.495C60.5962 376.884 68.3411 387.605 79.7302 389.44C91.1193 391.276 101.84 383.531 103.675 372.142Z" fill="#78A015"/>
<path d="M62.7593 304.088C62.7593 315.623 53.4083 324.975 41.8733 324.975C30.3373 324.975 20.9863 315.623 20.9863 304.088C20.9863 292.553 30.3373 283.201 41.8733 283.201C53.4083 283.201 62.7593 292.553 62.7593 304.088Z" fill="#78A015"/>
<path d="M70.1111 171.637C81.6467 171.637 90.9981 162.286 90.9981 150.75C90.9981 139.214 81.6467 129.863 70.1111 129.863C58.5755 129.863 49.2241 139.214 49.2241 150.75C49.2241 162.286 58.5755 171.637 70.1111 171.637Z" fill="#7EBB15"/>
<path d="M126.861 222.578C138.397 222.578 147.748 213.227 147.748 201.691C147.748 190.155 138.397 180.804 126.861 180.804C115.326 180.804 105.974 190.155 105.974 201.691C105.974 213.227 115.326 222.578 126.861 222.578Z" fill="#7EBB15"/>
<path d="M83.646 222.578C83.646 234.113 74.295 243.465 62.759 243.465C51.224 243.465 41.873 234.113 41.873 222.578C41.873 211.042 51.224 201.691 62.759 201.691C74.295 201.691 83.646 211.042 83.646 222.578Z" fill="#7EBB15"/>
<path d="M385.917 371.15C388.591 359.929 381.661 348.664 370.44 345.99C359.218 343.316 347.953 350.245 345.279 361.467C342.605 372.689 349.535 383.954 360.756 386.628C371.978 389.302 383.243 382.372 385.917 371.15Z" fill="#7EBB15"/>
<path d="M432.848 264.352C444.384 264.352 453.735 255.001 453.735 243.465C453.735 231.929 444.384 222.578 432.848 222.578C421.312 222.578 411.961 231.929 411.961 243.465C411.961 255.001 421.312 264.352 432.848 264.352Z" fill="#7EBB15"/>
<path d="M384.692 222.578C396.228 222.578 405.579 213.227 405.579 201.691C405.579 190.155 396.228 180.804 384.692 180.804C373.157 180.804 363.805 190.155 363.805 201.691C363.805 213.227 373.157 222.578 384.692 222.578Z" fill="#7EBB15"/>
<path d="M415.538 74.756C415.538 86.291 406.187 95.642 394.651 95.642C383.116 95.642 373.765 86.291 373.765 74.756C373.765 63.22 383.116 53.869 394.651 53.869C406.187 53.869 415.538 63.22 415.538 74.756Z" fill="#7EBB15"/>
<path d="M323.16 39.231C323.16 50.767 313.809 60.118 302.274 60.118C290.738 60.118 281.387 50.768 281.387 39.231C281.387 27.696 290.738 18.344 302.274 18.344C313.809 18.345 323.16 27.696 323.16 39.231Z" fill="#7EBB15"/>
<path d="M337.05 142.934C337.05 154.469 327.699 163.821 316.164 163.821C304.628 163.821 295.277 154.469 295.277 142.934C295.277 131.398 304.628 122.047 316.164 122.047C327.699 122.047 337.05 131.397 337.05 142.934Z" fill="#7EBB15"/>
<path d="M246.16 156.182C257.696 156.182 267.047 146.831 267.047 135.295C267.047 123.759 257.696 114.408 246.16 114.408C234.624 114.408 225.273 123.759 225.273 135.295C225.273 146.831 234.624 156.182 246.16 156.182Z" fill="#7EBB15"/>
<path d="M192.558 261.024C204.093 261.024 213.445 251.673 213.445 240.137C213.445 228.601 204.093 219.25 192.558 219.25C181.022 219.25 171.671 228.601 171.671 240.137C171.671 251.673 181.022 261.024 192.558 261.024Z" fill="#7EBB15"/>
<path d="M104.184 106.786C106.077 95.4073 98.387 84.6485 87.0083 82.7555C75.6296 80.8625 64.8708 88.5522 62.9778 99.9309C61.0849 111.31 68.7745 122.068 80.1532 123.961C91.5319 125.854 102.291 118.165 104.184 106.786Z" fill="#7EBB15"/>
<path d="M167.951 71.8112C170.73 60.6159 163.907 49.2876 152.712 46.5087C141.516 43.7297 130.188 50.5526 127.409 61.7478C124.63 72.9431 131.453 84.2714 142.648 87.0503C153.844 89.8293 165.172 83.0065 167.951 71.8112Z" fill="#7EBB15"/>
<path d="M140.725 78.486C140.725 90.021 131.374 99.373 119.839 99.373C108.303 99.373 98.9521 90.021 98.9521 78.486C98.9521 66.95 108.303 57.599 119.839 57.599C131.373 57.6 140.725 66.95 140.725 78.486Z" fill="#94D31A"/>
<path d="M104.533 192.524C116.069 192.524 125.42 183.173 125.42 171.637C125.42 160.101 116.069 150.75 104.533 150.75C92.9974 150.75 83.646 160.101 83.646 171.637C83.646 183.173 92.9974 192.524 104.533 192.524Z" fill="#94D31A"/>
<path d="M62.7593 128.111C62.7593 139.646 53.4083 148.998 41.8733 148.998C30.3373 148.998 20.9863 139.646 20.9863 128.111C20.9863 116.576 30.3373 107.224 41.8733 107.224C53.4083 107.225 62.7593 116.576 62.7593 128.111Z" fill="#94D31A"/>
<path d="M20.9861 264.352C32.5217 264.352 41.8731 255.001 41.8731 243.465C41.8731 231.929 32.5217 222.578 20.9861 222.578C9.45054 222.578 0.0991211 231.929 0.0991211 243.465C0.0991211 255.001 9.45054 264.352 20.9861 264.352Z" fill="#94D31A"/>
<path d="M70.1109 198.136C70.1109 209.671 60.7589 219.022 49.2239 219.022C37.6879 219.022 28.3369 209.671 28.3369 198.136C28.3369 186.6 37.6879 177.249 49.2239 177.249C60.7589 177.249 70.1109 186.6 70.1109 198.136Z" fill="#94D31A"/>
<path d="M145.754 243.465C157.29 243.465 166.641 234.114 166.641 222.578C166.641 211.042 157.29 201.691 145.754 201.691C134.219 201.691 124.867 211.042 124.867 222.578C124.867 234.114 134.219 243.465 145.754 243.465Z" fill="#94D31A"/>
<path d="M210.348 160.539C221.884 160.539 231.235 151.188 231.235 139.652C231.235 128.116 221.884 118.765 210.348 118.765C198.812 118.765 189.461 128.116 189.461 139.652C189.461 151.188 198.812 160.539 210.348 160.539Z" fill="#94D31A"/>
<path d="M284.455 64.3942C286.813 53.102 279.57 42.0365 268.278 39.6786C256.986 37.3207 245.92 44.5634 243.562 55.8556C241.204 67.1478 248.447 78.2133 259.739 80.5712C271.032 82.9291 282.097 75.6864 284.455 64.3942Z" fill="#94D31A"/>
<path d="M180.835 46.321C192.371 46.321 201.722 36.9695 201.722 25.434C201.722 13.8984 192.371 4.547 180.835 4.547C169.3 4.547 159.948 13.8984 159.948 25.434C159.948 36.9695 169.3 46.321 180.835 46.321Z" fill="#94D31A"/>
<path d="M242.311 375.979C253.847 375.979 263.198 366.628 263.198 355.092C263.198 343.556 253.847 334.205 242.311 334.205C230.776 334.205 221.424 343.556 221.424 355.092C221.424 366.628 230.776 375.979 242.311 375.979Z" fill="#94D31A"/>
<path d="M166.641 338.336C178.176 338.336 187.528 328.985 187.528 317.449C187.528 305.913 178.176 296.562 166.641 296.562C155.105 296.562 145.754 305.913 145.754 317.449C145.754 328.985 155.105 338.336 166.641 338.336Z" fill="#94D31A"/>
<path d="M82.983 278.182C82.983 289.718 73.6319 299.069 62.0959 299.069C50.5609 299.069 41.21 289.719 41.21 278.182C41.21 266.647 50.5609 257.295 62.0959 257.295C73.6319 257.295 82.983 266.646 82.983 278.182Z" fill="#94D31A"/>
<path d="M365.67 86.9393C373.827 78.7825 373.827 65.5578 365.67 57.401C357.514 49.2441 344.289 49.2442 336.132 57.401C327.975 65.5578 327.975 78.7825 336.132 86.9393C344.289 95.0961 357.514 95.0961 365.67 86.9393Z" fill="#94D31A"/>
<path d="M104.186 75.5989C106.079 64.2202 98.3889 53.4613 87.0103 51.5684C75.6316 49.6754 64.8728 57.3651 62.9798 68.7437C61.0868 80.1224 68.7765 90.8812 80.1551 92.7742C91.5338 94.6672 102.293 86.9775 104.186 75.5989Z" fill="#94D31A"/>
<path d="M156.783 86.354C156.783 96.2 148.802 104.181 138.955 104.181C129.109 104.181 121.127 96.2 121.127 86.354C121.127 76.507 129.108 68.526 138.955 68.526C148.802 68.526 156.783 76.508 156.783 86.354Z" fill="#B2ED20"/>
<path d="M144.689 188.111C144.689 197.957 136.707 205.939 126.861 205.939C117.015 205.939 109.033 197.957 109.033 188.111C109.033 178.265 117.015 170.283 126.861 170.283C136.707 170.283 144.689 178.266 144.689 188.111Z" fill="#B2ED20"/>
<path d="M327.29 155.151C327.29 164.998 319.308 172.979 309.462 172.979C299.616 172.979 291.634 164.998 291.634 155.151C291.634 145.305 299.616 137.324 309.462 137.324C319.309 137.324 327.29 145.306 327.29 155.151Z" fill="#B2ED20"/>
<path d="M302.705 60.118C302.705 69.965 294.723 77.946 284.877 77.946C275.031 77.946 267.049 69.965 267.049 60.118C267.049 50.272 275.031 42.291 284.877 42.291C294.723 42.291 302.705 50.272 302.705 60.118Z" fill="#B2ED20"/>
<path d="M189.499 296.157C189.499 306.004 181.517 313.985 171.671 313.985C161.825 313.985 153.843 306.004 153.843 296.157C153.843 286.311 161.825 278.33 171.671 278.33C181.517 278.33 189.499 286.312 189.499 296.157Z" fill="#B2ED20"/>
<path d="M92.6301 257.59C92.6301 267.436 84.6481 275.418 74.8021 275.418C64.9561 275.418 56.9741 267.436 56.9741 257.59C56.9741 247.744 64.9561 239.762 74.8021 239.762C84.6481 239.762 92.6301 247.744 92.6301 257.59Z" fill="#B2ED20"/>
<path d="M368.742 103.364C368.742 113.211 360.76 121.192 350.914 121.192C341.068 121.192 333.086 113.211 333.086 103.364C333.086 93.518 341.068 85.536 350.914 85.536C360.76 85.536 368.742 93.519 368.742 103.364Z" fill="#B2ED20"/>
<path d="M228.176 257.904C228.176 267.75 220.195 275.732 210.348 275.732C200.502 275.732 192.52 267.75 192.52 257.904C192.52 248.058 200.502 240.076 210.348 240.076C220.194 240.076 228.176 248.059 228.176 257.904Z" fill="#B2ED20"/>
<path d="M109.106 355.092C109.106 364.938 101.124 372.92 91.2782 372.92C81.4322 372.92 73.4502 364.938 73.4502 355.092C73.4502 345.245 81.4322 337.264 91.2782 337.264C101.124 337.264 109.106 345.245 109.106 355.092Z" fill="#B2ED20"/>
<path d="M162.517 150.75C162.517 160.596 154.535 168.578 144.689 168.578C134.843 168.578 126.861 160.596 126.861 150.75C126.861 140.904 134.843 132.922 144.689 132.922C154.535 132.922 162.517 140.904 162.517 150.75Z" fill="#B2ED20"/>
<path d="M158.553 42.603C158.553 52.45 150.571 60.431 140.725 60.431C130.879 60.431 122.897 52.45 122.897 42.603C122.897 32.757 130.879 24.776 140.725 24.776C150.571 24.775 158.553 32.757 158.553 42.603Z" fill="#B2ED20"/>
<path d="M226.242 18.345C226.242 28.192 218.26 36.173 208.414 36.173C198.568 36.173 190.586 28.192 190.586 18.345C190.586 8.49897 198.568 0.517944 208.414 0.517944C218.261 0.517944 226.242 8.49897 226.242 18.345Z" fill="#B2ED20"/>
<path d="M79.9241 104.182C79.9241 114.029 71.9421 122.01 62.0961 122.01C52.2501 122.01 44.2681 114.029 44.2681 104.182C44.2681 94.336 52.2501 86.355 62.0961 86.355C71.9421 86.354 79.9241 94.336 79.9241 104.182Z" fill="#B2ED20"/>
<path d="M405.367 310.456C407.202 299.067 399.457 288.347 388.068 286.511C376.679 284.676 365.959 292.421 364.123 303.81C362.288 315.199 370.033 325.919 381.422 327.755C392.811 329.59 403.532 321.845 405.367 310.456Z" fill="#94D31A"/>
<path d="M305.763 402.535C317.299 402.535 326.65 393.184 326.65 381.648C326.65 370.112 317.299 360.761 305.763 360.761C294.227 360.761 284.876 370.112 284.876 381.648C284.876 393.184 294.227 402.535 305.763 402.535Z" fill="#94D31A"/>
<path d="M187.528 425.241C199.064 425.241 208.415 415.89 208.415 404.354C208.415 392.818 199.064 383.467 187.528 383.467C175.993 383.467 166.641 392.818 166.641 404.354C166.641 415.89 175.993 425.241 187.528 425.241Z" fill="#94D31A"/>
<path d="M326.65 271.682C338.186 271.682 347.537 262.331 347.537 250.795C347.537 239.259 338.186 229.908 326.65 229.908C315.115 229.908 305.763 239.259 305.763 250.795C305.763 262.331 315.115 271.682 326.65 271.682Z" fill="#94D31A"/>
<path d="M437.497 321.561C449.033 321.561 458.384 312.21 458.384 300.674C458.384 289.138 449.033 279.787 437.497 279.787C425.962 279.787 416.61 289.138 416.61 300.674C416.61 312.21 425.962 321.561 437.497 321.561Z" fill="#94D31A"/>
<path d="M297.787 198.381C309.322 198.381 318.674 189.03 318.674 177.494C318.674 165.958 309.322 156.607 297.787 156.607C286.251 156.607 276.9 165.958 276.9 177.494C276.9 189.03 286.251 198.381 297.787 198.381Z" fill="#94D31A"/>
<path d="M260.246 188.111C260.246 199.646 250.895 208.998 239.36 208.998C227.824 208.998 218.473 199.646 218.473 188.111C218.473 176.576 227.824 167.224 239.36 167.224C250.895 167.225 260.246 176.576 260.246 188.111Z" fill="#94D31A"/>
<path d="M206.42 75.4177C208.255 64.0286 200.51 53.3082 189.121 51.4728C177.732 49.6375 167.011 57.3824 165.176 68.7715C163.341 80.1605 171.086 90.881 182.475 92.7163C193.864 94.5516 204.584 86.8068 206.42 75.4177Z" fill="#7EBB15"/>
<path d="M230.781 51.995C242.317 51.995 251.668 42.6436 251.668 31.108C251.668 19.5725 242.317 10.2209 230.781 10.2209C219.245 10.2209 209.894 19.5725 209.894 31.108C209.894 42.6436 219.245 51.995 230.781 51.995Z" fill="#7EBB15"/>
<path d="M351.927 92.5119C354.601 81.2901 347.672 70.0254 336.45 67.3514C325.228 64.6775 313.963 71.6069 311.289 82.8287C308.615 94.0505 315.545 105.315 326.767 107.989C337.988 110.663 349.253 103.734 351.927 92.5119Z" fill="#7EBB15"/>
</svg>
