<svg width="83" height="78" viewBox="0 0 83 78" fill="none" xmlns="http://www.w3.org/2000/svg">
<path d="M24.0518 9.51193L39.9573 42.223L42.6212 40.2143L24.0518 9.51193Z" fill="#93733E"/>
<path d="M21.6924 69.1273L39.958 42.223L42.6219 43.9649L21.6924 69.1273Z" fill="#93733E"/>
<path d="M40.7181 40.2143L74.9582 26.932L42.6209 43.9649L39.957 42.2231L40.7181 40.2143Z" fill="#93733E"/>
<path d="M54.9385 36.6099L71.6607 52.0942L57.4586 35.4485L54.9385 36.6099Z" fill="#93733E"/>
<path d="M60.9341 32.3726C61.003 32.3458 61.6888 15.1251 61.6888 15.1251L63.4033 32.3726H60.9341Z" fill="#93733E"/>
<path d="M35.1938 27.9341L39.9575 5.06003L37.16 31.1848L35.1938 27.9341Z" fill="#93733E"/>
<path d="M29.9217 21.5839L12.9395 19.7705L30.9745 23.749L29.9217 21.5839Z" fill="#93733E"/>
<path d="M30.1516 56.6674L6.66113 52.0942L32.1571 53.7134L30.1516 56.6674Z" fill="#93733E"/>
<path d="M54.9379 72.0307L35.1938 51.3202L35.9619 48.1082L54.9379 72.0307Z" fill="#93733E"/>
<path d="M61.0001 42.223C61.3174 42.5168 57.4585 59.2559 57.4585 59.2559L62.8814 43.965L61.0001 42.223Z" fill="#93733E"/>
<path d="M67.6372 30.7884L78.3915 38.8358L69.4511 29.8329L67.6372 30.7884Z" fill="#93733E"/>
<path d="M62.168 23.061L71.0662 16.8671L62.6791 25.095L62.168 23.061Z" fill="#93733E"/>
<path d="M20.9167 52.9996L12.9395 37.5776L24.0519 54.3809L20.9167 52.9996Z" fill="#93733E"/>
<path d="M16.6877 54.0463L15.7939 66.4174L18.1724 54.0463H16.6877Z" fill="#93733E"/>
<path d="M18.1719 31.1848L27.495 22.4802L25.5924 21.7597L18.1719 31.1848Z" fill="#93733E"/>
<path d="M38.5596 18.1224C38.5611 18.1074 51.5648 15.1251 51.5648 15.1251L38.5596 15.8026V18.1224Z" fill="#93733E"/>
<path d="M39.957 55.6752C40.4945 55.653 55.3687 55.6752 55.3687 55.6752L41.2522 57.5532L39.957 55.6752Z" fill="#93733E"/>
<path d="M65.4619 44.829C65.5374 44.9176 75.8237 42.223 75.8237 42.223L66.4434 45.9793L65.4619 44.829Z" fill="#93733E"/>
<path d="M66.8735 20.9811C67.2943 20.5682 75.8238 21.7597 75.8238 21.7597L68.1075 19.7705L66.8735 20.9811Z" fill="#93733E"/>
<path d="M38.2877 13.0814L30.3496 5.06003L38.5593 11.3509L38.2877 13.0814Z" fill="#93733E"/>
<path d="M20.741 34.3343C20.6459 34.3838 18.0205 45.2602 18.0205 45.2602L19.409 48.1082L20.741 34.3343Z" fill="#93733E"/>
<path d="M28.1592 61.353L34.4547 71.1595L29.0916 60.2319L28.1592 61.353Z" fill="#93733E"/>
<path d="M56.0745 74.3195C58.0726 74.3195 59.6925 72.6717 59.6925 70.639C59.6925 68.6063 58.0726 66.9585 56.0745 66.9585C54.0764 66.9585 52.4565 68.6063 52.4565 70.639C52.4565 72.6717 54.0764 74.3195 56.0745 74.3195Z" fill="#78A015"/>
<path d="M57.4583 63.2071C59.4564 63.2071 61.0762 61.5593 61.0762 59.5266C61.0762 57.4939 59.4564 55.8461 57.4583 55.8461C55.4601 55.8461 53.8403 57.4939 53.8403 59.5266C53.8403 61.5593 55.4601 63.2071 57.4583 63.2071Z" fill="#78A015"/>
<path d="M72.1746 61.2337C74.1727 61.2337 75.7926 59.5859 75.7926 57.5532C75.7926 55.5205 74.1727 53.8727 72.1746 53.8727C70.1765 53.8727 68.5566 55.5205 68.5566 57.5532C68.5566 59.5859 70.1765 61.2337 72.1746 61.2337Z" fill="#78A015"/>
<path d="M75.7928 51.7887C77.7909 51.7887 79.4107 50.1409 79.4107 48.1082C79.4107 46.0755 77.7909 44.4277 75.7928 44.4277C73.7946 44.4277 72.1748 46.0755 72.1748 48.1082C72.1748 50.1409 73.7946 51.7887 75.7928 51.7887Z" fill="#78A015"/>
<path d="M79.3821 40.0298C81.3803 40.0298 83.0001 38.382 83.0001 36.3493C83.0001 34.3166 81.3803 32.6688 79.3821 32.6688C77.384 32.6688 75.7642 34.3166 75.7642 36.3493C75.7642 38.382 77.384 40.0298 79.3821 40.0298Z" fill="#78A015"/>
<path d="M77.5151 30.7983C78.928 29.361 78.928 27.0307 77.5151 25.5934C76.1022 24.1561 73.8115 24.1561 72.3986 25.5934C70.9857 27.0307 70.9857 29.361 72.3986 30.7983C73.8115 32.2356 76.1022 32.2356 77.5151 30.7983Z" fill="#78A015"/>
<path d="M75.6751 22.5211C77.5252 21.7529 78.4129 19.6045 77.6578 17.7225C76.9027 15.8404 74.7908 14.9374 72.9407 15.7056C71.0906 16.4737 70.2029 18.6221 70.958 20.5042C71.7131 22.3862 73.825 23.2892 75.6751 22.5211Z" fill="#78A015"/>
<path d="M49.3274 54.4201C51.3256 54.4201 52.9454 52.7723 52.9454 50.7396C52.9454 48.7069 51.3256 47.0591 49.3274 47.0591C47.3293 47.0591 45.7095 48.7069 45.7095 50.7396C45.7095 52.7723 47.3293 54.4201 49.3274 54.4201Z" fill="#78A015"/>
<path d="M42.0902 67.8017C42.5533 65.8243 41.353 63.8394 39.4093 63.3682C37.4655 62.897 35.5142 64.118 35.051 66.0954C34.5879 68.0728 35.7882 70.0577 37.732 70.5289C39.6758 71.0001 41.627 69.7791 42.0902 67.8017Z" fill="#78A015"/>
<path d="M26.4513 68.7039C26.4513 70.7366 24.8315 72.3844 22.8333 72.3844C20.8352 72.3844 19.2153 70.7366 19.2153 68.7039C19.2153 66.6713 20.8352 65.0236 22.8333 65.0236C24.8313 65.0236 26.4513 66.6713 26.4513 68.7039Z" fill="#78A015"/>
<path d="M48.6791 74.3195C48.6791 76.3521 47.0594 78 45.0611 78C43.0631 78 41.4434 76.3521 41.4434 74.3195C41.4434 72.2869 43.0631 70.639 45.0611 70.639C47.0594 70.639 48.6791 72.2869 48.6791 74.3195Z" fill="#78A015"/>
<path d="M17.9413 65.4834C18.2592 63.4766 16.9177 61.5875 14.9449 61.2641C12.9722 60.9407 11.1152 62.3054 10.7973 64.3123C10.4794 66.3192 11.8209 68.2082 13.7937 68.5316C15.7665 68.855 17.6234 67.4903 17.9413 65.4834Z" fill="#78A015"/>
<path d="M10.8539 53.4918C10.8539 55.5244 9.23417 57.1723 7.23612 57.1723C5.23791 57.1723 3.61816 55.5244 3.61816 53.4918C3.61816 51.4592 5.23791 49.8113 7.23612 49.8113C9.23417 49.8113 10.8539 51.4592 10.8539 53.4918Z" fill="#78A015"/>
<path d="M12.1272 30.1527C14.1254 30.1527 15.7452 28.5049 15.7452 26.4722C15.7452 24.4395 14.1254 22.7917 12.1272 22.7917C10.1291 22.7917 8.50928 24.4395 8.50928 26.4722C8.50928 28.5049 10.1291 30.1527 12.1272 30.1527Z" fill="#7EBB15"/>
<path d="M21.9573 39.1289C23.9555 39.1289 25.5753 37.4811 25.5753 35.4485C25.5753 33.4158 23.9555 31.768 21.9573 31.768C19.9592 31.768 18.3394 33.4158 18.3394 35.4485C18.3394 37.4811 19.9592 39.1289 21.9573 39.1289Z" fill="#7EBB15"/>
<path d="M14.4711 39.129C14.4711 41.1615 12.8514 42.8094 10.8531 42.8094C8.85509 42.8094 7.23535 41.1615 7.23535 39.129C7.23535 37.0962 8.85509 35.4485 10.8531 35.4485C12.8514 35.4485 14.4711 37.0962 14.4711 39.129Z" fill="#7EBB15"/>
<path d="M66.8294 65.3088C67.2926 63.3314 66.0923 61.3464 64.1485 60.8753C62.2047 60.4041 60.2535 61.6251 59.7903 63.6025C59.3271 65.5799 60.5274 67.5648 62.4712 68.036C64.415 68.5072 66.3662 67.2861 66.8294 65.3088Z" fill="#7EBB15"/>
<path d="M74.9593 46.49C76.9574 46.49 78.5772 44.8421 78.5772 42.8095C78.5772 40.7768 76.9574 39.129 74.9593 39.129C72.9611 39.129 71.3413 40.7768 71.3413 42.8095C71.3413 44.8421 72.9611 46.49 74.9593 46.49Z" fill="#7EBB15"/>
<path d="M66.618 39.1289C68.6161 39.1289 70.2359 37.4811 70.2359 35.4485C70.2359 33.4158 68.6161 31.768 66.618 31.768C64.6198 31.768 63 33.4158 63 35.4485C63 37.4811 64.6198 39.1289 66.618 39.1289Z" fill="#7EBB15"/>
<path d="M71.9599 13.0814C71.9599 15.114 70.3401 16.7617 68.3419 16.7617C66.3439 16.7617 64.7241 15.114 64.7241 13.0814C64.7241 11.0487 66.3439 9.40094 68.3419 9.40094C70.3401 9.40094 71.9599 11.0487 71.9599 13.0814Z" fill="#7EBB15"/>
<path d="M55.9594 6.82156C55.9594 8.8543 54.3396 10.502 52.3416 10.502C50.3434 10.502 48.7236 8.85448 48.7236 6.82156C48.7236 4.78898 50.3434 3.14108 52.3416 3.14108C54.3396 3.14126 55.9594 4.78898 55.9594 6.82156Z" fill="#7EBB15"/>
<path d="M58.3651 25.095C58.3651 27.1276 56.7454 28.7755 54.7474 28.7755C52.7491 28.7755 51.1294 27.1276 51.1294 25.095C51.1294 23.0622 52.7491 21.4145 54.7474 21.4145C56.7454 21.4145 58.3651 23.0621 58.3651 25.095Z" fill="#7EBB15"/>
<path d="M42.6214 27.4294C44.6195 27.4294 46.2393 25.7816 46.2393 23.7489C46.2393 21.7162 44.6195 20.0684 42.6214 20.0684C40.6232 20.0684 39.0034 21.7162 39.0034 23.7489C39.0034 25.7816 40.6232 27.4294 42.6214 27.4294Z" fill="#7EBB15"/>
<path d="M33.3362 45.9035C35.3344 45.9035 36.9542 44.2557 36.9542 42.223C36.9542 40.1903 35.3344 38.5425 33.3362 38.5425C31.3381 38.5425 29.7183 40.1903 29.7183 42.223C29.7183 44.2557 31.3381 45.9035 33.3362 45.9035Z" fill="#7EBB15"/>
<path d="M18.0291 18.7254C18.3569 16.7204 17.025 14.8246 15.054 14.491C13.083 14.1574 11.2195 15.5124 10.8916 17.5175C10.5637 19.5225 11.8956 21.4183 13.8666 21.7519C15.8376 22.0854 17.7012 20.7304 18.0291 18.7254Z" fill="#7EBB15"/>
<path d="M29.0742 12.5625C29.5555 10.5898 28.3737 8.59363 26.4345 8.10396C24.4953 7.61429 22.5331 8.81653 22.0517 10.7892C21.5704 12.7619 22.7522 14.7581 24.6914 15.2478C26.6306 15.7374 28.5928 14.5352 29.0742 12.5625Z" fill="#7EBB15"/>
<path d="M24.3588 13.7387C24.3588 15.7712 22.7391 17.4192 20.741 17.4192C18.7428 17.4192 17.123 15.7712 17.123 13.7387C17.123 11.7059 18.7428 10.0582 20.741 10.0582C22.7389 10.0584 24.3588 11.7059 24.3588 13.7387Z" fill="#94D31A"/>
<path d="M18.0901 33.8332C20.0883 33.8332 21.7081 32.1854 21.7081 30.1527C21.7081 28.1201 20.0883 26.4723 18.0901 26.4723C16.092 26.4723 14.4722 28.1201 14.4722 30.1527C14.4722 32.1854 16.092 33.8332 18.0901 33.8332Z" fill="#94D31A"/>
<path d="M10.8539 22.483C10.8539 24.5156 9.23417 26.1635 7.23612 26.1635C5.23791 26.1635 3.61816 24.5156 3.61816 22.483C3.61816 20.4505 5.23791 18.8026 7.23612 18.8026C9.23417 18.8027 10.8539 20.4505 10.8539 22.483Z" fill="#94D31A"/>
<path d="M3.61796 46.49C5.6161 46.49 7.23592 44.8421 7.23592 42.8095C7.23592 40.7768 5.6161 39.129 3.61796 39.129C1.61981 39.129 0 40.7768 0 42.8095C0 44.8421 1.61981 46.49 3.61796 46.49Z" fill="#94D31A"/>
<path d="M12.1265 34.8221C12.1265 36.8546 10.5066 38.5024 8.50858 38.5024C6.51036 38.5024 4.89062 36.8546 4.89062 34.8221C4.89062 32.7893 6.51036 31.1416 8.50858 31.1416C10.5066 31.1416 12.1265 32.7893 12.1265 34.8221Z" fill="#94D31A"/>
<path d="M25.2298 42.8094C27.2279 42.8094 28.8477 41.1616 28.8477 39.129C28.8477 37.0963 27.2279 35.4485 25.2298 35.4485C23.2316 35.4485 21.6118 37.0963 21.6118 39.129C21.6118 41.1616 23.2316 42.8094 25.2298 42.8094Z" fill="#94D31A"/>
<path d="M36.4187 28.1971C38.4169 28.1971 40.0367 26.5493 40.0367 24.5167C40.0367 22.484 38.4169 20.8362 36.4187 20.8362C34.4206 20.8362 32.8008 22.484 32.8008 24.5167C32.8008 26.5493 34.4206 28.1971 36.4187 28.1971Z" fill="#94D31A"/>
<path d="M49.2549 11.2556C49.6633 9.2658 48.4088 7.31595 46.4528 6.90047C44.4968 6.48499 42.5801 7.76122 42.1716 9.751C41.7632 11.7408 43.0178 13.6906 44.9738 14.1061C46.9297 14.5216 48.8465 13.2454 49.2549 11.2556Z" fill="#94D31A"/>
<path d="M31.3064 8.07093C33.3046 8.07093 34.9244 6.42311 34.9244 4.39043C34.9244 2.35776 33.3046 0.709961 31.3064 0.709961C29.3083 0.709961 27.6885 2.35776 27.6885 4.39043C27.6885 6.42311 29.3083 8.07093 31.3064 8.07093Z" fill="#94D31A"/>
<path d="M41.9554 66.1596C43.9535 66.1596 45.5733 64.5118 45.5733 62.4791C45.5733 60.4465 43.9535 58.7986 41.9554 58.7986C39.9572 58.7986 38.3374 60.4465 38.3374 62.4791C38.3374 64.5118 39.9572 66.1596 41.9554 66.1596Z" fill="#94D31A"/>
<path d="M28.8475 59.5266C30.8456 59.5266 32.4654 57.8788 32.4654 55.8461C32.4654 53.8134 30.8456 52.1656 28.8475 52.1656C26.8493 52.1656 25.2295 53.8134 25.2295 55.8461C25.2295 57.8788 26.8493 59.5266 28.8475 59.5266Z" fill="#94D31A"/>
<path d="M14.3568 48.9269C14.3568 50.9596 12.7371 52.6074 10.7389 52.6074C8.74083 52.6074 7.12109 50.9598 7.12109 48.9269C7.12109 46.8943 8.74083 45.2464 10.7389 45.2464C12.7371 45.2464 14.3568 46.8942 14.3568 48.9269Z" fill="#94D31A"/>
<path d="M63.3227 15.2283C64.7356 13.7909 64.7356 11.4606 63.3227 10.0233C61.9098 8.58602 59.6191 8.58603 58.2062 10.0233C56.7933 11.4606 56.7933 13.791 58.2062 15.2283C59.6191 16.6656 61.9098 16.6656 63.3227 15.2283Z" fill="#94D31A"/>
<path d="M18.0295 13.2299C18.3574 11.2249 17.0255 9.32908 15.0545 8.99552C13.0835 8.66196 11.2199 10.017 10.892 12.022C10.5642 14.027 11.8961 15.9228 13.8671 16.2564C15.8381 16.5899 17.7016 15.2349 18.0295 13.2299Z" fill="#94D31A"/>
<path d="M27.14 15.1251C27.14 16.86 25.7576 18.2664 24.052 18.2664C22.3465 18.2664 20.9639 16.86 20.9639 15.1251C20.9639 13.3899 22.3463 11.9836 24.052 11.9836C25.7576 11.9836 27.14 13.3901 27.14 15.1251Z" fill="#B2ED20"/>
<path d="M25.0453 33.0556C25.0453 34.7905 23.6627 36.197 21.9572 36.197C20.2517 36.197 18.8691 34.7905 18.8691 33.0556C18.8691 31.3206 20.2517 29.9141 21.9572 29.9141C23.6627 29.9141 25.0453 31.3208 25.0453 33.0556Z" fill="#B2ED20"/>
<path d="M56.6747 27.2478C56.6747 28.9829 55.2921 30.3892 53.5866 30.3892C51.8811 30.3892 50.4985 28.9829 50.4985 27.2478C50.4985 25.5128 51.8811 24.1065 53.5866 24.1065C55.2923 24.1065 56.6747 25.513 56.6747 27.2478Z" fill="#B2ED20"/>
<path d="M52.4164 10.502C52.4164 12.2372 51.0338 13.6435 49.3283 13.6435C47.6228 13.6435 46.2402 12.2372 46.2402 10.502C46.2402 8.76708 47.6228 7.36075 49.3283 7.36075C51.0338 7.36075 52.4164 8.76708 52.4164 10.502Z" fill="#B2ED20"/>
<path d="M32.807 52.0943C32.807 53.8294 31.4244 55.2357 29.719 55.2357C28.0135 55.2357 26.6309 53.8294 26.6309 52.0943C26.6309 50.3593 28.0135 48.953 29.719 48.953C31.4244 48.953 32.807 50.3595 32.807 52.0943Z" fill="#B2ED20"/>
<path d="M16.0282 45.2984C16.0282 47.0334 14.6456 48.4399 12.9401 48.4399C11.2347 48.4399 9.85205 47.0334 9.85205 45.2984C9.85205 43.5635 11.2347 42.157 12.9401 42.157C14.6456 42.157 16.0282 43.5635 16.0282 45.2984Z" fill="#B2ED20"/>
<path d="M63.8554 18.1224C63.8554 19.8575 62.4728 21.2638 60.7673 21.2638C59.0618 21.2638 57.6792 19.8575 57.6792 18.1224C57.6792 16.3874 59.0618 14.9809 60.7673 14.9809C62.4728 14.9809 63.8554 16.3876 63.8554 18.1224Z" fill="#B2ED20"/>
<path d="M39.5063 45.3537C39.5063 47.0887 38.1238 48.4952 36.4182 48.4952C34.7127 48.4952 33.3301 47.0887 33.3301 45.3537C33.3301 43.6188 34.7127 42.2123 36.4182 42.2123C38.1237 42.2123 39.5063 43.619 39.5063 45.3537Z" fill="#B2ED20"/>
<path d="M18.8822 62.4792C18.8822 64.2141 17.4996 65.6206 15.7941 65.6206C14.0887 65.6206 12.7061 64.2141 12.7061 62.4792C12.7061 60.744 14.0887 59.3377 15.7941 59.3377C17.4996 59.3377 18.8822 60.744 18.8822 62.4792Z" fill="#B2ED20"/>
<path d="M28.1327 26.4723C28.1327 28.2072 26.7501 29.6137 25.0446 29.6137C23.3392 29.6137 21.9565 28.2072 21.9565 26.4723C21.9565 24.7373 23.3392 23.3308 25.0446 23.3308C26.7501 23.3308 28.1327 24.7373 28.1327 26.4723Z" fill="#B2ED20"/>
<path d="M27.4472 7.41579C27.4472 9.15092 26.0646 10.5572 24.3591 10.5572C22.6536 10.5572 21.271 9.15092 21.271 7.41579C21.271 5.68083 22.6536 4.27451 24.3591 4.27451C26.0646 4.27433 27.4472 5.68083 27.4472 7.41579Z" fill="#B2ED20"/>
<path d="M39.1713 3.14128C39.1713 4.87641 37.7887 6.28274 36.0832 6.28274C34.3777 6.28274 32.9951 4.87641 32.9951 3.14128C32.9951 1.40633 34.3777 0 36.0832 0C37.7889 0 39.1713 1.40633 39.1713 3.14128Z" fill="#B2ED20"/>
<path d="M13.8266 18.2665C13.8266 20.0017 12.444 21.408 10.7385 21.408C9.033 21.408 7.65039 20.0017 7.65039 18.2665C7.65039 16.5316 9.033 15.1252 10.7385 15.1252C12.444 15.1251 13.8266 16.5316 13.8266 18.2665Z" fill="#B2ED20"/>
<path d="M70.1981 54.6139C70.516 52.607 69.1745 50.718 67.2018 50.3946C65.229 50.0712 63.372 51.4359 63.0541 53.4428C62.7362 55.4496 64.0778 57.3387 66.0505 57.6621C68.0233 57.9855 69.8802 56.6208 70.1981 54.6139Z" fill="#94D31A"/>
<path d="M52.9456 70.839C54.9437 70.839 56.5636 69.1912 56.5636 67.1585C56.5636 65.1259 54.9437 63.4781 52.9456 63.4781C50.9475 63.4781 49.3276 65.1259 49.3276 67.1585C49.3276 69.1912 50.9475 70.839 52.9456 70.839Z" fill="#94D31A"/>
<path d="M32.4661 74.84C34.4643 74.84 36.0841 73.1922 36.0841 71.1596C36.0841 69.1269 34.4643 67.4791 32.4661 67.4791C30.468 67.4791 28.8481 69.1269 28.8481 71.1596C28.8481 73.1922 30.468 74.84 32.4661 74.84Z" fill="#94D31A"/>
<path d="M56.5638 47.7815C58.5619 47.7815 60.1817 46.1337 60.1817 44.1011C60.1817 42.0684 58.5619 40.4206 56.5638 40.4206C54.5656 40.4206 52.9458 42.0684 52.9458 44.1011C52.9458 46.1337 54.5656 47.7815 56.5638 47.7815Z" fill="#94D31A"/>
<path d="M75.7649 56.5707C77.7631 56.5707 79.3829 54.9229 79.3829 52.8902C79.3829 50.8575 77.7631 49.2097 75.7649 49.2097C73.7668 49.2097 72.147 50.8575 72.147 52.8902C72.147 54.9229 73.7668 56.5707 75.7649 56.5707Z" fill="#94D31A"/>
<path d="M51.5647 34.8652C53.5629 34.8652 55.1827 33.2174 55.1827 31.1848C55.1827 29.1521 53.5629 27.5043 51.5647 27.5043C49.5666 27.5043 47.9468 29.1521 47.9468 31.1848C47.9468 33.2174 49.5666 34.8652 51.5647 34.8652Z" fill="#94D31A"/>
<path d="M45.0619 33.0556C45.0619 35.0882 43.4422 36.7361 41.4441 36.7361C39.4459 36.7361 37.8262 35.0882 37.8262 33.0556C37.8262 31.023 39.4459 29.3751 41.4441 29.3751C43.4422 29.3753 45.0619 31.023 45.0619 33.0556Z" fill="#94D31A"/>
<path d="M35.7377 13.198C36.0556 11.1911 34.7141 9.30211 32.7413 8.97871C30.7685 8.65531 28.9116 10.02 28.5937 12.0269C28.2758 14.0337 29.6173 15.9228 31.5901 16.2462C33.5628 16.5696 35.4198 15.2049 35.7377 13.198Z" fill="#7EBB15"/>
<path d="M39.9578 9.07071C41.9559 9.07071 43.5758 7.42291 43.5758 5.39024C43.5758 3.35757 41.9559 1.70975 39.9578 1.70975C37.9597 1.70975 36.3398 3.35757 36.3398 5.39024C36.3398 7.42291 37.9597 9.07071 39.9578 9.07071Z" fill="#7EBB15"/>
<path d="M60.9422 16.2102C61.4054 14.2328 60.2051 12.2479 58.2613 11.7767C56.3175 11.3055 54.3663 12.5265 53.9031 14.5039C53.4399 16.4813 54.6402 18.4662 56.584 18.9374C58.5278 19.4086 60.479 18.1876 60.9422 16.2102Z" fill="#7EBB15"/>
</svg>
