<svg width="216" height="66" viewBox="0 0 216 66" fill="none" xmlns="http://www.w3.org/2000/svg">
<path d="M12.3857 14.9981C12.33 15.0308 12.2881 15.0526 12.2463 15.0636C12.3299 15.0417 12.3718 15.0199 12.3857 14.9981Z" fill="#5A7A35"/>
<path d="M7.52211 22.8396L7.48022 22.8506C7.43843 22.8724 7.3967 22.8942 7.36885 22.916C7.36885 22.916 7.42471 22.8941 7.53613 22.8287L7.52211 22.8396Z" fill="#5A7A35"/>
<path d="M1.76682 40.1277C0.0988733 42.9994 0.230726 46.5414 2.39688 49.2322C4.52111 51.8688 8.66536 53.4694 12.638 52.7884C13.2652 52.6786 13.9619 52.5035 14.6587 52.274C14.6744 53.2302 15.3731 54.0656 16.2946 54.7267C17.5232 55.5938 19.2533 56.1447 20.8433 56.4135C22.0428 56.6177 23.3396 56.7023 24.5523 56.5154C24.9462 58.3945 25.9534 60.1746 27.5034 61.443C29.2769 62.9067 31.6908 63.7716 34.284 63.6256C36.9051 63.4904 39.5946 62.6271 41.614 61.3195C41.7811 61.2105 41.9482 61.0907 42.1153 60.9817C42.3117 61.6442 42.6336 62.2738 43.3176 62.7072C43.6805 62.9347 44.3495 62.7922 44.6699 62.596C46.0488 61.7677 46.6741 60.517 47.5086 59.3745C47.9259 58.8087 48.3569 58.2321 48.6905 57.6338C48.816 57.6445 48.8161 57.6445 48.9416 57.6551C49.3063 58.8497 49.6989 60.0659 50.7186 61.042C51.2773 61.5625 52.1828 61.1262 52.5864 60.7235C53.004 60.2989 53.3377 59.8419 53.6018 59.3742C53.7572 60.4931 54.1218 61.6225 54.8904 62.5882C55.7569 63.6623 57.2642 64.355 58.9095 64.3737C60.8338 64.4136 62.561 63.5086 63.6324 62.3114C63.6881 62.257 63.7298 62.1917 63.7855 62.1264C64.4825 62.0273 65.1933 61.8196 65.8063 61.5685C66.0438 61.8289 66.2953 62.0892 66.5607 62.3278C68.0272 63.6833 69.9256 64.8751 72.2267 65.1316C76.7452 65.6123 80.0853 62.0966 79.8283 58.8264C79.8702 58.8698 79.9121 58.9132 79.9679 58.9565C80.736 59.5853 81.6568 59.8444 82.7438 59.5164C82.9946 59.4399 83.2454 59.2874 83.4123 59.1023C84.2646 60.0135 85.4509 60.7067 86.9433 60.9865C90.3606 61.6105 93.4807 59.7902 95.2754 57.6137C96.1723 60.046 97.9897 62.6179 100.822 63.7754C103.99 65.0627 107.46 64.3065 109.967 62.6177C110.33 62.8235 110.985 62.6919 111.305 62.4957C111.695 62.2559 112.015 61.9946 112.308 61.7007C113.146 62.4163 114.095 63.0448 115.156 63.5536C117.417 64.636 120.109 65.1418 122.729 64.6697C125.433 64.1867 127.801 62.8784 129.471 61.1694C129.763 60.8646 130.014 60.56 130.25 60.2335C130.39 60.4397 130.544 60.6459 130.725 60.8412C131.564 61.7306 132.847 62.1955 134.269 61.9538C135.454 61.7452 136.471 61.1349 137.18 60.3621C138.34 61.7182 139.918 62.8997 141.774 63.6134C146.267 65.3329 151.631 63.3129 154.875 60.7208C154.945 60.6664 155 60.6119 155.07 60.5684C155.182 60.7311 155.294 60.8939 155.42 61.0567C155.434 61.0892 155.434 61.1219 155.448 61.1653C155.518 61.3499 155.657 61.4583 155.825 61.5341C156.593 62.3694 157.612 63.0846 158.771 63.5389C160.501 64.2094 162.495 64.3796 164.265 63.7027C165.031 63.4079 165.713 62.9937 166.326 62.5145C166.382 62.547 166.424 62.5687 166.493 62.5903C167.583 63.4684 169.048 64.0742 170.596 64.2561C174.459 64.6837 177.913 62.4716 179.623 59.9584C179.846 59.6429 180.027 59.3165 180.207 58.9902C180.835 59.3368 181.547 59.5854 182.356 59.6274C183.067 59.6695 183.902 59.1356 183.943 58.5705C183.957 58.3205 183.984 58.0705 184.012 57.8206C184.989 58.6881 186.148 59.4032 187.599 59.8134C189.915 60.472 192.661 60.0214 194.555 58.8336C196.142 57.8418 197.339 56.5031 198.201 55.0781C198.493 54.5995 198.743 54.0992 198.937 53.5772C200.29 53.9116 201.671 53.8439 202.924 52.9506C204.358 51.9157 204.328 50.4598 203.573 49.2007C204.409 49.1231 205.231 48.9477 205.956 48.7399C208.311 48.0402 210.568 46.7647 212.168 45.2514C214.813 42.7583 215.071 38.8243 212.654 36.1666C212.36 35.852 212.039 35.5701 211.69 35.3209C212.191 34.8418 212.608 34.3194 212.914 33.7647C213.484 32.7314 213.663 31.362 212.797 30.3965C212.419 29.9843 211.903 29.7136 211.317 29.5191C213.796 27.6999 215.366 24.7849 215.571 22.4484C215.939 18.0904 210.816 15.0248 205.684 14.5126C205.837 14.295 205.976 14.0883 206.115 13.8598C206.463 13.2398 206.657 12.5549 206.404 11.8817C206.11 11.1108 205.509 10.4817 204.547 10.1683C203.417 9.80095 202.148 9.92277 200.95 10.2292C199.945 9.97027 198.746 10.1138 197.729 10.3004C197.728 9.96351 197.672 9.62674 197.532 9.30102C196.986 8.10676 195.576 7.41394 193.973 7.61246C193.485 7.67855 193.025 7.79889 192.565 7.97359C192.564 7.54981 192.536 7.11527 192.438 6.69168C191.763 3.61784 188.509 1.11376 184.437 0.979956C181.16 0.877297 177.635 1.89429 174.639 2.80166C172.256 3.52317 169.901 4.38586 167.713 5.45473C167.322 5.086 166.89 4.76085 166.373 4.49015C164.838 3.69974 162.774 3.68178 161.172 4.36927C160.434 4.68573 159.877 5.11051 159.445 5.61113C157.615 3.52822 154.782 1.99043 151.435 1.56192C145.814 0.855064 140.45 3.40752 138.282 7.3341C138.197 6.2042 137.79 5.07493 137.119 4.08735C133.945 -0.579204 126.506 3.05273 123.067 5.56907C122.426 5.82016 121.841 6.16898 121.284 6.57204C121.073 5.85527 120.766 5.17127 120.513 4.47631C120.429 4.22655 120.206 4.10741 119.955 4.0644C119.368 3.20707 118.39 2.60039 116.982 2.50518C114.472 2.33592 112.397 3.89357 111.019 5.35213C110.964 5.41743 110.922 5.48268 110.866 5.53712C110.433 5.07067 109.931 4.64784 109.344 4.29034C107.641 3.23946 105.229 3.08086 103.39 4.0513C102.373 4.59646 101.747 5.37999 101.414 6.24988C101.219 6.23937 101.01 6.25061 100.801 6.27273L100.745 6.28369C100.561 4.98011 99.9734 3.73159 98.7029 2.82118C96.5667 1.29299 93.4438 1.5269 90.9774 2.37896C89.0126 3.04538 87.2435 4.08086 85.7678 5.31142C85.7399 5.27887 85.7258 5.24635 85.6978 5.2138C84.6776 3.94435 83.0868 3.13228 81.1211 3.33147C78.4445 3.61888 76.2724 5.4049 75.6347 7.38367C75.5653 7.59025 75.5241 7.79677 75.4826 8.01416C74.9523 7.74349 74.3661 7.49462 73.7244 7.30021C73.5988 7.25698 73.4872 7.24634 73.3617 7.24657C73.2631 6.68172 73.0668 6.11701 72.6059 5.67235C71.9633 5.0433 70.9728 4.71919 69.9688 4.65584C69.0205 4.59238 68.0727 4.75704 67.1809 5.07379C67.2497 4.56296 66.761 4.25967 66.0779 4.35872C64.893 4.53474 64.0858 5.27506 63.3063 5.96104C62.7463 4.77768 61.7821 3.70373 60.5118 2.91284C56.1146 0.160938 49.5367 2.0093 46.573 5.40492C45.9172 5.19966 45.2338 5.07057 44.5366 5.01752C42.4308 4.83665 40.2845 5.32957 38.5153 6.21295C37.9581 6.49649 37.4008 6.83431 36.8995 7.20467C36.4108 6.82525 35.8526 6.53291 35.1971 6.41459C34.2333 5.52535 33.0189 4.78868 31.5542 4.46538C30.0199 4.13135 28.4028 4.30821 26.9116 4.70211C24.5563 5.32578 22.6344 6.51365 21.0335 7.97262C19.5023 9.36627 18.055 10.9771 17.3611 12.7495C17.3194 12.8365 17.3057 12.9344 17.278 13.0214C16.5805 12.827 15.8413 12.7306 15.1163 12.7319C12.5646 12.7366 9.65274 13.9697 9.05695 16.0353C8.89069 16.6115 8.89163 17.1983 9.10184 17.7739C9.34009 18.4362 9.84372 19.3372 10.8199 19.4006C11.6722 20.3987 12.8869 21.2332 14.0178 22.0134C14.6739 22.4686 15.344 22.902 16.028 23.3354C15.2886 23.1086 14.5353 22.8927 13.782 22.6985C13.7958 22.6115 13.7957 22.5354 13.7537 22.4486C13.7117 22.3726 13.6835 22.2965 13.6415 22.2206C13.5575 22.0143 13.3621 21.8951 13.1667 21.7542C12.9852 21.635 12.7899 21.5267 12.5806 21.4402C12.134 21.2454 11.6595 21.0724 11.1712 20.9538C10.3203 20.7489 9.44192 20.6962 8.54971 20.7848C7.00227 20.9397 5.60927 21.7029 4.7885 22.7367C3.50868 24.358 3.41558 26.8574 5.11938 28.332C5.21714 28.4188 5.32887 28.4946 5.42659 28.5596C5.38482 28.5923 5.34299 28.6141 5.3012 28.6359C3.95037 29.5511 2.80945 30.8571 2.70053 32.2916C2.59169 33.7696 3.44509 35.3328 5.05011 36.1665C5.20363 36.2423 5.37114 36.318 5.53858 36.3829C3.95088 37.3964 2.65641 38.6049 1.76682 40.1277Z" fill="#5A7A35"/>
<path d="M101.849 45.5829C100.485 46.8024 100.391 48.7694 102.303 49.7112C103.978 50.5339 106.236 50.3233 108.16 49.9612C107.408 50.5711 106.754 51.2677 106.239 52.0619C104.807 54.292 104.144 57.8464 107.855 58.9371C110.506 59.7146 113.516 58.7528 115.843 57.7598C118.462 56.6358 120.983 55.2186 123.002 53.4655C123.56 53.8122 124.286 54.0173 124.969 54.1138C127.047 54.4143 129.459 54.1925 131.508 53.5042C131.914 54.6227 132.794 55.6751 134.023 56.3791C137.777 58.5454 142.945 55.6891 144.99 53.1101C146.945 54.8451 149.973 56.0674 152.511 56.3127C154.98 56.5472 157.475 55.8472 158.866 54.193C160.076 52.7674 160.296 50.9306 159.986 49.2687C164.283 50.5538 169.428 50.5336 173.05 48.6689C173.528 50.7108 175.916 52.5863 178.538 53.19C180.658 53.675 182.846 53.0082 184.573 51.8641C185.078 53.6887 186.531 55.0986 189.487 54.7237C194.087 54.1503 194.956 48.9873 194.658 46.1193C194.629 45.8368 194.573 45.5326 194.517 45.2285C194.865 45.2279 195.2 45.2055 195.507 45.1615C197.151 44.9521 198.782 44.2428 199.616 43.0786C200.381 42.0123 200.323 40.7411 199.763 39.6338C202.55 38.4986 205.014 36.5274 206.293 34.2758C207.418 32.307 206.843 30.1239 204.79 28.6608C202.654 27.1326 199.446 26.6604 196.63 26.7308C196.281 26.7423 195.919 26.7647 195.556 26.7871C195.626 26.6783 195.709 26.5695 195.765 26.4716C197.267 24.1544 198.529 20.5554 195.959 18.3869C193.348 16.1641 188.608 16.5966 185.725 18.2101C182.744 19.8889 180.88 22.587 179.602 25.2407C179.309 24.6653 178.959 24.1009 178.554 23.5692C177.184 21.7788 175.076 20.5767 172.316 20.7338C169.179 20.9026 166.561 22.6024 165.156 24.7239C164.378 25.9097 163.864 27.2362 163.755 28.5729C162.681 28.3467 161.538 28.4575 160.492 28.7746C158.639 29.343 157.414 30.3666 156.747 31.7043C156.677 31.6284 156.593 31.5525 156.523 31.4766C154.456 29.568 151.735 28.5081 148.528 28.3618C146.172 28.2575 143.816 28.6529 141.656 29.374C139.896 27.9103 137.733 26.6973 135.71 25.9295C134.231 25.3672 132.668 24.9138 131.023 24.7538C130.06 24.6686 129.057 24.8008 128.109 24.933C125.502 25.3181 122.798 25.9641 120.541 27.0874C119.455 27.6218 118.271 28.4498 118.092 29.5041C116.823 29.4956 115.527 29.6827 114.342 29.9348C111.457 30.5594 108.656 31.662 106.344 33.1658C104.339 34.4733 102.501 36.2261 102.352 38.3561C102.23 40.1601 103.752 41.483 105.719 42.24C106.543 42.5644 107.394 42.8019 108.259 43.0068L108.231 43.0069C106.029 43.5325 103.436 44.1783 101.849 45.5829ZM185.905 48.515C185.96 47.9281 186.113 47.341 186.349 46.8081L186.363 46.7755C186.447 47.3295 186.281 47.9275 185.905 48.515Z" fill="#6C8F42"/>
<path d="M125.986 39.301L125.944 39.3228C125.793 39.4209 125.958 39.3228 125.986 39.301Z" fill="#6C8F42"/>
<path d="M50.9872 47.1548C53.1513 48.7264 56.2621 49.4813 59.1212 49.8455C62.1616 50.2311 65.3965 50.2686 68.3792 49.5786C68.4772 49.8175 68.5752 50.0564 68.6732 50.2952C69.3593 51.8261 70.2543 53.3348 71.8458 54.4076C74.5961 56.2715 78.5551 55.7645 81.4109 54.3141C83.2636 53.3653 85.1152 51.7212 85.6 49.9383C88.7769 48.7807 89.0495 45.39 88.2781 42.9466C88.222 42.7728 88.1659 42.599 88.0959 42.4144C89.6161 42.6181 91.1913 42.3654 92.5847 41.863C95.9429 40.6507 98.699 38.1791 100.033 35.5145C101.2 33.1653 101.11 29.9491 99.1123 27.8773C97.3102 26.0008 94.2415 25.3545 91.3551 25.3055C89.152 25.266 86.9216 25.52 84.7612 25.9803C85.1644 25.3276 85.3862 24.6101 85.4267 23.8603C85.5205 21.8064 84.0528 19.8315 81.2637 19.6302C78.1818 19.3967 75.3544 21.097 73.4892 22.839C71.2481 24.9293 69.6214 27.4967 68.8036 30.1495C68.5263 31.0302 68.3189 31.9759 68.2649 32.9322C66.3534 32.2511 64.0106 32.0924 61.8919 32.4658C59.5919 32.872 57.4467 33.919 56.3343 35.5836C55.4722 36.8891 55.1821 38.4326 55.5054 39.8772C53.4697 39.9244 51.3931 40.3628 50.0009 41.5063C47.9265 43.2487 48.9906 45.7024 50.9872 47.1548Z" fill="#6C8F42"/>
<path d="M187.928 32.8231C188.207 33.1594 188.737 33.3757 189.253 33.3748C189.727 33.3739 190.146 33.2427 190.522 33.0465C191.149 33.0236 191.664 32.6641 191.97 32.2723C192.276 31.8806 192.429 31.4457 192.526 31C192.609 30.587 192.608 30.1414 192.482 29.7396C192.355 29.3487 192.076 28.9472 191.601 28.7525C190.834 28.4388 189.844 28.5384 189.12 28.9091C188.326 29.3126 187.881 30.0415 187.687 30.7481C187.493 31.4113 187.411 32.2155 187.928 32.8231Z" fill="#6C8F42"/>
<path d="M187.554 27.2173C187.582 27.2716 187.596 27.3259 187.61 27.3802C187.624 27.4671 187.652 27.543 187.708 27.619C187.806 27.7166 187.917 27.7817 188.071 27.814C188.085 27.814 188.113 27.8248 188.126 27.8247C188.071 27.8031 188.029 27.7923 187.973 27.7706C188.057 27.814 188.154 27.8464 188.252 27.8462C188.364 27.8678 188.475 27.8676 188.587 27.8456C188.67 27.8237 188.74 27.8018 188.824 27.7799C188.991 27.7253 189.13 27.649 189.256 27.551C189.325 27.5074 189.367 27.453 189.422 27.3986C189.506 27.3224 189.576 27.2244 189.617 27.1266L189.659 26.9418C189.645 26.8875 189.645 26.8223 189.644 26.768C189.644 26.7571 189.63 26.7353 189.63 26.7353C189.616 26.7028 189.588 26.6703 189.574 26.6377C189.56 26.6051 189.533 26.5725 189.519 26.54C189.491 26.5074 189.477 26.4749 189.449 26.4532C189.435 26.4424 189.421 26.4206 189.407 26.4098C189.337 26.3556 189.281 26.3013 189.211 26.258C189.114 26.2039 189.016 26.1823 188.904 26.1826C188.793 26.161 188.667 26.1612 188.556 26.194C188.472 26.2159 188.389 26.2378 188.305 26.2597C188.166 26.3034 188.054 26.3579 187.957 26.4341C187.887 26.4777 187.817 26.5322 187.762 26.5866C187.678 26.6628 187.623 26.7499 187.581 26.8369L187.539 27.0108C187.498 27.0761 187.526 27.1413 187.554 27.2173Z" fill="#6C8F42"/>
<path d="M159.788 15.2042C160.011 15.5189 160.388 15.7355 160.807 15.8543C161.197 15.9731 161.685 15.9722 162.09 15.8845C162.647 15.7639 163.135 15.524 163.511 15.1974C163.608 15.132 163.692 15.0666 163.775 15.0012C164.109 14.7072 164.346 14.3809 164.54 14.0219C164.693 13.75 164.818 13.4347 164.804 13.1413C164.803 12.7393 164.691 12.3592 164.439 12.0119C164.215 11.719 163.866 11.524 163.462 11.4052C163.071 11.2864 162.569 11.2981 162.179 11.3858C161.705 11.4845 161.245 11.6483 160.855 11.8881C160.034 12.4112 159.421 13.162 159.409 14.0096C159.41 14.4334 159.522 14.8244 159.788 15.2042Z" fill="#6C8F42"/>
<path d="M156.918 18.144C156.946 18.1657 156.988 18.1982 156.988 18.1982C157.002 18.2199 157.016 18.2416 157.03 18.2633C157.1 18.3501 157.197 18.4043 157.309 18.4366C157.421 18.4908 157.546 18.5123 157.686 18.5012C157.839 18.5009 157.978 18.4897 158.118 18.446C158.271 18.4131 158.411 18.3586 158.55 18.2822C158.689 18.2168 158.8 18.1296 158.898 18.0208C158.995 17.9337 159.065 17.8358 159.106 17.727C159.12 17.6618 159.148 17.5966 159.162 17.5314C159.176 17.401 159.134 17.2815 159.036 17.1731C158.98 17.1297 158.924 17.0863 158.868 17.043C158.729 16.9672 158.561 16.9348 158.38 16.9352C158.283 16.9462 158.199 16.9464 158.101 16.9574C157.948 16.9794 157.795 17.0232 157.669 17.0995C157.586 17.1322 157.53 17.1758 157.46 17.2194L157.432 17.2303C157.321 17.274 157.209 17.3393 157.126 17.4156C157.07 17.4591 157.029 17.5135 156.973 17.5571C156.903 17.6333 156.876 17.7094 156.862 17.7964C156.834 17.8508 156.834 17.8942 156.848 17.9485C156.834 18.0138 156.862 18.0789 156.918 18.144Z" fill="#6C8F42"/>
<path d="M155.165 12.2023C155.165 12.2132 155.179 12.224 155.179 12.2349C155.207 12.3435 155.291 12.4303 155.388 12.4953C155.5 12.5494 155.626 12.5817 155.765 12.5815C155.877 12.5813 155.988 12.5702 156.1 12.5374C156.225 12.5155 156.337 12.4718 156.434 12.4064C156.573 12.3301 156.685 12.2429 156.768 12.1341C156.866 12.0362 156.879 11.9058 156.921 11.7862C156.921 11.7753 156.921 11.7644 156.935 11.7536C156.948 11.6449 156.907 11.558 156.837 11.4712C156.795 11.4387 156.739 11.4062 156.697 11.3628C156.585 11.3087 156.446 11.2764 156.32 11.2766C156.209 11.2768 156.097 11.2878 155.986 11.3206C155.86 11.3426 155.749 11.3863 155.651 11.4517C155.54 11.5062 155.456 11.5715 155.387 11.6586C155.303 11.7239 155.248 11.8001 155.22 11.8871C155.136 11.9959 155.137 12.0937 155.165 12.2023Z" fill="#6C8F42"/>
<path d="M121.554 16.9164C121.763 16.6879 121.832 16.4052 121.789 16.1227C121.761 15.862 121.579 15.5907 121.37 15.4064C121.063 15.1353 120.672 14.9513 120.239 14.8543C120.142 14.8219 120.058 14.8002 119.96 14.7787C119.584 14.6925 119.193 14.6823 118.789 14.7048C118.482 14.7162 118.162 14.7603 117.883 14.8695C117.521 15.0114 117.214 15.2075 116.978 15.4688C116.783 15.6973 116.728 15.9582 116.77 16.2189C116.798 16.4796 116.994 16.7509 117.204 16.9353C117.455 17.163 117.776 17.3579 118.125 17.4877C118.892 17.7579 119.785 17.8324 120.565 17.5376C120.969 17.3956 121.303 17.1994 121.554 16.9164Z" fill="#6C8F42"/>
<path d="M125.237 17.4638C125.251 17.4421 125.251 17.4204 125.265 17.3986C125.265 17.3986 125.293 17.3768 125.307 17.3551C125.362 17.2898 125.376 17.2137 125.362 17.1376C125.362 17.0616 125.348 16.9747 125.292 16.9096C125.25 16.8228 125.18 16.7576 125.083 16.6926C124.999 16.6167 124.901 16.5626 124.789 16.5085C124.678 16.4543 124.552 16.4219 124.427 16.4113C124.315 16.3898 124.203 16.3791 124.078 16.3902C124.008 16.4012 123.939 16.423 123.883 16.434C123.758 16.4777 123.66 16.5323 123.604 16.6302C123.591 16.6737 123.563 16.728 123.549 16.7715C123.535 16.8802 123.563 16.978 123.619 17.0756C123.661 17.1299 123.703 17.1733 123.745 17.2275C123.815 17.3035 123.912 17.3685 124.024 17.4226C124.08 17.4551 124.15 17.4767 124.219 17.4983L124.233 17.5092C124.317 17.5633 124.401 17.5957 124.499 17.6173C124.554 17.6281 124.624 17.6388 124.68 17.6495C124.764 17.6602 124.847 17.6492 124.931 17.6274C124.987 17.6273 125.028 17.6055 125.07 17.5837C125.154 17.5618 125.209 17.5291 125.237 17.4638Z" fill="#6C8F42"/>
<path d="M120.431 20.5373L120.459 20.5154L120.473 20.5045C120.557 20.45 120.598 20.3848 120.626 20.2978C120.64 20.2109 120.626 20.1348 120.57 20.0588C120.528 19.9937 120.486 19.9395 120.416 19.8961C120.346 19.8419 120.277 19.7877 120.179 19.7553C120.067 19.7121 119.942 19.6797 119.816 19.6691C119.691 19.6476 119.565 19.6804 119.454 19.7132L119.412 19.7241C119.314 19.7569 119.245 19.8005 119.189 19.8767C119.175 19.9093 119.161 19.9528 119.147 19.9854C119.134 20.0724 119.148 20.1484 119.204 20.2243C119.246 20.2894 119.302 20.3437 119.371 20.3979C119.441 20.4521 119.511 20.5064 119.609 20.5388C119.692 20.5821 119.79 20.6036 119.888 20.6143C119.971 20.6359 120.069 20.6357 120.166 20.6246C120.25 20.6136 120.348 20.5809 120.431 20.5373Z" fill="#6C8F42"/>
<path d="M113.637 39.8014C113.846 39.5728 113.915 39.2902 113.872 39.0078C113.844 38.747 113.662 38.4757 113.453 38.2914C113.146 38.0203 112.769 37.8362 112.322 37.7392C112.225 37.7068 112.141 37.6853 112.043 37.6637C111.667 37.5775 111.276 37.5673 110.872 37.5898C110.579 37.6012 110.245 37.6453 109.966 37.7545C109.604 37.8964 109.297 38.0926 109.075 38.3538C108.88 38.5823 108.825 38.8431 108.867 39.1038C108.895 39.3645 109.091 39.6359 109.3 39.8202C109.552 40.0479 109.873 40.2538 110.222 40.3727C110.989 40.6429 111.882 40.7173 112.662 40.4225C113.066 40.2805 113.386 40.0844 113.637 39.8014Z" fill="#6C8F42"/>
<path d="M117.317 40.3516C117.331 40.3298 117.331 40.3081 117.345 40.2863L117.387 40.2428C117.442 40.1775 117.456 40.1014 117.442 40.0254C117.456 39.9493 117.428 39.8733 117.372 39.7973C117.33 39.7105 117.26 39.6454 117.163 39.5804C117.079 39.5045 116.981 39.4503 116.869 39.3962C116.758 39.342 116.632 39.3097 116.507 39.2991C116.395 39.2776 116.284 39.2669 116.158 39.2889C116.088 39.2999 116.019 39.3108 115.963 39.3327C115.837 39.3764 115.74 39.4417 115.67 39.5288C115.657 39.5722 115.629 39.6266 115.615 39.6701C115.601 39.7788 115.629 39.8766 115.685 39.9742C115.727 40.0285 115.769 40.0719 115.797 40.1262C115.867 40.2021 115.965 40.2672 116.076 40.3213C116.132 40.3538 116.202 40.3754 116.272 40.397L116.299 40.4078C116.383 40.4511 116.467 40.4944 116.565 40.516C116.634 40.5267 116.69 40.5374 116.746 40.5482C116.83 40.5589 116.913 40.5479 116.997 40.526C117.053 40.5259 117.094 40.5041 117.136 40.4823C117.234 40.4496 117.289 40.406 117.317 40.3516Z" fill="#6C8F42"/>
<path d="M112.526 43.4113L112.554 43.4004L112.568 43.3895C112.652 43.3351 112.693 43.2698 112.721 43.1828C112.735 43.0959 112.707 43.0198 112.665 42.9439C112.623 42.8787 112.581 42.8245 112.511 42.7812C112.441 42.727 112.372 42.6727 112.288 42.6403C112.176 42.5862 112.051 42.5646 111.925 42.554C111.8 42.5325 111.674 42.5654 111.563 42.5982L111.521 42.6091C111.423 42.6419 111.34 42.6855 111.298 42.7617C111.284 42.7943 111.27 42.8377 111.256 42.8703C111.243 42.9573 111.257 43.0334 111.313 43.1093C111.355 43.1744 111.411 43.2286 111.48 43.2828C111.55 43.3479 111.62 43.3913 111.718 43.4237C111.801 43.467 111.899 43.4886 111.997 43.4993C112.08 43.5208 112.178 43.5207 112.275 43.5096C112.345 43.4986 112.429 43.4658 112.526 43.4113Z" fill="#6C8F42"/>
<path d="M146.198 12.1874C146.504 11.85 146.489 11.3936 146.335 11.0244C145.986 10.5687 145.483 10.2762 144.883 10.1361C144.786 10.1037 144.702 10.082 144.605 10.0605C144.047 9.94199 143.461 9.96481 142.875 10.0311C142.374 10.1733 141.928 10.4023 141.636 10.7505C141.441 10.9791 141.4 11.2399 141.428 11.5007C141.456 11.7614 141.652 12.0327 141.862 12.217C142.113 12.4448 142.434 12.6397 142.783 12.7695C143.55 13.0397 144.443 13.1142 145.223 12.8194C145.613 12.6665 145.934 12.4704 146.198 12.1874Z" fill="#6C8F42"/>
<path d="M171.851 25.7997C171.865 25.778 171.865 25.7563 171.879 25.7345L171.921 25.6909C171.976 25.6256 171.99 25.5496 171.976 25.4735C171.976 25.3975 171.962 25.3214 171.906 25.2454C171.864 25.1586 171.794 25.0935 171.697 25.0285C171.613 24.9526 171.515 24.8985 171.404 24.8444C171.292 24.7902 171.18 24.7578 171.055 24.7472C170.943 24.7257 170.832 24.715 170.706 24.737C170.636 24.748 170.567 24.7589 170.511 24.7808C170.385 24.8245 170.288 24.8899 170.233 24.9769C170.219 25.0204 170.191 25.0748 170.177 25.1183C170.163 25.227 170.191 25.3247 170.247 25.4224C170.289 25.4658 170.331 25.52 170.359 25.5743C170.429 25.6502 170.527 25.7152 170.638 25.7694C170.694 25.8019 170.764 25.8234 170.834 25.845L170.848 25.8559C170.931 25.8992 171.015 25.9425 171.113 25.9641C171.182 25.9748 171.238 25.9855 171.294 25.9963C171.378 26.007 171.461 25.996 171.545 25.9741C171.601 25.974 171.642 25.9522 171.684 25.9304C171.754 25.8977 171.81 25.8541 171.851 25.7997Z" fill="#6C8F42"/>
<path d="M30.499 37.1505C30.8206 37.6172 31.4903 37.855 32.1178 37.919C32.9822 37.8631 33.679 37.5902 34.208 37.1437C34.3055 37.0784 34.389 37.0129 34.4726 36.9476C34.918 36.5556 35.1962 36.0879 35.4184 35.5876C35.46 35.5115 35.4876 35.3702 35.5014 35.2832C35.5424 34.8159 35.4439 34.3488 35.1364 33.9474C34.8289 33.535 34.2288 33.308 33.643 33.233C33.6151 33.2331 33.5873 33.2331 33.5594 33.2332C32.8763 33.2887 32.1237 33.4748 31.5527 33.8345C30.731 34.3575 30.1188 35.0975 30.1064 35.956C30.1351 36.3688 30.2334 36.7707 30.499 37.1505Z" fill="#6C8F42"/>
<path d="M62.9104 17.5427C62.9383 17.5644 62.9801 17.5969 62.9801 17.5969C62.994 17.6186 63.0221 17.6512 63.0221 17.6512C63.092 17.738 63.1897 17.7921 63.3013 17.8245C63.413 17.8786 63.5384 17.9001 63.6778 17.889C63.8312 17.8887 63.9707 17.8776 64.11 17.8339C64.2634 17.801 64.4026 17.7464 64.5419 17.6701C64.6812 17.6047 64.7927 17.5175 64.8901 17.4087C64.9875 17.3216 65.0569 17.2236 65.1125 17.1149C65.1263 17.0497 65.1401 16.9845 65.1679 16.9192C65.1816 16.7888 65.1397 16.6694 65.0419 16.5609C64.9861 16.5175 64.9301 16.4742 64.8743 16.4308C64.7347 16.355 64.5673 16.3227 64.386 16.323C64.2884 16.3341 64.2049 16.3342 64.1073 16.3452C63.954 16.3673 63.8006 16.411 63.6752 16.4764C63.5916 16.5092 63.536 16.5636 63.4663 16.6072L63.4385 16.6181C63.327 16.6618 63.2155 16.7163 63.132 16.7925C63.0763 16.847 63.0345 16.8905 62.9789 16.9449C62.9093 17.0211 62.8816 17.0973 62.8678 17.1842C62.84 17.2386 62.84 17.2821 62.8541 17.3364C62.8263 17.4125 62.8545 17.4776 62.9104 17.5427Z" fill="#6C8F42"/>
<path d="M61.1583 11.6029C61.1583 11.6138 61.1721 11.6246 61.1722 11.6355C61.2002 11.7441 61.2841 11.8309 61.3818 11.8959C61.4934 11.95 61.6191 11.9824 61.7585 11.9821C61.8701 11.9819 61.9814 11.9708 62.0929 11.938C62.2183 11.9161 62.3298 11.8724 62.4273 11.8179C62.5666 11.7416 62.6781 11.6544 62.7615 11.5456C62.8589 11.4476 62.8728 11.3172 62.9005 11.1977C62.9004 11.1868 62.9003 11.176 62.9142 11.1651C62.928 11.0564 62.8859 10.9695 62.816 10.8827C62.7742 10.8502 62.7184 10.8177 62.6765 10.7743C62.5648 10.7202 62.4255 10.6879 62.3 10.6881C62.1884 10.6883 62.0769 10.6994 61.9654 10.7322C61.8399 10.7541 61.7284 10.7978 61.6309 10.8632C61.5195 10.9177 61.436 10.983 61.3664 11.0701C61.2968 11.1354 61.2271 11.2116 61.1994 11.2986C61.1299 11.3965 61.1302 11.4943 61.1583 11.6029Z" fill="#6C8F42"/>
<path d="M27.547 16.3139C27.8532 15.9765 27.8385 15.5202 27.6845 15.151C27.335 14.6953 26.8325 14.4028 26.2327 14.2627C26.135 14.2303 26.0512 14.2086 25.9536 14.1871C25.3956 14.0686 24.8241 14.0914 24.2247 14.1577C23.723 14.2999 23.2771 14.5289 22.9849 14.8771C22.7901 15.0948 22.7349 15.3666 22.7772 15.6273C22.8055 15.888 22.9874 16.1593 23.2108 16.3436C23.4622 16.5714 23.7832 16.7772 24.132 16.8961C24.8994 17.1663 25.792 17.2408 26.5722 16.946C26.9624 16.7931 27.2965 16.586 27.547 16.3139Z" fill="#6C8F42"/>
<path d="M31.2308 16.8623C31.2447 16.8406 31.2447 16.8189 31.2586 16.7971L31.3002 16.7535C31.3558 16.6882 31.3698 16.6122 31.3558 16.5362C31.3556 16.4601 31.3415 16.384 31.2855 16.3081C31.2436 16.2212 31.1737 16.1562 31.076 16.0912C30.9922 16.0152 30.8945 15.9503 30.7829 15.907C30.6713 15.8529 30.5456 15.8205 30.434 15.8098C30.3224 15.7883 30.211 15.7776 30.0855 15.7887C30.0158 15.7997 29.946 15.8216 29.8903 15.8325C29.7648 15.8762 29.6674 15.9308 29.5979 16.0287C29.584 16.0722 29.5562 16.1266 29.5424 16.1701C29.5286 16.2788 29.5568 16.3765 29.6127 16.4742C29.6546 16.5284 29.6965 16.5718 29.7245 16.6261C29.7943 16.702 29.8921 16.767 30.0038 16.8212C30.0596 16.8537 30.1292 16.8752 30.199 16.8968L30.2269 16.9076C30.3106 16.9509 30.3943 16.9943 30.492 17.0158C30.5617 17.0266 30.6175 17.0373 30.6733 17.0481C30.757 17.0588 30.8407 17.0478 30.9243 17.0259C30.9801 17.0258 31.0218 17.004 31.0636 16.9822C31.1472 16.9603 31.1891 16.9168 31.2308 16.8623Z" fill="#6C8F42"/>
<path d="M26.4259 19.9241L26.4538 19.9132L26.4676 19.9023C26.5511 19.8478 26.5929 19.7826 26.6206 19.6956C26.6344 19.6086 26.6064 19.5326 26.5644 19.4566C26.5225 19.3915 26.4666 19.3373 26.4107 19.2939C26.3409 19.2397 26.2711 19.1855 26.1734 19.1531C26.0618 19.099 25.9362 19.0775 25.8107 19.0669C25.6852 19.0454 25.5598 19.0782 25.4483 19.111L25.4066 19.1219C25.309 19.1547 25.2393 19.1983 25.1837 19.2744C25.1698 19.3071 25.1561 19.3506 25.1422 19.3832C25.1284 19.4701 25.1425 19.5461 25.1984 19.6221C25.2403 19.6872 25.2961 19.7415 25.3659 19.7957C25.4357 19.8499 25.5055 19.904 25.6032 19.9365C25.6869 19.9798 25.7846 20.0014 25.8822 20.012C25.9659 20.0336 26.0636 20.0334 26.1612 20.0224C26.2448 20.0114 26.3423 19.9786 26.4259 19.9241Z" fill="#6C8F42"/>
<path d="M52.1774 11.5876C52.4835 11.2502 52.4689 10.7939 52.3148 10.4139C51.9654 9.95812 51.4629 9.66566 50.863 9.5255C50.7654 9.49308 50.6816 9.47146 50.584 9.4499C50.026 9.3314 49.4545 9.3542 48.855 9.42049C48.3533 9.56267 47.9075 9.79169 47.6153 10.1399C47.4205 10.3685 47.3792 10.6293 47.4075 10.8901C47.4359 11.1508 47.6317 11.4221 47.8412 11.6065C48.0926 11.8342 48.4136 12.04 48.7624 12.1589C49.5298 12.4291 50.4223 12.5036 51.2026 12.2088C51.6067 12.0668 51.9269 11.8597 52.1774 11.5876Z" fill="#6C8F42"/>
<path d="M77.8455 25.2008C77.8594 25.179 77.8594 25.1573 77.8733 25.1356C77.8733 25.1356 77.9012 25.1137 77.9151 25.092C77.9708 25.0267 77.9846 24.9506 77.9705 24.8746C77.9703 24.7985 77.9562 24.7224 77.9003 24.6465C77.8583 24.5596 77.7885 24.4946 77.7048 24.4296C77.621 24.3536 77.5231 24.2995 77.4115 24.2454C77.2998 24.1913 77.1883 24.1588 77.0628 24.1482C76.9512 24.1267 76.8397 24.116 76.7142 24.1271C76.6445 24.1381 76.5748 24.16 76.519 24.1709C76.3936 24.2146 76.296 24.2691 76.2404 24.367C76.2266 24.4105 76.1988 24.4649 76.185 24.5084C76.1712 24.617 76.1993 24.7148 76.2553 24.8125C76.2972 24.8667 76.3391 24.9101 76.3671 24.9644C76.4369 25.0403 76.5347 25.1054 76.6463 25.1595C76.7022 25.192 76.772 25.2136 76.8418 25.2352L76.8557 25.246C76.9394 25.3002 77.0231 25.3327 77.1207 25.3542C77.1765 25.365 77.2463 25.3757 77.3021 25.3865C77.3857 25.3972 77.4695 25.3862 77.5531 25.3643C77.6089 25.3642 77.6506 25.3424 77.6924 25.3206C77.7481 25.2988 77.8038 25.2552 77.8455 25.2008Z" fill="#6C8F42"/>
<path d="M112.526 43.4113L112.554 43.4004L112.568 43.3895C112.652 43.3351 112.693 43.2698 112.721 43.1828C112.735 43.0959 112.707 43.0198 112.665 42.9439C112.623 42.8787 112.581 42.8245 112.511 42.7812C112.441 42.727 112.372 42.6727 112.288 42.6403C112.176 42.5862 112.051 42.5646 111.925 42.554C111.8 42.5325 111.674 42.5654 111.563 42.5982L111.521 42.6091C111.423 42.6419 111.34 42.6855 111.298 42.7617C111.284 42.7943 111.27 42.8377 111.256 42.8703C111.243 42.9573 111.257 43.0334 111.313 43.1093C111.355 43.1744 111.411 43.2286 111.48 43.2828C111.55 43.3479 111.62 43.3913 111.718 43.4237C111.801 43.467 111.899 43.4886 111.997 43.4993C112.08 43.5208 112.178 43.5207 112.275 43.5096C112.345 43.4986 112.429 43.4658 112.526 43.4113Z" fill="#6C8F42"/>
</svg>
