<svg width="505" height="461" viewBox="0 0 505 461" fill="none" xmlns="http://www.w3.org/2000/svg">
<path d="M458.316 181.562C465.674 181 473.007 179.999 480.248 178.575C481.983 178.233 483.137 176.069 482.604 174.425C482.007 172.579 480.312 171.702 478.454 172.069C475.36 172.677 461.869 174.515 460.325 174.65C454.043 175.201 447.733 175.421 441.429 175.314C435.176 175.208 415.479 172.994 413.952 172.726C410.847 172.182 407.755 171.557 404.682 170.852C399.645 169.696 394.661 168.318 389.743 166.731C400.582 159.003 410.925 150.513 421.211 142.051C422.276 141.175 423.352 140.277 424.419 139.357C428.417 141.51 432.505 143.5 436.716 145.26C441.68 147.335 446.776 149.038 451.99 150.362C454.095 150.896 454.993 147.643 452.887 147.109C443.837 144.812 435.296 141.255 427.118 136.948C433.195 131.311 438.422 124.769 438.901 116.722C432.51 122.077 426.064 127.428 419.539 132.697C413.583 129.156 407.807 125.285 402.157 121.281C398.539 118.717 394.964 116.092 391.396 113.459C396.975 111.826 402.481 109.942 407.891 107.808C411.937 106.211 415.932 104.483 419.866 102.627C420.69 102.238 420.902 101.056 420.471 100.318C419.977 99.474 418.99 99.323 418.163 99.713C404.587 106.119 384.036 112.884 368.46 112.611C364.646 112.544 385.936 80.531 386.628 79.703C387.759 78.351 388.052 76.239 386.628 74.932C385.379 73.786 383.065 73.487 381.857 74.932C372.035 86.676 363.922 99.7819 357.878 113.851C355.832 118.613 351.814 126.925 351.759 126.797C351.73 126.726 348.855 119.438 347.83 116.44C345.813 110.54 344.126 104.525 342.776 98.436C342.09 95.343 340.227 83.9969 340.213 83.8769C340.162 83.4779 338.835 67.7369 338.882 61.4499C338.908 57.9299 340.286 41.101 340.288 41.081C340.294 41.038 340.305 40.967 340.321 40.844C340.451 39.905 338.769 36.877 337.965 36.694C336.378 36.333 334.072 37.18 333.815 39.05C332.033 51.975 331.643 65.028 332.829 78.027C334.013 91.001 336.594 103.848 340.653 116.231C342.968 123.294 349.386 137.569 349.693 137.817C347.948 144.587 346.632 151.472 345.765 158.451C344.774 166.419 344.417 174.458 344.685 182.482C335.081 187.118 325.182 191.125 314.931 194.328C288.25 202.665 256.995 207.129 241.069 230.1C230.131 211.134 227.478 189.209 225.385 167.134C225.424 167.104 225.465 167.081 225.504 167.049C233.544 160.3 240.892 152.749 247.475 144.574C254.177 136.254 260.147 127.371 265.332 118.029C270.555 108.619 274.998 98.7749 278.76 88.6949C282.479 78.7289 285.495 68.504 287.862 58.135C288.293 56.248 288.694 54.355 289.082 52.458C296.558 49.54 323.744 34.712 322.591 32.673C321.537 30.809 318.649 31.445 318.537 33.581C318.529 33.746 318.546 33.894 318.575 34.034C318.534 34.0611 317.202 34.955 316.57 35.363C315.386 36.127 307.989 40.3929 305.431 41.6739C300.353 44.2169 295.13 46.451 289.853 48.545C291.258 41.1 285.516 33.478 285.53 33.371C285.394 34.617 283.409 46.666 282.424 51.413C274.04 54.587 265.607 57.6369 257.379 61.2049C252.426 63.3529 247.56 65.706 242.866 68.371C242.711 67.405 241.061 51.833 240.681 44.99C240.24 37.051 239.799 29.111 239.358 21.172C239.238 19.013 235.863 18.999 235.984 21.172C236.379 28.278 236.774 35.3849 237.168 42.4919C237.561 49.5569 237.905 56.6329 238.794 63.658C239.072 65.851 244.743 92.285 248.293 101.489C250.689 107.705 253.463 113.772 256.6 119.648C252.927 125.806 228.174 155.711 224.617 158.898C223.978 152.093 223.301 145.306 222.36 138.621C218.349 110.145 209.101 82.431 195.322 57.193C201.499 50.05 207.546 42.796 213.446 35.422C217.005 30.972 202.539 43.6839 193.584 54.0649C189.167 46.2529 184.317 38.688 179.043 31.426C180.602 41.069 185.009 49.842 189.751 58.467C187.466 61.073 185.17 63.67 182.849 66.243C179.865 69.554 176.841 72.828 173.798 76.084C172.099 74.74 170.423 73.369 168.777 71.962C170.078 66.961 171.644 61.926 171.721 56.748C172.041 35.35 170.097 20.172 169.048 30.451C168.945 31.453 166.327 33.133 168.347 56.748C168.716 61.059 166.991 65.2879 165.951 69.4809C162.313 66.216 158.824 62.785 155.566 59.14C154.484 57.93 150.753 53.389 150.698 53.319C150.606 53.199 150.424 52.961 150.425 52.963C150.2 52.668 145.896 46.6071 144.175 43.7371C143.268 42.2231 141.102 41.532 139.559 42.527C138.037 43.507 137.377 45.523 138.349 47.142C144.546 57.48 152.598 66.627 161.579 74.629C162.354 75.319 163.146 75.991 163.935 76.666C161.883 83.227 159.308 89.63 156.359 95.824C155.256 98.14 154.089 100.423 152.893 102.69C152.561 102.444 139.735 100.627 136.262 99.7519C129.245 97.9809 122.575 94.991 116.578 90.941C113.224 88.676 110.124 86.07 107.292 83.18C105.77 81.627 103.385 84.013 104.906 85.566C114.754 95.614 127.988 102.324 141.923 104.293C143.92 104.575 150.805 106.036 150.942 106.311C146.123 115.021 140.703 123.401 135.016 131.564C131.419 136.727 127.71 141.809 123.96 146.862C121.744 141.094 119.253 135.43 116.529 129.891C112.128 120.944 107.09 112.315 101.557 104.021C100.866 102.985 94.1244 91.777 93.4184 90.751C92.4204 89.3 89.3143 89.713 87.7053 90.751C86.2623 91.682 92.5654 102.778 93.6354 104.334C99.2294 112.466 104.361 120.918 108.886 129.691C111.17 134.12 122.799 164.552 123.858 168.724C107.478 171.143 90.6424 170.731 74.4004 167.527C69.7364 166.606 65.1204 165.457 60.5664 164.093C58.4824 163.469 57.5914 166.724 59.6704 167.346C76.2004 172.297 93.6113 174.37 110.841 173.415C115.466 173.158 120.072 172.669 124.654 171.991C125.685 176.428 127.418 223.679 127.413 223.72C127.406 223.768 127.398 223.824 127.387 223.897C127.327 224.303 126.38 230.07 126.097 231.476C125.207 235.902 124.069 240.274 122.703 244.576C119.995 242.607 117.225 240.728 114.391 238.956C105.713 233.529 96.4524 229.2 86.8574 225.657C75.8914 221.607 50.6494 213.884 49.2244 213.433C47.5404 212.902 45.4684 214.059 45.0744 215.789C44.6554 217.628 45.6284 219.37 47.4304 219.939C58.5194 223.442 69.6804 226.776 80.6674 230.589C83.3544 231.523 89.9514 234.042 90.5874 234.301C81.1554 246.602 69.3324 257.059 56.0044 264.968C51.9364 267.381 47.7304 269.555 43.4114 271.486C42.5794 271.858 42.3824 273.069 42.8064 273.794C43.3074 274.651 44.2794 274.773 45.1144 274.399C60.7494 267.41 74.9254 257.13 86.4594 244.472C89.0314 241.649 91.4644 238.7 93.7694 235.655C94.4004 235.932 103.912 240.557 107.873 242.891C111.871 245.246 128.004 257.34 129.715 258.876C133.169 261.978 136.471 265.248 139.606 268.672C141.159 270.368 146.973 277.393 147.034 277.463C147.008 277.434 146.98 277.401 146.941 277.357C147.337 277.81 158.379 294.151 162.324 302.503C162.436 302.741 162.541 302.983 162.652 303.223C149.871 312.558 137.017 321.814 123.933 330.702C115.611 325.132 77.8944 306.3 67.4304 302.711C64.4794 301.698 61.5094 300.744 58.5214 299.848C55.3904 298.909 52.2354 297.787 48.9284 298.249C48.0254 298.376 47.5314 299.528 47.7494 300.324C48.0174 301.297 48.9184 301.63 49.8244 301.503C51.1094 301.323 56.3114 302.707 57.6234 303.101C60.1774 303.868 62.7194 304.676 65.2464 305.527C67.8004 306.387 72.6234 308.782 72.5934 309.092C71.5734 319.731 68.4214 330.177 63.4204 339.619C61.9794 342.34 60.3854 344.974 58.6564 347.52C57.4324 349.321 60.3544 351.01 61.5694 349.223C67.8224 340.019 72.2634 329.558 74.5314 318.662C75.1674 315.607 75.6244 312.517 75.9324 309.412C77.4164 309.99 99.9974 320.111 109.305 325.527C113.243 327.818 117.114 330.222 120.914 332.732C104.483 343.79 87.6763 354.242 70.1693 363.502C72.9483 364.635 76.0783 363.432 78.8253 362.223C114.759 346.418 149.43 327.746 182.403 306.442C185.107 304.696 187.804 302.919 190.485 301.11C188.886 308.245 186.878 315.286 184.461 322.188C183.602 324.639 179.271 335.392 179.007 335.986C176.914 340.696 155.195 375.985 155.112 376.091C155.104 376.101 152.618 379.223 152.267 379.654C137.171 374.197 121.168 371.258 105.119 370.976C100.431 370.894 95.7424 371.045 91.0694 371.418C90.1614 371.491 89.3823 372.142 89.3823 373.106C89.3823 373.962 90.1554 374.866 91.0694 374.793C107.553 373.478 124.201 375.01 140.159 379.349C143.47 380.249 146.746 381.274 149.984 382.41C148.625 384.017 138.783 394.689 135.039 398.228C131.264 401.796 118.734 411.984 117.686 412.752C115.626 414.263 109.248 418.595 108.155 419.297C106.672 420.25 105.928 422.337 106.945 423.913C107.901 425.396 109.973 426.144 111.561 425.123C120.469 419.401 128.91 412.925 136.76 405.821C138.473 404.27 140.153 402.684 141.808 401.073C144.846 413.451 146.606 426.11 147.018 438.854C147.088 441.019 150.462 441.029 150.392 438.854C150.038 427.89 148.725 416.952 146.462 406.217C145.903 403.565 145.273 400.928 144.598 398.303C149.385 393.453 153.921 388.355 158.176 383.032C164.795 374.751 170.799 365.991 176.046 356.777C181.311 347.531 185.819 337.852 189.553 327.889C193.199 318.16 198.345 296.333 198.491 295.533C211.685 286.016 223.964 275.316 233.232 262.045C234.984 259.537 237.519 256.588 240.45 257.465C241.477 257.772 242.304 258.522 243.089 259.252C251.339 266.921 259.314 274.886 267.003 283.116C258.766 299.494 248.772 337.419 248.555 338.637C237.356 349.706 226.415 361.065 216.357 373.192C206.116 385.539 196.744 398.685 189.275 412.907C185.075 420.905 181.486 429.232 178.666 437.816C178.078 439.607 180.919 440.854 181.749 439.116C182.501 437.542 183.253 435.967 184.004 434.392C184.26 433.856 203.578 395.702 203.879 395.257C212.259 405.552 218.5 417.58 222.168 430.332C223.216 433.974 224.051 437.675 224.682 441.412C224.833 442.312 225.943 442.814 226.757 442.59C227.71 442.328 228.088 441.417 227.936 440.516C225.654 426.994 220.588 413.929 213.182 402.387C211.057 399.076 205.957 392.581 205.78 392.501C213.974 380.831 223.218 369.926 232.927 359.492C237.726 354.335 242.645 349.292 247.629 344.312C245.209 360.383 244.636 376.734 246.065 392.925C247.029 403.849 248.845 414.702 251.564 425.326C252.002 427.036 254.002 428.237 255.714 427.682C257.479 427.111 258.539 425.364 258.07 423.532C256.892 418.928 253.753 401.482 253.748 401.447C253.743 401.408 253.582 400.154 253.511 399.577C253.37 398.423 251.821 377.138 252.175 367.641C252.294 364.451 252.495 361.262 252.764 358.08C256.722 360.662 265.418 367.118 265.706 367.347C266.318 367.832 280.415 381.594 281.509 381.66C281.589 381.664 281.668 381.673 281.747 381.678C284.726 384.668 308.764 416.123 312.038 422.084C312.889 423.632 315.151 424.263 316.654 423.294C318.223 422.282 318.775 420.334 317.864 418.678C311.862 407.751 304.725 397.464 296.673 387.949C295.285 386.309 293.859 384.703 292.415 383.112C301.894 385.058 311.004 388.751 319.17 393.964C322.333 395.983 325.338 398.226 328.172 400.685C328.86 401.282 329.881 401.361 330.558 400.685C331.168 400.075 331.249 398.899 330.558 398.299C319.988 389.126 307.092 382.705 293.382 379.861C291.795 379.532 290.195 379.262 288.591 379.028C282.859 373.088 276.738 367.523 270.26 362.406C264.896 358.169 253.734 348.951 253.801 348.449C253.822 348.295 254.739 342.217 255.152 339.926C256.838 330.574 259.178 321.34 262.161 312.318C262.983 309.833 267.485 298.072 267.558 297.896C267.56 297.893 267.56 297.891 267.562 297.887C268.923 294.697 270.372 291.545 271.894 288.43C304.072 323.928 330.967 364.219 351.324 407.594C353.705 412.668 356.247 418.075 361.005 421.039C351.243 376.726 327.671 337.525 299.681 301.295C306.78 299.314 321.866 296.674 322.147 296.641C321.297 296.741 343.747 295.107 348.374 295.201C353.002 295.295 372.362 297.348 374.211 297.67C371.381 308.121 369.953 318.958 369.937 329.783C369.932 333.179 370.334 339.969 370.331 339.97C369.431 340.116 372.799 357.682 374.813 364.683C376.664 371.117 379.056 377.391 381.926 383.44C382.317 384.263 383.496 384.477 384.234 384.045C385.076 383.552 385.231 382.563 384.839 381.736C379.913 371.358 376.558 360.251 374.769 348.907C374.45 346.883 374.202 344.849 373.987 342.811C388.665 340.797 403.736 341.639 418.106 345.221C422.463 346.307 426.754 347.646 430.96 349.219C431.814 349.538 432.809 348.864 433.035 348.041C433.295 347.096 432.713 346.286 431.857 345.966C416.643 340.273 400.237 337.727 384.012 338.512C380.554 338.68 377.107 339.006 373.677 339.471C373.04 331.228 373.232 322.913 374.253 314.719C374.944 309.172 376.059 303.674 377.537 298.281C385.899 299.902 394.146 302.121 402.183 304.945C404.247 305.67 406.294 306.443 408.329 307.246C410.564 313.286 413.238 319.166 416.335 324.806C419.031 329.714 422.053 334.437 425.373 338.946C425.912 339.679 426.836 340.046 427.681 339.552C428.404 339.129 428.829 337.982 428.286 337.243C422.475 329.351 417.591 320.795 413.738 311.783C413.343 310.861 412.968 309.931 412.596 309C413.761 309.504 414.921 310.02 416.074 310.55C420.794 312.722 425.408 315.114 429.905 317.716C431.434 318.6 433.668 318.121 434.521 316.505C435.373 314.894 434.943 312.833 433.311 311.889C425.709 307.492 417.758 303.696 409.567 300.51C407.846 295.082 406.481 289.54 405.493 283.942C404.538 278.528 404.081 265.874 404.699 265.746C406.763 265.318 424.889 262.824 429.026 262.603C438.5 262.098 448.008 262.4 457.433 263.486C459.192 263.689 460.882 261.79 460.807 260.112C460.718 258.111 459.318 256.956 457.433 256.739C444.736 255.275 431.903 255.277 419.211 256.67C423.503 250.089 428.492 243.979 434.089 238.447C439.846 232.758 446.214 227.714 453.051 223.394C456 226.332 459.015 229.202 462.098 231.997C466.522 236.007 471.082 239.863 475.766 243.565C476.496 244.143 477.181 244.553 478.152 244.553C478.98 244.553 479.968 244.186 480.537 243.565C481.655 242.348 482.016 239.963 480.537 238.794C473.043 232.869 465.872 226.541 459.06 219.844C464.026 217.126 469.191 214.794 474.522 212.888C475.379 212.581 475.955 211.739 475.7 210.813C475.472 209.984 474.487 209.327 473.625 209.635C467.739 211.739 462.04 214.339 456.584 217.379C453.088 213.85 430.702 185.306 430.7 185.302C430.651 185.18 430.601 185.059 430.553 184.936C430.113 183.803 429.763 182.641 429.493 181.457C439.074 182.25 448.721 182.294 458.316 181.562ZM319.512 33.384C319.496 33.392 319.375 33.478 319.258 33.562C319.242 33.574 319.225 33.5839 319.209 33.5959C318.995 32.8769 320.022 33.146 319.512 33.384ZM246.227 84.246C245.14 80.174 244.23 76.055 243.469 71.909C253.788 65.9061 264.944 61.563 276.097 57.375C277.921 56.689 279.749 56.0069 281.576 55.3199C279.468 64.7329 276.833 74.0309 273.62 83.1269C272.759 85.5649 271.857 87.987 270.913 90.394C270.426 91.637 269.927 92.875 269.416 94.109C269.297 94.397 269.178 94.6839 269.057 94.9709C269.039 95.0139 268.99 95.132 268.951 95.224C268.943 95.245 268.935 95.262 268.931 95.272C268.652 95.925 268.371 96.5789 268.087 97.2309C266.011 101.983 263.763 106.66 261.336 111.242C260.451 112.912 259.534 114.563 258.601 116.205C253.336 106.035 249.182 95.316 246.227 84.246ZM221.137 21.866C221.116 21.873 221.096 21.88 221.076 21.884C221.067 21.882 221.062 21.874 221.059 21.863C221.181 21.809 221.172 21.841 221.137 21.866ZM151.023 105.451C151.017 105.446 151.018 105.451 151.013 105.448C151.011 105.446 151.01 105.443 151.009 105.441C151.014 105.445 151.018 105.447 151.023 105.451ZM191.478 61.592C192.892 64.131 194.308 66.665 195.663 69.212C200.88 79.017 205.25 89.268 208.746 99.809C204.624 97.3849 200.684 94.6819 196.715 92.0019C191.705 88.6199 186.571 85.439 181.638 81.942C180.414 81.075 179.199 80.196 177.992 79.303C177.482 78.925 176.974 78.544 176.467 78.161C181.554 72.714 186.558 67.189 191.478 61.592ZM227.108 234.807C226.171 260.438 192.986 280.981 174.708 294.39C172.532 295.987 170.355 297.583 168.178 299.178C164.666 291.74 160.485 284.623 155.705 277.927C150.169 270.17 143.91 262.932 136.972 256.398C134.205 253.793 131.329 251.297 128.364 248.911C131.636 239.327 133.675 229.371 134.663 219.294C135.667 209.058 135.508 198.716 134.321 188.502C133.122 178.183 130.963 168.01 127.869 158.093C127.085 155.579 126.242 153.084 125.349 150.607C133.349 139.876 141.208 129.022 148.235 117.623C155.579 105.707 162.026 93.147 166.447 79.838C166.54 79.559 166.624 79.277 166.715 78.998C169.759 81.494 172.878 83.899 176.061 86.213C180.956 89.772 186.043 93.016 191.09 96.348C196.855 100.153 202.442 104.188 208.548 107.446C209.352 107.876 210.323 107.972 211.196 107.744C215.944 124.342 218.546 141.554 218.847 158.814C219.123 174.628 218.026 190.465 220.93 206.113C222.659 215.419 227.458 225.232 227.108 234.807ZM352.159 161.522C352.251 160.636 352.351 159.752 352.458 158.867C352.515 158.401 352.575 157.936 352.634 157.471C352.635 157.463 352.636 157.451 352.638 157.442C352.67 157.193 352.706 156.944 352.742 156.696C353.005 154.84 353.302 152.987 353.632 151.14C354.283 147.494 355.064 143.869 355.971 140.278C357.774 133.137 360.076 126.123 362.852 119.301C363.167 119.403 363.519 119.426 363.873 119.376C371.638 118.291 379.334 116.729 386.907 114.709C387.148 114.883 387.455 114.99 387.828 114.998C397.227 121.946 406.72 128.898 416.728 134.955C396.062 151.497 374.549 167.073 351.351 179.125C351.284 173.249 351.55 167.37 352.159 161.522ZM405.028 297.116C405.206 297.754 405.403 298.386 405.591 299.02C397.322 296.032 388.83 293.659 380.216 291.943C371.925 290.292 363.519 289.215 355.08 288.726C355.995 287.908 356.92 287.103 357.872 286.327C358.189 286.069 358.509 285.812 358.83 285.558C358.978 285.441 359.126 285.325 359.275 285.208C359.295 285.193 359.308 285.184 359.332 285.165C360.058 284.616 360.788 284.074 361.529 283.546C362.938 282.542 364.377 281.58 365.841 280.659C368.858 278.763 371.985 277.04 375.189 275.479C376.757 274.715 378.343 273.991 379.945 273.302C380.015 273.273 380.086 273.242 380.156 273.213C380.207 273.191 380.591 273.031 380.665 273C381.005 272.86 381.346 272.722 381.687 272.584C382.541 272.241 383.399 271.908 384.262 271.586C389.584 269.591 395.043 267.973 400.574 266.664C400.428 266.905 400.342 267.201 400.356 267.562C400.766 277.549 402.335 287.492 405.028 297.116ZM422.843 182.638C423.876 187.762 426.532 192.411 429.588 196.589C432.785 200.959 436.278 205.132 439.822 209.223C443.301 213.24 446.902 217.151 450.617 220.95C448.903 222.049 447.209 223.179 445.556 224.37C436.952 230.568 429.181 237.906 422.59 246.218C419.805 249.731 417.22 253.393 414.866 257.202C411.811 257.615 408.766 258.105 405.735 258.679C391.367 261.4 377.158 266.068 364.537 273.552C357.642 277.64 351.221 282.615 345.697 288.433C338.372 288.395 331.047 288.805 323.772 289.691C314.095 290.869 304.536 292.798 295.193 295.569C283.887 281.284 271.963 267.45 260.007 253.934C255.281 248.591 250.208 241.488 253.102 234.969C254.392 232.064 257.046 230.029 259.66 228.221C291.588 206.15 331.781 199.794 366.055 181.577C371.826 178.509 377.396 175.112 382.827 171.498C394.956 175.814 407.499 178.765 420.256 180.467C421.14 180.585 422.026 180.681 422.911 180.786C422.745 181.356 422.711 181.985 422.843 182.638Z" fill="#93733E"/>
<path d="M93.0342 94.3541C99.6332 89.7821 109.403 89.2251 113.404 82.2661C115.735 78.2121 115.286 73.121 116.992 68.768C121.123 58.232 134.989 56.391 144.342 50.018C149.972 46.182 154.321 40.3371 160.687 37.9111C170.444 34.1901 181.343 39.68 191.718 38.502C195.97 38.019 200.334 36.424 204.405 37.746C206.946 38.571 208.989 40.4341 211.259 41.8441C218.212 46.1631 226.928 46.08 235.11 45.861C239.404 45.746 243.846 45.5961 247.716 43.7331C251.586 41.8691 254.74 37.794 254.126 33.544C253.566 29.673 250.237 26.8901 247.145 24.4941C234.996 15.0861 221.791 5.269 206.443 4.513C199.266 4.159 192.164 5.84903 185.015 6.56903C161.862 8.89703 135.498 1.82508 117.214 16.2181C109.507 22.2851 104.524 31.4801 96.2461 36.7391C88.8081 41.4651 78.9021 42.9241 73.7471 50.0711C68.5751 57.2411 70.3162 67.272 67.1392 75.523C65.1452 80.698 61.3052 84.935 58.7382 89.851C52.8572 101.116 54.1841 114.623 55.6621 127.244C57.7911 145.421 67.4691 142.502 74.0311 129.591C79.5161 118.794 82.6122 101.576 93.0342 94.3541Z" fill="#7EBB15"/>
<path d="M31.606 296.83C30.371 304.699 32.5561 312.685 32.5731 320.651C32.5911 328.478 30.5771 336.707 33.6921 343.888C35.8591 348.884 40.255 352.635 42.523 357.586C45.772 364.677 44.181 372.964 45.388 380.67C47.055 391.312 54.5411 400.856 64.4801 405.009C70.0121 407.321 76.2201 408.077 81.2801 411.294C85.7321 414.124 88.8471 418.575 92.4721 422.407C110.408 441.365 139.149 444.05 165.204 445.544C175.549 446.138 188.374 445.343 192.745 435.947C194.053 433.135 194.207 429.52 192.191 427.165C188.415 422.751 181.372 425.836 175.564 425.959C166.855 426.144 160.001 418.985 152.223 415.063C143.867 410.848 106.603 400.503 104.054 391.498C102.702 386.725 103.522 381.605 102.749 376.705C101.734 370.271 98.0551 364.599 94.1861 359.36C86.1051 348.422 76.793 338.394 66.481 329.528C63.157 326.67 59.6281 323.806 57.6981 319.871C54.6081 313.572 56.2771 306.127 56.5351 299.115C57.2861 278.66 34.713 277.036 31.606 296.83Z" fill="#7EBB15"/>
<path d="M314.589 405.275C320.674 403.305 325.538 398.619 331.499 396.301C342.629 391.975 356.118 396.392 366.559 390.598C373.963 386.49 377.913 378.285 383.478 371.904C394.741 358.989 414.44 350.932 416.196 333.886C417.485 321.368 408.238 306.914 416.302 297.253C420.401 292.342 427.815 290.862 431.254 285.468C434.452 280.453 433.761 272.739 438.931 269.797C444.201 266.799 450.889 272.149 452.176 278.073C453.462 283.998 451.458 290.077 450.867 296.111C449.434 310.752 456.354 325.629 453.043 339.962C450.822 349.576 444.26 357.61 440.991 366.919C437.151 377.856 437.838 390.525 431.269 400.075C420.744 415.376 398.404 414.607 381.052 421.225C370.701 425.174 361.535 432.168 350.747 434.691C340.811 437.014 330.43 435.329 320.367 433.636C310.681 432.006 300.994 430.377 291.308 428.747C285.984 427.851 280.311 426.786 276.432 423.031C256.407 403.65 309.724 406.85 314.589 405.275Z" fill="#78A015"/>
<path d="M439.945 142.641C441.146 146.988 441.366 151.648 443.357 155.694C445.827 160.714 450.684 164.114 453.855 168.723C457.533 174.069 458.728 180.685 459.834 187.078C463.865 210.373 466.961 237.261 451.305 254.974C448.421 258.238 445.001 261.022 442.35 264.478C433.649 275.816 434.859 291.624 436.484 305.824C440.614 307.855 445.621 304.996 448.339 301.283C451.058 297.569 452.488 293.007 455.402 289.444C462.064 281.297 474.521 280.417 482.152 273.17C492.266 263.565 490.238 247.376 492.153 233.56C494.564 216.155 504.339 200.095 504.66 182.527C504.967 165.722 496.577 150.058 487.447 135.946C479.005 122.897 468.941 109.771 454.472 104.093C446.555 100.987 400.052 101.063 405.408 118.298C407.169 123.964 417.671 121.454 422.566 123.317C430.791 126.444 437.621 134.229 439.945 142.641Z" fill="#78A015"/>
<path d="M180.857 439.091C184.491 445.216 191.865 448.014 198.869 449.3C205.873 450.586 213.201 450.847 219.68 453.803C224.508 456.006 228.774 459.67 234.001 460.585C242.423 462.061 250.076 456.113 257.415 451.725C263.59 448.032 270.302 445.26 276.289 441.268C282.275 437.276 287.668 431.729 289.393 424.743C291.118 417.758 288.111 409.309 281.432 406.633C269.94 402.029 259.238 415.752 246.954 417.291C243.229 417.759 239.419 417.064 235.712 417.66C227.479 418.984 220.321 426.506 212.148 424.851C203.741 423.15 201.201 413.981 194.796 409.571C190.537 406.638 170.805 399.472 166.216 400.752C154.729 403.952 162.697 410.868 166.269 414.237C170.761 418.475 173.552 418.373 176.457 424.726C178.551 429.312 178.199 434.612 180.857 439.091Z" fill="#78A015"/>
<path d="M49.0912 178.386C49.0042 182.383 49.9862 186.426 49.2042 190.347C48.3842 194.462 45.7252 197.939 44.0682 201.793C41.3862 208.031 41.4013 215.081 42.0193 221.843C43.7653 240.971 50.0402 259.671 60.1862 275.981C61.5692 278.203 63.0672 280.514 63.2212 283.128C63.6332 290.106 55.1313 293.668 48.3003 295.151C43.8443 296.118 38.9332 297.019 34.9332 294.831C31.8492 293.144 29.9522 289.946 28.2032 286.896C22.2062 276.443 16.2102 265.989 10.2142 255.536C4.9992 246.445 -0.390753 236.61 0.509247 226.169C1.36525 216.248 7.80915 207.568 9.26315 197.717C11.0932 185.321 5.06117 171.454 11.5592 160.74C16.7792 152.134 27.8662 149.498 35.9482 143.499C39.7892 140.647 42.9832 136.99 46.8742 134.207C56.7472 127.145 70.9282 126.75 81.1782 133.253C96.0232 142.669 75.0003 147.22 69.0143 150.821C59.2653 156.685 49.3542 166.276 49.0912 178.386Z" fill="#7EBB15"/>
<path d="M263.22 39.691C272.161 45.212 283.545 40.5451 293.899 38.7531C312.857 35.4711 331.907 42.558 349.843 49.52C363.583 54.853 379.149 62.192 382.505 76.543C383.555 81.034 383.589 86.45 387.361 89.106C389.924 90.91 393.346 90.713 396.352 91.6C402.107 93.298 405.79 98.709 410.177 102.803C414.564 106.897 421.789 109.726 426.282 105.748C430.149 102.325 429.416 96.206 428.359 91.151C426.692 83.169 425.024 75.187 423.356 67.205C421.944 60.445 420.346 53.317 415.616 48.286C406.133 38.197 388.75 40.924 377.758 32.505C367.276 24.477 364.641 7.83597 352.441 2.78797C348.357 1.09797 343.808 1.04798 339.388 1.02198C331.161 0.974981 322.933 0.92799 314.707 0.88099C309.338 0.84999 303.848 0.838045 298.772 2.58704C295.04 3.87304 291.687 6.06205 288.041 7.57105C278.193 11.6481 266.834 10.555 256.891 14.393C246.947 18.232 239.026 31.507 246.298 39.299C250.857 44.184 258.738 43.858 265.096 41.803L263.22 39.691Z" fill="#7EBB15"/>
<path d="M97.6982 185.812C97.5632 189.133 97.9423 192.482 97.4873 195.775C96.7583 201.053 93.9632 205.776 91.6462 210.575C86.3312 221.582 83.3332 233.702 82.9032 245.918C82.7352 250.707 82.9892 255.651 84.9802 260.01C86.5402 263.423 89.0743 266.281 91.5713 269.082C95.5513 273.548 99.5322 278.013 103.512 282.477C107.644 287.113 112.219 292.01 118.309 293.22C124.4 294.429 131.894 289.649 130.823 283.532C130.406 281.148 128.84 279.156 127.425 277.192C121.526 269.007 117.397 259.138 117.935 249.064C118.473 238.989 124.408 228.874 133.831 225.267C135.875 224.485 138.068 223.996 139.883 222.773C145.228 219.174 144.954 211.298 143.593 205C142.232 198.701 140.579 191.43 144.563 186.365C148.249 181.679 155.144 181.119 159.972 177.622C167.81 171.943 168.146 160.596 167.721 150.926C167.149 137.939 136.473 152.805 129.485 154.711C113.065 159.188 98.5012 166.053 97.6982 185.812Z" fill="#94D31A"/>
<path d="M275.926 371.048C288.78 372.756 303.227 371.362 312.382 362.178C316.04 358.509 318.588 353.84 322.327 350.254C328.855 343.994 338.118 341.776 346.609 338.661C355.1 335.547 363.967 330.416 366.509 321.735C368.744 314.103 365.416 305.931 366.169 298.013C366.806 291.312 370.341 285.1 370.674 278.376C371.007 271.651 365.637 263.719 359.139 265.482C350.871 267.726 352.674 280.624 346.95 286.997C344.442 289.789 340.7 291.034 337.316 292.656C317.227 302.28 307.094 327.096 286.181 334.768C274.698 338.98 262.033 337.19 249.806 336.847C239.59 336.56 204.841 341.284 215.059 359.582C219.891 368.235 233.234 364.734 241.181 365.198C252.954 365.887 264.276 369.499 275.926 371.048Z" fill="#7EBB15"/>
<path d="M379.28 171.824C381.755 175.058 384.259 178.506 384.881 182.53C385.622 187.335 383.566 192.063 382.449 196.795C379.918 207.517 382.213 218.735 381.767 229.742C381.194 243.887 376.115 257.41 371.096 270.646C376.885 275.58 385.932 269.611 388.983 262.644C392.034 255.677 392.545 247.346 397.695 241.75C400.371 238.843 404.067 236.987 406.584 233.941C413.364 225.736 408.97 213.477 410.25 202.911C411.259 194.575 416.014 186.76 415.426 178.385C414.988 172.14 411.629 166.531 408.361 161.192C402.819 152.142 397.279 143.091 391.737 134.041C388.169 128.213 384.217 122.043 377.939 119.343C371.854 116.727 364.862 117.932 358.318 116.9C349.232 115.467 340.693 109.684 331.589 111.004C324.722 112.001 315.087 120.625 316.644 128.477C318.202 136.335 323.821 135.134 330.65 136.425C352.183 140.495 366.24 154.785 379.28 171.824Z" fill="#7EBB15"/>
<path d="M183.252 100.815C192.513 99.399 201.911 101.729 211.28 101.779C219.626 101.823 228.259 100.09 236.143 102.826C239.934 104.142 243.3 106.42 246.717 108.523C255.843 114.14 266.613 118.777 277.04 116.304C287.467 113.832 295.701 101.244 290.231 92.0291C285.552 84.1461 274.747 83.2411 266.56 79.1181C255.941 73.7701 248.944 62.2661 237.617 58.6501C222.322 53.7691 207.01 65.086 191.278 68.292C177.519 71.098 161.253 68.24 151.083 77.923C143.175 85.452 142.317 97.799 136.202 106.845C134.424 109.474 132.129 112.001 131.791 115.159C130.293 129.222 150.075 123.46 155.94 119.097C165.5 111.983 170.005 102.84 183.252 100.815Z" fill="#94D31A"/>
<path d="M110.058 348.679C111.92 365.612 127.279 380.016 144.296 380.791C154.283 381.245 164.238 377.556 174.146 378.885C178.388 379.453 183.052 380.854 186.687 378.594C190.75 376.068 191.21 370.441 191.226 365.656C191.229 364.646 191.211 363.564 190.631 362.738C189.998 361.834 188.858 361.464 187.797 361.161C179.785 358.866 171.625 357.087 163.384 355.84C159.582 355.264 155.514 354.692 152.637 352.141C146.531 346.726 147.174 337.919 140.46 332.835C136.116 329.546 133.486 329.477 129.167 325.132C126.171 322.117 125.26 319.044 121.046 316.95C115.46 314.174 105.841 313.687 102.471 320.138C98.9992 326.78 109.15 340.422 110.058 348.679Z" fill="#7EBB15"/>
<path d="M199.022 151.307C192.843 159.092 192.133 169.797 188.053 178.861C184.815 186.053 179.514 192.075 174.563 198.214C169.612 204.355 164.832 210.948 162.955 218.61C161.079 226.272 162.727 235.278 168.869 240.228C175.011 245.178 185.827 243.882 189.063 236.689C190.5 233.495 190.317 229.848 190.615 226.359C191.272 218.653 194.475 211.186 199.606 205.399C200.408 204.496 201.29 203.608 202.41 203.155C203.903 202.551 205.584 202.802 207.192 202.71C217.819 202.102 222.345 187.593 232.506 184.421C239.534 182.227 246.815 186.097 253.872 188.198C260.108 190.055 266.749 190.537 273.188 189.601C303.787 185.155 279.806 152.545 262.481 146.498C244.522 140.23 212.714 134.056 199.022 151.307Z" fill="#B2ED20"/>
<path d="M327.136 227.295C327.64 231.873 327.932 236.809 325.594 240.777C322.166 246.591 314.608 248.113 308.865 251.66C293.998 260.842 291.033 284.024 274.734 290.323C269.062 292.514 262.766 292.145 256.698 291.743C250.667 291.344 244.637 290.944 238.606 290.545C234.779 290.291 230.848 290.012 227.379 288.374C219.961 284.872 216.633 276.293 214.285 268.433C212.304 261.8 210.557 254.532 213.135 248.107C214.302 245.198 216.279 242.699 218.228 240.245C226.232 230.171 236.331 219.104 249.174 219.888C255.081 220.248 260.514 223.172 266.308 224.375C272.102 225.578 279.308 224.31 281.829 218.955C283.966 214.417 281.977 208.445 284.984 204.431C286.734 202.095 289.709 201.111 292.147 199.504C299.941 194.368 307.554 180.551 317.762 190.323C325.827 198.043 326.009 217.057 327.136 227.295Z" fill="#7EBB15"/>
<path d="M326.573 227.282C325.446 217.045 325.263 198.03 317.199 190.309C314.824 188.036 312.592 187.05 310.463 186.924C313.7 195.94 314.023 208.063 314.845 215.525C315.349 220.104 315.641 225.04 313.303 229.008C309.875 234.823 302.317 236.345 296.574 239.892C281.707 249.073 278.742 272.255 262.443 278.554C256.77 280.746 250.475 280.376 244.407 279.974C238.376 279.576 232.345 279.175 226.315 278.776C223.169 278.568 219.955 278.329 216.983 277.345C219.18 282.049 222.208 286.185 226.816 288.361C230.284 289.999 234.216 290.278 238.043 290.532C244.073 290.931 250.104 291.331 256.135 291.73C262.203 292.132 268.498 292.502 274.171 290.31C290.47 284.011 293.435 260.829 308.302 251.647C314.045 248.1 321.604 246.579 325.031 240.764C327.37 236.796 327.077 231.86 326.573 227.282Z" fill="#78A015"/>
</svg>
