<svg width="54" height="48" viewBox="0 0 54 48" fill="none" xmlns="http://www.w3.org/2000/svg">
<path d="M18.77 10.6585C17.7976 11.1306 16.817 11.6579 16.1682 12.4566C15.7935 12.9179 15.5414 13.4566 15.1169 13.8825C14.325 14.6768 13.0801 14.9498 12.052 15.4891C9.7249 16.7102 8.68452 19.1705 7.80967 21.4439C7.34397 22.6538 6.87747 23.9797 7.36694 25.1822C7.63576 25.8427 8.1728 26.3972 8.43407 27.0602C8.88609 28.2076 8.4555 29.5149 8.8922 30.667C9.59498 32.5207 12.1726 33.2348 13.3903 34.8638C14.5978 36.479 14.5146 38.9998 16.4854 39.8305C17.5333 40.2722 18.8102 40.0234 19.8841 40.4128C21.1314 40.865 21.9453 42.1187 23.2786 42.2891C24.1521 42.4007 24.9957 42.0057 25.8635 41.8633C27.708 41.5607 29.5993 42.4096 31.452 42.1495C32.7386 41.9688 33.8496 41.2761 34.9094 40.6028C36.3671 39.6767 37.8247 38.7506 39.2823 37.8245C40.1693 37.261 41.0859 36.6682 41.6075 35.8169C42.0508 35.0931 42.1655 34.2499 42.4777 33.474C43.063 32.019 44.3144 30.8571 45.1 29.4788C47.031 26.0913 45.9025 22.0052 44.5151 18.4133C43.6672 16.218 42.6947 13.9881 40.9177 12.2873C38.3347 9.81536 33.8784 8.21312 30.173 7.77596C26.0607 7.29083 22.3179 8.93603 18.77 10.6585Z" fill="#94D31A"/>
<path d="M10.8997 25.4372C10.7349 24.0376 11.2541 22.6201 12.1195 21.4432C12.9849 20.2663 14.1783 19.3084 15.4452 18.4693C14.0206 19.3665 12.463 20.1406 10.7596 20.475C9.05623 20.8095 7.18519 20.6669 5.7085 19.8393C7.96491 18.2821 10.806 17.4109 13.6594 17.4012C10.6877 17.0002 8.02779 15.1048 6.93361 12.609C8.07259 12.3492 9.26423 12.7587 10.3013 13.2524C12.1888 14.151 13.8911 15.3576 15.2983 16.7947C14.5962 15.5375 13.9297 14.2443 13.6449 12.863C13.3601 11.4817 13.4888 9.98734 14.2982 8.7825C16.7681 10.5595 18.0052 13.5995 17.3877 16.3752C19.1197 15.0446 21.1289 13.63 23.4048 13.8244C23.5208 15.09 22.3188 16.1087 21.2218 16.9184C20.1944 17.6769 19.1595 18.3513 17.9339 18.8298C16.6989 19.3119 16.5609 19.7096 16.0139 20.785C15.4932 21.8088 14.778 22.7463 13.8933 23.5481C13.6448 23.7734 10.9021 25.4576 10.8997 25.4372Z" fill="#78A015"/>
<path d="M19.0211 36.3136C17.5775 35.7447 16.4567 34.6378 15.7424 33.383C15.028 32.1281 14.6899 30.7284 14.5038 29.331C14.6678 30.8794 14.6459 32.4691 14.1238 33.953C13.6017 35.437 12.532 36.8132 10.9922 37.5435C10.5999 35.0235 11.166 32.3926 12.5762 30.1809C10.7075 32.2796 7.54022 33.3941 4.56766 32.9985C4.88169 31.9884 5.87288 31.2705 6.86918 30.714C8.68236 29.7011 10.7032 28.985 12.8015 28.6115C11.2291 28.529 9.63947 28.401 8.1539 27.9342C6.66843 27.4672 5.2787 26.624 4.50928 25.3987C7.46684 24.3724 11.0398 24.9282 13.4331 26.7867C13.0003 24.785 12.6238 22.5272 13.9453 20.8638C15.2342 21.4037 15.6273 22.8402 15.8693 24.0915C16.096 25.2635 16.2372 26.3995 16.0929 27.5856C15.9474 28.7807 16.2655 29.0852 17.0397 30.0435C17.7766 30.9556 18.3327 31.9752 18.6726 33.0583C18.7682 33.3626 19.0421 36.3218 19.0211 36.3136Z" fill="#78A015"/>
<path d="M32.3808 36.0896C31.0949 36.9057 29.4553 37.1994 27.8804 37.1061C26.3056 37.0127 24.7833 36.557 23.3408 35.9859C24.9175 36.651 26.4392 37.4798 27.6033 38.6381C28.7674 39.7962 29.5479 41.3191 29.4656 42.8726C26.8354 41.886 24.5879 40.1084 23.1757 37.8976C24.2449 40.402 23.7016 43.3992 21.8019 45.4757C20.9882 44.719 20.8024 43.5926 20.7747 42.5445C20.7243 40.6372 21.066 38.7223 21.7777 36.9233C20.895 38.0864 19.9596 39.2397 18.7507 40.1398C17.5417 41.0401 16.0189 41.6747 14.4443 41.6387C14.9656 38.8473 17.3264 36.3923 20.3408 35.507C18.1897 34.8164 15.8205 33.9518 14.8916 32.0891C16.0704 31.3768 17.6563 31.8093 18.9866 32.2629C20.2324 32.6878 21.3998 33.1596 22.4696 33.8762C23.5477 34.5981 24.0038 34.5099 25.3231 34.4058C26.579 34.3067 27.8461 34.4012 29.0641 34.6939C29.4064 34.7761 32.3995 36.0777 32.3808 36.0896Z" fill="#78A015"/>
<path d="M40.9754 28.1733C40.9149 29.5796 40.1744 30.9166 39.1297 31.9715C38.0851 33.0265 36.7507 33.8229 35.3625 34.4926C36.916 33.7854 38.5814 33.2173 40.3209 33.1027C42.0604 32.9881 43.8895 33.367 45.2189 34.3739C42.7366 35.6284 39.7852 36.1297 36.9594 35.7767C39.8366 36.5512 42.1665 38.7653 42.8506 41.3747C41.6817 41.4871 40.5677 40.9304 39.6201 40.3099C37.8955 39.1808 36.4035 37.7701 35.2403 36.1688C35.7343 37.5024 36.1872 38.867 36.2484 40.2703C36.3095 41.6737 35.9431 43.1366 34.9495 44.2263C32.7888 42.1536 32.0503 38.9874 33.105 36.3185C31.178 37.4155 28.9632 38.5603 26.7417 38.0786C26.8292 36.8111 28.1818 35.9557 29.3969 35.2935C30.535 34.6734 31.6671 34.1374 32.9568 33.8195C34.2562 33.4992 34.4564 33.1233 35.1697 32.1282C35.8488 31.1811 36.7065 30.344 37.7104 29.6629C37.9925 29.4714 40.9764 28.1529 40.9754 28.1733Z" fill="#78A015"/>
<path d="M37.931 18.3673C39.1713 19.2375 39.9494 20.5574 40.2927 21.9311C40.6358 23.3046 40.5742 24.7354 40.3659 26.1304C40.6375 24.5941 41.1008 23.0589 42.0191 21.7366C42.9375 20.4145 44.3563 19.3177 46.0512 18.9505C45.7306 21.4785 44.4507 23.9022 42.4696 25.7332C44.8635 24.1129 48.2417 23.7334 51.0115 24.7737C50.4265 25.6829 49.2666 26.1593 48.1466 26.4783C46.1084 27.0587 43.9516 27.3058 41.815 27.2038C43.3153 27.6312 44.8198 28.1066 46.1291 28.8873C47.4384 29.668 48.5503 30.7921 48.955 32.1494C45.8043 32.4898 42.4974 31.1616 40.6957 28.8322C40.5585 30.867 40.2955 33.1376 38.5528 34.4571C37.4541 33.6491 37.4728 32.1705 37.5863 30.9047C37.6925 29.7192 37.8714 28.5875 38.3411 27.4704C38.8142 26.3448 38.5906 25.9793 38.1071 24.8799C37.6468 23.8334 37.3914 22.7227 37.3634 21.5982C37.3556 21.282 37.9129 18.3545 37.931 18.3673Z" fill="#78A015"/>
<path d="M28.3986 10.4442C29.9616 10.2483 31.5686 10.6615 32.9179 11.3915C34.2672 12.1215 35.3825 13.1515 36.3675 14.2511C35.312 13.013 34.39 11.6521 33.9556 10.1459C33.5213 8.63963 33.6157 6.96742 34.4918 5.62262C36.3159 7.57894 37.3918 10.0803 37.5023 12.6225C37.848 9.9605 39.8793 7.52397 42.6386 6.46173C42.9696 7.46764 42.5522 8.54371 42.035 9.48511C41.0939 11.1985 39.8008 12.7575 38.2393 14.0617C39.6239 13.3922 41.0501 12.7531 42.5883 12.451C44.1265 12.149 45.806 12.2115 47.1848 12.8906C45.2795 15.1537 41.9152 16.3622 38.7825 15.9091C40.3345 17.4059 41.9902 19.1469 41.8517 21.1816C40.4373 21.3292 39.2535 20.2937 38.3075 19.3445C37.4214 18.4555 36.6295 17.5569 36.0503 16.4815C35.4667 15.3978 35.0162 15.2887 33.7917 14.8388C32.626 14.4106 31.5503 13.8061 30.6208 13.0458C30.3595 12.8321 28.3759 10.447 28.3986 10.4442Z" fill="#78A015"/>
<path d="M17.1122 15.1038C17.956 13.9146 19.3491 13.0894 20.8464 12.6444C22.3437 12.1994 23.9461 12.1076 25.5238 12.1495C23.7821 12.0659 22.0218 11.8122 20.4527 11.133C18.8836 10.4537 17.5147 9.3075 16.9316 7.84176C19.7849 7.86742 22.6198 8.75449 24.8653 10.3242C22.8126 8.36683 22.0435 5.40933 22.9205 2.84613C23.9947 3.27201 24.6449 4.25199 25.1153 5.21268C25.9715 6.96106 26.468 8.84886 26.5729 10.7543C26.8963 9.37984 27.2725 7.99673 28.0095 6.75558C28.7465 5.51434 29.8867 4.41306 31.3595 3.9152C32.0619 6.67478 30.9186 9.74393 28.5041 11.5804C30.7883 11.4938 33.3483 11.4947 34.9987 12.9054C34.2098 13.9625 32.5583 14.0973 31.1346 14.1263C29.8011 14.1534 28.5202 14.1105 27.2258 13.8084C25.9216 13.5039 25.5368 13.7396 24.3598 14.281C23.2393 14.7964 22.0263 15.1366 20.7748 15.2766C20.423 15.3159 17.0998 15.1211 17.1122 15.1038Z" fill="#78A015"/>
<path d="M10.195 30.3841C9.31991 29.2129 9.04119 27.7425 9.19448 26.3419C9.34777 24.9413 9.90563 23.5987 10.5904 22.3308C9.79612 23.7154 8.82003 25.0459 7.48581 26.0476C6.1516 27.0493 4.42038 27.6978 2.6815 27.5765C3.86854 25.263 5.93075 23.3147 8.45262 22.1245C5.61212 23.0001 2.26918 22.4233 0 20.6662C0.873419 19.9644 2.14191 19.8335 3.31753 19.8413C5.45709 19.8553 7.59318 20.2188 9.58802 20.9087C8.31137 20.0861 7.04757 19.2169 6.07577 18.1117C5.10397 17.0064 4.43956 15.6297 4.52866 14.2275C7.64166 14.7781 10.3208 16.958 11.22 19.6718C12.0607 17.776 13.103 15.6913 15.2198 14.9209C15.9819 15.9936 15.448 17.3936 14.8986 18.565C14.3838 19.6622 13.8187 20.688 12.9825 21.6193C12.14 22.5578 12.2249 22.967 12.3007 24.146C12.3729 25.2683 12.228 26.3947 11.8622 27.4712C11.7591 27.7737 10.2077 30.4012 10.195 30.3841Z" fill="#78A015"/>
<path d="M24.0507 38.1775C22.5465 38.6035 20.8846 38.4357 19.4174 37.9171C17.9502 37.3984 16.6575 36.5492 15.4803 35.6118C16.753 36.6752 17.9172 37.8795 18.6278 39.2997C19.3384 40.72 19.5589 42.3829 18.9472 43.8393C16.782 42.1824 15.2524 39.8766 14.6669 37.3866C14.8251 40.0627 13.2791 42.7677 10.7577 44.2263C10.243 43.2839 10.4527 42.1607 10.786 41.1554C11.3926 39.3259 12.3753 37.5962 13.6703 36.0775C12.4307 36.9439 11.1444 37.7866 9.68449 38.3137C8.22454 38.8408 6.5569 39.0293 5.07031 38.5653C6.52465 36.0501 9.61489 34.3572 12.7885 34.3371C10.9777 33.0926 9.01897 31.623 8.77403 29.5961C10.1409 29.2397 11.5022 30.0842 12.6128 30.8791C13.653 31.6236 14.6023 32.3914 15.375 33.3654C16.1535 34.3469 16.6181 34.3873 17.9097 34.6483C19.1393 34.8968 20.3132 35.3326 21.3723 35.9435C21.6699 36.1154 24.0726 38.1713 24.0507 38.1775Z" fill="#78A015"/>
<path d="M38.3687 34.4575C37.7889 35.7664 36.5933 36.8091 35.2155 37.4957C33.8378 38.1823 32.2828 38.5395 30.7242 38.761C32.4527 38.5531 34.2352 38.509 35.919 38.9149C37.6027 39.3208 39.1876 40.2187 40.0677 41.5615C37.2593 42.0117 34.2884 41.6126 31.7535 40.4444C34.1802 42.0254 35.5556 44.8027 35.2311 47.4669C34.0865 47.2275 33.2424 46.3731 32.579 45.5077C31.3715 43.9327 30.4882 42.1609 29.986 40.3065C29.9563 41.7106 29.8765 43.132 29.4125 44.4742C28.9487 45.8162 28.0592 47.0881 26.7166 47.8226C25.4484 45.2286 25.9285 42.0231 27.9156 39.8166C25.6898 40.2822 23.1747 40.7079 21.2578 39.5968C21.8113 38.4269 23.4054 38.0194 24.798 37.7538C26.1023 37.505 27.3697 37.3338 28.7046 37.4149C30.0497 37.4967 30.3783 37.2012 31.4211 36.4732C32.4139 35.7802 33.5343 35.2439 34.7345 34.898C35.0718 34.8007 38.377 34.4384 38.3687 34.4575Z" fill="#78A015"/>
<path d="M44.4869 25.998C44.8766 27.3616 44.5924 28.8313 43.9267 30.1071C43.261 31.383 42.2352 32.4846 41.1173 33.4781C42.3818 32.4069 43.7977 31.4404 45.4291 30.8902C47.0604 30.3399 48.935 30.2401 50.5302 30.869C48.5495 32.7004 45.8793 33.9283 43.0574 34.3052C46.0628 34.3194 49.0018 35.8525 50.4886 38.1813C49.4036 38.585 48.1583 38.3332 47.052 37.9781C45.0388 37.332 43.159 36.3571 41.5338 35.1164C42.4321 36.27 43.301 37.4638 43.8066 38.7939C44.3121 40.124 44.4266 41.6194 43.8209 42.9158C41.089 41.4754 39.3727 38.6265 39.5342 35.8004C38.0359 37.3401 36.2768 38.9985 33.9933 39.0991C33.6735 37.8617 34.698 36.6989 35.6523 35.7565C36.546 34.8737 37.4608 34.0731 38.5963 33.4418C39.7402 32.8058 39.8125 32.3945 40.1796 31.2598C40.529 30.1797 41.085 29.1601 41.8305 28.2527C42.04 27.9978 44.4812 25.9781 44.4869 25.998Z" fill="#78A015"/>
<path d="M36.6962 12.519C38.2513 12.7589 39.6394 13.5908 40.6735 14.6539C41.7076 15.7171 42.4159 17.002 42.9762 18.3176C42.3963 16.8508 41.9857 15.3036 42.0889 13.7511C42.1923 12.1986 42.8561 10.6324 44.1517 9.59113C45.2169 11.9514 45.3827 14.6262 44.6154 17.0766C45.8581 14.6366 48.6283 12.8712 51.6197 12.6128C51.5896 13.6607 50.8229 14.5713 50.0076 15.3265C48.5236 16.7009 46.7575 17.8323 44.8233 18.6478C46.3712 18.3882 47.9484 18.1689 49.5164 18.301C51.0844 18.4331 52.6619 18.9509 53.7414 19.9736C51.1507 21.6082 47.5332 21.8409 44.7064 20.5547C45.6702 22.4032 46.6489 24.5124 45.8188 26.4118C44.4215 26.1665 43.6499 24.8576 43.075 23.6959C42.5366 22.6077 42.0909 21.5361 41.9086 20.3542C41.725 19.1634 41.3336 18.9366 40.3221 18.1742C39.3593 17.4483 38.5426 16.5794 37.9186 15.6019C37.7434 15.3274 36.6734 12.5154 36.6962 12.519Z" fill="#78A015"/>
<path d="M23.3707 10.9953C24.4611 9.97779 26.0093 9.41386 27.5756 9.24096C29.142 9.06815 30.7332 9.25989 32.2705 9.57848C30.5815 9.19018 28.9119 8.63181 27.5239 7.68996C26.1359 6.74811 25.0476 5.38366 24.8002 3.84412C27.5917 4.3711 30.1747 5.73937 32.0287 7.6733C30.4495 5.3933 30.3498 2.35863 31.7765 0C32.7355 0.606515 33.1562 1.68159 33.4048 2.70616C33.8573 4.57075 33.9264 6.50878 33.6077 8.3953C34.2288 7.10465 34.9036 5.81499 35.9007 4.72782C36.8978 3.64064 38.2593 2.76149 39.8133 2.53244C39.8913 5.36136 38.0914 8.16907 35.3181 9.54481C37.5765 9.86167 40.0861 10.3128 41.3919 11.9862C40.3846 12.8837 38.7358 12.7254 37.3336 12.5034C36.0204 12.2955 34.7741 12.028 33.5721 11.5041C32.3608 10.9763 31.9315 11.1397 30.6578 11.4635C29.4453 11.7717 28.1809 11.8918 26.9229 11.8089C26.5694 11.7854 23.3547 11.01 23.3707 10.9953Z" fill="#78A015"/>
<path d="M12.4481 18.6358C12.5809 17.2336 13.3894 15.9281 14.4871 14.917C15.585 13.9059 16.9588 13.1648 18.38 12.5526C16.7916 13.1954 15.0989 13.695 13.3553 13.7383C11.6117 13.7817 9.80408 13.3284 8.52783 12.2683C11.0721 11.1165 14.0462 10.7365 16.8507 11.2047C14.0165 10.3133 11.8028 8.00638 11.2536 5.37175C12.427 5.30732 13.5113 5.90892 14.4259 6.56749C16.0906 7.76596 17.5085 9.23615 18.5881 10.8833C18.1632 9.5309 17.7809 8.14916 17.792 6.74476C17.803 5.34035 18.2443 3.89409 19.293 2.84613C21.3448 5.00501 21.9198 8.19803 20.7289 10.821C22.7102 9.80399 24.9816 8.75085 27.1759 9.32297C27.0234 10.5855 25.6283 11.3848 24.3803 11.9965C23.2115 12.5695 22.0531 13.0587 20.7485 13.3235C19.4339 13.5903 19.2146 13.9578 18.4509 14.9226C17.7238 15.841 16.824 16.6421 15.7863 17.2815C15.4948 17.4611 12.4462 18.6562 12.4481 18.6358Z" fill="#78A015"/>
<path d="M45.2106 25.0548C44.0794 24.6299 42.81 24.528 41.6034 24.7255C41.531 24.0886 41.2969 23.4459 41.0115 22.8258C41.0968 22.6242 41.1733 22.4198 41.2414 22.2132C43.1977 22.8543 45.5096 22.6063 47.2156 21.53C46.4229 20.7789 45.2644 20.3986 44.1129 20.3016C42.9613 20.2046 41.8032 20.3657 40.6664 20.5564C42.0868 19.9574 43.3838 19.1266 44.4735 18.1173C45.0723 17.5627 45.6354 16.894 45.6575 16.1245C43.4607 16.3142 41.4265 17.6107 40.5139 19.4025C40.6953 18.8231 40.8052 18.2266 40.8454 17.6262C41.4407 17.275 41.9712 16.8384 42.4004 16.3284C41.8975 16.0807 41.3399 15.9448 40.7678 15.898C40.6602 15.2156 40.4618 14.5448 40.1733 13.9054C39.4763 14.4655 39.0294 15.2328 38.8098 16.051C38.0536 16.2217 37.3337 16.4987 36.6337 16.8126C36.5599 16.7647 36.4846 16.7187 36.4083 16.6742C36.5884 16.5036 36.7624 16.328 36.9305 16.148C37.3911 16.0982 37.8157 15.9588 38.1464 15.6642C38.0179 15.4995 37.8732 15.3514 37.7155 15.2171C38.052 14.7732 38.3544 14.3087 38.6187 13.8275C38.9985 13.1362 39.305 12.346 39.062 11.6072C37.6938 12.1339 36.57 13.121 35.9058 14.3083C35.5826 14.2126 35.2479 14.1353 34.9101 14.0696C34.8249 13.8102 34.7258 13.5546 34.6139 13.3035C36.1134 12.1942 37.0352 10.4635 36.9871 8.72171C35.8459 8.88997 34.8461 9.53552 34.1139 10.334C33.8325 10.6408 33.5861 10.9698 33.3634 11.3122C33.2716 11.2032 33.1771 11.096 33.0792 10.9911C32.7074 11.5617 32.5284 12.2127 32.5041 12.8739C32.4792 12.9251 32.4545 12.9761 32.4299 13.0273C32.664 11.6419 32.6132 10.2187 32.2809 8.84938C32.0983 8.09699 31.7894 7.30748 31.0852 6.86212C30.5248 7.78841 30.2854 8.85657 30.3609 9.90616C29.8779 10.1332 29.452 10.4503 29.0882 10.8206C28.1308 10.2834 27.0688 9.89397 25.962 9.68503C26.1437 10.8156 26.943 11.8176 27.9623 12.5093C27.9633 12.5099 27.9642 12.5106 27.9651 12.5111C27.7976 12.888 27.6628 13.2768 27.5466 13.6708C27.4095 13.6418 27.272 13.6213 27.1344 13.6082C26.965 12.6045 26.649 11.6203 26.1934 10.6901C25.8479 9.98469 25.3705 9.26498 24.5816 8.95221C24.0299 10.5643 24.3657 12.3883 25.4202 13.7819C25.311 13.8114 25.2021 13.844 25.0935 13.8789C24.5583 13.5886 23.9913 13.3451 23.4031 13.152C23.5327 11.6523 23.011 10.1024 21.9178 8.95221C21.1478 9.7218 20.8238 10.7839 20.8156 11.8152C20.8135 12.0946 20.8329 12.3728 20.8681 12.6498C20.6405 12.6329 20.412 12.6229 20.1835 12.6208C20.3877 13.134 20.724 13.5931 21.144 13.9879C21.2227 14.2783 21.31 14.5673 21.4002 14.8543C20.6074 13.6447 19.5661 12.5651 18.3436 11.6849C17.6719 11.2014 16.8757 10.7595 16.0139 10.8068C16.2598 11.9862 16.9603 13.0756 17.9408 13.8952C17.8004 14.2387 17.7176 14.6009 17.6853 14.9693C16.41 15.0507 15.1523 15.3553 14.0121 15.8715C14.2272 16.0501 14.4636 16.2042 14.7144 16.337C14.1107 16.1106 13.4654 15.9794 12.8415 16.1216C13.5417 17.7187 15.1149 18.9807 16.9517 19.4738C16.9042 19.5445 16.858 19.6163 16.8128 19.689C16.3005 19.7381 15.7928 19.8243 15.2957 19.9456C14.3599 18.6128 12.8095 17.617 11.0752 17.3103C11.0098 18.34 11.4977 19.3511 12.2113 20.1627C12.4249 20.4056 12.658 20.6328 12.9046 20.8484C12.5707 21.0248 12.2489 21.2194 11.9418 21.4313C12.0514 21.4927 12.1646 21.5476 12.2796 21.5989C11.5882 21.4936 10.8872 21.4374 10.1858 21.4329C9.32244 21.4272 8.39085 21.5233 7.74951 22.0386C9.41593 23.329 11.8708 23.7525 13.9568 23.1096C12.1049 23.9837 10.5905 25.4144 9.71873 27.1134C10.5666 27.1725 11.4115 26.9815 12.1708 26.6317C12.6405 26.9523 13.1797 27.2005 13.7376 27.376C14.0046 27.4599 14.2761 27.5287 14.5508 27.5859C14.6098 27.8967 14.7027 28.2011 14.8338 28.4913C14.7934 28.5058 14.753 28.5207 14.7128 28.5356C14.5402 28.5328 14.3666 28.5512 14.193 28.5964C14.1985 28.6419 14.2052 28.6868 14.213 28.7315C13.7249 28.9339 13.2503 29.1624 12.7941 29.4173C12.0624 29.826 11.3345 30.3531 11.1039 31.0951C12.4757 31.2776 13.9039 31.022 15.1164 30.4245C15.3801 30.7158 15.6832 30.9884 16.0039 31.2463C15.9173 31.5672 15.8511 31.8925 15.8058 32.22C13.9788 32.596 12.3347 33.6927 11.4729 35.1831C12.5646 35.5238 13.7893 35.3854 14.8615 34.9983C15.9336 34.6112 16.8782 33.9924 17.7885 33.3561C16.8374 34.4713 16.1159 35.7417 15.6704 37.0852C15.4257 37.8233 15.2716 38.6482 15.6497 39.3403C17.5013 38.2692 18.6366 36.2828 18.5204 34.3176C18.635 34.805 18.7994 35.2827 19.0083 35.7446C18.6924 36.2745 18.4678 36.8467 18.3571 37.44C18.8714 37.4519 19.3779 37.3658 19.8601 37.2089C20.3588 37.8971 20.9663 38.5225 21.6638 39.0562C22.0407 38.1587 21.9862 37.1547 21.6509 36.2386C22.1365 35.8585 22.5619 35.4235 22.9553 34.9641C23.0987 34.992 23.2432 35.0147 23.3883 35.0324C23.1086 36.0354 22.9786 37.0719 23.006 38.1053C23.0263 38.8749 23.1628 39.7023 23.7603 40.2578C24.7305 39.1974 25.2183 37.81 25.1618 36.4446C25.5147 36.4671 25.8759 36.4577 26.2394 36.4267C26.6026 36.7583 26.9954 37.0639 27.4131 37.3397C26.6968 38.7954 26.655 40.5203 27.3693 41.9814C28.3552 41.442 29.0084 40.508 29.349 39.5224C29.6897 38.5368 29.7484 37.4929 29.7701 36.4618C30.139 37.8236 30.7877 39.1248 31.6743 40.2814C32.1615 40.9169 32.7814 41.5444 33.6219 41.7202C33.7263 40.8628 33.591 39.9894 33.2561 39.1811C33.3079 39.2351 33.3608 39.2883 33.4151 39.3405C33.9059 38.8022 34.1874 38.14 34.3061 37.4506C35.2589 37.5552 36.2288 37.5352 37.1738 37.3837C36.5489 36.4303 35.4397 35.7832 34.2492 35.4719C34.2314 35.3819 34.2115 35.2921 34.1906 35.2024C34.4154 35.0982 34.6326 34.9762 34.8427 34.8404C35.4447 35.4416 36.1165 35.9874 36.8451 36.4645C37.2992 36.7619 37.8056 37.0384 38.3411 37.1722C38.7921 37.6483 39.327 38.0602 39.93 38.3781C40.3748 37.426 40.2908 36.3279 39.9195 35.3511C39.5947 34.4966 39.0658 33.7188 38.4969 32.9703C38.5458 32.9596 38.5944 32.9489 38.643 32.9376C39.743 33.7128 40.9837 34.3287 42.3029 34.7521C43.1151 35.0128 44.0298 35.1976 44.8266 34.9013C43.9652 33.5521 42.4398 32.5672 40.7506 32.2061C40.8197 32.1732 40.8885 32.1397 40.9566 32.1053C40.8238 32.0048 40.6838 31.9136 40.5385 31.8298C41.6523 31.549 42.709 31.0878 43.6423 30.477C43.6616 30.4751 43.681 30.4738 43.7002 30.4716C43.6976 30.4626 43.694 30.4539 43.6914 30.4449C44.1068 30.1693 44.4975 29.864 44.8571 29.5315C44.2723 29.301 43.6364 29.2038 42.997 29.2146C42.6211 28.7702 42.1446 28.3861 41.625 28.0761C41.2669 27.8626 40.8888 27.6802 40.4985 27.5191C40.537 27.2767 40.5536 27.0323 40.546 26.7888C41.4148 26.7052 42.2742 26.5442 43.1066 26.3071C43.9293 26.0722 44.7809 25.7225 45.2106 25.0548ZM39.9308 25.2155C39.5817 25.3682 39.2482 25.5492 38.9379 25.7594C39.2245 25.4946 39.4906 25.2126 39.7358 24.9168C39.7974 25.0185 39.8622 25.1186 39.9308 25.2155ZM14.1417 25.1834C14.6884 24.6001 15.1379 23.9395 15.5271 23.2609C15.1802 23.9031 14.8778 24.5715 14.6866 25.2618C14.5062 25.2289 14.3243 25.2031 14.1417 25.1834ZM26.4934 15.7841C26.1337 15.7746 25.7721 15.7745 25.4116 15.7888C25.4628 15.7644 25.5142 15.7397 25.5654 15.7148C25.8741 15.7469 26.1842 15.7693 26.4934 15.7841ZM20.571 18.6114C20.7737 18.4206 20.9647 18.2198 21.1429 18.0097C21.3182 18.0197 21.5072 18.03 21.696 18.0397C21.2862 18.3065 20.8937 18.5994 20.519 18.8873C20.5394 18.7957 20.5561 18.7037 20.571 18.6114ZM19.0924 20.4251C18.9059 20.5487 18.7217 20.676 18.5409 20.8071C18.5523 20.784 18.5636 20.7607 18.5749 20.7374C18.7499 20.6362 18.9226 20.5321 19.0924 20.4251ZM16.7953 24.9102C16.9757 24.7979 17.1579 24.6832 17.3236 24.5776C17.3488 25.2311 17.4778 25.8995 17.6147 26.533C17.3371 26.3175 17.0377 26.1258 16.722 25.9588C16.775 25.6116 16.8005 25.2612 16.7953 24.9102ZM19.5101 22.1258C19.9118 21.336 20.0132 21.044 20.9201 20.6899C21.8202 20.3386 22.5802 19.8433 23.3346 19.2864C23.9422 18.8378 24.5933 18.302 24.8403 17.667C25.1121 17.5738 25.3789 17.4688 25.6385 17.3494C26.5028 16.9518 26.7854 16.7788 27.7431 17.0023C28.6937 17.2242 29.6343 17.2558 30.6135 17.2358C30.8542 17.2308 31.1038 17.2217 31.3526 17.2013C31.7374 17.4174 32.1431 17.6041 32.5649 17.7591C33.4643 18.0894 33.795 18.1696 34.2236 18.9654C34.5703 19.6093 35.022 20.1665 35.5291 20.7042C35.4077 21.3225 35.1834 22.5505 35.1877 22.7227C35.2083 23.5485 35.3958 24.3642 35.7339 25.1327C36.089 25.94 36.2532 26.2084 35.9058 27.0349C35.6849 27.5603 35.5519 28.0902 35.464 28.6319C35.4557 28.6368 35.4482 28.6413 35.4427 28.6452C34.7055 29.1454 34.0757 29.7601 33.5769 30.4557C33.0531 31.1863 32.9061 31.4624 31.9518 31.6977C31.1474 31.8959 30.4266 32.21 29.7154 32.5791C29.4103 32.4532 29.1673 32.3576 29.0934 32.3398C28.1989 32.1249 27.2684 32.0555 26.3461 32.1283C25.3772 32.2046 25.0423 32.2695 24.2506 31.7393C23.4648 31.2133 22.6075 30.8667 21.6927 30.5546C21.5237 30.4969 21.349 30.4399 21.1713 30.3874C20.9345 29.8705 20.6302 29.3792 20.263 28.9248C19.6946 28.2211 19.461 27.9974 19.5677 27.1198C19.6738 26.2489 19.57 25.4147 19.4035 24.554C19.3072 24.056 19.1781 23.5185 18.9296 23.067C19.1489 22.7669 19.3437 22.4528 19.5101 22.1258ZM35.4271 31.2172C35.4555 31.3166 35.4903 31.4131 35.5324 31.5061C34.9088 31.6875 34.303 31.9262 33.7187 32.1921C34.3133 31.9052 34.8939 31.5864 35.4271 31.2172ZM20.5583 34.0194C20.4881 34.0732 20.4193 34.1283 20.3517 34.1846C19.9751 33.768 19.5557 33.3793 19.1182 33.0139C19.5725 33.3757 20.0507 33.7192 20.5583 34.0194ZM24.8907 33.2885C25.7811 33.6411 26.7129 33.933 27.674 34.0581C27.6064 34.1548 27.5488 34.2558 27.5032 34.3611C27.3407 34.3753 27.1787 34.393 27.0166 34.414C26.3641 33.9677 25.636 33.6029 24.8907 33.2885ZM37.536 29.1033C37.5527 28.975 37.5672 28.8465 37.5799 28.7183C37.6507 28.5421 37.7082 28.3622 37.7513 28.1796C37.8067 28.2462 37.8638 28.3115 37.9225 28.3756C37.7778 28.6112 37.6497 28.8546 37.536 29.1033ZM37.3929 26.0511C37.5459 25.0267 37.5911 23.976 37.339 22.9673C37.257 22.6388 37.1404 22.3147 36.9899 22.0045C37.4408 22.2914 37.9391 22.4738 38.4841 22.4169C38.5221 21.8586 38.376 21.3304 38.1189 20.8304C38.333 21.0652 38.4525 21.3316 38.5262 21.8094C38.5714 22.1023 38.6389 22.3859 38.7234 22.664C38.6836 22.717 38.6446 22.7703 38.607 22.8244C37.9326 23.7954 37.5923 24.923 37.3929 26.0511ZM39.3102 20.3137C39.0465 19.6943 38.7375 19.0844 38.3499 18.5206C38.4852 18.4987 38.6199 18.4728 38.7535 18.4433C38.8691 19.0791 39.0698 19.7059 39.3102 20.3137ZM35.3001 16.0646C35.2968 16.0869 35.2929 16.1091 35.29 16.1315C35.289 16.1085 35.2874 16.0855 35.2862 16.0626C35.2908 16.0632 35.2955 16.0639 35.3001 16.0646ZM32.4038 15.3101C32.6795 15.4303 32.9584 15.5321 33.2411 15.62C33.5768 16.2227 33.9993 16.791 34.4568 17.3275C33.7336 16.52 32.9145 15.7636 31.9236 15.2275C31.8227 15.173 31.7196 15.1216 31.615 15.0721C31.8409 15.0985 32.0853 15.1714 32.4038 15.3101ZM31.2705 12.497C31.1232 12.3434 30.9693 12.195 30.81 12.0514C30.8289 11.9639 30.8448 11.8758 30.8593 11.7876C30.9766 12.0324 31.1132 12.2699 31.2705 12.497ZM31.448 13.8961C31.0274 13.8089 30.6013 13.7347 30.1727 13.6824C30.1947 13.6447 30.2159 13.6067 30.237 13.5686C30.6347 13.6949 31.0405 13.8023 31.448 13.8961ZM20.4462 16.4507C20.4404 16.4294 20.4352 16.4079 20.4291 16.3866C20.7056 16.2918 20.9786 16.1891 21.2474 16.0802C20.977 16.1967 20.709 16.3197 20.4462 16.4507ZM20.1244 15.0903C20.032 15.0748 19.9392 15.061 19.8462 15.0481C19.8325 15.0252 19.8188 15.0023 19.8047 14.9794C19.9101 15.0189 20.0166 15.0563 20.1244 15.0903ZM17.5575 16.9509C17.6837 16.9477 17.8095 16.9405 17.9349 16.931C18.0385 17.2568 18.1666 17.5764 18.3104 17.8911C18.187 18.009 18.0683 18.1315 17.9568 18.2591C17.1764 17.6241 16.3091 17.0742 15.38 16.6259C16.0658 16.8656 16.8193 16.9693 17.5575 16.9509ZM14.489 22.0201C14.5894 22.0861 14.6901 22.1515 14.791 22.2166C14.583 22.1446 14.3726 22.0781 14.1607 22.0158C14.2699 22.0201 14.3795 22.0216 14.489 22.0201ZM16.0514 27.7985C16.4173 27.8312 16.7847 27.8539 17.1509 27.8731C16.7069 27.9521 16.2681 28.0527 15.8359 28.1727C15.9089 28.047 15.9821 27.9202 16.0514 27.7985ZM16.701 29.3215C16.7997 29.226 16.8948 29.1276 16.9855 29.0257C16.9128 29.1399 16.8434 29.2558 16.7766 29.3729C16.7515 29.3557 16.7263 29.3386 16.701 29.3215ZM18.3944 30.6583C18.4997 29.9134 18.4804 29.1509 18.401 28.4016C18.4882 29.0574 18.6216 29.7137 18.8432 30.3426C18.7898 30.3679 18.7373 30.3958 18.6858 30.4268C18.8145 30.685 18.9811 30.917 19.1769 31.1269C19.2196 31.2111 19.2636 31.2947 19.3105 31.3772C19.427 31.5817 19.559 31.7806 19.7043 31.9713C19.4822 31.8492 19.282 31.6684 19.0408 31.3642C18.8407 31.112 18.624 30.8787 18.3944 30.6583ZM31.7222 35.0631C31.7189 35.1146 31.7168 35.1663 31.7152 35.2179C31.246 35.2313 30.7766 35.2707 30.3127 35.3266C30.7859 35.2593 31.2588 35.1746 31.7222 35.0631ZM32.1226 37.4412C31.8115 37.1131 31.4586 36.817 31.0685 36.5629C31.3509 36.693 31.6408 36.81 31.9363 36.9138C31.9893 37.0921 32.0515 37.2682 32.1226 37.4412ZM36.8111 34.0089C36.6334 33.8899 36.449 33.7791 36.2585 33.6774C36.4209 33.5199 36.579 33.3606 36.7333 33.2024C36.749 33.2016 36.7647 33.2008 36.7804 33.2001C36.7678 33.4703 36.7786 33.7407 36.8111 34.0089ZM38.2455 31.173C38.7454 30.7049 39.2094 30.2039 39.5899 29.6577C39.7793 29.7594 39.9744 29.8526 40.1742 29.9372C39.4903 30.2759 38.8608 30.7055 38.2754 31.1748C38.2654 31.174 38.2555 31.1736 38.2455 31.173ZM39.1138 27.0325C38.8955 26.9657 38.6763 26.9017 38.4571 26.8393C38.7456 26.8531 39.0346 26.858 39.3235 26.8546C39.2522 26.9148 39.182 26.9743 39.1138 27.0325Z" fill="#7EBB15"/>
<path d="M36.569 31.1234C36.2357 30.4715 35.6807 29.908 35.011 29.504C35.284 29.1893 35.483 28.8059 35.6466 28.4118C35.7846 28.3562 35.9197 28.296 36.0519 28.2312C36.6734 29.3167 37.8937 30.1489 39.2254 30.3631C39.2107 29.7032 38.843 29.0602 38.3417 28.5469C37.8404 28.0335 37.2114 27.6331 36.5782 27.2546C37.5436 27.566 38.5621 27.7231 39.5682 27.7157C40.1211 27.7117 40.712 27.6419 41.0941 27.3063C39.9568 26.4949 38.3624 26.2454 37.0628 26.6755C37.429 26.49 37.7693 26.2678 38.0784 26.0153C38.5313 26.1008 38.9948 26.1217 39.4453 26.0686C39.3256 25.7524 39.1258 25.4641 38.8761 25.2096C39.1544 24.86 39.3839 24.4787 39.5553 24.0746C38.953 24.041 38.3699 24.2023 37.8701 24.4791C37.4279 24.247 36.9513 24.0772 36.4666 23.9322C36.4546 23.8806 36.4408 23.8293 36.4261 23.7783C36.5942 23.7753 36.7618 23.7678 36.9288 23.7557C37.1721 23.9214 37.4415 24.0323 37.7412 24.0352C37.7595 23.9091 37.7621 23.7837 37.7519 23.6592C38.1264 23.5977 38.4947 23.513 38.8529 23.4054C39.3675 23.2508 39.895 23.0219 40.1361 22.5919C39.2305 22.2694 38.2189 22.253 37.3295 22.5137C37.2218 22.339 37.0998 22.1677 36.9707 22.0004C37.0554 21.8496 37.1317 21.6946 37.1997 21.5364C38.4492 21.6515 39.7237 21.2526 40.542 20.4529C39.9176 20.0626 39.1299 19.9438 38.3958 20.0025C38.1136 20.0252 37.8375 20.072 37.5661 20.1345C37.575 20.0481 37.5819 19.9616 37.5859 19.8747C37.1334 19.9786 36.7339 20.197 36.403 20.4833C36.3665 20.496 36.33 20.5088 36.2937 20.5217C37.074 19.9968 37.7372 19.3387 38.2402 18.5899C38.5167 18.1784 38.7509 17.6988 38.6308 17.2119C37.9167 17.3981 37.2869 17.7788 36.8161 18.2797C36.4766 18.1844 36.1207 18.1525 35.7687 18.17C35.5724 17.5386 35.255 16.9309 34.829 16.3857C34.3696 16.9662 34.2661 17.7411 34.4172 18.4667C34.4173 18.4674 34.4175 18.4681 34.4177 18.4687C34.156 18.5692 33.9041 18.6882 33.6585 18.8173C33.6073 18.7483 33.5518 18.683 33.4926 18.621C33.8967 18.1024 34.2215 17.5326 34.4539 16.9302C34.6301 16.4733 34.7504 15.9561 34.5259 15.4941C33.4849 15.991 32.7639 16.9449 32.5928 17.9994C32.5266 17.968 32.459 17.9381 32.3905 17.9094C32.276 17.561 32.1237 17.2206 31.9369 16.8942C32.7228 16.2754 33.223 15.3684 33.258 14.4071C32.5198 14.4376 31.8527 14.781 31.3508 15.2396C31.2147 15.3639 31.0897 15.4965 30.9726 15.6348C30.8725 15.5343 30.7686 15.4366 30.6608 15.3425C30.5102 15.6556 30.4486 15.9985 30.4578 16.3467C30.3551 16.509 30.2571 16.6739 30.1614 16.8393C30.368 15.9741 30.3939 15.0657 30.237 14.1726C30.1509 13.682 29.9852 13.1592 29.5522 12.8287C29.0996 13.4572 28.9071 14.231 28.978 14.9981C28.7453 15.0945 28.531 15.223 28.3377 15.3749C27.6914 14.891 26.9456 14.5142 26.1537 14.2801C26.1698 14.4478 26.2079 14.6133 26.2632 14.7751C26.0851 14.4274 25.8413 14.1053 25.4757 13.9145C25.0377 14.9155 25.1772 16.1225 25.8134 17.0929C25.7565 17.1052 25.6999 17.1185 25.6432 17.1326C25.3757 16.9455 25.0924 16.777 24.7973 16.6284C24.9954 15.6496 24.7383 14.5711 24.0609 13.726C23.5325 14.1604 23.2765 14.8124 23.2242 15.4671C23.2086 15.663 23.2098 15.8599 23.2231 16.0571C22.9789 15.9998 22.7318 15.9556 22.4833 15.9252C22.5057 15.9974 22.5331 16.0682 22.5631 16.1381C22.2849 15.8087 21.9784 15.4976 21.6467 15.2093C21.2385 14.8545 20.7487 14.5174 20.1945 14.4865C20.3645 15.7444 21.3285 16.9358 22.6319 17.499C21.3283 17.1348 19.9165 17.1575 18.6811 17.5627C19.056 17.9352 19.5505 18.1944 20.0808 18.3475C20.1496 18.6828 20.2864 19.0139 20.4672 19.3202C20.5538 19.4667 20.6498 19.6083 20.7529 19.7461C20.6309 19.9094 20.5281 20.0835 20.4504 20.2671C20.4241 20.2571 20.3977 20.2473 20.3714 20.2375C20.2905 20.1659 20.1991 20.1033 20.0945 20.0527C20.0752 20.0752 20.0566 20.0982 20.0388 20.1214C19.7087 20.0128 19.3725 19.9215 19.0323 19.8496C18.4867 19.734 17.8856 19.6731 17.4176 19.9113C17.9824 20.5528 18.7856 21.0211 19.6513 21.2482C19.6362 21.4863 19.6487 21.7321 19.6769 21.9784C19.4807 22.0868 19.2921 22.2055 19.1124 22.3337C18.0612 21.7566 16.749 21.5769 15.6191 21.8927C15.9742 22.4908 16.624 22.9285 17.3212 23.1926C18.0185 23.4568 18.7669 23.5651 19.5074 23.6515C18.5162 23.7629 17.5593 24.0374 16.6985 24.4573C16.2255 24.6879 15.7539 24.9945 15.5996 25.4587C16.9982 25.7345 18.4979 25.3082 19.3916 24.3806C19.2108 24.6457 19.0583 24.9267 18.9347 25.2188C18.5284 25.3272 18.1452 25.4918 17.8059 25.7124C18.0449 25.9275 18.3276 26.0956 18.633 26.2222C18.538 26.7339 18.5251 27.262 18.5994 27.7856C19.2123 27.5374 19.6711 27.0655 19.9541 26.5183C20.3687 26.5463 20.7812 26.5251 21.1903 26.4798C21.2452 26.5508 21.303 26.62 21.3635 26.687C20.7459 27.0222 20.1836 27.4333 19.6975 27.9073C19.3355 28.2602 19.001 28.6865 19.017 29.1792C19.991 29.1001 20.8932 28.6778 21.5257 28.0432C21.6828 28.1973 21.8593 28.3405 22.0472 28.475C22.0599 28.7717 22.0993 29.0688 22.1649 29.3628C21.121 29.7224 20.2681 30.4779 19.9026 31.4237C20.6323 31.5845 21.3943 31.4327 22.0324 31.1302C22.6706 30.8278 23.2025 30.3843 23.7108 29.9313C23.2287 30.6917 22.9092 31.5392 22.7727 32.4189C22.6977 32.9024 22.6897 33.4363 23.0049 33.858C23.4687 33.5167 23.826 33.0703 24.0569 32.5715C24.0555 32.6169 24.055 32.6623 24.0557 32.7078C24.5492 32.667 25.0031 32.4853 25.3925 32.2249C25.7954 32.6606 26.2668 33.0474 26.7897 33.3651C26.9527 32.6831 26.7373 31.9407 26.3209 31.3156C26.3559 31.268 26.3898 31.2197 26.4232 31.171C26.5804 31.216 26.7428 31.25 26.9082 31.2749C26.9045 31.7899 26.9606 32.3084 27.077 32.8193C27.1496 33.1378 27.2572 33.4684 27.4474 33.7467C27.4321 34.144 27.4878 34.5468 27.6213 34.9352C28.2929 34.6904 28.7832 34.1641 29.0781 33.5753C29.3362 33.0601 29.4601 32.4959 29.5507 31.9284C29.5791 31.9436 29.6075 31.9587 29.6361 31.9735C29.7854 32.7695 30.0784 33.5516 30.5018 34.2795C30.7626 34.7278 31.1087 35.1837 31.631 35.3762C31.8726 34.4204 31.6222 33.357 30.9925 32.5059C31.0412 32.5193 31.0901 32.5324 31.1392 32.5449C31.1246 32.4456 31.1019 32.3476 31.0733 32.2509C31.7391 32.5796 32.4648 32.8042 33.2039 32.9115C33.214 32.9185 33.2239 32.9258 33.234 32.9327C33.2371 32.9276 33.2398 32.9223 33.2427 32.9171C33.5736 32.9633 33.9069 32.986 34.2386 32.9837C34.0715 32.6418 33.8158 32.3389 33.5063 32.0828C33.5421 31.7303 33.5007 31.364 33.4031 31.0131C33.3357 30.7713 33.2438 30.5354 33.1358 30.3039C33.2713 30.2112 33.3971 30.1084 33.5111 29.9962C33.9651 30.3133 34.4519 30.5918 34.9626 30.8253C35.4676 31.0563 36.042 31.2472 36.569 31.1234ZM33.9782 29.041C33.7383 28.9669 33.4922 28.912 33.2429 28.8795C33.5072 28.8778 33.7701 28.8601 34.0296 28.8277C34.0098 28.8983 33.9922 28.9696 33.9782 29.041ZM21.7183 18.5034C22.2603 18.4653 22.7931 18.3528 23.3063 18.2077C22.831 18.3538 22.3643 18.5297 21.9399 18.7608C21.8699 18.6725 21.7959 18.5868 21.7183 18.5034ZM32.1367 19.3341C31.9701 19.183 31.7981 19.0354 31.6196 18.8947C31.6557 18.9047 31.692 18.9145 31.7285 18.9244C31.8599 19.0647 31.9967 19.2012 32.1367 19.3341ZM27.9523 18.1835C28.141 18.1808 28.3288 18.1688 28.5151 18.1475C28.5937 18.2236 28.6788 18.3052 28.7639 18.3867C28.4399 18.3389 28.1116 18.3099 27.7943 18.286C27.8483 18.2532 27.9007 18.2188 27.9523 18.1835ZM26.3727 18.3925C26.2242 18.3716 26.075 18.3535 25.9257 18.3385C25.9424 18.3328 25.959 18.327 25.9756 18.3212C26.1078 18.3473 26.2403 18.3711 26.3727 18.3925ZM23.1134 19.4638C23.2535 19.4871 23.3956 19.5101 23.5255 19.5304C23.2219 19.8333 22.9605 20.1854 22.7197 20.525C22.6917 20.315 22.6417 20.1071 22.5722 19.9034C22.7651 19.7697 22.9464 19.6232 23.1134 19.4638ZM25.7503 19.3246C26.3229 19.1348 26.5121 19.0454 27.1148 19.2569C27.7129 19.4668 28.3138 19.5551 28.9419 19.6135C29.4477 19.6606 30.0163 19.6863 30.4406 19.5028C30.6149 19.5719 30.7927 19.6338 30.974 19.6862C31.5774 19.8609 31.7954 19.8986 32.1433 20.3896C32.4886 20.8768 32.9211 21.2747 33.3968 21.6655C33.5138 21.7615 33.6371 21.8592 33.7653 21.9515C33.8442 22.2053 33.947 22.4544 34.073 22.696C34.3415 23.2109 34.4603 23.3818 34.28 23.9131C34.134 24.343 34.0799 24.7768 34.0616 25.2246C33.7053 25.4519 33.0055 25.9104 32.9244 25.9892C32.5355 26.3674 32.2308 26.8093 32.0206 27.2915C31.7997 27.7979 31.7483 27.9851 31.1837 28.2136C30.8248 28.3588 30.5056 28.5417 30.2022 28.7485C30.196 28.7473 30.19 28.7463 30.1857 28.7457C29.5932 28.6689 28.9966 28.6872 28.4233 28.7952C27.8212 28.9087 27.6178 28.9724 27.05 28.6883C26.5713 28.4489 26.0766 28.2954 25.5598 28.1706C25.4753 27.9897 25.4058 27.8477 25.3792 27.8096C25.0573 27.3483 24.6478 26.9376 24.1737 26.5938C23.6756 26.2327 23.4849 26.125 23.364 25.5645C23.2441 25.0083 23.0035 24.5032 22.7186 23.9902C22.666 23.8954 22.6104 23.7986 22.5511 23.7026C22.6881 23.3745 22.7805 23.0302 22.8252 22.6769C22.8944 22.1298 22.8912 21.9343 23.3658 21.5848C23.8369 21.238 24.1903 20.8221 24.5267 20.3687C24.7212 20.1065 24.9194 19.813 25.0192 19.5095C25.2687 19.4643 25.5131 19.4031 25.7503 19.3246ZM28.9361 29.8911C28.9016 29.9471 28.8715 30.0046 28.8467 30.0633C28.4623 29.8901 28.0586 29.7498 27.6521 29.6305C28.0736 29.7447 28.504 29.8389 28.9361 29.8911ZM20.5056 25.0788C20.4462 25.0742 20.3868 25.0709 20.3275 25.0685C20.3494 24.7283 20.3374 24.3831 20.3057 24.0408C20.3472 24.3884 20.4089 24.7373 20.5056 25.0788ZM22.9207 26.5193C23.1742 27.0406 23.4768 27.5515 23.8739 27.9998C23.7949 28.0155 23.7188 28.0372 23.6462 28.0658C23.562 28.0059 23.4763 27.9477 23.389 27.891C23.294 27.4248 23.1236 26.9643 22.9207 26.5193ZM30.9608 29.805C31.0307 29.7543 31.0997 29.7027 31.1677 29.6505C31.2865 29.6004 31.4007 29.5433 31.5095 29.4792C31.5036 29.5315 31.4994 29.5841 31.4963 29.6368C31.3135 29.6832 31.135 29.7399 30.9608 29.805ZM32.3667 28.3796C32.9342 27.9832 33.4631 27.5312 33.8302 26.9766C33.9498 26.796 34.0508 26.6033 34.1289 26.4028C34.205 26.7154 34.3541 27.0003 34.641 27.1973C34.9287 26.9628 35.1143 26.6666 35.2333 26.3378C35.2218 26.5302 35.1501 26.6983 34.9545 26.9425C34.8345 27.0922 34.7297 27.2467 34.6356 27.4057C34.5911 27.4132 34.5467 27.4211 34.5027 27.43C33.7128 27.5896 33.0064 27.9558 32.3667 28.3796ZM36.0499 26.5924C36.2235 26.2075 36.3709 25.8082 36.4587 25.3976C36.5337 25.4429 36.6103 25.4863 36.6881 25.5276C36.4362 25.8596 36.2291 26.2221 36.0499 26.5924ZM36.1931 23.0532C36.1808 23.0619 36.1682 23.0702 36.1561 23.0791C36.1667 23.0683 36.177 23.0574 36.1876 23.0467C36.1894 23.0488 36.1912 23.0509 36.1931 23.0532ZM35.1788 21.5335C35.2521 21.6999 35.3356 21.8593 35.4278 22.014C35.2966 22.4209 35.2233 22.8478 35.1818 23.2747C35.2276 22.618 35.203 21.9449 34.9902 21.3006C34.9685 21.235 34.9443 21.1698 34.9184 21.105C35.0131 21.209 35.0943 21.3414 35.1788 21.5335ZM35.9979 19.8112C36.002 19.6822 36.0005 19.553 35.9939 19.4237C36.0453 19.3922 36.0954 19.3593 36.1449 19.3257C36.0824 19.4831 36.0327 19.6453 35.9979 19.8112ZM35.4068 20.5101C35.2487 20.2995 35.0817 20.0924 34.9029 19.8941C34.9316 19.8861 34.9601 19.8778 34.9885 19.8694C35.1168 20.0882 35.2581 20.3019 35.4068 20.5101ZM28.9365 17.165C28.944 17.1531 28.9519 17.1413 28.9592 17.1292C29.1366 17.1996 29.3162 17.265 29.4968 17.326C29.3117 17.2678 29.1249 17.2136 28.9365 17.165ZM29.4402 16.4244C29.4037 16.3797 29.3661 16.3357 29.3282 16.292C29.3326 16.2762 29.3372 16.2603 29.3415 16.2443C29.3727 16.3049 29.4052 16.3652 29.4402 16.4244ZM27.3199 16.2102C27.3816 16.2603 27.4449 16.3084 27.5092 16.3553C27.4012 16.5434 27.3078 16.7389 27.2242 16.9386C27.1085 16.941 26.9929 16.9475 26.8782 16.9591C26.8133 16.3563 26.6661 15.7562 26.4404 15.1763C26.6511 15.5633 26.9596 15.9173 27.3199 16.2102ZM23.4113 17.2283C23.4272 17.2988 23.4435 17.3693 23.4602 17.4395C23.3959 17.3224 23.328 17.2068 23.2571 17.0925C23.3071 17.139 23.3584 17.1844 23.4113 17.2283ZM21.3646 20.4538C21.5229 20.6178 21.6869 20.7779 21.8518 20.9359C21.6024 20.7901 21.3449 20.6561 21.0813 20.5335C21.1767 20.5069 21.2728 20.4799 21.3646 20.4538ZM20.9382 21.4008C21.0313 21.3984 21.1242 21.3931 21.2165 21.3845C21.1267 21.4058 21.0377 21.4294 20.9494 21.4547C20.9458 21.4368 20.9421 21.4189 20.9382 21.4008ZM21.0987 22.6906C21.5085 22.3999 21.8677 22.0507 22.1917 21.6827C21.9165 22.012 21.663 22.3603 21.4647 22.7324C21.4271 22.722 21.3886 22.7131 21.3492 22.706C21.2858 22.8741 21.2531 23.0459 21.2449 23.2198C21.2246 23.275 21.2051 23.3303 21.1876 23.3865C21.1443 23.5256 21.1111 23.6686 21.0881 23.8133C21.0414 23.6679 21.0334 23.5052 21.0655 23.2706C21.092 23.0759 21.1016 22.8831 21.0987 22.6906ZM25.3154 30.1017C25.289 30.1235 25.2631 30.1458 25.2372 30.1681C25.0075 29.9827 24.765 29.8089 24.5172 29.6445C24.7751 29.8075 25.041 29.9625 25.3154 30.1017ZM24.3576 31.3302C24.368 31.0563 24.343 30.7796 24.28 30.5067C24.3516 30.6801 24.4331 30.8508 24.5236 31.018C24.4628 31.1194 24.4073 31.2237 24.3576 31.3302ZM28.2467 31.7061C28.2196 31.5804 28.1853 31.4555 28.1439 31.3322C28.2972 31.328 28.4493 31.3211 28.5991 31.3133C28.607 31.3193 28.6149 31.3255 28.6227 31.3315C28.4863 31.4472 28.3608 31.5727 28.2467 31.7061ZM30.299 31.0214C30.7629 31.0157 31.2258 30.9807 31.6707 30.8913C31.7117 31.0142 31.7596 31.1355 31.8138 31.2549C31.3247 31.1275 30.8175 31.063 30.3123 31.0343C30.308 31.03 30.3035 31.0257 30.299 31.0214ZM32.7119 29.5214C32.6403 29.4024 32.5668 29.2844 32.4926 29.1669C32.6232 29.2907 32.7585 29.4109 32.8977 29.5272C32.8346 29.5251 32.7723 29.5231 32.7119 29.5214Z" fill="#94D31A"/>
<path d="M25.4332 20.2135C25.1184 20.3579 24.8495 20.6238 24.8243 20.9387C24.7991 21.2536 25.0944 21.5862 25.4473 21.5607C24.029 22.497 22.9812 23.8707 22.526 25.3911C22.4672 25.5876 22.4181 25.7969 22.4827 25.992C22.5472 26.187 22.7632 26.3567 22.9873 26.3192C23.1176 26.2974 23.2279 26.2118 23.3597 26.1987C23.7684 26.1577 23.8238 26.6975 23.8955 27.0585C24.0428 27.8001 25.1108 28.2584 25.8527 27.8981C26.1524 27.7524 26.3927 27.5041 26.7221 27.4246C27.1352 27.325 27.5555 27.5167 27.9611 27.6381C28.8047 27.8905 29.9137 27.7496 30.3124 27.0403C30.6049 26.5196 30.4022 25.8649 29.9892 25.4137C29.5763 24.9626 28.9895 24.6709 28.4174 24.39C29.0904 23.8059 30.229 23.7101 31.0125 24.172C31.426 24.4157 31.807 24.8103 32.3006 24.7677C32.4973 24.7507 32.6796 24.6609 32.8249 24.5414C33.4922 23.9929 33.3149 23.0105 32.9231 22.2805C32.7208 21.9035 32.4461 21.5215 32.0115 21.365C31.5769 21.2085 30.967 21.4044 30.9034 21.8184C31.344 21.5025 31.716 21.1106 31.9925 20.6708C32.0748 20.5401 32.1505 20.398 32.1452 20.2482C32.1369 20.0164 31.9369 19.8249 31.7209 19.6957C30.7823 19.1342 29.3288 19.4733 28.8188 20.3726C28.6291 20.0381 28.4229 19.6989 28.1012 19.4575C27.7798 19.2163 27.3142 19.0917 26.9298 19.243C26.5653 19.3865 26.442 19.7868 26.4813 20.0912C26.1288 20.031 25.7545 20.0662 25.4332 20.2135Z" fill="#B2ED20"/>
</svg>
