<svg width="465" height="465" viewBox="0 0 465 465" fill="none" xmlns="http://www.w3.org/2000/svg">
<path d="M232.82 464.967C361.017 464.967 464.941 361.043 464.941 232.846C464.941 104.649 361.017 0.724976 232.82 0.724976C104.623 0.724976 0.699219 104.649 0.699219 232.846C0.699219 361.043 104.623 464.967 232.82 464.967Z" fill="#78A015"/>
<path d="M62.7561 98.66C65.9011 99.801 69.0611 100.904 72.2271 101.989C71.7511 100.647 65.7861 87.911 61.3921 79.375C57.4221 84.023 53.645 88.842 50.082 93.824C54.284 95.498 58.5061 97.12 62.7561 98.66Z" fill="#7EBB15"/>
<path d="M111.019 43.47C111.622 43.659 112.226 43.84 112.83 44.025C112.351 41.528 111.811 39.042 111.212 36.571C108.815 38.058 106.441 39.583 104.108 41.161C106.398 41.968 108.702 42.74 111.019 43.47Z" fill="#7EBB15"/>
<path d="M117.977 32.538C119.09 36.831 120.003 41.1759 120.752 45.549C120.799 45.8179 120.84 46.0881 120.885 46.3571C127.529 48.1701 134.236 49.7451 140.975 51.1331C145.921 52.1511 150.885 53.07 155.867 53.891C156.926 54.065 157.988 54.2171 159.049 54.3831C159.013 54.3261 158.974 54.272 158.938 54.215C152.898 44.756 148.007 34.56 144.233 23.953C143.702 22.459 143.993 20.938 144.749 19.67C135.485 23.344 126.546 27.653 117.977 32.538Z" fill="#7EBB15"/>
<path d="M53.4385 197.821C67.3495 198.886 101.194 195.738 104.156 195.066C103.835 194.843 103.509 194.626 103.186 194.402C90.8655 185.834 79.0184 176.515 67.7764 166.525C56.8954 156.858 46.5936 146.52 36.9456 135.578C34.1266 132.381 34.0616 127.917 36.9456 124.716C39.5986 121.771 44.9635 121.719 47.6055 124.716C50.7875 128.325 54.0386 131.87 57.3606 135.346C68.9016 147.42 81.2805 158.653 94.3425 168.992C99.5545 173.066 104.868 177.004 110.288 180.786C117.584 185.879 125.065 190.696 132.705 195.235C132.169 189.543 122.909 136.404 118.429 123.33C114.201 122.344 109.99 121.288 105.792 120.175C85.4085 114.769 65.2284 108.234 45.6594 100.275C28.2534 126.614 16.5464 157.048 12.3174 189.832C26.6104 193.532 50.3225 197.583 53.4385 197.821Z" fill="#7EBB15"/>
<path d="M372.11 81.4561C372.332 83.3591 372.564 85.263 372.81 87.163C373.186 89.972 373.587 92.777 374.031 95.575C375.394 104.169 377.037 112.808 379.714 121.094C380.208 120.848 380.702 120.603 381.196 120.357C387.388 117.274 396.637 112.764 405.661 108.484C399.95 98.921 393.514 89.843 386.42 81.33C381.651 81.468 376.881 81.5081 372.11 81.4561Z" fill="#7EBB15"/>
<path d="M369.258 125.549C366.738 118.122 365.132 110.381 363.794 102.654C362.56 95.5231 361.568 88.348 360.738 81.151C352.878 80.818 345.027 80.247 337.205 79.42C321.559 77.765 305.974 75.184 290.698 71.323C289.003 73.303 287.283 75.261 285.533 77.191C278.24 85.232 270.478 92.831 262.303 99.933C253.841 107.285 244.949 114.151 235.693 120.429C227.824 125.766 219.676 130.671 211.292 135.118C212.29 141.995 213.484 148.843 214.909 155.641C217.92 170.015 221.886 184.181 226.794 198.002C229.284 205.013 232.196 211.835 234.866 218.772C236.359 222.648 237.682 226.721 238.468 230.874C238.684 230.607 238.898 230.34 239.11 230.069C239.922 228.968 240.714 227.854 241.477 226.717C245.296 221.029 248.569 214.99 252.123 209.133C255.988 202.763 260.343 196.704 265.252 191.125C274.793 180.281 286.342 171.311 298.398 163.564C310.239 155.955 322.745 149.495 335.299 143.212C346.694 137.511 358.103 131.84 369.511 126.167C369.416 125.967 369.33 125.761 369.258 125.549Z" fill="#7EBB15"/>
<path d="M296.137 64.772C302.626 66.324 320.026 69.491 322.173 69.816C323.254 69.98 336.445 71.684 340.844 72.105C347.188 72.713 353.547 73.154 359.912 73.436C359.246 66.723 358.706 59.998 358.243 53.275C346.756 43.797 334.25 35.513 320.925 28.589C316.555 36.208 311.821 43.6101 306.74 50.7581C303.346 55.5351 299.809 60.211 296.137 64.772Z" fill="#7EBB15"/>
<path d="M379.813 73.7679C376.772 70.4489 373.626 67.227 370.382 64.106C370.654 67.327 370.945 70.546 371.27 73.76C374.117 73.799 376.965 73.7949 379.813 73.7679Z" fill="#7EBB15"/>
<path d="M103.439 345.737C110.886 338.005 118.128 330.07 125.351 322.122C117.77 320.51 110.133 319.169 102.457 318.098C96.2845 317.273 67.9936 315.228 60.0386 315.204C60.2766 320.322 60.0936 325.473 59.7686 330.57C59.3376 337.326 58.6295 344.068 57.7305 350.785C63.4675 357.883 69.6434 364.609 76.2324 370.91C86.2504 361.867 98.2085 351.17 103.439 345.737Z" fill="#7EBB15"/>
<path d="M197.435 364.554C197.531 351.824 196.754 339.088 195.135 326.462C194.645 322.834 194.092 319.215 193.463 315.609C191.502 304.379 188.844 293.282 185.521 282.391C179.295 287.804 173.305 293.497 167.473 299.347C159.594 307.249 151.999 315.439 144.471 323.685C136.886 331.992 129.368 340.362 121.694 348.582C119.485 350.948 117.257 353.298 115.017 355.634C115.82 360.386 116.456 365.169 116.919 369.967C117.937 380.497 118.066 391.117 117.345 401.677C123.325 405.115 129.491 408.267 135.82 411.12C138.207 408.911 140.621 406.732 143.062 404.587C152.215 396.544 161.743 388.933 171.583 381.781C179.968 375.688 188.597 369.942 197.435 364.554Z" fill="#7EBB15"/>
<path d="M407.374 280.133C406.143 275.11 404.978 270.07 403.87 265.017C393.72 264.86 383.566 265.238 373.471 266.338C375.258 271.187 390.246 307.351 393.055 312.552C394.546 315.311 399.574 322.39 404.16 328.566C408.135 322.111 411.776 315.428 415.056 308.541C412.281 299.133 409.711 289.664 407.374 280.133Z" fill="#7EBB15"/>
<path d="M108.625 363.373C108.578 363.025 108.527 362.679 108.479 362.332C105.068 365.768 101.616 369.162 98.0864 372.472C94.8214 375.535 91.4945 378.529 88.1055 381.446C94.6615 386.843 101.547 391.855 108.727 396.448C108.721 382.188 108.69 363.848 108.685 363.806C108.665 363.66 108.645 363.517 108.625 363.373Z" fill="#7EBB15"/>
<path d="M411.644 265.235C414.082 276.154 416.805 287.005 419.813 297.776C423.919 287.749 427.285 277.341 429.834 266.615C422.965 266.063 413.98 265.33 411.644 265.235Z" fill="#7EBB15"/>
<path d="M337.015 380.204C336.775 380.238 336.153 380.325 336.069 380.337C335.962 380.353 335.855 380.369 335.749 380.385C336.478 381.842 340.204 387.524 343.492 392.411C349.666 388.158 355.604 383.591 361.283 378.725C350.795 379.205 338.122 380.054 337.015 380.204Z" fill="#7EBB15"/>
<path d="M376.563 356.483C367.742 346.524 358.052 337.381 347.677 329.127C344.488 326.638 341.241 324.223 337.928 321.906C334.516 319.52 331.035 317.237 327.501 315.045C326.938 317.581 326.477 320.141 326.109 322.716C325.031 331.395 325.062 340.184 326.136 348.862C327.31 357.194 329.447 365.361 332.502 373.179C344.98 371.284 357.579 370.408 370.19 370.651C374.167 366.835 377.99 362.862 381.661 358.75C379.237 358.085 377.283 357.297 376.563 356.483Z" fill="#7EBB15"/>
<path d="M165.282 404.593C165.13 404.235 163.202 400.055 162.311 398.366C161.813 398.763 152.302 406.803 143.676 414.463C152.351 417.959 161.306 420.906 170.504 423.248C170.441 422.496 170.394 422.008 170.371 421.889C169.767 418.597 165.808 405.89 165.478 405.063C165.46 405.02 165.442 404.974 165.475 405.054C165.412 404.9 165.348 404.746 165.282 404.593Z" fill="#7EBB15"/>
<path d="M265.138 216.888C261.344 223.138 240.656 248.113 241.872 249.833C243.793 252.236 251.813 263.061 254.184 265.002C257.872 267.75 261.893 269.95 266.077 271.815C271.497 274.071 291.621 280.681 296.034 282.384C302.643 277.671 309.626 273.554 316.984 270.1C335.167 261.562 354.596 256.783 374.469 254.699C383.43 253.759 392.443 253.397 401.45 253.463C399.456 243.484 397.693 233.458 396.18 223.393C393.324 204.396 391.297 185.272 390.14 166.09C389.101 165.915 359.63 159.623 346.511 154.672C344.211 155.826 307 175.093 292.453 186.383C284.727 192.557 267.125 213.614 265.138 216.888Z" fill="#7EBB15"/>
<path d="M326.91 388.032C323.385 381.325 320.592 374.289 318.508 367.037C313.826 370.291 309.162 373.572 304.542 376.917C299.614 380.485 294.732 384.119 289.878 387.789C289.875 387.831 289.878 387.871 289.874 387.913C289.17 394.809 289.85 410.366 289.941 411.213C289.994 411.696 290.05 412.179 290.109 412.662C290.115 412.702 290.619 415.415 291.252 418.637C306.153 413.594 320.312 406.94 333.523 398.888C331.102 395.41 328.884 391.787 326.91 388.032Z" fill="#7EBB15"/>
<path d="M281.895 393.898C280.321 395.117 276.792 397.854 276.602 398.003C276.528 398.062 276.426 398.142 276.391 398.169C276.017 398.465 265.604 406.835 264.051 408.106C265.622 411.113 269.295 418.73 271.895 424.165C275.928 423.217 279.915 422.147 283.855 420.973C282.136 412.072 281.462 402.956 281.895 393.898Z" fill="#7EBB15"/>
<path d="M207.375 334.663C214.817 339.453 221.373 345.701 227.258 352.319C234.293 360.23 256.019 393.269 260.404 401.3C268.345 394.833 276.384 388.491 284.535 382.301C295.028 374.331 305.707 366.618 316.538 359.133C315.648 354.946 314.979 350.703 314.543 346.423C313.275 333.981 314.186 321.199 317.288 309.069C311.128 305.676 304.816 302.571 298.375 299.768C293.236 297.593 288.022 295.602 282.74 293.822C271.479 290.025 259.674 286.878 249.552 280.352C239.995 274.19 231.71 265.068 228.917 253.645C228.911 253.62 228.907 253.594 228.901 253.568C227.144 254.386 203.976 267.616 194.938 274.606C197.959 283.908 200.496 293.371 202.515 302.95C204.722 313.407 206.335 324.007 207.375 334.663Z" fill="#7EBB15"/>
<path d="M155.134 20.891C155.846 22.89 169.105 49.182 171.859 53.137C172.621 54.232 186.55 70.822 190.083 74.15C191.123 75.131 192.185 76.09 193.255 77.038C193.437 72.1 193.721 67.168 194.124 62.244C195.329 47.517 197.461 32.8441 200.559 18.4041C201.459 14.2071 206.025 12.156 209.831 13.04C211.628 13.457 213.42 14.977 214.335 16.569C215.376 18.381 215.526 20.475 215.095 22.488C213.341 30.668 211.909 38.915 210.786 47.21C210.027 53.132 209.42 59.0731 208.983 65.0291C208.979 65.0751 208.977 65.1219 208.973 65.1689C213.272 62.6729 217.47 60 221.546 57.14C223.883 55.5 236.029 47.52 235.534 45.718C232.325 34.048 229.097 17.173 228.834 4.84302C226.922 4.79202 225.004 4.76294 223.079 4.76294C197.623 4.76294 173.216 9.24503 150.594 17.452C152.518 18.338 154.801 19.954 155.134 20.891Z" fill="#7EBB15"/>
<path d="M397.756 167.283C398.38 177.318 401.438 206.791 401.585 207.95C404.993 208.884 408.409 209.792 411.835 210.659C419.711 212.652 427.632 214.459 435.586 216.095C435.501 200.507 433.736 185.32 430.467 170.697C419.531 169.92 408.609 168.851 397.756 167.283Z" fill="#7EBB15"/>
<path d="M394.528 329.554C387.801 319.822 382.516 309.115 377.841 298.231C373.483 288.082 369.649 277.718 365.823 267.351C363.541 267.707 361.263 268.089 358.997 268.531C347.818 270.709 336.837 273.963 326.324 278.413C321.113 280.693 316.023 283.259 311.119 286.163C310.284 286.657 309.465 287.175 308.642 287.686C323.581 294.479 337.819 302.774 351.053 312.624C361.943 320.728 378.878 339.018 388.809 350.312C392.511 345.707 396.035 340.952 399.348 336.042C397.666 333.938 396.061 331.771 394.528 329.554Z" fill="#7EBB15"/>
<path d="M402.705 216.207C403.13 219.199 403.568 222.19 404.036 225.176C405.518 234.645 407.215 244.078 409.124 253.467C409.135 253.518 409.145 253.57 409.156 253.621C411.635 253.703 422.881 255.257 431.845 257.183C433.904 246.349 435.144 235.226 435.49 223.876C424.489 221.653 413.553 219.107 402.705 216.207Z" fill="#7EBB15"/>
<path d="M273.871 13.359C270.23 18.988 266.279 24.409 262.065 29.606C256.615 36.329 250.679 42.644 244.33 48.491C244.414 48.727 246.726 54.804 246.789 54.959C247.057 55.594 262.158 82.5219 263.018 83.6899C263.045 83.7269 263.074 83.765 263.102 83.802C269.044 78.167 274.74 72.263 280.163 66.108C283.735 62.054 297.893 43.6701 299.414 41.4611C303.4 35.6631 307.158 29.703 310.685 23.604C299.091 18.351 286.937 14.122 274.344 11.002C274.446 11.827 274.315 12.672 273.871 13.359Z" fill="#7EBB15"/>
<path d="M230.271 367.917C230.083 367.666 230.107 367.701 230.186 367.807C230.229 367.865 230.274 367.92 230.317 367.979C230.303 367.958 230.287 367.938 230.271 367.917Z" fill="#7EBB15"/>
<path d="M228.395 428.627C234.875 422.819 241.439 417.106 248.084 411.493C250.194 409.711 252.322 407.951 254.449 406.188C254.142 405.623 253.842 405.053 253.532 404.49C248.765 395.802 243.688 387.285 238.182 379.062C236.739 376.907 230.755 368.562 230.397 368.085C230.416 368.107 230.429 368.125 230.435 368.132C230.393 368.084 230.356 368.029 230.317 367.978C230.343 368.013 230.249 367.889 230.186 367.806C230.174 367.79 223.195 359.056 219.724 355.329C216.48 351.846 213.055 348.527 209.385 345.512C209.146 345.315 208.906 345.119 208.663 344.926C208.609 344.882 208.555 344.838 208.5 344.795C208.393 344.715 208.286 344.632 208.181 344.55C208.457 348.947 208.64 353.349 208.712 357.751C209.02 376.286 207.455 394.839 204.187 413.072C203.619 416.242 194.541 415.643 193.855 414.448C193.048 413.045 197.093 376.66 197.212 373.673C194.209 375.554 191.23 377.475 188.279 379.44C183.354 382.72 178.503 386.116 173.731 389.624C171.93 390.947 170.152 392.302 168.375 393.656C169.273 395.317 174.294 410.697 177.116 424.807C191.919 428.071 207.294 429.806 223.078 429.806C224.596 429.806 226.106 429.781 227.616 429.749C227.799 429.324 228.051 428.936 228.395 428.627Z" fill="#7EBB15"/>
<path d="M80.678 103.373C80.842 103.871 80.877 104.371 80.814 104.851C92.178 108.539 103.669 111.847 115.26 114.683C114.879 113.712 114.49 112.745 114.094 111.78C112.615 108.256 92.016 73.034 91.74 72.579C91.715 72.544 91.6981 72.521 91.7061 72.532C91.6411 72.446 91.574 72.36 91.512 72.272C91.542 72.315 91.5689 72.35 91.5959 72.389C91.3579 72.076 86.7531 66.332 85.4851 64.848C83.4061 62.416 83.2961 59.131 85.4851 56.702C87.4531 54.516 91.53 54.423 93.479 56.702C94.338 57.707 95.1879 58.72 96.0259 59.743C102.796 68.009 108.917 76.829 114.186 86.163C114.907 87.44 115.608 88.729 116.298 90.024C116.315 89.554 116.338 89.085 116.351 88.614C116.616 78.848 114.622 55.123 114.596 54.913C114.588 54.858 114.583 54.815 114.578 54.775C114.574 54.744 114.57 54.717 114.564 54.678C114.479 54.054 114.276 52.626 114.263 52.536C108.278 50.778 102.37 48.777 96.5701 46.512C85.8661 54.454 75.9391 63.382 66.9141 73.157C72.6051 82.654 77.215 92.817 80.678 103.373Z" fill="#7EBB15"/>
<path d="M91.7339 72.568C91.7249 72.555 91.7151 72.544 91.7061 72.531C91.7171 72.545 91.7271 72.558 91.7371 72.572L91.7339 72.568Z" fill="#7EBB15"/>
<path d="M400.384 127.854C387.236 134.402 374.071 140.917 360.922 147.466C374.301 151.611 388.057 154.392 401.905 156.325C406.131 156.892 410.363 157.393 414.604 157.824C418.897 158.261 423.195 158.63 427.496 158.956C423.769 145.873 418.815 133.31 412.776 121.388C408.088 123.91 403.659 126.224 400.384 127.854Z" fill="#7EBB15"/>
<path d="M193.396 105.105C193.182 100.602 193.071 96.095 193.039 91.588C188.449 88.029 184.029 84.256 179.879 80.17C174.482 74.857 169.504 69.0761 164.974 62.9611C160.846 62.4011 156.724 61.779 152.616 61.089C142.418 59.374 132.19 57.326 122.115 54.709C123.008 61.679 123.579 68.694 123.825 75.713C124.151 84.975 123.951 94.295 122.811 103.496C124.383 107.091 125.858 110.73 127.239 114.404C130.778 123.816 133.635 133.487 135.949 143.285C138.3 153.241 140.092 163.328 141.495 173.466C142.808 182.947 143.814 192.465 144.606 202.005C154.009 207.122 163.632 211.816 173.438 216.076C177.381 217.762 181.35 219.384 185.35 220.926C197.843 225.744 210.603 229.836 223.547 233.196C223.39 232.457 223.225 231.719 223.031 230.987C221.185 223.983 218.051 217.398 215.443 210.673C212.878 204.054 210.532 197.347 208.408 190.568C204.159 177.01 200.799 163.165 198.335 149.156C195.776 134.604 194.098 119.87 193.396 105.105Z" fill="#7EBB15"/>
<path d="M208.444 74.135C207.704 90.39 208.17 106.696 209.802 122.882C217.759 118.474 230.322 114.204 257.367 89.088C257.423 89.036 257.48 88.9851 257.537 88.9351C254.133 84.3951 250.975 79.6681 248.137 74.7371C244.298 68.0701 240.99 61.062 238.249 53.837C238.158 53.913 238.071 53.991 237.98 54.067C229.033 61.551 219.433 68.2001 209.246 73.8051C208.984 73.9491 208.715 74.054 208.444 74.135Z" fill="#7EBB15"/>
<path d="M264.417 425.775C264.292 425.505 264.171 425.234 264.043 424.966C262.121 420.953 260.127 416.975 258.079 413.027C251.713 418.331 245.416 423.722 239.195 429.202C247.755 428.561 256.17 427.401 264.417 425.775Z" fill="#7EBB15"/>
<path d="M36.3264 258.801C34.3794 257.756 21.0545 252.27 12.9355 249.148C14.4455 259.192 16.6665 269.001 19.5315 278.533C20.1865 277.801 20.8466 277.074 21.4976 276.338C26.3796 270.819 31.1445 265.195 35.7905 259.47C35.9705 259.247 36.1474 259.022 36.3264 258.801Z" fill="#7EBB15"/>
<path d="M237.474 20.2791C237.475 20.2831 240.123 34.843 241.746 40.463C243.423 38.853 245.076 37.216 246.689 35.54C250.628 31.448 259.644 20.486 259.835 20.238C259.842 20.229 259.858 20.208 259.877 20.183C259.95 20.086 265.828 11.852 267.361 9.48096C267.379 9.45496 267.401 9.43398 267.419 9.40698C257.32 7.26298 246.957 5.84199 236.384 5.18799C236.572 9.64999 237.428 19.9101 237.474 20.2791Z" fill="#7EBB15"/>
<path d="M52.5015 315.268C48.5275 315.348 41.8526 315.5 34.6436 315.621C39.5126 324.933 45.0515 333.837 51.1975 342.273C51.7415 337.346 52.1705 332.405 52.4075 327.454C52.6005 323.403 52.6825 319.327 52.5015 315.268Z" fill="#7EBB15"/>
<path d="M88.5332 305.008C103.913 306.403 119.209 308.832 134.265 312.327C142.962 302.806 151.753 293.365 160.974 284.367C171.196 274.391 181.986 264.985 193.565 256.675C199.159 252.66 204.952 248.99 210.927 245.665C200.88 242.782 190.956 239.452 181.197 235.684C167.19 230.274 153.468 224.048 140.186 216.991C132.083 212.685 124.142 208.067 116.379 203.155C110.308 205.964 85.9732 209.202 80.4822 209.53C76.1312 216.567 71.6213 223.502 66.9473 230.32C58.3473 242.863 49.2133 255.031 39.5913 266.775C33.9783 273.628 28.1722 280.312 22.2222 286.862C24.3652 293.05 26.7772 299.11 29.4602 305.023C31.8222 304.807 34.1882 304.61 36.5552 304.447C53.8592 303.25 71.2572 303.44 88.5332 305.008Z" fill="#7EBB15"/>
<path d="M11.8162 240.434C21.9772 243.489 31.8353 247.62 41.1653 252.721C41.7013 252.037 42.2421 251.357 42.7751 250.67C43.9301 249.182 46.5641 245.727 46.7031 245.542C46.9801 245.174 64.3563 220.932 71.3403 209.873C64.0923 209.982 56.8372 209.707 49.5962 209.011C36.5792 207.76 23.6913 205.324 11.1313 201.654C10.7563 206.816 10.5571 212.027 10.5571 217.286C10.5571 225.108 10.9922 232.829 11.8162 240.434Z" fill="#7EBB15"/>
<path opacity="0.38" d="M105.479 283.057C105.479 179.581 189.362 95.698 292.838 95.698C323.766 95.698 352.94 103.197 378.651 116.468C345.489 63.789 286.831 28.777 219.987 28.777C116.511 28.777 32.6279 112.661 32.6279 216.136C32.6279 288.684 73.865 351.596 134.175 382.726C116.001 353.857 105.479 319.688 105.479 283.057Z" fill="#D0FF0B"/>
</svg>
