<svg width="489" height="454" viewBox="0 0 489 454" fill="none" xmlns="http://www.w3.org/2000/svg">
<path d="M2.28284 208.604C-3.00016 190.127 3.2049 170.451 10.4159 152.638C12.4669 147.572 14.8028 142.284 19.2318 139.084C23.3678 136.096 28.7688 135.359 33.0348 132.561C41.4638 127.03 43.0639 115.356 42.2889 105.304C41.5139 95.253 39.2598 84.748 42.9708 75.375C45.2728 69.561 49.661 64.8371 54.235 60.5711C68.524 47.2441 85.428 37.0361 102.745 27.9831C132.434 12.4631 166.148 -0.200962 198.889 6.90104C206.917 8.64204 215.05 11.8021 220.347 18.0811C225.642 24.3611 227.132 34.3891 221.907 40.7271C213.638 50.7601 194.3 46.9801 188.39 58.5611C186.419 62.4241 186.646 67.0231 185.382 71.1711C180.489 87.2291 158.339 88.6001 145.029 98.8321C134.672 106.794 129.661 120.499 118.698 127.603C111.416 132.322 102.44 133.498 94.4689 136.925C78.6429 143.728 67.8158 159.113 62.3658 175.454C57.4398 190.228 62.054 231.164 47.194 237.422C30.183 244.585 6.47984 223.277 2.28284 208.604Z" fill="#7EBB15"/>
<path d="M106.602 222.893C99.6081 229.717 92.1901 236.79 82.7701 239.389C75.2101 241.474 67.1149 240.44 59.4319 242.008C37.6569 246.453 25.0262 275.089 36.4222 294.167C40.8342 301.552 47.9362 307.268 51.1932 315.23C54.8022 324.051 53.088 334.06 54.359 343.505C56.617 360.275 68.029 374.18 79.169 386.916C96.853 407.137 115.471 427.297 138.99 440.273C162.511 453.25 192.066 458.074 216.318 446.523C224.981 442.396 232.667 436.367 241.497 432.609C257.385 425.848 275.345 427.023 292.604 427.514C313.882 428.118 336.631 427.054 354.007 414.756C360.537 410.135 365.981 404.125 372.446 399.415C385.721 389.743 402.317 386.178 417.684 380.379C433.051 374.58 448.696 364.983 453.819 349.377C457.303 338.759 455.34 326.899 459.073 316.366C464.556 300.899 481.12 291.391 486.54 275.902C495.515 250.251 470.181 223.657 474.012 196.753C475.533 186.071 481.644 175.999 480.634 165.257C479.713 155.456 473.064 147.279 466.704 139.765C437.992 105.838 409.28 71.9109 380.568 37.9849C375.088 31.5089 369.376 24.8499 361.741 21.1509C355.466 18.1099 348.374 17.313 341.44 16.56C320.954 14.334 300.467 12.11 279.981 9.88398C270.71 8.87698 260.954 7.9369 252.387 11.6219C237.777 17.9059 231.582 35.3939 230.344 51.2509C229.107 67.1079 231.131 83.526 226.016 98.587C220.454 114.958 206.781 128.612 205.586 145.86C205.092 153.008 206.722 160.766 203.111 166.955C193.862 182.806 165.923 173.519 151.403 180.552C134.502 188.741 119.874 209.946 106.602 222.893Z" fill="#7EBB15"/>
<path d="M410.892 225.063C422.801 233.13 436.088 238.951 449.586 243.922C449.875 242.689 450.164 241.456 450.453 240.223C436.359 232.711 423.04 223.749 410.769 213.527C404.482 208.289 398.222 202.293 395.229 194.814C413.48 193.474 431.665 192.861 449.419 192.63C449.487 189.608 449.487 189.608 449.558 186.585C419.208 185.323 396.54 186.266 367.848 186.687C365.831 186.717 363.803 186.771 361.77 186.837C361.287 183.932 362.097 180.714 363.042 177.826C372.054 150.344 390.047 125.888 413.603 109.107C413.054 108.323 412.506 107.538 411.958 106.753C394.801 114.108 379.886 126.251 368.705 141.187C360.114 131.044 357.804 117.069 358.046 103.54C366.424 100.761 374.769 97.842 382.667 93.918C391.747 89.406 400.28 83.486 406.652 75.6C405.876 75.06 405.099 74.52 404.323 73.979C397.639 83.266 386.893 88.614 376.47 93.335C370.71 95.945 364.451 98.51 358.274 98.078C358.276 98.059 358.277 98.041 358.278 98.0229C359.188 84.1099 362.12 69.8261 370.334 58.5601C369.625 57.4741 367.958 57.413 366.853 58.09C365.748 58.767 365.077 59.955 364.474 61.103C349.788 89.086 348.556 123.742 361.136 152.723C354.986 163.497 350.654 175.291 348.585 187.524C311.429 190.194 272.813 199.178 240.925 216.736C237.804 203.851 234.728 190.279 231.263 176.559C241.214 165.461 246.786 151.187 251.662 137.095C253.37 132.16 255.02 127.181 256.363 122.135C275.096 115.053 292.023 102.219 300.188 84.097C302.385 79.22 303.911 74.071 305.367 68.923C308.125 59.179 310.663 49.3709 312.978 39.5129C311.678 39.2039 310.377 38.896 309.077 38.588C305.73 54.498 300.864 70.328 292.112 84.031C284.075 96.615 272.447 107.327 258.481 112.413C258.716 110.977 258.919 109.537 259.076 108.088C259.971 99.772 259.45 91.378 258.928 83.031C258.08 69.48 257.225 55.873 254.411 42.592C252.114 42.907 249.816 43.224 247.519 43.54C256.153 83.333 251.206 127.549 226.928 160.204C222.357 143.851 216.99 127.591 210.091 112.325C201.326 92.935 187.066 76.646 173.011 60.671C169.16 64.945 172.918 71.5549 176.457 76.0909C183.612 85.2649 190.191 95.029 195.986 105.246C183.959 104.851 172.158 100.855 161.771 94.735C150.582 88.141 140.943 79.165 132.458 69.33C131.14 70.058 129.82 70.785 128.501 71.512C136.535 85.059 148.054 96.401 161.489 104.605C152.028 112.307 138.071 116.002 126.061 116.953C112.984 117.987 100.899 116.953 85.4521 111.789C84.9341 113.327 84.9342 113.327 84.4172 114.865C106.834 125.004 133.3 125.82 156.299 117.082C161.298 115.184 166.237 112.753 170.394 109.443C180.625 114.354 191.679 117.522 202.974 118.6C211.542 136.444 217.61 155.413 220.128 174.871C221.792 187.732 228.776 210.651 223.691 222.908C218.128 236.316 194.701 245.115 183.159 251.937C174.314 257.164 165.412 262.292 156.456 267.325C146.854 248.973 131.084 234.186 113.972 222.311C113.029 221.657 112.075 221.011 111.115 220.372C110.113 209.603 107.869 198.95 104.426 188.698C101.631 180.375 98.0062 172.239 92.7002 165.245C84.8302 154.871 73.6303 147.49 61.9553 141.724C61.7293 142.819 61.5043 143.914 61.2783 145.009C86.5783 157.771 103.03 186.218 101.64 214.496C84.8201 204.862 66.0623 198.443 47.0293 200.58C47.1783 201.442 47.3283 202.305 47.4763 203.167C60.1693 204.883 72.5233 208.645 84.0833 214.114C84.0363 234.005 74.7202 253.743 59.2612 266.291C56.7222 268.351 53.8002 270.624 53.5012 273.88C64.1142 269.1 71.7933 259.499 77.6013 249.41C83.3653 239.397 87.6973 228.564 90.4443 217.343C113.812 230.002 133.394 249.764 145.131 273.616C120.11 287.373 94.6734 300.373 68.8604 312.579C67.8644 315.435 72.7783 316.095 75.5823 314.961C106.102 302.625 133.151 292.242 161.992 277.439C159.826 314.481 140.408 350.244 110.335 372.03C110.763 372.667 111.19 373.303 111.618 373.94C119.248 371.485 125.69 366.314 131.523 360.818C146.855 346.372 159.281 328.563 167.142 309.067C177.548 318.153 182.305 332.63 184.665 346.463C188.286 367.677 187.811 389.582 183.275 410.62C183.776 410.88 184.394 411.138 184.876 410.843C185.213 410.636 185.354 410.226 185.47 409.848C191.341 390.66 194.499 370.383 192.122 350.459C189.93 332.077 182.743 313.987 170.309 300.35C173.489 290.553 175.506 280.411 176.166 270.115C196.604 259.804 217.835 250.497 235.716 242.654C253.9 264.71 283.133 273.43 308.313 286.972C307.46 293.808 306.868 300.692 306.663 307.577C287.92 314.061 272.8 329.461 264.994 347.723C257.004 366.414 256.309 387.782 261.096 407.537C262.24 407.285 263.382 407.033 264.527 406.78C262.79 388.72 261.848 370.002 267.944 352.914C274.018 335.884 288.711 320.754 306.722 319.363C306.96 325.244 307.527 331.104 308.515 336.914C311.461 354.22 318.247 371.117 329.688 384.433C330.528 384.031 331.367 383.627 332.207 383.225C320.44 360.806 310.85 335.912 313.653 310.747C314.351 304.482 315.935 298.084 319.562 292.992C338.078 302.921 358.7 314.45 372.391 328.497C387.39 343.887 394.208 356.898 402.792 356.585C387.613 331.901 367.062 310.547 343.019 294.375C350.176 289.147 362.008 281.683 378.754 277.592C385.651 275.906 392.663 274.881 399.735 274.231C399.183 287.276 399.676 300.491 403.174 313.063C406.762 325.962 413.737 338.221 424.372 346.357C424.908 345.705 425.445 345.052 425.982 344.4C409.544 325.284 403.349 297.86 409.917 273.526C420.568 272.999 431.295 273.016 441.913 272.642C441.754 271.11 441.595 269.579 441.435 268.046C422.519 267.518 403.488 266.997 384.767 269.753C366.856 272.389 349.079 278.223 334.567 288.988C334.552 288.979 334.539 288.97 334.525 288.962C304.36 270.805 263.361 262.564 249.215 230.321C289.626 209.713 336.185 200.147 382.843 195.838C389.578 207.657 399.615 217.424 410.892 225.063Z" fill="#93733E"/>
<path d="M474.013 196.452C475.534 185.771 481.645 175.698 480.635 164.957C479.714 155.155 473.065 146.979 466.705 139.465C437.993 105.538 409.281 71.611 380.569 37.684C375.089 31.208 369.377 24.55 361.742 20.851C355.467 17.81 348.375 17.012 341.441 16.259C340.869 16.197 340.296 16.135 339.724 16.072C362.08 42.489 384.437 68.905 406.792 95.321C413.151 102.836 419.801 111.011 420.722 120.813C421.732 131.554 415.62 141.627 414.099 152.309C410.269 179.212 435.602 205.807 426.628 231.458C421.208 246.947 404.645 256.454 399.161 271.922C395.428 282.454 397.391 294.315 393.906 304.932C388.784 320.538 373.139 330.136 357.772 335.935C342.405 341.734 325.809 345.299 312.533 354.97C306.067 359.68 300.624 365.691 294.095 370.312C276.719 382.609 253.97 383.674 232.691 383.069C215.432 382.579 197.472 381.404 181.584 388.165C172.754 391.923 165.069 397.952 156.406 402.078C136.857 411.39 113.866 410.057 93.3652 402.395C106.969 416.921 121.645 430.402 138.991 439.972C162.511 452.949 192.066 457.773 216.318 446.221C224.981 442.095 232.667 436.066 241.497 432.308C257.385 425.546 275.345 426.722 292.604 427.212C313.882 427.817 336.632 426.752 354.007 414.454C360.537 409.833 365.98 403.823 372.446 399.113C385.721 389.442 402.317 385.877 417.684 380.078C433.052 374.279 448.696 364.682 453.819 349.075C457.303 338.458 455.34 326.597 459.073 316.065C464.556 300.597 481.12 291.09 486.54 275.6C495.516 249.951 470.182 223.356 474.013 196.452Z" fill="#78A015"/>
<path d="M57.597 308.856C58.72 312.792 61.076 316.263 62.483 320.107C65.635 328.722 63.791 338.401 65.95 347.318C68.944 359.687 79.063 368.849 88.671 377.197C93.294 381.216 98.028 385.302 103.692 387.636C112.348 391.202 122.771 390.104 130.493 384.809C138.215 379.515 142.997 370.189 142.79 360.829C142.719 357.621 142.058 354.33 140.233 351.69C138.488 349.164 135.81 347.423 133.02 346.143C122.181 341.173 108.167 341.789 100.395 332.745C93.5871 324.824 94.741 313.035 96.283 302.704C97.763 292.793 127.989 256.183 100.214 261.802C82.7362 265.336 51.904 288.905 57.597 308.856Z" fill="#94D31A"/>
<path d="M217.781 41.442C216.478 35.922 215.191 30.035 217.084 24.688C220.465 15.139 231.955 11.7199 241.864 9.62094C252.724 7.31994 263.584 5.01799 274.443 2.71799C279.876 1.56699 285.381 0.408997 290.926 0.675997C308.012 1.499 321.32 15.177 332.739 27.911C345.335 41.957 357.929 56.002 370.525 70.047C373.592 73.468 376.869 77.4989 376.344 82.0649C375.475 89.6449 364.924 91.972 357.913 88.962C350.902 85.951 345.531 79.858 338.439 77.041C330.468 73.875 321.062 75.152 313.545 71.015C305.284 66.466 298.598 54.55 287.846 58.306C277.783 61.822 275.029 75.9529 263.474 78.8719C241.114 84.5209 222.136 59.888 217.781 41.442Z" fill="#94D31A"/>
<path d="M197.326 138.063C196.608 126.082 180.916 117.365 166.227 117.908C151.539 118.452 138.518 126.016 128.723 134.964C122.514 140.637 117.134 147.114 114.64 154.443C112.302 161.309 112.752 169.012 117.035 175.181C115.046 178.821 113.806 182.723 113.548 186.762C112.808 198.288 118.777 209.316 124.619 219.828C127.742 225.447 131.041 231.26 136.81 235.248C145.268 241.093 158.548 241.685 167.736 236.626C176.923 231.566 181.218 221.296 177.738 212.71C174.654 205.101 166.369 199.229 164.537 191.354C162.185 181.245 171.093 171.886 179.725 164.385C188.357 156.882 197.942 148.34 197.326 138.063Z" fill="#94D31A"/>
<path d="M317.388 183.289C317.251 187.242 315.848 191.022 314.712 194.812C312.788 201.231 311.602 208.076 313.009 214.627C314.416 221.178 318.848 227.385 325.236 229.412C336.669 233.04 347.908 222.205 351.958 210.915C356.001 199.645 356.03 187.359 355.347 175.405C354.379 158.495 350.831 139.534 336.736 130.141C334.558 128.691 332.097 127.435 330.714 125.214C328.116 121.046 330.4 115.645 330.066 110.744C327.677 75.718 277.359 112.215 271.594 128.313C259.916 160.925 318.475 151.737 317.388 183.289Z" fill="#94D31A"/>
<path d="M235.975 163.341C223.93 167.399 214.16 177.651 210.69 189.879C209.663 193.498 209.139 197.308 207.421 200.655C205.025 205.323 200.57 208.595 197.721 213.001C194.717 217.646 193.673 223.253 192.743 228.706C190.564 241.486 188.776 255.184 194.203 266.958C199.63 278.732 215.162 286.711 226.041 279.659C236.988 272.564 237.739 254.857 249.447 249.104C258.601 244.605 271.34 249.326 278.703 242.268C286.305 234.983 281.412 222.447 281.722 211.923C281.951 204.116 285.391 196.594 285.066 188.791C284.213 168.312 252.767 157.686 235.975 163.341Z" fill="#94D31A"/>
<path d="M31.1043 262.125C33.5473 255.574 39.1243 250.288 40.3093 243.397C40.9083 239.918 40.3193 236.293 41.1143 232.852C42.7563 225.757 50.9992 220.973 57.9732 223.066C65.4552 225.312 69.6184 233.49 76.6314 236.93C79.5484 238.361 82.9252 238.952 85.4392 241.01C91.0792 245.627 89.2893 255.043 84.5703 260.599C79.8503 266.154 73.0573 269.583 68.1033 274.929C61.1823 282.398 52.8654 290.534 41.9434 286.836C31.8724 283.428 27.5363 271.688 31.1043 262.125Z" fill="#94D31A"/>
<path d="M225.144 31.785C225.014 27.306 223.264 22.7259 220.355 19.2769C215.058 12.9979 206.925 9.838 198.897 8.097C166.157 0.995003 132.443 13.6599 102.754 29.1789C85.4379 38.2319 68.5329 48.4399 54.2439 61.7669C49.6699 66.0319 45.281 70.756 42.979 76.571C39.269 85.944 41.5221 96.449 42.2971 106.5C43.0721 116.552 41.4719 128.225 33.0439 133.756C28.7769 136.556 23.376 137.291 19.24 140.281C14.81 143.481 12.475 148.769 10.424 153.835C3.21405 171.648 -2.99201 191.324 2.29099 209.801C5.41099 220.708 19.3069 235.27 33.2209 239.091C32.3089 237.345 31.589 235.631 31.123 234C25.839 215.523 32.0461 195.847 39.2561 178.034C41.3071 172.969 43.642 167.68 48.071 164.48C52.208 161.492 57.608 160.756 61.875 157.956C70.304 152.426 71.9039 140.752 71.1279 130.7C70.3529 120.649 68.1 110.145 71.81 100.771C74.113 94.9569 78.5009 90.233 83.0749 85.967C84.2809 84.842 85.5119 83.748 86.7539 82.666C97.0029 80.201 108.018 80.847 117.74 84.947C120.078 85.933 122.352 87.1029 124.794 87.7939C134.174 90.4449 145.125 84.546 148.071 75.254C148.915 72.593 149.171 69.749 150.264 67.18C152.257 62.494 156.684 59.409 160.552 56.097C164.98 52.304 169.05 47.643 170.297 41.947C170.669 40.244 170.706 38.443 170.44 36.696C188.361 31.016 206.883 28.402 225.144 31.785Z" fill="#94D31A"/>
</svg>
