<svg width="97" height="95" viewBox="0 0 97 95" fill="none" xmlns="http://www.w3.org/2000/svg">
<path d="M1.48818 15.9315C-0.901038 22.6186 -0.347835 30.3382 2.6768 36.7324C4.3484 40.2662 6.71364 43.3878 8.47002 46.8755C13.78 57.4192 13.3604 70.8902 20.579 80.0843C25.2125 85.9858 32.2582 89.0925 39.1574 91.4844C46.6278 94.0742 54.6192 96.0981 62.3031 94.3378C67.9278 93.049 72.9805 89.8122 77.5939 86.1796C85.0146 80.3367 91.7849 73.048 95.0848 63.9185C98.3846 54.789 97.5948 43.5722 91.3492 36.3587C87.5196 31.9361 82.1576 29.4385 77.2124 26.496C67.4056 20.6612 58.8254 12.7373 49.0163 6.90685C33.9707 -2.0367 9.07246 -5.29481 1.48818 15.9315Z" fill="#CADBE0"/>
<path d="M17.0975 10.5979C10.7411 14.9356 7.04889 23.9047 9.79285 31.35C11.2242 35.2336 14.1268 38.3037 15.9509 41.9994C18.7383 47.6465 18.8346 54.3521 21.0123 60.2899C23.7285 67.695 29.5204 73.424 35.8705 77.6831C39.875 80.3689 44.2019 82.5901 48.8121 83.7741C52.5798 84.7416 56.4961 85.0039 60.3643 84.7198C63.4032 84.4966 66.4459 83.9297 69.2568 82.6911C71.6976 81.6154 73.9237 80.0505 75.9679 78.2791C80.3442 74.4857 83.9799 69.6241 85.915 64.0071C87.8502 58.3899 87.9882 51.9943 85.7647 46.4975C83.6144 41.1817 79.4622 37.0377 74.9794 33.7174C70.4966 30.397 65.594 27.7469 61.1087 24.4302C55.3587 20.1782 50.345 14.8662 44.3184 11.022C39.1008 7.69385 33.0023 6.35626 26.9229 7.05262C23.4499 7.45029 20.0419 8.58883 17.0975 10.5979Z" fill="#66D8DD"/>
<path d="M14.4493 17.8905C17.3935 15.8812 20.8017 14.7427 24.2749 14.345C30.3544 13.6486 36.4526 14.9862 41.6704 18.3144C47.6967 22.1586 52.7105 27.4703 58.4607 31.7226C62.9458 35.0395 67.8484 37.6893 72.3314 41.0098C76.8142 44.3301 80.9664 48.4741 83.1167 53.7899C84.6714 57.6334 85.0703 61.9162 84.5087 66.0652C84.847 65.3031 85.1553 64.5259 85.4285 63.733C87.3636 58.1158 87.5017 51.7203 85.2782 46.2235C83.1281 40.9077 78.9756 36.7637 74.4929 33.4432C70.0101 30.1227 65.1075 27.4726 60.6223 24.1562C54.8721 19.9041 49.8586 14.5922 43.832 10.748C38.6145 7.4198 32.516 6.08222 26.4368 6.77858C22.9634 7.17646 19.5551 8.315 16.611 10.3241C11.9867 13.4799 8.77557 19.0867 8.42383 24.7748C9.86956 22.0147 11.9524 19.5946 14.4493 17.8905Z" fill="#5CC4C4"/>
<path d="M89.2689 39.1962C88.5988 39.4723 88.0717 40.0444 87.6756 40.678C86.4294 42.6708 86.3555 45.2441 86.7218 47.6004C87.0974 50.0165 88.0944 52.6026 90.2108 53.6054C90.7392 53.8555 91.3277 53.9929 91.9011 53.9077C93.2252 53.7109 94.1492 52.4101 94.6645 51.1078C95.8934 48.0026 95.5947 44.2732 93.8893 41.4297C92.958 39.8761 91.1136 38.4364 89.2689 39.1962Z" fill="#B3C1C4"/>
<path d="M90.9462 60.2129C90.6926 61.2465 90.5587 62.5263 91.3322 63.2143C92.0075 63.8146 93.0916 63.6029 93.7506 62.9825C94.4093 62.362 94.7358 61.4461 94.9951 60.5554C95.2528 59.6701 95.4695 58.7569 95.4464 57.8312C95.4108 56.4098 94.6988 54.3367 93.2068 55.4328C91.9083 56.3867 91.3175 58.7011 90.9462 60.2129Z" fill="#B59686"/>
<path d="M89.9595 54.9716C89.3088 54.8279 88.5878 55.2335 88.3377 55.8837C88.0843 56.5433 88.2998 57.302 88.627 57.9245C88.7214 58.1039 88.8451 58.2939 89.0352 58.3373C89.2812 58.3933 89.5026 58.1816 89.6745 57.9877C90.0385 57.577 90.4165 57.1389 90.5345 56.5907C90.6522 56.0421 90.3953 55.3618 89.874 55.2464L89.9595 54.9716Z" fill="#DDCD97"/>
<path d="M88.9196 63.3929C88.7324 63.2838 88.5295 63.1896 88.3156 63.1875C87.7887 63.183 87.4162 63.7104 87.1398 64.184C85.9071 66.2956 84.7114 68.6857 85.1 71.1315C85.2041 71.7863 85.4509 72.4619 85.9688 72.839C86.8346 73.4696 88.0354 73.0091 88.8909 72.3631C89.8746 71.6204 90.717 70.6206 91.1212 69.4175C91.8187 67.342 90.7549 64.4639 88.9196 63.3929Z" fill="#B3C1C4"/>
<path d="M79.6978 75.4227C79.1735 76.1243 78.8671 76.9808 78.6579 77.8469C78.5211 78.4133 78.4239 79.0193 78.5961 79.5749C78.884 80.504 79.8763 81.03 80.8024 81.0183C81.7288 81.0063 82.5991 80.5697 83.4107 80.0984C84.3152 79.5733 85.2315 78.9493 85.7143 77.9861C87.6828 74.0587 81.7464 72.6818 79.6978 75.4227Z" fill="#B59686"/>
<path d="M76.1678 80.0591C74.9526 80.2767 73.7989 80.8635 72.8809 81.7311C72.6049 81.9917 72.3333 82.3181 72.3296 82.7088C72.3243 83.3051 72.9169 83.6867 73.4405 83.9099C74.0186 84.1564 74.6114 84.3638 75.2142 84.5306C75.9666 84.7387 76.757 84.8837 77.5195 84.7235C78.2823 84.5636 79.0162 84.0453 79.2723 83.2703C79.3487 83.0391 79.3802 82.7838 79.3129 82.5495C79.2487 82.3258 79.1008 82.1401 78.9466 81.972C78.2399 81.2009 77.3196 80.6502 76.3299 80.4062L76.1678 80.0591Z" fill="#DDCD97"/>
<path d="M67.0149 84.6363C65.0083 85.445 63.0074 86.2697 61.0127 87.1104C60.5623 87.3004 60.0768 87.5234 59.8483 87.9751C59.5912 88.4835 59.762 89.1464 60.1382 89.5637C60.5146 89.9815 61.0532 90.1923 61.588 90.3096C63.2643 90.6774 65.0001 90.2476 66.639 89.7248C68.0168 89.2853 69.4202 88.7501 70.4637 87.704C71.0053 87.1608 71.4461 86.4507 71.4887 85.6635C71.6459 82.7556 68.3861 84.0839 67.0149 84.6363Z" fill="#B59686"/>
<path d="M73.2366 85.0451C72.444 85.2629 72.0636 86.2349 72.0246 87.0982C71.9972 87.7078 72.2289 88.4821 72.8056 88.5255C73.0081 88.5406 73.2045 88.4546 73.3864 88.3592C74.1486 87.9604 74.8206 87.3716 75.3319 86.6542C74.9681 85.849 74.1704 85.2823 73.3265 85.2294L73.2366 85.0451Z" fill="#B3C1C4"/>
<path d="M59.9417 91.2968C58.8032 91.4025 57.5497 91.5663 56.7861 92.4638C56.6617 92.6097 56.5487 92.7984 56.588 92.9902C56.6354 93.2209 56.8736 93.3402 57.0858 93.4157C59.0147 94.1037 61.1937 93.9733 63.0366 93.06C63.2216 92.9683 63.4087 92.8648 63.5391 92.6983C64.9165 90.9432 60.4239 91.252 59.9417 91.2968Z" fill="#DDCD97"/>
<path d="M53.9518 86.3622C52.6961 86.9953 51.5262 87.9878 51.0361 89.3623C50.5461 90.7369 50.9348 92.5169 52.1526 93.2275C52.5247 93.4448 52.964 93.5542 53.3814 93.4692C53.703 93.4037 53.9939 93.2293 54.2768 93.0551C55.3859 92.3707 56.4934 91.6215 57.2885 90.5564C59.7317 87.2843 57.3063 84.671 53.9518 86.3622Z" fill="#B3C1C4"/>
<path d="M44.1104 86.9818C43.4835 86.9648 42.8351 87.041 42.2877 87.3632C41.74 87.6854 41.3125 88.2943 41.3245 88.9559C41.3386 89.748 41.9395 90.3814 42.5428 90.8529C43.7098 91.765 45.0517 92.4273 46.4632 92.7872C46.9209 92.904 47.396 92.9897 47.8616 92.916C49.6989 92.6263 50.311 90.129 49.0565 88.7785C48.0034 87.6449 45.5184 87.0202 44.1104 86.9818Z" fill="#B59686"/>
<path d="M50.7403 84.7989C49.9195 84.4525 48.9871 84.4087 48.1402 84.6771C47.858 84.7666 47.5536 84.9245 47.4688 85.2223C47.3979 85.4711 47.5058 85.7355 47.6324 85.9585C47.9075 86.4427 48.2841 86.8611 48.7234 87.1838C49.5118 87.7626 50.6587 87.9893 51.401 87.3458C51.7867 87.0111 52.0038 86.4382 51.8559 85.935C51.708 85.4316 51.1492 85.0789 50.6795 85.2578L50.7403 84.7989Z" fill="#DDCD97"/>
<path d="M36.9212 82.3904C35.854 83.0633 35.2066 84.3034 34.8856 85.5708C34.7623 86.0577 34.6799 86.5728 34.7878 87.0638C34.8717 87.4459 35.0681 87.7934 35.3125 88.0885C36.1042 89.044 37.4483 89.4423 38.5956 89.0618C39.6911 88.6985 40.5027 87.7403 41.4804 87.1047C41.9874 86.7751 42.5425 86.5308 43.0345 86.177C47.0617 83.2797 39.2096 80.9482 36.9212 82.3904Z" fill="#DDCD97"/>
<path d="M29.1653 76.191C28.7371 76.2859 28.2995 76.4608 28.0274 76.8225C27.5588 77.4461 27.7529 78.3786 28.1417 79.0603C29.231 80.9708 31.4611 81.7865 33.5562 82.0734C34.3961 82.1887 35.3274 82.2176 36.0015 81.6769C36.5841 81.2101 36.8459 80.3422 36.6267 79.6057C36.3122 78.5494 34.6352 77.8031 33.769 77.2674C32.3914 76.4156 30.772 75.8358 29.1653 76.191Z" fill="#B3C1C4"/>
<path d="M28.313 82.8886C27.7219 83.5384 27.7389 84.627 28.1814 85.3975C28.6239 86.1677 29.4019 86.6601 30.203 86.9705C31.1268 87.3286 32.2317 87.459 33.0388 86.8648C36.2747 84.4824 30.6504 80.3187 28.313 82.8886Z" fill="#B59686"/>
<path d="M21.1463 75.0234C20.9367 75.9656 21.062 76.9534 21.2444 77.9017C21.3754 78.5825 21.5381 79.2644 21.843 79.8801C22.376 80.956 23.299 81.7468 24.1966 82.506C24.6619 82.8994 25.311 83.3068 25.8049 82.9545C25.983 82.8275 26.0958 82.623 26.193 82.4206C27.0958 80.5364 27.9577 75.6195 26.5084 73.8142C25.0219 71.9632 21.6734 72.6546 21.1463 75.0234Z" fill="#DDCD97"/>
<path d="M16.7625 71.4891C16.891 72.0826 17.2042 72.6384 17.6681 73.0002C19.7976 74.6607 21.9216 71.6414 20.7531 69.5453C19.4022 67.1213 16.2018 68.8946 16.7625 71.4891Z" fill="#B3C1C4"/>
<path d="M22.9136 68.2909C22.5815 68.7261 22.6355 69.3587 22.7813 69.8958C22.9125 70.38 23.1084 70.8527 23.418 71.2363C24.0328 71.9982 24.9996 72.3093 25.9114 72.5843C26.3835 72.7269 27.0566 72.7628 27.196 72.2659C27.2859 71.9451 27.0617 71.6292 26.8524 71.3778C26.3413 70.7637 23.9699 66.8544 22.9136 68.2909Z" fill="#B59686"/>
<path d="M17.4395 62.2145C16.9553 62.2066 16.4485 62.2733 16.0478 62.56C15.195 63.17 15.1569 64.4634 15.2584 65.5452C15.3081 66.0766 15.3933 66.6559 15.7707 67.0113C16.3796 67.5846 17.3207 67.2515 18.1364 67.2416C19.2723 67.2276 20.4704 67.8998 21.4894 67.3699C21.9752 67.1175 22.3272 66.5981 22.3967 66.0314C22.6746 63.7656 19.0887 62.2407 17.4395 62.2145Z" fill="#DDCD97"/>
<path d="M14.2896 56.7992C13.989 56.7705 13.7015 56.947 13.4867 57.1711C12.7351 57.9554 12.7361 59.3578 13.4075 60.2189C14.0791 61.0802 15.2891 61.3708 16.2921 61.019C16.6248 60.9022 16.9479 60.7135 17.1526 60.4132C17.5276 59.8626 17.4048 59.0657 17.0352 58.511C16.6657 57.9563 16.101 57.5885 15.5518 57.2362C15.2577 57.0476 14.901 56.8532 14.5867 57.0012L14.2896 56.7992Z" fill="#B3C1C4"/>
<path d="M19.0009 58.2014C18.6455 58.2803 18.4427 58.6691 18.3042 59.0236C18.1244 59.4834 17.9705 59.9724 18.0075 60.4683C18.0445 60.9641 18.3139 61.4695 18.7579 61.6358C19.3644 61.8629 20.052 61.3452 20.231 60.6927C20.41 60.0404 20.1957 59.3343 19.8686 58.7496C19.7819 58.5943 19.6789 58.4366 19.5235 58.3621C19.368 58.2875 19.1486 58.3347 19.085 58.5019L19.0009 58.2014Z" fill="#B59686"/>
<path d="M13.8772 51.3013C12.8172 52.0083 12.3437 53.627 12.9883 54.7619C13.571 55.7882 14.7834 56.17 15.8928 56.4145C16.6156 56.5738 17.4214 56.6969 18.0485 56.2852C21.1018 54.2809 16.8526 49.3169 13.8772 51.3013Z" fill="#DDCD97"/>
<path d="M9.99735 43.0931C9.83871 43.0475 9.67129 43.0122 9.51072 43.049C9.18874 43.1229 8.98642 43.4596 8.86996 43.7852C8.55161 44.6747 8.61627 45.7082 9.0423 46.5457C9.41374 47.276 10.0314 47.8404 10.4067 48.5689C10.755 49.244 10.9402 50.1075 11.5912 50.4521C12.0143 50.6762 12.5435 50.5996 12.946 50.3366C13.3482 50.0739 13.6356 49.6475 13.8284 49.1915C14.2395 48.2204 14.2515 47.0695 13.8606 46.0896C13.2603 44.5841 11.4399 43.5082 9.99735 43.0931Z" fill="#B59686"/>
<path d="M16.3592 45.6278C15.8075 45.4286 15.329 46.0982 15.1751 46.692C15.0438 47.1977 14.9914 47.7264 15.0205 48.2501C15.0584 48.9275 15.3586 49.7222 15.9948 49.8191C16.392 49.8797 16.7869 49.6221 17.0117 49.2712C17.2363 48.9203 17.32 48.491 17.3699 48.0707C17.4746 47.1902 17.3511 46.1109 16.5968 45.7189L16.3592 45.6278Z" fill="#B3C1C4"/>
<path d="M9.3855 39.0459C8.913 39.1923 8.42681 39.4724 8.25618 39.9598C8.03332 40.5963 8.45935 41.3087 9.01041 41.658C9.56169 42.0071 10.2177 42.1083 10.8278 42.3221C11.6238 42.6006 12.3555 43.081 12.9443 43.7111C13.3421 44.137 13.749 44.6691 14.3153 44.6868C14.9327 44.706 15.4086 44.0659 15.5302 43.4269C16.1064 40.3957 11.5709 38.3676 9.3855 39.0459Z" fill="#DDCD97"/>
<path d="M5.58544 36.9695C5.41995 36.6026 4.84897 36.6729 4.6336 37.01C4.41801 37.3466 4.4634 37.7949 4.55332 38.1901C4.71324 38.8932 4.98878 39.5672 5.36343 40.1725C5.55868 40.4879 5.83785 40.8153 6.19452 40.8011C6.43537 40.7914 6.64389 40.6239 6.81344 40.443C7.42702 39.788 7.75436 38.7873 7.47905 37.9133C7.20351 37.0394 6.23648 36.4218 5.41331 36.7282L5.58544 36.9695Z" fill="#B59686"/>
<path d="M5.38789 34.545C4.98198 34.4644 4.56772 34.4086 4.18364 34.2486C3.40286 33.9232 2.78864 33.0929 2.83552 32.2085C2.88605 31.2528 3.69787 30.4663 4.59019 30.2944C5.48251 30.1224 6.40844 30.4697 7.14683 31.0259C7.885 31.5824 8.46753 32.3342 9.04043 33.0762C9.61141 33.8157 10.1822 34.5552 10.7531 35.2947C11.1092 35.7556 11.4543 36.4787 11.0325 36.8729C10.3222 37.537 9.49538 36.4129 8.99034 36.0586C7.91369 35.3029 6.65636 34.797 5.38789 34.545Z" fill="#B3C1C4"/>
<path d="M0.855357 27.5998C1.03219 27.9579 1.26319 28.2928 1.56955 28.535C2.34305 29.1459 3.51518 29.021 4.24437 28.352C5.78751 26.9362 5.16045 23.3665 3.16537 22.6609C0.582183 21.7469 0.0313328 25.9303 0.855357 27.5998Z" fill="#DDCD97"/>
<path d="M7.25244 23.3344C6.62237 23.3201 6.2413 24.0705 6.12355 24.7239C5.97133 25.5676 6.00387 26.4479 6.21839 27.2764C6.28154 27.5202 6.36654 27.7703 6.54273 27.9418C6.71893 28.1133 7.0103 28.1766 7.19891 28.0207C7.32137 27.9197 7.37511 27.7536 7.4205 27.5966C7.71786 26.5663 7.91504 25.5039 8.00795 24.4311C8.0467 23.9842 7.93473 23.3707 7.50955 23.3597L7.25244 23.3344Z" fill="#B59686"/>
<path d="M2.02956 19.3864C2.11455 19.7612 2.35369 20.0776 2.62216 20.339C3.53267 21.2267 4.78188 21.5914 5.9797 21.9271C6.6742 22.1217 7.50058 22.2873 8.0403 21.7866C8.3762 21.475 8.5023 20.9666 8.45927 20.4969C8.30469 18.8157 6.45155 16.4936 4.91889 15.9672C3.14282 15.3571 1.62408 17.5949 2.02956 19.3864Z" fill="#B59686"/>
<path d="M7.54533 10.9128C6.86539 12.1275 6.95253 13.6757 7.38713 15.0101C7.54619 15.4986 7.7545 15.9816 8.09233 16.3556C8.43017 16.7293 8.91636 16.9817 9.40277 16.9241C9.98273 16.8552 10.4372 16.382 10.8226 15.9195C11.5239 15.0781 12.1649 14.1804 12.7376 13.2369C14.7473 9.92657 9.22785 7.90685 7.54533 10.9128Z" fill="#B3C1C4"/>
<path d="M4.315 11.1285C3.77807 11.6678 3.21287 12.2596 3.07628 13.0285C2.9397 13.7974 3.48284 14.7369 4.21887 14.644C4.7466 14.5776 5.09813 14.05 5.35739 13.5604C5.622 13.0603 5.87184 12.495 5.7588 11.9347C5.64577 11.3746 4.98916 10.9259 4.54321 11.2526L4.315 11.1285Z" fill="#DDCD97"/>
<path d="M8.18887 6.75883C7.87823 7.15378 7.58493 7.6818 7.77825 8.15289C7.9022 8.45475 8.2015 8.64025 8.50465 8.71775C9.40553 8.94754 10.3075 8.39556 11.2287 8.28823C12.7772 8.10793 14.3028 9.19292 15.8327 8.88225C16.9275 8.66014 17.8419 7.6635 18.0172 6.5017C18.1926 5.33966 17.6171 4.09289 16.6419 3.52239C13.9639 1.95569 9.85511 4.64061 8.18887 6.75883Z" fill="#B59686"/>
<path d="M21.8854 2.93774C21.1492 3.21972 20.3943 3.57446 19.9209 4.23308C19.4474 4.89149 19.3712 5.93579 19.9529 6.48936C20.3553 6.87233 20.9492 6.92723 21.4889 6.87549C22.5896 6.76952 23.6553 6.29188 24.4915 5.52931C24.9469 5.11403 25.3562 4.42354 25.0422 3.88173C24.9396 3.70481 24.7745 3.57941 24.6073 3.47118C23.8809 3.00145 23.0209 2.76556 22.1697 2.80284L21.8854 2.93774Z" fill="#B3C1C4"/>
<path d="M19.8296 1.10454C18.9961 1.03721 18.143 1.28283 17.4573 1.78759C17.3547 1.86305 17.2498 1.9532 17.2173 2.08064C17.1674 2.27563 17.308 2.46949 17.4652 2.58427C18.0105 2.98306 18.7593 2.84251 19.3695 2.56843C19.9796 2.29414 20.5583 1.89828 21.2168 1.81445C21.9231 1.72475 22.7065 1.99272 23.3128 1.60026C23.3958 1.54648 23.4763 1.47599 23.5087 1.37906C23.6104 1.07358 23.2098 0.867537 22.9047 0.833419C21.9773 0.729711 21.0336 0.790488 20.125 1.01237L19.8296 1.10454Z" fill="#DDCD97"/>
<path d="M26.6202 5.56171C26.9623 5.65051 27.3044 5.73932 27.6465 5.82834C28.4926 6.04818 29.371 6.26892 30.2265 6.09472C34.0053 5.32493 30.6474 1.38762 28.5983 0.824111C25.7651 0.0448287 24.1802 4.92794 26.6202 5.56171Z" fill="#B59686"/>
<path d="M32.7722 3.18925C32.9084 3.37679 33.112 3.4972 33.2612 3.67366C33.6506 4.13391 33.5945 4.86621 33.9396 5.36419C34.2479 5.80885 34.7996 5.96609 35.3107 6.07793C36.322 6.29936 37.3458 6.45731 38.3749 6.5504C38.929 6.60056 39.5971 6.57434 39.8896 6.07523C40.0788 5.75281 40.0343 5.33074 39.8975 4.97985C39.5599 4.11471 38.7551 3.56249 37.9581 3.15263C36.9531 2.63612 35.6489 1.89028 34.5596 1.62163C33.7759 1.42845 31.8786 1.95876 32.7722 3.18925Z" fill="#DDCD97"/>
<path d="M45.1088 8.36921C45.0026 7.30139 44.0097 6.42111 42.9947 6.49477L42.7097 6.05237C42.1086 6.091 41.5187 6.30657 41.0236 6.66831C40.7035 6.90216 40.3967 7.29801 40.5267 7.68528C40.5847 7.85858 40.7202 7.98805 40.8534 8.10622C41.571 8.74225 42.3755 9.26847 43.2349 9.66364C43.5783 9.82158 43.9593 9.96053 44.3207 9.85682C44.8861 9.69459 45.1698 8.98445 45.1088 8.36921Z" fill="#B3C1C4"/>
<path d="M41.2012 3.75818C41.167 3.50083 40.7422 3.55757 40.6716 3.80678C40.6011 4.05577 40.7583 4.30927 40.9229 4.50268C41.2721 4.91322 41.6953 5.25327 42.1633 5.49954C42.5033 5.67872 42.9664 5.78581 43.2226 5.48937C43.5055 5.16265 43.2775 4.60661 42.9238 4.36891C42.5699 4.13099 42.1323 4.07971 41.7534 3.88969L41.2012 3.75818Z" fill="#B59686"/>
<path d="M46.3189 8.35173C46.3178 8.86824 46.4077 9.38634 46.3465 9.89878C46.2919 10.355 46.1196 10.8224 46.2547 11.2594C46.3788 11.6614 46.7314 11.9278 47.0628 12.1655C47.6906 12.6155 48.3182 13.0656 48.946 13.5159C49.4767 13.8964 50.0232 14.2841 50.6484 14.4366C51.2735 14.5887 52.004 14.4545 52.4112 13.9314C52.7998 13.4321 52.8051 12.6939 52.5831 12.092C52.3609 11.4899 51.9475 10.9924 51.5418 10.5084C51.1052 9.98758 50.6685 9.46677 50.2318 8.94575C49.3574 7.90211 46.3253 5.09113 46.3189 8.35173Z" fill="#B59686"/>
<path d="M53.3177 15.8303C53.0888 16.3857 53.3115 17.0387 53.644 17.5324C54.1261 18.2484 54.8208 18.7723 55.5341 19.2251C56.0047 19.5236 56.5373 19.8067 57.0783 19.7089C57.7583 19.586 58.2387 18.8455 58.2434 18.1176C58.2479 17.3893 57.8578 16.7072 57.3382 16.228C56.3843 15.3484 54.1261 13.8693 53.3177 15.8303Z" fill="#DDCD97"/>
<path d="M55.5617 11.8858C55.3846 11.6182 55.1988 11.3421 54.9301 11.1808C54.6615 11.0195 54.2842 11.0095 54.0727 11.2472C53.9599 11.374 53.9107 11.5477 53.8651 11.7147C53.6882 12.3613 53.5114 13.0082 53.3346 13.6549C53.3035 13.7681 53.2746 13.8982 53.3356 13.9972C53.3849 14.0772 53.4784 14.1106 53.5647 14.1386C54.6728 14.4992 55.7809 14.8596 56.889 15.2202C57.2387 15.3341 57.6876 15.4179 57.9115 15.1125C58.1853 14.7392 57.8357 14.2231 57.5078 13.9021C56.9676 13.3725 56.4273 12.8431 55.8869 12.3137L55.5617 11.8858Z" fill="#B3C1C4"/>
<path d="M59.3372 16.6526C59.2647 16.9541 59.2636 17.2693 59.2114 17.5752C59.0431 18.5626 58.3691 19.3604 57.9947 20.2824C57.9056 20.502 57.8322 20.7445 57.8849 20.9768C57.926 21.158 58.0394 21.3114 58.164 21.4431C58.5781 21.8806 59.1302 22.1347 59.6684 22.3788C60.4882 22.7509 61.4479 23.1196 62.2354 22.677C62.5419 22.5044 62.783 22.2238 62.9742 21.9178C63.5573 20.9847 63.7051 19.763 63.3623 18.7051C63.0294 17.6773 59.8722 14.4341 59.3372 16.6526Z" fill="#B59686"/>
<path d="M64.9075 23.3389C64.2631 23.3502 63.4731 23.5405 63.307 24.1977C63.1372 24.8688 63.7542 25.4479 64.2984 25.8385C65.6861 26.834 67.0824 27.8347 68.6119 28.5632C69.2357 28.8601 70.0092 29.0966 70.5658 28.6764C71.0762 28.2909 71.1548 27.4793 70.8947 26.8765C70.6346 26.2739 70.118 25.8421 69.595 25.4761C68.3267 24.5879 66.49 23.3116 64.9075 23.3389Z" fill="#B3C1C4"/>
<path d="M65.1873 19.7078C64.9903 19.8269 64.8507 20.0282 64.7345 20.2338C64.5518 20.5569 64.4114 20.9064 64.3181 21.2693C64.2875 21.3879 64.2628 21.5176 64.308 21.631C64.3577 21.7555 64.4782 21.8283 64.5908 21.8922C65.4806 22.3974 66.3705 22.9029 67.2601 23.4083C68.1078 23.8898 68.9674 24.376 69.903 24.616C70.1631 24.6828 70.4679 24.7195 70.6713 24.5358C70.8535 24.371 70.8854 24.0852 70.8578 23.8335C70.7899 23.2147 70.4446 22.6593 70.0107 22.2368C69.5765 21.8145 69.0552 21.5072 68.5394 21.2042C67.8773 20.8149 65.9809 19.1924 65.1873 19.7078Z" fill="#DDCD97"/>
<path d="M73.1369 25.4898C72.7868 25.5368 72.4139 25.6803 72.2414 26.0052C71.9795 26.4977 72.2983 27.0935 72.3634 27.6541C72.434 28.2621 72.194 28.8661 72.2056 29.4784C72.2242 30.4766 72.9044 31.3307 73.6665 31.922C74.68 32.708 76.0904 33.1775 77.1866 32.5268C78.233 31.9055 78.6128 30.4018 78.2347 29.1989C77.8684 28.0335 76.987 27.2763 76.0151 26.6862C75.0684 26.1111 74.3467 25.3271 73.1369 25.4898Z" fill="#B59686"/>
<path d="M78.0116 34.0509C77.8827 34.4775 77.999 34.9529 78.2242 35.3323C78.4494 35.7116 78.7736 36.0122 79.0955 36.3034C79.8913 37.0235 80.7106 37.7289 81.6389 38.2424C82.5672 38.7562 83.6201 39.0716 84.6631 38.9614C85.2626 38.8981 85.8759 38.6754 86.2713 38.1959C86.8502 37.4941 86.8072 36.3759 86.327 35.5955C85.8468 34.8153 85.0164 34.3386 84.1634 34.1027C82.9967 33.7793 81.7567 33.9567 80.6252 33.5141C79.7676 33.1781 78.3961 32.7775 78.0116 34.0509Z" fill="#DDCD97"/>
<path d="M83.8532 40.8421C83.7995 41.0333 83.7635 41.2326 83.7774 41.4309C83.8237 42.0973 84.4135 42.5869 85.0157 42.7931C85.172 42.8467 85.3383 42.8878 85.5002 42.8566C85.6847 42.8214 85.8427 42.696 85.9744 42.5552C86.5533 41.9371 86.905 40.3934 86.0748 39.7965C85.3251 39.2576 84.0752 40.0529 83.8532 40.8421Z" fill="#B59686"/>
<path d="M87.1397 36.3128C87.1288 36.6594 87.1189 37.0128 87.2099 37.3458C87.3009 37.6791 87.5107 37.9949 87.819 38.1149C88.172 38.2525 88.5619 38.1115 88.938 38.1075C89.2097 38.1045 89.4775 38.1739 89.7488 38.1874C91.6193 38.2812 90.1461 35.3661 89.5101 34.6593C89.0999 34.2036 88.4829 34.0529 87.9196 34.3159C87.1962 34.6541 87.1632 35.5749 87.1397 36.3128Z" fill="#B59686"/>
<path d="M79.3 30.7618C79.2371 31.3879 79.5514 32.0088 80.0039 32.4191C80.4565 32.8294 81.0316 33.0578 81.6081 33.2203C82.333 33.4245 83.08 33.5371 83.829 33.5786C84.2654 33.6028 84.7882 33.5547 85.0029 33.153C85.1483 32.8809 85.0885 32.5278 84.9299 32.2643C84.771 32.0007 84.5283 31.8079 84.2891 31.6238C83.3461 30.898 79.6199 27.5877 79.3 30.7618Z" fill="#B3C1C4"/>
</svg>
