<svg width="97" height="95" viewBox="0 0 97 95" fill="none" xmlns="http://www.w3.org/2000/svg">
<path d="M1.48818 15.9315C-0.901038 22.6186 -0.347835 30.3382 2.6768 36.7324C4.3484 40.2662 6.71364 43.3878 8.47002 46.8755C13.78 57.4192 13.3604 70.8902 20.579 80.0843C25.2125 85.9858 32.2582 89.0925 39.1574 91.4844C46.6278 94.0741 54.6192 96.0981 62.3031 94.3378C67.9278 93.049 72.9805 89.8122 77.5939 86.1796C85.0146 80.3367 91.7849 73.048 95.0848 63.9185C98.3846 54.789 97.5948 43.5722 91.3492 36.3587C87.5196 31.9361 82.1576 29.4385 77.2124 26.496C67.4056 20.6612 58.8254 12.7373 49.0163 6.90685C33.9707 -2.0367 9.07246 -5.29481 1.48818 15.9315Z" fill="#CADBE0"/>
<path d="M17.0975 10.5979C10.7411 14.9355 7.04889 23.9046 9.79285 31.35C11.2242 35.2335 14.1268 38.3036 15.9509 41.9994C18.7383 47.6464 18.8346 54.352 21.0123 60.2898C23.7285 67.6949 29.5204 73.4239 35.8705 77.683C39.875 80.3688 44.2019 82.5901 48.8121 83.774C52.5798 84.7415 56.4961 85.0038 60.3643 84.7198C63.4032 84.4966 66.4459 83.9297 69.2568 82.691C71.6976 81.6153 73.9237 80.0504 75.9679 78.279C80.3442 74.4856 83.9799 69.624 85.915 64.007C87.8502 58.3898 87.9882 51.9942 85.7647 46.4975C83.6144 41.1817 79.4622 37.0376 74.9794 33.7174C70.4966 30.3969 65.594 27.7468 61.1086 24.4302C55.3587 20.1781 50.345 14.8662 44.3184 11.022C39.1008 7.69379 33.0023 6.3562 26.9229 7.05256C23.4499 7.45022 20.0419 8.58877 17.0975 10.5979Z" fill="#66D8DD"/>
<path d="M14.4493 17.8906C17.3935 15.8812 20.8017 14.7427 24.2749 14.3451C30.3544 13.6487 36.4526 14.9863 41.6704 18.3145C47.6967 22.1587 52.7105 27.4704 58.4607 31.7227C62.9458 35.0395 67.8484 37.6894 72.3314 41.0099C76.8142 44.3301 80.9664 48.4742 83.1167 53.79C84.6714 57.6335 85.0703 61.9163 84.5087 66.0653C84.847 65.3032 85.1553 64.5259 85.4285 63.7331C87.3636 58.1159 87.5017 51.7203 85.2782 46.2235C83.1281 40.9078 78.9756 36.7637 74.4929 33.4432C70.0101 30.1228 65.1075 27.4727 60.6223 24.1562C54.8721 19.9042 49.8586 14.5922 43.832 10.748C38.6145 7.41986 32.516 6.08228 26.4368 6.77864C22.9634 7.17652 19.5551 8.31506 16.611 10.3242C11.9867 13.4799 8.77557 19.0867 8.42383 24.7749C9.86956 22.0147 11.9524 19.5946 14.4493 17.8906Z" fill="#5CC4C4"/>
<path d="M89.2689 39.196C88.5988 39.4721 88.0717 40.0442 87.6756 40.6778C86.4294 42.6706 86.3555 45.2439 86.7218 47.6002C87.0974 50.0163 88.0944 52.6024 90.2108 53.6052C90.7392 53.8553 91.3277 53.9927 91.9011 53.9075C93.2252 53.7107 94.1492 52.4099 94.6645 51.1076C95.8934 48.0024 95.5947 44.273 93.8893 41.4295C92.958 39.8759 91.1136 38.4362 89.2689 39.196Z" fill="#B3C1C4"/>
<path d="M90.9462 60.2126C90.6926 61.2463 90.5587 62.5261 91.3322 63.2141C92.0075 63.8144 93.0916 63.6027 93.7506 62.9822C94.4093 62.3618 94.7358 61.4458 94.9951 60.5551C95.2528 59.6699 95.4695 58.7566 95.4464 57.8309C95.4108 56.4095 94.6988 54.3365 93.2068 55.4325C91.9083 56.3865 91.3175 58.7008 90.9462 60.2126Z" fill="#B59686"/>
<path d="M89.9595 54.9718C89.3088 54.8281 88.5878 55.2337 88.3377 55.8839C88.0843 56.5435 88.2998 57.3022 88.627 57.9246C88.7214 58.104 88.8451 58.2941 89.0352 58.3375C89.2812 58.3935 89.5026 58.1818 89.6745 57.9879C90.0385 57.5772 90.4165 57.1391 90.5345 56.5909C90.6522 56.0423 90.3953 55.362 89.874 55.2466L89.9595 54.9718Z" fill="#DDCD97"/>
<path d="M88.9196 63.3929C88.7324 63.2838 88.5295 63.1896 88.3156 63.1875C87.7887 63.183 87.4162 63.7104 87.1398 64.184C85.9071 66.2956 84.7114 68.6857 85.1 71.1315C85.2041 71.7863 85.4509 72.4619 85.9688 72.839C86.8346 73.4696 88.0354 73.0091 88.8909 72.3631C89.8746 71.6204 90.717 70.6206 91.1212 69.4175C91.8187 67.342 90.7549 64.4639 88.9196 63.3929Z" fill="#B3C1C4"/>
<path d="M79.6978 75.4226C79.1735 76.1242 78.8671 76.9808 78.6579 77.8468C78.5211 78.4132 78.4239 79.0192 78.5961 79.5748C78.884 80.5039 79.8763 81.0299 80.8024 81.0182C81.7288 81.0062 82.5991 80.5696 83.4107 80.0983C84.3152 79.5732 85.2315 78.9492 85.7143 77.986C87.6828 74.0586 81.7464 72.6817 79.6978 75.4226Z" fill="#B59686"/>
<path d="M76.1683 80.0591C74.9531 80.2767 73.7994 80.8634 72.8814 81.7311C72.6054 81.9916 72.3338 82.3181 72.3301 82.7087C72.3248 83.305 72.9173 83.6866 73.441 83.9099C74.019 84.1564 74.6119 84.3638 75.2147 84.5305C75.967 84.7386 76.7575 84.8837 77.52 84.7235C78.2828 84.5635 79.0167 84.0452 79.2728 83.2702C79.3492 83.0391 79.3807 82.7837 79.3134 82.5494C79.2492 82.3257 79.1013 82.14 78.9471 81.9719C78.2404 81.2008 77.3201 80.6502 76.3303 80.4061L76.1683 80.0591Z" fill="#DDCD97"/>
<path d="M67.0149 84.6361C65.0083 85.4447 63.0074 86.2694 61.0127 87.1102C60.5623 87.3002 60.0768 87.5232 59.8483 87.9748C59.5912 88.4832 59.762 89.1461 60.1382 89.5635C60.5146 89.9812 61.0532 90.192 61.588 90.3093C63.2643 90.6771 65.0001 90.2474 66.639 89.7246C68.0168 89.2851 69.4202 88.7498 70.4637 87.7037C71.0053 87.1606 71.4461 86.4504 71.4887 85.6632C71.6459 82.7553 68.3861 84.0836 67.0149 84.6361Z" fill="#B59686"/>
<path d="M73.2366 85.0449C72.444 85.2627 72.0636 86.2347 72.0246 87.0981C71.9972 87.7077 72.2289 88.482 72.8056 88.5254C73.0081 88.5405 73.2045 88.4544 73.3864 88.3591C74.1486 87.9603 74.8206 87.3715 75.3319 86.6541C74.9681 85.8488 74.1704 85.2821 73.3265 85.2293L73.2366 85.0449Z" fill="#B3C1C4"/>
<path d="M59.9417 91.2968C58.8032 91.4026 57.5497 91.5664 56.7861 92.4638C56.6617 92.6098 56.5487 92.7985 56.588 92.9903C56.6354 93.221 56.8736 93.3403 57.0858 93.4158C59.0147 94.1038 61.1937 93.9734 63.0366 93.0601C63.2216 92.9684 63.4087 92.8649 63.5391 92.6984C64.9165 90.9432 60.4239 91.2521 59.9417 91.2968Z" fill="#DDCD97"/>
<path d="M53.9518 86.3622C52.6961 86.9953 51.5262 87.9878 51.0361 89.3623C50.5461 90.7369 50.9348 92.5169 52.1526 93.2275C52.5247 93.4448 52.964 93.5542 53.3814 93.4692C53.703 93.4037 53.9939 93.2293 54.2768 93.0551C55.3859 92.3707 56.4934 91.6215 57.2885 90.5564C59.7317 87.2843 57.3063 84.671 53.9518 86.3622Z" fill="#B3C1C4"/>
<path d="M44.1104 86.9817C43.4835 86.9648 42.8351 87.0409 42.2877 87.3631C41.74 87.6853 41.3125 88.2942 41.3245 88.9558C41.3386 89.748 41.9395 90.3813 42.5428 90.8528C43.7098 91.765 45.0517 92.4272 46.4632 92.7871C46.9209 92.9039 47.396 92.9896 47.8616 92.9159C49.6989 92.6263 50.311 90.1289 49.0565 88.7784C48.0034 87.6449 45.5184 87.0201 44.1104 86.9817Z" fill="#B59686"/>
<path d="M50.7403 84.799C49.9195 84.4527 48.9871 84.4088 48.1402 84.6773C47.858 84.7667 47.5536 84.9247 47.4688 85.2225C47.3979 85.4712 47.5058 85.7356 47.6324 85.9586C47.9075 86.4428 48.2841 86.8612 48.7234 87.1839C49.5118 87.7628 50.6587 87.9894 51.401 87.3459C51.7867 87.0113 52.0038 86.4383 51.8559 85.9351C51.708 85.4317 51.1492 85.079 50.6795 85.2579L50.7403 84.799Z" fill="#DDCD97"/>
<path d="M36.9207 82.3902C35.8535 83.0631 35.2061 84.3033 34.8852 85.5706C34.7618 86.0575 34.6794 86.5727 34.7873 87.0636C34.8713 87.4457 35.0676 87.7932 35.3121 88.0883C36.1038 89.0438 37.4478 89.4422 38.5951 89.0617C39.6906 88.6983 40.5022 87.7401 41.4799 87.1045C41.9869 86.7749 42.542 86.5306 43.034 86.1768C47.0612 83.2795 39.2091 80.948 36.9207 82.3902Z" fill="#DDCD97"/>
<path d="M29.1653 76.1912C28.7371 76.2861 28.2995 76.461 28.0274 76.8227C27.5588 77.4463 27.7529 78.3788 28.1417 79.0605C29.231 80.9711 31.4611 81.7867 33.5562 82.0737C34.3961 82.1889 35.3274 82.2178 36.0015 81.6771C36.5841 81.2103 36.8459 80.3425 36.6267 79.6059C36.3122 78.5496 34.6352 77.8033 33.769 77.2676C32.3914 76.4158 30.772 75.8361 29.1653 76.1912Z" fill="#B3C1C4"/>
<path d="M28.313 82.8887C27.7219 83.5385 27.7389 84.6271 28.1814 85.3976C28.6239 86.1679 29.4019 86.6602 30.203 86.9706C31.1268 87.3288 32.2317 87.4591 33.0388 86.8649C36.2747 84.4825 30.6504 80.3188 28.313 82.8887Z" fill="#B59686"/>
<path d="M21.1463 75.0234C20.9367 75.9656 21.062 76.9534 21.2444 77.9017C21.3754 78.5825 21.5381 79.2644 21.843 79.8801C22.376 80.956 23.299 81.7468 24.1966 82.506C24.6619 82.8994 25.311 83.3068 25.8049 82.9545C25.983 82.8275 26.0958 82.623 26.193 82.4206C27.0958 80.5365 27.9577 75.6195 26.5084 73.8142C25.0219 71.9632 21.6734 72.6546 21.1463 75.0234Z" fill="#DDCD97"/>
<path d="M16.7625 71.4892C16.891 72.0828 17.2042 72.6386 17.6681 73.0003C19.7976 74.6608 21.9216 71.6415 20.7531 69.5454C19.4022 67.1215 16.2018 68.8947 16.7625 71.4892Z" fill="#B3C1C4"/>
<path d="M22.9136 68.291C22.5815 68.7261 22.6355 69.3588 22.7813 69.8958C22.9125 70.38 23.1084 70.8527 23.418 71.2364C24.0328 71.9982 24.9996 72.3094 25.9114 72.5844C26.3835 72.7269 27.0566 72.7628 27.196 72.266C27.2859 71.9452 27.0617 71.6293 26.8524 71.3778C26.3413 70.7637 23.9699 66.8544 22.9136 68.291Z" fill="#B59686"/>
<path d="M17.4395 62.2145C16.9553 62.2066 16.4485 62.2732 16.0478 62.5599C15.195 63.17 15.1569 64.4633 15.2584 65.5451C15.3081 66.0765 15.3933 66.6559 15.7707 67.0113C16.3796 67.5845 17.3207 67.2515 18.1364 67.2415C19.2723 67.2275 20.4704 67.8997 21.4894 67.3699C21.9752 67.1175 22.3272 66.598 22.3967 66.0313C22.6746 63.7656 19.0887 62.2407 17.4395 62.2145Z" fill="#DDCD97"/>
<path d="M14.2896 56.7995C13.989 56.7708 13.7015 56.9472 13.4867 57.1714C12.7351 57.9556 12.7361 59.358 13.4075 60.2191C14.0791 61.0804 15.2891 61.371 16.2921 61.0192C16.6248 60.9024 16.9479 60.7137 17.1526 60.4134C17.5276 59.8628 17.4048 59.0659 17.0352 58.5112C16.6657 57.9565 16.101 57.5887 15.5518 57.2364C15.2577 57.0478 14.901 56.8535 14.5867 57.0015L14.2896 56.7995Z" fill="#B3C1C4"/>
<path d="M19.0009 58.2012C18.6455 58.28 18.4427 58.6689 18.3042 59.0234C18.1244 59.4832 17.9705 59.9721 18.0075 60.4681C18.0445 60.9638 18.3139 61.4692 18.7579 61.6355C19.3644 61.8626 20.052 61.345 20.231 60.6924C20.41 60.0401 20.1957 59.3341 19.8686 58.7493C19.7819 58.5941 19.6789 58.4364 19.5235 58.3618C19.368 58.2873 19.1486 58.3345 19.085 58.5017L19.0009 58.2012Z" fill="#B59686"/>
<path d="M13.8772 51.3013C12.8172 52.0083 12.3437 53.627 12.9883 54.7619C13.571 55.7881 14.7834 56.17 15.8928 56.4144C16.6156 56.5737 17.4214 56.6969 18.0485 56.2852C21.1018 54.2808 16.8526 49.3168 13.8772 51.3013Z" fill="#DDCD97"/>
<path d="M9.99735 43.0931C9.83871 43.0475 9.67129 43.0122 9.51072 43.049C9.18874 43.1229 8.98642 43.4596 8.86996 43.7852C8.55161 44.6747 8.61627 45.7082 9.0423 46.5458C9.41374 47.276 10.0314 47.8404 10.4067 48.5689C10.755 49.244 10.9402 50.1076 11.5912 50.4521C12.0143 50.6763 12.5435 50.5997 12.946 50.3367C13.3482 50.0739 13.6356 49.6475 13.8284 49.1916C14.2395 48.2205 14.2515 47.0695 13.8606 46.0896C13.2603 44.5841 11.4399 43.5082 9.99735 43.0931Z" fill="#B59686"/>
<path d="M16.3592 45.6277C15.8075 45.4284 15.329 46.0981 15.1751 46.6918C15.0438 47.1975 14.9914 47.7262 15.0205 48.25C15.0584 48.9273 15.3586 49.722 15.9948 49.8189C16.392 49.8795 16.7869 49.6219 17.0117 49.271C17.2363 48.9201 17.32 48.4908 17.3699 48.0706C17.4746 47.1901 17.3511 46.1107 16.5968 45.7187L16.3592 45.6277Z" fill="#B3C1C4"/>
<path d="M9.38598 39.0456C8.91349 39.192 8.4273 39.4722 8.25667 39.9595C8.03381 40.596 8.45984 41.3085 9.0109 41.6578C9.56218 42.0068 10.2181 42.1081 10.8283 42.3218C11.6243 42.6004 12.356 43.0807 12.9448 43.7109C13.3425 44.1368 13.7495 44.6689 14.3158 44.6865C14.9332 44.7057 15.4091 44.0656 15.5307 43.4267C16.1068 40.3954 11.5714 38.3673 9.38598 39.0456Z" fill="#DDCD97"/>
<path d="M5.58544 36.9693C5.41995 36.6024 4.84897 36.6727 4.6336 37.0098C4.41801 37.3464 4.4634 37.7947 4.55332 38.1899C4.71324 38.893 4.98878 39.567 5.36343 40.1723C5.55868 40.4877 5.83785 40.8151 6.19452 40.8009C6.43537 40.7911 6.64389 40.6237 6.81344 40.4428C7.42702 39.7877 7.75436 38.787 7.47905 37.9131C7.20351 37.0391 6.23648 36.4216 5.41331 36.728L5.58544 36.9693Z" fill="#B59686"/>
<path d="M5.38789 34.5449C4.98198 34.4643 4.56772 34.4084 4.18364 34.2485C3.40286 33.9231 2.78864 33.0928 2.83552 32.2084C2.88605 31.2527 3.69787 30.4662 4.59019 30.2942C5.48251 30.1223 6.40844 30.4695 7.14683 31.0258C7.885 31.5823 8.46753 32.3341 9.04043 33.0761C9.61141 33.8156 10.1822 34.5551 10.7531 35.2946C11.1092 35.7555 11.4543 36.4785 11.0325 36.8728C10.3222 37.5369 9.49538 36.4128 8.99034 36.0585C7.91369 35.3027 6.65636 34.7968 5.38789 34.5449Z" fill="#B3C1C4"/>
<path d="M0.855357 27.5997C1.03219 27.9578 1.26319 28.2926 1.56955 28.5348C2.34305 29.1458 3.51518 29.0209 4.24437 28.3518C5.78751 26.9361 5.16045 23.3664 3.16537 22.6608C0.582183 21.7468 0.0313328 25.9302 0.855357 27.5997Z" fill="#DDCD97"/>
<path d="M7.25244 23.3342C6.62237 23.3199 6.2413 24.0703 6.12355 24.7237C5.97133 25.5674 6.00387 26.4477 6.21839 27.2762C6.28154 27.52 6.36654 27.7701 6.54273 27.9416C6.71893 28.1131 7.0103 28.1764 7.19891 28.0205C7.32137 27.9195 7.37511 27.7534 7.4205 27.5964C7.71786 26.5661 7.91504 25.5037 8.00795 24.4309C8.0467 23.984 7.93473 23.3705 7.50955 23.3595L7.25244 23.3342Z" fill="#B59686"/>
<path d="M2.03005 19.3864C2.11504 19.7613 2.35418 20.0776 2.62264 20.339C3.53316 21.2268 4.78237 21.5915 5.98019 21.9272C6.67469 22.1217 7.50107 22.2873 8.04078 21.7867C8.37669 21.4751 8.50279 20.9667 8.45975 20.497C8.30518 18.8157 6.45203 16.4937 4.91938 15.9672C3.14331 15.3572 1.62457 17.5949 2.03005 19.3864Z" fill="#B59686"/>
<path d="M7.54533 10.9129C6.86539 12.1276 6.95253 13.6758 7.38713 15.0102C7.54619 15.4987 7.7545 15.9818 8.09233 16.3557C8.43017 16.7294 8.91636 16.9818 9.40277 16.9242C9.98273 16.8553 10.4372 16.3822 10.8226 15.9196C11.5239 15.0782 12.1649 14.1805 12.7376 13.237C14.7473 9.92669 9.22785 7.90697 7.54533 10.9129Z" fill="#B3C1C4"/>
<path d="M4.31549 11.1284C3.77855 11.6677 3.21336 12.2595 3.07677 13.0284C2.94018 13.7973 3.48333 14.7368 4.21936 14.6439C4.74709 14.5775 5.09862 14.0499 5.35788 13.5603C5.62249 13.0603 5.87233 12.4949 5.75929 11.9346C5.64625 11.3745 4.98964 10.9258 4.5437 11.2525L4.31549 11.1284Z" fill="#DDCD97"/>
<path d="M8.18838 6.75883C7.87774 7.15378 7.58444 7.6818 7.77776 8.15289C7.90172 8.45475 8.20101 8.64025 8.50416 8.71775C9.40504 8.94754 10.307 8.39556 11.2282 8.28823C12.7767 8.10793 14.3023 9.19292 15.8322 8.88225C16.927 8.66014 17.8414 7.6635 18.0167 6.5017C18.1921 5.33966 17.6166 4.09289 16.6414 3.52239C13.9634 1.95569 9.85463 4.64061 8.18838 6.75883Z" fill="#B59686"/>
<path d="M21.8854 2.93756C21.1492 3.21953 20.3943 3.57427 19.9209 4.2329C19.4474 4.8913 19.3712 5.93561 19.9529 6.48917C20.3553 6.87215 20.9492 6.92705 21.4889 6.87531C22.5896 6.76934 23.6553 6.29169 24.4915 5.52913C24.9469 5.11384 25.3562 4.42336 25.0422 3.88155C24.9396 3.70463 24.7745 3.57923 24.6073 3.471C23.8809 3.00126 23.0209 2.76538 22.1697 2.80266L21.8854 2.93756Z" fill="#B3C1C4"/>
<path d="M19.8296 1.10445C18.9961 1.03712 18.143 1.28274 17.4573 1.7875C17.3547 1.86296 17.2498 1.95311 17.2173 2.08054C17.1674 2.27553 17.308 2.4694 17.4652 2.58417C18.0105 2.98297 18.7593 2.84241 19.3695 2.56834C19.9796 2.29405 20.5583 1.89818 21.2168 1.81436C21.9231 1.72466 22.7065 1.99263 23.3128 1.60016C23.3958 1.54639 23.4763 1.47589 23.5087 1.37896C23.6104 1.07349 23.2098 0.867445 22.9047 0.833328C21.9773 0.729619 21.0336 0.790396 20.125 1.01227L19.8296 1.10445Z" fill="#DDCD97"/>
<path d="M26.6202 5.56184C26.9623 5.65063 27.3044 5.73944 27.6465 5.82846C28.4926 6.04831 29.371 6.26904 30.2265 6.09484C34.0053 5.32505 30.6474 1.38774 28.5983 0.824233C25.7651 0.0449508 24.1802 4.92806 26.6202 5.56184Z" fill="#B59686"/>
<path d="M32.7722 3.18938C32.9084 3.37691 33.112 3.49732 33.2612 3.67378C33.6506 4.13403 33.5945 4.86633 33.9396 5.36431C34.2479 5.80897 34.7996 5.96621 35.3107 6.07805C36.322 6.29948 37.3458 6.45743 38.3749 6.55052C38.929 6.60068 39.5971 6.57446 39.8896 6.07535C40.0788 5.75293 40.0343 5.33086 39.8975 4.97997C39.5599 4.11483 38.7551 3.56261 37.9581 3.15275C36.9531 2.63624 35.6489 1.8904 34.5596 1.62175C33.7759 1.42857 31.8786 1.95888 32.7722 3.18938Z" fill="#DDCD97"/>
<path d="M45.1088 8.36909C45.0026 7.30127 44.0097 6.42099 42.9947 6.49465L42.7097 6.05225C42.1086 6.09088 41.5187 6.30645 41.0236 6.66819C40.7035 6.90204 40.3967 7.29789 40.5267 7.68516C40.5847 7.85846 40.7202 7.98793 40.8534 8.1061C41.571 8.74213 42.3755 9.26834 43.2349 9.66352C43.5783 9.82146 43.9593 9.96041 44.3207 9.8567C44.8861 9.69447 45.1698 8.98433 45.1088 8.36909Z" fill="#B3C1C4"/>
<path d="M41.2012 3.75803C41.167 3.50068 40.7422 3.55741 40.6716 3.80663C40.6011 4.05562 40.7583 4.30912 40.9229 4.50253C41.2721 4.91307 41.6953 5.25311 42.1633 5.49939C42.5033 5.67857 42.9664 5.78565 43.2226 5.48921C43.5055 5.1625 43.2775 4.60645 42.9238 4.36876C42.5699 4.13084 42.1323 4.07956 41.7534 3.88954L41.2012 3.75803Z" fill="#B59686"/>
<path d="M46.3189 8.35185C46.3178 8.86836 46.4077 9.38646 46.3465 9.8989C46.2919 10.3551 46.1196 10.8226 46.2547 11.2595C46.3788 11.6615 46.7314 11.9279 47.0628 12.1656C47.6906 12.6157 48.3182 13.0657 48.946 13.516C49.4767 13.8965 50.0232 14.2843 50.6484 14.4368C51.2735 14.5888 52.004 14.4546 52.4112 13.9315C52.7998 13.4322 52.8051 12.694 52.5831 12.0921C52.3609 11.49 51.9475 10.9925 51.5418 10.5085C51.1052 9.9877 50.6685 9.4669 50.2318 8.94587C49.3574 7.90223 46.3253 5.09125 46.3189 8.35185Z" fill="#B59686"/>
<path d="M53.3172 15.8302C53.0883 16.3856 53.311 17.0386 53.6435 17.5322C54.1256 18.2483 54.8203 18.7722 55.5336 19.225C56.0042 19.5235 56.5369 19.8066 57.0779 19.7088C57.7578 19.5858 58.2382 18.8454 58.2429 18.1174C58.2474 17.3892 57.8574 16.7071 57.3378 16.2279C56.3838 15.3483 54.1256 13.8692 53.3172 15.8302Z" fill="#DDCD97"/>
<path d="M55.5617 11.8856C55.3846 11.6181 55.1988 11.342 54.9301 11.1807C54.6615 11.0193 54.2842 11.0094 54.0727 11.2471C53.9599 11.3738 53.9107 11.5476 53.8651 11.7145C53.6882 12.3612 53.5114 13.0081 53.3346 13.6547C53.3035 13.7679 53.2746 13.8981 53.3356 13.997C53.3849 14.077 53.4784 14.1105 53.5647 14.1385C54.6728 14.4991 55.7809 14.8595 56.889 15.2201C57.2387 15.3339 57.6876 15.4178 57.9115 15.1123C58.1853 14.7391 57.8357 14.223 57.5078 13.9019C56.9676 13.3723 56.4273 12.8429 55.8869 12.3135L55.5617 11.8856Z" fill="#B3C1C4"/>
<path d="M59.3372 16.6526C59.2647 16.954 59.2636 17.2692 59.2114 17.5751C59.0431 18.5625 58.3691 19.3603 57.9947 20.2824C57.9056 20.502 57.8322 20.7444 57.8849 20.9767C57.926 21.1579 58.0394 21.3113 58.164 21.4431C58.5781 21.8805 59.1302 22.1347 59.6684 22.3787C60.4882 22.7508 61.4479 23.1196 62.2354 22.6769C62.5419 22.5043 62.783 22.2237 62.9742 21.9178C63.5573 20.9846 63.7051 19.7629 63.3623 18.7051C63.0294 17.6772 59.8722 14.434 59.3372 16.6526Z" fill="#B59686"/>
<path d="M64.9075 23.3388C64.2631 23.3501 63.4731 23.5404 63.307 24.1976C63.1372 24.8687 63.7542 25.4478 64.2984 25.8384C65.6861 26.8339 67.0824 27.8346 68.6119 28.5631C69.2357 28.86 70.0092 29.0965 70.5658 28.6763C71.0762 28.2908 71.1548 27.4792 70.8947 26.8764C70.6346 26.2738 70.118 25.842 69.595 25.476C68.3267 24.5878 66.49 23.3115 64.9075 23.3388Z" fill="#B3C1C4"/>
<path d="M65.1873 19.708C64.9903 19.8271 64.8507 20.0284 64.7345 20.234C64.5518 20.5571 64.4114 20.9067 64.3181 21.2695C64.2875 21.3881 64.2628 21.5179 64.308 21.6313C64.3577 21.7558 64.4782 21.8285 64.5908 21.8925C65.4806 22.3977 66.3705 22.9031 67.2601 23.4085C68.1078 23.89 68.9674 24.3763 69.903 24.6162C70.1631 24.6831 70.4679 24.7197 70.6713 24.536C70.8535 24.3713 70.8854 24.0855 70.8578 23.8338C70.7899 23.2149 70.4446 22.6596 70.0107 22.237C69.5765 21.8147 69.0552 21.5074 68.5394 21.2045C67.8773 20.8152 65.9809 19.1927 65.1873 19.708Z" fill="#DDCD97"/>
<path d="M73.1369 25.49C72.7868 25.537 72.4139 25.6805 72.2414 26.0054C71.9795 26.498 72.2983 27.0938 72.3634 27.6543C72.434 28.2624 72.194 28.8663 72.2056 29.4786C72.2242 30.4768 72.9044 31.3309 73.6665 31.9222C74.68 32.7083 76.0904 33.1778 77.1866 32.5271C78.233 31.9057 78.6128 30.4021 78.2347 29.1991C77.8684 28.0337 76.987 27.2766 76.0151 26.6864C75.0684 26.1114 74.3467 25.3273 73.1369 25.49Z" fill="#B59686"/>
<path d="M78.0116 34.0508C77.8827 34.4774 77.999 34.9528 78.2242 35.3321C78.4494 35.7115 78.7736 36.012 79.0955 36.3032C79.8913 37.0233 80.7106 37.7287 81.6389 38.2423C82.5672 38.7561 83.6201 39.0715 84.6631 38.9612C85.2626 38.898 85.8759 38.6752 86.2713 38.1957C86.8502 37.494 86.8072 36.3758 86.327 35.5953C85.8468 34.8152 85.0164 34.3384 84.1634 34.1025C82.9967 33.7792 81.7567 33.9566 80.6252 33.5139C79.7676 33.178 78.3961 32.7774 78.0116 34.0508Z" fill="#DDCD97"/>
<path d="M83.8532 40.8422C83.7995 41.0333 83.7635 41.2326 83.7774 41.431C83.8237 42.0973 84.4135 42.5869 85.0157 42.7932C85.172 42.8468 85.3383 42.8879 85.5002 42.8567C85.6847 42.8215 85.8427 42.6961 85.9744 42.5553C86.5533 41.9371 86.905 40.3935 86.0748 39.7965C85.3251 39.2576 84.0752 40.053 83.8532 40.8422Z" fill="#B59686"/>
<path d="M87.1397 36.313C87.1288 36.6596 87.1189 37.013 87.2099 37.3461C87.3009 37.6793 87.5107 37.9952 87.819 38.1152C88.172 38.2528 88.5619 38.1118 88.938 38.1077C89.2097 38.1048 89.4775 38.1741 89.7488 38.1877C91.6193 38.2815 90.1461 35.3663 89.5101 34.6596C89.0999 34.2038 88.4829 34.0531 87.9196 34.3161C87.1962 34.6544 87.1632 35.5751 87.1397 36.313Z" fill="#B59686"/>
<path d="M79.3 30.7619C79.2371 31.388 79.5514 32.0089 80.0039 32.4192C80.4565 32.8295 81.0316 33.058 81.6081 33.2204C82.333 33.4247 83.08 33.5372 83.829 33.5788C84.2654 33.6029 84.7882 33.5548 85.0029 33.1531C85.1483 32.8811 85.0885 32.5279 84.9299 32.2645C84.771 32.0008 84.5283 31.808 84.2891 31.6239C83.3461 30.8982 79.6199 27.5879 79.3 30.7619Z" fill="#B3C1C4"/>
</svg>
