<svg width="38" height="35" viewBox="0 0 38 35" fill="none" xmlns="http://www.w3.org/2000/svg">
<path d="M18.877 17.4991L19.029 0.173004C24.0499 0.209807 28.8547 2.06844 32.3792 5.33714C35.9036 8.60584 37.8667 13.0242 37.8337 17.6133L18.877 17.4991Z" fill="#CADBE0"/>
<path d="M37.8335 17.7638L18.877 17.6496C18.8333 17.6495 18.7914 17.6331 18.7607 17.6049C18.73 17.5763 18.713 17.5381 18.7134 17.498L18.8654 0.171971C18.8658 0.131867 18.8835 0.093743 18.9147 0.065852C18.9458 0.0379609 18.9878 0.0222886 19.0314 0.0226186H19.0315C24.0599 0.0594217 28.9682 1.95816 32.4978 5.23165C36.0273 8.50514 38.0326 13.0185 37.9996 17.6146C37.9987 17.6975 37.9245 17.7645 37.8335 17.7638ZM19.0442 17.3494L37.6701 17.4618C37.6583 12.9971 35.6931 8.6243 32.2629 5.4429C28.8327 2.2615 24.0776 0.401541 19.1937 0.325625L19.0442 17.3494Z" fill="#939598"/>
<path d="M19.401 17.654C19.3373 17.6535 19.2768 17.6191 19.2504 17.562C19.2149 17.4856 19.254 17.3972 19.3376 17.3647L36.3434 10.7692C36.4271 10.7365 36.5239 10.7726 36.5595 10.849C36.5951 10.9255 36.5561 11.0139 36.4723 11.0464L19.4666 17.6419C19.4451 17.6503 19.4229 17.6541 19.401 17.654Z" fill="#939598"/>
<path d="M18.8815 17.2736C18.86 17.2734 18.8383 17.2695 18.8174 17.2612C18.7338 17.2284 18.6953 17.1397 18.7312 17.0633L26.0797 1.4709C26.1156 1.39465 26.2125 1.35933 26.2961 1.392C26.3797 1.42501 26.4184 1.51364 26.3823 1.58989L19.0339 17.1823C19.007 17.2398 18.9457 17.2739 18.8815 17.2736Z" fill="#939598"/>
<path d="M18.8771 17.6503C18.8505 17.6501 18.8238 17.6442 18.7994 17.6322C18.7373 17.6011 18.7037 17.5376 18.7158 17.4741L21.9681 0.404874C21.9839 0.323016 22.0696 0.268719 22.1588 0.282417C22.2486 0.29661 22.3085 0.374667 22.293 0.45669L19.1243 17.087L32.6891 5.6309C32.7561 5.57429 32.8605 5.57826 32.9221 5.63932C32.9838 5.70038 32.9797 5.7956 32.9128 5.85221L18.9903 17.6105C18.9585 17.6369 18.9179 17.6506 18.8771 17.6503Z" fill="#939598"/>
<path d="M18.9073 17.4873C18.8644 17.4872 18.8216 17.4715 18.79 17.4416C18.7358 17.3903 18.7282 17.3114 18.7721 17.2522L29.3196 3.03629C29.3707 2.96747 29.473 2.94965 29.5485 2.99619C29.6238 3.04289 29.6435 3.13647 29.5924 3.20545L19.4877 16.8246L34.7482 8.02071C34.8253 7.97615 34.927 7.99727 34.9755 8.06774C35.0241 8.13805 35.0012 8.23113 34.9241 8.27536L18.9965 17.4641C18.9689 17.4799 18.938 17.4877 18.9073 17.4873Z" fill="#939598"/>
<path d="M18.8769 17.6499C18.7991 17.6494 18.7303 17.5984 18.716 17.526C18.6999 17.4441 18.7595 17.3657 18.8493 17.351L37.5084 14.2967C37.5974 14.282 37.6835 14.3365 37.6996 14.4184C37.7157 14.5002 37.6561 14.5784 37.5663 14.5931L18.9072 17.6476C18.8971 17.6493 18.887 17.6501 18.8769 17.6499Z" fill="#939598"/>
<path d="M18.8771 17.5231L18.8042 34.8496C23.8253 34.8671 28.6538 33.0608 32.2205 29.8305C35.7871 26.6004 37.8073 22.2036 37.8338 17.6144L18.8771 17.5231Z" fill="#CADBE0"/>
<path d="M37.9969 17.615C37.9703 22.2111 35.9065 26.7024 32.3348 29.9372C28.7628 33.1724 23.8304 35.0175 18.8018 34.9999H18.8017C18.7581 34.9997 18.7162 34.9837 18.6855 34.9553C18.6547 34.9269 18.6375 34.8886 18.6377 34.8487L18.7107 17.5222C18.7108 17.4823 18.7283 17.4438 18.7594 17.4158C18.7905 17.3876 18.8325 17.3719 18.8762 17.372L37.8327 17.4635C37.9239 17.464 37.9972 17.5318 37.9969 17.615ZM18.9678 34.6987C23.8524 34.6756 28.6312 32.8673 32.1025 29.7235C35.5739 26.5796 37.5958 22.2284 37.6655 17.764L19.0395 17.6742L18.9678 34.6987Z" fill="#939598"/>
<path d="M19.4001 17.3749C19.3362 17.3746 19.2755 17.4082 19.2482 17.465C19.2118 17.5411 19.2497 17.63 19.3329 17.6634L36.2518 24.4429C36.3352 24.4765 36.4323 24.4414 36.4688 24.3653C36.5053 24.2892 36.4674 24.2004 36.3841 24.1669L19.4653 17.3874C19.4442 17.3788 19.422 17.3749 19.4001 17.3749Z" fill="#939598"/>
<path d="M18.874 17.7492C18.8525 17.7491 18.8308 17.7529 18.8099 17.7608C18.7259 17.7926 18.6862 17.8809 18.7212 17.9577L25.8667 33.6289C25.9015 33.7056 25.9982 33.7419 26.0821 33.7099C26.1661 33.6779 26.2058 33.5896 26.1708 33.513L19.0253 17.8418C18.9989 17.7844 18.9381 17.7496 18.874 17.7492Z" fill="#939598"/>
<path d="M18.8789 17.372C18.8524 17.3719 18.8257 17.3777 18.8011 17.3897C18.7386 17.4199 18.7042 17.483 18.7155 17.5468L21.7459 34.65C21.7606 34.732 21.8456 34.7873 21.935 34.7746C22.0247 34.7612 22.0858 34.6838 22.0713 34.6018L19.1187 17.9381L32.5337 29.5406C32.6 29.5979 32.7044 29.5951 32.7667 29.5349C32.8293 29.4745 32.8264 29.3791 32.7602 29.3218L18.9914 17.4135C18.9602 17.3864 18.9198 17.3722 18.8789 17.372Z" fill="#939598"/>
<path d="M18.9044 17.5341C18.8614 17.5338 18.8186 17.5491 18.7865 17.5788C18.7316 17.6295 18.7231 17.7082 18.7661 17.7679L29.1283 32.097C29.1785 32.1667 29.2807 32.1855 29.3567 32.1398C29.4327 32.0939 29.4535 32.0005 29.4033 31.931L19.476 18.2031L34.621 27.172C34.6976 27.2173 34.7994 27.1973 34.8489 27.1275C34.8984 27.0577 34.8767 26.9644 34.8002 26.9192L18.9929 17.5582C18.9659 17.5422 18.9351 17.5343 18.9044 17.5341Z" fill="#939598"/>
<path d="M18.8789 17.372C18.801 17.3717 18.7315 17.4219 18.7164 17.4943C18.6992 17.576 18.7579 17.6549 18.8473 17.6704L37.4654 20.9269C37.5541 20.9426 37.6411 20.8891 37.6581 20.8073C37.675 20.7254 37.6167 20.6467 37.5272 20.6312L18.909 17.3747C18.8989 17.3729 18.8888 17.372 18.8789 17.372Z" fill="#939598"/>
<path d="M19.1205 17.4776L19.075 0.151123C14.0538 0.16218 9.23765 1.99606 5.69336 5.24661C2.14889 8.49716 0.158708 12.9053 0.163583 17.4946L19.1205 17.4776Z" fill="#CADBE0"/>
<path d="M8.7483e-06 17.4943C-0.00486648 12.8982 2.02811 8.39522 5.57782 5.13988C9.12753 1.88438 14.0474 0.0110574 19.0759 0C19.1196 0 19.1615 0.015842 19.1925 0.0438981C19.2234 0.0721193 19.2409 0.110411 19.2411 0.15035L19.2866 17.477C19.2868 17.5169 19.2694 17.5555 19.2386 17.5838C19.2077 17.6121 19.1658 17.6282 19.1219 17.6282L0.165045 17.6452C0.0738597 17.6448 0.000189312 17.5773 8.7483e-06 17.4943ZM18.9118 0.302351C14.0273 0.353182 9.26096 2.18871 5.81128 5.35245C2.3616 8.51619 0.369445 12.8788 0.330262 17.3435L18.9565 17.3268L18.9118 0.302351Z" fill="#939598"/>
<path d="M18.5989 17.628C18.6626 17.628 18.7233 17.5939 18.7502 17.5369C18.7862 17.4605 18.7477 17.3721 18.6641 17.3391L1.69938 10.6564C1.61578 10.6233 1.51881 10.6589 1.4827 10.7352C1.44677 10.8114 1.48523 10.9 1.56883 10.933L18.5335 17.6158C18.555 17.6243 18.5772 17.628 18.5989 17.628Z" fill="#939598"/>
<path d="M19.1221 17.2502C19.1436 17.2502 19.1653 17.2464 19.1862 17.2383C19.27 17.2058 19.3092 17.1175 19.2736 17.0409L12.0211 1.41081C11.9855 1.33424 11.8889 1.29859 11.805 1.33093C11.7212 1.36345 11.6822 1.45191 11.7178 1.52849L18.9701 17.1586C18.997 17.2158 19.058 17.2502 19.1221 17.2502Z" fill="#939598"/>
<path d="M19.1214 17.6278C19.148 17.6278 19.1747 17.6219 19.1993 17.61C19.2616 17.5793 19.2955 17.5159 19.2838 17.4524L16.1364 0.366714C16.1214 0.284691 16.0358 0.230066 15.9466 0.243269C15.8568 0.256967 15.7964 0.334864 15.8113 0.416887L18.8779 17.0634L5.38377 5.53779C5.31714 5.48085 5.21278 5.48432 5.15084 5.54505C5.08873 5.60578 5.09216 5.70117 5.15879 5.75794L19.0088 17.5876C19.04 17.614 19.0806 17.6278 19.1214 17.6278Z" fill="#939598"/>
<path d="M19.0942 17.4664C19.1373 17.4664 19.1799 17.4509 19.2119 17.4212C19.2664 17.3702 19.2744 17.2913 19.231 17.232L8.77096 2.96238C8.7204 2.89323 8.61802 2.87491 8.54237 2.92112C8.46671 2.96749 8.44649 3.06091 8.49722 3.13022L18.5182 16.801L3.31215 7.91891C3.23541 7.87402 3.13357 7.89464 3.08463 7.96462C3.03552 8.03459 3.05792 8.12784 3.13466 8.17256L19.0055 17.443C19.0326 17.4586 19.0635 17.4664 19.0942 17.4664Z" fill="#939598"/>
<path d="M19.121 17.6276C19.1988 17.6274 19.268 17.5768 19.2826 17.5043C19.2992 17.4226 19.2402 17.3439 19.1506 17.3289L0.510605 14.1787C0.421767 14.1635 0.335093 14.2175 0.318662 14.2993C0.302231 14.381 0.361274 14.4597 0.450834 14.4748L19.0908 17.6248C19.1008 17.6268 19.1109 17.6276 19.121 17.6276Z" fill="#939598"/>
<path d="M19.1205 17.5021L19.0869 34.8287C14.0657 34.8205 9.24847 32.9896 5.70184 29.741C2.15502 26.4923 0.16177 22.0853 0.163575 17.4962L19.1205 17.5021Z" fill="#CADBE0"/>
<path d="M0.164855 17.3446L19.1217 17.3505C19.1656 17.3505 19.2075 17.3664 19.2384 17.3947C19.2693 17.4231 19.2866 17.4614 19.2866 17.5014L19.253 34.828C19.253 34.8679 19.2355 34.9062 19.2044 34.9344C19.1736 34.9627 19.1317 34.9785 19.0882 34.9785H19.088C14.0593 34.9703 9.13835 33.0997 5.58629 29.8464C2.03442 26.593 -0.00180444 22.0913 1.19986e-06 17.4951C1.19986e-06 17.4121 0.0738509 17.3446 0.164855 17.3446ZM18.9567 17.6517L0.330436 17.6459C0.372688 22.1105 2.36792 26.4719 5.81976 29.6338C9.27178 32.7954 14.0394 34.6283 18.9238 34.6765L18.9567 17.6517Z" fill="#939598"/>
<path d="M18.5967 17.351C18.6606 17.351 18.7211 17.385 18.748 17.442C18.7842 17.5182 18.7455 17.6068 18.6621 17.6398L1.7019 24.3324C1.61829 24.3656 1.52133 24.3301 1.48522 24.2536C1.4491 24.1774 1.48775 24.0888 1.57135 24.0558L18.5316 17.3632C18.5527 17.3548 18.5749 17.351 18.5967 17.351Z" fill="#939598"/>
<path d="M19.1187 17.7275C19.1402 17.7275 19.1619 17.7313 19.183 17.7393C19.2668 17.7718 19.306 17.8601 19.2704 17.9366L12.0289 33.5708C11.9935 33.6474 11.8969 33.6832 11.8129 33.6509C11.7291 33.6184 11.69 33.5301 11.7255 33.4535L18.9672 17.8193C18.9936 17.7619 19.0546 17.7274 19.1187 17.7275Z" fill="#939598"/>
<path d="M19.1209 17.3505C19.1475 17.3505 19.1742 17.3563 19.1988 17.3683C19.2611 17.3989 19.295 17.4622 19.2834 17.5258L16.148 34.6133C16.133 34.6951 16.0474 34.7499 15.9582 34.7369C15.8684 34.723 15.808 34.6453 15.8229 34.5633L18.8779 17.9151L5.39176 29.4485C5.32513 29.5054 5.22077 29.5021 5.15883 29.4414C5.09654 29.3808 5.09997 29.2854 5.16642 29.2286L19.0083 17.3909C19.0395 17.3644 19.08 17.3505 19.1209 17.3505Z" fill="#939598"/>
<path d="M19.0904 17.5139C19.1335 17.5139 19.1762 17.5292 19.2081 17.5589C19.2628 17.6099 19.2708 17.6888 19.2274 17.748L8.7773 32.0238C8.72674 32.0931 8.62435 32.1115 8.54869 32.0653C8.47304 32.019 8.45282 31.9255 8.50338 31.8561L18.5148 18.1798L3.31468 27.0706C3.23794 27.1155 3.13611 27.0949 3.087 27.0249C3.03806 26.9549 3.06028 26.8618 3.13702 26.8169L19.0015 17.5373C19.0288 17.5216 19.0597 17.5139 19.0904 17.5139Z" fill="#939598"/>
<path d="M19.1201 17.3505C19.198 17.3505 19.2671 17.4012 19.2819 17.4736C19.2985 17.5553 19.2395 17.634 19.1499 17.6492L0.512124 20.81C0.423287 20.8252 0.336613 20.7714 0.320181 20.6895C0.303569 20.6078 0.362617 20.5291 0.452177 20.5141L19.09 17.3531C19.0999 17.3513 19.11 17.3505 19.1201 17.3505Z" fill="#939598"/>
<path d="M35.0439 17.6318C34.9856 25.7069 27.7764 32.2096 18.9417 32.1565C10.1071 32.1032 2.99233 25.5139 3.05065 17.4391C3.10879 9.36418 10.318 2.86126 19.1526 2.91457C27.9876 2.96771 35.1022 9.55693 35.0439 17.6318Z" fill="#B59686"/>
<path d="M19.2151 32.3819C19.1784 32.3819 19.1422 32.3818 19.1055 32.3816C10.1939 32.328 2.99179 25.6577 3.05065 17.5127C3.07918 13.567 4.78695 9.86755 7.85961 7.09594C10.9323 4.32432 15.0065 2.81227 19.3186 2.83834C23.6355 2.86442 27.6828 4.42533 30.7152 7.23375C33.7474 10.0422 35.4019 13.7617 35.3734 17.7073C35.3449 21.6529 33.6371 25.3522 30.5645 28.1238C27.518 30.872 23.4912 32.3819 19.2151 32.3819ZM19.2091 3.13937C15.0201 3.13937 11.0758 4.61825 8.09109 7.31048C5.08109 10.0255 3.40817 13.6495 3.38018 17.5147C3.35238 21.3798 4.97293 25.0235 7.94339 27.7746C10.9139 30.5258 14.8789 32.055 19.1077 32.0804C23.3345 32.1095 27.3231 30.6248 30.333 27.9096C33.343 25.1948 35.0161 21.5708 35.0439 17.7056C35.0717 13.8405 33.4511 10.1968 30.4807 7.44565C27.5102 4.6945 23.5452 3.16528 19.3164 3.13986C19.2808 3.13936 19.2447 3.13937 19.2091 3.13937Z" fill="#939598"/>
<path d="M15.9819 1.76639C18.5559 2.66732 20.5251 4.87946 20.9666 7.36622C22.3784 5.76603 24.1651 4.44343 26.1713 3.51411C26.4119 3.40271 26.7101 3.29875 26.9368 3.43226C27.1578 3.56264 27.1825 3.84385 27.1841 4.08415C27.1883 4.72515 27.1924 5.36632 27.1966 6.00715C28.3029 5.8913 29.4302 5.94559 30.5168 6.16707C30.7127 6.20701 30.9198 6.25916 31.0522 6.39697C31.4415 6.80262 30.8581 7.46078 31.0751 7.96249C32.2616 8.20922 33.7034 8.71061 33.7946 9.81965C33.8166 10.0868 33.7489 10.3534 33.7424 10.6212C33.7213 11.5098 34.3624 12.2965 34.5394 13.1705C34.8756 14.8303 33.5239 16.3445 32.2343 17.5526C33.7946 17.8901 35.2922 18.468 36.6451 19.2546C36.7378 20.0989 35.8965 20.798 35.0316 21.1066C34.1667 21.4152 33.2052 21.4946 32.3948 21.9085C32.9275 22.8964 33.4114 23.9065 33.845 24.9343C33.932 25.1406 34.0185 25.3583 33.9862 25.5774C33.8469 26.5223 32.0261 26.2888 31.5316 27.1281C31.3282 27.4731 31.4203 27.8992 31.3147 28.2789C31.1843 28.7473 30.7705 29.098 30.3763 29.42C29.6828 29.9865 28.9892 30.5531 28.2959 31.1197C27.9801 31.3776 27.6456 31.6448 27.2331 31.732C26.5583 31.8746 25.8944 31.5037 25.3203 31.1499C24.2559 30.4934 23.1917 29.8372 22.1273 29.1807C21.1188 30.8061 19.8045 32.2723 18.2594 33.4957C17.9651 33.7287 17.5779 33.9674 17.2157 33.8367C17.0088 33.7621 16.8721 33.5835 16.7558 33.4102C15.7701 31.9436 15.3574 30.1625 15.6076 28.4563C13.5335 29.2523 11.4075 29.9354 9.24454 30.5008C8.78104 29.3744 8.90003 28.0606 9.55963 27.019C8.42334 27.2293 7.24679 27.2564 6.10039 27.0983C5.62298 27.0324 5.10656 26.9091 4.82705 26.5495C4.45364 26.0689 4.66924 25.4029 4.94423 24.8696C5.8243 23.1645 7.20129 21.6758 8.8948 20.5993C6.85497 20.0205 4.84691 19.3487 2.88057 18.5867C2.02884 18.2568 1.06355 17.7643 0.973633 16.9228C2.00863 16.6672 3.0438 16.4117 4.07897 16.156C4.22342 16.1204 4.38557 16.0715 4.44768 15.9469C4.52262 15.7964 4.40977 15.6276 4.30089 15.4954C3.60626 14.6517 2.86431 13.8404 2.07886 13.0661C2.85204 13.0048 3.83683 12.7621 3.90003 12.0552C3.94373 11.5684 3.51706 10.9709 3.92604 10.6562C4.07067 10.545 4.27253 10.5265 4.46104 10.513C5.26672 10.4549 6.0724 10.3968 6.87808 10.3387C6.20837 9.20571 6.14968 7.78756 6.72369 6.61151C7.96561 6.748 9.19453 6.98516 10.3909 7.31919C10.301 6.5318 10.2655 5.7393 10.2848 4.94778C10.2888 4.78456 10.3021 4.60533 10.4258 4.4875C10.5569 4.36257 10.7676 4.34887 10.9568 4.35415C12.2098 4.38897 13.1812 4.95372 14.1275 5.63598C14.9883 4.55136 14.8827 2.93336 15.9819 1.76639Z" fill="#78A015"/>
<path d="M16.5905 13.6809C16.305 12.8378 16.7683 11.949 17.2364 11.1772C18.3797 9.29113 19.6317 7.46005 20.9854 5.694C21.5477 7.9611 22.11 10.2284 22.6722 12.4955C23.9357 9.8818 26.5092 7.82594 29.5122 7.03145C29.1433 9.04473 28.3994 11.0001 27.3223 12.7882C30.0096 13.5251 32.4917 14.8791 34.4768 16.6917C31.731 17.6263 28.8941 18.3374 26.0107 18.8134C28.0543 20.3475 30.0981 21.8817 32.1417 23.4159C29.1308 23.7707 26.1199 24.1256 23.1092 24.4804C23.0991 26.725 22.6475 28.9674 21.7826 31.0683C20.6508 29.8563 19.7639 28.4539 19.18 26.9526C19.066 26.6595 18.9413 26.337 18.6468 26.1811C18.4102 26.056 18.1186 26.0698 17.8461 26.0903C14.4824 26.3428 11.1602 27.053 8.02291 28.1902C9.03605 27.1153 10.0494 26.0406 11.0627 24.9656C9.15648 24.4235 7.25027 23.8815 5.34424 23.3393C7.04461 21.3564 9.07577 19.7221 10.9238 17.8883C7.47363 15.5183 5.46937 13.5695 5.35706 9.35417C7.38985 8.97986 9.78829 9.50964 11.6671 10.2559C13.0632 10.8103 16.0963 12.2207 16.5905 13.6809Z" fill="#94D31A"/>
<path d="M15.3627 11.0848C15.6803 9.25254 16.4255 7.48335 17.534 5.92953C19.3171 8.61599 21.1713 11.6791 20.3515 14.7307C21.1126 11.403 22.4688 7.77745 25.7695 6.2101C25.2684 7.96922 24.7672 9.72833 24.266 11.4876C26.7308 10.8679 29.4787 11.262 31.6174 12.5419C29.9696 14.6221 27.5121 16.1548 24.7921 16.7993C26.7211 17.1617 28.591 17.7856 30.3219 18.6441C29.28 18.9434 28.238 19.2428 27.1961 19.5422C28.0824 20.5875 28.978 21.6472 29.5527 22.8607C30.1276 24.0744 30.3564 25.4787 29.869 26.7239C26.412 27.0591 22.8155 25.852 20.417 23.5519C20.5723 25.7119 20.2961 27.8971 19.6058 29.968C18.7364 28.6677 18.1907 27.1878 18.0215 25.6718C16.5351 27.2251 14.2873 28.1454 12.0295 28.1249C12.4387 26.1195 13.5358 24.236 15.1278 22.8063C13.3949 23.3856 11.6619 23.9647 9.92899 24.5436C10.406 22.8058 11.7354 21.279 13.481 20.4639C10.2564 20.0876 7.26585 18.2916 5.60791 15.7358C7.76962 14.6659 10.4263 14.4673 12.749 15.2027C12.0694 14.4881 11.3899 13.7734 10.7103 13.0586C10.7832 13.1353 12.8242 13.0706 13.1535 13.157C13.9534 13.3669 14.6332 13.8749 15.3349 14.13C15.6559 13.2979 15.1978 12.0364 15.3627 11.0848Z" fill="#7EBB15"/>
<path d="M11.5364 8.32569C11.2424 8.24663 10.8569 8.38955 10.8213 8.6678C10.7937 8.88384 10.9752 9.07017 11.1435 9.22399C10.8107 9.34628 10.5377 9.59795 10.4064 9.90294C10.3705 9.98644 10.3446 10.0772 10.362 10.1655C10.3997 10.3571 10.6243 10.4695 10.8342 10.5028C11.0442 10.5362 11.2646 10.5195 11.4654 10.5844C11.3356 10.7852 11.2034 10.9918 11.1617 11.2219C11.1202 11.452 11.1891 11.714 11.3962 11.8504C11.6738 12.0329 12.0595 11.9261 12.3738 11.8027C12.3921 12.1991 12.7499 12.56 13.1799 12.6156C13.6098 12.6711 14.0632 12.4151 14.201 12.0387C14.8551 12.1692 15.577 11.7155 15.6781 11.1107C15.7182 10.871 15.6382 10.5814 15.3927 10.49C15.7466 10.3614 15.9764 9.99487 15.9188 9.65077C15.8612 9.30683 15.5219 9.01967 15.1422 8.9936C15.4113 8.72013 15.38 8.24598 15.0769 8.00403C14.7737 7.76226 14.2555 7.79774 13.9955 8.0783C14.0099 7.8017 13.7342 7.54161 13.4312 7.54573C13.1284 7.55002 12.8615 7.81771 12.8852 8.09382C12.8689 7.90468 12.4686 7.93835 12.3574 7.98077C12.1136 8.07385 12.0421 8.32239 11.999 8.53611C11.8596 8.47571 11.6985 8.36926 11.5364 8.32569Z" fill="#D3CD0D"/>
<path d="M6.34398 23.4607C6.05002 23.3814 5.66452 23.5245 5.62894 23.8028C5.60132 24.0188 5.78278 24.2051 5.95107 24.3589C5.61829 24.4812 5.34528 24.7329 5.21401 25.0379C5.17808 25.1214 5.15225 25.2122 5.16959 25.3005C5.20733 25.4921 5.43196 25.6046 5.64177 25.6378C5.85177 25.6711 6.07223 25.6545 6.27302 25.7193C6.14319 25.9202 6.01102 26.127 5.96931 26.3569C5.92778 26.5871 5.99676 26.8492 6.20386 26.9853C6.48139 27.1678 6.86708 27.0612 7.18144 26.9378C7.19986 27.3342 7.55755 27.6951 7.98747 27.7508C8.4174 27.8062 8.8708 27.5501 9.00857 27.1738C9.66275 27.3043 10.3846 26.8508 10.4858 26.2458C10.5258 26.0063 10.4459 25.7167 10.2003 25.6251C10.5542 25.4965 10.7841 25.1298 10.7265 24.7857C10.6689 24.4418 10.3296 24.1548 9.94984 24.1287C10.2189 23.8554 10.1876 23.3813 9.88448 23.1393C9.58149 22.8974 9.0631 22.933 8.80309 23.2136C8.81753 22.937 8.54181 22.6767 8.23882 22.681C7.93602 22.6851 7.66914 22.953 7.69279 23.2289C7.67672 23.04 7.27641 23.0735 7.16501 23.1159C6.92124 23.2091 6.84974 23.4575 6.80659 23.6712C6.66701 23.6107 6.50595 23.5042 6.34398 23.4607Z" fill="#D3CD0D"/>
<path d="M18.6999 20.9956C18.406 20.9165 18.0205 21.0595 17.9851 21.3377C17.9575 21.5537 18.1389 21.7401 18.307 21.8939C17.9742 22.016 17.7012 22.2677 17.57 22.5727C17.534 22.6562 17.5082 22.7471 17.5255 22.8352C17.5633 23.0269 17.7879 23.1394 17.9977 23.1728C18.2077 23.2061 18.4282 23.1894 18.629 23.2543C18.4992 23.4551 18.3668 23.6618 18.3253 23.8918C18.2837 24.122 18.3527 24.3841 18.5596 24.5203C18.8373 24.7028 19.223 24.5962 19.5372 24.4726C19.5554 24.869 19.9133 25.2301 20.3432 25.2857C20.7732 25.3412 21.2264 25.085 21.3643 24.7087C22.0183 24.8393 22.7404 24.3858 22.8415 23.7807C22.8816 23.5413 22.8016 23.2515 22.5561 23.16C22.9098 23.0315 23.1396 22.6648 23.0822 22.3207C23.0248 21.9766 22.6853 21.6896 22.3056 21.6637C22.5747 21.3902 22.5434 20.916 22.2403 20.6743C21.9371 20.4323 21.4189 20.468 21.1587 20.7485C21.1731 20.4719 20.8974 20.2117 20.5946 20.216C20.2918 20.2201 20.0249 20.4878 20.0486 20.7639C20.0323 20.5748 19.632 20.6084 19.5208 20.6508C19.277 20.7439 19.2055 20.9923 19.1624 21.2062C19.0231 21.1458 18.8621 21.0392 18.6999 20.9956Z" fill="#D3CD0D"/>
<path d="M19.7841 13.4525C19.4902 13.3735 19.1047 13.5164 19.0693 13.7947C19.0416 14.0107 19.2231 14.197 19.3914 14.3508C19.0586 14.4731 18.7856 14.7248 18.6545 15.0298C18.6186 15.1133 18.5926 15.2041 18.6101 15.2924C18.6478 15.484 18.8725 15.5965 19.0823 15.6297C19.2921 15.663 19.5127 15.6464 19.7135 15.7112C19.5837 15.9121 19.4513 16.1189 19.4098 16.3488C19.3683 16.579 19.4373 16.8409 19.6444 16.9772C19.9221 17.1598 20.3076 17.0531 20.6219 16.9297C20.6404 17.3261 20.9981 17.687 21.428 17.7427C21.8579 17.7981 22.3113 17.542 22.4491 17.1657C23.1033 17.2962 23.8251 16.8427 23.9263 16.2377C23.9663 15.9982 23.8864 15.7086 23.641 15.617C23.9949 15.4884 24.2247 15.1217 24.167 14.7776C24.1094 14.4337 23.7701 14.1465 23.3903 14.1204C23.6594 13.847 23.6281 13.3728 23.325 13.1311C23.022 12.8891 22.5036 12.9248 22.2436 13.2053C22.258 12.9287 21.9823 12.6686 21.6795 12.6727C21.3767 12.677 21.1098 12.9447 21.1335 13.2208C21.1174 13.0319 20.7171 13.0654 20.6057 13.1078C20.3619 13.201 20.2904 13.4494 20.2473 13.6631C20.1071 13.6027 19.9461 13.4961 19.7841 13.4525Z" fill="#D3CD0D"/>
<path d="M30.5376 16.689C30.2437 16.6099 29.8582 16.753 29.8228 17.0311C29.7952 17.2473 29.9766 17.4335 30.1449 17.5874C29.8121 17.7096 29.5391 17.9612 29.4079 18.2662C29.3719 18.3497 29.3461 18.4405 29.3634 18.5288C29.4012 18.7204 29.6258 18.833 29.8356 18.8663C30.0456 18.8996 30.2661 18.883 30.4669 18.9478C30.337 19.1487 30.2047 19.3553 30.1632 19.5854C30.1214 19.8154 30.1904 20.0775 30.3975 20.2138C30.6752 20.3964 31.0607 20.2896 31.3751 20.1661C31.3935 20.5625 31.7512 20.9236 32.1811 20.9791C32.6111 21.0347 33.0645 20.7786 33.2022 20.4023C33.8562 20.5328 34.5783 20.0791 34.6794 19.4743C34.7193 19.2348 34.6395 18.945 34.3939 18.8534C34.7477 18.725 34.9775 18.3583 34.9201 18.0142C34.8625 17.6701 34.5232 17.3831 34.1435 17.3572C34.4126 17.0837 34.3811 16.6096 34.0781 16.3677C33.7752 16.1259 33.2568 16.1615 32.9967 16.4419C33.0112 16.1655 32.7355 15.9052 32.4327 15.9094C32.1297 15.9136 31.863 16.1813 31.8866 16.4574C31.8706 16.2685 31.4703 16.302 31.359 16.3444C31.1151 16.4376 31.0438 16.6858 31.0004 16.8997C30.8607 16.8392 30.6998 16.7327 30.5376 16.689Z" fill="#D3CD0D"/>
<path d="M28.9353 9.06299C28.6413 8.98394 28.2558 9.12686 28.2203 9.40511C28.1928 9.62114 28.3741 9.80748 28.5424 9.96129C28.2096 10.0836 27.9364 10.3353 27.8053 10.6402C27.7694 10.7237 27.7436 10.8145 27.7609 10.9028C27.7988 11.0944 28.0233 11.207 28.2331 11.2401C28.4431 11.2735 28.6635 11.2567 28.8643 11.3217C28.7345 11.5224 28.6021 11.7291 28.5606 11.9592C28.5191 12.1893 28.5881 12.4513 28.795 12.5877C29.0727 12.7702 29.4584 12.6634 29.7726 12.54C29.791 12.9364 30.1489 13.2973 30.5786 13.3529C31.0085 13.4084 31.4619 13.1524 31.5997 12.776C32.2539 12.9065 32.9758 12.4528 33.0769 11.848C33.117 11.6083 33.037 11.3187 32.7914 11.2273C33.1451 11.0987 33.375 10.732 33.3176 10.3881C33.26 10.0441 32.9207 9.75697 32.541 9.73089C32.81 9.45743 32.7786 8.98328 32.4756 8.74134C32.1724 8.4994 31.6542 8.53505 31.394 8.81561C31.4085 8.53901 31.1328 8.27891 30.8299 8.28304C30.5271 8.28716 30.2603 8.55501 30.2839 8.83112C30.2677 8.64199 29.8674 8.67566 29.7561 8.71807C29.5124 8.81115 29.4409 9.05969 29.3977 9.27342C29.2585 9.21318 29.0974 9.10656 28.9353 9.06299Z" fill="#D3CD0D"/>
</svg>
