<svg width="32" height="27" viewBox="0 0 32 27" fill="none" xmlns="http://www.w3.org/2000/svg">
<path d="M31.8909 11.4527C31.5113 10.8829 30.4782 10.7627 29.719 10.6631C30.1515 10.2367 30.2434 9.67451 29.9461 9.1296C29.7098 8.70323 29.0959 8.82419 28.6483 8.96966C28.8009 8.2857 28.7227 7.80589 27.873 7.71386C28.0849 7.34737 28.1019 6.92341 27.7278 6.63126C27.4875 6.43073 27.1382 6.55692 26.8482 6.72971C26.9622 6.43716 26.9912 6.14059 26.7802 5.84041C26.4374 5.38229 26.1401 5.2754 25.6098 5.26254C26.0045 4.55286 26.0505 3.71539 25.4287 3.05836C24.9108 2.51304 24.3796 2.42624 23.8479 2.69227C23.9007 2.25384 23.7422 1.75514 23.2771 1.58234C22.7091 1.35609 22.3507 1.75514 22.1011 2.1799C22.0166 1.98861 21.8856 1.80898 21.6894 1.75473C21.3185 1.67517 21.1572 1.98862 21.0125 2.27996C20.9316 1.64985 20.7165 0.819618 19.9973 0.805152C19.274 0.793096 18.8797 1.30345 18.6421 1.86163C18.5452 1.41195 18.3774 0.958256 17.9225 0.831672C17.6495 0.758132 17.4367 1.01854 17.2998 1.31671C17.2244 1.15115 17.1031 1.0326 16.9128 1.02497C16.616 1.02497 16.4041 1.17687 16.229 1.38905C16.099 0.73965 15.6431 0.0275573 14.9832 0.00103485C14.4579 -0.0246839 14.293 0.433434 14.2392 0.878691C14.0641 0.666913 13.8353 0.513 13.5168 0.579709C13.0467 0.705891 13.0609 1.56305 13.0761 2.14092C12.4686 1.58837 11.4649 0.884717 10.8413 1.0326C10.7057 0.725582 10.3873 0.545955 9.77975 0.625121C8.62629 0.792695 8.11665 1.60846 8.09413 2.53152C7.66859 2.333 7.09783 2.16784 6.81613 2.57854C6.46871 3.10497 6.6052 3.55465 6.90942 3.97941C6.23802 3.7604 5.6475 3.82068 5.09972 4.49178C4.41867 5.3421 5.017 6.17234 5.49539 6.95516C4.75139 6.88925 3.77669 6.75101 3.33874 7.31481C2.83691 7.97346 3.94626 8.66304 4.76747 9.00301C4.55286 9.18827 4.43246 9.50051 4.43246 9.81396C3.6857 9.2819 2.63012 8.85634 1.81074 9.46153C1.40129 9.76011 1.65174 10.1764 2.001 10.5301C1.25883 10.3838 0.406829 10.4095 0.0865242 11.0416C-0.248945 11.6717 0.778602 12.6695 1.50101 13.2064C1.01389 13.2619 0.459217 13.3917 0.344331 13.7855C0.191761 14.2099 0.67934 14.5024 1.08926 14.6286C1.05893 14.8621 1.12694 15.0473 1.26526 15.1868C1.02124 15.3326 0.877404 15.5926 0.815365 16.0029C0.763436 16.4884 1.05157 16.8939 1.46149 17.192C0.876945 17.3801 0.291941 17.6984 0.100769 18.2079C-0.171283 18.9469 0.163727 19.5582 0.649928 20.1618C0.876944 20.4418 1.2864 20.957 1.75652 20.8461C2.02489 20.7794 2.13886 20.5463 2.18987 20.2731C2.42516 20.521 2.76155 20.6801 3.14021 20.6874C3.24683 20.6874 3.35207 20.6657 3.45868 20.6388C3.54462 21.0587 3.75555 21.4702 3.9674 21.6703C4.30654 21.9886 4.87133 21.9211 5.31801 21.6755C5.19071 22.374 5.49401 23.0234 6.42184 23.3501C7.24121 23.6346 7.98614 23.2633 8.4558 22.6987C8.50175 23.1504 8.72325 23.5611 9.26092 23.7628C9.64051 23.889 10.1575 24.0288 10.6092 24.0015C10.2494 24.4777 10.0224 25.0166 10.402 25.4835C10.8804 26.0666 11.7779 25.8886 12.3164 25.4626C12.3767 25.9473 12.5963 26.3608 13.0595 26.7257C13.4331 27.0102 14.117 27.1247 14.5108 26.8113C15.3697 26.1474 15.036 24.9704 14.5333 24.0746C15.036 24.2526 15.4818 24.0999 15.9478 23.7688C15.7341 24.3121 15.5985 24.9097 16.0682 25.3304C16.5994 25.8022 17.2442 25.3835 17.7244 24.9097C17.633 25.3232 17.6182 25.7339 17.9055 26.0666C18.2644 26.4862 19.0543 26.5243 19.5837 26.4934C21.0216 26.4182 21.0216 25.6145 20.5566 24.8386C20.9137 24.9973 21.2942 25.0969 21.5671 24.9241C22.1613 24.5669 22.0538 23.8291 21.8714 23.2508C22.4187 23.4031 22.7077 23.1387 22.7831 22.6794C23.0262 22.9317 23.3502 23.0993 23.7265 22.8397C24.3019 22.4351 24.4319 21.9098 24.2417 21.391C24.4857 21.4963 24.7568 21.5445 24.9402 21.3838C25.0845 21.2576 25.153 21.1254 25.1672 20.9924C25.5785 21.0454 25.9282 20.6388 25.9122 20.0557C26.6879 20.2285 27.431 20.3619 28.1667 20.0155C28.8068 19.7032 29.2696 18.6865 29.2554 18.0966C29.2554 17.7771 29.2085 17.5907 29.0123 17.3331C28.6621 16.8617 28.4668 17.1064 28.873 16.629C29.3606 16.0978 28.8588 15.6847 28.5095 15.2788C28.6772 15.1458 28.6478 14.9738 28.5095 14.7821C28.9125 14.6736 29.4079 14.4233 29.3826 14.058C29.3762 13.9519 29.345 13.8502 29.3073 13.7582C30.106 13.9466 30.8799 13.7385 31.4966 12.901C31.7787 12.5217 32.2015 11.9056 31.8909 11.4527Z" fill="#5DA800"/>
<path d="M19.8623 13.924C19.1813 12.6356 17.5692 13.226 17.0664 12.6569C17.7962 11.8058 16.2181 8.82484 15.0021 9.08283C16.6501 8.50376 16.0802 5.28288 14.2563 6.39843C12.8436 7.25519 13.0247 9.40713 14.8638 9.11578C14.135 9.30144 13.3611 9.7254 12.8749 10.2309C12.7517 9.44771 12.7375 7.2359 11.2637 7.24273C9.4407 7.24795 10.0547 9.49393 10.5868 10.3045C7.92925 9.34082 7.03359 12.4419 10.3598 12.5163C10.1999 12.5902 5.01204 13.2328 7.29829 14.3098C9.03951 15.134 7.41226 14.4496 8.66452 15.658C9.8042 16.7587 11.277 15.406 11.8175 14.5344C13.5964 17.1533 16.6721 15.9767 14.668 13.4394C16.3086 13.5848 16.1193 14.3757 17.6739 14.8876C18.3895 15.1079 20.5011 15.146 19.8623 13.924C20.076 14.3439 19.4207 13.1018 19.8623 13.924ZM12.556 12.1454C12.2669 12.3515 11.9926 12.3435 11.7205 12.1325C11.925 11.9935 12.0381 11.8187 12.0767 11.6197C12.0831 11.627 13.2402 12.2169 12.556 12.1454C12.6162 12.151 12.3731 12.1321 12.556 12.1454Z" fill="#7AD000"/>
<path d="M17.3425 10.5106C16.6596 9.22269 15.0466 9.8082 14.5476 9.24921C15.2764 8.39246 13.6951 5.40988 12.4805 5.66907C14.1211 5.09201 13.5655 1.87033 11.7328 2.97865C10.3239 3.83541 10.504 5.98815 12.3431 5.69721C11.6216 5.88728 10.8468 6.31405 10.3542 6.81758C10.231 6.02713 10.2177 3.81451 8.74302 3.82817C6.91816 3.83581 7.5413 6.08741 8.06518 6.89112C5.41544 5.92144 4.51886 9.03784 7.83909 9.10253C7.68468 9.16964 2.49869 9.81542 4.7785 10.8976C6.51605 11.7275 4.89155 11.0431 6.1429 12.2446C7.28258 13.3481 8.75726 11.9943 9.30504 11.1166C11.0679 13.7335 14.151 12.5641 12.145 10.0252C13.7801 10.1658 13.5972 10.97 15.1624 11.4614C15.8688 11.6945 17.9781 11.7335 17.3425 10.5106C17.5544 10.9229 16.9004 9.68201 17.3425 10.5106ZM10.0339 8.73122C9.74483 8.93697 9.4737 8.93134 9.19751 8.71755C9.39603 8.5773 9.51873 8.40491 9.56469 8.2068C9.56469 8.21403 10.7108 8.80355 10.0339 8.73122C10.095 8.73845 9.85098 8.7047 10.0339 8.73122Z" fill="#7AD000"/>
<path d="M27.0414 15.1149C26.745 15.0884 26.4555 15.0546 26.1527 15.0225C27.7179 12.2513 22.4312 13.1161 22.2493 15.5598C21.8086 14.046 17.3192 12.9103 18.4571 15.2672C16.7421 14.8634 15.8767 15.8379 17.4553 16.7947C17.8969 17.0535 18.5108 16.7284 18.5108 16.2839C19.4543 16.2164 19.3463 16.2976 20.3624 16.437C18.1616 17.9134 19.5448 19.9312 21.7456 18.2313C22.9781 21.5993 26.6756 19.1411 24.1242 16.6428C25.1724 16.2839 25.257 16.1718 26.3204 16.132C26.0162 16.57 24.6178 16.8409 25.3177 17.5072C26.3493 18.4752 29.0097 15.8921 27.0414 15.1149C27.4444 15.2761 26.745 14.994 27.0414 15.1149Z" fill="#7AD000"/>
<path d="M12.2102 13.6793C11.9212 13.6528 11.6303 13.6255 11.3279 13.5921C12.8931 10.8161 7.6065 11.6725 7.41533 14.1242C6.9829 12.6156 2.48669 11.4736 3.62683 13.8308C1.91777 13.4338 1.05015 14.4107 2.62869 15.3587C3.06296 15.6179 3.68427 15.2936 3.68427 14.8487C4.62864 14.7824 4.52156 14.8624 5.54038 15.0079C3.33685 16.4755 4.71917 18.4948 6.92086 16.8022C8.14417 20.1621 11.8458 17.7047 9.30131 15.2064C10.3399 14.8483 10.4323 14.7338 11.4878 14.6944C11.1845 15.1345 9.79303 15.4065 10.4925 16.0752C11.5182 17.0397 14.184 14.4501 12.2102 13.6793C12.6192 13.8377 11.9212 13.5668 12.2102 13.6793Z" fill="#7AD000"/>
<path d="M21.5943 20.2302C21.3356 20.2037 21.0764 20.1816 20.8195 20.1494C22.1945 17.6929 17.5085 18.4564 17.3416 20.622C16.9602 19.2939 12.9805 18.284 13.9837 20.3636C12.4631 20.0048 11.7039 20.874 13.1014 21.7247C13.4893 21.9501 14.0357 21.666 14.0439 21.2726C14.8633 21.2131 14.7728 21.2726 15.6854 21.406C13.7241 22.7137 14.9548 24.5019 16.8991 22.9994C17.9951 25.9763 21.2772 23.7955 19.0121 21.5772C19.9385 21.2726 20.0148 21.1669 20.956 21.1336C20.6839 21.519 19.4533 21.7641 20.0755 22.3572C20.978 23.2128 23.341 20.9214 21.5943 20.2302C21.9587 20.3761 21.336 20.1313 21.5943 20.2302Z" fill="#7AD000"/>
<path d="M16.8851 16.544C16.5961 16.5159 16.2928 16.4894 16.0037 16.4556C17.5689 13.6852 12.2754 14.5432 12.0833 16.9873C11.6596 15.4867 7.17029 14.3447 8.3017 16.7024C6.58299 16.2969 5.7195 17.273 7.30724 18.2234C7.73278 18.4886 8.3619 18.1643 8.3619 17.7182C9.30443 17.6511 9.19046 17.7182 10.2001 17.8705C7.99748 19.3377 9.38853 21.3651 11.5911 19.6713C12.8209 23.0244 16.5207 20.5674 13.967 18.0719C15.0171 17.7182 15.0924 17.5921 16.1623 17.5591C15.8599 17.9967 14.4532 18.2704 15.1687 18.9407C16.1861 19.9112 18.8538 17.3268 16.8851 16.544C17.2955 16.71 16.5883 16.4295 16.8851 16.544Z" fill="#7AD000"/>
<path d="M21.0568 11.1112C19.2044 11.3889 20.1896 15.147 21.8771 14.7042C23.2805 14.3377 22.9933 10.817 21.0568 11.1112C23.008 10.817 19.3951 11.362 21.0568 11.1112Z" fill="#7AD000"/>
<path d="M28.2067 10.9478C29.6184 9.93108 25.5399 10.0914 25.1378 10.218C25.6824 9.65421 25.5013 8.94895 24.6057 8.94895C25.0914 8.16613 24.7412 6.43051 23.3006 7.08393C22.0846 7.63448 23.2592 8.49123 23.1319 9.16796C22.7684 8.54388 21.932 8.15809 21.1646 8.52338C20.2597 8.95417 21.416 9.79888 21.2174 10.3695C21.075 10.2048 20.1692 9.6538 20.2133 9.6743C20.6251 9.66063 20.8227 8.01865 20.6559 7.69918C19.7455 5.83416 17.6546 7.99896 19.3967 9.40666C19.0001 9.33272 18.5682 9.31986 18.3315 9.68032C17.5406 9.29494 15.0807 8.96904 15.0205 10.3044C14.9584 11.3541 16.9634 11.2018 17.5939 11.086C17.7768 10.5552 18.0599 10.4627 18.4602 10.8152C18.848 11.2391 19.3333 11.479 19.9564 11.5317C19.093 11.5393 16.9795 12.1312 17.2313 13.1596C17.6936 15.1203 21.7946 11.6591 20.0102 11.5393C20.6108 11.5791 21.0368 11.3802 21.2946 10.9618C21.4982 11.0495 21.6127 11.1728 21.6127 11.3472C20.4206 11.0539 20.5355 13.4992 20.7248 13.938C21.3323 15.3389 22.6007 13.4521 22.4931 12.7003C22.7454 13.1596 23.9688 14.0975 24.318 13.1656C26.545 15.5916 28.4673 12.9555 25.579 11.4388C26.4889 11.5791 27.4751 11.4734 28.2067 10.9478C28.4663 10.7557 27.4608 11.4794 28.2067 10.9478Z" fill="#7AD000"/>
<path d="M24.0639 6.81774C25.4756 5.80225 21.3962 5.96661 21.0014 6.08757C21.5419 5.51653 21.3585 4.81329 20.4532 4.81851C20.9504 4.04173 20.6076 2.30169 19.1623 2.9535C17.9399 3.50404 19.1191 4.35959 18.9882 5.0315C18.632 4.40661 17.7818 4.02846 17.0236 4.40138C16.1197 4.82615 17.2805 5.66965 17.0668 6.24149C16.9303 6.07472 16.0186 5.51654 16.0723 5.54266C16.4841 5.52217 16.673 3.88902 16.5213 3.57075C15.6105 1.71096 13.5127 3.87013 15.253 5.27703C14.8499 5.19746 14.4253 5.19184 14.1896 5.54989C13.3909 5.15808 10.9447 4.83821 10.8712 6.17478C10.8174 7.23086 12.8288 7.07172 13.4525 6.95759C13.6344 6.42634 13.9166 6.33271 14.3187 6.68714C14.6964 7.1099 15.1992 7.349 15.8141 7.40245C14.9487 7.40245 12.844 8.00121 13.0871 9.03036C13.5513 10.991 17.6523 7.53144 15.8687 7.40245C16.4754 7.44344 16.9 7.24974 17.144 6.82699C17.3577 6.91219 17.4634 7.04962 17.4785 7.21719C16.2768 6.92504 16.3936 9.3631 16.582 9.80876C17.1895 11.2149 18.4569 9.31689 18.3512 8.57265C18.6017 9.02313 19.825 9.97393 20.1821 9.038C22.3989 11.4548 24.3143 8.82622 21.4412 7.30962C22.347 7.45629 23.3272 7.33614 24.0639 6.81774C24.3313 6.62646 23.3272 7.3486 24.0639 6.81774Z" fill="#7AD000"/>
<path d="M18.5684 11.263C18.0597 10.2861 16.8433 10.7314 16.4637 10.3054C17.0175 9.66165 15.8254 7.42211 14.9063 7.61379C16.153 7.1826 15.7339 4.75217 14.3498 5.59526C13.2882 6.24105 13.4243 7.85933 14.8066 7.63549C14.2593 7.77976 13.6756 8.09923 13.3006 8.47778C13.2101 7.88585 13.2028 6.22578 12.1049 6.22578C10.7198 6.24065 11.1895 7.92804 11.5861 8.53806C9.58796 7.80668 8.91059 10.1527 11.4183 10.1997C11.3062 10.2516 7.39362 10.7442 9.10911 11.5472C10.417 12.172 9.19367 11.6545 10.1431 12.5703C10.9951 13.3929 12.1054 12.3782 12.5208 11.722C13.8507 13.6927 16.1737 12.8038 14.6623 10.8974C15.8856 11.0022 15.7565 11.6074 16.9329 11.9868C17.4582 12.1515 19.0537 12.1853 18.5684 11.263C18.7343 11.5685 18.2408 10.6374 18.5684 11.263ZM13.0741 9.92124C12.8461 10.0735 12.6495 10.0655 12.4367 9.91401C12.5874 9.80792 12.678 9.68174 12.7097 9.52863C12.7097 9.52863 13.575 9.98072 13.0741 9.92124C13.12 9.92566 12.9298 9.90678 13.0741 9.92124Z" fill="#9DFF0A"/>
<path d="M14.9104 10.5183C14.4256 11.4398 16.0189 11.4149 16.5519 11.2349C17.7215 10.8615 17.5914 10.2575 18.8138 10.1519C17.3111 12.0583 19.6369 12.9484 20.9572 10.9753C21.3754 11.6383 22.475 12.657 23.3418 11.8184C24.2852 10.9158 23.061 11.4269 24.3684 10.8105C26.0926 9.99955 22.1731 9.51451 22.067 9.46227C24.5651 9.40761 23.8891 7.07042 21.8822 7.78813C22.2931 7.18214 22.7554 5.49635 21.3832 5.48871C20.2729 5.48309 20.2577 7.14356 20.1667 7.74072C19.8023 7.35534 19.2242 7.03506 18.6705 6.88999C20.0606 7.11663 20.1883 5.49595 19.1337 4.85137C17.7426 4.0139 17.3254 6.43107 18.5707 6.87673C17.6516 6.67861 16.4605 8.92298 17.0143 9.56595C16.6429 9.98549 15.4274 9.54666 14.9104 10.5183C15.2464 9.89306 14.7445 10.8286 14.9104 10.5183ZM20.4117 9.18057C19.9089 9.22719 20.7674 8.79036 20.7761 8.78313C20.8041 8.93624 20.891 9.06242 21.0348 9.16851C20.8354 9.32041 20.6235 9.33368 20.4117 9.18057C20.5472 9.15646 20.3634 9.18057 20.4117 9.18057Z" fill="#9DFF0A"/>
<path d="M11.7822 18.1769C11.4472 18.8291 12.5722 18.807 12.9518 18.6885C13.7863 18.416 13.6958 17.9932 14.5689 17.9129C13.4991 19.2732 15.1548 19.8972 16.0955 18.502C16.3855 18.9597 17.1755 19.6991 17.783 19.1008C18.4581 18.4562 17.5918 18.8203 18.5215 18.3766C19.7439 17.7979 16.9613 17.4536 16.8781 17.4138C18.6644 17.3812 18.1851 15.72 16.7559 16.2383C17.0367 15.8055 17.3735 14.5956 16.4007 14.5903C15.6107 14.5903 15.5965 15.7654 15.5326 16.1909C15.2679 15.9237 14.8506 15.6922 14.4637 15.5934C15.4517 15.7521 15.5487 14.5956 14.7904 14.1382C13.8102 13.5403 13.5133 15.2671 14.3947 15.5801C13.7413 15.4403 12.8916 17.0344 13.2863 17.4929C13.0129 17.7983 12.1457 17.4801 11.7822 18.1769C12.0244 17.7316 11.6761 18.3955 11.7822 18.1769ZM15.7026 17.2201C15.3373 17.2611 15.9604 16.9424 15.9604 16.9424C15.9747 17.0477 16.045 17.1409 16.1516 17.2141C16.005 17.327 15.8533 17.327 15.7026 17.2201C15.8078 17.2136 15.6686 17.2201 15.7026 17.2201Z" fill="#9DFF0A"/>
<path d="M16.6136 16.3493C16.2708 17.0067 17.4036 16.9786 17.7758 16.862C18.6131 16.594 18.5226 16.17 19.3957 16.0909C18.3167 17.4527 19.972 18.0752 20.9297 16.68C21.2105 17.1449 21.9917 17.8699 22.6144 17.2787C23.2812 16.6293 22.408 16.9918 23.3432 16.5554C24.5665 15.9771 21.7858 15.6319 21.7026 15.5926C23.4889 15.5584 23.0087 13.8911 21.5822 14.4159C21.8704 13.9787 22.1971 12.7675 21.2169 12.7619C20.4279 12.7619 20.4191 13.9522 20.3497 14.3765C20.0919 14.0985 19.682 13.8726 19.2886 13.7653C20.2744 13.924 20.364 12.7759 19.6227 12.3102C18.6338 11.7114 18.3305 13.4398 19.2123 13.7585C18.557 13.6126 17.7142 15.2136 18.103 15.6721C17.8438 15.9775 16.978 15.6589 16.6136 16.3493C16.8425 15.9104 16.4923 16.5755 16.6136 16.3493ZM20.5257 15.3997C20.1687 15.4398 20.7771 15.1212 20.7771 15.1139C20.8051 15.2269 20.8676 15.3141 20.9729 15.3852C20.8281 15.5058 20.6783 15.5058 20.5257 15.3997C20.6245 15.38 20.4963 15.3997 20.5257 15.3997Z" fill="#9DFF0A"/>
<path d="M15.825 7.62792C15.871 7.48807 15.8627 7.34782 15.7253 7.22928C15.5342 7.04844 15.2782 7.01107 15.0199 7.03558C15.0048 7.0171 14.9813 6.9966 14.9579 6.97812C14.6403 6.69802 14.1679 7.07617 14.3655 7.37596C14.0558 7.44186 13.758 7.64038 13.7428 7.92771C13.7277 8.14591 13.8642 8.41837 14.1376 8.46539C14.2676 8.48548 14.3655 8.49151 14.4868 8.47704C14.5172 8.47704 14.5328 8.46539 14.5631 8.46539C14.5498 8.57148 14.5406 8.67716 14.6082 8.77763C14.6987 8.94922 14.9207 9.15658 15.1647 9.13005C15.4142 9.10795 15.6127 9.03683 15.7184 8.80978C15.7336 8.76396 15.7465 8.70369 15.7465 8.65587C15.871 8.71655 16.0066 8.75633 16.1532 8.75633C16.4179 8.75633 16.6757 8.62975 16.7069 8.37175C16.7349 7.91364 16.2713 7.74124 15.825 7.62792Z" fill="#C96900"/>
<path d="M22.8727 10.6834C22.5759 10.4303 22.2335 10.5094 21.8838 10.5974C21.8838 10.5303 21.8557 10.4632 21.8557 10.4632C21.7661 10.1325 21.2321 10.1646 21.126 10.4632C21.0658 10.6364 21.0938 10.7952 21.1108 10.9688C21.0488 10.9217 20.9725 10.8832 20.8677 10.8896C20.6701 10.8896 20.4128 10.8964 20.268 11.0274C20.0778 11.195 20.0456 11.4606 20.2528 11.6383C20.4863 11.832 20.7294 11.8376 21.0355 11.7528C21.0488 11.7459 21.0741 11.746 21.0938 11.7387C21.0938 11.7584 21.0938 11.7785 21.0938 11.7998C21.2014 12.3226 21.916 12.4749 22.2652 12.0445C22.3332 11.9433 22.3415 11.8131 22.3567 11.7054C22.3484 11.6467 22.3415 11.5864 22.3268 11.5265C22.2795 11.3734 22.3268 11.3132 22.143 11.3541C22.37 11.3003 22.5929 11.3316 22.7891 11.2018C22.9793 11.0745 23.0621 10.8478 22.8727 10.6834Z" fill="#C96900"/>
<path d="M9.87026 14.3114C9.87026 14.2053 9.80638 14.1189 9.71585 14.0643C9.71585 14.0462 9.72412 14.0321 9.72412 14.0112C9.71585 13.8006 9.62532 13.6343 9.38406 13.5744C9.26044 13.5406 9.09317 13.5676 9.0178 13.6536C8.9406 13.7335 8.88867 13.8195 8.86615 13.8923C8.69198 13.846 8.50081 13.8738 8.39511 14.0321C8.29539 14.172 8.34916 14.4058 8.53344 14.477C8.57847 14.5039 8.62397 14.5091 8.66716 14.5304C8.66716 14.5364 8.66716 14.5364 8.68509 14.5437C8.69933 14.5585 8.7145 14.5907 8.73012 14.61C8.63867 14.5039 8.74529 14.6558 8.76597 14.6956C8.8133 14.7836 8.91027 14.841 9.01826 14.8696C9.18416 14.915 9.36843 14.8635 9.48929 14.7567C9.54306 14.7165 9.57983 14.6694 9.62578 14.6164C9.61843 14.6232 9.61843 14.6232 9.62578 14.6164C9.76043 14.577 9.87026 14.438 9.87026 14.3114Z" fill="#C96900"/>
<path d="M18.6343 18.5748C18.5581 18.5298 18.4827 18.5089 18.4073 18.5016C18.4225 18.4293 18.4156 18.3562 18.3536 18.2702C18.3177 18.2368 18.331 18.1822 18.331 18.1352C18.331 17.8301 17.7846 17.6513 17.6247 17.9692C17.5719 18.0765 17.5351 18.191 17.5117 18.3108C17.2075 18.2236 16.8798 18.5491 17.0944 18.8143C17.0861 18.8143 17.0765 18.8203 17.0691 18.8203C16.7291 18.9549 16.8876 19.4645 17.2603 19.4392C17.3366 19.4251 17.4041 19.4251 17.4864 19.4123C17.4947 19.4179 17.4947 19.4179 17.5117 19.4251C17.6096 19.5111 17.7084 19.5838 17.8448 19.6128C18.0962 19.6522 18.3315 19.526 18.3315 19.2937C18.3315 19.2535 18.3315 19.2198 18.3315 19.186C18.3692 19.194 18.4078 19.1993 18.4372 19.1993C18.8471 19.2194 18.8931 18.7608 18.6343 18.5748Z" fill="#C96900"/>
<path d="M15.8827 8.11907C15.8763 8.07928 15.8524 8.03829 15.8225 8.01338C15.8906 7.87273 15.7536 7.77267 15.5693 7.68185C15.6475 7.61313 15.6861 7.52191 15.5955 7.39452C15.511 7.26834 15.3731 7.27437 15.2293 7.32942C15.2132 7.26834 15.1691 7.22293 15.0928 7.17591C15.0239 7.12287 14.9402 7.08992 14.8423 7.10197C14.6438 7.12287 14.5147 7.29607 14.5298 7.4548C14.4085 7.46123 14.3037 7.50061 14.2114 7.59384C14.0974 7.72003 14.1351 7.94627 14.3037 8.01941C14.3934 8.06643 14.4995 8.09335 14.5836 8.07205C14.5468 8.27218 14.5836 8.47712 14.8207 8.53057C14.9554 8.56513 15.1006 8.49159 15.1383 8.37746C15.1534 8.32522 15.1534 8.27217 15.1534 8.2135C15.1617 8.22516 15.1686 8.22516 15.1686 8.234C15.3455 8.32563 15.5018 8.32562 15.7008 8.31839C15.8225 8.31799 15.9195 8.21873 15.8827 8.11907Z" fill="#C99100"/>
<path d="M22.3951 10.796C22.2953 10.5103 21.9617 10.6429 21.703 10.8109C21.703 10.7639 21.703 10.7221 21.6878 10.6899C21.6359 10.569 21.4291 10.5103 21.3386 10.6578C21.2802 10.7691 21.2935 10.9158 21.3386 11.0423C21.0288 11.0749 20.6557 11.181 20.8519 11.5009C20.9434 11.654 21.1722 11.654 21.3772 11.6005C21.3988 11.8384 21.5343 12.0856 21.817 12.0526C22.1607 12.0124 22.0306 11.58 21.884 11.3015C22.1892 11.2489 22.492 11.095 22.3951 10.796Z" fill="#C99100"/>
<path d="M9.63241 14.2446C9.58646 14.2104 9.53269 14.1911 9.48811 14.1843C9.46376 14.1843 9.44216 14.1843 9.42699 14.1775C9.42699 14.1702 9.42699 14.1702 9.42699 14.1702C9.47479 14.0444 9.48811 13.9175 9.38288 13.8037C9.30567 13.7193 9.18297 13.6916 9.08417 13.7712C8.98629 13.8504 9.01708 13.952 8.97848 14.0629C8.93987 14.0581 8.88794 14.0449 8.85026 14.0449C8.74411 13.9568 8.53271 14.0099 8.53271 14.1642V14.1907C8.53271 14.2699 8.59016 14.3306 8.66644 14.3495C8.7294 14.3635 8.79741 14.3635 8.86589 14.3764C8.83556 14.4897 8.81304 14.6087 8.90449 14.7151C8.95642 14.7899 9.06349 14.8132 9.15402 14.7738C9.25282 14.7336 9.30659 14.6545 9.32176 14.5689C9.32176 14.5616 9.32176 14.5572 9.32176 14.5492C9.48857 14.6147 9.65585 14.6147 9.71559 14.4282C9.74546 14.3499 9.70088 14.29 9.63241 14.2446Z" fill="#C99100"/>
<path d="M18.4292 18.7082C18.3529 18.6021 18.2316 18.5889 18.1034 18.5945C18.1034 18.5692 18.0956 18.5431 18.073 18.5093C18.0427 18.4563 18.0427 18.4165 18.0427 18.3566C18.0427 18.1356 17.6613 18.1356 17.6613 18.3566C17.6613 18.41 17.6613 18.4635 17.6539 18.523C17.6245 18.5021 17.602 18.496 17.5712 18.4828C17.3594 18.3956 17.1765 18.668 17.3745 18.7609C17.3208 18.7801 17.2822 18.8143 17.2514 18.8754C17.222 18.9284 17.2063 18.9875 17.2514 19.0405C17.3125 19.1197 17.403 19.18 17.534 19.1466C17.5473 19.1466 17.5707 19.1402 17.5923 19.1257C17.6383 19.2531 17.7224 19.3673 17.858 19.3938C18.0105 19.4119 18.1631 19.3186 18.2091 19.1993C18.2394 19.1257 18.2394 19.0526 18.2316 18.973C18.2683 18.973 18.3069 18.9594 18.3589 18.9353C18.4361 18.8802 18.482 18.7874 18.4292 18.7082Z" fill="#C99100"/>
<path d="M15.5497 7.67286C15.4743 7.67286 15.3686 7.66723 15.2689 7.6813C15.2473 7.6813 15.2151 7.6813 15.1935 7.6813C15.1862 7.6813 15.1862 7.67286 15.171 7.67286C15.1862 7.54145 15.2004 7.42129 15.103 7.30194C15.035 7.2284 14.8902 7.18139 14.8061 7.26779C14.7064 7.38151 14.677 7.5081 14.6986 7.63428C14.5924 7.71948 14.5019 7.85812 14.4417 7.96581C14.336 8.1583 14.6618 8.31744 14.7675 8.12615C14.8061 8.06588 14.8521 8.01283 14.8907 7.94572C14.9201 7.97305 14.9578 7.97867 15.0047 7.99916C15.0952 8.11852 15.1646 8.25877 15.2478 8.37651C15.3383 8.50269 15.5341 8.47617 15.5979 8.33793C15.6273 8.25836 15.6273 8.1579 15.5658 8.07873C15.5506 8.05261 15.5345 8.03171 15.5138 8.01283C15.5221 8.01283 15.5345 8.01283 15.5506 8.01283C15.802 7.99916 15.7937 7.68773 15.5497 7.67286Z" fill="#D2B800"/>
<path d="M18.2388 18.6014C18.1929 18.5882 18.1483 18.5882 18.0945 18.5745C18.0945 18.5424 18.0945 18.5086 18.0945 18.4885C18.0945 18.2699 17.7384 18.2699 17.714 18.4885C17.7067 18.5295 17.7067 18.5745 17.714 18.6336C17.6754 18.6336 17.6469 18.6336 17.601 18.648C17.3657 18.6878 17.4645 19.0001 17.7067 18.9587C17.7067 18.9587 17.7747 19.0599 17.783 19.0736C17.8289 19.1058 17.8735 19.1339 17.9273 19.1459C18.01 19.1664 18.1024 19.1343 18.1479 19.0736C18.1713 19.0334 18.1782 18.9936 18.1846 18.9539C18.2214 18.9539 18.2467 18.9587 18.2834 18.9587C18.4208 18.9808 18.481 18.853 18.4649 18.7602C18.4507 18.6673 18.3376 18.6211 18.2388 18.6014Z" fill="#D2B800"/>
<g opacity="0.5">
<path d="M8.65396 3.00491C8.84238 1.68883 10.4462 1.60323 10.6365 2.26831C11.0234 1.11176 13.0886 2.1803 13.6667 3.25768C14.0463 1.768 14.9888 1.43606 15.1708 2.1803C15.3684 1.19174 16.9704 1.60283 17.3435 2.67217C17.8132 1.52407 18.6647 1.84756 18.6647 2.34707C19.6224 1.60283 21.0351 2.59261 21.1261 3.74794C21.9776 3.00451 23.3976 3.5876 22.644 4.32621C24.4371 4.00272 24.529 5.48878 24.529 5.48878C24.529 5.48878 24.8406 4.77227 25.8521 4.64569C25.9734 4.09394 25.8737 3.53496 25.4265 3.05836C24.9086 2.51304 24.3774 2.42624 23.8457 2.69227C23.8985 2.25384 23.74 1.75514 23.2749 1.58234C22.7069 1.35609 22.3485 1.75514 22.0989 2.1799C22.0144 1.98861 21.8834 1.80898 21.6872 1.75473C21.3163 1.67517 21.155 1.98862 21.0103 2.27996C20.9294 1.64985 20.7143 0.819618 19.9951 0.805152C19.2718 0.793096 18.8775 1.30345 18.6399 1.86163C18.543 1.41195 18.3752 0.958257 17.9203 0.831672C17.6473 0.758132 17.4345 1.01854 17.2976 1.31671C17.2222 1.15115 17.1009 1.0326 16.9106 1.02497C16.6138 1.02497 16.4019 1.17687 16.2268 1.38905C16.0968 0.73965 15.6409 0.0275574 14.981 0.00103485C14.4557 -0.0246839 14.2908 0.433434 14.237 0.878691C14.0619 0.666913 13.8331 0.513 13.5146 0.579709C13.0445 0.705891 13.0587 1.56305 13.0739 2.14092C12.4664 1.58837 11.4627 0.884717 10.8391 1.0326C10.7035 0.725582 10.3851 0.545955 9.77756 0.625121C8.62409 0.792695 8.11446 1.60846 8.09194 2.53152C7.71143 2.3539 7.20317 2.20642 6.90723 2.49295C7.50004 2.45839 8.14341 2.56608 8.65396 3.00491Z" fill="#5DA800"/>
<path d="M13.0883 23.3307C12.1458 24.4937 10.2635 23.6703 11.7763 22.009C11.0231 22.0946 8.84207 21.8499 9.22993 20.5278C8.93996 20.5278 7.24009 20.9389 7.89265 19.7836C7.33062 19.8635 5.62984 19.9495 5.53931 18.2171C3.92814 18.5426 2.51457 17.5525 3.27558 15.8124C1.19337 16.2231 1.00312 13.7529 2.78984 12.9287C2.22689 12.5911 1.75402 12.1853 2.89553 11.7661C1.66211 11.1107 2.22689 10.7764 3.6377 10.1997C3.24479 9.79221 3.04626 9.46269 2.94011 9.18139C2.54444 9.13718 2.1575 9.20992 1.80733 9.46268C1.39787 9.76126 1.64832 10.1776 1.99758 10.5312C1.25541 10.3849 0.403409 10.4107 0.0831045 11.0428C-0.252365 11.6729 0.775183 12.6707 1.49759 13.2076C1.01047 13.263 0.455798 13.3928 0.340911 13.7867C0.188341 14.211 0.67592 14.5036 1.08584 14.6297C1.05551 14.8632 1.12352 15.0485 1.26184 15.1879C1.01782 15.3338 0.873986 15.5938 0.811947 16.0041C0.760018 16.4895 1.04815 16.895 1.45807 17.1932C0.873526 17.3813 0.288523 17.6995 0.0973514 18.2091C-0.1747 18.9481 0.160309 19.5593 0.64651 20.1629C0.873526 20.443 1.28298 20.9582 1.7531 20.8473C2.02147 20.7806 2.13544 20.5475 2.18645 20.2742C2.42174 20.5222 2.75813 20.6813 3.1368 20.6885C3.24341 20.6885 3.34865 20.6668 3.45526 20.6399C3.5412 21.0599 3.75213 21.4714 3.96398 21.6715C4.30313 21.9897 4.86791 21.9222 5.31459 21.6767C5.18729 22.3751 5.4906 23.0245 6.41842 23.3512C7.23779 23.6357 7.98272 23.2644 8.45238 22.6998C8.49833 23.1515 8.71983 23.5622 9.2575 23.7639C9.63709 23.8901 10.1541 24.03 10.6058 24.0026C10.246 24.4788 10.019 25.0177 10.3986 25.4847C10.8769 26.0678 11.7744 25.8898 12.313 25.4638C12.3732 25.9484 12.5929 26.3619 13.0561 26.7268C13.4297 27.0113 14.1135 27.1259 14.5074 26.8124C14.6287 26.7268 14.722 26.6179 14.8038 26.5146C13.6816 25.7085 13.1637 24.3724 13.0883 23.3307Z" fill="#5DA800"/>
</g>
</svg>
