<svg width="44" height="40" viewBox="0 0 44 40" fill="none" xmlns="http://www.w3.org/2000/svg">
<path d="M42.0547 2.61414L2.89697 2.38181L2.63853 37.584L41.7963 37.8163L42.0547 2.61414Z" fill="#B59686"/>
<path d="M5.31481 0.23568L0.506836 0.207153L0.475103 4.52945L5.28308 4.55798L5.31481 0.23568Z" fill="#CADBE0"/>
<path d="M5.28213 4.7511C5.28164 4.7511 5.28115 4.7511 5.28065 4.7511L0.472678 4.72273C0.349624 4.72206 0.250729 4.63183 0.251469 4.52121L0.283047 0.198917C0.283786 0.0882932 0.39155 -0.00281543 0.507206 6.65469e-05L5.31517 0.0284408C5.43822 0.0291059 5.53712 0.119333 5.53638 0.229956L5.50481 4.55225C5.50383 4.66243 5.40444 4.7511 5.28213 4.7511ZM0.698312 4.32369L5.06093 4.34963L5.08977 0.42771L0.727166 0.401772L0.698312 4.32369Z" fill="#939598"/>
<path d="M5.28599 4.55813L0.478027 4.5296L0.446295 8.8519L5.25426 8.88042L5.28599 4.55813Z" fill="#CADBE0"/>
<path d="M5.25306 9.07354C5.25257 9.07354 5.25208 9.07354 5.25159 9.07354L0.443869 9.04517C0.321062 9.04451 0.221921 8.95428 0.22266 8.84365L0.254223 4.52136C0.254963 4.41118 0.354593 4.32251 0.476907 4.32251C0.4774 4.32251 0.477889 4.32251 0.478382 4.32251L5.28636 4.35088C5.34554 4.35133 5.40202 4.37261 5.44345 4.41051C5.48488 4.4482 5.50806 4.49942 5.50757 4.5524L5.47575 8.87469C5.47476 8.98465 5.37538 9.07354 5.25306 9.07354ZM0.669263 8.64591L5.03163 8.67184L5.06048 4.74992L0.69786 4.72398L0.669263 8.64591Z" fill="#939598"/>
<path d="M5.25671 8.87603L0.44873 8.8475L0.416998 13.1698L5.22497 13.1983L5.25671 8.87603Z" fill="#CADBE0"/>
<path d="M5.21768 13.3957C5.21719 13.3957 5.2167 13.3957 5.2162 13.3957L0.408229 13.3673C0.349044 13.3669 0.292567 13.3453 0.251138 13.3077C0.209709 13.27 0.186526 13.2188 0.187019 13.1658L0.218838 8.84371C0.219578 8.73308 0.329314 8.63732 0.442997 8.64486L5.25072 8.67323C5.37377 8.6739 5.47267 8.76412 5.47193 8.87475L5.44036 13.197C5.43987 13.2502 5.41619 13.301 5.37402 13.3382C5.33259 13.3751 5.27637 13.3957 5.21768 13.3957ZM0.633863 12.968L4.99647 12.994L5.02532 9.07205L0.662957 9.04612L0.633863 12.968Z" fill="#939598"/>
<path d="M5.21374 13.2071L0.405762 13.1786L0.374029 17.5009L5.182 17.5294L5.21374 13.2071Z" fill="#CADBE0"/>
<path d="M5.1874 17.7177C5.18691 17.7177 5.18641 17.7177 5.18591 17.7177L0.377952 17.6891C0.255144 17.6882 0.156003 17.5982 0.156742 17.4875L0.188561 13.1655C0.188807 13.1123 0.212729 13.0615 0.254651 13.0243C0.296573 12.987 0.357965 12.9675 0.412464 12.9666L5.22044 12.9952C5.34349 12.9959 5.44239 13.0861 5.44165 13.1967L5.41009 17.5188C5.4091 17.6285 5.30972 17.7177 5.1874 17.7177ZM0.603586 17.29L4.96619 17.3157L4.99505 13.3943L0.632439 13.3683L0.603586 17.29Z" fill="#939598"/>
<path d="M5.19567 17.5199L0.387695 17.4913L0.355963 21.8136L5.16394 21.8422L5.19567 17.5199Z" fill="#CADBE0"/>
<path d="M5.15663 22.0393C5.15613 22.0393 5.15564 22.0393 5.15515 22.0393L0.347175 22.0107C0.224121 22.01 0.125241 21.9198 0.125981 21.8094L0.157543 17.4871C0.15853 17.3772 0.257913 17.2885 0.380227 17.2885C0.380721 17.2885 0.381209 17.2885 0.381702 17.2885L5.18968 17.3169C5.31273 17.3177 5.41161 17.4077 5.41087 17.5184L5.37931 21.8404C5.37857 21.9506 5.27919 22.0393 5.15663 22.0393ZM0.573065 21.6119L4.93567 21.6376L4.96453 17.7159L0.601918 17.69L0.573065 21.6119Z" fill="#939598"/>
<path d="M5.16149 21.8432L0.353516 21.8146L0.321783 26.1369L5.12976 26.1654L5.16149 21.8432Z" fill="#CADBE0"/>
<path d="M5.12295 26.3621C5.12246 26.3621 5.12197 26.3621 5.12148 26.3621L0.313502 26.3335C0.254318 26.3333 0.19784 26.3118 0.156411 26.2739C0.114983 26.2362 0.0917997 26.1852 0.0922929 26.132L0.124111 21.8099C0.124851 21.6995 0.237547 21.6106 0.34827 21.6108L5.15625 21.6394C5.21543 21.6397 5.27191 21.6614 5.31334 21.6991C5.35501 21.7367 5.37793 21.7877 5.37744 21.8409L5.34564 26.1633C5.34465 26.2734 5.24527 26.3621 5.12295 26.3621ZM0.539136 25.9347L4.90176 25.9606L4.93061 22.0387L0.56799 22.0128L0.539136 25.9347Z" fill="#939598"/>
<path d="M5.11901 26.1733L0.311035 26.1447L0.279302 30.4671L5.08728 30.4956L5.11901 26.1733Z" fill="#CADBE0"/>
<path d="M5.0917 30.6846C5.09121 30.6846 5.0907 30.6846 5.09021 30.6846L0.282233 30.656C0.15918 30.6553 0.0602995 30.5651 0.0610393 30.4545L0.0926019 26.1324C0.0930951 26.0792 0.116764 26.0284 0.158933 25.9912C0.200855 25.9537 0.254124 25.9364 0.316761 25.9333L5.12474 25.9619C5.24779 25.9628 5.34667 26.0531 5.34593 26.1635L5.31437 30.4855C5.31412 30.5387 5.2902 30.5895 5.24828 30.6267C5.20636 30.6637 5.15014 30.6846 5.0917 30.6846ZM0.507883 30.257L4.87049 30.2829L4.89934 26.361L0.536736 26.335L0.507883 30.257Z" fill="#939598"/>
<path d="M5.10094 30.4874L0.292969 30.4589L0.261236 34.7811L5.06921 34.8097L5.10094 30.4874Z" fill="#CADBE0"/>
<path d="M5.0619 35.0063C5.06141 35.0063 5.06092 35.0063 5.06042 35.0063L0.252448 34.9779C0.129394 34.9771 0.0305143 34.887 0.0312541 34.7764L0.0628167 30.4541C0.0630633 30.4011 0.0869791 30.3502 0.129148 30.3129C0.17107 30.2757 0.226559 30.2588 0.286976 30.2553L5.09495 30.2839C5.21801 30.2845 5.31689 30.3748 5.31615 30.4852L5.28458 34.8072C5.2836 34.9176 5.18421 35.0063 5.0619 35.0063ZM0.478097 34.5787L4.8407 34.6046L4.86956 30.6829L0.506951 30.657L0.478097 34.5787Z" fill="#939598"/>
<path d="M43.7484 4.56692L38.9404 4.53839L38.9087 8.86069L43.7167 8.88921L43.7484 4.56692Z" fill="#CADBE0"/>
<path d="M43.7157 9.08169C43.7152 9.08169 43.7147 9.08169 43.7142 9.08169L38.9063 9.05332C38.7832 9.05265 38.6843 8.96243 38.6851 8.8518L38.7166 4.52951C38.7171 4.4763 38.7408 4.42554 38.783 4.3883C38.8249 4.35106 38.8863 4.33509 38.9408 4.33066L43.7488 4.35925C43.8716 4.35991 43.9707 4.45015 43.97 4.56078L43.9384 8.88284C43.9377 8.99302 43.838 9.08169 43.7157 9.08169ZM39.1319 8.65428L43.4945 8.68022L43.5234 4.75852L39.1608 4.73258L39.1319 8.65428Z" fill="#939598"/>
<path d="M43.7191 8.88934L38.9111 8.86081L38.8794 13.1831L43.6874 13.2116L43.7191 8.88934Z" fill="#CADBE0"/>
<path d="M43.6859 13.404C43.6854 13.404 43.685 13.404 43.6845 13.404L38.8765 13.3754C38.7534 13.3747 38.6545 13.2845 38.6553 13.1741L38.6868 8.85177C38.6876 8.74159 38.7872 8.65292 38.9095 8.65292C38.91 8.65292 38.9105 8.65292 38.911 8.65292L43.719 8.6813C43.842 8.68196 43.9409 8.77219 43.9402 8.88281L43.9086 13.2051C43.9076 13.3151 43.8083 13.404 43.6859 13.404ZM39.1021 12.9765L43.4647 13.0025L43.4936 9.08057L39.131 9.05463L39.1021 12.9765Z" fill="#939598"/>
<path d="M43.6932 13.2062L38.8853 13.1777L38.8535 17.5L43.6615 17.5285L43.6932 13.2062Z" fill="#CADBE0"/>
<path d="M43.6537 17.7259C43.6532 17.7259 43.6527 17.7259 43.6522 17.7259L38.8442 17.6973C38.7851 17.6971 38.7286 17.6756 38.6872 17.6379C38.6457 17.6 38.6226 17.549 38.6231 17.4958L38.6549 13.1737C38.6556 13.0636 38.7552 12.9749 38.8775 12.9749C38.878 12.9749 38.8785 12.9749 38.879 12.9749L43.687 13.0033C43.7462 13.0035 43.8027 13.025 43.8441 13.0627C43.8855 13.1004 43.9087 13.1516 43.9082 13.2046L43.8764 17.5269C43.8754 17.6373 43.776 17.7259 43.6537 17.7259ZM39.0699 17.2983L43.4325 17.3244L43.4614 13.4025L39.0987 13.3766L39.0699 17.2983Z" fill="#939598"/>
<path d="M43.6468 17.5389L38.8389 17.5104L38.8071 21.8327L43.6151 21.8612L43.6468 17.5389Z" fill="#CADBE0"/>
<path d="M43.6205 22.0484C43.62 22.0484 43.6195 22.0484 43.619 22.0484L38.811 22.0197C38.6882 22.0191 38.5891 21.9289 38.5898 21.8182L38.6214 17.4962C38.6217 17.443 38.6456 17.3922 38.6875 17.3549C38.7294 17.3175 38.7827 17.2904 38.8453 17.2973L43.6533 17.3259C43.7763 17.3266 43.8752 17.4166 43.8745 17.5272L43.8429 21.8493C43.8424 21.9025 43.8188 21.9533 43.7766 21.9905C43.7352 22.0275 43.6789 22.0484 43.6205 22.0484ZM39.0367 21.6207L43.3993 21.6466L43.4282 17.7247L39.0655 17.6988L39.0367 21.6207Z" fill="#939598"/>
<path d="M43.6288 21.8498L38.8208 21.8213L38.7891 26.1436L43.597 26.1721L43.6288 21.8498Z" fill="#CADBE0"/>
<path d="M43.5883 26.3705C43.5878 26.3705 43.5873 26.3705 43.5868 26.3705L38.7788 26.3421C38.6558 26.3412 38.5569 26.251 38.5576 26.1406L38.5892 21.8183C38.5894 21.7653 38.6133 21.7143 38.6555 21.6771C38.6974 21.6398 38.7527 21.6134 38.8133 21.6194L43.6213 21.648C43.7444 21.6489 43.8433 21.7389 43.8425 21.8493L43.811 26.1714C43.8102 26.2818 43.7106 26.3705 43.5883 26.3705ZM39.0045 25.9428L43.3671 25.9688L43.3959 22.0468L39.0333 22.0209L39.0045 25.9428Z" fill="#939598"/>
<path d="M43.5951 26.1728L38.7871 26.1443L38.7554 30.4664L43.5634 30.4949L43.5951 26.1728Z" fill="#CADBE0"/>
<path d="M43.5551 30.6925C43.5546 30.6925 43.5541 30.6925 43.5536 30.6925L38.7456 30.6639C38.6864 30.6635 38.63 30.642 38.5885 30.6043C38.5469 30.5666 38.5239 30.5154 38.5244 30.4624L38.5562 26.1401C38.557 26.0295 38.6487 25.9437 38.7804 25.9413L43.5884 25.9698C43.6476 25.9703 43.704 25.9916 43.7455 26.0295C43.7871 26.0674 43.8101 26.1184 43.8096 26.1714L43.7778 30.4936C43.777 30.6038 43.6774 30.6925 43.5551 30.6925ZM38.9713 30.2649L43.3339 30.2906L43.3627 26.3689L39.0001 26.3429L38.9713 30.2649Z" fill="#939598"/>
<path d="M43.5492 30.5055L38.7412 30.4769L38.7095 34.7992L43.5175 34.8277L43.5492 30.5055Z" fill="#CADBE0"/>
<path d="M43.5229 35.0146C43.5224 35.0146 43.5219 35.0146 43.5214 35.0146L38.7134 34.986C38.5903 34.9851 38.4915 34.8951 38.4922 34.7847L38.5238 30.4626C38.5245 30.3524 38.6241 30.2638 38.7464 30.2638C38.7469 30.2638 38.7474 30.2638 38.7479 30.2638L43.5559 30.2922C43.6787 30.293 43.7778 30.383 43.7771 30.4937L43.7455 34.816C43.7453 34.8689 43.7214 34.9197 43.6792 34.957C43.6375 34.994 43.5813 35.0146 43.5229 35.0146ZM38.939 34.5872L43.3016 34.6131L43.3305 30.6912L38.9679 30.6655L38.939 34.5872Z" fill="#939598"/>
<path d="M43.5331 34.8173L38.7251 34.7888L38.6934 39.111L43.5013 39.1396L43.5331 34.8173Z" fill="#CADBE0"/>
<path d="M43.4928 39.3369C43.4923 39.3369 43.4918 39.3369 43.4913 39.3369L38.6836 39.3083C38.5606 39.3076 38.4617 39.2174 38.4624 39.107L38.494 34.7849C38.4942 34.7317 38.5181 34.6807 38.5603 34.6435C38.6022 34.6062 38.6641 34.5818 38.7181 34.5858L43.5261 34.6144C43.6489 34.6151 43.7481 34.7053 43.7473 34.8159L43.7158 39.138C43.7155 39.191 43.6916 39.242 43.6497 39.2792C43.6077 39.3165 43.5515 39.3369 43.4928 39.3369ZM38.909 38.9094L43.2716 38.9354L43.3005 35.0137L38.9379 34.9877L38.909 38.9094Z" fill="#939598"/>
<path d="M5.32226 0.227493L5.29053 4.54977L10.0985 4.5783L10.1302 0.25602L5.32226 0.227493Z" fill="#CADBE0"/>
<path d="M10.0902 4.77971C10.0897 4.77971 10.0892 4.77971 10.0887 4.77971L5.28077 4.75133C5.15796 4.75067 5.05883 4.66044 5.05957 4.54982L5.09114 0.227521C5.09138 0.174316 5.11531 0.123543 5.15723 0.0862993C5.19915 0.0488337 5.25464 0.025554 5.31506 0.0286577L10.123 0.057262C10.2461 0.0579271 10.345 0.148154 10.3442 0.258778L10.3127 4.58084C10.3122 4.6908 10.2125 4.77971 10.0902 4.77971ZM5.50642 4.35206L9.86903 4.378L9.89788 0.456302L5.53527 0.430363L5.50642 4.35206Z" fill="#939598"/>
<path d="M10.126 0.251466L10.0942 4.57376L14.9022 4.60229L14.9339 0.279993L10.126 0.251466Z" fill="#CADBE0"/>
<path d="M14.8991 4.80815C14.8986 4.80815 14.8981 4.80815 14.8976 4.80815L10.0899 4.77956C9.96704 4.77889 9.86792 4.68865 9.86866 4.57803L9.90022 0.255963C9.90096 0.145561 10.0035 0.0524577 10.1244 0.0571132L14.9324 0.0854875C14.9915 0.0857092 15.048 0.107214 15.0894 0.144902C15.1309 0.182589 15.154 0.233789 15.1535 0.286773L15.1217 4.60907C15.1213 4.66227 15.0976 4.71305 15.0554 4.75029C15.014 4.78753 14.9578 4.80815 14.8991 4.80815ZM10.3155 4.38073L14.6779 4.40667L14.7067 0.484744L10.3441 0.458805L10.3155 4.38073Z" fill="#939598"/>
<path d="M14.9375 0.285066L14.9058 4.60736L19.7137 4.63589L19.7455 0.313593L14.9375 0.285066Z" fill="#CADBE0"/>
<path d="M19.7055 4.83686C19.705 4.83686 19.7045 4.83686 19.704 4.83686L14.896 4.80848C14.8368 4.80803 14.7804 4.78675 14.7389 4.74884C14.6973 4.71116 14.6743 4.65994 14.6748 4.60696L14.7066 0.284679C14.7074 0.174499 14.807 0.0858154 14.9293 0.0858154C14.9298 0.0858154 14.9303 0.0858154 14.9308 0.0858154L19.7385 0.11419C19.8616 0.114855 19.9605 0.205082 19.9597 0.315705L19.9282 4.638C19.9272 4.74796 19.8278 4.83686 19.7055 4.83686ZM15.1217 4.40944L19.4843 4.43537L19.5131 0.513459L15.1507 0.487521L15.1217 4.40944Z" fill="#939598"/>
<path d="M19.7427 0.311494L19.7109 4.63379L24.5189 4.66232L24.5506 0.340021L19.7427 0.311494Z" fill="#CADBE0"/>
<path d="M24.5126 4.86479C24.5121 4.86479 24.5116 4.86479 24.5111 4.86479L19.7031 4.83641C19.5801 4.83575 19.4812 4.74552 19.4819 4.6349L19.5135 0.312603C19.514 0.259397 19.5377 0.208625 19.5798 0.171381C19.6218 0.134137 19.6795 0.117951 19.7377 0.113739L24.5456 0.142343C24.6687 0.143008 24.7676 0.233236 24.7668 0.343859L24.7353 4.66592C24.7345 4.7761 24.6351 4.86479 24.5126 4.86479ZM19.929 4.43736L24.2916 4.4633L24.3205 0.541599L19.9579 0.515661L19.929 4.43736Z" fill="#939598"/>
<path d="M24.5547 0.341859L24.5229 4.66415L29.3309 4.69268L29.3627 0.370386L24.5547 0.341859Z" fill="#CADBE0"/>
<path d="M29.3227 4.89404C29.3222 4.89404 29.3217 4.89404 29.3212 4.89404L24.5132 4.86545C24.3902 4.86478 24.2913 4.77455 24.292 4.66393L24.3236 0.341853C24.3243 0.23123 24.4345 0.135687 24.5477 0.143003L29.3557 0.171377C29.4785 0.172042 29.5776 0.262269 29.5769 0.372893L29.5453 4.69519C29.5451 4.74839 29.5212 4.79915 29.4792 4.8364C29.4373 4.87342 29.3811 4.89404 29.3227 4.89404ZM24.7388 4.46641L29.1015 4.49235L29.1303 0.570417L24.7677 0.544478L24.7388 4.46641Z" fill="#939598"/>
<path d="M29.3545 0.364472L29.3228 4.68677L34.1307 4.71529L34.1625 0.393L29.3545 0.364472Z" fill="#CADBE0"/>
<path d="M34.1281 4.92207C34.1276 4.92207 34.1271 4.92207 34.1266 4.92207L29.3189 4.89369C29.1958 4.89303 29.0969 4.8028 29.0977 4.69218L29.1292 0.369884C29.13 0.25926 29.2222 0.162817 29.3534 0.17102L34.1614 0.199394C34.2205 0.199838 34.277 0.221129 34.3184 0.259038C34.3599 0.296726 34.3831 0.347939 34.3826 0.400923L34.3507 4.7232C34.35 4.83316 34.2504 4.92207 34.1281 4.92207ZM29.5445 4.49442L33.9069 4.52036L33.9357 0.598447L29.5731 0.572509L29.5445 4.49442Z" fill="#939598"/>
<path d="M34.1709 0.398561L34.1392 4.72086L38.9471 4.74938L38.9789 0.427088L34.1709 0.398561Z" fill="#CADBE0"/>
<path d="M38.9393 4.9507C38.9389 4.9507 38.9384 4.9507 38.9379 4.9507L34.1299 4.92233C34.0707 4.92211 34.0142 4.90061 33.9728 4.8627C33.9314 4.82501 33.9082 4.7738 33.9087 4.72081L33.9405 0.398517C33.9407 0.345311 33.9647 0.294539 34.0066 0.257295C34.0485 0.220051 34.1084 0.19788 34.1644 0.199653L38.9721 0.228258C39.0952 0.228923 39.1941 0.31915 39.1933 0.429773L39.1618 4.75185C39.161 4.86203 39.0617 4.9507 38.9393 4.9507ZM34.3555 4.52329L38.7181 4.54923L38.747 0.627527L34.3846 0.601589L34.3555 4.52329Z" fill="#939598"/>
<path d="M38.9775 0.426545L38.9458 4.74884L43.7538 4.77737L43.7855 0.455072L38.9775 0.426545Z" fill="#CADBE0"/>
<path d="M43.746 4.97911C43.7455 4.97911 43.745 4.97911 43.7445 4.97911L38.9365 4.9505C38.8137 4.94984 38.7146 4.85961 38.7153 4.74899L38.7469 0.426908C38.7476 0.316728 38.8473 0.228058 38.9696 0.228058C38.9701 0.228058 38.9706 0.228058 38.9711 0.228058L43.779 0.256432C43.9021 0.257097 44.001 0.347324 44.0002 0.457948L43.9687 4.78024C43.9684 4.83345 43.9445 4.88422 43.9026 4.92146C43.8609 4.95849 43.8047 4.97911 43.746 4.97911ZM39.1622 4.55146L43.5248 4.5774L43.5536 0.655472L39.191 0.629533L39.1622 4.55146Z" fill="#939598"/>
<path d="M5.05602 34.5986L0.248047 34.5701L0.216314 38.8924L5.02429 38.9209L5.05602 34.5986Z" fill="#CADBE0"/>
<path d="M5.03066 39.1089C5.03017 39.1089 5.02967 39.1089 5.02917 39.1089L0.221198 39.0803C0.0981444 39.0796 -0.000735678 38.9896 4.12433e-06 38.879L0.0315667 34.5567C0.0323065 34.4467 0.131937 34.3581 0.254251 34.3581C0.254744 34.3581 0.255233 34.3581 0.255726 34.3581L5.0637 34.3867C5.18651 34.3873 5.28564 34.4773 5.2849 34.588L5.25333 38.91C5.25235 39.0202 5.15298 39.1089 5.03066 39.1089ZM0.446847 38.6812L4.80945 38.7072L4.83831 34.7853L0.475701 34.7596L0.446847 38.6812Z" fill="#939598"/>
<path d="M5.06982 34.5867L5.03809 38.909L9.84605 38.9375L9.87778 34.6152L5.06982 34.5867Z" fill="#CADBE0"/>
<path d="M9.83754 39.1378C9.83704 39.1378 9.83656 39.1378 9.83606 39.1378L5.02833 39.1094C4.90527 39.1086 4.80639 39.0185 4.80713 38.9079L4.8387 34.5858C4.83894 34.5326 4.86286 34.4819 4.90503 34.4446C4.94695 34.4074 5.00367 34.3837 5.06285 34.387L9.87083 34.4156C9.93001 34.4158 9.98648 34.4373 10.0279 34.475C10.0693 34.5129 10.0925 34.5639 10.092 34.6171L10.0602 38.9392C10.0592 39.0491 9.95985 39.1378 9.83754 39.1378ZM5.25372 38.7104L9.61609 38.7361L9.64494 34.8144L5.28233 34.7887L5.25372 38.7104Z" fill="#939598"/>
<path d="M9.87158 34.6091L9.83984 38.9314L14.6478 38.9599L14.6795 34.6376L9.87158 34.6091Z" fill="#CADBE0"/>
<path d="M14.6442 39.1665C14.6437 39.1665 14.6432 39.1665 14.6427 39.1665L9.83499 39.1379C9.7758 39.1377 9.71932 39.1162 9.6779 39.0785C9.63647 39.0406 9.61328 38.9896 9.61378 38.9364L9.6456 34.6143C9.64634 34.5037 9.75533 34.4188 9.86975 34.4156L14.6775 34.444C14.8003 34.4447 14.8994 34.5349 14.8987 34.6455L14.8671 38.9676C14.8669 39.0206 14.843 39.0716 14.801 39.1088C14.7591 39.1459 14.7029 39.1665 14.6442 39.1665ZM10.0606 38.7389L14.4232 38.7648L14.4521 34.8431L10.0897 34.8171L10.0606 38.7389Z" fill="#939598"/>
<path d="M14.687 34.6432L14.6553 38.9655L19.4632 38.994L19.495 34.6717L14.687 34.6432Z" fill="#CADBE0"/>
<path d="M19.454 39.1945C19.4535 39.1945 19.453 39.1945 19.4525 39.1945L14.6445 39.1659C14.5217 39.1652 14.4226 39.075 14.4233 38.9646L14.4549 34.6425C14.4556 34.5319 14.5466 34.4459 14.6791 34.4436L19.487 34.472C19.6101 34.4729 19.709 34.5629 19.7082 34.6735L19.6767 38.9958C19.6757 39.1056 19.5763 39.1945 19.454 39.1945ZM14.8702 38.767L19.2328 38.7928L19.2616 34.871L14.899 34.8451L14.8702 38.767Z" fill="#939598"/>
<path d="M19.4922 34.6711L19.4604 38.9934L24.2684 39.0219L24.3002 34.6996L19.4922 34.6711Z" fill="#CADBE0"/>
<path d="M24.2601 39.2229C24.2596 39.2229 24.2592 39.2229 24.2587 39.2229L19.4507 39.1943C19.3279 39.1934 19.2288 39.1034 19.2295 38.993L19.2611 34.6707C19.2618 34.5601 19.3656 34.4734 19.4852 34.4716L24.2932 34.5002C24.4162 34.5011 24.5151 34.5911 24.5144 34.7015L24.4828 39.0238C24.4818 39.134 24.3825 39.2229 24.2601 39.2229ZM19.6763 38.7952L24.0389 38.8209L24.0678 34.8992L19.7052 34.8735L19.6763 38.7952Z" fill="#939598"/>
<path d="M24.2983 34.6939L24.2666 39.0162L29.0746 39.0447L29.1063 34.7224L24.2983 34.6939Z" fill="#CADBE0"/>
<path d="M29.071 39.2517C29.0705 39.2517 29.07 39.2517 29.0695 39.2517L24.2617 39.2231C24.1387 39.2222 24.0398 39.132 24.0405 39.0216L24.0721 34.6993C24.0724 34.6463 24.0963 34.5953 24.1384 34.5581C24.1804 34.5209 24.24 34.5022 24.2963 34.5005L29.1042 34.5291C29.2273 34.5299 29.3262 34.6199 29.3254 34.7303L29.2936 39.0527C29.2934 39.1056 29.2695 39.1566 29.2273 39.1939C29.1856 39.2309 29.1294 39.2517 29.071 39.2517ZM24.4871 38.8239L28.8495 38.8498L28.8784 34.9281L24.5157 34.9022L24.4871 38.8239Z" fill="#939598"/>
<path d="M29.1103 34.7274L29.0786 39.0497L33.8866 39.0782L33.9183 34.7559L29.1103 34.7274Z" fill="#CADBE0"/>
<path d="M33.8783 39.2804C33.8778 39.2804 33.8773 39.2804 33.8768 39.2804L29.0689 39.252C29.0097 39.2516 28.9532 39.2301 28.9118 39.1922C28.8701 39.1545 28.8472 39.1035 28.8477 39.0503L28.8795 34.728C28.8802 34.6176 28.9789 34.5292 29.1036 34.5294L33.9114 34.558C34.0344 34.5587 34.1333 34.6487 34.1326 34.7593L34.101 39.0813C34.1003 39.1915 34.0006 39.2804 33.8783 39.2804ZM29.2945 38.853L33.6571 38.8787L33.686 34.9568L29.3234 34.9311L29.2945 38.853Z" fill="#939598"/>
<path d="M33.9204 34.7564L33.8887 39.0787L38.6967 39.1072L38.7284 34.7849L33.9204 34.7564Z" fill="#CADBE0"/>
<path d="M38.6864 39.308C38.6859 39.308 38.6854 39.308 38.685 39.308L33.877 39.2796C33.7539 39.279 33.655 39.1887 33.6558 39.0781L33.6873 34.7561C33.6881 34.6454 33.7998 34.5561 33.9115 34.5574L38.7195 34.5858C38.8423 34.5864 38.9414 34.6767 38.9407 34.7873L38.9091 39.1094C38.9081 39.2193 38.8087 39.308 38.6864 39.308ZM34.1026 38.8808L38.4652 38.9065L38.4941 34.9848L34.1315 34.9589L34.1026 38.8808Z" fill="#939598"/>
<path d="M38.7202 34.7787L38.6885 39.101L43.4964 39.1295L43.5282 34.8072L38.7202 34.7787Z" fill="#CADBE0"/>
<path d="M43.4928 39.3369C43.4923 39.3369 43.4918 39.3369 43.4913 39.3369L38.6836 39.3083C38.5606 39.3076 38.4617 39.2174 38.4624 39.107L38.494 34.7849C38.4942 34.7317 38.5181 34.6807 38.5603 34.6435C38.6022 34.6062 38.6641 34.5818 38.7181 34.5858L43.5261 34.6144C43.6489 34.6151 43.7481 34.7053 43.7473 34.8159L43.7158 39.138C43.7155 39.191 43.6916 39.242 43.6497 39.2792C43.6077 39.3165 43.5515 39.3369 43.4928 39.3369ZM38.909 38.9094L43.2716 38.9354L43.3005 35.0137L38.9379 34.9877L38.909 38.9094Z" fill="#939598"/>
<path d="M9.48215 3.20154C11.5852 6.84458 13.5094 10.571 15.2472 14.3663C14.845 10.6548 15.1759 6.87983 16.2203 3.27071C16.3522 6.24047 16.7618 9.20049 17.4432 12.1086C17.8338 9.14351 18.7136 6.23094 20.0455 3.49573C19.7716 6.16156 19.8327 8.85531 20.2278 11.5089C20.7254 9.33372 21.7015 7.24783 23.0829 5.40692C22.789 8.36049 22.4948 11.3141 22.2006 14.2676C23.7951 8.63627 29.1942 4.02535 35.5321 2.88254C31.6212 5.80752 28.5079 9.588 26.5375 13.8048C30.1135 9.46518 35.6351 6.46106 41.5703 5.62595C40.4034 5.79289 39.4323 6.49785 38.5394 7.19374C36.1165 9.08232 33.8167 11.0984 31.6552 13.2282C34.6724 11.716 38.1043 10.1529 41.428 10.9986C39.145 11.5469 36.9976 12.5473 35.1831 13.9083C37.1352 14.0349 39.0876 14.1617 41.0399 14.2883C38.6673 14.8981 36.4013 15.841 34.3491 17.0723C37.9088 17.1849 40.6429 19.8276 42.9436 22.2718C39.0007 21.1697 34.7484 21.9925 30.7233 22.8207C33.65 24.9837 36.5767 27.147 39.5033 29.31C36.824 28.2756 33.9264 27.7994 31.0575 27.3305C34.0894 29.2513 37.3571 30.8711 40.7822 32.1509C37.0898 31.7991 33.4463 31.0354 29.9616 29.8824C30.5936 32.3824 31.2254 34.8826 31.8572 37.3826C29.3564 35.4173 27.6396 32.6622 27.0813 29.7188C26.8332 32.0933 26.7484 34.4816 26.828 36.8656C24.6234 33.9939 23.494 30.4672 23.6632 26.9811C22.2127 31.1132 17.9383 34.0719 16.5228 38.2137C16.3315 34.7848 17.3519 31.3094 19.4012 28.4124C15.7369 30.9221 12.7686 34.1455 9.83503 37.3385C11.3874 32.9348 14.0285 28.8442 17.5124 25.4479C12.1272 26.5684 7.78382 30.0307 3.69197 33.3713C5.3548 29.0936 9.79287 26.2218 14.226 24.065C11.0791 23.8761 7.91501 23.9225 4.77677 24.2034C7.38161 23.047 10.2099 22.3669 13.0169 21.6941C9.28511 20.2617 5.34888 19.2608 1.33545 18.7239C5.19993 17.1066 9.58449 16.5094 13.8085 17.0244C10.1001 14.9959 6.16858 13.2975 2.08981 11.9623C3.71195 11.7479 5.34222 11.6579 6.98088 11.6504C7.93177 11.6459 9.25059 11.8109 9.89471 11.0088C10.5785 10.1573 10.0187 8.49861 9.92233 7.54623C9.80618 6.40275 10.0619 4.2058 9.48215 3.20154Z" fill="#2B7D53"/>
<path d="M4.90184 22.8729C8.1079 22.4085 11.3559 22.1761 14.6034 22.1794C11.0346 24.0811 7.72271 26.3721 4.76375 28.9865C3.86439 29.781 2.95123 30.6904 2.80697 31.8166C6.44729 28.7031 10.7376 26.2063 15.3873 24.4946C12.075 28.2035 8.70615 32.0015 6.90227 36.4729C10.3426 32.7137 14.3171 29.35 18.6982 26.4895C16.5919 31.0546 12.56 35.0672 12.2232 40C14.6985 35.1481 17.8494 30.5753 21.579 26.4219C21.8719 30.7977 20.0308 35.2896 21.3856 39.5006C22.4625 35.7606 23.5394 32.0207 24.6166 28.2806C26.6123 30.9145 28.4029 33.6739 29.9705 36.5321C28.7496 33.7014 27.6515 30.8283 26.6796 27.9206C29.4482 30.8045 32.7492 33.2744 36.4063 35.1989C33.8163 32.3202 31.3293 29.3664 28.9508 26.3439C33.0422 28.6652 37.7488 30.1033 42.5664 30.5041C37.8553 26.5476 31.9488 23.9738 26.1403 21.4592C28.4899 22.1025 31.0279 21.6396 33.3882 21.0278C35.4808 20.4853 37.5365 19.8278 39.5401 19.0601C35.0685 18.9938 30.5969 18.9275 26.1255 18.8612C29.9851 15.9376 33.5386 12.6873 36.7234 9.16757C32.7293 11.5629 28.8071 14.055 24.9626 16.6405C28.0734 11.1353 32.5468 6.257 37.9646 2.46144C32.8775 5.44162 27.7183 8.57589 24.1705 13.0057C23.8832 9.61451 24.1712 6.18429 25.0217 2.87047C22.9042 7.64789 21.2049 12.5754 19.9452 17.592C18.5995 13.8441 19.4227 9.77923 20.2564 5.91273C18.9398 8.84148 18.1522 11.962 17.9339 15.1149C17.1756 10.0386 12.4505 5.88878 12.1144 0.77594C12.3995 5.07052 13.195 9.33739 14.4833 13.4806C12.7312 12.8312 11.4257 11.5022 9.92954 10.4563C7.63393 8.85167 4.79259 7.88687 1.8901 7.72681C5.13167 10.6507 9.80377 12.2007 12.5053 15.5387C8.80011 15.235 5.02514 15.6367 1.50146 16.7101C2.03782 16.5468 4.25451 17.5304 4.89049 17.6796C6.04606 17.9512 7.21298 18.1802 8.36978 18.4469C10.5221 18.943 13.1733 19.5243 14.8332 20.9253C11.3088 21.2348 8.15968 21.3925 4.90184 22.8729Z" fill="#369E66"/>
<path d="M8.34563 16.0726C11.0156 16.7053 13.6286 17.5313 16.1513 18.5403C12.6483 18.9122 9.1959 19.6662 5.89392 20.7809C4.8905 21.1196 3.83184 21.5433 3.28809 22.3739C7.31088 21.0826 11.6027 20.4716 15.8729 20.5822C11.8765 22.4384 7.80187 24.3461 4.68533 27.262C8.8006 25.4066 13.1792 24.0244 17.6812 23.1589C14.2939 26.054 9.62153 27.9228 7.46797 31.6521C11.2523 28.6486 15.4546 26.0713 19.946 23.9991C18.4957 27.4905 15.3422 30.4111 14.7804 34.1036C17.0516 31.5306 19.3228 28.9579 21.5938 26.3852C22.1348 29.0504 22.4682 31.7499 22.5908 34.4569C22.7271 31.8787 22.9755 29.3055 23.3352 26.7445C24.3811 29.8438 25.999 32.7865 28.1035 35.4155C27.1943 32.3755 26.3943 29.3093 25.7048 26.2229C27.9943 29.2949 31.1007 31.8714 34.691 33.6757C32.5468 29.1408 28.9437 25.3102 25.3936 21.5557C26.9731 22.7838 29.1227 23.2106 31.192 23.4664C33.0262 23.6932 34.8759 23.8196 36.7276 23.8437C33.2779 22.4065 29.8282 20.9691 26.3785 19.5318C30.499 18.4558 34.507 17.0312 38.332 15.2825C34.3095 15.9066 30.3057 16.6277 26.326 17.4455C30.8546 14.1313 36.2021 11.7264 41.868 10.4556C36.7715 11.195 31.5604 12.0319 27.1045 14.3751C28.1814 11.6506 29.7207 9.07407 31.6526 6.76228C28.1748 9.81895 24.9648 13.1217 22.0623 16.6302C22.4536 13.3004 24.6521 10.3965 26.783 7.64994C24.6366 9.5179 22.828 11.6991 21.4492 14.0816C22.8065 9.90164 20.7255 5.21223 22.425 1.13446C20.9999 4.56046 19.982 8.12302 19.3943 11.7423C18.2817 10.6946 17.7766 9.25741 17.0151 7.9807C15.8465 6.02229 14.0083 4.39198 11.8141 3.36799C13.2118 6.64502 16.2487 9.29753 17.0681 12.7291C14.3052 11.3446 11.2173 10.4871 8.06721 10.2293C8.5466 10.2685 9.8923 11.7202 10.329 12.0332C11.1231 12.602 11.9423 13.1419 12.7388 13.7076C14.2211 14.7604 16.0588 16.0338 16.8114 17.6371C13.9528 16.7851 11.4449 15.9316 8.34563 16.0726Z" fill="#40B572"/>
<path d="M17.0498 11.1542C18.706 10.467 20.4719 9.99387 22.2763 9.754C22.0452 10.854 21.6235 11.9142 21.3451 13.0053C21.1177 13.8967 21.0709 14.7669 21.0953 15.6727C20.5429 15.3353 17.488 10.9724 17.0498 11.1542Z" fill="#F4E2B5"/>
<path d="M13.1884 28.2016C12.3224 26.7584 11.6871 25.2036 11.3081 23.5993C12.5438 23.7381 13.747 24.0504 14.9756 24.2322C15.9792 24.3807 16.9481 24.3686 17.9523 24.2903C17.6124 24.8068 12.9593 27.8196 13.1884 28.2016Z" fill="#F4E2B5"/>
<path d="M33.3451 28.9456C32.3055 30.293 31.0503 31.5057 29.6306 32.535C29.2091 31.4817 28.9746 30.3757 28.5993 29.3083C28.2925 28.4364 27.842 27.6651 27.3101 26.8954C27.9764 26.9347 33.0702 29.3023 33.3451 28.9456Z" fill="#F4E2B5"/>
<path d="M38.4074 21.4136C38.2426 23.0468 37.8165 24.6585 37.1465 26.1837C36.2017 25.4543 35.3907 24.5964 34.4783 23.8344C33.733 23.2122 32.9178 22.7411 32.0327 22.3079C32.6337 22.0459 38.3637 21.8457 38.4074 21.4136Z" fill="#F4E2B5"/>
<path d="M34.3516 8.0065C35.6263 9.17968 36.713 10.5171 37.5683 11.9655C36.338 12.1379 35.0855 12.1353 33.8485 12.2645C32.8382 12.3703 31.9105 12.6216 30.9692 12.9453C31.1379 12.3647 34.689 8.31709 34.3516 8.0065Z" fill="#F4E2B5"/>
<path d="M13.142 17.9567C13.0833 18.391 13.1104 18.8579 13.3758 19.225C13.8261 19.848 14.7693 19.969 15.5947 20.0058C16.0363 20.0255 16.4931 20.0362 16.9044 19.8905C17.4869 19.6846 17.9006 19.1745 18.0247 18.6229C18.1487 18.0713 18.0069 17.489 17.715 16.9913C17.4074 16.4672 16.9076 16.0081 16.2736 15.846C14.752 15.4567 13.3134 16.6913 13.142 17.9567Z" fill="#F4E2B5"/>
<path d="M31.0597 20.7955C30.9472 20.189 30.1342 19.9074 29.4503 19.9292C28.7751 19.9507 27.3878 20.2867 27.3878 20.2867C26.758 20.5738 26.1999 20.9868 25.7656 21.4874C25.2157 22.1215 24.8801 23.0461 25.376 23.7152C25.6968 24.1479 26.3032 24.3601 26.8815 24.3508C27.4598 24.3415 28.0141 24.1393 28.5197 23.8868C29.6262 23.335 30.6017 22.4824 30.9805 21.397C31.0483 21.2026 31.0966 20.9964 31.0597 20.7955Z" fill="#F4E2B5"/>
</svg>
