<svg width="33" height="27" viewBox="0 0 33 27" fill="none" xmlns="http://www.w3.org/2000/svg">
<path d="M2.16088 10.9772C1.73518e-06 12.0224 0 12.0224 0 12.0224C0 12.0224 5.07579 14.3387 7.08656 12.2647C7.08656 12.2647 4.32175 9.93205 2.16088 10.9772Z" fill="#608616"/>
<path d="M10.4635 24.7959C11.119 26.8153 11.119 26.8153 11.119 26.8153C11.119 26.8153 14.8392 22.9613 13.1992 21.1252C13.1992 21.1252 9.80798 22.7766 10.4635 24.7959Z" fill="#608616"/>
<path d="M4.10459 13.3052C2.70256 13.5781 0.379883 13.703 0.379883 13.703C0.379883 13.703 1.2479 15.5882 3.48363 15.7162C5.71936 15.8442 7.8545 14.3685 7.8545 14.3685C5.53105 12.8371 5.17235 13.0975 4.10459 13.3052Z" fill="#699415"/>
<path d="M4.17494 13.1108C2.18977 13.8119 0.385254 13.6741 0.385254 13.6741C1.58688 14.8979 2.98254 14.0576 4.55092 14.4481C6.1193 14.8385 7.85442 14.3683 7.85442 14.3683C7.85442 14.3683 7.3204 13.9421 6.48046 13.327C5.64052 12.712 4.75158 12.907 4.17494 13.1108Z" fill="#506A08"/>
<path d="M5.66885 14.5121C5.05153 14.3396 3.97805 14.2227 2.52105 14.3185C1.06392 14.4144 0.385254 13.674 0.385254 13.674C0.385254 13.674 0.902631 14.3629 1.44223 14.5836C1.9817 14.8045 3.33305 14.3703 4.89597 14.7894C6.45876 15.2087 7.85455 14.3683 7.85455 14.3683C7.85455 14.3683 6.2863 14.6846 5.66885 14.5121Z" fill="#699415"/>
<path d="M0.785156 18.4238C0.785156 18.4238 1.59677 17.3979 4.3131 18.0641C7.02943 18.7303 8.80743 17.0532 8.80743 17.0532C8.80743 17.0532 6.30918 16.2742 4.05954 15.6697C1.80978 15.0652 0.785156 18.4238 0.785156 18.4238Z" fill="#506A08"/>
<path d="M3.13629 15.6419C1.03 16.1137 0.785156 18.4237 0.785156 18.4237C0.785156 18.4237 3.07287 16.1293 4.77212 16.9679C6.47137 17.8064 8.8073 17.0529 8.8073 17.0529C7.81063 17.4169 5.72071 15.0629 3.13629 15.6419Z" fill="#608616"/>
<path d="M8.32037 22.01C6.2996 23.4425 8.88714 25.6645 8.88714 25.6645C8.88714 25.6645 8.92521 23.9855 10.9539 23.0708C12.9827 22.156 12.1223 20.1654 12.1223 20.1654C12.1223 20.1654 10.3413 20.5775 8.32037 22.01Z" fill="#506A08"/>
<path d="M7.40216 23.1624C6.69516 24.2415 8.88749 25.6642 8.88749 25.6642C8.88749 25.6642 8.27472 23.1708 9.81321 22.5437C11.3518 21.9166 12.1226 20.165 12.1226 20.165C10.7131 19.8231 8.10915 22.0834 7.40216 23.1624Z" fill="#608616"/>
<path d="M5.07526 18.5324C4.00996 19.9653 1.41748 20.3434 1.41748 20.3434C1.41748 20.3434 5.39041 22.1172 6.81076 20.2067C8.23111 18.2962 10.1189 19.0294 10.1189 19.0294C10.1189 19.0294 6.14055 17.0996 5.07526 18.5324Z" fill="#608616"/>
<path d="M5.50049 17.9627C4.0739 19.7305 1.41748 20.3434 1.41748 20.3434C2.0721 20.5837 5.57652 20.0772 6.11456 19.1015C6.6526 18.1259 10.4667 18.9911 10.4667 18.9911C10.4667 18.9911 6.92708 16.195 5.50049 17.9627Z" fill="#506A08"/>
<path d="M6.38411 20.3517C4.86667 22.3996 3.65283 22.484 3.65283 22.484C3.65283 22.484 7.48722 23.3065 8.7125 21.9142C9.93778 20.522 10.3817 18.8845 10.3817 18.8845C10.3817 18.8845 7.90141 18.3038 6.38411 20.3517Z" fill="#506A08"/>
<path d="M7.19377 21.2124C6.26493 22.4297 3.65283 22.4844 3.65283 22.4844C3.65283 22.4844 7.39924 23.7304 8.7125 21.9145C10.0256 20.0987 10.3817 18.8849 10.3817 18.8849C10.3817 18.8849 8.1226 19.9951 7.19377 21.2124Z" fill="#608616"/>
<path d="M10.2375 18.7683C9.95693 18.8576 9.71455 18.9992 9.50258 19.1762C9.44267 19.2262 9.4571 19.3635 9.56068 19.2952C9.76095 19.1629 9.98513 19.0614 10.2292 18.9981C10.4647 18.9369 10.7281 18.9817 10.9502 18.8988C11.0217 18.8722 11.1357 18.7446 11.0404 18.6888C10.8325 18.5668 10.4505 18.7006 10.2375 18.7683Z" fill="#506A08"/>
<path d="M18.4313 0C18.4313 0 15.8154 4.44745 17.8975 5.93491C17.8975 5.93491 20.7714 3.69679 19.6013 1.84845C18.4313 -2.08015e-07 18.4313 0 18.4313 0Z" fill="#608616"/>
<path d="M2.85591 8.33358C0.428222 8.81344 0.428223 8.81344 0.428223 8.81344C0.428223 8.81344 4.88942 12.0667 7.13282 10.7548C7.13282 10.7548 5.28359 7.85372 2.85591 8.33358Z" fill="#608616"/>
<path d="M16.4167 0.260559C16.4167 0.260559 14.1416 0.923314 13.9117 2.79401C13.6818 4.6646 15.3655 6.5064 15.3655 6.5064C17.2698 4.61062 16.9722 4.30078 16.7615 3.39809C16.4851 2.21283 16.4167 0.260559 16.4167 0.260559Z" fill="#699415"/>
<path d="M16.4503 0.265961C14.9512 1.23136 15.9037 2.43101 15.3844 3.73286C14.8651 5.0347 15.365 6.50613 15.365 6.50613C15.365 6.50613 15.891 6.07306 16.6527 5.38991C17.4142 4.70676 17.423 3.86046 17.2003 3.36969C16.4341 1.68046 16.4503 0.265961 16.4503 0.265961Z" fill="#506A08"/>
<path d="M15.3308 1.12132C15.0491 1.56617 15.5195 2.71446 14.9662 4.01074C14.413 5.30692 15.3655 6.50657 15.3655 6.50657C15.3655 6.50657 15.043 5.18041 15.2698 4.66859C15.4966 4.15678 15.6729 3.26063 15.6093 2.03535C15.5456 0.810064 16.4508 0.26651 16.4508 0.26651C16.4508 0.26651 15.6124 0.676465 15.3308 1.12132Z" fill="#699415"/>
<path d="M10.7803 0.437683C10.7803 0.437683 11.974 1.15388 11.0866 3.4089C10.1992 5.66393 12.1351 7.21301 12.1351 7.21301C12.1351 7.21301 13.1492 5.1448 13.9469 3.27901C14.7446 1.41311 10.7803 0.437683 10.7803 0.437683Z" fill="#506A08"/>
<path d="M14.0119 2.50567C13.5229 0.722873 10.7803 0.437683 10.7803 0.437683C10.7803 0.437683 13.4336 2.43565 12.3761 3.83184C11.3186 5.22802 12.1351 7.21312 12.1351 7.21312C11.7361 6.36453 14.6119 4.69319 14.0119 2.50567Z" fill="#608616"/>
<path d="M1.87646 6.98133C1.87646 6.98133 3.87476 7.0713 4.89392 8.80448C5.91321 10.5375 8.31373 9.88482 8.31373 9.88482C8.31373 9.88482 7.8846 8.37675 6.24838 6.63245C4.61229 4.88815 1.87646 6.98133 1.87646 6.98133Z" fill="#506A08"/>
<path d="M4.9073 5.82205C3.64668 5.1918 1.87646 6.98125 1.87646 6.98125C1.87646 6.98125 4.86715 6.55362 5.56062 7.86561C6.2541 9.1776 8.31373 9.88474 8.31373 9.88474C8.76977 8.71431 6.16793 6.45231 4.9073 5.82205Z" fill="#608616"/>
<path d="M10.5026 4.03105C8.83301 3.08812 8.47237 0.900818 8.47237 0.900818C8.47237 0.900818 6.22247 4.17141 8.44859 5.42876C10.6747 6.6861 9.73625 8.24402 9.73625 8.24402C9.73625 8.24402 12.1723 4.97398 10.5026 4.03105Z" fill="#608616"/>
<path d="M11.1658 4.40741C9.10995 3.14984 8.47184 0.900818 8.47184 0.900818C8.16292 1.44154 8.64508 4.39814 9.78835 4.88313C10.9316 5.36812 9.76925 8.53695 9.76925 8.53695C9.76925 8.53695 13.2217 5.66498 11.1658 4.40741Z" fill="#506A08"/>
<path d="M8.28989 5.06519C5.90341 3.72179 5.84479 2.70078 5.84479 2.70078C5.84479 2.70078 4.73271 5.88804 6.3484 6.96381C7.96408 8.03957 9.89882 8.4685 9.89882 8.4685C9.89882 8.4685 10.6764 6.40869 8.28989 5.06519Z" fill="#506A08"/>
<path d="M7.23713 5.71497C5.81951 4.89386 5.84472 2.70132 5.84472 2.70132C5.84472 2.70132 4.23111 5.80025 6.34832 6.96436C8.46553 8.12846 9.89874 8.46905 9.89874 8.46905C9.89874 8.46905 8.65475 6.53608 7.23713 5.71497Z" fill="#608616"/>
<path d="M9.58228 7.72208C9.52471 7.67006 9.3607 7.67737 9.43855 7.76669C9.58917 7.93922 9.70224 8.13073 9.7693 8.33761C9.83389 8.53719 9.77151 8.75662 9.86248 8.94584C9.89172 9.0067 10.0397 9.1067 10.1095 9.02883C10.2621 8.85859 10.116 8.5337 10.0426 8.35266C9.94604 8.11415 9.7858 7.90596 9.58228 7.72208Z" fill="#506A08"/>
<path d="M25.2935 15.0307C25.2935 15.0307 27.9257 17.4691 30.1423 16.5097C32.359 15.5502 32.359 15.5502 32.359 15.5502C32.359 15.5502 27.091 13.3016 25.2935 15.0307Z" fill="#608616"/>
<path d="M22.0736 0.338013C22.0736 0.338013 18.1433 4.04222 19.6794 5.9404C19.6794 5.9404 23.1587 4.42371 22.6161 2.38081C22.0736 0.338013 22.0736 0.338013 22.0736 0.338013Z" fill="#608616"/>
<path d="M29.0841 11.7244C26.858 11.5089 24.6431 12.8996 24.6431 12.8996C26.8791 14.5203 27.2518 14.2743 28.33 14.1085C29.7456 13.8908 32.0727 13.857 32.0727 13.857C32.0727 13.857 31.3104 11.9399 29.0841 11.7244Z" fill="#699415"/>
<path d="M27.9473 12.9491C26.4024 12.4976 24.6431 12.8994 24.6431 12.8994C24.6431 12.8994 25.0927 13.403 25.9576 13.9933C26.4641 14.3389 28.3532 14.5197 28.9406 14.3389C30.9627 13.7163 32.0656 13.8853 32.0656 13.8853C30.9332 12.6157 29.4923 13.4005 27.9473 12.9491Z" fill="#506A08"/>
<path d="M31.0603 12.935C30.5337 12.6934 29.1596 13.0742 27.6218 12.5943C26.084 12.1145 24.6431 12.8993 24.6431 12.8993C24.6431 12.8993 26.2272 12.6447 26.8342 12.8413C27.4413 13.0378 28.5071 13.1965 29.9679 13.1577C31.4286 13.119 32.0654 13.8852 32.0654 13.8852C32.0654 13.8852 31.5869 13.1767 31.0603 12.935Z" fill="#699415"/>
<path d="M28.3854 9.34628C25.709 8.57458 23.8398 10.1803 23.8398 10.1803C23.8398 10.1803 26.2921 11.0561 28.5057 11.748C30.7194 12.4399 31.9296 9.125 31.9296 9.125C31.9296 9.125 31.0617 10.118 28.3854 9.34628Z" fill="#506A08"/>
<path d="M27.8659 10.4237C26.215 9.51958 23.8398 10.1807 23.8398 10.1807C24.8558 9.85614 26.8126 12.2894 29.4264 11.8122C31.5566 11.4233 31.9296 9.12555 31.9296 9.12555C31.9296 9.12555 29.5167 11.3278 27.8659 10.4237Z" fill="#608616"/>
<path d="M22.0313 4.0852C19.9539 4.91951 20.7027 6.94169 20.7027 6.94169C20.7027 6.94169 22.5048 6.59979 24.603 5.24789C26.7012 3.89599 24.24 1.5752 24.24 1.5752C24.24 1.5752 24.1087 3.2509 22.0313 4.0852Z" fill="#506A08"/>
<path d="M24.2399 1.5752C24.2399 1.5752 24.7135 4.08978 23.1418 4.65591C21.57 5.22204 20.7026 6.94169 20.7026 6.94169C22.0918 7.33834 24.8185 5.18256 25.5846 4.13232C26.3508 3.08218 24.2399 1.5752 24.2399 1.5752Z" fill="#608616"/>
<path d="M26.0107 7.10858C24.4857 8.96139 22.6406 8.15512 22.6406 8.15512C22.6406 8.15512 26.5076 10.2386 27.6513 8.84895C28.7951 7.45932 31.4056 7.18307 31.4056 7.18307C31.4056 7.18307 27.5356 5.25577 26.0107 7.10858Z" fill="#608616"/>
<path d="M26.2391 8.00948C25.2142 8.65446 22.291 8.17929 22.291 8.17929C22.291 8.17929 25.6714 11.1109 27.1947 9.40097C28.718 7.69103 31.4055 7.1827 31.4055 7.1827C30.765 6.91703 27.5901 7.15925 26.2391 8.00948Z" fill="#506A08"/>
<path d="M24.2063 5.32819C22.905 6.67093 22.3706 8.28926 22.3706 8.28926C22.3706 8.28926 24.8158 8.96652 26.4454 6.98022C28.075 4.99392 29.2922 4.95706 29.2922 4.95706C29.2922 4.95706 25.5076 3.98534 24.2063 5.32819Z" fill="#506A08"/>
<path d="M24.2063 5.32791C22.7936 7.09042 22.3706 8.28899 22.3706 8.28899C22.3706 8.28899 24.6889 7.2684 25.6844 6.08871C26.6799 4.90901 29.2921 4.95667 29.2921 4.95667C29.2921 4.95667 25.619 3.56539 24.2063 5.32791Z" fill="#608616"/>
<path d="M23.2122 7.91081C23.0048 8.03513 22.7753 8.12773 22.5278 8.18138C22.2892 8.23319 22.0286 8.17822 21.802 8.25227C21.7292 8.27605 21.6082 8.39907 21.7001 8.45861C21.9011 8.58872 22.2901 8.46996 22.5066 8.41063C22.7919 8.33243 23.0419 8.20047 23.2634 8.03197C23.3262 7.98431 23.3194 7.84657 23.2122 7.91081Z" fill="#506A08"/>
<path d="M15.0968 21.0803C15.0968 21.0803 12.1487 23.2493 13.2561 25.1247C14.3635 27.0001 14.3635 27.0001 14.3635 27.0001C14.3635 27.0001 17.128 22.6164 15.0968 21.0803Z" fill="#608616"/>
<path d="M26.0181 16.5171C26.0181 16.5171 27.7689 19.461 30.2118 19.0388C32.6547 18.6166 32.6547 18.6166 32.6547 18.6166C32.6547 18.6166 28.3047 15.2589 26.0181 16.5171Z" fill="#608616"/>
<path d="M16.146 23.6429C16.3825 24.8342 16.3851 26.7873 16.3851 26.7873C16.3851 26.7873 18.6817 26.1786 18.9744 24.3142C19.2672 22.4499 17.6462 20.5689 17.6462 20.5689C15.6789 22.4188 15.9659 22.7355 16.146 23.6429Z" fill="#699415"/>
<path d="M16.3221 21.6543C15.5378 22.3191 15.5006 23.1649 15.7066 23.6606C16.4158 25.3673 16.3519 26.7808 16.3519 26.7808C17.883 25.8513 16.9712 24.6296 17.534 23.3407C18.0969 22.0516 17.6467 20.5689 17.6467 20.5689C17.6467 20.5689 17.1065 20.9894 16.3221 21.6543Z" fill="#506A08"/>
<path d="M17.6797 22.4085C17.4357 22.9148 17.2294 23.8063 17.2517 25.0327C17.2742 26.2591 16.3511 26.7809 16.3511 26.7809C16.3511 26.7809 17.2028 26.3908 17.4993 25.9529C17.7957 25.5149 17.3643 24.3559 17.9609 23.0732C18.5576 21.7907 17.6459 20.5689 17.6459 20.5689C17.6459 20.5689 17.9236 21.9023 17.6797 22.4085Z" fill="#699415"/>
<path d="M20.8992 19.939C20.8992 19.939 19.8158 21.9823 18.9556 23.8285C18.0954 25.6746 22.0254 26.7437 22.0254 26.7437C22.0254 26.7437 20.8563 25.9996 21.8192 23.7664C22.7822 21.5333 20.8992 19.939 20.8992 19.939Z" fill="#506A08"/>
<path d="M20.5445 23.3132C21.6485 21.9426 20.8991 19.939 20.8991 19.939C21.2694 20.7966 18.3385 22.3991 18.8647 24.6C19.2936 26.3937 22.0254 26.7437 22.0254 26.7437C22.0254 26.7437 19.4404 24.6837 20.5445 23.3132Z" fill="#608616"/>
<path d="M28.1908 18.52C27.2302 16.7634 24.2129 16.5118 24.2129 16.5118C24.2129 16.5118 25.187 18.8766 26.7638 20.659C28.3406 22.4415 31.1457 20.4138 31.1457 20.4138C31.1457 20.4138 29.1513 20.2765 28.1908 18.52Z" fill="#506A08"/>
<path d="M27.4928 19.4423C26.8437 18.1144 24.3255 17.3617 24.3255 17.3617C23.8304 18.5209 24.5506 20.5735 28.0771 21.5005C29.4773 21.8686 31.1458 20.4136 31.1458 20.4136C31.1458 20.4136 28.142 20.7702 27.4928 19.4423Z" fill="#608616"/>
<path d="M24.5244 21.8102C22.3414 20.5006 23.332 18.9656 23.332 18.9656C23.332 18.9656 20.787 22.1764 22.4242 23.1586C24.0615 24.1408 24.3483 26.3357 24.3483 26.3357C24.3483 26.3357 26.7074 23.1198 24.5244 21.8102Z" fill="#608616"/>
<path d="M23.1663 22.3239C22.0398 21.8119 23.3083 18.672 23.3083 18.672C23.3083 18.672 19.7605 21.461 21.7733 22.7667C23.7861 24.0726 24.3483 26.3358 24.3483 26.3358C24.6753 25.8025 24.2928 22.8358 23.1663 22.3239Z" fill="#506A08"/>
<path d="M26.6743 20.3252C25.0954 19.2116 23.176 18.737 23.176 18.737C23.176 18.737 22.3295 20.7777 24.6698 22.1772C27.0101 23.5766 27.0343 24.5985 27.0343 24.5985C27.0343 24.5985 28.2532 21.4388 26.6743 20.3252Z" fill="#506A08"/>
<path d="M26.6746 20.3252C24.5974 19.1114 23.1763 18.737 23.1763 18.737C23.1763 18.737 24.3548 20.6987 25.7442 21.5531C27.1336 22.4075 27.0346 24.5986 27.0346 24.5986C27.0346 24.5986 28.7518 21.5391 26.6746 20.3252Z" fill="#608616"/>
<path d="M23.3019 18.8707C23.244 18.6696 23.3137 18.4518 23.2292 18.2606C23.2021 18.199 23.0575 18.0955 22.985 18.1718C22.8267 18.3383 22.9619 18.6666 23.0291 18.8493C23.1177 19.0898 23.2708 19.3017 23.4681 19.4904C23.5239 19.5437 23.6881 19.5404 23.6133 19.4493C23.4685 19.2733 23.3619 19.0792 23.3019 18.8707Z" fill="#506A08"/>
<path d="M7.99582 6.74393C6.00195 6.68439 6.00195 6.68439 6.00195 6.68439C6.00195 6.68439 8.6264 9.98442 10.6872 9.36933C10.6872 9.36933 9.9897 6.80348 7.99582 6.74393Z" fill="#7EA82C"/>
<path d="M6.64796 19.0721C6.07275 20.6752 6.07275 20.6752 6.07275 20.6752C6.07275 20.6752 10.543 19.3839 10.3579 17.5549C10.3579 17.5549 7.22317 17.4689 6.64796 19.0721Z" fill="#7EA82C"/>
<path d="M10.721 17.4491C10.2798 17.3916 9.72735 17.7993 9.39699 18.0094C9.01178 18.2544 8.67466 18.5357 8.42384 18.8833C8.4059 18.9081 8.39875 19.0561 8.45931 19.0092C8.82035 18.7299 9.15461 18.4384 9.57101 18.2139C9.93477 18.0178 10.4006 17.9513 10.7287 17.7186C10.7846 17.6789 10.8247 17.4626 10.721 17.4491Z" fill="#6B9909"/>
<path d="M8.13828 9.01438C7.04933 8.70083 5.41051 7.95944 5.41051 7.95944C5.41051 7.95944 5.04727 9.54713 6.49933 10.4292C7.95139 11.3113 10.1453 11.0696 10.1453 11.0696C9.34237 9.20414 8.96769 9.25322 8.13828 9.01438Z" fill="#86B825"/>
<path d="M8.29122 8.74777C6.59028 8.51732 5.4292 7.94193 5.4292 7.94193C5.62622 9.1996 6.99758 9.12588 7.86429 9.94873C8.73114 10.7715 10.1456 11.0696 10.1456 11.0696C10.1456 11.0696 9.99866 10.5905 9.73951 9.87457C9.48037 9.15849 8.78533 8.81473 8.29122 8.74777Z" fill="#6B9909"/>
<path d="M8.59039 10.3898C8.25873 10.0531 7.58956 9.59211 6.55259 9.13885C5.51576 8.6856 5.4292 7.94193 5.4292 7.94193C5.4292 7.94193 5.43219 8.59334 5.68678 8.93502C5.94125 9.27671 7.07737 9.46276 7.92589 10.3031C8.77441 11.1433 10.1458 11.0696 10.1458 11.0696C10.1458 11.0696 8.92205 10.7264 8.59039 10.3898Z" fill="#86B825"/>
<path d="M3.30176 11.3065C3.30176 11.3065 4.37056 10.8992 5.87682 12.3173C7.3832 13.7354 9.43634 13.2299 9.43634 13.2299C9.43634 13.2299 8.1349 11.8129 6.91404 10.6027C5.69331 9.39253 3.30176 11.3065 3.30176 11.3065Z" fill="#6B9909"/>
<path d="M6.30277 10.2558C4.63549 9.82673 3.30273 11.3067 3.30273 11.3067C3.30273 11.3067 6.0136 10.5639 6.74295 11.7371C7.47216 12.9104 9.43744 13.2302 9.43744 13.2302C8.57736 13.1225 8.3485 10.7822 6.30277 10.2558Z" fill="#7EA82C"/>
<path d="M6.6005 16.4193C4.50604 16.6724 5.13921 19.1001 5.13921 19.1001C5.13921 19.1001 6.01307 17.9746 7.85138 18.0756C9.68969 18.1766 10.1114 16.5201 10.1114 16.5201C10.1114 16.5201 8.69496 16.1663 6.6005 16.4193Z" fill="#6B9909"/>
<path d="M5.39501 16.8745C4.3704 17.3551 5.13912 19.1 5.13912 19.1C5.13912 19.1 5.9827 17.1905 7.34327 17.3124C8.70371 17.4342 10.1115 16.52 10.1115 16.52C9.32779 15.7867 6.41963 16.3939 5.39501 16.8745Z" fill="#7EA82C"/>
<path d="M6.15641 12.9058C4.71007 13.499 2.76025 12.8335 2.76025 12.8335C2.76025 12.8335 4.5597 15.45 6.48821 14.6591C8.41671 13.8682 9.32722 15.037 9.32722 15.037C9.32722 15.037 7.60289 12.3126 6.15641 12.9058Z" fill="#7EA82C"/>
<path d="M5.97766 12.5439C4.11699 13.2358 2.76123 12.8335 2.76123 12.8335C3.08393 13.2294 5.71721 14.1322 6.57509 13.6617C7.43284 13.1912 9.58344 15.1347 9.58344 15.1347C9.58344 15.1347 7.83832 11.852 5.97766 12.5439Z" fill="#6B9909"/>
<path d="M6.1253 14.6057C4.06151 15.4552 3.19531 15.0808 3.19531 15.0808C3.19531 15.0808 5.38127 17.0026 6.91573 16.4938C8.45019 15.9851 9.57839 15.0322 9.57839 15.0322C9.57839 15.0322 8.18909 13.7561 6.1253 14.6057Z" fill="#6B9909"/>
<path d="M6.23993 15.4772C4.99489 15.9726 3.19531 15.0806 3.19531 15.0806C3.19531 15.0806 5.10757 17.2584 6.91573 16.4936C8.72376 15.7288 9.57839 15.032 9.57839 15.032C9.57839 15.032 7.48496 14.9817 6.23993 15.4772Z" fill="#7EA82C"/>
<path d="M9.5397 14.9023C9.3042 14.8631 9.06832 14.8729 8.83504 14.9177C8.76915 14.9303 8.7095 15.0286 8.81425 15.0191C9.01699 15.0006 9.22025 15.0115 9.41792 15.0553C9.60857 15.0976 9.76466 15.2216 9.95726 15.2444C10.0193 15.2519 10.1609 15.2058 10.1247 15.1341C10.0451 14.9772 9.71839 14.9321 9.5397 14.9023Z" fill="#6B9909"/>
<path d="M21.217 8.92009C21.217 8.92009 24.2971 8.42387 24.4369 6.75373C24.5768 5.08359 24.5768 5.08359 24.5768 5.08359C24.5768 5.08359 20.5558 7.17044 21.217 8.92009Z" fill="#7EA82C"/>
<path d="M9.8015 5.19773C7.91211 4.65985 7.91211 4.65985 7.91211 4.65985C7.91211 4.65985 9.29542 8.4536 11.4799 8.36155C11.4799 8.36155 11.6909 5.73562 9.8015 5.19773Z" fill="#7EA82C"/>
<path d="M20.1 5.37148C18.9992 6.5587 19.2112 8.40704 19.2112 8.40704C21.4606 7.79817 21.4152 7.48222 21.7283 6.79493C22.1394 5.89246 23.0791 4.54372 23.0791 4.54372C23.0791 4.54372 21.2008 4.18426 20.1 5.37148Z" fill="#86B825"/>
<path d="M20.6248 6.53253C19.615 7.23106 19.2109 8.40705 19.2109 8.40705C19.2109 8.40705 19.7865 8.30028 20.6483 8.10779C21.5101 7.91519 21.9434 7.34415 22.0403 6.93213C22.3737 5.51359 23.0991 4.55975 23.0991 4.55975C21.5944 4.68146 21.6347 5.83401 20.6248 6.53253Z" fill="#6B9909"/>
<path d="M21.9076 4.74134C21.4918 4.94299 21.231 5.8893 20.2009 6.57191C19.1709 7.25451 19.2111 8.40705 19.2111 8.40705C19.2111 8.40705 19.6622 7.39269 20.0746 7.12615C20.487 6.85961 21.0592 6.31442 21.6349 5.46048C22.2105 4.60654 23.0992 4.55976 23.0992 4.55976C23.0992 4.55976 22.3233 4.53969 21.9076 4.74134Z" fill="#86B825"/>
<path d="M17.8722 4.78366C16.1312 5.99793 16.6621 7.73733 16.6621 7.73733C16.6621 7.73733 18.3948 6.69493 19.8783 5.71285C21.3618 4.73077 19.1651 2.65897 19.1651 2.65897C19.1651 2.65897 19.6132 3.5694 17.8722 4.78366Z" fill="#6B9909"/>
<path d="M19.165 2.65897C19.165 2.65897 19.956 4.95816 18.5334 5.5292C17.1109 6.10023 16.6621 7.73733 16.6621 7.73733C16.82 7.01982 19.6151 6.9088 20.3129 5.21129C20.8816 3.82787 19.165 2.65897 19.165 2.65897Z" fill="#7EA82C"/>
<path d="M9.82031 3.93227C9.82031 3.93227 11.1305 4.70408 10.9466 6.24237C10.7627 7.78065 12.7209 8.1917 12.7209 8.1917C12.7209 8.1917 13.1915 7.01604 12.9625 5.25069C12.7337 3.48523 9.82031 3.93227 9.82031 3.93227Z" fill="#6B9909"/>
<path d="M9.82031 3.93222C9.82031 3.93222 12.0651 4.70578 11.8731 5.84262C11.6808 6.97935 12.7209 8.19165 12.7209 8.19165C13.6214 7.55976 12.9989 5.09981 12.462 4.22395C11.925 3.34788 9.82031 3.93222 9.82031 3.93222Z" fill="#7EA82C"/>
<path d="M15.0625 5.21564C15.9376 6.86037 14.5142 7.58354 14.5142 7.58354C14.5142 7.58354 17.8183 6.23164 17.1619 4.99807C16.5054 3.76449 17.3655 2.15237 17.3655 2.15237C17.3655 2.15237 14.1872 3.57091 15.0625 5.21564Z" fill="#7EA82C"/>
<path d="M17.3658 2.15237C16.8831 2.40932 15.7168 4.58658 16.2476 5.3223C16.7782 6.05802 14.3892 7.79425 14.3892 7.79425C14.3892 7.79425 18.5557 6.85415 17.7961 5.26973C17.0365 3.68532 17.3658 2.15237 17.3658 2.15237Z" fill="#6B9909"/>
<path d="M14.6736 2.43994C14.6736 2.43994 12.3093 4.20671 12.8621 5.51117C13.4148 6.81563 14.5106 7.79477 14.5106 7.79477C14.5106 7.79477 16.0785 6.67385 15.1381 4.91363C14.1977 3.15341 14.6736 2.43994 14.6736 2.43994Z" fill="#6B9909"/>
<path d="M12.8623 5.51128C13.7106 7.05404 14.5109 7.79488 14.5109 7.79488C14.5109 7.79488 14.6432 6.04109 14.0962 4.97972C13.5492 3.91846 14.6737 2.43994 14.6737 2.43994C14.6737 2.43994 12.0139 3.96852 12.8623 5.51128Z" fill="#7EA82C"/>
<path d="M14.5532 7.15441C14.5682 7.32508 14.5482 7.49522 14.4891 7.65935C14.4322 7.81771 14.2791 7.94433 14.2451 8.10508C14.2342 8.15677 14.2841 8.27728 14.3708 8.24926C14.5603 8.18807 14.6253 7.91564 14.667 7.76678C14.7218 7.57069 14.7183 7.37242 14.6731 7.17535C14.6604 7.11962 14.5454 7.06618 14.5532 7.15441Z" fill="#6B9909"/>
<path d="M21.6406 17.7214C21.6406 17.7214 22.1948 20.3119 24.1832 20.4493C26.1716 20.5867 26.1716 20.5867 26.1716 20.5867C26.1716 20.5867 23.7334 17.1876 21.6406 17.7214Z" fill="#7EA82C"/>
<path d="M22.423 9.5582C22.423 9.5582 25.5495 9.76672 26.2132 8.18787C26.8769 6.60901 26.8769 6.60901 26.8769 6.60901C26.8769 6.60901 22.3397 7.72403 22.423 9.5582Z" fill="#7EA82C"/>
<path d="M25.8833 16.8266C24.4819 15.8887 22.2769 16.0442 22.2769 16.0442C22.9753 17.939 23.3523 17.9048 24.1674 18.1758C25.2378 18.5317 26.8336 19.3364 26.8336 19.3364C26.8336 19.3364 27.2847 17.7645 25.8833 16.8266Z" fill="#86B825"/>
<path d="M24.3263 17.5506C23.5061 16.6948 22.2773 16.0443 22.2773 16.0443C22.2773 16.0443 22.3976 16.5286 22.6167 17.2539C22.8358 17.9793 23.5109 18.3499 24.0009 18.4361C25.6872 18.7329 26.815 19.3531 26.815 19.3531C26.688 18.0891 25.1465 18.4064 24.3263 17.5506Z" fill="#6B9909"/>
<path d="M24.4521 16.8969C23.6512 16.0243 22.2773 16.0443 22.2773 16.0443C22.2773 16.0443 23.4805 16.435 23.7932 16.7843C24.1059 17.1335 24.7487 17.6202 25.7593 18.1136C26.7699 18.6069 26.815 19.3532 26.815 19.3532C26.815 19.3532 26.8481 18.7023 26.6129 18.3511C26.3775 17.9998 25.2529 17.7694 24.4521 16.8969Z" fill="#86B825"/>
<path d="M26.6104 14.9654C25.1846 13.4899 23.1055 13.9144 23.1055 13.9144C23.1055 13.9144 24.3267 15.3808 25.479 16.6375C26.6313 17.8942 29.1266 16.0759 29.1266 16.0759C29.1266 16.0759 28.0362 16.4409 26.6104 14.9654Z" fill="#6B9909"/>
<path d="M25.7141 15.5115C25.0507 14.3109 23.1055 13.9147 23.1055 13.9147C23.9585 14.0558 24.0572 16.4025 26.0713 17.0085C27.7129 17.5024 29.1265 16.0761 29.1265 16.0761C29.1265 16.0761 26.3773 16.7121 25.7141 15.5115Z" fill="#7EA82C"/>
<path d="M24.9564 9.13539C23.1257 8.96253 22.6123 10.6007 22.6123 10.6007C22.6123 10.6007 24.0076 11.0097 26.1139 10.8389C28.2202 10.6681 27.7227 8.2182 27.7227 8.2182C27.7227 8.2182 26.7871 9.30825 24.9564 9.13539Z" fill="#6B9909"/>
<path d="M25.4216 9.91774C24.0693 9.74281 22.6123 10.6009 22.6123 10.6009C23.3544 11.3641 26.2931 10.8714 27.3433 10.4314C28.3935 9.99146 27.7227 8.21826 27.7227 8.21826C27.7227 8.21826 26.7737 10.0927 25.4216 9.91774Z" fill="#7EA82C"/>
<path d="M26.1288 12.6019C24.1585 13.3164 23.314 12.1132 23.314 12.1132C23.314 12.1132 24.8851 14.9019 26.3629 14.366C27.8407 13.8301 29.7512 14.5713 29.7512 14.5713C29.7512 14.5713 28.0992 11.8873 26.1288 12.6019Z" fill="#7EA82C"/>
<path d="M25.9876 13.5948C25.1046 14.0313 23.0645 12.0056 23.0645 12.0056C23.0645 12.0056 24.4544 15.5238 26.3516 14.9055C28.2486 14.2873 29.7512 14.5714 29.7512 14.5714C29.4509 14.1633 26.8705 13.1585 25.9876 13.5948Z" fill="#6B9909"/>
<path d="M25.8035 10.7524C24.2426 11.2005 23.0625 12.1082 23.0625 12.1082C23.0625 12.1082 24.3793 13.4373 26.488 12.6694C28.5968 11.9015 29.4412 12.3094 29.4412 12.3094C29.4412 12.3094 27.3645 10.3042 25.8035 10.7524Z" fill="#6B9909"/>
<path d="M25.2252 10.5602C23.3766 11.2534 23.0625 12.1083 23.0625 12.1083C23.0625 12.1083 25.1507 12.2405 26.4219 11.7943C27.693 11.3481 29.4412 12.3095 29.4412 12.3095C29.4412 12.3095 27.0738 9.86688 25.2252 10.5602Z" fill="#7EA82C"/>
<path d="M23.8246 12.1512C23.6211 12.1617 23.4186 12.1429 23.2237 12.0914C23.0356 12.0417 22.8865 11.9117 22.6955 11.8813C22.634 11.8716 22.4899 11.912 22.5223 11.9851C22.5928 12.1448 22.9167 12.2026 23.0937 12.2394C23.3267 12.2878 23.563 12.2873 23.7983 12.2516C23.8648 12.2416 23.9299 12.1457 23.8246 12.1512Z" fill="#6B9909"/>
<path d="M8.37665 20.2875C8.18066 21.9536 8.18066 21.9536 8.18066 21.9536C8.18066 21.9536 12.2703 19.963 11.6682 18.1984C11.6682 18.1984 8.57263 18.6214 8.37665 20.2875Z" fill="#7EA82C"/>
<path d="M21.3818 18.9876C21.3818 18.9876 21.0827 21.6074 22.9532 22.1899C24.8236 22.7724 24.8236 22.7724 24.8236 22.7724C24.8236 22.7724 23.5686 18.9473 21.3818 18.9876Z" fill="#7EA82C"/>
<path d="M11.0856 20.3104C10.6443 21.2028 9.65967 22.5287 9.65967 22.5287C9.65967 22.5287 11.525 22.9327 12.6654 21.772C13.8057 20.6112 13.656 18.7586 13.656 18.7586C11.3869 19.3139 11.4217 19.6309 11.0856 20.3104Z" fill="#86B825"/>
<path d="M10.7779 20.1661C10.3969 21.5762 9.63965 22.5124 9.63965 22.5124C11.1477 22.4263 11.1463 21.2733 12.1792 20.5989C13.2122 19.9246 13.6556 18.7587 13.6556 18.7587C13.6556 18.7587 13.0766 18.8517 12.2087 19.0238C11.341 19.1959 10.8885 19.7565 10.7779 20.1661Z" fill="#9DBB1D"/>
<path d="M12.7494 20.0186C12.3282 20.2753 11.7377 20.8068 11.1337 21.6467C10.5295 22.4867 9.63965 22.5124 9.63965 22.5124C9.63965 22.5124 10.4146 22.5508 10.8369 22.3591C11.2592 22.1673 11.5519 21.2276 12.6045 20.5697C13.6572 19.9119 13.6556 18.7587 13.6556 18.7587C13.6556 18.7587 13.1706 19.762 12.7494 20.0186Z" fill="#86B825"/>
<path d="M12.8978 21.4355C11.3818 22.3821 13.508 24.5051 13.508 24.5051C13.508 24.5051 13.0907 23.5845 14.8719 22.412C16.6531 21.2395 16.1809 19.4881 16.1809 19.4881C16.1809 19.4881 14.4137 20.489 12.8978 21.4355Z" fill="#6B9909"/>
<path d="M12.4461 21.9264C11.8312 23.2958 13.5075 24.505 13.5075 24.505C13.5075 24.505 12.7943 22.1879 14.2356 21.6509C15.6769 21.1138 16.1805 19.4881 16.1805 19.4881C15.9985 20.2015 13.2008 20.2463 12.4461 21.9264Z" fill="#7EA82C"/>
<path d="M22.3706 21.1129C22.9523 19.6459 21.1493 18.8843 21.1493 18.8843C21.1493 18.8843 20.3827 19.9447 20.1445 21.7092C19.9062 23.4737 22.8654 23.574 22.8654 23.574C22.8654 23.574 21.7889 22.5797 22.3706 21.1129Z" fill="#6B9909"/>
<path d="M21.3625 21.332C21.8472 20.2583 21.1494 18.8842 21.1494 18.8842C20.1057 19.3348 20.0697 21.8495 20.3646 22.8029C20.6594 23.7563 22.8656 23.5739 22.8656 23.5739C22.8656 23.5739 20.8777 22.4057 21.3625 21.332Z" fill="#7EA82C"/>
<path d="M18.3334 19.483C18.3334 19.483 16.7284 20.5664 17.6093 22.3481C18.4902 24.1299 17.9904 24.8318 17.9904 24.8318C17.9904 24.8318 20.4132 23.1217 19.9046 21.8047C19.396 20.4876 18.3334 19.483 18.3334 19.483Z" fill="#506A08"/>
<path d="M18.3333 19.483C18.3333 19.483 18.142 21.2329 18.653 22.3067C19.164 23.3805 17.9902 24.8318 17.9902 24.8318C17.9902 24.8318 20.9566 23.0806 20.1606 21.5183C19.3646 19.9561 18.3333 19.483 18.3333 19.483Z" fill="#608616"/>
<path d="M18.4886 19.0321C18.2972 19.0888 18.223 19.3596 18.1763 19.5074C18.1149 19.7022 18.1117 19.9003 18.1503 20.0985C18.1612 20.1545 18.2743 20.2106 18.2696 20.1223C18.2604 19.9514 18.286 19.7818 18.3506 19.6189C18.4129 19.4619 18.5702 19.339 18.6095 19.1791C18.6221 19.1277 18.5762 19.0061 18.4886 19.0321Z" fill="#6B9909"/>
<path d="M14.4426 6.09027C13.1604 5.28726 13.1604 5.28726 13.1604 5.28726C13.1604 5.28726 12.2803 8.3875 14.7889 8.8522C14.7889 8.8522 15.7248 6.89327 14.4426 6.09027Z" fill="#95C23C"/>
<path d="M6.84942 13.7022C5.59815 14.5388 5.59814 14.5388 5.59814 14.5388C5.59814 14.5388 9.24799 15.3997 10.1207 14.123C10.1207 14.123 8.10069 12.8656 6.84942 13.7022Z" fill="#9DBB1D"/>
<path d="M12.0775 5.90152C12.0775 5.90152 10.9744 6.80911 11.452 7.94693C11.9294 9.08475 13.5074 9.76572 13.5074 9.76572C13.9927 8.2282 13.719 8.11696 13.3021 7.64189C12.7547 7.01807 12.0775 5.90152 12.0775 5.90152Z" fill="#9DBB1D"/>
<path d="M12.0987 5.89719C11.5445 6.80184 12.4887 7.27854 12.6127 8.15308C12.7367 9.02752 13.5071 9.76597 13.5071 9.76597C13.5071 9.76597 13.6707 9.39375 13.8893 8.82238C14.1079 8.25102 13.8365 7.75818 13.5472 7.52479C12.5512 6.72124 12.0987 5.89719 12.0987 5.89719Z" fill="#749109"/>
<path d="M8.86621 7.30054C8.86621 7.30054 9.79245 7.44134 10.0142 8.95334C10.236 10.4653 11.8647 10.9186 11.8647 10.9186C11.8647 10.9186 11.7775 9.48588 11.6308 8.22024C11.484 6.9546 8.86621 7.30054 8.86621 7.30054Z" fill="#749109"/>
<path d="M11.4158 7.75685C10.55 6.83529 8.86621 7.30054 8.86621 7.30054C8.86621 7.30054 11.0576 7.84911 10.9002 8.90208C10.7429 9.95505 11.8647 10.9186 11.8647 10.9186C11.3561 10.5182 12.4782 8.88758 11.4158 7.75685Z" fill="#95C23C"/>
<path d="M8.67824 12.1664C7.15964 11.5309 5.83936 13.1435 5.83936 13.1435C5.83936 13.1435 7.02773 12.7362 8.18477 13.507C9.34195 14.2779 10.521 13.3471 10.521 13.3471C10.521 13.3471 10.1968 12.8017 8.67824 12.1664Z" fill="#749109"/>
<path d="M7.89015 11.7884C6.65188 11.7884 5.83936 13.1435 5.83936 13.1435C5.83936 13.1435 7.27609 12.4153 8.34047 12.6387C9.24098 12.8275 10.521 13.3471 10.521 13.3471C10.4032 12.5634 8.83133 11.7884 7.89015 11.7884Z" fill="#95C23C"/>
<path d="M9.87844 9.44824C8.60208 9.28531 7.6787 8.09961 7.6787 8.09961C7.6787 8.09961 7.44191 10.5139 9.14363 10.7312C10.8454 10.9485 10.8099 12.0679 10.8099 12.0679C10.8099 12.0679 11.1548 9.61128 9.87844 9.44824Z" fill="#9DBB1D"/>
<path d="M10.3858 9.51433C8.78277 9.25772 7.67823 8.10016 7.67823 8.10016C7.67563 8.48481 8.92079 10.0886 9.74228 10.1071C10.5638 10.1255 10.9244 12.2307 10.9244 12.2307C10.9244 12.2307 11.9889 9.77095 10.3858 9.51433Z" fill="#749109"/>
<path d="M8.93292 10.5569C7.11008 10.3266 6.74268 9.74792 6.74268 9.74792C6.74268 9.74792 7.13854 11.8522 8.42698 12.1046C9.71542 12.357 10.9776 12.1609 10.9776 12.1609C10.9776 12.1609 10.7558 10.7874 8.93292 10.5569Z" fill="#749109"/>
<path d="M6.74268 9.74792C6.74268 9.74792 6.81884 11.9164 8.42698 12.1046C10.0351 12.2929 10.9776 12.1609 10.9776 12.1609C10.9776 12.1609 9.62484 11.3259 8.53446 11.1756C7.44408 11.0253 6.74268 9.74792 6.74268 9.74792Z" fill="#95C23C"/>
<path d="M21.9771 12.59C21.9771 12.59 24.2776 13.4426 25.2783 12.3951C26.279 11.3474 26.2791 11.3474 26.2791 11.3474C26.2791 11.3474 22.4927 11.1831 21.9771 12.59Z" fill="#95C23C"/>
<path d="M15.5216 4.68494C15.5216 4.68494 14.3701 7.71614 15.8605 8.49221C15.8605 8.49221 17.4278 6.84159 16.4748 5.76332C15.5216 4.68494 15.5216 4.68494 15.5216 4.68494Z" fill="#95C23C"/>
<path d="M23.1703 9.82236C21.7986 10.1835 20.9331 11.4833 20.9331 11.4833C22.7474 11.9436 22.8893 11.7178 23.4696 11.3846C24.2315 10.9471 25.5847 10.4178 25.5847 10.4178C25.5847 10.4178 24.5419 9.46126 23.1703 9.82236Z" fill="#9DBB1D"/>
<path d="M22.8849 10.7889C21.8391 10.8626 20.9331 11.4833 20.9331 11.4833C20.9331 11.4833 21.3707 11.6333 22.0435 11.8365C22.7164 12.0396 23.3127 11.8291 23.6007 11.5945C24.592 10.7869 25.5892 10.436 25.5892 10.436C24.5311 9.93984 23.9307 10.7151 22.8849 10.7889Z" fill="#749109"/>
<path d="M22.5839 10.6526C21.5335 10.7081 20.9331 11.4834 20.9331 11.4834C20.9331 11.4834 21.7823 10.9874 22.1992 10.9696C22.6161 10.9519 23.29 10.8116 24.1339 10.469C24.9779 10.1265 25.5894 10.436 25.5894 10.436C25.5894 10.436 25.0886 10.1256 24.705 10.0993C24.3211 10.0732 23.6344 10.5972 22.5839 10.6526Z" fill="#9DBB1D"/>
<path d="M22.0736 8.38731C20.2653 8.52102 19.6167 10.0655 19.6167 10.0655C19.6167 10.0655 21.3261 10.042 22.8383 9.96268C24.3507 9.8835 24.0293 7.67603 24.0293 7.67603C24.0293 7.67603 23.8819 8.25361 22.0736 8.38731Z" fill="#749109"/>
<path d="M22.0515 9.32642C20.803 9.15804 19.6167 10.0655 19.6167 10.0655C20.1111 9.65295 22.0144 10.6504 23.3977 9.79854C24.5251 9.10427 24.0293 7.67603 24.0293 7.67603C24.0293 7.67603 23.3001 9.49492 22.0515 9.32642Z" fill="#95C23C"/>
<path d="M17.1758 4.93573C17.1758 4.93573 17.6197 5.94639 16.6618 6.89019C15.7038 7.83399 16.7714 8.85501 16.7714 8.85501C16.7714 8.85501 17.7211 8.26009 18.5304 7.00852C19.3397 5.75684 17.1758 4.93573 17.1758 4.93573Z" fill="#749109"/>
<path d="M17.1756 4.93573C17.1756 4.93573 18.2349 6.30563 17.4898 6.98158C16.7447 7.65742 16.7711 8.85511 16.7711 8.85511C17.7085 8.78346 18.6362 6.92312 18.7586 6.13997C18.881 5.3567 17.1756 4.93573 17.1756 4.93573Z" fill="#7EA82C"/>
<path d="M19.9336 7.79038C19.616 9.21001 18.2842 9.14152 18.2842 9.14152C18.2842 9.14152 21.198 9.51581 21.4363 8.45107C21.6745 7.38632 23.1185 6.65289 23.1185 6.65289C23.1185 6.65289 20.2513 6.37075 19.9336 7.79038Z" fill="#95C23C"/>
<path d="M20.6573 8.31409C20.607 9.00237 18.0874 9.23205 18.0874 9.23205C18.0874 9.23205 20.9798 10.21 21.3409 8.87433C21.7019 7.53879 23.1187 6.65246 23.1187 6.65246C22.6608 6.63708 20.7076 7.62582 20.6573 8.31409Z" fill="#749109"/>
<path d="M18.3231 7.14203C17.9779 8.21387 18.1679 9.27916 18.1679 9.27916C18.1679 9.27916 19.8114 9.14066 20.1488 7.61993C20.4862 6.09909 21.1881 5.81107 21.1881 5.81107C21.1881 5.81107 18.6683 6.07019 18.3231 7.14203Z" fill="#749109"/>
<path d="M18.1338 7.44292C17.8539 8.78501 18.1676 9.27916 18.1676 9.27916C18.1676 9.27916 19.2088 8.17351 19.4255 7.26428C19.6421 6.35505 21.1878 5.81107 21.1878 5.81107C21.1878 5.81107 18.4137 6.10073 18.1338 7.44292Z" fill="#95C23C"/>
<path d="M17.4688 18.555C17.4688 18.555 16.4251 20.4752 17.6613 21.3275C18.8975 22.1798 18.8975 22.1798 18.8975 22.1798C18.8975 22.1798 19.139 19.0046 17.4688 18.555Z" fill="#95C23C"/>
<path d="M22.4253 13.4728C22.4253 13.4728 24.3732 14.8079 25.6697 14.0211C26.9662 13.2344 26.9662 13.2344 26.9662 13.2344C26.9662 13.2344 23.368 12.2316 22.4253 13.4728Z" fill="#9DBB1D"/>
<path d="M18.6987 17.5871C18.114 19.1813 18.3915 19.3102 18.7975 19.8278C19.3306 20.5074 19.9718 21.7105 19.9718 21.7105C19.9718 21.7105 21.1621 20.8053 20.7287 19.5887C20.2954 18.3721 18.6987 17.5871 18.6987 17.5871Z" fill="#9DBB1D"/>
<path d="M18.6988 17.587C18.6988 17.587 18.5096 17.9709 18.2527 18.5616C17.9957 19.1524 18.2502 19.6822 18.5372 19.9402C19.5251 20.8283 19.9493 21.7142 19.9493 21.7142C20.5713 20.7879 19.6196 20.2456 19.5381 19.3212C19.4568 18.3968 18.6988 17.587 18.6988 17.587Z" fill="#749109"/>
<path d="M22.2442 18.641C22.1067 17.122 20.5049 16.6055 20.5049 16.6055C20.5049 16.6055 20.5124 18.0401 20.5886 19.3101C20.6647 20.5801 23.2991 20.337 23.2991 20.337C23.2991 20.337 22.3817 20.16 22.2442 18.641Z" fill="#749109"/>
<path d="M21.3556 18.6575C21.5713 17.612 20.385 16.417 20.385 16.417C20.8707 16.8369 19.7785 18.6103 20.7769 19.7814C21.5906 20.7358 23.2984 20.3369 23.2984 20.3369C23.2984 20.3369 21.1398 19.7032 21.3556 18.6575Z" fill="#6B9909"/>
<path d="M24.324 14.164C23.211 13.3488 21.9814 14.2323 21.9814 14.2323C21.9814 14.2323 22.6789 15.0364 24.1605 15.7306C25.6421 16.4247 26.6467 14.6189 26.6467 14.6189C26.6467 14.6189 25.437 14.9793 24.324 14.164Z" fill="#749109"/>
<path d="M24.2052 14.8581C23.4088 14.2248 21.9814 14.2324 21.9814 14.2324C22.0555 15.0198 24.2611 15.8207 25.1928 15.9329C26.1245 16.0451 26.6467 14.619 26.6467 14.619C26.6467 14.619 25.0015 15.4914 24.2052 14.8581Z" fill="#7EA82C"/>
<path d="M23.2125 16.8988C21.5247 16.6151 21.6224 15.4983 21.6224 15.4983C21.6224 15.4983 21.1413 17.9389 22.4072 18.1515C23.673 18.3643 24.5296 19.5848 24.5296 19.5848C24.5296 19.5848 24.9003 17.1824 23.2125 16.8988Z" fill="#95C23C"/>
<path d="M22.5787 17.499C21.7592 17.4485 21.5159 15.3315 21.5159 15.3315C21.5159 15.3315 20.3158 17.7468 21.9029 18.0658C23.49 18.3848 24.5289 19.5845 24.5289 19.5845C24.553 19.2005 23.3984 17.5495 22.5787 17.499Z" fill="#749109"/>
<path d="M24.0036 15.5549C22.7307 15.2524 21.459 15.399 21.459 15.399C21.459 15.399 21.6042 16.7797 23.4123 17.0811C25.2203 17.3825 25.5551 17.975 25.5551 17.975C25.5551 17.975 25.2766 15.8573 24.0036 15.5549Z" fill="#749109"/>
<path d="M24.0036 15.555C22.4077 15.3039 21.459 15.399 21.459 15.399C21.459 15.399 22.7639 16.2861 23.8447 16.4788C24.9255 16.6715 25.5551 17.9751 25.5551 17.9751C25.5551 17.9751 25.5996 15.806 24.0036 15.555Z" fill="#9DBB1D"/>
<path d="M7.32655 15.1659C6.29102 16.1894 6.29102 16.1894 6.29102 16.1894C6.29102 16.1894 9.80336 16.9839 10.633 15.0494C10.633 15.0494 8.36196 14.1425 7.32655 15.1659Z" fill="#95C23C"/>
<path d="M16.4094 19.2993C16.4094 19.2993 14.6475 20.8054 15.4631 21.9605C16.2786 23.1156 16.2786 23.1156 16.2786 23.1156C16.2786 23.1156 18.3184 20.588 16.4094 19.2993Z" fill="#6B9909"/>
<path d="M9.10094 16.2186C8.32455 16.6378 6.9541 17.1349 6.9541 17.1349C6.9541 17.1349 7.96429 18.1158 9.34747 17.7873C10.7307 17.4588 11.6397 16.1801 11.6397 16.1801C9.84159 15.6769 9.69213 15.8993 9.10094 16.2186Z" fill="#9DBB1D"/>
<path d="M8.97682 16.0057C7.9587 16.7895 6.9502 17.1167 6.9502 17.1167C7.99132 17.6376 8.61747 16.8768 9.66536 16.8279C10.7132 16.779 11.6397 16.1801 11.6397 16.1801C11.6397 16.1801 11.2074 16.0196 10.5416 15.8006C9.87589 15.5816 9.27261 15.778 8.97682 16.0057Z" fill="#749109"/>
<path d="M8.40616 17.1184C7.55101 17.4408 6.9502 17.1169 6.9502 17.1169C6.9502 17.1169 7.44028 17.4391 7.82289 17.4744C8.20563 17.5098 8.90976 17.0023 9.96167 16.9717C11.0136 16.9412 11.6397 16.1803 11.6397 16.1803C11.6397 16.1803 10.7742 16.6559 10.3569 16.6639C9.9397 16.6718 9.26131 16.7961 8.40616 17.1184Z" fill="#9DBB1D"/>
<path d="M9.6832 17.6546C8.16888 17.6979 8.41581 19.9121 8.41581 19.9121C8.41581 19.9121 8.64156 19.1453 10.4536 19.0545C12.2657 18.9637 12.907 17.6282 12.907 17.6282C12.907 17.6282 11.1976 17.6113 9.6832 17.6546Z" fill="#749109"/>
<path d="M9.11911 17.8056C7.96869 18.4728 8.41628 19.9123 8.41628 19.9123C8.41628 19.9123 9.20645 18.1115 10.4488 18.3094C11.5438 18.4839 12.8308 17.7615 13.1208 17.5878C12.5219 17.8847 10.4807 17.0157 9.11911 17.8056Z" fill="#6B9909"/>
<path d="M13.1196 17.5879C13.1416 17.577 13.1621 17.565 13.1802 17.5507C13.1802 17.5507 13.1586 17.5646 13.1196 17.5879Z" fill="#6B9909"/>
<path d="M13.8908 20.7106C13.0397 21.9425 15.1751 22.8147 15.1751 22.8147C15.1751 22.8147 14.7653 21.7939 15.7547 20.8732C16.7441 19.9525 15.7113 18.9065 15.7113 18.9065C15.7113 18.9065 14.7419 19.4787 13.8908 20.7106Z" fill="#749109"/>
<path d="M15.7109 18.906C14.7714 18.9554 13.7816 20.7931 13.6328 21.573C13.484 22.3529 15.1747 22.8142 15.1747 22.8142C15.1747 22.8142 14.1619 21.4197 14.9294 20.7618C15.6969 20.1038 15.7109 18.906 15.7109 18.906Z" fill="#95C23C"/>
<path d="M11.034 19.1991C10.76 20.2578 9.29199 20.9568 9.29199 20.9568C9.29199 20.9568 12.1484 21.3067 12.5137 19.8952C12.8791 18.4836 14.2081 18.5836 14.2081 18.5836C14.2081 18.5836 11.308 18.1405 11.034 19.1991Z" fill="#6B9909"/>
<path d="M11.144 18.7782C10.7381 20.1047 9.29199 20.957 9.29199 20.957C9.74933 20.9834 11.735 20.0412 11.8084 19.3543C11.8819 18.6675 14.4082 18.4977 14.4082 18.4977C14.4082 18.4977 11.5498 17.4517 11.144 18.7782Z" fill="#749109"/>
<path d="M12.2931 20.0605C11.9046 21.5727 11.1934 21.8441 11.1934 21.8441C11.1934 21.8441 13.7209 21.6447 14.102 20.5815C14.4831 19.5183 14.3291 18.4488 14.3291 18.4488C14.3291 18.4488 12.6815 18.5484 12.2931 20.0605Z" fill="#749109"/>
<path d="M13.0039 20.4332C12.7567 21.3369 11.1934 21.8441 11.1934 21.8441C11.1934 21.8441 13.8686 21.9083 14.1937 20.5733C14.5186 19.2383 14.3291 18.4488 14.3291 18.4488C14.3291 18.4488 13.251 19.5294 13.0039 20.4332Z" fill="#9DBB1D"/>
<path d="M9.12766 13.6984C7.7168 14.4702 7.7168 14.4702 7.7168 14.4702C7.7168 14.4702 10.9765 16.1564 12.5055 14.4135C12.5055 14.4135 10.5385 12.9266 9.12766 13.6984Z" fill="#749109"/>
<path d="M10.0266 13.4298C8.47169 13.4566 7.72559 14.5153 7.72559 14.5153C7.72559 14.5153 10.2429 13.6913 12.447 14.4489C12.447 14.4489 11.5814 13.4029 10.0266 13.4298Z" fill="#7EA82C"/>
<path d="M10.8397 9.03394C9.28027 8.73392 9.28027 8.73392 9.28027 8.73392C9.28027 8.73392 10.0574 11.716 12.4859 11.4432C12.4859 11.4432 12.3991 9.33385 10.8397 9.03394Z" fill="#749109"/>
<path d="M9.25 8.7686C9.25 8.7686 11.582 9.66888 12.4191 11.4328C12.4191 11.4328 12.7001 10.2462 11.6523 9.37213C10.6046 8.49813 9.25 8.7686 9.25 8.7686Z" fill="#7EA82C"/>
<path d="M14.854 6.20758C14.854 6.20758 13.0141 8.84093 15.0188 10.0229C15.0188 10.0229 16.6603 8.42389 15.7571 7.31574C14.854 6.20758 14.854 6.20758 14.854 6.20758Z" fill="#749109"/>
<path d="M14.8042 6.2157C14.8042 6.2157 15.7897 8.20473 14.9786 9.97727C14.9786 9.97727 16.1442 9.26544 16.0812 8.02685C16.018 6.78815 14.8042 6.2157 14.8042 6.2157Z" fill="#7EA82C"/>
<path d="M17.6235 10.6786C17.6235 10.6786 20.1279 10.4844 20.3949 9.16068C20.662 7.83691 20.662 7.83691 20.662 7.83691C20.662 7.83691 17.1589 8.65988 17.6235 10.6786Z" fill="#749109"/>
<path d="M17.6318 10.6221C17.6318 10.6221 19.0596 10.7891 20.0392 9.86101C21.0188 8.93291 20.6189 7.81363 20.6189 7.81363C20.6189 7.81363 19.6822 9.81924 17.6318 10.6221Z" fill="#7EA82C"/>
<path d="M20.6997 13.1625C20.6997 13.1625 22.6543 14.4906 23.9468 13.6992C25.2391 12.9079 25.2391 12.9079 25.2391 12.9079C25.2391 12.9079 22.0464 11.4449 20.6997 13.1625Z" fill="#749109"/>
<path d="M20.7524 13.1264C20.7524 13.1264 21.6358 14.0824 23.1093 13.9916C24.5828 13.9009 25.2275 12.8653 25.2275 12.8653C25.2275 12.8653 22.8885 13.7527 20.7524 13.1264Z" fill="#7EA82C"/>
<path d="M18.3916 16.8629C18.3916 16.8629 18.5528 18.9691 20.122 19.2302C21.6915 19.4913 21.6915 19.4913 21.6915 19.4913C21.6915 19.4913 20.8093 16.5298 18.3916 16.8629Z" fill="#749109"/>
<path d="M18.4586 16.8713C18.4586 16.8713 18.2197 18.0643 19.2978 18.9121C20.376 19.7597 21.7205 19.4556 21.7205 19.4556C21.7205 19.4556 19.3575 18.6137 18.4586 16.8713Z" fill="#7EA82C"/>
<path d="M16.3675 19.8716C17.0264 21.095 17.0264 21.095 17.0264 21.095C17.0264 21.095 19.3855 18.7713 17.6573 17.314C17.6573 17.314 15.7085 18.6483 16.3675 19.8716Z" fill="#749109"/>
<path d="M16.197 19.1241C16.0017 20.3529 17.0779 21.0943 17.0779 21.0943C17.0779 21.0943 16.5209 18.9916 17.6881 17.3649C17.6881 17.3649 16.3924 17.8952 16.197 19.1241Z" fill="#7EA82C"/>
<path d="M10.4061 17.0503C9.70068 18.2553 9.70068 18.2553 9.70068 18.2553C9.70068 18.2553 13.3379 18.304 13.578 16.2579C13.578 16.2579 11.1114 15.8453 10.4061 17.0503Z" fill="#9DBB1D"/>
<path d="M10.9841 16.4643C9.73002 17.1197 9.7334 18.2882 9.7334 18.2882C9.7334 18.2882 11.3122 16.5896 13.5501 16.3102C13.5501 16.3102 12.2382 15.8088 10.9841 16.4643Z" fill="#7EA82C"/>
<path d="M10.0068 11.7771C8.42578 12.0077 8.42578 12.0077 8.42578 12.0077C8.42578 12.0077 11.1434 14.2397 12.6437 13.4687C12.6437 13.4687 11.5876 11.5464 10.0068 11.7771Z" fill="#9DBB1D"/>
<path d="M8.4292 12.0336C8.4292 12.0336 9.44875 13.106 10.555 13.4565C11.8451 13.8653 12.6379 13.4907 12.6379 13.4907C12.6379 13.4907 10.4612 11.9498 8.4292 12.0336Z" fill="#6B9909"/>
<path d="M13.1046 8.43594C11.812 7.63806 11.812 7.63806 11.812 7.63806C11.812 7.63806 12.1558 10.9407 13.8572 11.3159C13.8572 11.3159 14.3972 9.23382 13.1046 8.43594Z" fill="#9DBB1D"/>
<path d="M12.0393 9.93048C12.5808 10.9948 13.4516 11.2156 13.4516 11.2156C13.4516 11.2156 13.2703 8.83072 11.7917 7.65811C11.7917 7.65811 11.575 9.01787 12.0393 9.93048Z" fill="#6B9909"/>
<path d="M18.2485 7.03961C18.2485 7.03961 15.4897 9.23564 16.352 10.5224C16.352 10.5224 18.6805 9.70819 18.4645 8.37396C18.2485 7.03961 18.2485 7.03961 18.2485 7.03961Z" fill="#9DBB1D"/>
<path d="M16.4445 8.77146C15.9098 9.83818 16.3265 10.517 16.3265 10.517C16.3265 10.517 18.2424 8.74878 18.2179 7.04178C18.2179 7.04178 16.9029 7.85678 16.4445 8.77146Z" fill="#6B9909"/>
<path d="M19.2005 11.652C19.2005 11.652 22.116 11.5872 22.545 10.0725C22.974 8.55777 22.974 8.55777 22.974 8.55777C22.974 8.55777 18.9089 9.96279 19.2005 11.652Z" fill="#6B9909"/>
<path d="M19.1756 11.6368C19.1756 11.6368 22.1192 10.399 22.9397 8.5491C22.9397 8.5491 21.1169 8.96898 20.1687 9.79533C19.063 10.7592 19.1756 11.6368 19.1756 11.6368Z" fill="#9DBB1D"/>
<path d="M13.9822 19.0583C14.3889 19.8844 13.7842 20.9371 13.7842 20.9371C13.7842 20.9371 15.9178 20.0487 15.3756 18.9472C14.8334 17.8457 15.884 17.2686 15.884 17.2686C15.884 17.2686 13.5756 18.2321 13.9822 19.0583Z" fill="#7EA82C"/>
<path d="M13.8212 18.729C14.2883 19.7888 13.7843 20.9369 13.7843 20.9369C14.1092 20.7745 14.9324 19.8926 14.5945 18.858C14.3255 18.0346 15.8841 17.2685 15.8841 17.2685C15.8841 17.2685 13.3541 17.6693 13.8212 18.729Z" fill="#6B9909"/>
<path d="M11.197 14.8586C10.4892 15.5266 9.09668 15.5303 9.09668 15.5303C9.09668 15.5303 10.9814 16.7524 11.925 15.8617C12.8687 14.971 13.9463 15.5118 13.9463 15.5118C13.9463 15.5118 11.9046 14.1906 11.197 14.8586Z" fill="#7EA82C"/>
<path d="M11.4793 14.593C10.5474 15.4088 9.09668 15.5302 9.09668 15.5302C9.41275 15.7044 10.7178 15.9403 11.679 15.2331C12.444 14.6702 13.9463 15.5117 13.9463 15.5117C13.9463 15.5117 12.411 13.7774 11.4793 14.593Z" fill="#6B9909"/>
<path d="M11.7972 11.1778C10.8109 11.5152 9.55908 11.003 9.55908 11.003C9.55908 11.003 10.6079 12.7974 11.9231 12.3474C13.2382 11.8975 13.9211 12.7817 13.9211 12.7817C13.9211 12.7817 12.7834 10.8402 11.7972 11.1778Z" fill="#7EA82C"/>
<path d="M12.19 11.0441C10.925 11.4312 9.55908 11.003 9.55908 11.003C9.75104 11.2764 10.7983 11.9713 12.0326 11.6924C13.015 11.4705 13.921 12.7819 13.921 12.7819C13.921 12.7819 13.4549 10.657 12.19 11.0441Z" fill="#6B9909"/>
<path d="M22.4639 14.6918C21.6688 14.0969 19.8232 15.6075 19.8232 15.6075C19.8232 15.6075 20.8191 14.9657 21.8792 15.7588C22.9393 16.5519 24.6429 15.1549 24.6429 15.1549C24.6429 15.1549 23.259 15.2865 22.4639 14.6918Z" fill="#7EA82C"/>
<path d="M22.147 14.4557C21.109 13.7359 19.8232 15.6078 19.8232 15.6078C19.8232 15.6078 21.1995 14.6261 22.037 15.1108C23.0893 15.72 24.3531 15.359 24.6429 15.1552C24.6429 15.1552 23.185 15.1754 22.147 14.4557Z" fill="#6B9909"/>
<path d="M19.491 9.94099C18.4377 10.0739 18.6425 12.2306 18.6425 12.2306C18.6425 12.2306 18.6909 11.1776 20.0952 11.0004C21.4996 10.8231 21.3082 8.83087 21.3082 8.83087C21.3082 8.83087 20.5443 9.80805 19.491 9.94099Z" fill="#7EA82C"/>
<path d="M19.0722 9.99454C17.7492 10.2044 18.6426 12.2306 18.6426 12.2306C18.6426 12.2306 18.6225 10.7149 19.6022 10.4843C20.833 10.1947 21.31 9.14824 21.3084 8.83087C21.3084 8.83087 20.3952 9.78471 19.0722 9.99454Z" fill="#6B9909"/>
<path d="M14.8445 8.9878C13.9801 8.46552 13.833 7.30338 13.833 7.30338C13.833 7.30338 12.5775 9.00187 13.73 9.69822C14.8825 10.3947 14.3518 11.3497 14.3518 11.3497C14.3518 11.3497 15.7089 9.5102 14.8445 8.9878Z" fill="#7EA82C"/>
<path d="M15.1881 9.1964C14.1256 8.50223 13.8331 7.30356 13.8331 7.30356C13.6588 7.58526 13.513 8.69887 14.4499 9.42869C15.1955 10.0095 14.3519 11.35 14.3519 11.35C14.3519 11.35 16.2504 9.89056 15.1881 9.1964Z" fill="#6B9909"/>
<path d="M15.4663 7.29022C15.4663 7.29022 15.829 7.74064 15.3229 8.95087C14.8169 10.1611 15.5453 11.2215 15.5453 11.2215C15.5453 11.2215 16.5911 10.1304 16.8706 9.24021C17.1501 8.35006 15.4663 7.29022 15.4663 7.29022Z" fill="#9DBB1D"/>
<path d="M15.4658 7.29022C15.4658 7.29022 16.3091 8.21712 16.0172 8.94586C15.7255 9.67459 15.9296 10.8303 15.9296 10.8303C15.9296 10.8303 16.4106 10.302 16.8701 9.24021C17.3296 8.1784 15.4658 7.29022 15.4658 7.29022Z" fill="#7EA82C"/>
<path d="M21.6577 11.143C20.1309 11.0845 19.6875 12.1717 19.6875 12.1717C19.6875 12.1717 20.6765 12.5015 21.7727 12.47C22.869 12.4386 23.5941 10.7804 23.5941 10.7804C23.5941 10.7804 23.1844 11.2016 21.6577 11.143Z" fill="#9DBB1D"/>
<path d="M21.8633 11.7C20.9477 11.6751 19.6875 12.1717 19.6875 12.1717C19.6875 12.1717 20.4288 12.4063 21.7727 12.47C23.1168 12.5338 23.5941 10.7804 23.5941 10.7804C23.5941 10.7804 22.7789 11.7248 21.8633 11.7Z" fill="#7EA82C"/>
<path d="M22.0862 15.9267C21.0517 14.9826 19.8242 15.4921 19.8242 15.4921C19.8242 15.4921 20.2493 16.3108 21.0538 16.9366C21.8582 17.5624 23.7649 16.814 23.7649 16.814C23.7649 16.814 23.1207 16.8708 22.0862 15.9267Z" fill="#9DBB1D"/>
<path d="M21.7645 16.4431C21.1355 15.8841 19.8242 15.4916 19.8242 15.4916C19.8242 15.4916 20.1534 16.0964 21.0538 16.9361C21.9542 17.776 23.7649 16.8135 23.7649 16.8135C23.7649 16.8135 22.3936 17.0021 21.7645 16.4431Z" fill="#7EA82C"/>
<path d="M16.3625 17.0289C16.3625 17.0289 15.6034 17.6549 15.195 18.5092C14.7864 19.3634 16.3009 20.5899 16.3009 20.5899C16.3009 20.5899 16.0074 20.1054 16.688 18.957C17.3686 17.8086 16.3625 17.0289 16.3625 17.0289Z" fill="#9DBB1D"/>
<path d="M16.363 17.0291C16.363 17.0291 15.8078 17.5034 15.1954 18.5094C14.5829 19.5153 16.3014 20.5901 16.3014 20.5901C16.3014 20.5901 15.6012 19.5829 15.9983 18.89C16.3953 18.1971 16.363 17.0291 16.363 17.0291Z" fill="#6B9909"/>
<path d="M12.7746 13.1611C11.7961 12.7449 10.208 13.9041 10.208 13.9041C10.208 13.9041 10.8089 13.7011 12.1127 14.3703C13.4166 15.0394 14.4299 14.2664 14.4299 14.2664C14.4299 14.2664 13.753 13.5772 12.7746 13.1611Z" fill="#9DBB1D"/>
<path d="M12.7746 13.1613C11.6338 12.5615 10.208 13.9043 10.208 13.9043C10.208 13.9043 11.4649 13.4069 12.2527 13.7993C13.0405 14.1917 14.4299 14.2666 14.4299 14.2666C14.4299 14.2666 13.9153 13.7611 12.7746 13.1613Z" fill="#7EA82C"/>
<path d="M12.484 17.9682C12.2524 19.1466 12.2524 19.1466 12.2524 19.1466C12.2524 19.1466 15.3649 18.4035 14.9427 16.6091C14.9427 16.6091 12.7158 16.7898 12.484 17.9682Z" fill="#95C23C"/>
<path d="M12.7972 17.3447C11.9299 18.1734 12.2907 19.1678 12.2907 19.1678C12.2907 19.1678 13.1149 17.3806 14.9353 16.66C14.9353 16.66 13.6644 16.5159 12.7972 17.3447Z" fill="#7EA82C"/>
<path d="M13.097 10.4928C11.6851 10.2795 11.6851 10.2795 11.6851 10.2795C11.6851 10.2795 12.5316 12.923 14.6929 12.5923C14.6929 12.5923 14.5089 10.7062 13.097 10.4928Z" fill="#9DBB1D"/>
<path d="M13.8414 10.767C12.8589 10.0213 11.6592 10.3117 11.6592 10.3117C11.6592 10.3117 13.7934 11.0352 14.6321 12.5855C14.6321 12.5855 14.8239 11.5127 13.8414 10.767Z" fill="#7EA82C"/>
<path d="M16.7169 11.5272C16.7169 11.5272 18.9535 11.2852 19.1417 10.0917C19.3299 8.89822 19.3299 8.89822 19.3299 8.89822C19.3299 8.89822 16.2226 9.73079 16.7169 11.5272Z" fill="#86B825"/>
<path d="M16.7222 11.476C16.7222 11.476 18.0081 11.5868 18.85 10.7285C19.6919 9.8702 19.2905 8.87808 19.2905 8.87808C19.2905 8.87808 18.5285 10.7008 16.7222 11.476Z" fill="#7EA82C"/>
<path d="M19.1294 13.896C19.1294 13.896 20.7009 15.2534 21.952 14.6645C23.2033 14.0755 23.2033 14.0755 23.2033 14.0755C23.2033 14.0755 20.5468 12.4874 19.1294 13.896Z" fill="#9DBB1D"/>
<path d="M19.1807 13.8693C19.1807 13.8693 19.8457 14.7995 21.1691 14.8506C22.4925 14.9018 23.1982 14.0374 23.1982 14.0374C23.1982 14.0374 21.0029 14.6181 19.1807 13.8693Z" fill="#6B9909"/>
<path d="M18.8438 15.3737C18.8438 15.3737 18.8201 17.2662 20.2027 17.5875C21.5852 17.9089 21.5852 17.9089 21.5852 17.9089C21.5852 17.9089 21.0322 15.2114 18.8438 15.3737Z" fill="#9DBB1D"/>
<path d="M18.9029 15.3851C18.9029 15.3851 18.5942 16.4385 19.4908 17.2569C20.3874 18.0753 21.6138 17.8787 21.6138 17.8787C21.6138 17.8787 19.568 16.9936 18.9029 15.3851Z" fill="#7EA82C"/>
<path d="M14.7259 17.9337C15.0565 18.9305 15.0565 18.9305 15.0565 18.9305C15.0565 18.9305 17.1786 17.3932 16.0662 16.1128C16.0662 16.1128 14.3953 16.9368 14.7259 17.9337Z" fill="#86B825"/>
<path d="M14.7013 17.3476C14.3806 18.2643 15.0965 18.935 15.0965 18.935C15.0965 18.935 14.9666 17.2785 16.0832 16.1547C16.0832 16.1547 15.0221 16.4308 14.7013 17.3476Z" fill="#7EA82C"/>
<path d="M12.1166 15.4666C11.2539 16.2058 11.2539 16.2058 11.2539 16.2058C11.2539 16.2058 13.9021 16.9778 14.6659 15.5287C14.6659 15.5287 12.9793 14.7274 12.1166 15.4666Z" fill="#9DBB1D"/>
<path d="M12.7083 15.1551C11.6019 15.3809 11.2686 16.2368 11.2686 16.2368C11.2686 16.2368 12.9123 15.3132 14.6307 15.5618C14.6307 15.5618 13.8145 14.9292 12.7083 15.1551Z" fill="#6B9909"/>
<path d="M12.3403 12.1282C11.1064 12.4076 11.1064 12.4076 11.1064 12.4076C11.1064 12.4076 12.9878 14.2657 14.5781 13.3087C14.5781 13.3087 13.574 11.8486 12.3403 12.1282Z" fill="#9DBB1D"/>
<path d="M13.064 12.1111C11.9343 11.8246 11.1001 12.4417 11.1001 12.4417C11.1001 12.4417 13.1471 12.3423 14.526 13.3227C14.526 13.3227 14.1936 12.3977 13.064 12.1111Z" fill="#6B9909"/>
<path d="M14.7287 9.94276C13.6187 9.49234 13.6187 9.49234 13.6187 9.49234C13.6187 9.49234 13.5913 11.8448 15.4714 11.9902C15.4714 11.9902 15.8387 10.3932 14.7287 9.94276Z" fill="#86B825"/>
<path d="M13.5884 9.51401C13.5884 9.51401 15.1557 10.527 15.4229 11.9729C15.4229 11.9729 15.8771 11.1221 15.2693 10.3142C14.6613 9.50627 13.5884 9.51401 13.5884 9.51401Z" fill="#7EA82C"/>
<path d="M16.523 8.97601C16.523 8.97601 14.8026 10.8334 16.1932 11.9052C16.1932 11.9052 17.6385 10.8215 17.0808 9.89877C16.5231 8.97601 16.523 8.97601 16.523 8.97601Z" fill="#6B9909"/>
<path d="M16.4835 8.97821C16.4835 8.97821 16.999 10.581 16.1675 11.8671C16.1675 11.8671 17.1432 11.4213 17.2429 10.4695C17.3427 9.51773 16.4835 8.97821 16.4835 8.97821Z" fill="#7EA82C"/>
<path d="M18.5302 12.6916C18.5302 12.6916 20.465 12.597 20.712 11.5833C20.9589 10.5695 20.9589 10.5695 20.9589 10.5695C20.9589 10.5695 18.2351 11.1266 18.5302 12.6916Z" fill="#9DBB1D"/>
<path d="M18.5381 12.6482C18.5381 12.6482 19.6326 12.8081 20.4159 12.1147C21.1993 11.4213 20.9261 10.5504 20.9261 10.5504C20.9261 10.5504 20.1423 12.0748 18.5381 12.6482Z" fill="#6B9909"/>
<path d="M19.1831 13.1346C19.1831 13.1346 20.9475 13.8078 21.7291 13.0077C22.5106 12.2075 22.5106 12.2075 22.5106 12.2075C22.5106 12.2075 19.7916 11.6347 19.1831 13.1346Z" fill="#9DBB1D"/>
<path d="M19.2139 13.0993C19.2139 13.0993 20.0933 13.6689 21.1715 13.362C22.2498 13.055 22.4919 12.1777 22.4919 12.1777C22.4919 12.1777 20.9517 13.2196 19.2139 13.0993Z" fill="#7EA82C"/>
<path d="M18.9541 14.6025C18.9541 14.6025 19.8009 16.0656 21.0111 15.8677C22.2213 15.6699 22.2213 15.6699 22.2213 15.6699C22.2213 15.6699 20.5629 13.7734 18.9541 14.6025Z" fill="#95C23C"/>
<path d="M20.3127 15.8427C21.3763 16.1836 22.2297 15.6376 22.2297 15.6376C22.2297 15.6376 20.2516 15.6153 19.0049 14.5923C19.0049 14.5923 19.2491 15.5018 20.3127 15.8427Z" fill="#7EA82C"/>
<path d="M17.3919 16.1463C17.3919 16.1463 16.7964 17.6941 17.833 18.2543C18.8696 18.8146 18.8696 18.8146 18.8696 18.8146C18.8696 18.8146 19.2371 16.4823 17.3919 16.1463Z" fill="#9DBB1D"/>
<path d="M17.437 16.1685C17.437 16.1685 16.8629 16.9668 17.3495 17.8306C17.8361 18.6945 18.9023 18.7961 18.9023 18.7961C18.9023 18.7961 17.4931 17.6311 17.437 16.1685Z" fill="#7EA82C"/>
<path d="M13.315 16.4827C13.0527 17.4937 13.0527 17.4937 13.0527 17.4937C13.0527 17.4937 15.7847 16.9657 15.5134 15.3978C15.5134 15.3978 13.5773 15.4717 13.315 16.4827Z" fill="#9DBB1D"/>
<path d="M13.6195 15.9546C12.8257 16.6396 13.0856 17.5132 13.0856 17.5132C13.0856 17.5132 13.8926 15.9975 15.5053 15.4412C15.5053 15.4412 14.4133 15.2696 13.6195 15.9546Z" fill="#6B9909"/>
<path d="M13.5162 14.3437C12.4331 14.8382 12.4331 14.8382 12.4331 14.8382C12.4331 14.8382 14.6952 16.2278 15.9318 15.0305C15.9318 15.0305 14.5993 13.8492 13.5162 14.3437Z" fill="#86B825"/>
<path d="M14.1905 14.1911C13.0539 14.1348 12.436 14.8711 12.436 14.8711C12.436 14.8711 14.3304 14.3926 15.8864 15.053C15.8864 15.053 15.327 14.2474 14.1905 14.1911Z" fill="#7EA82C"/>
<path d="M13.847 13.0661C12.7676 13.4778 12.7676 13.4778 12.7676 13.4778C12.7676 13.4778 14.8232 14.9413 16.1075 13.8643C16.1075 13.8643 14.9264 12.6545 13.847 13.0661Z" fill="#6B9909"/>
<path d="M14.5072 12.9593C13.4216 12.8397 12.7686 13.5102 12.7686 13.5102C12.7686 13.5102 14.6247 13.1607 16.063 13.8839C16.063 13.8839 15.5928 13.0789 14.5072 12.9593Z" fill="#7EA82C"/>
<path d="M15.6881 11.0114C14.6955 10.5469 14.6955 10.5469 14.6955 10.5469C14.6955 10.5469 14.5199 12.7105 16.2407 12.929C16.2407 12.929 16.6808 11.4759 15.6881 11.0114Z" fill="#9DBB1D"/>
<path d="M14.6665 10.5653C14.6665 10.5653 16.0441 11.568 16.1976 12.9107C16.1976 12.9107 16.67 12.1482 16.1622 11.3774C15.6545 10.6066 14.6665 10.5653 14.6665 10.5653Z" fill="#7EA82C"/>
<path d="M17.1775 10.2392C17.1775 10.2392 15.4839 11.8772 16.7005 12.9216C16.7005 12.9216 18.095 11.9844 17.6362 11.1118C17.1775 10.2392 17.1775 10.2392 17.1775 10.2392Z" fill="#9DBB1D"/>
<path d="M17.1412 10.2392C17.1412 10.2392 17.5208 11.736 16.6792 12.8851C16.6792 12.8851 17.6038 12.5154 17.7519 11.6435C17.9001 10.7715 17.1412 10.2392 17.1412 10.2392Z" fill="#7EA82C"/>
<path d="M16.6593 15.6962C16.6593 15.6962 15.359 17.5701 16.786 18.4062C16.786 18.4062 17.9481 17.2674 17.3036 16.4817C16.6593 15.6962 16.6593 15.6962 16.6593 15.6962Z" fill="#6B9909"/>
<path d="M16.6235 15.7023C16.6235 15.7023 17.3287 17.1136 16.7569 18.3742C16.7569 18.3742 17.5832 17.8665 17.5352 16.9866C17.4873 16.1068 16.6235 15.7023 16.6235 15.7023Z" fill="#9DBB1D"/>
<path d="M17.7533 13.2951C17.7533 13.2951 19.5392 13.3378 19.8623 12.4235C20.1855 11.5091 20.1855 11.5091 20.1855 11.5091C20.1855 11.5091 17.6312 11.8382 17.7533 13.2951Z" fill="#6B9909"/>
<path d="M17.7646 13.2553C17.7646 13.2553 18.7546 13.4755 19.5399 12.8912C20.3253 12.307 20.1572 11.489 20.1572 11.489C20.1572 11.489 19.2925 12.8362 17.7646 13.2553Z" fill="#7EA82C"/>
<path d="M17.707 13.6755C17.707 13.6755 19.4229 14.093 20.0093 13.276C20.5956 12.4589 20.5956 12.4589 20.5956 12.4589C20.5956 12.4589 18.0248 12.2395 17.707 13.6755Z" fill="#86B825"/>
<path d="M17.73 13.64C17.73 13.64 18.6223 14.0616 19.5572 13.6614C20.4922 13.2613 20.5742 12.4341 20.5742 12.4341C20.5742 12.4341 19.3341 13.556 17.73 13.64Z" fill="#7EA82C"/>
<path d="M18.1338 14.0965C18.1338 14.0965 19.0429 15.3872 20.137 15.1291C21.2312 14.8711 21.2312 14.8711 21.2312 14.8711C21.2312 14.8711 19.5376 13.2331 18.1338 14.0965Z" fill="#9DBB1D"/>
<path d="M18.1797 14.084C18.1797 14.084 18.4855 14.9041 19.4932 15.1501C20.5009 15.3962 21.236 14.8408 21.236 14.8408C21.236 14.8408 19.4168 14.9451 18.1797 14.084Z" fill="#7EA82C"/>
<path d="M17.897 15.2664C17.897 15.2664 17.6442 16.7506 18.6902 17.1236C19.7363 17.4966 19.7363 17.4965 19.7363 17.4965C19.7363 17.4965 19.6357 15.3296 17.897 15.2664Z" fill="#86B825"/>
<path d="M17.9421 15.2805C17.9421 15.2805 17.5693 16.0808 18.1721 16.8018C18.775 17.5228 19.7625 17.4753 19.7625 17.4753C19.7625 17.4753 18.2653 16.6016 17.9421 15.2805Z" fill="#6B9909"/>
<path d="M17.6945 11.5467C17.4233 12.2112 17.4902 12.8904 17.4902 12.8904C17.4902 12.8904 18.5346 12.8605 18.8232 11.9124C19.1119 10.9642 19.5692 10.8068 19.5692 10.8068C19.5692 10.8068 17.9657 10.8822 17.6945 11.5467Z" fill="#6B9909"/>
<path d="M17.6949 11.5469C17.4515 12.3844 17.4906 12.8907 17.4906 12.8907C17.4906 12.8907 18.2029 12.2292 18.3849 11.6628C18.5668 11.0963 19.5696 10.8071 19.5696 10.8071C19.5696 10.8071 17.9383 10.7095 17.6949 11.5469Z" fill="#86B825"/>
<path d="M18.6502 13.5368C17.8814 13.7152 17.2808 14.1247 17.2808 14.1247C17.2808 14.1247 17.8705 14.7981 18.9146 14.4786C19.9587 14.1591 20.3523 14.3764 20.3523 14.3764C20.3523 14.3764 19.419 13.3584 18.6502 13.5368Z" fill="#6B9909"/>
<path d="M18.6502 13.5368C17.7342 13.8265 17.2808 14.1247 17.2808 14.1247C17.2808 14.1247 18.2839 14.2391 18.9128 14.0546C19.5417 13.8701 20.3521 14.3764 20.3521 14.3764C20.3521 14.3764 19.5661 13.2471 18.6502 13.5368Z" fill="#86B825"/>
<path d="M15.0252 15.9796C14.5533 16.8746 14.0713 16.9662 14.0713 16.9662C14.0713 16.9662 15.6676 17.1147 16.0662 16.4971C16.4648 15.8795 16.5329 15.2004 16.5329 15.2004C16.5329 15.2004 15.4971 15.0847 15.0252 15.9796Z" fill="#6B9909"/>
<path d="M15.4086 16.2872C15.1174 16.8205 14.0713 16.9664 14.0713 16.9664C14.0713 16.9664 15.6609 17.2894 16.0662 16.4973C16.4716 15.7052 16.5329 15.2006 16.5329 15.2006C16.5329 15.2006 15.6998 15.754 15.4086 16.2872Z" fill="#86B825"/>
<path d="M16.9212 14.9581C16.9212 14.9581 16.4207 15.7278 17.2469 16.4186C18.0731 17.1094 18.0018 17.5199 18.0018 17.5199C18.0018 17.5199 18.74 16.3228 18.1961 15.789C17.6521 15.2551 16.9212 14.9581 16.9212 14.9581Z" fill="#6B9909"/>
<path d="M16.9214 14.9581C16.9214 14.9581 17.2378 15.8092 17.7265 16.2287C18.2152 16.6483 18.002 17.52 18.002 17.52C18.002 17.52 18.9318 16.3909 18.1963 15.7891C17.4607 15.1872 16.9214 14.9581 16.9214 14.9581Z" fill="#86B825"/>
<path d="M15.2301 11.8909C13.9062 11.3873 13.7757 10.8821 13.7757 10.8821C13.7757 10.8821 13.537 12.55 14.4498 12.9739C15.3626 13.3977 16.3704 13.4767 16.3704 13.4767C16.3704 13.4767 16.554 12.3946 15.2301 11.8909Z" fill="#6B9909"/>
<path d="M14.7694 12.2885C13.9807 11.9779 13.7759 10.8822 13.7759 10.8822C13.7759 10.8822 13.2782 12.541 14.45 12.974C15.6217 13.4069 16.3705 13.4767 16.3705 13.4767C16.3705 13.4767 15.558 12.5991 14.7694 12.2885Z" fill="#86B825"/>
<path d="M15.503 15.8817C15.8635 16.7861 15.8635 16.7861 15.8635 16.7861C15.8635 16.7861 17.7304 15.2867 16.6342 14.1522C16.6342 14.1522 15.1425 14.9773 15.503 15.8817Z" fill="#9DBB1D"/>
<path d="M15.4467 15.3431C15.203 16.1998 15.8999 16.7888 15.8999 16.7888C15.8999 16.7888 15.687 15.2691 16.6516 14.1901C16.6516 14.1901 15.6904 14.4864 15.4467 15.3431Z" fill="#7EA82C"/>
<path d="M18.4846 14.5606C17.3545 14.4593 17.3545 14.4593 17.3545 14.4593C17.3545 14.4593 18.2022 16.5078 19.8877 16.1436C19.8877 16.1436 19.6147 14.6619 18.4846 14.5606Z" fill="#6B9909"/>
<path d="M19.0911 14.7416C18.2643 14.1991 17.3359 14.4858 17.3359 14.4858C17.3359 14.4858 19.0713 14.9558 19.8389 16.141C19.8389 16.141 19.9179 15.2842 19.0911 14.7416Z" fill="#7EA82C"/>
<path d="M16.9783 14.0269C16.9783 14.0269 16.6937 15.1394 17.4621 15.4681C18.2306 15.7967 18.2306 15.7967 18.2306 15.7967C18.2306 15.7967 18.2908 14.1518 16.9783 14.0269Z" fill="#9DBB1D"/>
<path d="M17.0118 14.0399C17.0118 14.0399 16.6792 14.6294 17.0904 15.2019C17.5016 15.7743 18.2521 15.7822 18.2521 15.7822C18.2521 15.7822 17.1734 15.0545 17.0118 14.0399Z" fill="#7EA82C"/>
<path d="M15.2781 13.9277C14.4153 14.4528 13.9844 14.3391 13.9844 14.3391C13.9844 14.3391 15.1642 15.0721 15.8172 14.7379C16.4703 14.4037 16.8959 13.8934 16.8959 13.8934C16.8959 13.8934 16.141 13.4025 15.2781 13.9277Z" fill="#95C23C"/>
<path d="M13.9844 14.3393C13.9844 14.3393 15.0632 15.2075 15.8172 14.7381C16.5711 14.2687 16.8959 13.8936 16.8959 13.8936C16.8959 13.8936 15.9348 14.0095 15.4127 14.3185C14.8906 14.6274 13.9844 14.3393 13.9844 14.3393Z" fill="#6B9909"/>
<path d="M17.799 11.4815C17.799 11.4815 16.2513 12.2852 16.8085 13.2014C16.8085 13.2014 17.9803 12.8163 17.8897 12.149C17.799 11.4815 17.799 11.4815 17.799 11.4815Z" fill="#9DBB1D"/>
<path d="M16.8027 13.1735C16.8027 13.1735 17.5167 13.0875 17.834 12.5272C18.1513 11.967 17.7739 11.4756 17.7739 11.4756C17.7739 11.4756 17.6555 12.5487 16.8027 13.1735Z" fill="#7EA82C"/>
<path d="M16.7031 13.4465C16.7031 13.4465 17.8815 13.8169 18.3454 13.2695C18.8094 12.7221 18.8094 12.7221 18.8094 12.7221C18.8094 12.7221 17.0179 12.4523 16.7031 13.4465Z" fill="#9DBB1D"/>
<path d="M18.0041 13.5198C18.6863 13.2808 18.7967 12.7036 18.7967 12.7036C18.7967 12.7036 17.8541 13.4357 16.7222 13.4225C16.7222 13.4225 17.3219 13.7587 18.0041 13.5198Z" fill="#7EA82C"/>
<path d="M16.7349 13.5332C16.7349 13.5332 17.3137 14.4708 18.0952 14.3254C18.8766 14.1801 18.8766 14.1801 18.8766 14.1801C18.8766 14.1801 17.7625 12.9723 16.7349 13.5332Z" fill="#9DBB1D"/>
<path d="M16.7686 13.5255C16.7686 13.5255 16.9452 14.1124 17.6423 14.3187C18.3394 14.5249 18.8824 14.1587 18.8824 14.1587C18.8824 14.1587 17.5981 14.1719 16.7686 13.5255Z" fill="#7EA82C"/>
<path d="M16.9302 13.3888C16.9302 13.3888 16.0676 14.1577 16.49 14.7284C16.9124 15.299 16.9124 15.299 16.9124 15.299C16.9124 15.299 17.9012 14.0167 16.9302 13.3888Z" fill="#9DBB1D"/>
<path d="M16.3477 14.3668C16.3466 14.9872 16.9383 15.2957 16.9383 15.2957C16.9383 15.2957 16.4979 14.2833 16.9499 13.4122C16.9499 13.4122 16.3487 13.7465 16.3477 14.3668Z" fill="#7EA82C"/>
<path d="M15.3107 13.4746C14.7451 13.95 14.7451 13.95 14.7451 13.95C14.7451 13.95 16.4587 14.4648 16.9653 13.5281C16.9653 13.5281 15.8763 12.9992 15.3107 13.4746Z" fill="#9DBB1D"/>
<path d="M15.6976 13.2752C14.9778 13.4161 14.7549 13.97 14.7549 13.97C14.7549 13.97 15.8289 13.3789 16.9427 13.5492C16.9427 13.5492 16.4175 13.1344 15.6976 13.2752Z" fill="#7EA82C"/>
<path d="M16.1001 12.3282C15.3198 12.1783 15.3198 12.1783 15.3198 12.1783C15.3198 12.1783 15.7092 13.6703 16.9241 13.5334C16.9241 13.5334 16.8804 12.4782 16.1001 12.3282Z" fill="#9DBB1D"/>
<path d="M15.3047 12.1961C15.3047 12.1961 16.4716 12.6463 16.8907 13.5288C16.8907 13.5288 17.0311 12.9351 16.5068 12.4979C15.9824 12.0606 15.3047 12.1961 15.3047 12.1961Z" fill="#7EA82C"/>
</svg>
