<svg width="30" height="29" viewBox="0 0 30 29" fill="none" xmlns="http://www.w3.org/2000/svg">
<path d="M28.687 12.8915C29.0796 12.7825 29.3575 12.3868 29.3104 12.0041C29.2631 11.6214 28.8962 11.2963 28.4875 11.2748C29.3232 10.6953 29.751 9.59955 29.4043 8.67875C29.0574 7.75794 27.8958 7.15173 26.9096 7.45651C27.2988 6.98586 27.5937 6.36524 27.3868 5.8014C27.1799 5.23769 26.2645 4.95118 25.892 5.43376C26.0352 4.79264 25.6213 4.08231 24.97 3.85133C24.3186 3.62023 23.3594 3.68235 23.0174 4.25278C23.1469 3.86525 23.2524 3.4525 23.1593 3.0559C23.0662 2.65917 22.719 2.28842 22.2874 2.27798C21.8744 2.26804 21.5342 2.57021 21.2694 2.86841C21.3434 1.98066 21.1954 0.982571 20.4681 0.412893C19.8266 -0.0895661 18.8563 -0.11454 18.1091 0.235591C17.362 0.585722 16.8257 1.25628 16.5168 1.98599C16.5901 1.3824 15.9428 0.743637 15.3086 0.630199C14.6744 0.51676 13.9843 0.924297 13.817 1.51112C13.1078 0.696426 11.8387 0.421212 10.7623 0.709219C9.68589 0.997226 9.07871 2.05843 8.84081 3.00085C8.539 2.5548 7.57946 1.9445 6.78494 2.34855C6.29064 2.60003 6.08257 3.24724 6.32945 3.72236C5.44952 3.38876 4.37155 3.75939 3.81335 4.48127C3.25529 5.20327 3.18426 6.19689 3.49861 7.03929C2.85314 6.92747 2.14959 7.25983 1.85901 7.81373C1.56842 8.36762 1.71602 9.09535 2.20293 9.50959C1.80606 9.50288 1.42372 9.77884 1.32761 10.1413C1.2315 10.5037 1.7955 11.1801 2.14906 11.3498C1.16892 11.6642 0.0706129 12.3034 0.00486514 13.276C-0.0608826 14.2485 0.545503 15.232 1.47548 15.6607C0.903683 15.8082 0.483319 16.3631 0.521606 16.92C0.559892 17.4768 1.4224 17.8789 2.00964 17.9557C1.39375 18.3999 0.823676 19.3791 1.19281 20.0214C1.56195 20.6637 2.45602 20.9888 3.18809 20.7467C2.97183 21.0201 3.00497 21.4415 3.26176 21.6817C3.51854 21.922 4.42937 21.8637 4.7185 21.6586C4.37353 22.6129 4.19688 23.8297 4.96222 24.5352C5.72756 25.2405 6.93373 25.4863 7.94041 25.1419C7.78528 25.4853 7.94542 25.9269 8.29119 26.1094C8.63696 26.2919 9.12096 26.1901 9.35134 25.8866C9.53855 26.7544 10.3737 27.4613 11.3104 27.5451C12.2471 27.6288 13.2088 27.0824 13.5662 26.2633C13.8433 27.0897 14.5747 27.768 15.4568 28.0167C16.3387 28.2655 17.346 28.0774 18.0604 27.5307C19.1385 26.7055 19.4218 25.2911 19.6339 23.9985C19.9685 24.6293 20.515 25.2475 21.2591 25.33C22.0032 25.4125 22.7935 24.6249 22.4164 24.0156C23.0341 24.5677 23.9959 24.8252 24.77 24.4903C25.544 24.1553 25.9536 23.1456 25.4731 22.4835C26.0048 22.8791 26.8913 22.5358 27.1063 21.9308C27.3212 21.3258 26.968 20.6341 26.4095 20.273C27.2029 20.7965 28.4294 20.2828 28.7559 19.4241C29.0825 18.5655 28.8618 17.7384 28.1498 17.1198C28.8956 16.6402 29.5099 15.9276 29.6745 15.0917C29.8397 14.2559 29.4754 13.3064 28.687 12.8915Z" fill="#79AE28"/>
<path d="M18.9136 12.8163C19.0315 12.7835 19.1151 12.6647 19.1008 12.5498C19.0867 12.4348 18.9765 12.3372 18.8537 12.3307C19.1047 12.1566 19.2331 11.8275 19.1291 11.5509C19.0249 11.2743 18.676 11.0923 18.3797 11.1838C18.4967 11.0424 18.5853 10.856 18.5231 10.6866C18.4609 10.5173 18.1861 10.4313 18.0741 10.5762C18.1171 10.3836 17.9928 10.1703 17.7971 10.1008C17.6014 10.0314 17.3134 10.05 17.2107 10.2215C17.2496 10.105 17.2813 9.98104 17.2533 9.86189C17.2253 9.74273 17.121 9.63141 16.9915 9.62831C16.8674 9.62533 16.7652 9.71603 16.6857 9.80561C16.708 9.53897 16.6636 9.23916 16.4451 9.06807C16.2523 8.91711 15.9609 8.90965 15.7365 9.01476C15.512 9.12 15.351 9.32141 15.2583 9.54058C15.2803 9.3593 15.0859 9.16747 14.8954 9.1333C14.7049 9.09926 14.4976 9.22164 14.4474 9.39795C14.2345 9.15331 13.8532 9.07055 13.5298 9.15715C13.2065 9.24363 13.0242 9.56246 12.9526 9.84549C12.8619 9.71155 12.5737 9.52816 12.3352 9.64955C12.1866 9.72509 12.1242 9.91954 12.1984 10.0622C11.9341 9.96191 11.6102 10.0732 11.4427 10.2902C11.275 10.507 11.2538 10.8054 11.3482 11.0585C11.1542 11.025 10.943 11.1248 10.8557 11.2911C10.7684 11.4575 10.8128 11.676 10.9591 11.8005C10.8399 11.7985 10.725 11.8814 10.6961 11.9903C10.6672 12.0991 10.8367 12.3022 10.9428 12.3533C10.6484 12.4477 10.3185 12.6397 10.2988 12.9318C10.279 13.2239 10.4612 13.5193 10.7406 13.6481C10.5688 13.6925 10.4426 13.8591 10.4541 14.0263C10.4656 14.1936 10.7246 14.3143 10.901 14.3374C10.716 14.4709 10.5448 14.765 10.6557 14.9579C10.7666 15.1509 11.0351 15.2485 11.2549 15.1759C11.19 15.258 11.2 15.3846 11.2771 15.4567C11.3542 15.5289 11.6278 15.5113 11.7147 15.4497C11.611 15.7363 11.5579 16.1019 11.7878 16.3137C12.0176 16.5256 12.3799 16.5994 12.6824 16.496C12.6358 16.5991 12.6838 16.7318 12.7877 16.7866C12.8916 16.8414 13.037 16.8108 13.1062 16.7196C13.1624 16.9803 13.4133 17.1927 13.6946 17.2177C13.976 17.2428 14.2648 17.0787 14.3722 16.8327C14.4555 17.081 14.6751 17.2846 14.94 17.3594C15.2048 17.4342 15.5074 17.3777 15.722 17.2134C16.0458 16.9655 16.131 16.5407 16.1946 16.1524C16.2951 16.3419 16.4593 16.5276 16.6828 16.5524C16.9063 16.5773 17.1437 16.3407 17.0305 16.1575C17.2159 16.3234 17.5049 16.4007 17.7374 16.3002C17.9699 16.1995 18.093 15.8963 17.9487 15.6975C18.1084 15.8162 18.3747 15.7131 18.4391 15.5315C18.5037 15.3498 18.3977 15.1421 18.2299 15.0335C18.4682 15.1908 18.8365 15.0365 18.9348 14.7785C19.0328 14.5206 18.9666 14.2722 18.7527 14.0863C18.9767 13.9423 19.1612 13.7282 19.2107 13.4771C19.2598 13.226 19.1505 12.9409 18.9136 12.8163Z" fill="#9DBB1D"/>
<path d="M22.0286 13.049C22.189 12.9904 22.2907 12.8156 22.2566 12.6568C22.2225 12.498 22.0568 12.374 21.8848 12.3785C22.2133 12.1082 22.3517 11.6352 22.1721 11.261C21.9925 10.8867 21.4835 10.6712 21.0818 10.8313C21.2273 10.6213 21.3277 10.3517 21.2201 10.1225C21.1125 9.89325 20.7184 9.80342 20.5804 10.0179C20.6165 9.74465 20.4167 9.46074 20.1354 9.38545C19.854 9.31015 19.4545 9.36781 19.3325 9.61804C19.5415 9.5256 19.8015 9.5589 19.9567 9.71968C20.0699 9.83697 20.0886 10.0143 20.0467 10.1677C20.0045 10.321 19.9105 10.4565 19.8179 10.5888C19.9396 10.5456 20.064 10.5019 20.194 10.4985C20.3239 10.495 20.4628 10.5392 20.5363 10.6401C20.5934 10.7183 20.6039 10.8185 20.5979 10.9132C20.5777 11.2307 20.3842 11.5174 20.0926 11.6782C20.5053 11.4943 20.5538 11.542 20.7791 11.4966C20.9547 11.4611 21.1592 11.4641 21.2878 11.582C21.3887 11.6745 21.4185 11.8181 21.4058 11.9499C21.3705 12.3166 21.0103 12.6297 20.6191 12.6338C20.8585 12.7585 21.1306 12.8342 21.338 13.0021C21.5455 13.1699 21.6646 13.4814 21.4979 13.6857C21.3401 13.8789 21.0333 13.8701 20.776 13.8427C20.9209 13.9423 21.0618 14.0854 21.1539 14.2304C21.3208 14.4927 21.1092 14.8513 20.8116 14.9735C20.5139 15.0958 20.1725 15.0509 19.8517 15.0038C20.2081 15.2358 20.6083 15.5559 20.5461 15.9594C20.5346 16.0342 20.4976 16.1155 20.4219 16.1407C20.3768 16.1556 20.3275 16.1475 20.2806 16.1393C20.1275 16.1125 19.9743 16.0855 19.8212 16.0587C20.0357 16.2987 20.2481 16.6439 20.0584 16.9017C19.9604 17.0348 19.7765 17.0941 19.6048 17.0855C19.433 17.0768 19.2708 17.0101 19.1189 16.934C18.7477 16.7484 18.4114 16.501 18.1303 16.2069C18.2658 16.397 18.4032 16.5933 18.4558 16.8169C18.5083 17.0404 18.458 17.3003 18.2696 17.4451C18.0812 17.5898 17.7465 17.5545 17.6471 17.3457C17.6862 17.6045 17.6886 17.8681 17.6541 18.1276C17.6385 18.245 17.6125 18.3675 17.5309 18.4573C17.4191 18.5804 17.2228 18.6125 17.0567 18.5704C16.8906 18.5281 16.7502 18.4238 16.6279 18.3098C16.455 18.1485 16.2357 17.9993 16.1211 17.797C16.1885 18.0387 16.1951 18.3073 16.0689 18.5271C15.9427 18.7469 15.6586 18.8966 15.4047 18.8238C15.0952 18.7351 14.9705 18.3943 14.8902 18.0995C14.8032 18.234 14.7161 18.3687 14.6291 18.5033C14.5996 18.5488 14.565 18.5981 14.5102 18.6111C14.4537 18.6247 14.3959 18.5945 14.3509 18.5596C14.097 18.3628 14.0468 18.0214 14.0146 17.7133C13.9857 18.1085 13.5935 18.449 13.1726 18.4443C12.7517 18.4395 12.3682 18.0904 12.3493 17.6947C12.2464 18.0396 12.2332 18.4795 12.5265 18.708C12.8733 18.9783 13.3875 19.0414 13.7964 18.864C13.7442 19.0128 13.8277 19.1926 13.9794 19.2576C14.1309 19.3226 14.3299 19.264 14.4151 19.1294C14.5258 19.4866 14.902 19.7552 15.2972 19.7593C15.6926 19.7635 16.075 19.5029 16.1942 19.1481C16.341 19.4851 16.6727 19.745 17.0513 19.8201C17.4299 19.8951 17.8448 19.7832 18.1236 19.5307C18.5444 19.1496 18.6104 18.5478 18.651 17.9996C18.8147 18.2527 19.0665 18.4936 19.3813 18.5036C19.696 18.5137 19.9975 18.1577 19.8171 17.915C20.0964 18.1258 20.5087 18.202 20.8204 18.0361C21.1322 17.8702 21.266 17.4339 21.0401 17.1725C21.2775 17.3207 21.6361 17.1476 21.7036 16.8872C21.771 16.6268 21.5974 16.3487 21.35 16.2159C21.7018 16.4089 22.1964 16.1534 22.3011 15.783C22.4059 15.4126 22.0462 14.8898 21.7249 14.6542C22.2043 14.6164 22.4866 14.2937 22.5245 13.9383C22.5621 13.5824 22.3742 13.1968 22.0286 13.049Z" fill="#699415"/>
<path d="M18.3942 6.56565C18.0703 6.384 17.6051 6.47768 17.3885 6.76805C17.3396 6.50539 17.1267 6.14407 16.9288 5.95335C16.7308 5.76263 16.4378 5.6492 16.1591 5.69728C15.8254 5.75493 15.5595 6.05809 15.5627 6.37754C15.4601 6.17253 15.3294 5.94528 15.0961 5.88899C14.9015 5.84203 14.6921 5.9382 14.5636 6.08369C14.4352 6.22918 14.3888 6.46463 14.3416 6.6484C14.2708 6.34685 13.8741 5.83134 13.3523 5.90341C13.0277 5.94826 12.7726 6.52315 12.8071 6.83029C12.3953 6.48153 11.7283 6.22297 11.2686 6.51396C10.8089 6.80495 10.5586 7.33673 10.552 7.85808C10.2215 7.67518 9.76483 7.72501 9.48772 7.97425C9.2106 8.22337 9.1368 8.65041 9.31582 8.96948C9.09957 8.89108 8.83103 8.97047 8.70125 9.15113C8.57147 9.33178 8.73703 9.80927 8.89506 9.96893C8.29052 9.95675 7.55185 10.1008 7.30906 10.622C7.06614 11.1432 7.18985 11.7969 7.60889 12.2073C7.26378 12.1805 6.9151 12.4058 6.8178 12.7185C6.72037 13.0313 7.10812 13.4143 7.41402 13.567C6.98164 13.6946 6.46068 14.1247 6.52669 14.5466C6.59257 14.9685 7.01399 15.3152 7.46723 15.3203C7.29045 15.4295 7.21902 15.6669 7.30893 15.8472C7.39871 16.0274 7.91083 16.167 8.11309 16.1089C7.72084 16.5676 7.36517 17.2019 7.63516 17.7331C7.90502 18.2642 8.51457 18.6262 9.14023 18.6268C8.98207 18.786 8.97612 19.0584 9.12703 19.2237C9.27793 19.3889 9.56508 19.4243 9.75612 19.3011C9.6744 19.8125 10.0631 20.014 10.5204 19.9602C10.1012 19.3801 10.0262 19.1068 10.3468 18.4735C10.0981 18.6765 9.66714 18.5654 9.5029 18.2968C9.33866 18.0282 9.41035 17.6719 9.6105 17.4259C9.32876 17.5866 8.93335 17.4828 8.72673 17.2414C8.52011 17 8.48275 16.6582 8.56315 16.3576C8.64356 16.057 8.82786 15.7905 9.02946 15.5452C8.72686 15.5555 8.41357 15.5475 8.13804 15.4295C7.86251 15.3115 7.63265 15.0583 7.63859 14.7734C7.64189 14.6177 7.71358 14.4696 7.80732 14.3412C7.97631 14.1099 8.22201 13.9291 8.50137 13.8304C8.30228 13.7085 8.16669 13.5039 8.00826 13.3374C7.90819 13.2321 7.8122 13.1028 7.82976 12.9624C7.84587 12.834 7.9573 12.7303 8.08364 12.6794C8.20999 12.6285 8.3506 12.6206 8.48777 12.6135C8.21752 12.4345 8.04483 12.1527 7.91677 11.866C7.81656 11.6419 7.74487 11.3649 7.90092 11.1713C7.97222 11.0828 8.08061 11.028 8.18979 10.986C8.65781 10.8061 9.22644 10.9105 9.68166 11.1174C9.33866 10.7406 9.2844 10.4432 9.46646 10.2368C9.64865 10.0304 9.98927 10.0022 10.2525 10.1052C10.1127 9.94644 9.97066 9.78429 9.8892 9.59283C9.80774 9.40136 9.79546 9.17225 9.91085 8.99694C10.0508 8.7841 10.3469 8.7006 10.611 8.73005C10.875 8.7595 11.1161 8.88089 11.3499 9.00004C11.3011 8.7134 11.2138 8.35134 11.3809 8.10732C11.5399 7.87522 11.8589 7.7726 12.1509 7.79881C12.4429 7.82503 12.7223 7.87547 12.9624 8.03426C12.7928 7.87882 12.886 7.55144 13.0593 7.39985C13.2328 7.24815 13.5068 7.22826 13.7253 7.31424C13.9438 7.4001 14.1109 7.57603 14.2259 7.77073C14.28 7.53851 14.3373 7.29946 14.4835 7.10551C14.6295 6.91155 14.8888 6.77277 15.1337 6.83117C15.2768 6.86521 15.3946 6.96001 15.4961 7.06078C15.7285 7.29151 15.9063 7.57056 16.013 7.87211C16.0416 7.58386 16.1243 7.23137 16.4212 7.15558C16.6027 7.10924 16.7989 7.19758 16.9234 7.33027C17.048 7.46297 17.1156 7.63319 17.1807 7.79931C17.3068 7.47291 17.6122 7.19646 17.9784 7.15396C18.3446 7.11147 18.7135 7.1941 18.7694 7.53739C18.9374 7.21969 18.718 6.7473 18.3942 6.56565Z" fill="#B6CC36"/>
<path d="M8.60254 21.4054C8.62115 21.3809 8.63832 21.3553 8.65231 21.3271C8.63185 21.3517 8.61601 21.3782 8.60254 21.4054Z" fill="#699415"/>
<path d="M26.9084 14.8297C26.413 15.7458 25.3013 16.2485 24.2245 16.0761C24.5627 16.4348 24.9126 16.8141 25.0293 17.281C25.146 17.7478 24.9391 18.324 24.455 18.4738C23.9363 18.6342 23.3991 18.3631 22.8728 18.2259C23.1105 18.4835 23.2921 18.8012 23.3109 19.1419C23.3296 19.4825 23.16 19.8436 22.8401 20.0039C22.5202 20.1642 22.0612 20.0641 21.9015 19.7579C22.0097 20.1908 22.0843 20.7258 21.7193 21.0083C21.5014 21.1771 21.1837 21.1909 20.9148 21.1102C20.6459 21.0296 20.4142 20.8682 20.1879 20.7094C20.0632 20.6219 19.9287 20.5194 19.9065 20.3747C19.9415 20.5587 19.9765 20.7469 19.9442 20.9313C19.9118 21.1157 19.7985 21.2986 19.6146 21.3689C19.3931 21.4535 19.1405 21.356 18.9425 21.23C18.5315 20.9686 18.1092 20.5832 17.9564 20.139C18.0532 20.8476 17.9132 21.5832 17.5614 22.2163C17.3855 22.5327 17.1179 22.848 16.743 22.9023C16.4381 22.9464 16.1126 22.7849 15.9787 22.5234C15.9494 22.7991 15.9083 23.0827 15.7593 23.3216C15.6102 23.5605 15.3266 23.7458 15.0349 23.7086C14.8405 23.6839 14.6738 23.5679 14.5292 23.4432C14.0831 23.0586 13.7577 22.5513 13.6036 22.0006C13.54 22.3055 13.4734 22.6176 13.3019 22.883C13.1304 23.1485 12.8294 23.3622 12.4993 23.3519C12.0985 23.3395 11.7609 22.9479 11.8305 22.5762C11.676 22.8758 11.3976 23.2302 11.0607 23.1285C10.8921 23.0777 10.7855 22.9233 10.7084 22.7733C10.4597 22.2892 10.3734 21.7327 10.4647 21.2019C10.293 21.472 10.1153 21.7484 9.85267 21.9433C9.59007 22.1384 9.22001 22.2374 8.91477 22.1087C8.63977 21.9928 8.48068 21.6527 8.60267 21.4053C8.38377 21.694 7.87231 21.7297 7.56509 21.5047C7.23174 21.2606 7.12638 20.8158 7.19622 20.4238C7.26606 20.0318 7.48139 19.6783 7.69289 19.3342C7.28085 19.572 6.8284 19.8189 6.34784 19.77C5.86727 19.7209 5.42658 19.2112 5.66303 18.8145C5.22775 19.0881 5.11909 19.826 5.49034 20.1733C5.69855 20.3681 6.43722 20.3209 6.67156 20.1545C6.3918 20.9285 6.24856 21.9151 6.8692 22.4871C7.48984 23.0592 8.46787 23.2584 9.28417 22.9791C9.15835 23.2575 9.28827 23.6156 9.56868 23.7637C9.8491 23.9117 10.2415 23.8292 10.4284 23.583C10.5802 24.2866 11.2575 24.8599 12.0171 24.9279C12.7766 24.9957 13.5563 24.5527 13.8462 23.8885C14.071 24.5586 14.6641 25.1087 15.3793 25.3103C16.0945 25.512 16.9113 25.3595 17.4905 24.9162C18.3648 24.2471 18.5945 23.1001 18.7664 22.052C19.0378 22.5636 19.4809 23.0648 20.0842 23.1316C20.6876 23.1985 21.3284 22.5598 21.0228 22.0657C21.5238 22.5134 22.3037 22.7222 22.9313 22.4506C23.559 22.179 23.8911 21.3602 23.5015 20.8233C23.9326 21.1442 24.6515 20.8657 24.8257 20.3752C25 19.8846 24.7136 19.3238 24.2607 19.0308C24.904 19.4554 25.8985 19.0388 26.1634 18.3425C26.4282 17.6462 26.2492 16.9756 25.6719 16.4739C26.2767 16.0854 26.7749 15.5075 26.9084 14.8297Z" fill="#699415"/>
<path d="M19.2894 5.42938C19.2738 5.46616 19.2622 5.50418 19.2588 5.54394C19.2701 5.50617 19.2797 5.46765 19.2894 5.42938Z" fill="#9DBB1D"/>
<path d="M27.481 9.35218C27.1807 8.55476 26.1746 8.02968 25.3204 8.2937C25.6575 7.88605 25.913 7.34855 25.7338 6.86038C25.5547 6.37208 24.7619 6.12396 24.4392 6.54193C24.5632 5.98667 24.2047 5.37151 23.6406 5.17135C23.0764 4.97119 22.2458 5.02499 21.9495 5.51912C22.0617 5.18353 22.1531 4.82606 22.0724 4.48252C21.9919 4.13897 21.6911 3.81779 21.3174 3.80884C20.9597 3.80027 20.665 4.06182 20.4357 4.32025C20.4999 3.55141 20.3717 2.68701 19.7418 2.1935C19.1862 1.75826 18.3459 1.73663 17.6987 2.03992C17.0517 2.34321 16.5872 2.92395 16.3197 3.556C16.3832 3.03317 15.8225 2.48001 15.2733 2.38173C14.7241 2.28345 14.1263 2.63644 13.9816 3.14462C13.3674 2.43901 12.2682 2.2007 11.336 2.45019C10.4038 2.69968 9.87792 3.61874 9.67183 4.43493C9.41042 4.04864 8.57947 3.52009 7.89136 3.86997C7.46321 4.08778 7.28312 4.64839 7.49687 5.05977C6.73483 4.77077 5.80116 5.09183 5.31782 5.71705C4.83448 6.34227 4.77296 7.20294 5.04519 7.9324C4.48607 7.83561 3.87678 8.12336 3.62528 8.60308C3.37364 9.0828 3.50144 9.71299 3.92312 10.0717C3.57947 10.0659 3.24822 10.3049 3.16491 10.6188C3.08161 10.9326 3.57023 11.5186 3.87639 11.6654C3.02748 11.9377 2.07625 12.4914 2.01934 13.3337C1.96244 14.176 2.48763 15.0276 3.29298 15.399C2.79776 15.5267 2.43364 16.0073 2.46677 16.4895C2.49991 16.9717 3.2469 17.32 3.75546 17.3866C3.75546 17.3866 2.6054 16.694 3.52032 15.9407C4.43511 15.1874 5.12124 15.0796 5.12124 15.0796C5.12124 15.0796 3.17719 14.972 3.29152 13.3577C3.40586 11.7433 5.3499 12.1739 5.3499 12.1739C5.3499 12.1739 3.86332 11.4205 4.09198 10.8824C4.32065 10.3443 5.46424 10.2367 5.46424 10.2367C5.46424 10.2367 4.32065 9.59098 4.54944 9.05286C4.77811 8.51474 6.15049 8.72994 6.15049 8.72994C6.07022 8.51213 5.97438 8.12547 5.8941 7.90767C5.78558 7.61307 5.69211 7.24592 5.92328 7.02265C6.07788 6.8733 6.33282 6.85218 6.54366 6.91604C6.7545 6.9799 6.93194 7.11384 7.10397 7.24505C7.08232 6.97916 7.06093 6.7083 7.12628 6.44887C7.19163 6.18944 7.35864 5.93846 7.61847 5.8321C7.88423 5.72326 8.20293 5.78551 8.44546 5.93461C8.68799 6.08383 8.86609 6.30897 9.01871 6.54082C9.1073 6.24983 9.15944 5.83509 9.38085 5.61542C9.51815 5.47924 9.74919 5.46048 9.93825 5.52024C10.1273 5.58001 10.2845 5.70388 10.4368 5.82515C10.5061 5.13333 10.3977 4.31006 10.9668 3.86712C11.3279 3.58619 11.8727 3.57874 12.2917 3.77592C12.7107 3.97311 13.0141 4.34324 13.209 4.74419C13.2033 4.5183 13.2687 4.2877 13.3636 4.0802C13.4585 3.87271 13.6816 3.69901 13.9198 3.72709C14.0542 3.743 14.1721 3.81891 14.2731 3.9039C14.5494 4.13649 14.7414 4.45618 14.8107 4.79886C14.8845 4.42648 15.3003 4.14543 15.6988 4.19836C16.0974 4.25129 16.4141 4.62976 16.3755 5.00673C16.6184 4.64951 16.9013 4.3164 17.2179 4.0146C17.4596 3.78412 17.7418 3.56246 18.0824 3.51624C18.5644 3.45076 19.0389 3.77654 19.234 4.1965C19.4124 4.58055 19.3944 5.01977 19.2894 5.42954C19.4268 5.10649 19.9925 4.91192 20.303 5.10513C20.6488 5.32033 20.7301 5.7952 20.5677 6.15416C20.7791 5.85857 21.2871 5.8085 21.559 6.0565C21.8309 6.30449 21.7937 6.78384 21.4864 6.99208C22.1426 6.6704 23.035 6.37942 23.5418 6.88672C24.0047 7.35004 23.748 8.09876 23.467 8.67713C23.7404 8.42926 24.235 8.44989 24.4839 8.7195C24.7331 8.989 24.6861 9.45282 24.3873 9.67324C24.914 9.47779 25.5928 9.46711 25.966 9.86768C26.2364 10.1577 26.2694 10.5924 26.1534 10.9624C26.0373 11.3324 25.7942 11.6536 25.5551 11.967C26.1946 11.7991 27.0576 12.4045 26.8597 13.0008C27.1998 12.9064 27.4405 12.5637 27.3996 12.2323C27.3586 11.9008 27.0409 11.6192 26.6869 11.6006C27.4109 11.0987 27.7814 10.1496 27.481 9.35218Z" fill="#9DBB1D"/>
</svg>
