<svg width="19" height="16" viewBox="0 0 19 16" fill="none" xmlns="http://www.w3.org/2000/svg">
<path d="M6.41467 3.56614C6.08233 3.72409 5.7472 3.90053 5.52546 4.16775C5.39741 4.32208 5.31126 4.50232 5.16615 4.64481C4.89552 4.91057 4.47004 5.00188 4.11869 5.18233C3.32334 5.59085 2.96777 6.41402 2.66877 7.17462C2.50961 7.57943 2.35018 8.02302 2.51746 8.42533C2.60934 8.64634 2.79288 8.83185 2.88217 9.05368C3.03666 9.43754 2.8895 9.87496 3.03875 10.2604C3.27894 10.8806 4.15988 11.1195 4.57608 11.6645C4.98875 12.2049 4.96032 13.0483 5.63387 13.3262C5.99202 13.474 6.42841 13.3908 6.79546 13.5211C7.22174 13.6723 7.49991 14.0918 7.95559 14.1488C8.25413 14.1862 8.54242 14.054 8.83901 14.0063C9.46941 13.9051 10.1158 14.1891 10.749 14.1021C11.1887 14.0417 11.5684 13.8099 11.9306 13.5846C12.4288 13.2748 12.927 12.9649 13.4251 12.6551C13.7283 12.4665 14.0416 12.2682 14.2198 11.9834C14.3713 11.7413 14.4106 11.4591 14.5173 11.1995C14.7173 10.7127 15.145 10.324 15.4135 9.86287C16.0734 8.72952 15.6877 7.36241 15.2136 6.16068C14.9238 5.4262 14.5914 4.68012 13.9841 4.11109C13.1013 3.28406 11.5783 2.748 10.3119 2.60174C8.90643 2.43943 7.62726 2.98986 6.41467 3.56614Z" fill="#94D31A"/>
<path d="M3.72537 8.51059C3.66904 8.04233 3.84648 7.56808 4.14227 7.17432C4.43802 6.78056 4.84588 6.46006 5.27889 6.17932C4.79199 6.47952 4.25964 6.73849 3.67748 6.85038C3.09533 6.96229 2.45586 6.91459 1.95117 6.63768C2.72235 6.11669 3.69335 5.82523 4.66855 5.82198C3.65293 5.6878 2.74383 5.05367 2.36988 4.21863C2.75915 4.13174 3.16641 4.26875 3.52087 4.43392C4.16595 4.73454 4.74772 5.13825 5.22866 5.61905C4.98871 5.19844 4.76094 4.76578 4.66359 4.30364C4.56624 3.8415 4.61026 3.34152 4.88686 2.93842C5.73101 3.53293 6.1538 4.55004 5.94277 5.4787C6.53473 5.03352 7.22139 4.56024 7.99922 4.6253C8.03888 5.04871 7.62806 5.38955 7.25316 5.66046C6.90202 5.91423 6.54833 6.13986 6.12945 6.29994C5.70736 6.46125 5.6602 6.5943 5.47324 6.95411C5.29528 7.29662 5.05084 7.61027 4.74849 7.87853C4.66356 7.95392 3.72618 8.51741 3.72537 8.51059Z" fill="#78A015"/>
<path d="M6.50072 12.1492C6.00733 11.9589 5.62428 11.5885 5.38015 11.1687C5.13598 10.7489 5.02042 10.2806 4.95684 9.81306C5.01289 10.3311 5.00539 10.863 4.82698 11.3594C4.64853 11.8559 4.28294 12.3164 3.75667 12.5607C3.62262 11.7176 3.81607 10.8374 4.29805 10.0974C3.65938 10.7996 2.5769 11.1724 1.56097 11.0401C1.6683 10.7021 2.00705 10.462 2.34756 10.2757C2.96725 9.93689 3.65792 9.69728 4.37503 9.57233C3.83766 9.54471 3.29436 9.50191 2.78664 9.34572C2.27895 9.18947 1.80398 8.90736 1.54102 8.4974C2.55182 8.15403 3.77295 8.34 4.5909 8.96179C4.44298 8.29211 4.3143 7.53671 4.76597 6.98016C5.20648 7.1608 5.3408 7.64142 5.42354 8.06008C5.50101 8.45219 5.54925 8.83225 5.49993 9.22908C5.45022 9.62892 5.55895 9.7308 5.82351 10.0514C6.07539 10.3566 6.26545 10.6977 6.3816 11.0601C6.41429 11.1619 6.50791 12.152 6.50072 12.1492Z" fill="#78A015"/>
<path d="M11.0666 12.0745C10.6272 12.3476 10.0668 12.4458 9.52855 12.4146C8.99035 12.3834 8.47007 12.2309 7.97706 12.0398C8.51593 12.2623 9.036 12.5396 9.43385 12.9272C9.8317 13.3146 10.0985 13.8242 10.0703 14.3439C9.17141 14.0138 8.40327 13.4191 7.92063 12.6794C8.28607 13.5173 8.10037 14.5201 7.4511 15.2148C7.17303 14.9616 7.10952 14.5848 7.10006 14.2341C7.08283 13.596 7.19961 12.9554 7.44283 12.3534C7.14115 12.7426 6.82147 13.1284 6.40831 13.4296C5.99511 13.7308 5.47466 13.9431 4.93652 13.9311C5.11466 12.9972 5.92152 12.1758 6.95175 11.8796C6.21657 11.6486 5.40685 11.3593 5.08937 10.7361C5.49228 10.4978 6.03429 10.6425 6.48892 10.7942C6.91471 10.9364 7.31367 11.0942 7.67932 11.334C8.04777 11.5755 8.20365 11.546 8.65455 11.5112C9.08379 11.478 9.51683 11.5096 9.9331 11.6076C10.0501 11.6351 11.0731 12.0705 11.0666 12.0745Z" fill="#78A015"/>
<path d="M14.0043 9.42577C13.9836 9.89625 13.7305 10.3436 13.3735 10.6965C13.0165 11.0495 12.5604 11.3159 12.086 11.54C12.6169 11.3034 13.1861 11.1133 13.7806 11.075C14.3751 11.0367 15.0003 11.1634 15.4546 11.5003C14.6062 11.92 13.5975 12.0877 12.6318 11.9696C13.6151 12.2288 14.4114 12.9695 14.6452 13.8426C14.2457 13.8802 13.865 13.6939 13.5411 13.4863C12.9517 13.1085 12.4418 12.6366 12.0442 12.1008C12.213 12.547 12.3678 13.0036 12.3887 13.4731C12.4096 13.9426 12.2844 14.432 11.9448 14.7966C11.2064 14.1031 10.954 13.0438 11.3144 12.1509C10.6558 12.5179 9.89889 12.9009 9.13965 12.7398C9.16954 12.3157 9.63182 12.0295 10.0471 11.808C10.4361 11.6005 10.823 11.4212 11.2638 11.3148C11.7079 11.2076 11.7763 11.0819 12.0201 10.7489C12.2522 10.4321 12.5453 10.152 12.8884 9.92414C12.9848 9.86005 14.0046 9.41892 14.0043 9.42577Z" fill="#78A015"/>
<path d="M12.9636 6.14509C13.3875 6.43625 13.6534 6.87787 13.7707 7.33745C13.888 7.797 13.8669 8.27567 13.7957 8.7424C13.8886 8.22842 14.0469 7.71476 14.3607 7.27238C14.6746 6.83004 15.1595 6.46307 15.7388 6.34022C15.6292 7.18604 15.1918 7.99694 14.5147 8.60951C15.3329 8.06742 16.4874 7.94043 17.4341 8.28849C17.2341 8.5927 16.8377 8.75209 16.4549 8.8588C15.7583 9.05298 15.0212 9.13567 14.291 9.10154C14.8038 9.24455 15.3179 9.4036 15.7654 9.66479C16.2129 9.92599 16.5929 10.3021 16.7312 10.7562C15.6544 10.8701 14.5242 10.4257 13.9084 9.64634C13.8616 10.3271 13.7717 11.0868 13.1761 11.5283C12.8006 11.2579 12.807 10.7632 12.8457 10.3397C12.882 9.94313 12.9432 9.56447 13.1037 9.19072C13.2654 8.81413 13.189 8.69186 13.0237 8.32405C12.8664 7.97392 12.7792 7.6023 12.7696 7.22608C12.7669 7.12028 12.9574 6.14083 12.9636 6.14509Z" fill="#78A015"/>
<path d="M9.70612 3.49416C10.2403 3.42864 10.7895 3.56686 11.2507 3.8111C11.7118 4.05534 12.093 4.39995 12.4296 4.76786C12.0689 4.35361 11.7538 3.8983 11.6053 3.39436C11.4569 2.89041 11.4891 2.33094 11.7886 1.88101C12.412 2.53554 12.7797 3.3724 12.8175 4.22297C12.9356 3.33234 13.6299 2.51715 14.5729 2.16175C14.686 2.4983 14.5434 2.85832 14.3666 3.17329C14.045 3.74652 13.6031 4.26812 13.0694 4.70447C13.5426 4.48048 14.03 4.26666 14.5557 4.16558C15.0814 4.06453 15.6554 4.08545 16.1267 4.31266C15.4755 5.06982 14.3257 5.47414 13.255 5.32255C13.7854 5.82336 14.3513 6.40582 14.304 7.08659C13.8206 7.13597 13.416 6.78953 13.0927 6.47195C12.7898 6.17452 12.5192 5.87387 12.3212 5.51406C12.1218 5.15151 11.9678 5.115 11.5493 4.96448C11.1509 4.8212 10.7833 4.61895 10.4656 4.36457C10.3763 4.29309 9.69834 3.4951 9.70612 3.49416Z" fill="#78A015"/>
<path d="M5.84784 5.05324C6.13623 4.65537 6.61235 4.37926 7.12408 4.23038C7.63581 4.0815 8.18348 4.05078 8.72266 4.06482C8.12742 4.03684 7.5258 3.95195 6.98951 3.7247C6.45326 3.49746 5.98541 3.11396 5.78613 2.62357C6.76129 2.63215 7.73017 2.92894 8.49761 3.45413C7.79606 2.79924 7.5332 1.80975 7.83293 0.952179C8.20008 1.09467 8.4223 1.42254 8.58307 1.74396C8.87568 2.32891 9.04537 2.96051 9.08123 3.59802C9.19173 3.13816 9.32034 2.67542 9.57221 2.26016C9.82408 1.84488 10.2138 1.47643 10.7171 1.30986C10.9572 2.23313 10.5664 3.25998 9.74124 3.87441C10.5219 3.84542 11.3969 3.84573 11.9609 4.3177C11.6913 4.67139 11.1268 4.71648 10.6403 4.72619C10.1845 4.73526 9.74675 4.72089 9.30436 4.61981C8.85862 4.51794 8.72712 4.5968 8.32485 4.77795C7.94189 4.95039 7.52734 5.0642 7.09959 5.11103C6.97936 5.12418 5.84362 5.05902 5.84784 5.05324Z" fill="#78A015"/>
<path d="M3.48433 10.1656C3.18526 9.77378 3.09 9.28183 3.14239 8.81321C3.19478 8.34462 3.38544 7.89542 3.61949 7.47122C3.34801 7.93448 3.01442 8.37963 2.55842 8.71475C2.10243 9.0499 1.51075 9.26688 0.916454 9.2263C1.32215 8.45224 2.02695 7.80043 2.88885 7.40223C1.91805 7.69515 0.775535 7.50218 0 6.9143C0.298508 6.6795 0.73204 6.63572 1.13383 6.63831C1.86507 6.643 2.59512 6.76463 3.27689 6.99544C2.84057 6.72021 2.40865 6.42942 2.07651 6.05965C1.74438 5.68986 1.51731 5.22924 1.54776 4.7601C2.61169 4.94433 3.52733 5.67366 3.83467 6.58162C4.12198 5.94734 4.47821 5.24985 5.20167 4.9921C5.46213 5.351 5.27967 5.81938 5.09187 6.21131C4.91593 6.57839 4.7228 6.92161 4.43702 7.23319C4.14908 7.54718 4.1781 7.68409 4.20402 8.07855C4.22868 8.45404 4.17915 8.8309 4.05414 9.19104C4.01891 9.29228 3.48869 10.1713 3.48433 10.1656Z" fill="#78A015"/>
<path d="M8.21934 12.7731C7.70523 12.9156 7.13727 12.8594 6.63583 12.6859C6.13439 12.5124 5.69255 12.2283 5.29024 11.9146C5.7252 12.2704 6.12308 12.6733 6.36596 13.1485C6.60883 13.6237 6.68417 14.18 6.47513 14.6673C5.73511 14.113 5.21235 13.3415 5.01224 12.5084C5.06631 13.4038 4.53794 14.3088 3.67621 14.7968C3.50027 14.4815 3.57195 14.1057 3.68587 13.7694C3.8932 13.1573 4.22904 12.5786 4.67164 12.0705C4.24798 12.3603 3.80838 12.6423 3.30941 12.8186C2.81044 12.995 2.24049 13.0581 1.73242 12.9028C2.22947 12.0613 3.28562 11.4949 4.37027 11.4882C3.75138 11.0718 3.08195 10.5801 2.99824 9.90197C3.46539 9.78272 3.93063 10.0653 4.3102 10.3312C4.66571 10.5803 4.99016 10.8372 5.25425 11.1631C5.52031 11.4914 5.67909 11.5049 6.12054 11.5923C6.54078 11.6754 6.94198 11.8212 7.30393 12.0256C7.40565 12.0831 8.22684 12.771 8.21934 12.7731Z" fill="#78A015"/>
<path d="M13.1136 11.5285C12.9154 11.9664 12.5068 12.3153 12.0359 12.545C11.5651 12.7747 11.0336 12.8942 10.5009 12.9683C11.0917 12.8987 11.7009 12.884 12.2764 13.0198C12.8518 13.1556 13.3935 13.456 13.6943 13.9053C12.7344 14.0559 11.7191 13.9223 10.8527 13.5315C11.6821 14.0605 12.1522 14.9897 12.0413 15.881C11.6501 15.8009 11.3616 15.5151 11.1349 15.2255C10.7222 14.6986 10.4203 14.1058 10.2486 13.4854C10.2385 13.9551 10.2112 14.4307 10.0527 14.8797C9.89412 15.3288 9.59014 15.7543 9.13128 16C8.69786 15.1321 8.86193 14.0597 9.54106 13.3215C8.78035 13.4772 7.92075 13.6197 7.26562 13.2479C7.45478 12.8565 7.99962 12.7202 8.47556 12.6313C8.92134 12.5481 9.35448 12.4908 9.81072 12.5179C10.2704 12.5453 10.3827 12.4464 10.7391 12.2028C11.0784 11.971 11.4613 11.7916 11.8715 11.6758C11.9868 11.6433 13.1165 11.5221 13.1136 11.5285Z" fill="#78A015"/>
<path d="M15.2044 8.69823C15.3377 9.15446 15.2405 9.64616 15.013 10.073C14.7855 10.4999 14.4349 10.8685 14.0528 11.2009C14.485 10.8425 14.9689 10.5191 15.5265 10.335C16.084 10.1509 16.7247 10.1175 17.2699 10.3279C16.5929 10.9407 15.6803 11.3515 14.7159 11.4776C15.743 11.4823 16.7475 11.9952 17.2556 12.7744C16.8848 12.9095 16.4592 12.8252 16.0811 12.7064C15.3931 12.4903 14.7506 12.1641 14.1952 11.749C14.5022 12.1349 14.7991 12.5344 14.9719 12.9794C15.1447 13.4244 15.1838 13.9247 14.9768 14.3584C14.0432 13.8765 13.4566 12.9234 13.5118 11.9778C12.9997 12.493 12.3985 13.0478 11.6181 13.0815C11.5087 12.6675 11.8589 12.2785 12.185 11.9631C12.4905 11.6678 12.8032 11.3999 13.1912 11.1887C13.5822 10.9759 13.6069 10.8383 13.7324 10.4587C13.8518 10.0973 14.0418 9.75617 14.2966 9.45259C14.3682 9.36731 15.2025 8.69156 15.2044 8.69823Z" fill="#78A015"/>
<path d="M12.5421 4.18858C13.0736 4.26887 13.548 4.54717 13.9014 4.90287C14.2549 5.25857 14.497 5.68847 14.6885 6.12862C14.4903 5.6379 14.3499 5.12026 14.3852 4.60082C14.4205 4.08141 14.6474 3.55741 15.0902 3.20901C15.4543 3.99869 15.5109 4.89359 15.2487 5.71343C15.6734 4.89709 16.6201 4.30644 17.6425 4.21997C17.6322 4.57059 17.3702 4.87523 17.0916 5.1279C16.5844 5.58772 15.9808 5.96625 15.3197 6.23911C15.8488 6.15225 16.3878 6.07888 16.9237 6.12308C17.4596 6.16729 17.9987 6.34053 18.3677 6.68268C17.4823 7.22958 16.2459 7.30743 15.2798 6.87711C15.6092 7.49555 15.9437 8.20123 15.6599 8.83672C15.1824 8.75464 14.9187 8.31671 14.7222 7.92804C14.5382 7.56396 14.3859 7.20546 14.3236 6.81003C14.2608 6.41162 14.1271 6.33572 13.7814 6.08064C13.4523 5.8378 13.1732 5.54708 12.9599 5.22003C12.9 5.1282 12.5343 4.18739 12.5421 4.18858Z" fill="#78A015"/>
<path d="M7.98732 3.67869C8.35999 3.33827 8.88913 3.1496 9.42444 3.09175C9.95979 3.03393 10.5036 3.09808 11.029 3.20467C10.4518 3.07476 9.88117 2.88794 9.40679 2.57283C8.93241 2.25771 8.56045 1.80121 8.4759 1.28613C9.42995 1.46244 10.3127 1.92022 10.9464 2.56726C10.4066 1.80444 10.3726 0.789127 10.8602 0C11.1879 0.202922 11.3317 0.562611 11.4167 0.905401C11.5713 1.52924 11.595 2.17764 11.486 2.80882C11.6983 2.377 11.9289 1.94552 12.2697 1.58179C12.6105 1.21805 13.0758 0.923912 13.6069 0.84728C13.6336 1.79375 13.0184 2.73313 12.0706 3.19341C12.8425 3.29942 13.7001 3.45037 14.1464 4.01021C13.8022 4.3105 13.2387 4.25752 12.7594 4.18327C12.3106 4.1137 11.8847 4.02422 11.4739 3.84894C11.0599 3.67235 10.9131 3.727 10.4778 3.83533C10.0635 3.93845 9.63132 3.97864 9.20138 3.9509C9.08055 3.94305 7.98188 3.68362 7.98732 3.67869Z" fill="#78A015"/>
<path d="M4.2539 6.23494C4.29928 5.7658 4.5756 5.32902 4.95077 4.99074C5.32599 4.65245 5.79551 4.4045 6.28123 4.19969C5.73838 4.41473 5.15985 4.58188 4.56395 4.59637C3.96805 4.61089 3.35024 4.45924 2.91406 4.10455C3.7836 3.71919 4.80006 3.59205 5.75857 3.7487C4.78991 3.45048 4.03335 2.67864 3.84565 1.79717C4.24668 1.77562 4.61725 1.9769 4.92985 2.19723C5.49878 2.59821 5.98338 3.09009 6.35235 3.64116C6.20714 3.1887 6.07648 2.72641 6.08028 2.25654C6.08405 1.78667 6.23487 1.30279 6.59327 0.952179C7.29451 1.67448 7.49102 2.74276 7.084 3.62034C7.76117 3.28007 8.53744 2.92772 9.28741 3.11913C9.2353 3.54154 8.75848 3.80895 8.33196 4.01364C7.93251 4.20532 7.53658 4.369 7.0907 4.4576C6.64144 4.54687 6.56648 4.6698 6.30547 4.99259C6.05698 5.29988 5.74944 5.5679 5.39477 5.78181C5.29515 5.84191 4.25323 6.24176 4.2539 6.23494Z" fill="#78A015"/>
<path d="M15.4515 8.3827C15.0649 8.24055 14.631 8.20645 14.2187 8.27255C14.1939 8.05946 14.1139 7.84442 14.0164 7.63696C14.0455 7.56952 14.0717 7.50114 14.095 7.432C14.7635 7.64649 15.5537 7.56352 16.1367 7.20341C15.8658 6.95214 15.4699 6.82491 15.0763 6.79245C14.6828 6.76 14.2869 6.81389 13.8984 6.87767C14.3839 6.67728 14.8271 6.3993 15.1996 6.06163C15.4042 5.87609 15.5967 5.65234 15.6042 5.39489C14.8534 5.45837 14.1582 5.89214 13.8463 6.49162C13.9083 6.29777 13.9459 6.09819 13.9596 5.89734C14.163 5.77982 14.3444 5.63374 14.4911 5.46312C14.3192 5.38025 14.1286 5.33479 13.9331 5.31911C13.8963 5.09083 13.8285 4.86638 13.7299 4.65247C13.4917 4.83987 13.339 5.09655 13.2639 5.37032C13.0055 5.42741 12.7594 5.52009 12.5202 5.62513C12.4949 5.60908 12.4692 5.59371 12.4432 5.57882C12.5047 5.52173 12.5642 5.463 12.6216 5.40278C12.779 5.3861 12.9242 5.33945 13.0372 5.2409C12.9933 5.18579 12.9438 5.13626 12.8899 5.09132C13.0049 4.9428 13.1083 4.78741 13.1986 4.62641C13.3284 4.39511 13.4331 4.13072 13.3501 3.88356C12.8825 4.05978 12.4984 4.39003 12.2714 4.78726C12.1609 4.75526 12.0466 4.72938 11.9311 4.7074C11.902 4.62063 11.8681 4.5351 11.8299 4.45107C12.3423 4.07994 12.6574 3.50092 12.641 2.91815C12.2509 2.97445 11.9092 3.19043 11.659 3.45756C11.5628 3.56022 11.4786 3.67029 11.4025 3.78485C11.3711 3.74838 11.3388 3.71252 11.3053 3.67741C11.1783 3.86834 11.1171 4.08612 11.1088 4.30737C11.1003 4.32448 11.0918 4.34156 11.0834 4.35867C11.1635 3.89516 11.1461 3.41902 11.0325 2.96087C10.9701 2.70914 10.8645 2.44499 10.6238 2.29599C10.4323 2.6059 10.3505 2.96327 10.3763 3.31444C10.2112 3.3904 10.0657 3.49647 9.94134 3.62039C9.61413 3.44063 9.25119 3.31036 8.87291 3.24045C8.935 3.61871 9.20819 3.95395 9.55654 4.18537C9.55689 4.18558 9.5572 4.1858 9.55752 4.18598C9.50028 4.31206 9.4542 4.44215 9.41447 4.57398C9.36762 4.56427 9.32064 4.55742 9.27359 4.55304C9.21572 4.21722 9.1077 3.88794 8.95199 3.57673C8.83392 3.34071 8.67075 3.09991 8.40112 2.99527C8.21259 3.53462 8.32735 4.14488 8.68773 4.61116C8.65041 4.62102 8.61319 4.63192 8.57608 4.64358C8.39317 4.54646 8.19937 4.46499 7.99835 4.40041C8.04265 3.89863 7.86434 3.38008 7.49074 2.99527C7.22756 3.25275 7.11682 3.60809 7.11403 3.95313C7.11329 4.04663 7.11995 4.1397 7.13195 4.23238C7.05417 4.22672 6.97611 4.22337 6.89801 4.22267C6.96777 4.39438 7.08274 4.54798 7.22627 4.68006C7.25316 4.77724 7.28299 4.8739 7.31382 4.96993C7.04287 4.56524 6.68698 4.20403 6.26918 3.90956C6.0396 3.74777 5.76749 3.59993 5.47296 3.61576C5.55699 4.01037 5.79641 4.37484 6.13151 4.64906C6.08351 4.76396 6.05522 4.88517 6.0442 5.00842C5.60833 5.03563 5.1785 5.13757 4.78881 5.31026C4.86231 5.37002 4.94309 5.42157 5.02883 5.46599C4.82251 5.39027 4.60196 5.34636 4.38873 5.39395C4.62802 5.92828 5.1657 6.3505 5.79348 6.51549C5.77723 6.53914 5.76143 6.56316 5.74601 6.58749C5.57091 6.6039 5.39738 6.63273 5.22751 6.67332C4.90765 6.22741 4.37778 5.89427 3.78506 5.79164C3.7627 6.13613 3.92946 6.47441 4.17335 6.74596C4.24635 6.82722 4.32602 6.90324 4.41029 6.97537C4.29616 7.03441 4.18618 7.0995 4.08123 7.17041C4.11869 7.19096 4.15737 7.20932 4.19668 7.22649C3.96037 7.19123 3.72081 7.17245 3.48107 7.17092C3.18602 7.16904 2.86763 7.20119 2.64844 7.3736C3.21797 7.80533 4.05698 7.94702 4.76991 7.73192C4.13697 8.02435 3.61941 8.50302 3.32146 9.07145C3.61125 9.09124 3.89999 9.02733 4.1595 8.9103C4.32002 9.01756 4.50429 9.10062 4.69499 9.15932C4.78623 9.18739 4.87902 9.2104 4.97291 9.22955C4.99308 9.33353 5.02482 9.43537 5.06964 9.53246C5.05583 9.53733 5.04201 9.5423 5.02827 9.54729C4.96929 9.54635 4.90996 9.55249 4.85062 9.56763C4.85251 9.58285 4.85481 9.59789 4.85746 9.61284C4.69063 9.68055 4.52843 9.757 4.37251 9.84228C4.12246 9.97901 3.87369 10.1554 3.79486 10.4036C4.26369 10.4647 4.75181 10.3792 5.16622 10.1793C5.25635 10.2767 5.35992 10.3679 5.46955 10.4542C5.43993 10.5616 5.41733 10.6704 5.40184 10.78C4.77741 10.9058 4.21552 11.2727 3.92099 11.7714C4.2941 11.8853 4.71264 11.839 5.07909 11.7095C5.44551 11.58 5.76833 11.373 6.07947 11.1601C5.75441 11.5332 5.50781 11.9582 5.35556 12.4077C5.27191 12.6547 5.21924 12.9307 5.34847 13.1622C5.98131 12.8039 6.36932 12.1393 6.3296 11.4818C6.36877 11.6449 6.42496 11.8047 6.49636 11.9592C6.38837 12.1365 6.31163 12.3279 6.27379 12.5264C6.44955 12.5304 6.62266 12.5016 6.78747 12.4491C6.9579 12.6794 7.16554 12.8886 7.40392 13.0672C7.53273 12.7669 7.51411 12.431 7.39952 12.1245C7.56549 11.9973 7.71087 11.8518 7.8453 11.6981C7.89434 11.7074 7.94369 11.715 7.99329 11.7209C7.89772 12.0565 7.85328 12.4033 7.86263 12.749C7.86957 13.0065 7.91624 13.2833 8.12043 13.4692C8.45201 13.1144 8.61874 12.6502 8.59941 12.1934C8.72003 12.2009 8.84347 12.1978 8.96772 12.1874C9.09186 12.2983 9.22608 12.4006 9.36885 12.4929C9.12405 12.9799 9.10975 13.557 9.35388 14.0459C9.69083 13.8654 9.91406 13.5529 10.0305 13.2231C10.1469 12.8934 10.167 12.5441 10.1744 12.1992C10.3005 12.6548 10.5222 13.0901 10.8252 13.4771C10.9917 13.6897 11.2036 13.8997 11.4908 13.9585C11.5265 13.6716 11.4803 13.3794 11.3658 13.109C11.3835 13.127 11.4016 13.1448 11.4201 13.1623C11.5879 12.9822 11.6841 12.7606 11.7247 12.53C12.0503 12.565 12.3818 12.5583 12.7048 12.5076C12.4912 12.1886 12.1121 11.9721 11.7052 11.868C11.6991 11.8379 11.6923 11.8078 11.6852 11.7778C11.762 11.743 11.8363 11.7021 11.908 11.6567C12.1138 11.8578 12.3434 12.0404 12.5924 12.2001C12.7476 12.2996 12.9207 12.3921 13.1037 12.4368C13.2579 12.5961 13.4407 12.7339 13.6467 12.8403C13.7987 12.5218 13.77 12.1544 13.6431 11.8276C13.5322 11.5417 13.3514 11.2814 13.1569 11.031C13.1737 11.0274 13.1903 11.0239 13.2069 11.0201C13.5828 11.2794 14.0069 11.4855 14.4577 11.6271C14.7353 11.7144 15.0479 11.7762 15.3202 11.6771C15.0259 11.2256 14.5045 10.8961 13.9272 10.7753C13.9508 10.7643 13.9743 10.7531 13.9976 10.7416C13.9522 10.708 13.9044 10.6775 13.8547 10.6494C14.2354 10.5555 14.5965 10.4012 14.9155 10.1968C14.9221 10.1962 14.9287 10.1958 14.9353 10.195C14.9344 10.192 14.9332 10.1891 14.9323 10.1861C15.0743 10.0939 15.2078 9.99174 15.3307 9.88049C15.1308 9.80337 14.9135 9.77085 14.6949 9.77447C14.5665 9.62578 14.4036 9.49726 14.226 9.39357C14.1036 9.32211 13.9744 9.2611 13.841 9.20721C13.8542 9.1261 13.8599 9.04432 13.8573 8.96288C14.1542 8.9349 14.4479 8.88101 14.7324 8.8017C15.0136 8.72312 15.3046 8.60611 15.4515 8.3827ZM13.647 8.4365C13.5277 8.48756 13.4137 8.54814 13.3077 8.61844C13.4056 8.52985 13.4966 8.43553 13.5804 8.33655C13.6014 8.37058 13.6236 8.40407 13.647 8.4365ZM4.83308 8.42575C5.01993 8.23059 5.17355 8.00959 5.30658 7.78252C5.18802 7.99738 5.08467 8.221 5.01931 8.45197C4.95767 8.44098 4.89552 8.43233 4.83308 8.42575ZM9.05454 5.28103C8.93158 5.27783 8.808 5.2778 8.6848 5.28258C8.70231 5.27442 8.71986 5.26617 8.73737 5.25783C8.84288 5.26857 8.94885 5.27606 9.05454 5.28103ZM7.03042 6.22695C7.09972 6.1631 7.16499 6.09594 7.22589 6.02564C7.28581 6.02899 7.35041 6.03243 7.41491 6.03566C7.27486 6.12493 7.14071 6.22293 7.01266 6.31926C7.01964 6.2886 7.02532 6.25782 7.03042 6.22695ZM6.5251 6.83377C6.46134 6.87511 6.39838 6.91771 6.33661 6.96158C6.34051 6.95385 6.34435 6.94605 6.34822 6.93826C6.40804 6.9044 6.46706 6.86954 6.5251 6.83377ZM5.74001 8.33435C5.80168 8.29675 5.86394 8.25839 5.92059 8.22307C5.92917 8.44171 5.97325 8.66533 6.02006 8.8773C5.92519 8.80517 5.82285 8.74105 5.71496 8.68518C5.73307 8.569 5.74179 8.45178 5.74001 8.33435ZM6.66783 7.40277C6.80512 7.13853 6.83979 7.04083 7.14974 6.92236C7.45736 6.80481 7.71711 6.6391 7.97495 6.45277C8.18259 6.3027 8.40513 6.12343 8.48954 5.91098C8.58243 5.87981 8.67364 5.84467 8.76234 5.80473C9.05775 5.67171 9.15433 5.6138 9.48165 5.68861C9.80653 5.76283 10.128 5.7734 10.4627 5.7667C10.5449 5.76506 10.6302 5.76201 10.7152 5.75516C10.8468 5.82747 10.9854 5.88995 11.1296 5.94179C11.437 6.05231 11.55 6.07914 11.6965 6.34538C11.815 6.56082 11.9693 6.74724 12.1427 6.92715C12.1011 7.134 12.0245 7.54486 12.026 7.60246C12.033 7.87876 12.0971 8.15165 12.2127 8.40876C12.334 8.67888 12.3901 8.76866 12.2714 9.04521C12.1959 9.22097 12.1504 9.39829 12.1204 9.5795C12.1176 9.58114 12.115 9.58267 12.1131 9.58395C11.8612 9.75131 11.6459 9.95697 11.4755 10.1897C11.2964 10.4341 11.2462 10.5265 10.9201 10.6052C10.6451 10.6716 10.3988 10.7766 10.1557 10.9001C10.0514 10.858 9.96837 10.826 9.94312 10.8201C9.63743 10.7482 9.31938 10.7249 9.00417 10.7493C8.67305 10.7748 8.55857 10.7965 8.288 10.6192C8.01946 10.4432 7.72646 10.3272 7.41379 10.2228C7.35603 10.2035 7.29631 10.1844 7.23558 10.1669C7.15466 9.9939 7.05065 9.82952 6.92518 9.67751C6.7309 9.44207 6.65105 9.36723 6.68754 9.07361C6.72378 8.78221 6.68831 8.50312 6.63142 8.21516C6.59849 8.04856 6.55437 7.86871 6.46947 7.71767C6.54439 7.61726 6.61098 7.51216 6.66783 7.40277ZM12.1078 10.4445C12.1175 10.4777 12.1294 10.51 12.1438 10.5411C11.9307 10.6018 11.7236 10.6817 11.5239 10.7706C11.7271 10.6747 11.9256 10.568 12.1078 10.4445ZM7.02609 11.382C7.00209 11.4 6.97858 11.4184 6.95549 11.4373C6.82678 11.2979 6.68342 11.1679 6.53393 11.0456C6.68918 11.1666 6.8526 11.2816 7.02609 11.382ZM8.50677 11.1375C8.81107 11.2554 9.12953 11.3531 9.45804 11.395C9.43491 11.4273 9.41524 11.4611 9.39965 11.4963C9.34412 11.5011 9.28872 11.507 9.23333 11.514C9.01034 11.3647 8.7615 11.2427 8.50677 11.1375ZM12.8285 9.73724C12.8343 9.69431 12.8392 9.65132 12.8435 9.60842C12.8678 9.54945 12.8874 9.48929 12.9021 9.42818C12.9211 9.45047 12.9406 9.4723 12.9606 9.49376C12.9112 9.57259 12.8674 9.654 12.8285 9.73724ZM12.7796 8.71605C12.8319 8.37332 12.8474 8.0218 12.7612 7.6843C12.7332 7.57439 12.6933 7.46595 12.6419 7.36219C12.796 7.45815 12.9663 7.5192 13.1526 7.50017C13.1656 7.31335 13.1156 7.13664 13.0278 6.96937C13.1009 7.04792 13.1418 7.13704 13.167 7.29691C13.1824 7.39492 13.2055 7.48978 13.2344 7.58283C13.2208 7.60055 13.2074 7.61839 13.1946 7.6365C12.9641 7.96136 12.8478 8.33862 12.7796 8.71605ZM13.4349 6.7965C13.3448 6.58926 13.2392 6.38521 13.1067 6.19656C13.153 6.18923 13.199 6.18058 13.2446 6.17072C13.2842 6.38341 13.3528 6.59312 13.4349 6.7965ZM12.0644 5.37486C12.0633 5.38232 12.0619 5.38975 12.0609 5.39724C12.0606 5.38957 12.0601 5.38186 12.0596 5.37419C12.0612 5.3744 12.0628 5.37465 12.0644 5.37486ZM11.0745 5.12243C11.1688 5.16265 11.2641 5.19672 11.3607 5.2261C11.4754 5.42775 11.6198 5.61788 11.7762 5.79739C11.529 5.52721 11.249 5.27415 10.9104 5.09479C10.8759 5.07655 10.8407 5.05935 10.8049 5.04279C10.8821 5.05165 10.9657 5.07604 11.0745 5.12243ZM10.6872 4.18126C10.6369 4.12987 10.5843 4.08021 10.5298 4.03217C10.5363 4.00288 10.5417 3.97341 10.5467 3.9439C10.5867 4.0258 10.6334 4.10527 10.6872 4.18126ZM10.7478 4.64934C10.6041 4.62017 10.4585 4.59536 10.312 4.57785C10.3195 4.56524 10.3268 4.55252 10.334 4.53976C10.4699 4.58202 10.6086 4.61798 10.7478 4.64934ZM6.98779 5.50404C6.9858 5.49692 6.98402 5.48973 6.98193 5.48261C7.07642 5.45088 7.16973 5.41651 7.2616 5.3801C7.16921 5.41907 7.07761 5.4602 6.98779 5.50404ZM6.87781 5.04888C6.84621 5.0437 6.8145 5.0391 6.78273 5.03478C6.77802 5.02711 6.77335 5.01944 6.76853 5.01179C6.80456 5.02501 6.84094 5.03752 6.87781 5.04888ZM6.0005 5.6714C6.04364 5.67034 6.08662 5.6679 6.12949 5.66474C6.16489 5.77373 6.20867 5.88066 6.25781 5.98597C6.21564 6.0254 6.17507 6.06638 6.13698 6.10906C5.87025 5.89664 5.57384 5.71266 5.25632 5.56265C5.49068 5.64285 5.74821 5.67756 6.0005 5.6714ZM4.95178 7.36739C4.9861 7.38947 5.02053 7.41136 5.05499 7.43312C4.9839 7.40904 4.91201 7.38682 4.8396 7.36596C4.87692 7.36739 4.91435 7.36791 4.95178 7.36739ZM5.48576 9.30067C5.61081 9.31164 5.73638 9.31922 5.86153 9.32564C5.7098 9.35207 5.55981 9.38574 5.41213 9.42587C5.43707 9.38382 5.46208 9.34138 5.48576 9.30067ZM5.70778 9.81022C5.74151 9.77828 5.77402 9.74534 5.80503 9.71127C5.78016 9.74948 5.75644 9.78824 5.73363 9.82742C5.72505 9.82167 5.71643 9.81594 5.70778 9.81022ZM6.28652 10.2575C6.32252 10.0083 6.31592 9.75316 6.28879 9.50244C6.31861 9.72187 6.3642 9.94144 6.43992 10.1519C6.42168 10.1603 6.40372 10.1697 6.38614 10.18C6.43012 10.2664 6.48705 10.344 6.55398 10.4143C6.56856 10.4424 6.5836 10.4704 6.59964 10.498C6.63944 10.5664 6.68457 10.633 6.73421 10.6968C6.65831 10.6559 6.58987 10.5954 6.50745 10.4937C6.43905 10.4093 6.365 10.3312 6.28652 10.2575ZM10.8416 11.7312C10.8405 11.7484 10.8397 11.7657 10.8392 11.783C10.6788 11.7875 10.5184 11.8006 10.3598 11.8193C10.5216 11.7968 10.6832 11.7685 10.8416 11.7312ZM10.9784 12.5268C10.8721 12.4171 10.7515 12.318 10.6182 12.233C10.7147 12.2765 10.8137 12.3156 10.9148 12.3504C10.9329 12.4101 10.9541 12.469 10.9784 12.5268ZM12.5808 11.3785C12.5201 11.3387 12.457 11.3016 12.3919 11.2676C12.4474 11.2149 12.5015 11.1616 12.5542 11.1087C12.5596 11.1084 12.565 11.1081 12.5703 11.1079C12.566 11.1983 12.5697 11.2888 12.5808 11.3785ZM13.071 10.4297C13.2419 10.2731 13.4005 10.1055 13.5305 9.92272C13.5953 9.95672 13.6619 9.98793 13.7302 10.0162C13.4965 10.1295 13.2813 10.2733 13.0813 10.4303C13.0778 10.43 13.0745 10.4299 13.071 10.4297ZM13.3678 9.04438C13.2932 9.02207 13.2183 9.00063 13.1433 8.97975C13.242 8.98437 13.3407 8.98602 13.4395 8.98486C13.4151 9.00502 13.3911 9.02493 13.3678 9.04438Z" fill="#7EBB15"/>
<path d="M12.4978 10.413C12.3838 10.1949 12.1942 10.0064 11.9653 9.8712C12.0586 9.76589 12.1266 9.63762 12.1825 9.50576C12.2297 9.48719 12.2759 9.46703 12.321 9.44535C12.5334 9.80851 12.9505 10.087 13.4056 10.1586C13.4006 9.93785 13.2749 9.72271 13.1036 9.55097C12.9323 9.37919 12.7173 9.24523 12.5009 9.11861C12.8308 9.2228 13.1789 9.27534 13.5228 9.27288C13.7117 9.27154 13.9137 9.24819 14.0443 9.1359C13.6556 8.86445 13.1107 8.78096 12.6665 8.92485C12.7917 8.8628 12.908 8.78845 13.0136 8.70397C13.1684 8.73259 13.3268 8.73959 13.4808 8.72181C13.4399 8.61601 13.3716 8.51956 13.2862 8.4344C13.3814 8.31746 13.4598 8.18989 13.5184 8.05468C13.3125 8.04344 13.1132 8.09739 12.9424 8.19001C12.7913 8.11234 12.6284 8.05556 12.4627 8.00703C12.4587 7.98977 12.454 7.9726 12.4489 7.95555C12.5064 7.95454 12.5636 7.95201 12.6207 7.94799C12.7039 8.00341 12.796 8.04052 12.8984 8.04149C12.9046 7.9993 12.9055 7.95734 12.902 7.91569C13.03 7.89511 13.1559 7.8668 13.2783 7.83078C13.4542 7.77905 13.6345 7.70248 13.7169 7.55859C13.4074 7.45072 13.0616 7.44521 12.7577 7.53244C12.7209 7.47398 12.6792 7.41668 12.6351 7.36072C12.664 7.31024 12.6901 7.25839 12.7133 7.20548C13.1403 7.24399 13.5759 7.11052 13.8556 6.84296C13.6422 6.71238 13.373 6.67262 13.1221 6.69229C13.0256 6.69987 12.9313 6.71551 12.8385 6.73643C12.8416 6.70754 12.8439 6.67858 12.8453 6.64951C12.6906 6.68428 12.5541 6.75735 12.441 6.85313C12.4286 6.85739 12.4161 6.86165 12.4037 6.86598C12.6703 6.69037 12.897 6.47018 13.0689 6.21964C13.1634 6.082 13.2435 5.92152 13.2024 5.75863C12.9584 5.82092 12.7431 5.94828 12.5822 6.11588C12.4662 6.08398 12.3445 6.07332 12.2242 6.07917C12.1572 5.86793 12.0487 5.66462 11.9031 5.48221C11.746 5.67643 11.7107 5.93567 11.7623 6.17845C11.7624 6.17866 11.7624 6.17891 11.7625 6.17912C11.6731 6.21273 11.587 6.25255 11.503 6.29573C11.4855 6.27265 11.4665 6.25082 11.4463 6.23006C11.5844 6.05654 11.6954 5.86592 11.7749 5.66437C11.8351 5.5115 11.8762 5.33848 11.7995 5.1839C11.4437 5.35014 11.1973 5.6693 11.1388 6.02208C11.1162 6.01158 11.0931 6.00159 11.0697 5.992C11.0305 5.87542 10.9785 5.76152 10.9146 5.65231C11.1833 5.44528 11.3542 5.14183 11.3662 4.82023C11.1139 4.83043 10.8859 4.9453 10.7143 5.09875C10.6678 5.14034 10.6251 5.1847 10.5851 5.23097C10.5509 5.19736 10.5154 5.16466 10.4785 5.13318C10.427 5.23795 10.406 5.35267 10.4091 5.46915C10.374 5.52344 10.3405 5.57863 10.3078 5.63395C10.3784 5.34448 10.3873 5.04057 10.3337 4.74177C10.3042 4.57761 10.2476 4.40269 10.0996 4.29214C9.94495 4.5024 9.87914 4.76129 9.90338 5.01794C9.82385 5.05022 9.7506 5.09321 9.68454 5.14402C9.46367 4.98211 9.20876 4.85606 8.93813 4.77773C8.94364 4.83384 8.95665 4.88922 8.97555 4.94335C8.91469 4.82702 8.83136 4.71924 8.70641 4.65539C8.55671 4.9903 8.60439 5.39413 8.8218 5.71881C8.80237 5.72292 8.78301 5.72736 8.76365 5.73208C8.67223 5.66949 8.5754 5.6131 8.47453 5.56341C8.54223 5.23594 8.45437 4.87509 8.22286 4.59234C8.04229 4.73769 7.95477 4.9558 7.93691 5.17486C7.93158 5.24041 7.932 5.30627 7.93653 5.37224C7.85306 5.35309 7.76861 5.3383 7.68368 5.32813C7.69135 5.3523 7.7007 5.37596 7.71096 5.39937C7.61587 5.28916 7.51113 5.18506 7.39776 5.08861C7.25824 4.9699 7.09085 4.85713 6.90145 4.84678C6.95956 5.26763 7.28901 5.66626 7.73447 5.85469C7.28894 5.73281 6.80643 5.74042 6.3842 5.876C6.51236 6.00061 6.68135 6.08733 6.86259 6.13857C6.8861 6.25073 6.93284 6.36152 6.99465 6.464C7.02423 6.51302 7.05705 6.56039 7.09228 6.60649C7.0506 6.66111 7.01547 6.71938 6.98889 6.78079C6.97993 6.77744 6.9709 6.77418 6.9619 6.7709C6.93427 6.74693 6.90302 6.72599 6.86727 6.70906C6.86067 6.71661 6.85433 6.72428 6.84822 6.73205C6.73542 6.69572 6.62052 6.66519 6.50423 6.6411C6.31776 6.60244 6.11234 6.58207 5.95238 6.66175C6.14541 6.87639 6.41992 7.03307 6.71581 7.10906C6.71065 7.1887 6.71491 7.27094 6.72453 7.35336C6.65749 7.38962 6.59303 7.42932 6.53161 7.47222C6.17234 7.27913 5.72388 7.21903 5.33772 7.32468C5.45907 7.5248 5.68115 7.67121 5.91946 7.7596C6.15776 7.84798 6.41354 7.88421 6.66663 7.91314C6.32787 7.9504 6.00083 8.04223 5.70661 8.1827C5.54498 8.25988 5.38379 8.36246 5.33105 8.51776C5.80906 8.61004 6.32159 8.4674 6.62704 8.15707C6.56524 8.24576 6.51312 8.33977 6.47088 8.4375C6.33202 8.47376 6.20105 8.52884 6.0851 8.60264C6.16679 8.67459 6.26341 8.73085 6.36777 8.7732C6.3353 8.9444 6.33091 9.12107 6.3563 9.29626C6.56576 9.21323 6.72258 9.05534 6.81927 8.87227C6.96099 8.88165 7.10198 8.87452 7.24178 8.85939C7.26054 8.88314 7.28029 8.90628 7.30097 8.92872C7.08991 9.04085 6.89772 9.1784 6.73158 9.33697C6.60786 9.45507 6.49355 9.59767 6.49903 9.76251C6.8319 9.73605 7.14024 9.59475 7.3564 9.38245C7.41011 9.434 7.47042 9.48192 7.53464 9.52692C7.539 9.62617 7.55246 9.72558 7.57489 9.82395C7.21809 9.94427 6.9266 10.197 6.80169 10.5135C7.05109 10.5673 7.31151 10.5165 7.52958 10.4153C7.74769 10.3141 7.92948 10.1657 8.10322 10.0141C7.93845 10.2685 7.82924 10.5521 7.7826 10.8464C7.75696 11.0082 7.75424 11.1868 7.86196 11.3279C8.02045 11.2137 8.14257 11.0644 8.2215 10.8975C8.22102 10.9127 8.22084 10.9279 8.22109 10.9431C8.38977 10.9294 8.54488 10.8686 8.67795 10.7815C8.81566 10.9273 8.97677 11.0567 9.1555 11.163C9.21121 10.9348 9.13757 10.6864 8.99526 10.4773C9.00722 10.4614 9.0188 10.4452 9.03021 10.4289C9.08396 10.444 9.13946 10.4553 9.196 10.4637C9.19471 10.636 9.21389 10.8095 9.25369 10.9804C9.27849 11.087 9.31526 11.1975 9.38027 11.2907C9.37504 11.4236 9.39408 11.5584 9.43971 11.6883C9.66922 11.6064 9.83679 11.4303 9.93759 11.2333C10.0258 11.061 10.0682 10.8722 10.0991 10.6823C10.1088 10.6874 10.1185 10.6924 10.1283 10.6974C10.1793 10.9637 10.2795 11.2254 10.4242 11.4689C10.5133 11.6189 10.6316 11.7714 10.8101 11.8358C10.8927 11.5161 10.8071 11.1603 10.5919 10.8756C10.6085 10.88 10.6252 10.8844 10.642 10.8886C10.637 10.8554 10.6293 10.8226 10.6195 10.7902C10.847 10.9002 11.0951 10.9753 11.3477 11.0112C11.3511 11.0136 11.3545 11.016 11.358 11.0183C11.359 11.0166 11.3599 11.0148 11.3609 11.0131C11.474 11.0286 11.5879 11.0362 11.7013 11.0354C11.6442 10.921 11.5568 10.8197 11.451 10.734C11.4632 10.6161 11.4491 10.4935 11.4157 10.3761C11.3927 10.2952 11.3613 10.2163 11.3244 10.1388C11.3707 10.1078 11.4137 10.0734 11.4527 10.0359C11.6078 10.142 11.7742 10.2352 11.9487 10.3132C12.1213 10.3905 12.3176 10.4544 12.4978 10.413ZM11.6123 9.71629C11.5303 9.69151 11.4462 9.67312 11.361 9.66225C11.4513 9.66167 11.5412 9.65577 11.6299 9.64493C11.6231 9.66855 11.6171 9.69239 11.6123 9.71629ZM7.42225 6.19072C7.60747 6.17796 7.78958 6.14033 7.96496 6.0918C7.80252 6.14067 7.64301 6.19952 7.49798 6.27685C7.47405 6.24729 7.44876 6.21861 7.42225 6.19072ZM10.9829 6.46863C10.926 6.41809 10.8672 6.36871 10.8062 6.32164C10.8185 6.32499 10.831 6.32827 10.8434 6.33156C10.8883 6.37851 10.9351 6.42418 10.9829 6.46863ZM9.55283 6.0837C9.61732 6.08279 9.6815 6.07877 9.74516 6.07165C9.77205 6.0971 9.80111 6.12441 9.8302 6.15166C9.71949 6.13567 9.60728 6.12599 9.49883 6.11798C9.51728 6.10702 9.53518 6.09548 9.55283 6.0837ZM9.01298 6.15361C8.96223 6.14663 8.91123 6.14058 8.8602 6.13555C8.86589 6.13363 8.87157 6.13169 8.87726 6.12977C8.92243 6.1385 8.9677 6.14645 9.01298 6.15361ZM7.89903 6.51204C7.94692 6.51984 7.99548 6.52754 8.03988 6.53433C7.93611 6.63565 7.84678 6.75345 7.7645 6.86707C7.75491 6.79684 7.73782 6.72727 7.71406 6.65913C7.77999 6.61437 7.84197 6.56536 7.89903 6.51204ZM8.80024 6.46546C8.99596 6.40195 9.06063 6.37205 9.2666 6.44281C9.471 6.51305 9.67637 6.54258 9.89103 6.56213C10.0639 6.57787 10.2583 6.58649 10.4033 6.52508C10.4628 6.54822 10.5236 6.56892 10.5855 6.58646C10.7918 6.64488 10.8663 6.65752 10.9852 6.82177C11.1032 6.98478 11.251 7.11792 11.4136 7.24865C11.4536 7.28077 11.4957 7.31347 11.5395 7.34434C11.5665 7.42926 11.6016 7.51262 11.6447 7.59345C11.7365 7.76572 11.7771 7.82289 11.7154 8.00064C11.6655 8.14446 11.6471 8.2896 11.6408 8.43942C11.519 8.51547 11.2799 8.66889 11.2521 8.69526C11.1192 8.82179 11.0151 8.96964 10.9432 9.13094C10.8678 9.30037 10.8502 9.363 10.6572 9.43945C10.5346 9.48804 10.4255 9.54924 10.3218 9.61841C10.3196 9.61801 10.3176 9.61768 10.3161 9.6175C10.1136 9.5918 9.90973 9.59792 9.7138 9.63406C9.50801 9.67202 9.43849 9.69334 9.24445 9.59828C9.08086 9.51818 8.91176 9.46682 8.73516 9.42508C8.70628 9.36455 8.68252 9.31706 8.67342 9.3043C8.5634 9.14997 8.42346 9.01254 8.26141 8.89751C8.09119 8.7767 8.026 8.74068 7.9847 8.55317C7.94372 8.36705 7.86147 8.19808 7.76412 8.02645C7.74612 7.99473 7.72714 7.96233 7.70688 7.93021C7.75368 7.82043 7.78525 7.70525 7.80053 7.58706C7.82418 7.40402 7.8231 7.33859 7.98529 7.22168C8.1463 7.10562 8.26709 6.96648 8.38206 6.8148C8.44854 6.72705 8.51628 6.62887 8.55039 6.52733C8.63564 6.5122 8.71918 6.49174 8.80024 6.46546ZM9.88907 10.0007C9.87729 10.0194 9.867 10.0387 9.85852 10.0583C9.72713 10.0004 9.58917 9.95344 9.45024 9.91352C9.5943 9.95173 9.74139 9.98324 9.88907 10.0007ZM7.00776 8.39065C6.98746 8.38912 6.96716 8.388 6.9469 8.38721C6.9544 8.27337 6.95028 8.15789 6.93947 8.04338C6.95363 8.15965 6.97473 8.27638 7.00776 8.39065ZM7.83318 8.87261C7.91982 9.047 8.02324 9.21795 8.15896 9.36793C8.13197 9.3732 8.10595 9.38044 8.08115 9.39C8.05237 9.36997 8.02307 9.35049 7.99325 9.33152C7.96077 9.17554 7.90252 9.02149 7.83318 8.87261ZM10.581 9.97189C10.6049 9.95493 10.6285 9.93766 10.6517 9.92019C10.6923 9.90344 10.7314 9.88436 10.7686 9.86289C10.7666 9.8804 10.7651 9.89799 10.7641 9.91562C10.7016 9.93115 10.6406 9.95012 10.581 9.97189ZM11.0615 9.49501C11.2555 9.36239 11.4362 9.21116 11.5617 9.0256C11.6026 8.96516 11.6371 8.90071 11.6638 8.83364C11.6898 8.93822 11.7408 9.03354 11.8388 9.09943C11.9372 9.02097 12.0006 8.9219 12.0412 8.81187C12.0373 8.87626 12.0128 8.93249 11.9459 9.01418C11.905 9.06426 11.8691 9.11596 11.837 9.16915C11.8218 9.17168 11.8066 9.17432 11.7916 9.17731C11.5216 9.23068 11.2801 9.3532 11.0615 9.49501ZM12.3203 8.89705C12.3797 8.76827 12.4301 8.6347 12.4601 8.4973C12.4857 8.51246 12.5119 8.52698 12.5385 8.54081C12.4524 8.65187 12.3816 8.77317 12.3203 8.89705ZM12.3693 7.71295C12.3651 7.71585 12.3608 7.71865 12.3566 7.7216C12.3603 7.71801 12.3638 7.71435 12.3674 7.71076C12.368 7.71146 12.3686 7.71219 12.3693 7.71295ZM12.0226 7.20451C12.0477 7.26016 12.0762 7.3135 12.1077 7.36526C12.0629 7.50138 12.0378 7.64424 12.0237 7.78706C12.0393 7.56733 12.0309 7.34215 11.9582 7.12656C11.9508 7.10461 11.9425 7.08281 11.9336 7.06114C11.966 7.09594 11.9937 7.14023 12.0226 7.20451ZM12.3026 6.62826C12.304 6.58512 12.3034 6.54188 12.3012 6.49862C12.3188 6.48808 12.3359 6.47706 12.3528 6.46583C12.3314 6.5185 12.3145 6.57275 12.3026 6.62826ZM12.1005 6.86211C12.0465 6.79163 11.9894 6.72234 11.9283 6.65599C11.9381 6.65334 11.9479 6.65054 11.9576 6.64774C12.0014 6.72093 12.0497 6.79245 12.1005 6.86211ZM9.88918 5.74292C9.89176 5.73893 9.89445 5.73501 9.89696 5.73096C9.95758 5.75449 10.019 5.77638 10.0807 5.79678C10.0174 5.77732 9.95357 5.75918 9.88918 5.74292ZM10.0614 5.49515C10.0489 5.4802 10.036 5.46547 10.0231 5.45085C10.0246 5.44556 10.0262 5.44023 10.0276 5.4349C10.0383 5.45518 10.0494 5.47533 10.0614 5.49515ZM9.33671 5.42348C9.35777 5.44026 9.3794 5.45633 9.40137 5.47204C9.36447 5.53498 9.33256 5.60037 9.30399 5.66717C9.26443 5.66799 9.22495 5.67016 9.18574 5.67405C9.16356 5.47238 9.11323 5.27159 9.03611 5.07756C9.1081 5.20704 9.21354 5.32548 9.33671 5.42348ZM8.00085 5.76411C8.00629 5.78771 8.01187 5.81127 8.01756 5.83478C7.99558 5.79559 7.97239 5.75693 7.94815 5.71866C7.96524 5.73421 7.98278 5.74941 8.00085 5.76411ZM7.30135 6.84327C7.35545 6.89813 7.41151 6.95171 7.46787 7.00457C7.38263 6.95579 7.29462 6.91095 7.20453 6.86994C7.23714 6.86105 7.26996 6.852 7.30135 6.84327ZM7.15562 7.16012C7.18744 7.15929 7.21918 7.15753 7.25074 7.15464C7.22005 7.16179 7.18963 7.16968 7.15946 7.17814C7.1582 7.17214 7.15695 7.16614 7.15562 7.16012ZM7.21049 7.59163C7.35054 7.49438 7.47328 7.37753 7.58403 7.25441C7.48999 7.36459 7.40335 7.48114 7.33557 7.60563C7.3227 7.60213 7.30955 7.59915 7.29609 7.59677C7.27443 7.65304 7.26323 7.71052 7.26044 7.7687C7.2535 7.78715 7.24684 7.80566 7.24087 7.82445C7.22605 7.871 7.21471 7.91883 7.20686 7.96724C7.19089 7.91861 7.18817 7.86418 7.19912 7.78569C7.20819 7.72053 7.21147 7.65602 7.21049 7.59163ZM8.65162 10.0712C8.64258 10.0784 8.63372 10.0859 8.6249 10.0934C8.54638 10.0313 8.46351 9.97319 8.37882 9.91821C8.46696 9.97274 8.55782 10.0246 8.65162 10.0712ZM8.32426 10.4822C8.32782 10.3905 8.31927 10.298 8.29775 10.2067C8.3222 10.2647 8.35007 10.3218 8.38101 10.3777C8.36022 10.4116 8.34125 10.4465 8.32426 10.4822ZM9.65346 10.608C9.64418 10.5659 9.63246 10.5241 9.6183 10.4829C9.67069 10.4815 9.72269 10.4791 9.7739 10.4765C9.77659 10.4785 9.77927 10.4806 9.78196 10.4826C9.73532 10.5213 9.69245 10.5633 9.65346 10.608ZM10.3549 10.3789C10.5134 10.377 10.6716 10.3652 10.8237 10.3353C10.8377 10.3765 10.854 10.417 10.8726 10.457C10.7054 10.4144 10.5321 10.3928 10.3594 10.3832C10.3579 10.3817 10.3564 10.3803 10.3549 10.3789ZM11.1795 9.87702C11.155 9.83719 11.1299 9.79771 11.1046 9.7584C11.1492 9.79984 11.1954 9.84005 11.243 9.87896C11.2214 9.87826 11.2002 9.8776 11.1795 9.87702Z" fill="#94D31A"/>
<path d="M8.69267 6.76283C8.58506 6.81112 8.49315 6.90008 8.48457 7.00546C8.47596 7.1108 8.57687 7.22208 8.69748 7.21356C8.21275 7.52681 7.85463 7.98642 7.69906 8.49508C7.67897 8.56082 7.66219 8.63084 7.68427 8.69612C7.70632 8.76136 7.78012 8.81815 7.85672 8.8056C7.90127 8.79832 7.93897 8.76967 7.984 8.76529C8.1237 8.75156 8.1426 8.93216 8.16712 9.05294C8.21746 9.30108 8.58248 9.4544 8.83603 9.33387C8.93847 9.28512 9.02058 9.20204 9.13318 9.17543C9.27434 9.14212 9.41801 9.20624 9.55663 9.24685C9.84495 9.33131 10.224 9.28418 10.3602 9.04685C10.4602 8.87264 10.3909 8.65362 10.2498 8.50266C10.1086 8.35171 9.90808 8.25413 9.71258 8.16015C9.94258 7.96472 10.3317 7.93269 10.5995 8.0872C10.7408 8.16876 10.871 8.30078 11.0397 8.28653C11.107 8.28084 11.1693 8.25079 11.2189 8.21081C11.447 8.02728 11.3864 7.69862 11.2525 7.45438C11.1834 7.32824 11.0895 7.20043 10.9409 7.14807C10.7924 7.09573 10.5839 7.16125 10.5622 7.29978C10.7128 7.19407 10.8399 7.06297 10.9344 6.91582C10.9626 6.87207 10.9884 6.82455 10.9866 6.77443C10.9838 6.69686 10.9154 6.6328 10.8416 6.58957C10.5208 6.40172 10.0241 6.51516 9.84976 6.81605C9.78492 6.70413 9.71446 6.59066 9.60452 6.50989C9.49464 6.42918 9.33552 6.3875 9.20416 6.43813C9.07957 6.48614 9.03743 6.62004 9.05086 6.72191C8.93038 6.70176 8.80248 6.71354 8.69267 6.76283Z" fill="#B2ED20"/>
</svg>
