<svg width="41" height="40" viewBox="0 0 41 40" fill="none" xmlns="http://www.w3.org/2000/svg">
<path d="M20.3345 19.9593L20.3615 1.4256C25.3931 1.43266 30.2214 3.38972 33.7768 6.86321C37.3321 10.3369 39.3313 15.0501 39.3313 19.9592L20.3345 19.9593Z" fill="#CADBE0"/>
<path d="M39.3332 20.121H20.3364C20.2926 20.121 20.2505 20.1039 20.2196 20.0736C20.1885 20.0435 20.1714 20.0024 20.1714 19.9596L20.1984 1.42605C20.1986 1.38329 20.216 1.34239 20.247 1.31208C20.2781 1.28196 20.3198 1.26505 20.3637 1.26505C25.4028 1.27211 30.3353 3.27138 33.8958 6.75007C37.4564 10.2286 39.4984 15.0435 39.4984 19.9596C39.4983 20.0489 39.4245 20.121 39.3332 20.121ZM20.5017 19.7988H39.1672C39.1232 15.0233 37.1224 10.3587 33.6617 6.97783C30.2013 3.59693 25.423 1.63819 20.5283 1.58836L20.5017 19.7988Z" fill="#939598"/>
<path d="M20.8582 20.1204C20.7941 20.1204 20.7334 20.0839 20.7065 20.0231C20.6703 19.9415 20.7088 19.8469 20.7926 19.8114L37.7859 12.6468C37.8698 12.6113 37.9668 12.6493 38.003 12.7309C38.0392 12.8125 38.0007 12.9073 37.9168 12.9427L20.9235 20.107C20.9022 20.1163 20.8801 20.1204 20.8582 20.1204Z" fill="#939598"/>
<path d="M20.333 19.7178C20.3115 19.7178 20.2898 19.7139 20.2688 19.7052C20.1847 19.6704 20.1455 19.5761 20.1811 19.4939L27.4321 2.76835C27.4675 2.68654 27.5643 2.64824 27.6484 2.68264C27.7324 2.7174 27.7717 2.81185 27.7362 2.89365L20.4853 19.6193C20.4586 19.6808 20.3974 19.7178 20.333 19.7178Z" fill="#939598"/>
<path d="M20.3366 20.1199C20.3099 20.1199 20.2832 20.1136 20.2586 20.1009C20.1961 20.0682 20.162 20.0003 20.1736 19.9323L23.3095 1.65361C23.3246 1.56586 23.4102 1.50729 23.4995 1.52142C23.5895 1.53611 23.6503 1.61921 23.6352 1.70697L20.5801 19.5158L34.0903 7.17452C34.157 7.11354 34.2616 7.11707 34.3238 7.18195C34.3861 7.24684 34.3826 7.34892 34.3161 7.40972L20.4496 20.0765C20.4181 20.105 20.3776 20.1199 20.3366 20.1199Z" fill="#939598"/>
<path d="M20.3635 19.9461C20.3202 19.9461 20.2775 19.9295 20.2455 19.8975C20.1908 19.8431 20.1826 19.7586 20.2261 19.6952L30.6928 4.42153C30.7435 4.34753 30.846 4.32783 30.9218 4.37728C30.9977 4.42674 31.0181 4.52676 30.9674 4.60076L20.9399 19.2332L36.1685 9.71803C36.2455 9.66987 36.3475 9.69182 36.3966 9.76675C36.4458 9.84167 36.4235 9.94114 36.3467 9.98929L20.4523 19.9206C20.4252 19.9377 20.3941 19.9461 20.3635 19.9461Z" fill="#939598"/>
<path d="M20.3364 20.1193C20.2584 20.1193 20.189 20.0652 20.1742 19.9876C20.1576 19.9001 20.2167 19.816 20.3064 19.7997L38.9825 16.4123C39.0715 16.3961 39.1582 16.4539 39.175 16.5411C39.1916 16.6287 39.1325 16.7127 39.0427 16.7291L20.3668 20.1165C20.3567 20.1185 20.3465 20.1193 20.3364 20.1193Z" fill="#939598"/>
<path d="M20.3359 19.9831L20.388 38.5166C25.4195 38.5032 30.2452 36.5399 33.7958 33.0617C37.3466 29.5836 39.3392 24.8677 39.3325 19.9585L20.3359 19.9831Z" fill="#CADBE0"/>
<path d="M39.4991 19.958C39.5058 24.8743 37.4701 29.6919 33.9142 33.175C30.3582 36.6584 25.4289 38.6638 20.3897 38.6775H20.3895C20.3457 38.6775 20.3038 38.6606 20.2727 38.6307C20.2416 38.6005 20.2241 38.5597 20.2241 38.5169L20.1719 19.9831C20.1717 19.9406 20.189 19.8995 20.2199 19.8692C20.251 19.8389 20.2929 19.8218 20.3367 19.8218L39.3337 19.7972C39.425 19.797 39.4989 19.8692 39.4991 19.958ZM20.554 38.3542C25.4487 38.2981 30.2245 36.3332 33.6801 32.9478C37.136 29.5627 39.1308 24.8953 39.1683 20.1198L20.5027 20.1438L20.554 38.3542Z" fill="#939598"/>
<path d="M20.8608 19.8217C20.7969 19.8217 20.7361 19.8582 20.7093 19.9191C20.6733 20.0006 20.7119 20.0954 20.7956 20.1307L37.7986 27.2733C37.8825 27.3086 37.9797 27.2707 38.0157 27.1891C38.0517 27.1074 38.013 27.0126 37.9294 26.9773L20.9263 19.8347C20.9048 19.8258 20.8825 19.8217 20.8608 19.8217Z" fill="#939598"/>
<path d="M20.3361 20.2252C20.3147 20.2252 20.2928 20.2293 20.2719 20.238C20.188 20.2728 20.1489 20.3673 20.1846 20.4493L27.458 37.1656C27.4937 37.2474 27.5905 37.2857 27.6745 37.2511C27.7584 37.2161 27.7976 37.1217 27.762 37.0397L20.4884 20.3234C20.4617 20.262 20.4005 20.2252 20.3361 20.2252Z" fill="#939598"/>
<path d="M20.3368 19.8214C20.3101 19.8214 20.2834 19.8277 20.2588 19.8403C20.1963 19.8731 20.1624 19.9411 20.1742 20.009L23.3345 38.2837C23.3497 38.3715 23.4355 38.4299 23.5249 38.4158C23.6148 38.4011 23.6754 38.318 23.6602 38.23L20.5809 20.4249L34.1078 32.7489C34.1747 32.8097 34.2792 32.806 34.3413 32.7411C34.4036 32.676 34.4 32.5743 34.3333 32.5133L20.4496 19.8645C20.4183 19.8361 20.3777 19.8212 20.3368 19.8214Z" fill="#939598"/>
<path d="M20.3648 19.9955C20.3215 19.9955 20.2788 20.012 20.2468 20.044C20.1921 20.0985 20.1841 20.1829 20.2278 20.2463L30.7152 35.5066C30.7659 35.5804 30.8686 35.6001 30.9443 35.5507C31.02 35.5008 31.0403 35.401 30.9895 35.327L20.9424 20.7074L36.1839 30.203C36.2609 30.251 36.3629 30.2291 36.4121 30.1539C36.4612 30.0788 36.4387 29.9794 36.3617 29.9316L20.454 20.0207C20.4265 20.0036 20.3955 19.9955 20.3648 19.9955Z" fill="#939598"/>
<path d="M20.3366 19.8214C20.2587 19.8214 20.1893 19.8757 20.1747 19.9532C20.1581 20.0408 20.2173 20.1248 20.3071 20.141L38.9875 23.5042C39.0765 23.5204 39.1633 23.4624 39.1798 23.3752C39.1964 23.2876 39.1371 23.2036 39.0474 23.1874L20.3669 19.8242C20.3568 19.8221 20.3467 19.8214 20.3366 19.8214Z" fill="#939598"/>
<path d="M20.5778 19.9355L20.4069 1.40265C15.3755 1.4469 10.5626 3.43949 7.0343 6.93938C3.50583 10.4391 1.54348 15.167 1.5816 20.0758L20.5778 19.9355Z" fill="#CADBE0"/>
<path d="M1.41753 20.0767C1.37941 15.1605 3.38406 10.3308 6.91768 6.8259C10.4511 3.32081 15.3677 1.28528 20.4067 1.24103H20.4069C20.4505 1.24066 20.4927 1.25739 20.5239 1.28714C20.5552 1.31726 20.5729 1.35797 20.5733 1.40074L20.744 19.9336C20.7444 19.9763 20.7274 20.0176 20.6966 20.0479C20.6659 20.0784 20.624 20.0959 20.5801 20.0961L1.58371 20.2364C1.49261 20.2372 1.41829 20.1656 1.41753 20.0767ZM20.2443 1.56566C15.3502 1.65156 10.5872 3.64562 7.15304 7.05199C3.7189 10.4582 1.75408 15.1376 1.74722 19.9133L20.4122 19.7755L20.2443 1.56566Z" fill="#939598"/>
<path d="M20.0517 20.1002C20.1156 20.0996 20.1762 20.0628 20.2027 20.0018C20.2383 19.92 20.1989 19.8256 20.115 19.7906L3.06645 12.752C2.98241 12.717 2.8856 12.7557 2.84996 12.8377C2.81452 12.9195 2.85377 13.0142 2.93763 13.0489L19.9862 20.0876C20.0077 20.0965 20.0298 20.1004 20.0517 20.1002Z" fill="#939598"/>
<path d="M20.5774 19.6934C20.5988 19.6932 20.6207 19.6891 20.6415 19.6804C20.7251 19.645 20.7638 19.5502 20.7276 19.4684L13.3471 2.79671C13.311 2.7149 13.2139 2.67752 13.13 2.71266C13.0463 2.74799 13.0077 2.84282 13.0439 2.92444L20.4246 19.5961C20.4517 19.6573 20.5132 19.6939 20.5774 19.6934Z" fill="#939598"/>
<path d="M20.5803 20.096C20.607 20.0958 20.6337 20.0895 20.6581 20.0765C20.7202 20.0434 20.7537 19.9753 20.7415 19.9074L17.4641 1.6522C17.4482 1.56463 17.3621 1.50663 17.2729 1.52132C17.1832 1.53675 17.1229 1.62023 17.1387 1.7078L20.332 19.4938L6.72635 7.25251C6.65908 7.19209 6.55465 7.19637 6.4929 7.26163C6.43116 7.32707 6.43535 7.42896 6.50243 7.48938L20.4667 20.0534C20.4986 20.0817 20.5393 20.0963 20.5803 20.096Z" fill="#939598"/>
<path d="M20.5504 19.9238C20.5937 19.9234 20.6362 19.9065 20.668 19.8744C20.7223 19.8195 20.7298 19.7351 20.6857 19.6719L10.1009 4.47589C10.0496 4.40227 9.94688 4.3833 9.87142 4.43332C9.79595 4.48352 9.77632 4.58354 9.82759 4.65717L19.9682 19.2153L4.66627 9.81274C4.58909 9.76514 4.48713 9.78782 4.43853 9.86312C4.38994 9.93824 4.413 10.0377 4.49018 10.0851L20.4612 19.8987C20.4889 19.9158 20.5197 19.924 20.5504 19.9238Z" fill="#939598"/>
<path d="M20.5797 20.0946C20.6576 20.0941 20.7266 20.0394 20.7409 19.9619C20.7567 19.8743 20.6971 19.7906 20.6071 19.775L1.90555 16.5256C1.81636 16.51 1.73003 16.5682 1.71402 16.6559C1.69801 16.7435 1.75766 16.8272 1.84761 16.8428L20.5494 20.0922C20.5595 20.0941 20.5698 20.0948 20.5797 20.0946Z" fill="#939598"/>
<path d="M20.5811 19.9585L20.6727 38.4919C15.6412 38.5157 10.8004 36.588 7.22279 33.1361C3.64515 29.6842 1.61592 24.9832 1.58447 20.0743L20.5811 19.9585Z" fill="#CADBE0"/>
<path d="M1.58499 19.913L20.5814 19.7972C20.6252 19.7968 20.6675 19.8136 20.6986 19.8437C20.7297 19.8738 20.7474 19.9147 20.7476 19.9573L20.8392 38.4909C20.8394 38.5336 20.8223 38.5747 20.7914 38.605C20.7607 38.6353 20.7188 38.6524 20.6752 38.6528H20.675C15.636 38.6764 10.691 36.7073 7.1082 33.2503C3.52541 29.7934 1.45235 24.9913 1.4209 20.075C1.42033 19.9861 1.49389 19.9136 1.58499 19.913ZM20.4183 20.1204L1.75307 20.2342C1.82778 25.0091 3.85853 29.6616 7.34051 33.0213C10.8225 36.3808 15.6133 38.3105 20.5082 38.3306L20.4183 20.1204Z" fill="#939598"/>
<path d="M20.0531 19.8004C20.1169 19.8 20.1781 19.8359 20.2054 19.8968C20.242 19.9783 20.2042 20.0731 20.1208 20.1092L3.17358 27.3771C3.08992 27.4131 2.99254 27.3758 2.95595 27.2945C2.91917 27.2131 2.95709 27.1181 3.04056 27.082L19.9877 19.8141C20.0091 19.8048 20.0314 19.8005 20.0531 19.8004Z" fill="#939598"/>
<path d="M20.5823 20.201C20.6037 20.2008 20.6256 20.2049 20.6465 20.2132C20.7308 20.2475 20.7706 20.3417 20.7357 20.4239L13.5921 37.1934C13.557 37.2754 13.4606 37.3144 13.3761 37.2804C13.2919 37.2462 13.2521 37.1519 13.2871 37.0697L20.4308 20.3003C20.4571 20.2387 20.5181 20.2013 20.5823 20.201Z" fill="#939598"/>
<path d="M20.579 19.7972C20.6057 19.7971 20.6324 19.803 20.6571 19.8158C20.7198 19.8482 20.7543 19.9157 20.7431 19.9839L17.7246 38.2813C17.7101 38.3691 17.6249 38.4282 17.5353 38.4148C17.4452 38.4007 17.384 38.3178 17.3985 38.23L20.3395 20.4028L6.90856 32.8263C6.84224 32.8876 6.73762 32.8846 6.67511 32.8203C6.61241 32.7556 6.61527 32.6537 6.6814 32.5924L20.4666 19.8413C20.4974 19.8125 20.5378 19.7974 20.579 19.7972Z" fill="#939598"/>
<path d="M20.5509 19.9722C20.5942 19.9718 20.6371 19.9882 20.6693 20.0198C20.7243 20.0739 20.7329 20.1583 20.6899 20.222L10.3211 35.5592C10.271 35.6335 10.1685 35.654 10.0922 35.6051C10.0162 35.5558 9.99503 35.456 10.0453 35.3818L19.9786 20.6884L4.81123 30.2965C4.73462 30.345 4.63247 30.3237 4.58273 30.2491C4.53318 30.1745 4.5549 30.0745 4.63133 30.0264L20.4617 19.9982C20.4894 19.9809 20.5202 19.9724 20.5509 19.9722Z" fill="#939598"/>
<path d="M20.5796 19.7972C20.6575 19.7967 20.7273 19.8504 20.7425 19.9278C20.7597 20.0152 20.7012 20.0997 20.6116 20.1165L1.95765 23.6177C1.86865 23.6344 1.78156 23.5771 1.76421 23.4898C1.74706 23.4024 1.80557 23.318 1.89533 23.301L20.5493 19.8C20.5594 19.7982 20.5695 19.7972 20.5796 19.7972Z" fill="#939598"/>
<path d="M35.5897 25.2785C38.5777 17.148 34.2441 8.19367 25.9103 5.27848C17.5765 2.36328 8.39832 6.59111 5.4103 14.7216C2.42227 22.8521 6.7559 31.8064 15.0897 34.7216C23.4235 37.6368 32.6017 33.409 35.5897 25.2785Z" fill="#B59686"/>
<path d="M20.6699 35.8763C11.7396 35.8763 4.47412 28.788 4.47412 20.0755C4.47412 11.3629 11.7396 4.27466 20.6699 4.27466C29.6002 4.27466 36.8656 11.3629 36.8656 20.0755C36.8656 28.788 29.6002 35.8763 20.6699 35.8763ZM20.6699 4.59668C11.9216 4.59668 4.80439 11.5403 4.80439 20.0753C4.80439 28.6103 11.9216 35.5539 20.6699 35.5539C29.4182 35.5539 36.5353 28.6103 36.5353 20.0753C36.5353 11.5403 29.4182 4.59668 20.6699 4.59668Z" fill="#939598"/>
<path d="M14.9986 8.05851C13.2043 7.96722 11.3794 8.67487 10.3202 9.8728C10.0456 10.1835 9.81289 10.5477 9.8409 10.9316C9.86892 11.3154 10.2455 11.7008 10.7113 11.6852C9.47043 12.3927 8.1751 13.1516 7.53267 14.2772C6.89025 15.4028 7.19878 16.9996 8.56825 17.5213C7.76765 18.1229 6.95618 18.7352 6.38675 19.4951C5.81731 20.255 5.51144 21.1956 5.81179 22.0538C6.11213 22.912 7.13075 23.6227 8.20845 23.5325C7.65197 24.3026 7.13723 25.1166 6.97143 26.0025C6.80563 26.8884 7.03908 27.8664 7.80862 28.4999C8.57816 29.133 9.93905 29.2921 10.7629 28.7074C11.1883 30.1178 12.4371 31.3429 14.0488 31.9308C15.6605 32.5185 17.5995 32.4562 19.1508 31.7666C20.6619 32.9854 23.0984 33.3444 25.0276 32.6325C26.0197 32.2664 26.952 31.4435 26.6878 30.5739C27.9201 30.6912 29.2076 30.3106 30.0694 29.5747C30.931 28.8388 31.347 27.7644 31.1619 26.7527C32.8883 26.5216 34.3415 25.2789 34.5587 23.8476C34.6777 23.0652 34.364 22.1579 33.507 21.8082C34.9153 22.1014 36.2173 20.7553 36.0016 19.5706C35.7856 18.386 34.5631 17.493 33.2706 16.9464C34.3969 16.6262 34.5925 15.26 33.898 14.4618C33.2034 13.6638 31.9843 13.3186 30.8298 13.0769C31.5978 12.2865 31.083 11.0683 30.2142 10.3523C29.1946 9.51191 27.7326 9.05044 26.2933 9.11421C26.6394 8.74571 26.4628 8.17361 26.0477 7.85735C25.6324 7.5409 25.0518 7.42432 24.493 7.35441C23.5902 7.24174 22.6709 7.22073 21.7619 7.29194C21.1825 7.33749 20.4517 7.56786 20.4835 8.047C20.5414 7.60858 20.1702 7.19191 19.7031 6.97717C19.236 6.76242 18.6883 6.7085 18.1558 6.66592C17.1982 6.58932 16.2129 6.53801 15.29 6.76279C14.3672 6.98739 13.5068 7.5422 13.2676 8.31101L14.9986 8.05851Z" fill="#78A015"/>
<path d="M11.2469 16.5044C10.5841 17.2989 9.90054 18.135 9.685 19.1375C9.46946 20.1402 9.89006 21.3532 10.8768 21.7027C10.4168 22.9304 11.3142 24.4572 12.6324 24.69C13.3265 24.8125 14.0337 24.621 14.7116 24.4312C14.8423 24.3946 14.9791 24.3544 15.0744 24.2598C15.4259 23.9108 14.8962 23.3798 14.4278 23.2048C13.9594 23.0304 13.3579 22.656 13.5714 22.2133C13.6977 21.9511 14.0596 21.8723 14.2127 21.6241C14.3815 21.3504 14.2254 20.9884 13.9964 20.7603C13.7673 20.5321 13.4692 20.3722 13.2686 20.1199C12.7851 19.5118 13.0286 18.6377 13.2929 17.9128C13.3831 17.6657 13.4868 17.4013 13.7116 17.258C14.2908 16.8889 14.9538 17.5895 15.6204 17.7691C16.3181 17.957 17.0762 17.4959 17.388 16.8591C17.7 16.222 17.6441 15.4669 17.4436 14.7885C18.2944 13.9864 19.7363 14.8104 20.8791 14.5124C21.6927 14.3 22.2648 13.4327 22.1255 12.6224C22.6113 12.3279 22.778 11.6283 22.4754 11.1547C22.1727 10.6813 21.4554 10.5194 20.9706 10.8154C20.4743 10.2031 19.5851 9.92425 18.8162 10.1397C18.0472 10.3552 17.4452 11.0517 17.3573 11.8276C17.3447 11.9386 17.3362 12.0628 17.2515 12.1381C17.1553 12.2238 17.0061 12.2069 16.8786 12.181C16.2653 12.0568 15.6538 11.8479 15.0298 11.9021C14.403 11.9566 13.8408 12.3504 13.7038 12.9616C12.0428 12.448 9.85804 15.1482 11.2469 16.5044Z" fill="#7EBB15"/>
<path d="M23.0166 15.9458C23.4915 15.753 23.889 15.079 24.3266 15.3429C24.4223 15.4005 24.4869 15.4951 24.5454 15.5887C25.0309 16.3638 25.523 17.3972 26.4542 17.3873C26.792 17.3838 27.1189 17.2267 27.4556 17.2559C28.0308 17.3057 28.4155 17.8787 28.5314 18.4306C28.6473 18.9826 28.5861 19.561 28.7231 20.1082C28.7639 20.271 28.8283 20.4386 28.9629 20.5429C29.0907 20.642 29.2617 20.6682 29.4246 20.6805C29.9903 20.7234 30.5892 20.631 31.0432 20.2989C31.4971 19.9669 31.7634 19.3585 31.5743 18.8366C31.4159 18.3993 30.9664 17.9912 31.1367 17.5584C31.2627 17.2386 31.6574 17.1276 31.9398 16.9242C32.3412 16.6352 32.5287 16.0918 32.3882 15.6251C32.2478 15.1582 31.7889 14.8 31.2913 14.7685C31.0192 14.7514 30.7356 14.8215 30.4787 14.7323C30.0196 14.5729 29.8824 14.0077 29.8731 13.5323C29.8635 13.0569 29.8902 12.5218 29.5548 12.1769C29.3581 11.9746 29.0738 11.8824 28.8016 11.7974C28.1259 11.5866 27.2511 11.4308 26.8222 11.9821C26.5639 12.3139 26.542 12.8403 26.1578 13.0221C25.7643 13.2084 25.3315 12.8821 24.9057 12.7843C24.1798 12.6174 23.3909 13.2914 23.4646 14.0153C23.4341 13.7164 22.154 14.5451 22.0607 14.771C21.8154 15.3646 22.2739 16.2474 23.0166 15.9458Z" fill="#7EBB15"/>
<path d="M13.0957 28.317C13.5739 28.6249 14.0522 28.933 14.5303 29.241C14.1193 29.7536 13.801 30.3371 13.5948 30.956C14.1366 30.6911 14.6784 30.4259 15.22 30.161C14.9431 31.0233 14.8814 31.9504 15.0415 32.8402C15.4535 32.3339 15.8655 31.8278 16.2773 31.3216C16.5739 31.8648 17.0166 32.3313 17.549 32.6613C17.6245 31.9703 17.6815 31.2773 17.7198 30.5832C18.3923 30.7197 19.1074 30.6498 19.7389 30.3862C19.2324 30.2562 18.7258 30.1262 18.2191 29.9963C18.7902 29.5517 19.309 29.0432 19.7618 28.4836C19.0671 28.4914 18.3738 28.6046 17.7146 28.8184C17.7594 28.3335 17.7257 27.8421 17.615 27.3677C17.2965 27.7981 16.9781 28.2287 16.6596 28.6591C16.4525 28.0457 16.2451 27.4325 16.038 26.8192C15.9682 27.3046 15.8985 27.7901 15.8285 28.2755C15.8179 28.3501 15.8003 28.4351 15.7334 28.4728C15.6652 28.5113 15.5796 28.4817 15.5076 28.4507C15.0258 28.2428 14.574 27.9769 14.1299 27.7066C14.2988 27.9533 14.2927 28.2355 14.331 28.4787C14.0491 28.4386 13.3189 28.4609 13.0957 28.317Z" fill="#F4E2B5"/>
<path d="M25.3994 24.3876C25.8776 24.6957 26.3559 25.0036 26.8341 25.3119C26.423 25.8245 26.1047 26.4076 25.8985 27.0269C26.4403 26.7617 26.9821 26.4966 27.5237 26.2319C27.2468 27.094 27.1851 28.021 27.3454 28.9109C27.7572 28.4046 28.1692 27.8985 28.5812 27.3922C28.8778 27.9355 29.3205 28.402 29.8529 28.732C29.9284 28.0409 29.9854 27.3482 30.0237 26.6539C30.6962 26.7904 31.4113 26.7205 32.0428 26.4566C31.5363 26.3269 31.0297 26.1969 30.523 26.0667C31.0941 25.6222 31.6129 25.1137 32.0657 24.5542C31.371 24.5618 30.6777 24.6751 30.0185 24.8889C30.0633 24.4044 30.0296 23.9126 29.9189 23.4381C29.6004 23.8685 29.282 24.2992 28.9635 24.7296C28.7564 24.1164 28.549 23.503 28.3419 22.8896C28.2721 23.3751 28.2024 23.8607 28.1324 24.346C28.1218 24.4207 28.1042 24.5055 28.0373 24.5434C27.9691 24.5817 27.8834 24.5522 27.8113 24.5211C27.3295 24.3133 26.8777 24.0474 26.4337 23.7771C26.6025 24.0238 26.5964 24.306 26.6347 24.5492C26.3529 24.5092 25.6226 24.5314 25.3994 24.3876Z" fill="#F4E2B5"/>
<path d="M12.5776 16.2403C13.056 16.5484 13.5341 16.8565 14.0125 17.1646C13.6012 17.6772 13.2831 18.2604 13.0769 18.8796C13.6186 18.6144 14.1604 18.3493 14.7022 18.0845C14.4253 18.9467 14.3637 19.8737 14.5238 20.7635C14.9358 20.2573 15.3476 19.7512 15.7597 19.2449C16.0564 19.7882 16.4991 20.2547 17.0314 20.5847C17.107 19.8936 17.164 19.2008 17.2021 18.5066C17.8746 18.6431 18.5899 18.5731 19.2212 18.3093C18.7147 18.1794 18.2081 18.0496 17.7016 17.9194C18.2727 17.4749 18.7915 16.9664 19.2443 16.4069C18.5497 16.4145 17.8563 16.5278 17.1971 16.7416C17.2419 16.2569 17.2082 15.7653 17.0975 15.2908C16.779 15.7212 16.4606 16.1518 16.1421 16.5822C15.935 15.9689 15.7276 15.3557 15.5205 14.7423C15.4507 15.2278 15.381 15.7132 15.311 16.1987C15.3004 16.2732 15.2828 16.3582 15.2159 16.3961C15.1477 16.4344 15.062 16.4049 14.9901 16.3738C14.5083 16.166 14.0565 15.9001 13.6125 15.6297C13.7811 15.8765 13.7752 16.1587 13.8135 16.4019C13.5311 16.3619 12.8008 16.3842 12.5776 16.2403Z" fill="#F4E2B5"/>
<path d="M21.3711 9.17975C21.8494 9.48783 22.3278 9.79572 22.8059 10.1038C22.3949 10.6164 22.0766 11.1997 21.8704 11.8188C22.412 11.5537 22.954 11.2887 23.4956 11.0236C23.2187 11.8857 23.1572 12.8129 23.3172 13.7028C23.7293 13.1965 24.1411 12.6904 24.5531 12.1841C24.8498 12.7274 25.2925 13.1939 25.8248 13.5239C25.9005 12.8328 25.9574 12.1399 25.9956 11.446C26.6681 11.5825 27.3833 11.5126 28.0147 11.2487C27.5081 11.1188 27.0016 10.989 26.4951 10.8589C27.0662 10.4143 27.5849 9.90579 28.0378 9.34634C27.3431 9.35415 26.6498 9.46737 25.9906 9.681C26.0354 9.19629 26.0017 8.70489 25.8909 8.23022C25.5725 8.66064 25.254 9.09124 24.9356 9.52167C24.7284 8.90848 24.5211 8.2951 24.3139 7.68192C24.2442 8.16737 24.1744 8.65283 24.1045 9.13828C24.0938 9.21284 24.0763 9.29781 24.0094 9.33556C23.9412 9.37386 23.8554 9.34429 23.7836 9.31324C23.3018 9.10537 22.8499 8.83968 22.4059 8.56935C22.5746 8.81607 22.5687 9.09831 22.607 9.3415C22.3245 9.30134 21.5943 9.32347 21.3711 9.17975Z" fill="#F4E2B5"/>
<path d="M22.6812 18.4778C23.0713 18.7291 23.4616 18.9803 23.8518 19.2317C23.5164 19.6498 23.2567 20.1258 23.0886 20.6308C23.5305 20.4146 23.9725 20.1983 24.4146 19.9821C24.1888 20.6855 24.1385 21.442 24.269 22.168C24.6052 21.7549 24.9412 21.342 25.2773 20.929C25.5194 21.3723 25.8805 21.7529 26.3148 22.0221C26.3766 21.4584 26.4231 20.893 26.4541 20.3268C27.003 20.4382 27.5863 20.3811 28.1016 20.166C27.6883 20.06 27.2751 19.9538 26.8618 19.8479C27.3277 19.4853 27.751 19.0701 28.1203 18.6137C27.5536 18.62 26.9879 18.7124 26.4501 18.8868C26.4865 18.4913 26.4591 18.0905 26.3689 17.7032C26.1092 18.0546 25.8493 18.4058 25.5895 18.757C25.4205 18.2567 25.2514 17.7562 25.0824 17.256C25.0254 17.6521 24.9684 18.0481 24.9116 18.4443C24.9029 18.5051 24.8886 18.5744 24.8341 18.6051C24.7784 18.6365 24.7085 18.6124 24.6498 18.5869C24.2568 18.4173 23.8882 18.2006 23.526 17.9799C23.6638 18.1812 23.6588 18.4114 23.6901 18.61C23.4589 18.5769 22.8633 18.5949 22.6812 18.4778Z" fill="#F4E2B5"/>
<path d="M30.1865 14.5512C30.5766 14.8026 30.9669 15.054 31.3572 15.3052C31.0218 15.7233 30.7622 16.1993 30.594 16.7043C31.0359 16.4881 31.478 16.2718 31.92 16.0556C31.6942 16.7589 31.6438 17.5155 31.7744 18.2413C32.1106 17.8284 32.4465 17.4155 32.7827 17.0025C33.0247 17.4458 33.3859 17.8264 33.8202 18.0956C33.8819 17.5318 33.9283 16.9664 33.9595 16.4003C34.5082 16.5117 35.0917 16.4546 35.6068 16.2393C35.1935 16.1333 34.7803 16.0273 34.367 15.9213C34.8329 15.5586 35.2562 15.1436 35.6257 14.6872C35.0589 14.6935 34.4933 14.7859 33.9555 14.9603C33.9919 14.5648 33.9645 14.1638 33.8741 13.7767C33.6144 14.1281 33.3544 14.4791 33.0947 14.8305C32.9256 14.3302 32.7566 13.8297 32.5876 13.3293C32.5306 13.7254 32.4736 14.1216 32.4168 14.5176C32.408 14.5786 32.3938 14.6479 32.3391 14.6786C32.2834 14.7098 32.2135 14.6859 32.1548 14.6604C31.7616 14.4908 31.393 14.2739 31.031 14.0533C31.1687 14.2547 31.1638 14.4849 31.195 14.6833C30.9644 14.6504 30.3687 14.6686 30.1865 14.5512Z" fill="#F4E2B5"/>
<path d="M12.6357 6.94125C13.0258 7.19263 13.4161 7.44381 13.8062 7.69519C13.4708 8.11352 13.2113 8.58931 13.043 9.09429C13.4849 8.87806 13.9271 8.66182 14.369 8.44559C14.143 9.14895 14.0927 9.9053 14.2234 10.6313C14.5596 10.2184 14.8956 9.80545 15.2317 9.39232C15.4738 9.83557 15.8349 10.2162 16.2694 10.4854C16.3312 9.92148 16.3775 9.35626 16.4087 8.78992C16.9574 8.90129 17.5407 8.84421 18.056 8.62891C17.6429 8.52293 17.2295 8.41695 16.8162 8.31079C17.2821 7.94823 17.7054 7.53325 18.0747 7.0768C17.508 7.08312 16.9423 7.17552 16.4045 7.34992C16.4411 6.95445 16.4135 6.5534 16.3233 6.1663C16.0636 6.51752 15.8037 6.86874 15.5439 7.21995C15.3749 6.71962 15.2058 6.21929 15.0366 5.71896C14.9796 6.11499 14.9226 6.51102 14.8658 6.90723C14.8571 6.96822 14.8428 7.03737 14.7883 7.06824C14.7326 7.09966 14.6627 7.07549 14.604 7.05001C14.211 6.88045 13.8423 6.66348 13.4802 6.44297C13.6178 6.64433 13.6128 6.8745 13.6443 7.07307C13.4137 7.04035 12.8179 7.05857 12.6357 6.94125Z" fill="#F4E2B5"/>
<path d="M4.34326 19.9195C4.80941 19.9556 5.27555 19.9918 5.7415 20.0277C5.65498 20.552 5.66337 21.0911 5.76628 21.6124C6.04604 21.2147 6.32599 20.8172 6.60576 20.4193C6.7565 21.1416 7.08695 21.8275 7.5611 22.4017C7.65067 21.8814 7.74043 21.3614 7.83019 20.8413C8.26165 21.1154 8.76629 21.2783 9.28008 21.3093C9.05482 20.7865 8.81546 20.2696 8.56219 19.7593C9.09789 19.5981 9.58023 19.2732 9.92479 18.8417C9.51048 18.9438 9.09618 19.0459 8.68187 19.1477C8.91018 18.6104 9.07521 18.0476 9.17241 17.4738C8.67939 17.7466 8.23002 18.0943 7.84544 18.5003C7.68155 18.1369 7.45876 17.7988 7.18796 17.5025C7.13441 17.9325 7.08086 18.3624 7.0275 18.7924C6.63167 18.434 6.23585 18.0759 5.83984 17.7174C5.9862 18.0911 6.13256 18.4647 6.27892 18.8382C6.30141 18.8956 6.32333 18.9629 6.29074 19.0157C6.25758 19.0693 6.1844 19.0812 6.12036 19.0868C5.69214 19.1234 5.26202 19.1074 4.8357 19.0851C5.05601 19.1965 5.16559 19.4002 5.29137 19.5592C5.07335 19.6399 4.5609 19.9364 4.34326 19.9195Z" fill="#F4E2B5"/>
</svg>
