<svg width="289" height="290" viewBox="0 0 289 290" fill="none" xmlns="http://www.w3.org/2000/svg">
<path d="M143.424 144.763L143.596 23.2607C175.668 23.3066 206.442 36.1362 229.104 58.9095C251.766 81.6816 264.508 112.581 264.508 144.763H143.424Z" fill="#CADBE0"/>
<path d="M264.507 145.82H143.423C143.143 145.82 142.875 145.708 142.678 145.509C142.48 145.312 142.37 145.043 142.37 144.762L142.543 23.2595C142.543 22.9784 142.655 22.7102 142.852 22.5127C143.05 22.3152 143.317 22.2046 143.595 22.2046C175.715 22.2504 207.152 35.3571 229.848 58.1635C252.543 80.9693 265.559 112.534 265.559 144.764C265.56 145.347 265.089 145.82 264.507 145.82ZM144.477 143.708H263.45C263.169 112.4 250.415 81.8193 228.359 59.6553C206.303 37.4914 175.846 24.6495 144.647 24.3233L144.477 143.708Z" fill="#939598"/>
<path d="M146.776 145.82C146.369 145.82 145.981 145.581 145.809 145.182C145.579 144.647 145.824 144.025 146.357 143.793L254.672 96.8247C255.206 96.5915 255.825 96.8402 256.056 97.3755C256.286 97.91 256.041 98.5323 255.507 98.7642L147.193 145.733C147.057 145.792 146.915 145.82 146.776 145.82Z" fill="#939598"/>
<path d="M143.428 143.173C143.291 143.173 143.152 143.146 143.018 143.09C142.483 142.862 142.233 142.243 142.459 141.705L188.676 32.0544C188.903 31.5178 189.519 31.2665 190.056 31.493C190.591 31.7208 190.841 32.3403 190.616 32.8775L144.398 142.528C144.228 142.93 143.838 143.173 143.428 143.173Z" fill="#939598"/>
<path d="M143.423 145.82C143.253 145.82 143.083 145.778 142.926 145.694C142.528 145.481 142.31 145.035 142.385 144.589L162.371 24.7568C162.468 24.1818 163.013 23.7976 163.583 23.8899C164.157 23.9863 164.544 24.5303 164.448 25.106L144.974 141.858L231.088 60.951C231.513 60.5513 232.179 60.5742 232.575 60.9996C232.972 61.4256 232.95 62.0936 232.526 62.4927L144.142 145.534C143.943 145.722 143.684 145.82 143.423 145.82Z" fill="#939598"/>
<path d="M143.614 144.685C143.338 144.685 143.066 144.577 142.861 144.368C142.513 144.011 142.461 143.458 142.738 143.042L209.452 42.9096C209.774 42.4236 210.429 42.2948 210.912 42.6184C211.395 42.9426 211.525 43.5979 211.202 44.084L147.288 140.012L244.354 77.6323C244.844 77.3161 245.495 77.4604 245.808 77.9518C246.121 78.4432 245.979 79.0964 245.489 79.4105L144.18 144.518C144.007 144.63 143.809 144.685 143.614 144.685Z" fill="#939598"/>
<path d="M143.422 145.82C142.925 145.82 142.483 145.464 142.388 144.957C142.282 144.383 142.659 143.832 143.23 143.725L262.269 121.519C262.837 121.412 263.39 121.79 263.496 122.364C263.603 122.938 263.226 123.489 262.654 123.596L143.615 145.801C143.551 145.814 143.486 145.82 143.422 145.82Z" fill="#939598"/>
<path d="M143.424 144.923L143.756 266.426C175.827 266.337 206.586 253.467 229.217 230.664C251.849 207.862 264.55 176.945 264.508 144.763L143.424 144.923Z" fill="#CADBE0"/>
<path d="M265.56 144.762C265.602 176.992 252.627 208.574 229.962 231.41C207.297 254.246 175.877 267.394 143.758 267.483H143.757C143.478 267.483 143.211 267.373 143.013 267.175C142.815 266.978 142.703 266.71 142.703 266.43L142.37 144.927C142.369 144.647 142.48 144.378 142.677 144.179C142.874 143.98 143.142 143.869 143.421 143.868L264.506 143.708C265.087 143.707 265.559 144.179 265.56 144.762ZM144.805 265.363C176.003 264.994 206.443 252.113 228.471 229.919C250.498 207.726 263.212 177.129 263.451 145.821L144.478 145.978L144.805 265.363Z" fill="#939598"/>
<path d="M146.774 143.863C146.367 143.863 145.978 144.103 145.808 144.502C145.578 145.037 145.824 145.658 146.358 145.89L254.734 192.715C255.268 192.947 255.887 192.697 256.117 192.162C256.347 191.627 256.1 191.005 255.567 190.775L147.191 143.95C147.055 143.89 146.913 143.863 146.774 143.863Z" fill="#939598"/>
<path d="M143.429 146.515C143.292 146.515 143.153 146.542 143.019 146.598C142.485 146.827 142.235 147.447 142.462 147.984L188.823 257.573C189.049 258.109 189.667 258.359 190.203 258.133C190.738 257.904 190.987 257.284 190.76 256.748L144.399 147.158C144.229 146.756 143.839 146.514 143.429 146.515Z" fill="#939598"/>
<path d="M143.423 143.867C143.253 143.867 143.083 143.91 142.926 143.993C142.529 144.208 142.312 144.653 142.387 145.1L162.531 264.906C162.628 265.481 163.174 265.864 163.744 265.771C164.317 265.673 164.704 265.129 164.607 264.553L144.98 147.827L231.199 228.621C231.625 229.02 232.292 228.996 232.687 228.57C233.084 228.144 233.061 227.476 232.636 227.077L144.143 144.153C143.943 143.964 143.684 143.867 143.423 143.867Z" fill="#939598"/>
<path d="M143.613 145.001C143.338 145.002 143.066 145.11 142.862 145.32C142.513 145.677 142.462 146.231 142.74 146.647L209.586 246.69C209.909 247.175 210.563 247.303 211.046 246.979C211.529 246.654 211.658 245.998 211.334 245.513L147.295 149.67L244.442 211.921C244.932 212.237 245.583 212.091 245.896 211.6C246.209 211.109 246.065 210.456 245.575 210.143L144.18 145.169C144.006 145.057 143.809 145.001 143.613 145.001Z" fill="#939598"/>
<path d="M143.422 143.867C142.925 143.868 142.484 144.223 142.39 144.732C142.284 145.305 142.662 145.857 143.233 145.962L262.302 168.011C262.869 168.116 263.422 167.738 263.528 167.165C263.633 166.59 263.256 166.04 262.684 165.934L143.616 143.885C143.551 143.873 143.486 143.867 143.422 143.867Z" fill="#939598"/>
<path d="M144.983 144.603L143.894 23.105C111.824 23.3942 81.1469 36.4584 58.6576 59.4016C36.1683 82.3456 23.6597 113.342 23.9029 145.523L144.983 144.603Z" fill="#CADBE0"/>
<path d="M22.8511 145.531C22.6079 113.301 35.3859 81.6386 57.9081 58.6617C80.4303 35.6834 111.768 22.3387 143.886 22.0489H143.887C144.166 22.0468 144.434 22.1554 144.633 22.3509C144.831 22.5477 144.945 22.8146 144.948 23.0951L146.037 144.593C146.039 144.874 145.931 145.143 145.735 145.342C145.539 145.543 145.272 145.657 144.993 145.659L23.9125 146.578C23.33 146.583 22.8551 146.114 22.8511 145.531ZM142.852 24.1743C111.657 24.7385 81.2976 37.8108 59.4088 60.1413C37.5201 82.4718 24.9967 113.149 24.9531 144.457L143.923 143.553L142.852 24.1743Z" fill="#939598"/>
<path d="M141.641 145.684C142.048 145.681 142.434 145.439 142.603 145.039C142.829 144.502 142.579 143.883 142.043 143.655L33.3783 97.5104C32.8422 97.2812 32.2248 97.5354 31.9984 98.072C31.772 98.6086 32.0226 99.2287 32.558 99.4566L141.223 145.601C141.359 145.659 141.502 145.685 141.641 145.684Z" fill="#939598"/>
<path d="M144.969 143.012C145.106 143.011 145.245 142.983 145.379 142.926C145.912 142.694 146.158 142.072 145.927 141.537L98.8844 32.2398C98.654 31.7046 98.0353 31.4585 97.5005 31.6884C96.9671 31.9203 96.7213 32.5418 96.9517 33.0778L143.995 142.374C144.168 142.776 144.56 143.015 144.969 143.012Z" fill="#939598"/>
<path d="M144.992 145.658C145.162 145.657 145.332 145.615 145.488 145.53C145.885 145.313 146.099 144.866 146.021 144.42L125.131 24.7436C125.03 24.17 124.482 23.7891 123.912 23.8862C123.34 23.9866 122.957 24.5347 123.057 25.109L143.41 141.709L56.6892 61.4582C56.2613 61.0625 55.5949 61.0909 55.2019 61.519C54.8076 61.9477 54.8344 62.6157 55.2617 63.0114L144.27 145.379C144.472 145.565 144.73 145.66 144.992 145.658Z" fill="#939598"/>
<path d="M144.795 144.525C145.07 144.523 145.342 144.413 145.545 144.202C145.891 143.842 145.938 143.289 145.658 142.874L78.1902 43.2527C77.8637 42.7694 77.2094 42.6453 76.7277 42.9729C76.2467 43.3006 76.1218 43.9571 76.4483 44.4405L141.084 139.881L43.5504 78.2389C43.0579 77.9275 42.4083 78.0771 42.0986 78.5699C41.7889 79.0627 41.9361 79.7152 42.4285 80.026L144.226 144.361C144.402 144.473 144.599 144.527 144.795 144.525Z" fill="#939598"/>
<path d="M144.994 145.659C145.491 145.655 145.93 145.297 146.021 144.788C146.123 144.213 145.742 143.665 145.169 143.563L25.9666 122.261C25.3983 122.159 24.8481 122.541 24.746 123.116C24.6439 123.69 25.0255 124.238 25.5978 124.341L144.8 145.643C144.866 145.654 144.93 145.659 144.994 145.659Z" fill="#939598"/>
<path d="M144.985 144.762L145.569 266.264C113.498 266.419 82.6447 253.782 59.8411 231.152C37.038 208.522 24.1035 177.703 23.9033 145.522L144.985 144.762Z" fill="#CADBE0"/>
<path d="M23.8956 144.466L144.977 143.707C145.257 143.705 145.525 143.815 145.724 144.012C145.922 144.209 146.035 144.477 146.036 144.757L146.62 266.259C146.622 266.539 146.512 266.808 146.315 267.007C146.119 267.206 145.853 267.318 145.574 267.32H145.573C113.454 267.475 81.9363 254.567 59.0997 231.903C36.2631 209.24 23.0505 177.758 22.8496 145.528C22.8463 144.945 23.3145 144.469 23.8956 144.466ZM143.937 145.825L24.9664 146.571C25.442 177.876 38.3866 208.377 60.5803 230.401C82.774 252.426 113.311 265.077 144.51 265.208L143.937 145.825Z" fill="#939598"/>
<path d="M141.627 143.728C142.034 143.725 142.424 143.961 142.598 144.36C142.831 144.893 142.59 145.517 142.058 145.751L34.0382 193.398C33.5054 193.635 32.8847 193.39 32.651 192.856C32.4165 192.322 32.659 191.699 33.1911 191.464L141.21 143.817C141.346 143.757 141.488 143.729 141.627 143.728Z" fill="#939598"/>
<path d="M144.992 146.353C145.128 146.352 145.268 146.377 145.402 146.433C145.938 146.657 146.193 147.275 145.97 147.814L100.437 257.753C100.214 258.292 99.5981 258.546 99.0607 258.323C98.524 258.099 98.27 257.481 98.493 256.943L144.026 147.004C144.193 146.6 144.581 146.355 144.992 146.353Z" fill="#939598"/>
<path d="M144.979 143.707C145.148 143.705 145.319 143.746 145.476 143.829C145.875 144.04 146.096 144.484 146.024 144.93L126.784 264.886C126.691 265.462 126.148 265.849 125.577 265.76C125.004 265.668 124.613 265.125 124.706 264.549L143.452 147.677L57.8443 229.123C57.4218 229.526 56.7547 229.506 56.3563 229.083C55.9559 228.66 55.9741 227.992 56.3959 227.59L144.261 143.996C144.459 143.807 144.717 143.708 144.979 143.707Z" fill="#939598"/>
<path d="M144.795 144.842C145.07 144.84 145.344 144.947 145.549 145.154C145.9 145.509 145.955 146.062 145.681 146.48L79.5913 247.028C79.2716 247.516 78.6187 247.65 78.1336 247.328C77.6486 247.006 77.5142 246.353 77.834 245.865L141.149 149.537L44.4732 212.525C43.9848 212.844 43.3339 212.704 43.0175 212.215C42.7011 211.726 42.8395 211.072 43.3272 210.754L144.229 145.013C144.402 144.899 144.6 144.843 144.795 144.842Z" fill="#939598"/>
<path d="M144.98 143.707C145.477 143.703 145.921 144.056 146.018 144.564C146.128 145.137 145.755 145.69 145.184 145.801L26.2855 168.753C25.7185 168.863 25.1629 168.488 25.0534 167.916C24.9432 167.343 25.3175 166.789 25.8885 166.679L144.787 143.726C144.851 143.712 144.915 143.707 144.98 143.707Z" fill="#939598"/>
<path d="M216.75 217.5C256.652 177.459 256.653 112.54 216.75 72.4995C176.848 32.459 112.153 32.4592 72.2503 72.5C32.3475 112.541 32.3473 177.459 72.2498 217.5C112.152 257.541 176.847 257.54 216.75 217.5Z" fill="#66D8DD"/>
<path d="M54.4565 160.521C54.4565 103.894 100.203 57.9894 156.634 57.9894C186.989 57.9894 214.246 71.2761 232.961 92.3648C215.042 62.7641 182.607 42.9905 145.571 42.9905C89.1399 42.9905 43.3936 88.8959 43.3936 145.522C43.3936 171.689 53.1673 195.561 69.2444 213.678C59.8603 198.178 54.4565 179.983 54.4565 160.521Z" fill="#5CC4C4"/>
<path d="M145.57 249.11C88.6492 249.11 42.3398 202.641 42.3398 145.522C42.3398 88.4038 88.6492 41.9348 145.57 41.9348C202.492 41.9348 248.801 88.4038 248.801 145.522C248.8 202.641 202.492 249.11 145.57 249.11ZM145.57 44.0468C89.8094 44.0468 44.4452 89.5686 44.4452 145.522C44.4452 201.476 89.8094 246.998 145.57 246.998C201.331 246.998 246.696 201.476 246.696 145.522C246.696 89.5686 201.331 44.0468 145.57 44.0468Z" fill="#939598"/>
</svg>
