<svg width="73" height="69" viewBox="0 0 73 69" fill="none" xmlns="http://www.w3.org/2000/svg">
<path d="M36.2266 34.4438L36.2702 5.53455C44.3713 5.54545 52.1448 8.59801 57.8691 14.0165C63.5934 19.4347 66.8119 26.7867 66.8119 34.4438H36.2266Z" fill="#CADBE0"/>
<path d="M66.8116 34.6948H36.2264C36.1558 34.6948 36.0881 34.6681 36.0382 34.6208C35.9883 34.5738 35.9604 34.5098 35.9604 34.4431L36.0041 5.53387C36.0042 5.46699 36.0324 5.40317 36.0823 5.35617C36.1322 5.30918 36.1995 5.28287 36.27 5.28287C44.3831 5.29377 52.3241 8.41226 58.0569 13.8386C63.7895 19.2648 67.0774 26.775 67.0774 34.4436C67.0775 34.5822 66.9586 34.6948 66.8116 34.6948ZM36.4926 34.1923H66.5445C66.4738 26.7432 63.2521 19.4671 57.6808 14.1936C52.1096 8.92006 44.4162 5.8646 36.5357 5.78697L36.4926 34.1923Z" fill="#939598"/>
<path d="M37.0751 34.696C36.9723 34.696 36.8742 34.6393 36.831 34.5443C36.7728 34.4171 36.8347 34.2691 36.9694 34.2139L64.3291 23.0386C64.464 22.9832 64.6205 23.0423 64.6787 23.1697C64.7369 23.2969 64.6749 23.4449 64.5402 23.5001L37.1805 34.6753C37.1461 34.6895 37.1103 34.696 37.0751 34.696Z" fill="#939598"/>
<path d="M36.2267 34.0656C36.1921 34.0656 36.157 34.0592 36.1232 34.0459C35.988 33.9917 35.9248 33.8443 35.982 33.7164L47.6561 7.62704C47.7133 7.49937 47.8691 7.43956 48.0047 7.49345C48.1397 7.54766 48.203 7.69505 48.146 7.82289L36.4717 33.9121C36.4286 34.0079 36.3302 34.0656 36.2267 34.0656Z" fill="#939598"/>
<path d="M36.2263 34.6959C36.1835 34.6959 36.1404 34.686 36.1009 34.6661C36.0004 34.6152 35.9453 34.5092 35.9641 34.403L41.0127 5.89126C41.037 5.75444 41.1748 5.66302 41.3188 5.68499C41.4637 5.70793 41.5615 5.83735 41.5372 5.97433L36.6183 33.7533L58.37 14.503C58.4775 14.4079 58.6458 14.4133 58.7457 14.5145C58.846 14.6159 58.8406 14.7748 58.7333 14.8698L36.408 34.6279C36.3578 34.6727 36.2923 34.6959 36.2263 34.6959Z" fill="#939598"/>
<path d="M36.2753 34.4259C36.2058 34.4259 36.1369 34.4002 36.0853 34.3503C35.9972 34.2655 35.9842 34.1338 36.0541 34.0348L52.9057 10.2103C52.9872 10.0947 53.1525 10.064 53.2745 10.141C53.3966 10.2182 53.4294 10.3741 53.3478 10.4897L37.2035 33.314L61.7218 18.4719C61.8456 18.3967 62.0099 18.431 62.0891 18.5479C62.1682 18.6649 62.1323 18.8203 62.0085 18.895L36.4182 34.3861C36.3746 34.4127 36.3247 34.4259 36.2753 34.4259Z" fill="#939598"/>
<path d="M36.2261 34.6944C36.1006 34.6944 35.9889 34.6099 35.965 34.4891C35.9382 34.3526 36.0334 34.2215 36.1778 34.1961L66.2464 28.9125C66.3897 28.8872 66.5294 28.9771 66.5564 29.1136C66.5832 29.2501 66.488 29.3813 66.3436 29.4067L36.275 34.6901C36.2587 34.6932 36.2423 34.6944 36.2261 34.6944Z" fill="#939598"/>
<path d="M36.2261 34.4822L36.3101 63.3914C44.411 63.3704 52.1804 60.3081 57.8971 54.8827C63.6137 49.4573 66.8221 42.1012 66.8114 34.444L36.2261 34.4822Z" fill="#CADBE0"/>
<path d="M67.0771 34.4443C67.0877 42.1129 63.8104 49.6271 58.0852 55.0605C52.3601 60.4939 44.4236 63.6222 36.3105 63.6434H36.3102C36.2398 63.6435 36.1722 63.6172 36.1224 63.5702C36.0723 63.5232 36.0441 63.4596 36.044 63.3928L35.96 34.4836C35.9598 34.4169 35.9876 34.3529 36.0375 34.3057C36.0872 34.2583 36.1549 34.2318 36.2255 34.2316L66.8108 34.1936C66.9578 34.1933 67.0769 34.3056 67.0771 34.4443ZM36.5751 63.139C44.4555 63.0514 52.1446 59.9865 57.7085 54.7059C63.2725 49.4255 66.484 42.1454 66.5444 34.6963L36.4924 34.7337L36.5751 63.139Z" fill="#939598"/>
<path d="M37.0719 34.2302C36.9691 34.2304 36.871 34.2873 36.8279 34.3822C36.7699 34.5096 36.832 34.6573 36.9669 34.7125L64.3422 45.8536C64.4771 45.9089 64.6333 45.8494 64.6915 45.722C64.7496 45.5947 64.6873 45.4468 64.5526 45.3921L37.1773 34.2509C37.1429 34.2368 37.107 34.2302 37.0719 34.2302Z" fill="#939598"/>
<path d="M36.226 34.8609C36.1914 34.8609 36.1562 34.8674 36.1225 34.8808C35.9874 34.9352 35.9243 35.0826 35.9816 35.2104L47.6922 61.2851C47.7494 61.4127 47.9055 61.4722 48.0408 61.4183C48.1758 61.364 48.239 61.2164 48.1816 61.0887L36.4709 35.0139C36.4281 34.9182 36.3295 34.8608 36.226 34.8609Z" fill="#939598"/>
<path d="M36.2254 34.2313C36.1826 34.2313 36.1395 34.2414 36.1 34.2613C35.9995 34.3123 35.9447 34.4183 35.9637 34.5245L41.052 63.03C41.0764 63.1668 41.2144 63.2581 41.3585 63.2359C41.5032 63.2127 41.6008 63.0831 41.5765 62.9461L36.6187 35.1734L58.3973 54.3968C58.5049 54.4917 58.6732 54.4859 58.773 54.3847C58.8733 54.2832 58.8675 54.1243 58.7603 54.0295L36.4073 34.2991C36.3569 34.2542 36.2914 34.2313 36.2254 34.2313Z" fill="#939598"/>
<path d="M36.2749 34.5008C36.2054 34.5009 36.1366 34.5266 36.0851 34.5765C35.997 34.6615 35.9843 34.7933 36.0543 34.8923L52.9393 58.6956C53.0209 58.8111 53.1862 58.8416 53.3082 58.7644C53.4302 58.6871 53.4628 58.5311 53.381 58.4156L37.2048 35.6115L61.7438 50.4231C61.8677 50.4982 62.0319 50.4635 62.111 50.3466C62.1901 50.2297 62.1537 50.0744 62.03 49.9999L36.4182 34.5405C36.3742 34.5139 36.3243 34.5008 36.2749 34.5008Z" fill="#939598"/>
<path d="M36.2252 34.2313C36.0997 34.2314 35.9882 34.3159 35.9644 34.4369C35.9378 34.5734 36.0331 34.7046 36.1776 34.7296L66.2536 39.9758C66.397 40.0009 66.5366 39.9109 66.5633 39.7744C66.5899 39.6377 66.4946 39.5067 66.3502 39.4815L36.2741 34.2354C36.2578 34.2325 36.2414 34.2313 36.2252 34.2313Z" fill="#939598"/>
<path d="M36.6208 34.4065L36.3458 5.49841C28.245 5.56722 20.4961 8.6756 14.8154 14.1345C9.13472 19.5936 5.9751 26.9685 6.03652 34.6254L36.6208 34.4065Z" fill="#CADBE0"/>
<path d="M5.77137 34.627C5.70994 26.9585 8.9376 19.4251 14.6266 13.9582C20.3156 8.4909 28.2314 5.3158 36.3441 5.24683H36.3444C36.4149 5.24635 36.4826 5.27217 36.5328 5.31869C36.583 5.36552 36.6117 5.42904 36.6124 5.49576L36.8876 34.4039C36.8881 34.4707 36.8608 34.5347 36.8113 34.5822C36.7617 34.63 36.6943 34.6569 36.6238 34.6574L6.03947 34.8762C5.89235 34.8773 5.77239 34.7657 5.77137 34.627ZM36.0829 5.75254C28.2033 5.88679 20.5347 8.99709 15.0057 14.3102C9.4767 19.6233 6.31335 26.9224 6.30232 34.3716L36.3534 34.1565L36.0829 5.75254Z" fill="#939598"/>
<path d="M35.7782 34.6626C35.8811 34.6618 35.9786 34.6043 36.0212 34.5091C36.0784 34.3814 36.0151 34.234 35.8799 34.1798L8.43161 23.2005C8.2962 23.146 8.14025 23.2065 8.08307 23.3341C8.02588 23.4618 8.08918 23.6094 8.22442 23.6636L35.6727 34.6427C35.7071 34.6565 35.7431 34.6627 35.7782 34.6626Z" fill="#939598"/>
<path d="M36.6172 34.0268C36.6518 34.0265 36.6868 34.0199 36.7205 34.0063C36.8553 33.9511 36.9174 33.8032 36.8592 33.6758L24.9763 7.67067C24.9181 7.54332 24.7618 7.48478 24.6268 7.53947C24.492 7.59464 24.43 7.74253 24.4882 7.87004L36.371 33.8751C36.4148 33.9707 36.5137 34.0274 36.6172 34.0268Z" fill="#939598"/>
<path d="M36.6247 34.6577C36.6674 34.6573 36.7106 34.6473 36.7499 34.627C36.85 34.5756 36.9042 34.4692 36.8845 34.363L31.6077 5.8883C31.5824 5.75181 31.4437 5.66119 31.2998 5.68429C31.1553 5.70819 31.0585 5.83858 31.0838 5.97523L36.2251 33.7181L14.3197 14.6238C14.2116 14.5297 14.0433 14.5364 13.944 14.6383C13.8444 14.7403 13.8512 14.8992 13.9591 14.9934L36.4421 34.5913C36.4932 34.6354 36.5585 34.6581 36.6247 34.6577Z" fill="#939598"/>
<path d="M36.5748 34.3874C36.6443 34.387 36.7129 34.3607 36.7642 34.3106C36.8515 34.225 36.8636 34.0933 36.7928 33.9946L19.7508 10.2915C19.6683 10.1765 19.503 10.147 19.3813 10.225C19.2598 10.3029 19.2283 10.4591 19.3108 10.5741L35.6374 33.2823L11.0009 18.6158C10.8765 18.5417 10.7124 18.5773 10.6342 18.6946C10.556 18.8118 10.5931 18.9671 10.7175 19.041L36.4311 34.3485C36.4755 34.3751 36.5254 34.3878 36.5748 34.3874Z" fill="#939598"/>
<path d="M36.6238 34.6572C36.7494 34.6562 36.8604 34.571 36.8833 34.4499C36.9091 34.3133 36.8127 34.1827 36.6681 34.1585L6.5581 29.0902C6.41454 29.0659 6.27557 29.1567 6.24978 29.2935C6.22399 29.4302 6.32037 29.5606 6.46495 29.585L36.5749 34.6533C36.5914 34.6561 36.6077 34.6573 36.6238 34.6572Z" fill="#939598"/>
<path d="M36.6198 34.4442L36.7674 63.3531C28.6664 63.3899 20.873 60.3833 15.1129 54.9989C9.35293 49.6146 6.08572 42.2818 6.03516 34.6249L36.6198 34.4442Z" fill="#CADBE0"/>
<path d="M6.03423 34.3727L36.6188 34.1921C36.6894 34.1916 36.7573 34.2177 36.8074 34.2647C36.8576 34.3115 36.8859 34.3752 36.8863 34.442L37.0339 63.351C37.0343 63.4177 37.0066 63.4816 36.9569 63.5291C36.9073 63.5764 36.8401 63.603 36.7697 63.6035H36.7694C28.6564 63.6404 20.695 60.569 14.9266 55.1767C9.15821 49.7845 5.82076 42.2939 5.77002 34.6254C5.76918 34.4867 5.88745 34.3735 6.03423 34.3727ZM36.356 34.696L6.30472 34.8736C6.42485 42.322 9.69459 49.579 15.3006 54.8193C20.9066 60.0598 28.62 63.0697 36.5009 63.101L36.356 34.696Z" fill="#939598"/>
<path d="M35.7721 34.1968C35.8749 34.1962 35.9733 34.2523 36.0173 34.3471C36.0763 34.474 36.0152 34.6223 35.8808 34.6782L8.59565 46.0149C8.46108 46.0712 8.3043 46.0128 8.24525 45.8858C8.18603 45.7589 8.24728 45.6106 8.38167 45.5548L35.6668 34.218C35.7011 34.2037 35.7369 34.197 35.7721 34.1968Z" fill="#939598"/>
<path d="M36.6232 34.8221C36.6577 34.822 36.693 34.828 36.7267 34.8414C36.8623 34.8946 36.9267 35.0417 36.8703 35.1698L25.3688 61.3277C25.3126 61.4559 25.157 61.5165 25.0213 61.4634C24.8857 61.4102 24.8215 61.2631 24.8779 61.1349L36.3794 34.9771C36.4215 34.881 36.5196 34.8228 36.6232 34.8221Z" fill="#939598"/>
<path d="M36.6207 34.1921C36.6634 34.1917 36.7067 34.2014 36.7464 34.2211C36.8472 34.2713 36.9029 34.377 36.8847 34.4832L32.0248 63.0243C32.0014 63.1613 31.8643 63.2535 31.72 63.2323C31.5751 63.2104 31.4764 63.0812 31.4998 62.9443L36.235 35.1368L14.611 54.5152C14.5042 54.611 14.3357 54.6063 14.2351 54.5058C14.134 54.405 14.1385 54.2461 14.2451 54.1505L36.4394 34.2609C36.4895 34.216 36.5546 34.1924 36.6207 34.1921Z" fill="#939598"/>
<path d="M36.5728 34.4628C36.6422 34.4623 36.7113 34.4877 36.7632 34.5371C36.8518 34.6214 36.8657 34.7531 36.7964 34.8525L20.1026 58.776C20.0218 58.8921 19.8569 58.9239 19.7344 58.8474C19.6118 58.7709 19.5779 58.6153 19.6587 58.4992L35.6517 35.5799L11.2319 50.5667C11.1085 50.6426 10.9441 50.6092 10.8642 50.4929C10.7843 50.3765 10.8192 50.2209 10.9424 50.1454L36.4297 34.5034C36.4735 34.4764 36.5234 34.4631 36.5728 34.4628Z" fill="#939598"/>
<path d="M36.6194 34.1921C36.745 34.1913 36.8571 34.2751 36.8817 34.3959C36.9096 34.5322 36.8152 34.6639 36.671 34.6902L6.63785 40.1514C6.49464 40.1775 6.3543 40.0884 6.32664 39.9522C6.29881 39.8159 6.39333 39.684 6.53757 39.6579L36.5707 34.1967C36.5868 34.1933 36.6031 34.1921 36.6194 34.1921Z" fill="#939598"/>
<path d="M13.7544 38.1936C13.7544 24.7204 25.3097 13.7983 39.564 13.7983C47.2314 13.7983 54.1165 16.9596 58.8439 21.9772C54.3174 14.9343 46.1247 10.2296 36.7695 10.2296C22.5153 10.2296 10.96 21.1519 10.96 34.6251C10.96 40.851 13.4288 46.5309 17.4898 50.8414C15.1194 47.1534 13.7544 42.8242 13.7544 38.1936Z" fill="#5CC4C4"/>
<path d="M13.7544 38.1936C13.7544 24.7204 25.3097 13.7983 39.564 13.7983C47.2314 13.7983 54.1165 16.9596 58.8439 21.9772C54.3174 14.9343 46.1247 10.2296 36.7695 10.2296C22.5153 10.2296 10.96 21.1519 10.96 34.6251C10.96 40.851 13.4288 46.5309 17.4898 50.8414C15.1194 47.1534 13.7544 42.8242 13.7544 38.1936Z" fill="#5CC4C4"/>
<path d="M36.7688 59.2713C22.3909 59.2713 10.6934 48.2149 10.6934 34.6246C10.6934 21.0344 22.3909 9.97797 36.7688 9.97797C51.1469 9.97797 62.8445 21.0344 62.8445 34.6246C62.8443 48.2149 51.1469 59.2713 36.7688 59.2713ZM36.7688 10.4805C22.6839 10.4805 11.2252 21.3115 11.2252 34.6246C11.2252 47.9377 22.6839 58.7688 36.7688 58.7688C50.8537 58.7688 62.3126 47.9377 62.3126 34.6246C62.3126 21.3115 50.8537 10.4805 36.7688 10.4805Z" fill="#939598"/>
<path d="M54.7499 51.7499C64.8292 42.223 64.8292 26.7768 54.7501 17.25C44.6709 7.72307 28.3293 7.72312 18.2501 17.2501C8.17083 26.777 8.17078 42.2232 18.2499 51.7501C28.3291 61.2769 44.6707 61.2769 54.7499 51.7499Z" fill="#66D8DD"/>
</svg>
