<svg width="45" height="47" viewBox="0 0 45 47" fill="none" xmlns="http://www.w3.org/2000/svg">
<path d="M2.72731 5.72057C1.52574 7.16979 0.687978 9.00569 0.613658 10.9284C0.577248 11.8716 0.751662 12.882 1.36731 13.5652C2.30573 14.6068 3.91373 14.5342 5.2031 14.0649C8.31848 12.9309 10.708 9.82416 11.1188 6.37342C11.2203 5.52169 11.2019 4.61905 10.8294 3.85703C8.99147 0.0956323 4.30799 3.81411 2.72731 5.72057Z" fill="#B3C1C4"/>
<path d="M10.9176 20.0982C11.6946 21.8256 13.2189 23.1996 14.9969 23.5672C15.5153 23.6742 16.063 23.6961 16.5628 23.5145C17.238 23.2692 17.7569 22.6769 18.1107 22.0219C19.156 20.0867 18.8769 17.5129 17.6052 15.7399C16.61 14.3525 13.323 12.0793 11.5373 12.9151C9.511 13.8636 10.2172 18.5406 10.9176 20.0982Z" fill="#B59686"/>
<path d="M2.94961 18.6832C2.26036 19.7728 2.12786 21.2309 2.60882 22.4365C2.85435 23.0524 3.26569 23.6142 3.82963 23.9173C4.96813 24.5293 6.39081 23.9329 7.32225 23.0066C8.22919 22.1048 8.87326 20.8081 8.72064 19.504C8.34401 16.2935 4.36854 16.4401 2.94961 18.6832Z" fill="#B3C1C4"/>
<path d="M7.71312 26.3192C6.9904 27.5398 6.6737 28.9816 6.52608 30.4118C6.4619 31.032 6.42802 31.6635 6.53923 32.2759C6.86969 34.0962 8.55935 35.4733 10.3149 35.5278C12.0702 35.5821 13.7644 34.4232 14.5993 32.7902C15.4338 31.1572 15.4512 29.1326 14.8197 27.4037C13.4877 23.7574 9.82969 22.7445 7.71312 26.3192Z" fill="#DDCD97"/>
<path d="M13.2199 7.48986C12.7798 8.14424 12.4678 9.04257 12.8624 9.72672C13.0034 9.97091 13.2193 10.1559 13.4405 10.3208C14.784 11.3229 16.4342 11.7503 18.0597 12.0223C19.231 12.2181 20.4316 12.3437 21.5996 12.1223C22.7676 11.9008 23.9106 11.2949 24.5959 10.2714C24.8584 9.87964 25.0513 9.42225 25.0696 8.94315C25.113 7.79987 24.1855 6.8826 23.2423 6.32105C20.1226 4.46385 15.524 4.06255 13.2199 7.48986Z" fill="#B59686"/>
<path d="M2.95689 33.5057C3.13299 33.7444 3.34402 33.9765 3.62001 34.059C4.00091 34.1728 4.41726 33.9636 4.67497 33.6456C4.93285 33.3276 5.06312 32.9188 5.1768 32.518C5.54684 31.2135 6.26752 25.7619 3.46772 26.784C1.22129 27.6042 1.90499 32.0805 2.95689 33.5057Z" fill="#B59686"/>
<path d="M17.18 30.0988C17.0174 31.122 16.9252 32.1734 17.0978 33.1941C17.2706 34.2149 17.7326 35.211 18.5129 35.8403C19.5846 36.705 21.1214 36.7429 22.3629 36.1795C23.6042 35.6163 24.5782 34.5323 25.3116 33.3338C26.6047 31.2206 27.2097 28.3896 26.039 26.203C25.0008 24.2634 22.5028 23.2782 20.476 23.9138C18.2297 24.6181 17.5305 27.8938 17.18 30.0988Z" fill="#CADBE0"/>
<path d="M10.5017 41.0995C10.1963 41.7975 9.95038 42.54 9.9269 43.308C9.90325 44.0759 10.1258 44.8766 10.645 45.4138C11.2039 45.9916 12.0242 46.1939 12.8066 46.2224C14.1349 46.2709 15.4753 45.878 16.5912 45.1135C18.2261 43.9933 19.3621 41.9639 19.179 39.9174C19.0088 38.0139 17.2148 35.7303 15.2251 35.921C13.1647 36.1182 11.2707 39.3425 10.5017 41.0995Z" fill="#B3C1C4"/>
<path d="M3.04069 41.6236C3.32645 42.6523 3.91759 43.627 4.8104 44.137C5.70322 44.647 6.91626 44.5924 7.64373 43.8421C7.9566 43.5192 8.16173 43.0989 8.33831 42.6764C8.86336 41.4203 9.16811 39.9065 8.52182 38.7176C7.78192 37.3561 5.23075 36.2613 3.76854 36.8795C2.18612 37.5487 2.65214 40.2237 3.04069 41.6236Z" fill="#CADBE0"/>
<path d="M21.2661 15.7118C20.4011 16.7905 19.9801 18.2053 19.8669 19.6124C19.8397 19.9502 19.8304 20.3002 19.9433 20.6172C20.1576 21.219 20.7518 21.5615 21.3191 21.7948C23.4578 22.6744 25.8946 22.7232 28.0666 21.9304C29.0718 21.5634 30.0369 21.0082 30.7526 20.1771C31.4684 19.346 31.9112 18.2144 31.7927 17.0996C31.6364 15.6299 30.5226 14.413 29.2203 13.87C26.8068 12.8639 22.9969 13.5529 21.2661 15.7118Z" fill="#B3C1C4"/>
<path d="M20.2824 43.088C20.0677 43.5547 19.9261 44.0924 20.0596 44.5913C20.3106 45.5277 21.3637 45.9033 22.2763 46.04C24.4413 46.3642 26.6442 46.158 28.8195 45.912C29.5238 45.8321 30.2408 45.7446 30.8879 45.4393C31.5349 45.1339 32.1122 44.571 32.2753 43.8428C32.5003 42.8378 31.8631 41.7927 31.012 41.2862C30.1608 40.7796 29.1462 40.6977 28.1689 40.6735C25.8526 40.6163 21.4916 40.4622 20.2824 43.088Z" fill="#B59686"/>
<path d="M24.0525 37.2992C24.1433 38.1124 24.9886 38.5521 25.734 38.7774C26.7905 39.0969 27.8835 39.2831 28.9822 39.331C29.4078 39.3496 29.8419 39.3464 30.2493 39.2142C31.477 38.8157 32.1448 37.226 31.793 35.9234C31.4412 34.6207 30.2581 33.6858 28.995 33.4474C27.0766 33.0853 23.7716 34.784 24.0525 37.2992Z" fill="#DDCD97"/>
<path d="M33.1736 38.0759C33.0894 40.1367 33.2035 42.407 34.5232 43.925C34.9919 44.4642 35.6195 44.8827 36.3105 44.9471C37.1598 45.0263 37.9966 44.5537 38.5555 43.8728C39.1147 43.192 39.4304 42.3257 39.6454 41.4542C39.9395 40.2619 40.063 38.9992 39.8051 37.7987C39.5472 36.5982 38.8721 35.4649 37.8537 34.8662C37.0184 34.3753 35.1337 33.8139 34.2519 34.4225C33.2939 35.0839 33.2168 37.0234 33.1736 38.0759Z" fill="#B3C1C4"/>
<path d="M31.0081 30.3772C30.6923 31.5482 31.1762 33.0149 32.2684 33.4026C32.9043 33.6284 33.6017 33.4637 34.2454 33.2613C36.1134 32.6739 37.9649 31.7169 39.1343 30.0697C39.5592 29.471 39.8917 28.6895 39.6445 27.9894C39.4026 27.3043 38.6854 26.9409 38.0032 26.8138C35.5773 26.3612 31.7607 27.5866 31.0081 30.3772Z" fill="#B59686"/>
<path d="M28.017 23.7701C28.0461 23.7706 28.0754 23.7711 28.1046 23.7716C27.5914 24.4218 27.8206 25.4345 28.3706 26.0481C29.1135 26.8771 30.2843 27.1543 31.3596 27.0251C32.4348 26.896 33.4408 26.4126 34.4133 25.91C35.2843 25.4597 36.1785 24.9599 36.7489 24.1316C37.3193 23.3032 37.4562 22.0513 36.8003 21.2993C36.3873 20.8258 35.7427 20.6385 35.133 20.6633C34.5232 20.6881 33.935 20.8998 33.3605 21.1176C31.7868 21.7143 29.5439 23.0502 28.017 23.7701Z" fill="#DDCD97"/>
<path d="M26.0431 8.27181C26.6592 10.0883 27.9036 11.769 29.6394 12.3735C30.4353 12.6507 31.3477 12.678 32.0813 12.2476C33.3137 11.5245 33.6515 9.78203 33.448 8.31043C33.0716 5.58955 31.216 3.15583 28.7792 2.18731C27.609 1.72217 25.501 1.32127 25.262 2.97291C25.0344 4.54393 25.5439 6.79998 26.0431 8.27181Z" fill="#DDCD97"/>
<path d="M33.54 14.3744C33.2542 15.2511 33.2243 16.2582 33.6407 17.0729C34.1642 18.0977 35.3309 18.6435 36.4329 18.5766C37.535 18.5096 38.5617 17.909 39.37 17.1139C40.3421 16.1576 41.0683 14.8154 40.982 13.4172C40.9091 12.2431 40.2324 11.1315 39.2516 10.5748C36.55 9.04123 34.3417 11.9149 33.54 14.3744Z" fill="#CADBE0"/>
<path d="M38.4392 19.1304C38.2338 19.7077 38.2329 20.34 38.2346 20.9562C38.239 22.5106 38.3092 24.2408 39.3544 25.3332C39.5527 25.5406 39.7929 25.7219 40.0694 25.7644C40.4108 25.817 40.7578 25.6452 41.0031 25.3888C41.249 25.1322 41.4084 24.7992 41.5469 24.465C41.9333 23.5325 42.1899 22.5272 42.1815 21.5099C42.1657 19.5949 39.6175 15.816 38.4392 19.1304Z" fill="#DDCD97"/>
<path d="M38.7011 33.7281C38.7122 34.2351 39.014 34.683 39.3513 35.0438C39.8158 35.5411 40.4387 35.9612 41.0965 35.879C41.9705 35.77 42.5547 34.7852 42.5789 33.8564C42.6072 32.7807 42.1081 30.772 40.8071 30.8497C39.7314 30.9137 38.6785 32.6926 38.7011 33.7281Z" fill="#DDCD97"/>
<path d="M35.3728 2.03451C34.7413 2.24398 34.2998 2.88406 34.1423 3.56258C33.9848 4.24128 34.0696 4.95548 34.2078 5.63826C34.3663 6.42067 34.6025 7.20462 35.0599 7.84197C35.5174 8.47931 36.2294 8.95325 36.9874 8.93853C37.6294 8.92617 38.2376 8.56418 38.6635 8.05583C39.0894 7.54766 39.3491 6.90512 39.5108 6.24862C39.7451 5.29681 39.7766 4.24511 39.3554 3.36942C38.7244 2.05765 36.626 1.61889 35.3728 2.03451Z" fill="#B3C1C4"/>
<path d="M12.5963 3.05937C12.7357 3.70267 13.3333 4.14482 13.9474 4.26874C14.5614 4.39266 15.1938 4.26054 15.8049 4.11965C16.4506 3.97059 17.0941 3.81144 17.7354 3.64219C18.1411 3.53501 18.5942 3.38385 18.7781 2.98701C18.9223 2.67596 18.8475 2.28758 18.6551 2.00794C18.4628 1.72812 18.1706 1.54254 17.8687 1.40817C16.8038 0.93464 12.0653 0.608773 12.5963 3.05937Z" fill="#DDCD97"/>
<path d="M21.1891 3.49577C21.6151 4.2675 22.4161 4.72015 23.2161 5.01096C23.5567 5.13485 23.9605 5.22821 24.2561 5.00995C24.63 4.734 24.6014 4.15095 24.5324 3.67564C24.4368 3.01683 24.3411 2.35802 24.2456 1.6994C24.2215 1.53369 24.1945 1.36043 24.099 1.22638C23.9912 1.07511 23.8142 0.999437 23.6415 0.9476C22.0871 0.48123 20.1229 1.56386 21.1891 3.49577Z" fill="#CADBE0"/>
<path d="M40.639 40.7203C40.2529 41.3608 39.9898 42.0838 39.8704 42.8321C39.798 43.2855 39.7832 43.7744 39.9865 44.1803C40.3257 44.8575 41.2116 45.0811 41.8868 44.7974C42.5619 44.5139 43.0316 43.8385 43.2837 43.119C43.5588 42.3338 43.5938 41.3907 43.1257 40.7164C42.6008 39.9609 41.1532 39.867 40.639 40.7203Z" fill="#DDCD97"/>
</svg>
