<svg width="158" height="139" viewBox="0 0 158 139" fill="none" xmlns="http://www.w3.org/2000/svg">
<path d="M146.917 48.533C143.286 40.279 138.922 31.155 135.576 23.686C132.758 17.396 130.696 12.193 129.589 9.52203C129.265 8.74003 129.074 8.20699 128.897 7.90399C126.272 3.42899 110.507 0 110.507 0L81.96 7.72406C81.96 7.72406 74.145 21.956 63.281 25.095C52.418 28.234 38.157 22.591 35.482 23.158C30.649 24.182 13.053 59.769 13.053 59.769C13.053 59.769 1.97298 70.8789 0.000976562 72.0359L3.685 113.177L28.382 134.776C28.382 134.776 55.3529 129.26 60.2339 134.737C63.1669 138.029 103.409 134.63 114.277 133.91L132.415 135.099C132.415 135.099 147.67 127.955 145.971 119.931C144.271 111.907 143.497 100.333 143.497 100.333L157.656 72.181C157.656 72.181 152.588 61.422 146.917 48.533Z" fill="#A6A7A8"/>
<path d="M135.604 23.82C133.035 18.087 131.127 13.261 129.972 10.384C129.485 9.17197 129.112 8.26095 128.879 7.86395C126.255 3.38895 110.506 0 110.506 0C110.506 0 121.59 12.744 121.685 21.108C121.78 29.472 117.4 40.461 117.4 40.461L106.153 32.223L107.965 47.816L106.789 78.072L146.745 93.871L157.655 72.178C157.655 72.178 152.586 61.3801 146.903 48.4641C143.284 40.2421 138.939 31.264 135.604 23.82Z" fill="#919194"/>
<path d="M129.938 67.9901C122.839 66.1401 107.47 72.749 107.47 72.749L90.3458 94.822L60.7789 97.7311L55.6799 73.6581L52.4149 97.8251L37.0458 104.434L28.3809 134.776C28.3809 134.776 55.9288 128.796 60.2328 134.737C61.2358 136.121 65.9669 138.318 65.9669 138.318C65.9669 138.318 110.076 136.831 117.209 137.201L136.077 136.558C136.077 136.558 147.67 127.954 145.97 119.93C144.27 111.906 143.496 100.332 143.496 100.332L157.655 72.18C157.655 72.18 137.037 69.8401 129.938 67.9901Z" fill="#A6A7A8"/>
<path d="M107.865 50.866L111.043 47.3979L77.083 50.678L107.865 50.866Z" fill="#919194"/>
<path d="M63.8149 24.9821L34.2979 22.8501L57.8298 36.311L62.5898 58.7791L77.6179 50.5651L74.7538 34.4031L63.8149 24.9821Z" fill="#919194"/>
<path d="M34.2977 22.8501C25.3487 28.0991 13.0518 59.769 13.0518 59.769L29.1577 80.3921L52.4138 97.8241L55.6787 73.6571L62.5887 58.7791L59.9697 35.858L34.2977 22.8501Z" fill="#B6B8BA"/>
<path d="M3.68396 113.177L28.381 134.776L37.046 104.434L0 72.0359L3.68396 113.177Z" fill="#B6B8BA"/>
<path d="M105.022 74.3849C102.719 79.3439 93.7187 89.6349 90.3457 94.8209L109.415 74.0139L107.866 50.866C107.866 50.866 107.325 69.4259 105.022 74.3849Z" fill="#B6B8BA"/>
<path d="M81.9588 7.7251C81.9588 7.7251 81.6558 8.27505 81.0928 9.17505L106.153 32.2251L86.8758 6.39502L81.9588 7.7251Z" fill="#B6B8BA"/>
<path d="M82.5039 84.1849L90.3459 94.8209L109.415 74.0139L107.865 50.866L82.5039 84.1849Z" fill="#B6B8BA"/>
<path d="M90.3458 94.821C90.3458 94.821 68.9188 123.484 65.9668 138.318L136.077 136.559C136.077 136.559 146.291 129.365 146.423 122.071C146.555 114.777 143.495 100.333 143.495 100.333C143.495 100.333 108.611 107.162 90.3458 94.821Z" fill="#89898F"/>
<path d="M52.4149 97.8249L37.0458 104.434L28.3809 134.776C28.3809 134.776 55.8678 129.303 60.2328 134.737C61.3028 136.069 65.9669 138.318 65.9669 138.318L71.0059 101.154C66.7769 97.0189 52.4149 97.8249 52.4149 97.8249Z" fill="#89898F"/>
<path d="M52.4148 97.825L71.0068 101.153L82.5048 84.1849L55.6808 73.657C55.6808 73.657 51.3948 93.011 52.4148 97.825Z" fill="#919194"/>
<path d="M110.506 0.000976562C110.506 0.000976562 122.043 14.8849 121.685 21.1089L135.657 23.739L128.935 7.83502C128.935 7.83502 124.025 0.490977 110.506 0.000976562Z" fill="#606063"/>
<path d="M0 72.0359L34.258 104.466L28.381 134.776L38.558 105.418L52.415 97.825L37.09 102.003L0 72.0359Z" fill="#D3D8DE"/>
<path d="M34.2979 22.8501L55.1658 37.807L58.5869 55.7141L42.0219 51.3981L57.2018 59.734L52.7679 72.2251L52.4149 97.8251L55.6799 73.6581L62.5898 58.7791L59.9698 35.858L34.2979 22.8501Z" fill="#D3D8DE"/>
<path d="M52.4152 97.8251L53.2402 91.8281L29.1592 80.3931L52.4152 97.8251Z" fill="#D3D8DE"/>
<path d="M109.221 69.5829L107.865 50.866L105.881 71.408L90.2279 90.7469L82.5029 84.1849L90.3449 94.8209L109.414 74.0139C109.414 74.0139 117.52 70.061 120.448 69.814C123.377 69.566 135.217 69.0609 135.217 69.0609L126.339 65.9579L109.221 69.5829Z" fill="#D3D8DE"/>
<path d="M110.506 0.000976562C113.628 4.18398 117.602 14.149 117.602 14.149C114.652 12.538 107.746 15.119 107.746 15.119C107.746 15.119 116.683 15.089 118.508 18.429C120.333 21.769 119.963 32.444 119.963 32.444C119.963 32.444 122.927 23.455 121.059 16.398C119.192 9.34001 110.506 0.000976562 110.506 0.000976562Z" fill="#D3D8DE"/>
<path d="M102.695 29.976L87.0244 35.158L106.153 32.224L96.7594 19.542L102.695 29.976Z" fill="#D3D8DE"/>
<path d="M128.782 66.9299L135.679 57.272L126.34 65.9569L128.782 66.9299Z" fill="#D3D8DE"/>
<path d="M57.83 36.311L67.292 35.239L54.335 33.884L57.83 36.311Z" fill="#D3D8DE"/>
<path d="M76.4758 113.783C74.8108 118.235 66.6308 132.913 65.9678 138.318C65.9678 138.318 77.3068 117.705 79.9668 112.67C82.6268 107.635 90.3458 94.821 90.3458 94.821L88.3148 92.27C88.3148 92.27 78.1408 109.331 76.4758 113.783Z" fill="#D3D8DE"/>
<path d="M115.375 99.9541C102.107 98.1621 90.3457 94.822 90.3457 94.822C109.404 110.908 144.014 112.893 144.014 112.893L143.496 100.333C135.87 101.471 125.241 101.286 115.375 99.9541Z" fill="#919194"/>
<path d="M51.1973 132.319C55.3633 132.427 58.6473 133.187 60.2333 134.737L63.5953 112.785L71.0063 101.154L59.5543 109.542L51.1973 132.319Z" fill="#919194"/>
<path d="M115.327 99.5841C114.602 99.4931 113.915 99.3911 113.276 99.2811C103.605 97.6031 90.4799 94.7941 90.4799 94.7941L82.5039 84.186L86.8859 94.6471L88.8609 97.373L119.89 102.352L140.13 102.909C140.13 102.909 144.158 111.372 144.394 119.52C144.629 127.668 136.079 136.559 136.079 136.559C136.079 136.559 146.077 129.224 147.441 123.346C148.804 117.468 143.498 100.332 143.498 100.332C143.498 100.332 125.574 100.878 115.327 99.5841Z" fill="#606063"/>
<path d="M40.2686 106.127L60.2335 112.751L62.2715 121.495L63.5945 112.785L71.0056 101.153L59.5535 109.541L40.2686 106.127Z" fill="#606063"/>
<path d="M65.4102 77.3721L77.6412 84.097L71.0062 101.153L82.5042 84.1851L91.8091 71.874L81.6182 81.764L65.4102 77.3721Z" fill="#606063"/>
<path d="M152.824 74.8801L138.324 101.427L143.496 100.332L157.655 72.1801L135.218 69.061L152.824 74.8801Z" fill="#606063"/>
<path d="M135.657 23.739C135.657 23.739 109.262 41.6261 107.866 50.8661C107.866 50.8661 122.747 39.5291 135.539 33.5751L146.878 48.5651C146.878 48.5651 141.467 36.4201 139.628 32.2611C138.554 29.8331 135.657 23.739 135.657 23.739Z" fill="#606063"/>
</svg>
