<svg width="70" height="63" viewBox="0 0 70 63" fill="none" xmlns="http://www.w3.org/2000/svg">
<path d="M11.8313 52.317H0.303711V62.726H11.8313V52.317Z" fill="#D56E49"/>
<path d="M12.1342 63.0001H0V52.0433H12.1342V63.0001ZM0.606619 62.4514H11.5276V52.5919H0.606619V62.4514Z" fill="#937963"/>
<path d="M23.3576 52.317H11.8301V62.726H23.3576V52.317Z" fill="#D56E49"/>
<path d="M23.6615 62.9999H11.5283V52.0432H23.6615V62.9999ZM12.134 62.4513H23.0539V52.5918H12.134V62.4513Z" fill="#937963"/>
<path d="M34.8845 52.317H23.3579V62.726H34.8845V52.317Z" fill="#D56E49"/>
<path d="M35.1884 62.9999H23.0542V52.0432H35.1884V62.9999ZM23.6618 62.4513H34.5818V52.5918H23.6618V62.4513Z" fill="#937963"/>
<path d="M46.4113 52.317H34.8848V62.726H46.4113V52.317Z" fill="#D56E49"/>
<path d="M46.7152 63.0001H34.582V52.0433H46.7152V63.0001ZM35.1886 62.4514H46.1086V52.5919H35.1886V62.4514Z" fill="#937963"/>
<path d="M57.9367 52.317H46.4102V62.726H57.9367V52.317Z" fill="#D56E49"/>
<path d="M58.2416 62.9999H46.1084V52.0432H58.2416V62.9999ZM46.714 62.4513H57.634V52.5918H46.714V62.4513Z" fill="#937963"/>
<path d="M69.466 52.317H57.9395V62.726H69.466V52.317Z" fill="#D56E49"/>
<path d="M69.7689 63.0001H57.6348V52.0433H69.7689V63.0001ZM58.2423 62.4514H69.1623V52.5919H58.2423V62.4514Z" fill="#937963"/>
<path d="M11.8313 41.9084H0.303711V52.3165H11.8313V41.9084Z" fill="#D56E49"/>
<path d="M12.1342 52.5912H0V41.6344H12.1342V52.5912ZM0.606619 52.0425H11.5276V42.183H0.606619V52.0425Z" fill="#937963"/>
<path d="M23.3576 41.9084H11.8301V52.3165H23.3576V41.9084Z" fill="#D56E49"/>
<path d="M23.6615 52.5913H11.5283V41.6345H23.6615V52.5913ZM12.134 52.0427H23.0539V42.1831H12.134V52.0427Z" fill="#937963"/>
<path d="M34.8845 41.9084H23.3579V52.3165H34.8845V41.9084Z" fill="#D56E49"/>
<path d="M35.1884 52.5913H23.0542V41.6345H35.1884V52.5913ZM23.6618 52.0427H34.5818V42.1831H23.6618V52.0427Z" fill="#937963"/>
<path d="M46.4113 41.9084H34.8848V52.3165H46.4113V41.9084Z" fill="#D56E49"/>
<path d="M46.7152 52.5912H34.582V41.6344H46.7152V52.5912ZM35.1886 52.0425H46.1086V42.183H35.1886V52.0425Z" fill="#937963"/>
<path d="M57.9367 41.9084H46.4102V52.3165H57.9367V41.9084Z" fill="#D56E49"/>
<path d="M58.2416 52.5913H46.1084V41.6345H58.2416V52.5913ZM46.714 52.0427H57.634V42.1831H46.714V52.0427Z" fill="#937963"/>
<path d="M69.466 41.9084H57.9395V52.3165H69.466V41.9084Z" fill="#D56E49"/>
<path d="M69.7689 52.5912H57.6348V41.6344H69.7689V52.5912ZM58.2423 52.0425H69.1623V42.183H58.2423V52.0425Z" fill="#937963"/>
<path d="M11.8313 31.5H0.303711V41.9081H11.8313V31.5Z" fill="#D56E49"/>
<path d="M12.1342 42.1831H0V31.2263H12.1342V42.1831ZM0.606619 41.6344H11.5276V31.7749H0.606619V41.6344Z" fill="#937963"/>
<path d="M23.3576 31.5H11.8301V41.9081H23.3576V31.5Z" fill="#D56E49"/>
<path d="M23.6615 42.1828H11.5283V31.2261H23.6615V42.1828ZM12.134 41.6342H23.0539V31.7747H12.134V41.6342Z" fill="#937963"/>
<path d="M34.8845 31.5H23.3579V41.9081H34.8845V31.5Z" fill="#D56E49"/>
<path d="M35.1884 42.1828H23.0542V31.2261H35.1884V42.1828ZM23.6618 41.6342H34.5818V31.7747H23.6618V41.6342Z" fill="#937963"/>
<path d="M46.4113 31.5H34.8848V41.9081H46.4113V31.5Z" fill="#D56E49"/>
<path d="M46.7152 42.1831H34.582V31.2263H46.7152V42.1831ZM35.1886 41.6344H46.1086V31.7749H35.1886V41.6344Z" fill="#937963"/>
<path d="M57.9367 31.5H46.4102V41.9081H57.9367V31.5Z" fill="#D56E49"/>
<path d="M58.2416 42.1828H46.1084V31.2261H58.2416V42.1828ZM46.714 41.6342H57.634V31.7747H46.714V41.6342Z" fill="#937963"/>
<path d="M69.466 31.5H57.9395V41.9081H69.466V31.5Z" fill="#D56E49"/>
<path d="M69.7689 42.1831H57.6348V31.2263H69.7689V42.1831ZM58.2423 41.6344H69.1623V31.7749H58.2423V41.6344Z" fill="#937963"/>
<path d="M11.8313 21.091H0.303711V31.4991H11.8313V21.091Z" fill="#D56E49"/>
<path d="M12.1342 31.7737H0V20.817H12.1342V31.7737ZM0.606619 31.2251H11.5276V21.3647H0.606619V31.2251Z" fill="#937963"/>
<path d="M23.3576 21.091H11.8301V31.4991H23.3576V21.091Z" fill="#D56E49"/>
<path d="M23.6615 31.7738H11.5283V20.8171H23.6615V31.7738ZM12.134 31.2252H23.0539V21.3648H12.134V31.2252Z" fill="#937963"/>
<path d="M34.8845 21.091H23.3579V31.4991H34.8845V21.091Z" fill="#D56E49"/>
<path d="M35.1884 31.7738H23.0542V20.8171H35.1884V31.7738ZM23.6618 31.2252H34.5818V21.3648H23.6618V31.2252Z" fill="#937963"/>
<path d="M46.4113 21.091H34.8848V31.4991H46.4113V21.091Z" fill="#D56E49"/>
<path d="M46.7152 31.7737H34.582V20.817H46.7152V31.7737ZM35.1886 31.2251H46.1086V21.3647H35.1886V31.2251Z" fill="#937963"/>
<path d="M57.9367 21.091H46.4102V31.4991H57.9367V21.091Z" fill="#D56E49"/>
<path d="M58.2416 31.7738H46.1084V20.8171H58.2416V31.7738ZM46.714 31.2252H57.634V21.3648H46.714V31.2252Z" fill="#937963"/>
<path d="M69.466 21.091H57.9395V31.4991H69.466V21.091Z" fill="#D56E49"/>
<path d="M69.7689 31.7737H57.6348V20.817H69.7689V31.7737ZM58.2423 31.2251H69.1623V21.3647H58.2423V31.2251Z" fill="#937963"/>
<path d="M11.8313 10.683H0.303711V21.092H11.8313V10.683Z" fill="#D56E49"/>
<path d="M12.1342 21.3648H0V10.4089H12.1342V21.3648ZM0.606619 20.817H11.5276V10.9567H0.606619V20.817Z" fill="#937963"/>
<path d="M23.3576 10.683H11.8301V21.092H23.3576V10.683Z" fill="#D56E49"/>
<path d="M23.6615 21.365H11.5283V10.4091H23.6615V21.365ZM12.134 20.8173H23.0539V10.9569H12.134V20.8173Z" fill="#937963"/>
<path d="M34.8845 10.683H23.3579V21.092H34.8845V10.683Z" fill="#D56E49"/>
<path d="M35.1884 21.365H23.0542V10.4091H35.1884V21.365ZM23.6618 20.8173H34.5818V10.9569H23.6618V20.8173Z" fill="#937963"/>
<path d="M46.4113 10.683H34.8848V21.092H46.4113V10.683Z" fill="#D56E49"/>
<path d="M46.7152 21.3648H34.582V10.4089H46.7152V21.3648ZM35.1886 20.817H46.1086V10.9567H35.1886V20.817Z" fill="#937963"/>
<path d="M57.9367 10.683H46.4102V21.092H57.9367V10.683Z" fill="#D56E49"/>
<path d="M58.2416 21.365H46.1084V10.4091H58.2416V21.365ZM46.714 20.8173H57.634V10.9569H46.714V20.8173Z" fill="#937963"/>
<path d="M69.466 10.683H57.9395V21.092H69.466V10.683Z" fill="#D56E49"/>
<path d="M69.7689 21.3648H57.6348V10.4089H69.7689V21.3648ZM58.2423 20.817H69.1623V10.9567H58.2423V20.817Z" fill="#937963"/>
<path d="M11.8313 0.273895H0.303711V10.682H11.8313V0.273895Z" fill="#D56E49"/>
<path d="M12.1342 10.9568H0V0H12.1342V10.9568ZM0.606619 10.409H11.5276V0.548627H0.606619V10.409Z" fill="#937963"/>
<path d="M23.3576 0.273895H11.8301V10.682H23.3576V0.273895Z" fill="#D56E49"/>
<path d="M23.6615 10.9568H11.5283V0H23.6615V10.9568ZM12.134 10.409H23.0539V0.548627H12.134V10.409Z" fill="#937963"/>
<path d="M34.8845 0.273895H23.3579V10.682H34.8845V0.273895Z" fill="#D56E49"/>
<path d="M35.1884 10.9568H23.0542V0H35.1884V10.9568ZM23.6618 10.409H34.5818V0.548627H23.6618V10.409Z" fill="#937963"/>
<path d="M46.4113 0.273895H34.8848V10.682H46.4113V0.273895Z" fill="#D56E49"/>
<path d="M46.7152 10.9568H34.582V0H46.7152V10.9568ZM35.1886 10.409H46.1086V0.548627H35.1886V10.409Z" fill="#937963"/>
<path d="M57.9367 0.273895H46.4102V10.682H57.9367V0.273895Z" fill="#D56E49"/>
<path d="M58.2416 10.9568H46.1084V0H58.2416V10.9568ZM46.714 10.409H57.634V0.548627H46.714V10.409Z" fill="#937963"/>
<path d="M69.466 0.273895H57.9395V10.682H69.466V0.273895Z" fill="#D56E49"/>
<path d="M69.7689 10.9568H57.6348V0H69.7689V10.9568ZM58.2423 10.409H69.1623V0.548627H58.2423V10.409Z" fill="#937963"/>
</svg>
