<svg width="15" height="9" viewBox="0 0 15 9" fill="none" xmlns="http://www.w3.org/2000/svg">
<path d="M10.1553 0.645691C9.74163 0.740503 9.33775 0.849109 8.93537 0.994885C8.15405 1.27787 7.42086 1.59919 6.66449 1.90381C5.81514 2.24501 4.76549 2.77613 3.67402 2.93657C3.30742 3.46073 2.86726 3.96877 2.4092 4.46766C2.08493 4.82077 1.75563 5.17316 1.44496 5.53048C1.27691 5.72403 1.13556 5.94284 0.960449 6.14495C1.11137 6.26546 1.27917 6.37871 1.4946 6.4683C2.00405 6.68072 2.54298 6.84377 3.01666 7.08537C3.5619 7.36241 4.07311 7.65991 4.61734 7.93723C4.65161 7.95422 4.68538 7.97034 4.71939 7.98703C4.73073 7.98907 4.74307 7.99052 4.75466 7.99314C4.93733 8.03118 5.11949 8.07023 5.30392 8.10464C5.74409 8.18827 6.20391 8.27772 6.64408 8.37935C7.26364 8.34756 7.86532 8.20439 8.43121 8.06312C9.06513 7.90428 9.73786 7.75182 10.3335 7.54869C11.075 7.29591 11.7633 6.9955 12.5061 6.74533C12.6689 6.69073 12.8392 6.6328 13.0148 6.57821C13.2458 5.98393 13.7362 5.40736 14.0115 4.83006C14.2983 4.2291 14.4948 3.62117 14.645 3.00772C13.8261 1.84703 11.816 1.35076 10.1553 0.645691Z" fill="#D0A089"/>
<path opacity="0.5" d="M3.66448 2.94952C3.2994 3.46918 2.86301 3.97315 2.40898 4.46768C2.08471 4.8208 1.75541 5.17318 1.44474 5.53051C1.34043 5.65044 1.2472 5.77908 1.14844 5.90801C2.05649 6.18853 2.96353 6.42041 3.87108 6.60364C3.90585 6.59174 3.94012 6.57896 3.97489 6.56633C4.74285 6.2909 5.47605 5.96929 6.30977 5.73189C6.31204 5.72129 6.31532 5.71011 6.31758 5.69893C6.3841 5.40375 6.57886 5.10799 6.6925 4.81252C5.80611 4.14898 4.7877 3.53335 3.66448 2.94952Z" fill="url(#paint0_linear_114_40355)"/>
<path opacity="0.5" d="M4.99028 6.01267C3.39665 6.60696 3.43268 6.34314 2.75315 6.25893C2.19028 6.18938 1.76372 5.99612 1.18195 5.86559C1.17062 5.87982 1.15927 5.89376 1.14844 5.90799C2.05649 6.1885 2.96353 6.42038 3.87108 6.60362C3.90585 6.59171 3.94012 6.57894 3.97489 6.5663C4.74285 6.29087 5.47605 5.96926 6.30977 5.73187C6.31204 5.72127 6.31532 5.71009 6.31758 5.69891C6.36243 5.49723 6.46775 5.29512 6.56702 5.09344C6.19311 5.4846 5.6373 5.77179 4.99028 6.01267Z" fill="url(#paint1_linear_114_40355)"/>
<path opacity="0.5" d="M6.31738 5.69907C6.31511 5.7101 6.31184 5.72128 6.30957 5.73203C6.3267 5.72695 6.34535 5.72215 6.36324 5.71693C6.34787 5.71097 6.333 5.70531 6.31738 5.69907Z" fill="url(#paint2_linear_114_40355)"/>
<path opacity="0.3" d="M10.1552 0.645721C9.74149 0.740534 9.3376 0.849139 8.93522 0.994915C8.15391 1.2779 7.42071 1.59922 6.66434 1.90384C5.81499 2.24504 4.76535 2.77616 3.67387 2.9366C3.6716 2.94082 3.66858 2.94503 3.66455 2.94953C4.78777 3.53336 5.80618 4.14898 6.69257 4.81253C7.01683 5.05529 7.32195 5.30459 7.60893 5.56115C9.36834 4.37636 11.7073 3.69815 14.1386 2.96753C14.2742 2.92804 14.3903 2.87708 14.4959 2.81929C13.6012 1.79131 11.7234 1.31202 10.1552 0.645721Z" fill="url(#paint3_linear_114_40355)"/>
<path opacity="0.5" d="M12.2543 1.46286C12.5101 1.59078 12.7459 1.72915 12.9563 1.88117C13.2057 2.06237 13.751 2.28844 13.7313 2.54659C13.7159 2.76192 13.3672 2.91931 13.0813 3.02937C12.1132 3.40586 10.9774 3.59781 10.0104 3.97923C9.37019 4.23129 8.83378 4.54099 8.22807 4.8141C7.80227 5.00562 7.44902 5.01244 7.05093 4.79842C6.51401 4.5089 6.02648 4.19892 5.46134 3.92464C5.34746 3.86932 5.2308 3.81589 5.11768 3.7613C5.67903 4.09917 6.20613 4.44836 6.6924 4.81251C7.01667 5.05527 7.32179 5.30457 7.60877 5.56113C9.36818 4.37634 11.7071 3.69814 14.1385 2.96752C14.274 2.92802 14.3902 2.87706 14.4957 2.81927C13.9873 2.23457 13.1601 1.82817 12.2543 1.46286Z" fill="url(#paint4_linear_114_40355)"/>
<path opacity="0.5" d="M7.0786 5.99499C7.065 5.98976 7.0529 5.98468 7.04056 5.97931C7.03224 5.9857 7.02468 5.99281 7.01611 5.9992C7.03677 5.99746 7.05794 5.99629 7.0786 5.99499Z" fill="url(#paint5_linear_114_40355)"/>
<path opacity="0.7" d="M14.4957 2.81927C14.3901 2.87706 14.2739 2.92803 14.1384 2.96752C11.707 3.69814 9.3681 4.37635 7.60869 5.56114C7.41191 5.69384 7.22194 5.83309 7.04053 5.97915C7.05287 5.98452 7.06522 5.98961 7.07857 5.99483C9.06273 5.87592 10.9519 6.25081 12.8385 6.63471C12.8973 6.61539 12.9552 6.59609 13.0142 6.57808C13.2452 5.9838 13.7355 5.40723 14.0109 4.82993C14.2976 4.22897 14.4942 3.62104 14.6443 3.00759C14.5987 2.9424 14.5478 2.87968 14.4957 2.81927Z" fill="url(#paint6_radial_114_40355)"/>
<path opacity="0.5" d="M3.9749 6.56631C3.94013 6.57895 3.90586 6.59172 3.87109 6.60363C3.92652 6.61495 3.98145 6.62541 4.03663 6.63659C4.01597 6.61335 3.99531 6.59013 3.9749 6.56631Z" fill="url(#paint7_linear_114_40355)"/>
<path opacity="0.8" d="M1.14866 5.90799C1.08819 5.98814 1.02747 6.068 0.960449 6.1451C1.11137 6.26561 1.27917 6.37886 1.4946 6.46844C2.00405 6.68086 2.54298 6.84392 3.01666 7.08552C3.24493 7.20124 3.4659 7.3203 3.68586 7.44023C3.00507 6.92102 2.09929 6.49893 1.3855 5.98001C1.30714 5.9559 1.22827 5.93253 1.14866 5.90799Z" fill="url(#paint8_radial_114_40355)"/>
<path opacity="0.7" d="M4.78235 7.53825C4.56718 7.22811 4.30036 6.93293 4.03732 6.63658C3.98214 6.62555 3.92696 6.6151 3.87178 6.60363C3.0436 6.43651 2.21492 6.228 1.38623 5.98001C2.10002 6.49879 3.00581 6.92088 3.68659 7.44024C3.99524 7.60765 4.30111 7.77578 4.61782 7.93739C4.65209 7.95437 4.68586 7.97049 4.71987 7.98719C4.73121 7.98922 4.74355 7.99067 4.75514 7.99328C4.86172 8.0155 4.96956 8.03815 5.07664 8.05964C5.0013 7.87945 4.89851 7.70682 4.78235 7.53825Z" fill="url(#paint9_radial_114_40355)"/>
<path opacity="0.8" d="M4.84522 7.55743C4.82531 7.55162 4.80339 7.5448 4.78223 7.53812C4.89838 7.70669 5.00118 7.87947 5.07651 8.05951C5.15185 8.07505 5.22769 8.09073 5.30403 8.10466C5.70011 8.18031 6.11206 8.2606 6.51166 8.35004C6.02715 8.05399 5.53356 7.7774 4.84522 7.55743Z" fill="url(#paint10_radial_114_40355)"/>
<path opacity="0.5" d="M7.07895 5.99498C7.05829 5.99629 7.03712 5.99745 7.01646 5.99905C7.02478 5.99266 7.03234 5.98555 7.0409 5.97916C6.81717 5.89161 6.58613 5.80449 6.36365 5.71664C6.34576 5.72187 6.32711 5.72666 6.30998 5.73175C5.47625 5.96914 4.74306 6.29075 3.9751 6.56618C3.99551 6.58999 4.01617 6.61308 4.03683 6.63631C4.29987 6.93265 4.56669 7.22783 4.78186 7.53797C4.80303 7.54465 4.82495 7.55147 4.84485 7.55728C5.5332 7.77725 6.02678 8.05385 6.51129 8.35004C6.55589 8.35963 6.60024 8.36907 6.64382 8.37923C7.26339 8.34743 7.86505 8.20427 8.43095 8.06299C9.06487 7.90415 9.73759 7.7517 10.3332 7.54857C11.0747 7.29579 11.7631 6.99538 12.5058 6.74521C12.6142 6.7092 12.725 6.67203 12.8389 6.63457C10.9523 6.25082 9.06311 5.87592 7.07895 5.99498Z" fill="url(#paint11_radial_114_40355)"/>
<path opacity="0.2" d="M6.6923 4.8125C6.57866 5.10797 6.38365 5.40373 6.31738 5.69891C6.33326 5.70516 6.34787 5.71082 6.36324 5.71663C6.58597 5.80432 6.81701 5.89159 7.0405 5.97914C7.22191 5.83308 7.41188 5.69383 7.60866 5.56113C7.32168 5.30457 7.01656 5.05527 6.6923 4.8125Z" fill="url(#paint12_linear_114_40355)"/>
<defs>
<linearGradient id="paint0_linear_114_40355" x1="1.14846" y1="4.77661" x2="6.6925" y2="4.77661" gradientUnits="userSpaceOnUse">
<stop stop-color="#FE946B"/>
<stop offset="1" stop-color="#FFF0B5"/>
</linearGradient>
<linearGradient id="paint1_linear_114_40355" x1="1.14846" y1="5.8486" x2="6.69315" y2="5.8486" gradientUnits="userSpaceOnUse">
<stop stop-color="#FE946B"/>
<stop offset="1" stop-color="#FFF0B5"/>
</linearGradient>
<linearGradient id="paint2_linear_114_40355" x1="6.30944" y1="5.71546" x2="6.36309" y2="5.71546" gradientUnits="userSpaceOnUse">
<stop stop-color="#FE946B"/>
<stop offset="1" stop-color="#FFF0B5"/>
</linearGradient>
<linearGradient id="paint3_linear_114_40355" x1="3.66465" y1="3.10348" x2="14.4958" y2="3.10348" gradientUnits="userSpaceOnUse">
<stop stop-color="#FE946B"/>
<stop offset="1" stop-color="#FFF0B5"/>
</linearGradient>
<linearGradient id="paint4_linear_114_40355" x1="3.66532" y1="3.51203" x2="14.4957" y2="3.51203" gradientUnits="userSpaceOnUse">
<stop stop-color="#EA8057"/>
<stop offset="1" stop-color="#FFDCA1"/>
</linearGradient>
<linearGradient id="paint5_linear_114_40355" x1="7.01616" y1="5.98915" x2="7.07865" y2="5.98915" gradientUnits="userSpaceOnUse">
<stop stop-color="#FE946B"/>
<stop offset="1" stop-color="#FFF0B5"/>
</linearGradient>
<radialGradient id="paint6_radial_114_40355" cx="0" cy="0" r="1" gradientUnits="userSpaceOnUse" gradientTransform="translate(16.0687 4.81058) scale(14.9052 8.58944)">
<stop stop-color="#BBA39D"/>
<stop offset="0.5807" stop-color="#916A60"/>
<stop offset="1" stop-color="#6C544E"/>
</radialGradient>
<linearGradient id="paint7_linear_114_40355" x1="3.87104" y1="6.60145" x2="4.03663" y2="6.60145" gradientUnits="userSpaceOnUse">
<stop stop-color="#FE946B"/>
<stop offset="1" stop-color="#FFF0B5"/>
</linearGradient>
<radialGradient id="paint8_radial_114_40355" cx="0" cy="0" r="1" gradientUnits="userSpaceOnUse" gradientTransform="translate(-0.0428399 4.77503) scale(9.06793 5.22558)">
<stop stop-color="#6C544E"/>
<stop offset="0.4193" stop-color="#916A60"/>
<stop offset="1" stop-color="#BBA39D"/>
</radialGradient>
<radialGradient id="paint9_radial_114_40355" cx="0" cy="0" r="1" gradientUnits="userSpaceOnUse" gradientTransform="translate(1.16453 8.77433) scale(8.15624 4.70019)">
<stop stop-color="#BBA39D"/>
<stop offset="0.5807" stop-color="#916A60"/>
<stop offset="1" stop-color="#6C544E"/>
</radialGradient>
<radialGradient id="paint10_radial_114_40355" cx="0" cy="0" r="1" gradientUnits="userSpaceOnUse" gradientTransform="translate(5.22791 6.93138) scale(4.10675 2.36658)">
<stop stop-color="#6C544E"/>
<stop offset="0.4193" stop-color="#916A60"/>
<stop offset="1" stop-color="#BBA39D"/>
</radialGradient>
<radialGradient id="paint11_radial_114_40355" cx="0" cy="0" r="1" gradientUnits="userSpaceOnUse" gradientTransform="translate(7.86246 4.18399) scale(12.9814 7.48081)">
<stop stop-color="#BBA39D"/>
<stop offset="0.5807" stop-color="#916A60"/>
<stop offset="1" stop-color="#6C544E"/>
</radialGradient>
<linearGradient id="paint12_linear_114_40355" x1="6.31731" y1="5.39586" x2="7.60858" y2="5.39586" gradientUnits="userSpaceOnUse">
<stop offset="0.1123" stop-color="#FFFFEF"/>
<stop offset="0.4504" stop-color="#CFB69D"/>
<stop offset="1" stop-color="#141414"/>
</linearGradient>
</defs>
</svg>
