<svg width="20" height="12" viewBox="0 0 20 12" fill="none" xmlns="http://www.w3.org/2000/svg">
<path d="M18.0161 5.45438C17.8443 5.18421 17.8056 4.23255 17.2904 4.05244C16.7751 3.87232 14.1987 4.1425 14.1987 4.1425L13.6834 3.15194C13.6834 3.15194 12.1376 2.43155 11.6223 2.43155C11.1069 2.43155 9.56112 0.630554 9.56112 0.630554C9.56112 0.630554 8.0342 0.873509 7.37763 0.97943C6.52332 1.11728 5.39786 1.31969 5.39786 1.31969C5.39786 1.31969 5.39786 2.66343 3.95194 3.45596C3.12085 3.91144 1.48842 5.04307 1.48842 5.04307L0.286133 7.29428L12.4811 10.5361C12.4811 10.5361 15.0947 10.7284 15.7816 10.2781C16.4687 9.82791 19.0676 8.62428 19.0676 8.62428C19.0676 8.62428 19.3454 7.83961 19.0019 7.6595C18.6585 7.47939 18.1879 5.72448 18.0161 5.45438Z" fill="#A6A7A8"/>
<path d="M18.4924 5.49321C18.137 5.27789 17.8055 4.23248 17.2901 4.05237C16.7748 3.87226 14.3703 3.78227 14.3703 3.78227L14.007 2.66344C14.007 2.66344 12.627 2.2844 11.5755 2.11215C11.0836 2.0316 9.56112 0.630554 9.56112 0.630554C9.56112 0.630554 9.90467 1.71117 9.56112 2.16139C9.56112 2.16139 9.38935 2.52155 8.70239 2.88177C8.01529 3.242 7.67188 3.96239 7.67188 3.96239L8.01542 5.043L8.53075 6.03355L11.2789 7.20423L11.966 8.73506L11.1071 9.5455L11.3586 10.2376L12.4811 10.5361C12.4811 10.5361 15.401 10.8062 16.0881 10.3559C16.7752 9.90573 19.3516 8.645 19.3516 8.645C19.3516 8.645 19.5618 7.76495 19.5278 7.55619C19.482 7.27726 18.7822 5.66875 18.4924 5.49321Z" fill="#B6B8BA"/>
<path d="M11.7937 6.48376C11.7937 6.48376 10.7632 5.85343 9.73253 5.76337C8.70202 5.67331 8.01493 5.04299 8.01493 5.04299C8.01493 5.04299 6.98442 4.95294 6.12555 5.13305C5.26668 5.31316 5.09504 6.21366 5.09504 6.21366C5.09504 6.21366 4.23617 6.48383 3.37744 6.39378C2.5187 6.30372 0.285773 7.29427 0.285773 7.29427C-0.0577743 8.19477 0.862787 9.79576 0.862787 9.79576C2.44005 9.89916 4.92327 11.1664 5.78213 11.0763C6.64087 10.9863 8.53025 10.6261 8.53025 10.6261L12.4808 10.536C12.4808 10.536 12.309 10.1758 12.1372 9.90571C11.9655 9.63554 13.3395 9.09528 13.3395 9.09528C13.4153 8.86552 12.996 8.46494 12.6524 7.6545C12.429 7.12701 11.7937 6.48376 11.7937 6.48376Z" fill="#A6A7A8"/>
<path d="M11.7937 6.48376C11.7937 6.48376 10.7632 5.85343 9.73253 5.76337C8.70202 5.67331 8.01493 5.04299 8.01493 5.04299C8.01493 5.04299 6.98442 4.95294 6.12555 5.13305C5.26668 5.31316 5.09504 6.21366 5.09504 6.21366C5.09504 6.21366 4.23617 6.48383 3.37744 6.39378C2.5187 6.30372 0.285773 7.29427 0.285773 7.29427C-0.0577743 8.19477 0.862787 9.79576 0.862787 9.79576C2.44005 9.89916 4.92327 11.1664 5.78213 11.0763C6.64087 10.9863 8.53025 10.6261 8.53025 10.6261L12.4808 10.536C12.4808 10.536 12.309 10.1758 12.1372 9.90571C11.9655 9.63554 13.3395 9.09528 13.3395 9.09528C13.4153 8.86552 12.996 8.46494 12.6524 7.6545C12.429 7.12701 11.7937 6.48376 11.7937 6.48376Z" fill="#B6B8BA"/>
<path d="M8.74896 5.52321C8.42028 5.3165 7.82892 4.79968 7.82892 4.79968L7.10596 4.90307C7.10596 4.90307 7.76318 5.69553 8.28894 5.83338C8.81469 5.97124 10.3262 5.83338 10.3262 5.83338C10.3262 5.83338 9.07751 5.72999 8.74896 5.52321Z" fill="#89898F"/>
<path d="M7.56648 4.75659C7.56648 4.75659 7.09368 4.80309 6.67931 4.92022C5.98857 5.11558 5.14105 5.38965 4.5763 5.1097C3.76308 4.7066 1.48842 5.04297 1.48842 5.04297L0.286133 7.29418L5.30108 8.62732C5.34269 8.16829 5.83219 7.58021 6.69027 7.41829C8.33327 7.10819 8.28945 5.83331 8.28945 5.83331C7.89503 5.72998 7.56648 4.75659 7.56648 4.75659Z" fill="#89898F"/>
<path d="M8.61775 10.1749C7.96052 10.2782 5.98898 10.4505 5.98898 10.4505L5.79177 9.65805L8.68349 9.14123L5.85751 9.31347L5.30071 8.62748L0.285757 7.29434C0.285757 7.29434 -0.0572659 7.86634 0.00833928 8.17645C0.0740749 8.48655 0.862771 9.79583 0.862771 9.79583L2.70298 10.2093C2.70298 10.2093 5.0032 11.243 5.46322 11.1741C5.92324 11.1052 8.15773 10.7262 8.53036 10.6262C8.90286 10.5262 12.4809 10.5361 12.4809 10.5361L12.2983 10.1749C12.2983 10.1749 9.27498 10.0715 8.61775 10.1749Z" fill="#919194"/>
<path d="M9.99788 8.38296C9.86641 8.55521 9.73493 9.14097 9.73493 9.14097C9.73493 9.14097 8.74916 9.45107 8.74916 9.58885C8.74916 9.72664 8.66699 10.1803 8.66699 10.1803L12.2981 10.1746C12.2981 10.1746 11.7723 8.93418 11.7066 7.93494C11.7066 7.93494 10.1292 8.21065 9.99788 8.38296Z" fill="#919194"/>
<path d="M2.17676 7.17719C2.17676 7.17719 2.44505 8.01272 2.77373 8.2539C3.1024 8.49508 5.85704 9.31345 5.85704 9.31345L5.30024 8.62746L2.17676 7.17719Z" fill="#89898F"/>
<path d="M3.12988 8.91702C3.12988 8.91702 3.2367 9.62332 3.89393 9.8301C4.55116 10.0368 5.98873 10.4503 5.98873 10.4503L5.79152 9.65785L3.12988 8.91702Z" fill="#89898F"/>
<path d="M9.012 0.906097C9.012 0.906097 8.01801 1.44015 7.55799 1.30229C7.09797 1.16444 5.33172 1.69855 5.33172 1.69855C5.33172 1.69855 5.24133 2.16368 4.96208 2.53841C4.71818 2.86567 3.95166 3.45579 3.95166 3.45579L5.46319 3.38687L6.12041 3.00784C6.12041 3.00784 7.04045 2.49102 7.63194 2.49102C8.22343 2.49102 9.27494 2.38763 9.56084 2.16129C9.84673 1.93488 9.75152 1.39707 9.68579 1.25928C9.61992 1.12143 9.012 0.906097 9.012 0.906097Z" fill="#89898F"/>
<path d="M8.28899 2.73235C8.02618 2.9046 7.96045 3.38702 7.96045 3.38702C7.96045 3.38702 8.35473 3.008 8.70193 2.88183C9.049 2.7556 9.56067 2.16144 9.56067 2.16144L8.94622 2.11221C8.94622 2.11221 8.55181 2.56003 8.28899 2.73235Z" fill="#89898F"/>
<path d="M12.2325 6.24676C12.2325 6.24676 11.7725 6.35014 11.5753 6.45347C11.3781 6.55686 9.99805 8.38296 9.99805 8.38296L11.7068 7.935L13.1526 5.86765L14.2041 4.45499L12.9773 5.00627L12.2325 6.24676Z" fill="#A6A7A8"/>
<path d="M16.3064 9.38223C15.0577 9.65787 13.3389 9.09517 13.3389 9.09517C13.3389 9.09517 12.1002 9.45116 11.9689 9.76119C11.8374 10.0713 12.4802 10.5359 12.4802 10.5359C12.4802 10.5359 14.4006 10.8638 15.5836 10.5193C16.7666 10.1747 17.3581 9.6234 17.3581 9.6234L19.3506 8.64488L19.5268 7.55606C19.5268 7.55606 17.5551 9.10659 16.3064 9.38223Z" fill="#89898F"/>
<path d="M13.1527 5.86777C13.1527 5.86777 11.7725 7.55607 11.7069 7.9351C11.6412 8.31413 11.9698 9.76127 11.9698 9.76127L13.3938 9.06646C13.3938 9.06646 12.4299 8.07296 12.4299 7.83178C12.4298 7.59054 13.1527 5.86777 13.1527 5.86777Z" fill="#89898F"/>
<path d="M17.1606 7.14272C17.2921 6.93601 17.5549 6.28134 17.5549 6.28134C17.5549 6.28134 16.3062 6.93601 16.3719 7.34944C16.4377 7.76294 15.4519 8.38314 15.4519 8.38314L14.2032 8.48653L13.7432 8.93443L14.7947 8.83104L16.3719 9.00336C16.3719 9.00336 17.4234 7.90079 17.5549 7.65962C17.6864 7.41837 17.0292 7.34944 17.1606 7.14272Z" fill="#A6A7A8"/>
<path d="M8.28927 5.83328C8.28927 5.83328 8.14137 6.6602 7.56631 6.99616C7.24976 7.18106 6.64628 7.31488 6.05479 7.45273C5.4633 7.59059 5.30078 8.6273 5.30078 8.6273L5.85758 9.31329L8.68356 9.14105L7.23776 8.89986C7.23776 8.89986 6.71201 8.52084 6.64628 8.31412C6.58054 8.10741 7.50058 7.76284 7.50058 7.76284C7.50058 7.76284 8.88077 7.55612 9.40652 7.17709C9.93227 6.79806 10.3266 5.83335 10.3266 5.83335C9.86654 5.93667 8.28927 5.83328 8.28927 5.83328Z" fill="#A6A7A8"/>
<path d="M8.88054 3.76593C8.28905 3.76593 7.96051 3.3869 7.96051 3.3869L6.84326 3.49029L7.67135 3.96232L8.48626 4.14496C8.48626 4.14496 9.86645 4.21389 10.195 4.21389C10.5235 4.21389 11.0493 4.86856 11.0493 4.86856L11.115 4.524L10.5893 3.93825C10.5893 3.93825 9.47203 3.76593 8.88054 3.76593Z" fill="#A6A7A8"/>
<path d="M11.8379 3.59387C11.8379 3.59387 12.2322 4.28301 12.6266 4.38633C13.0209 4.48965 12.9551 5.14432 12.9551 5.14432L13.4809 4.97207C13.4809 4.97207 13.2837 4.42079 13.1523 4.28293C13.0209 4.14515 11.8379 3.59387 11.8379 3.59387Z" fill="#A6A7A8"/>
<path d="M18.3448 5.3855C18.3448 5.3855 18.0763 4.27001 17.2905 4.05249C17.2905 4.05249 17.3591 5.08114 17.2276 5.32232C17.0961 5.56349 16.7676 6.10903 16.7676 6.10903C16.7676 6.10903 17.3043 5.90232 17.6328 5.66107C17.6328 5.66107 18.1476 6.07456 18.0162 6.28128C17.8847 6.48799 18.2791 7.14267 18.2791 7.14267C18.2791 7.14267 18.4763 6.21235 18.9363 6.17789C18.9363 6.17789 18.9363 5.66114 18.3448 5.3855Z" fill="#A6A7A8"/>
<path d="M11.4546 2.07425C11.5002 2.0934 11.5416 2.10687 11.576 2.11206C11.576 2.11206 11.5291 2.09798 11.4546 2.07425Z" fill="#D3D8DE"/>
<path d="M9.20917 2.87021C9.20917 2.87021 9.99786 2.38786 10.1292 2.25001C10.2605 2.11215 10.2607 1.59533 10.2607 1.59533C10.5677 1.7831 11.1915 1.99111 11.4536 2.07433C10.89 1.83849 9.56067 0.630554 9.56067 0.630554L9.66918 1.97437C9.60345 2.21554 8.94622 2.6635 8.94622 2.6635C8.4862 2.76689 7.96045 3.3871 7.96045 3.3871C8.09192 3.6972 8.88049 3.76614 8.88049 3.76614L10.5892 3.93838L11.115 4.52413V3.80059C11.115 3.80059 9.80052 3.52495 9.27477 3.52495C8.74902 3.52495 8.35473 3.3871 8.48607 3.21485C8.61767 3.04247 9.20917 2.87021 9.20917 2.87021Z" fill="#D3D8DE"/>
<path d="M12.6932 2.66347C12.3645 2.59454 11.1816 2.24997 11.1816 2.24997L12.6276 3.00797C12.6276 3.00797 13.1533 2.80125 13.2848 2.93904C13.4163 3.07683 13.7448 3.66264 13.7448 3.66264L13.9528 2.84146L13.2189 2.59454C13.2189 2.59454 13.0217 2.73239 12.6932 2.66347Z" fill="#D3D8DE"/>
<path d="M10.9476 4.0227C10.5533 4.16055 9.89607 4.50506 9.56752 4.26388C9.23884 4.02271 8.45028 3.91931 8.05599 3.91931C7.66171 3.91931 5.98584 4.23803 5.98584 4.23803C5.98584 4.23803 8.37424 4.06681 8.64748 4.26388C9.04177 4.54814 9.76473 4.57399 10.2905 4.50506C10.8162 4.43613 11.0007 4.19051 11.3091 4.10018C11.5061 4.04253 12.4154 3.97668 12.4154 3.97668C12.4154 3.97668 11.3419 3.88485 10.9476 4.0227Z" fill="#D3D8DE"/>
<path d="M8.28906 5.8333L10.2607 6.10894C10.2607 6.10894 11.3944 5.64375 11.3944 5.4715L10.3265 5.8333H8.28906Z" fill="#D3D8DE"/>
<path d="M9.66943 6.93599C10.1295 6.69482 11.4001 5.51758 11.4001 5.51758L10.2445 6.03152L9.66943 6.93599Z" fill="#D3D8DE"/>
<path d="M12.6274 4.38633C12.2989 4.35187 11.8388 3.59387 11.8388 3.59387C11.8388 3.59387 11.9045 4.24854 12.233 4.38633C12.5616 4.52412 12.7588 4.90314 12.5616 5.10986C12.3644 5.31664 12.1673 5.86793 12.1673 5.86793C12.1673 5.86793 11.8387 6.1091 11.5101 6.17803C11.1814 6.24695 10.7871 7.34952 10.7871 7.34952C10.7871 7.34952 11.5101 6.79823 11.5758 6.59152C11.6415 6.38481 12.1016 6.41927 12.233 6.24696C12.3645 6.07471 12.956 5.28218 12.956 5.00654C12.956 4.7309 12.956 4.42079 12.6274 4.38633Z" fill="#D3D8DE"/>
<path d="M7.82836 0.87173C7.36834 0.940657 5.39679 1.31962 5.39679 1.31962L5.33105 1.69865C5.33105 1.69865 6.31683 1.5264 6.77685 1.38855C7.23687 1.25069 7.76262 1.42301 8.15691 1.35409C8.55119 1.28516 9.01134 0.906196 9.01134 0.906196L9.86577 1.42301V1.07844L9.56018 0.630554C9.56018 0.630554 8.28838 0.802871 7.82836 0.87173Z" fill="#D3D8DE"/>
<path d="M9.20969 10.2782L8.74967 9.58912L8.6182 10.3471L5.72648 10.8984L4.60924 10.7262L3.88628 10.0715L2.48979 7.88071L2.76916 9.72698C2.76916 9.72698 1.71765 9.62358 1.45471 9.58919C1.19177 9.55472 0.00878906 8.17652 0.00878906 8.17652L0.534544 9.72705L2.7033 10.2094L4.14909 10.8985C4.14909 10.8985 5.52928 11.3464 5.85783 11.312C6.18637 11.2776 8.15805 10.7607 8.81528 10.6918C9.4725 10.6229 12.4811 10.5363 12.4811 10.5363L12.0355 10.2095L9.20969 10.2782Z" fill="#606063"/>
<path d="M11.3125 8.04418L11.3584 10.2375L12.0355 10.2091L11.7069 7.93504L12.364 6.89566L11.3125 8.04418Z" fill="#606063"/>
<path d="M16.6355 9.83018C16.3726 10.0714 15.5183 10.2781 14.2038 10.3815C12.8894 10.4848 11.8379 9.93351 11.8379 9.93351C11.8379 10.2436 12.4805 10.536 12.4805 10.536C12.4805 10.536 14.0722 10.8294 14.5324 10.795C14.9924 10.7605 16.1754 10.5538 16.3726 10.3815C16.5698 10.2092 17.4899 9.65793 17.6869 9.58907C17.8841 9.52014 19.3509 8.64502 19.3509 8.64502L17.4241 9.21004C17.4241 9.21004 16.8984 9.58894 16.6355 9.83018Z" fill="#606063"/>
<path d="M17.5558 9.34786L17.8187 8.14191L16.6357 10.0025L17.5558 9.34786Z" fill="#606063"/>
<path d="M15.9124 9.31338C14.9267 9.38231 14.138 9.24446 13.7437 8.93435C13.3494 8.62425 12.5278 8.04425 12.5278 8.04425L13.2618 9.07221C13.2618 9.07221 14.7952 9.65795 15.781 9.55456C16.7667 9.45117 17.2268 9.07221 17.2268 9.07221L17.8182 8.1419C17.8182 8.1419 16.8982 9.24453 15.9124 9.31338Z" fill="#D3D8DE"/>
<path d="M15.9347 7.73415C15.5624 8.17062 14.8504 8.37733 14.3246 8.34287C13.7989 8.3084 13.4155 8.89989 13.4155 8.89989L13.547 9.07221L13.7442 8.93436L14.2042 8.48646C14.2042 8.48646 15.19 8.452 15.4529 8.38308C15.7159 8.31415 16.2416 7.79733 16.373 7.62508C16.5044 7.45276 16.373 7.21159 16.4387 7.0738C16.5044 6.93595 17.556 6.28134 17.556 6.28134C17.556 6.28134 16.3072 6.79816 16.0444 6.93601C15.7814 7.07373 16.271 7.34007 15.9347 7.73415Z" fill="#D3D8DE"/>
<path d="M14.3702 3.78235C14.3392 4.00534 14.2261 4.27715 14.2261 4.27715C14.2261 4.27715 16.7015 4.04171 16.9644 4.14503C17.2273 4.24843 17.2273 4.97196 16.9644 5.21313C16.7015 5.45431 16.7672 6.10899 16.7672 6.10899C16.7672 6.10899 17.0959 5.59217 17.3587 5.351C17.6215 5.10982 17.753 4.31735 17.2901 4.05245C16.8272 3.78761 14.3702 3.78235 14.3702 3.78235Z" fill="#D3D8DE"/>
<path d="M2.37426 8.17642L2.49478 7.89503L3.75445 6.35025L1.97998 7.83185L2.37426 8.17642Z" fill="#919194"/>
<path d="M13.7434 3.66274C13.8749 3.76613 13.4805 4.97202 13.4805 4.97202L14.2034 4.4552L14.3695 3.78241L14.0062 2.66357C14.0062 2.66357 13.6119 3.55935 13.7434 3.66274Z" fill="#A6A7A8"/>
<path d="M10.02 5.55774C9.1657 5.41989 8.57421 5.13275 8.13611 4.89158C7.90942 4.76685 7.67178 3.96243 7.67178 3.96243L7.61035 4.78826C7.61035 4.78826 7.85334 4.98294 7.99368 5.05815C8.19741 5.16736 8.7276 5.58071 8.7276 5.58071C8.7276 5.58071 9.27526 5.83338 10.3268 5.83338C11.3783 5.83338 11.6412 5.24764 11.6412 5.24764C11.6412 5.24764 10.8743 5.6956 10.02 5.55774Z" fill="#D3D8DE"/>
</svg>
