<svg width="53" height="40" viewBox="0 0 53 40" fill="none" xmlns="http://www.w3.org/2000/svg">
<path d="M6.38209 0H2.12728L0 3.63633L2.12728 7.27266H6.38209L8.50941 3.63633L6.38209 0Z" fill="#FFAA71"/>
<path d="M6.33887 0L8.46619 3.63633H12.721L14.8483 0H6.33887Z" fill="#DDCD97"/>
<path d="M19.0825 0H14.8279L12.7002 3.63633L14.8279 7.27266H19.0825L21.2098 3.63633L19.0825 0Z" fill="#FFAA71"/>
<path d="M12.721 3.63672H8.46619L6.33887 7.27305L8.46619 10.9094H12.721L14.8483 7.27305L12.721 3.63672Z" fill="#CADBE0"/>
<path d="M19.0635 0L21.191 3.63633H25.4458L27.5731 0H19.0635Z" fill="#DDCD97"/>
<path d="M31.8091 0H27.5541L25.4268 3.63633L27.5541 7.27266H31.8091L33.9362 3.63633L31.8091 0Z" fill="#FFAA71"/>
<path d="M25.4458 3.63672H21.191L19.0635 7.27305L21.191 10.9094H25.4458L27.5731 7.27305L25.4458 3.63672Z" fill="#CADBE0"/>
<path d="M6.38209 7.27246H2.12728L0 10.9088L2.12728 14.5451H6.38209L8.50941 10.9088L6.38209 7.27246Z" fill="#DDCD97"/>
<path d="M12.7443 10.9092H8.48962L6.3623 14.5455L8.48962 18.182H12.7443L14.8718 14.5455L12.7443 10.9092Z" fill="#FFAA71"/>
<path d="M6.38209 14.5454H2.12728L0 18.1819L2.12728 21.8182H6.38209L8.50941 18.1819L6.38209 14.5454Z" fill="#CADBE0"/>
<path d="M19.0825 7.27246H14.8279L12.7002 10.9088L14.8279 14.5451H19.0825L21.2098 10.9088L19.0825 7.27246Z" fill="#DDCD97"/>
<path d="M25.4458 10.9087H21.191L19.0635 14.545L21.191 18.1815H25.4458L27.5731 14.545L25.4458 10.9087Z" fill="#FFAA71"/>
<path d="M19.0825 14.5454H14.8279L12.7002 18.1819L14.8279 21.8182H19.0825L21.2098 18.1819L19.0825 14.5454Z" fill="#CADBE0"/>
<path d="M19.0635 0L21.191 3.63633H25.4458L27.5731 0H19.0635Z" fill="#DDCD97"/>
<path d="M31.8091 0H27.5541L25.4268 3.63633L27.5541 7.27266H31.8091L33.9362 3.63633L31.8091 0Z" fill="#FFAA71"/>
<path d="M25.4458 3.63672H21.191L19.0635 7.27305L21.191 10.9094H25.4458L27.5731 7.27305L25.4458 3.63672Z" fill="#CADBE0"/>
<path d="M31.7646 0L33.892 3.63633H38.1468L40.2741 0H31.7646Z" fill="#DDCD97"/>
<path d="M44.5101 0H40.2554L38.1279 3.63633L40.2554 7.27266H44.5101L46.6376 3.63633L44.5101 0Z" fill="#FFAA71"/>
<path d="M38.1468 3.63672H33.892L31.7646 7.27305L33.892 10.9094H38.1468L40.2741 7.27305L38.1468 3.63672Z" fill="#CADBE0"/>
<path d="M44.4902 0L46.6176 3.63633H50.8723L52.9996 0H44.4902Z" fill="#DDCD97"/>
<path d="M50.8723 3.63672H46.6176L44.4902 7.27305L46.6176 10.9094H50.8723L52.9996 7.27305L50.8723 3.63672Z" fill="#CADBE0"/>
<path d="M31.8091 7.27295H27.5541L25.4268 10.9093L27.5541 14.5456H31.8091L33.9362 10.9093L31.8091 7.27295Z" fill="#DDCD97"/>
<path d="M38.171 10.9087H33.9163L31.7891 14.545L33.9163 18.1815H38.171L40.2985 14.545L38.171 10.9087Z" fill="#FFAA71"/>
<path d="M31.8091 14.5454H27.5541L25.4268 18.1819L27.5541 21.8182H31.8091L33.9362 18.1819L31.8091 14.5454Z" fill="#CADBE0"/>
<path d="M44.5101 7.27295H40.2554L38.1279 10.9093L40.2554 14.5456H44.5101L46.6376 10.9093L44.5101 7.27295Z" fill="#DDCD97"/>
<path d="M50.8723 10.9092H46.6176L44.4902 14.5455L46.6176 18.182H50.8723L52.9996 14.5455L50.8723 10.9092Z" fill="#FFAA71"/>
<path d="M44.5101 14.5454H40.2554L38.1279 18.1819L40.2554 21.8182H44.5101L46.6376 18.1819L44.5101 14.5454Z" fill="#CADBE0"/>
<path d="M6.38209 21.8179H2.12728L0 25.4542L2.12728 29.0905H6.38209L8.50941 25.4542L6.38209 21.8179Z" fill="#FFAA71"/>
<path d="M12.721 18.1816H8.46619L6.33887 21.818L8.46619 25.4543H12.721L14.8483 21.818L12.721 18.1816Z" fill="#DDCD97"/>
<path d="M19.0825 21.8184H14.8279L12.7002 25.4547L14.8279 29.091H19.0825L21.2098 25.4547L19.0825 21.8184Z" fill="#FFAA71"/>
<path d="M12.721 25.4546H8.46619L6.33887 29.0909L8.46619 32.7274H12.721L14.8483 29.0909L12.721 25.4546Z" fill="#CADBE0"/>
<path d="M25.4458 18.1816H21.191L19.0635 21.818L21.191 25.4543H25.4458L27.5731 21.818L25.4458 18.1816Z" fill="#DDCD97"/>
<path d="M31.8091 21.8188H27.5541L25.4268 25.4552L27.5541 29.0915H31.8091L33.9362 25.4552L31.8091 21.8188Z" fill="#FFAA71"/>
<path d="M25.4458 25.4541H21.191L19.0635 29.0904L21.191 32.7269H25.4458L27.5731 29.0904L25.4458 25.4541Z" fill="#CADBE0"/>
<path d="M6.38209 29.0908H2.12728L0 32.7273L2.12728 36.3635H6.38209L8.50941 32.7273L6.38209 29.0908Z" fill="#DDCD97"/>
<path d="M12.7443 32.7271H8.48962L6.3623 36.3632L8.48962 39.9997H12.7443L14.8718 36.3632L12.7443 32.7271Z" fill="#FFAA71"/>
<path d="M6.38209 36.3633H2.12728L0 39.9998H8.50941L6.38209 36.3633Z" fill="#CADBE0"/>
<path d="M19.0825 29.0913H14.8279L12.7002 32.7278L14.8279 36.364H19.0825L21.2098 32.7278L19.0825 29.0913Z" fill="#DDCD97"/>
<path d="M25.4458 32.7275H21.191L19.0635 36.3637L21.191 40.0002H25.4458L27.5731 36.3637L25.4458 32.7275Z" fill="#FFAA71"/>
<path d="M19.0825 36.3633H14.8279L12.7002 39.9998H21.2098L19.0825 36.3633Z" fill="#CADBE0"/>
<path d="M25.4458 18.1816H21.191L19.0635 21.818L21.191 25.4543H25.4458L27.5731 21.818L25.4458 18.1816Z" fill="#DDCD97"/>
<path d="M31.8091 21.8188H27.5541L25.4268 25.4552L27.5541 29.0915H31.8091L33.9362 25.4552L31.8091 21.8188Z" fill="#FFAA71"/>
<path d="M25.4458 25.4541H21.191L19.0635 29.0904L21.191 32.7269H25.4458L27.5731 29.0904L25.4458 25.4541Z" fill="#CADBE0"/>
<path d="M38.1468 18.1821H33.892L31.7646 21.8185L33.892 25.4548H38.1468L40.2741 21.8185L38.1468 18.1821Z" fill="#DDCD97"/>
<path d="M44.5101 21.8184H40.2554L38.1279 25.4547L40.2554 29.091H44.5101L46.6376 25.4547L44.5101 21.8184Z" fill="#FFAA71"/>
<path d="M38.1468 25.4546H33.892L31.7646 29.0909L33.892 32.7274H38.1468L40.2741 29.0909L38.1468 25.4546Z" fill="#CADBE0"/>
<path d="M50.8723 18.1821H46.6176L44.4902 21.8185L46.6176 25.4548H50.8723L52.9996 21.8185L50.8723 18.1821Z" fill="#DDCD97"/>
<path d="M50.8723 25.4546H46.6176L44.4902 29.0909L46.6176 32.7274H50.8723L52.9996 29.0909L50.8723 25.4546Z" fill="#CADBE0"/>
<path d="M31.8091 29.0913H27.5541L25.4268 32.7278L27.5541 36.364H31.8091L33.9362 32.7278L31.8091 29.0913Z" fill="#DDCD97"/>
<path d="M38.171 32.7275H33.9163L31.7891 36.3637L33.9163 40.0002H38.171L40.2985 36.3637L38.171 32.7275Z" fill="#FFAA71"/>
<path d="M31.8091 36.3633H27.5541L25.4268 39.9998H33.9362L31.8091 36.3633Z" fill="#CADBE0"/>
<path d="M44.5101 29.0908H40.2554L38.1279 32.7273L40.2554 36.3635H44.5101L46.6376 32.7273L44.5101 29.0908Z" fill="#DDCD97"/>
<path d="M50.8723 32.7275H46.6176L44.4902 36.3637L46.6176 40.0002H50.8723L52.9996 36.3637L50.8723 32.7275Z" fill="#FFAA71"/>
<path d="M44.5101 36.3633H40.2554L38.1279 39.9998H46.6376L44.5101 36.3633Z" fill="#CADBE0"/>
</svg>
