<svg width="70" height="62" viewBox="0 0 70 62" fill="none" xmlns="http://www.w3.org/2000/svg">
<path d="M40.6451 18.3522C42.5779 16.3519 44.9925 14.7737 47.6507 13.7737C48.6536 13.3964 49.7521 13.0977 50.8013 13.3361C52.3966 13.6988 53.4547 15.2829 53.5187 16.839C53.5826 18.3952 52.831 19.8902 51.8459 21.1354C50.6305 22.6719 49.0091 23.9481 47.1143 24.6239C45.2197 25.2998 43.046 25.3413 41.1926 24.5687C40.5432 24.298 39.8733 23.839 39.8013 23.1693C39.771 22.8876 39.8538 22.6064 39.9513 22.3389C40.691 20.3097 42.3744 18.6091 44.4619 17.7824L40.6451 18.3522Z" fill="#78A015"/>
<path d="M12.3889 29.1141C11.0933 28.9612 9.77281 28.4514 9.01968 27.439C8.26668 26.4265 8.29177 24.8504 9.3128 24.0781C10.0512 23.5195 11.0945 23.4843 11.9023 23.0201C12.9462 22.4204 13.4281 21.0695 12.9829 19.991C12.8444 19.6555 12.6266 19.3404 12.5892 18.9817C12.4998 18.1227 13.4383 17.5063 14.2916 17.2082C15.1449 16.9101 16.1424 16.6443 16.5364 15.8665C16.8669 15.214 16.6374 14.4419 16.6955 13.72C16.8028 12.3839 17.8999 11.2979 19.1039 10.5984C21.458 9.23091 24.3797 8.91927 27.1004 9.35914C27.7629 9.46621 28.4301 9.62001 29.0051 9.95004C30.112 10.5851 30.7152 11.7636 31.2592 12.8775C32.6866 15.8006 34.1481 19.0211 33.3034 22.1416C32.9074 23.6043 32.0233 24.9135 30.9715 26.0465C28.0362 29.2085 23.66 31.1211 19.2208 31.182C18.0079 31.1986 16.5619 30.9341 16.089 29.8736L12.3889 29.1141Z" fill="#78A015"/>
<path d="M24.5681 45.7554C23.7473 47.3961 23.0482 49.0918 22.4776 50.8256C21.8106 52.8525 21.4736 55.4191 23.192 56.7784C24.407 57.7396 26.2559 57.656 27.667 56.978C29.0781 56.2999 30.1516 55.1376 31.1879 54.0033C32.9161 55.3108 35.6277 54.2564 36.8882 52.5332C37.1369 52.1932 37.3976 51.7993 37.8237 51.7118C38.7137 51.529 39.113 52.6895 39.567 53.4389C40.6366 55.2045 43.6647 55.0507 45.0688 53.5107C46.4729 51.9709 46.5247 49.6705 45.9525 47.7075C47.1371 49.0573 48.4755 50.2853 49.9368 51.3631C50.1825 51.5443 50.5092 51.7291 50.7836 51.5901C50.9849 51.4879 51.0601 51.2534 51.1031 51.0407C51.3179 49.9765 51.1932 48.8721 51.3844 47.8038C51.5755 46.7355 52.2124 45.6176 53.3137 45.3324C54.1469 45.1166 55.019 45.4274 55.8801 45.4913C56.7412 45.5551 57.8072 45.1752 57.8811 44.3583C57.946 43.6398 57.2181 43.1171 56.6169 42.6763C55.4332 41.8088 54.4465 40.7003 53.7432 39.4476C53.63 39.2461 53.5212 39.0182 53.5812 38.797C53.6638 38.4918 54.0218 38.3425 54.3423 38.2601C55.5758 37.9433 56.8747 37.9858 58.1501 37.9081C59.4255 37.8302 60.7541 37.6053 61.7573 36.8535C62.7606 36.1019 63.309 34.6894 62.6903 33.6281C62.4225 33.1685 61.9792 32.8288 61.547 32.5012C59.9113 31.2614 58.2293 29.9975 56.2414 29.3756C54.4605 28.8185 52.5479 28.8132 50.6729 28.8135C47.0815 28.8137 43.4562 28.8174 39.9493 29.5522C37.7563 30.0119 35.6094 30.7658 33.7564 31.9705C30.5194 34.0751 28.4099 37.3755 26.3992 40.5739L24.5681 45.7554Z" fill="#78A015"/>
<path d="M48.8226 19.5496C51.581 17.8159 54.3393 16.0823 57.0976 14.3485C57.8076 13.9023 58.8497 13.4875 59.4098 14.0963C59.6451 14.3521 59.6965 14.7164 59.685 15.0559C59.61 17.2816 57.4525 18.8355 55.6664 20.279C52.1983 23.082 49.4119 26.6853 45.5026 28.9044C45.1097 29.1275 44.6768 29.3419 44.2205 29.3064C43.5309 29.2526 43.0149 28.6157 42.9184 27.9652C42.822 27.3148 43.0516 26.6623 43.3203 26.0569C43.9814 24.5676 44.9024 23.1826 46.0343 21.9754L48.8226 19.5496Z" fill="#78A015"/>
<path d="M68.8992 24.0644C68.5498 23.7478 68.0531 23.6328 67.5772 23.5541C61.2072 22.4996 55.1055 25.7135 48.8749 27.531C48.8144 27.2688 48.7468 27.0089 48.672 26.7519C53.5485 22.7843 61.1427 21.8619 64.8729 16.8277C65.1955 16.3924 65.4926 15.8447 65.2876 15.3493C64.9959 14.6444 63.9667 14.597 63.1862 14.7529C60.2619 15.3372 57.7344 17.0301 55.3679 18.7625C52.7971 20.6446 50.3046 22.6232 47.8965 24.6901C47.764 24.406 47.623 24.1265 47.4731 23.8519C49.6564 20.7199 51.8399 17.5878 54.0233 14.4558C54.8954 13.2047 55.7832 11.9205 56.1537 10.462C56.2592 10.0465 56.3162 9.58854 56.1108 9.20813C55.7851 8.60476 54.8997 8.44693 54.2335 8.69142C53.5672 8.93592 53.0754 9.4724 52.6249 9.99855C49.7287 13.3818 47.3703 17.1776 45.639 21.2153C44.4719 19.8694 43.0627 18.7203 41.4752 17.8262C44.5018 15.0732 47.447 12.2395 50.305 9.3288C50.9849 8.63638 51.6884 7.88751 51.8725 6.95727C52.0568 6.02702 51.476 4.8951 50.4829 4.8097C50.0019 4.76838 49.5377 4.97195 49.1137 5.19138C44.4094 7.62652 41.7711 12.2468 38.9083 16.6628C38.3603 16.4701 37.7978 16.3058 37.2233 16.1708C39.1259 11.2655 42.9097 6.73065 42.587 1.52455C42.554 0.99323 42.4275 0.388982 41.9421 0.122441C41.2518 -0.256964 40.4152 0.314038 39.9064 0.897379C38.0007 3.08261 37.1322 5.90105 36.416 8.65526C35.8018 11.0167 35.2669 13.3966 34.8073 15.7895C34.3528 15.7517 33.8932 15.7312 33.4286 15.7307C33.1324 12.5134 32.8361 9.2963 32.5399 6.07917C32.4022 4.5846 32.2552 3.05489 31.589 1.69447C31.3991 1.30688 31.1435 0.914756 30.7334 0.738532C30.0829 0.458765 29.2863 0.858451 28.9253 1.44343C28.5642 2.02841 28.5308 2.73897 28.5233 3.41691C28.4759 7.66997 29.0857 11.9279 30.3154 16.0176C29.6637 16.1401 29.0263 16.3004 28.4058 16.4963C28.2676 12.281 28.0044 8.06828 27.6155 3.86547C27.5282 2.92263 27.4138 1.92512 26.8389 1.16845C26.264 0.411909 25.0588 0.0548024 24.372 0.692056C24.0394 1.00067 23.899 1.46283 23.7957 1.90761C22.6013 7.05325 24.5809 12.23 26.0935 17.4272C25.6388 17.6524 25.1971 17.8979 24.7694 18.1624C22.1061 13.4342 21.1989 7.41301 16.9755 4.00089C16.5603 3.66544 16.0322 3.34637 15.5296 3.5061C14.8144 3.73333 14.7132 4.70389 14.8269 5.45351C15.2528 8.26138 16.8002 10.7706 18.3954 13.13C19.8533 15.2865 21.3819 17.3953 22.9764 19.4527C22.6729 19.705 22.3801 19.9683 22.0979 20.2416C19.415 18.1958 16.7321 16.15 14.0492 14.1042C12.8532 13.1922 11.625 12.2631 10.1967 11.8116C9.78972 11.6829 9.33804 11.5973 8.94979 11.7653C8.3336 12.0319 8.1302 12.8588 8.33785 13.5062C8.54551 14.1535 9.05197 14.6562 9.55074 15.1189C12.7273 18.0664 16.3334 20.5426 20.2095 22.4535C19.7037 23.1759 19.2622 23.9422 18.8923 24.7451C15.7469 22.0152 12.5193 19.3705 9.21412 16.8164C8.44082 16.2188 7.60661 15.6027 6.61663 15.4905C5.62665 15.3782 4.47587 16.0044 4.45264 16.9507C4.44137 17.409 4.68643 17.835 4.94557 18.222C7.88246 22.6078 13.072 24.7984 18 27.2776C17.8703 27.7957 17.7683 28.3238 17.6968 28.8612C12.261 27.4503 7.12178 23.9782 1.52916 24.65C0.972937 24.7169 0.346388 24.8772 0.0986618 25.3547C-0.253755 26.0341 0.402381 26.7883 1.04963 27.2311C3.47395 28.8898 6.49444 29.5235 9.43704 30.0176C12.136 30.4707 14.851 30.8385 17.5756 31.1215C17.5852 31.5141 17.6105 31.9031 17.6513 32.2877C14.0973 32.8123 10.5431 33.337 6.98908 33.8615C5.42749 34.092 3.82968 34.334 2.44456 35.0561C2.04995 35.2618 1.65494 35.5304 1.49717 35.9306C1.24679 36.5656 1.72009 37.2933 2.35925 37.5961C2.99827 37.8988 3.74728 37.8828 4.46034 37.8446C9.16369 37.5922 13.8242 36.6508 18.233 35.0758C18.5737 36.1583 19.0393 37.1896 19.6142 38.1546C15.0342 39.0105 10.4823 40.0024 5.96794 41.1298C5.00357 41.3706 3.98772 41.6471 3.30863 42.3403C2.62953 43.0335 2.48411 44.2849 3.27558 44.8606C3.65905 45.1393 4.16591 45.2026 4.64797 45.2319C10.4601 45.586 15.6606 42.5202 21.0105 40.1191C21.3075 40.4735 21.6203 40.815 21.9491 41.1421C17.5005 44.8552 10.9831 46.6904 8.10392 51.6407C7.83297 52.1067 7.60011 52.6817 7.86044 53.153C8.2309 53.8238 9.25937 53.7651 10.0175 53.5298C12.858 52.6482 15.1775 50.7053 17.3323 48.7398C19.5035 46.7592 21.597 44.7022 23.6113 42.5776C23.8813 42.7796 24.1588 42.973 24.4426 43.1583C22.6818 46.3997 20.9212 49.6413 19.1605 52.8827C18.4361 54.2162 17.7002 55.584 17.4983 57.0722C17.4408 57.4959 17.4365 57.9571 17.6841 58.3141C18.0768 58.8803 18.975 58.9462 19.6093 58.6346C20.2437 58.323 20.6715 57.7393 21.0593 57.1698C23.711 53.2756 25.7055 48.9802 26.9574 44.4983C28.1937 45.0223 29.5135 45.4001 30.8928 45.6089C29.8168 49.4358 28.8531 53.291 28.0052 57.1692C27.8026 58.0959 27.6106 59.0826 27.9617 59.9687C28.3127 60.8546 29.428 61.536 30.3235 61.1198C30.7573 60.9183 31.0428 60.5155 31.2853 60.1191C33.8874 55.8638 33.7195 50.8133 33.7356 45.7945C34.3648 45.7822 34.9847 45.7349 35.5939 45.655C36.4364 50.5806 35.9041 55.9628 38.8688 60.038C39.1874 60.4761 39.626 60.9301 40.1866 60.9189C40.9841 60.903 41.3871 60.0029 41.5031 59.2535C41.9376 56.4468 41.1391 53.6095 40.2459 50.9023C39.6033 48.9547 38.9063 47.0231 38.1583 45.1097C38.7229 44.9413 39.2737 44.7433 39.8091 44.5183C41.5284 46.7439 43.2479 48.9694 44.9673 51.1949C45.9019 52.4047 46.8639 53.6398 48.1771 54.4744C48.5511 54.7122 48.9841 54.9215 49.431 54.8702C50.1401 54.7888 50.6025 54.0547 50.5913 53.3769C50.5802 52.6988 50.2203 52.0752 49.8561 51.4918C47.8962 48.3527 45.5204 45.4491 42.8094 42.8623C43.5504 42.3423 44.2427 41.763 44.8769 41.1306C48.4772 44.2834 52.1865 47.324 55.9979 50.2447C56.7739 50.8392 57.6107 51.452 58.6012 51.5604C59.5917 51.6687 60.7398 51.0381 60.7589 50.0917C60.7681 49.6332 60.5212 49.2082 60.2605 48.8223C57.1434 44.2096 51.5325 42.0475 46.3622 39.4124C46.66 39.011 46.9374 38.5953 47.1934 38.1664C52.7349 39.5081 57.9671 43.0862 63.6489 42.3811C64.2049 42.312 64.8307 42.1493 65.0764 41.6708C65.4258 40.9901 64.7664 40.2384 64.1173 39.7982C61.6858 38.1489 58.6625 37.5272 55.7177 37.0447C53.2363 36.6383 50.7417 36.3058 48.2389 36.0428C48.422 35.5794 48.5817 35.1053 48.7166 34.6213C51.8606 34.1447 55.0048 33.668 58.1488 33.1912C59.7093 32.9547 61.3061 32.7065 62.6881 31.9788C63.0818 31.7715 63.4756 31.5015 63.6317 31.1006C63.8793 30.4647 63.4028 29.7388 62.7624 29.4385C62.1221 29.1382 61.3732 29.1571 60.6603 29.1982C56.7816 29.4216 52.934 30.1135 49.2347 31.2427C49.2399 31.0839 49.2435 30.9245 49.2435 30.7644C49.2435 30.2558 49.2166 29.7532 49.1645 29.2575C54.7294 28.8684 60.2789 28.281 65.7973 27.4963C66.7834 27.3561 67.825 27.1855 68.579 26.5663C69.333 25.9473 69.6204 24.718 68.8992 24.0644Z" fill="#78A015"/>
<path d="M64.3313 28.4703C64.0723 28.1678 63.6663 28.0201 63.2738 27.9053C58.0192 26.367 52.5088 28.4566 47.0473 29.3555C47.0258 29.128 46.9982 28.9019 46.9642 28.6774C51.5262 25.8271 58.0369 25.8224 61.7526 21.9555C62.0739 21.621 62.3864 21.1892 62.2695 20.7505C62.1031 20.1262 61.2403 19.9813 60.5641 20.0335C58.0312 20.2285 55.7076 21.3992 53.5155 22.6197C51.134 23.9454 48.8079 25.3608 46.5428 26.8591C46.4632 26.6059 46.3759 26.3558 46.2802 26.1089C48.476 23.6891 50.672 21.2695 52.8677 18.8497C53.7449 17.8832 54.6388 16.8902 55.1162 15.6976C55.2522 15.3578 55.352 14.9773 55.2217 14.6355C55.015 14.0934 54.2859 13.8699 53.6963 14.0084C53.1068 14.1468 52.6311 14.5493 52.1917 14.9472C49.3662 17.5063 46.9478 20.4682 45.031 23.698C44.1985 22.4438 43.1395 21.3309 41.9014 20.415C44.7657 18.4009 47.5705 16.3104 50.3104 14.1459C50.9622 13.6311 51.6402 13.0709 51.9008 12.3049C52.1614 11.539 51.7992 10.5249 50.9712 10.3517C50.5702 10.2679 50.1556 10.3923 49.7731 10.5343C45.5293 12.1093 42.7815 15.7382 39.8674 19.172C39.4269 18.9537 38.9711 18.7577 38.5017 18.5854C40.661 14.6411 44.3655 11.201 44.6816 6.77625C44.7138 6.32454 44.6754 5.80204 44.2961 5.52769C43.7566 5.13733 42.9863 5.53387 42.4912 5.97411C40.6365 7.62336 39.5855 9.91264 38.67 12.1631C37.885 14.0926 37.1649 16.0458 36.5068 18.0176C36.1277 17.9393 35.7422 17.8753 35.3503 17.8275C35.464 15.0833 35.5775 12.3392 35.6913 9.59521C35.7439 8.32032 35.7928 7.01496 35.3844 5.79953C35.2681 5.45325 35.0967 5.09639 34.7707 4.90594C34.2535 4.60375 33.5363 4.8597 33.1657 5.31645C32.795 5.77307 32.6866 6.36913 32.6035 6.94026C32.083 10.5232 32.1163 14.1774 32.6915 17.7525C32.1277 17.7894 31.5719 17.8599 31.0264 17.9619C31.3861 14.3919 31.6402 10.8111 31.7871 7.2262C31.82 6.42191 31.8363 5.56875 31.4367 4.87205C31.0371 4.17521 30.0608 3.75122 29.4095 4.2188C29.0939 4.44528 28.9233 4.82091 28.786 5.18557C27.1968 9.40475 28.2818 13.9734 28.9704 18.5117C28.5613 18.6554 28.161 18.8176 27.7705 18.9972C26.0581 14.7373 25.9733 9.56548 22.7961 6.2569C22.4837 5.93166 22.0744 5.60869 21.6323 5.69233C21.0034 5.81111 20.8082 6.61968 20.8195 7.26361C20.8614 9.67557 21.8832 11.95 22.9622 14.1028C23.9485 16.0705 24.9995 18.0051 26.1122 19.9031C25.8277 20.0851 25.5509 20.2774 25.2818 20.4793C23.2499 18.4802 21.2178 16.4812 19.1857 14.4822C18.2797 13.591 17.3488 12.6822 16.1948 12.1558C15.866 12.0059 15.4947 11.8876 15.1481 11.9898C14.5982 12.1519 14.3332 12.8288 14.4352 13.3961C14.5373 13.9633 14.9078 14.4389 15.2761 14.88C17.6226 17.69 20.3849 20.1462 23.4387 22.153C22.9304 22.7109 22.4714 23.3123 22.0686 23.952C19.7237 21.3287 17.2998 18.7689 14.8001 16.2777C14.2154 15.6949 13.5811 15.0901 12.7587 14.8947C11.9362 14.6992 10.8947 15.1102 10.7683 15.906C10.707 16.2916 10.8655 16.6759 11.0404 17.0287C13.0224 21.0277 17.1525 23.4041 21.0296 25.9974C20.8618 26.4213 20.716 26.8564 20.5949 27.3024C16.1689 25.5585 12.2257 22.1061 7.43201 22.1032C6.95513 22.1028 6.40859 22.1744 6.1456 22.552C5.77156 23.0893 6.23981 23.7923 6.73579 24.2316C8.59341 25.8779 11.0699 26.7201 13.4965 27.4364C15.7221 28.0936 17.9708 28.6803 20.2373 29.1966C20.2011 29.5288 20.1786 29.8595 20.1694 30.1881C17.112 30.2687 14.0545 30.3493 10.997 30.4298C9.65371 30.4652 8.27842 30.5065 7.02825 30.9748C6.67212 31.1082 6.30868 31.2943 6.13021 31.6159C5.84719 32.1261 6.16432 32.7883 6.66919 33.1087C7.17406 33.4293 7.80778 33.4922 8.41349 33.5323C12.4098 33.7984 16.4476 33.4791 20.3448 32.5993C20.51 33.5473 20.7862 34.4648 21.1622 35.3374C17.2017 35.5929 13.2498 35.9661 9.31416 36.4573C8.47346 36.5623 7.58512 36.6922 6.93403 37.2077C6.28293 37.7233 6.01876 38.7641 6.62155 39.3303C6.91347 39.6046 7.33394 39.7095 7.73718 39.7834C12.6002 40.674 17.3338 38.6174 22.1182 37.1369C22.3286 37.4658 22.5539 37.7859 22.7944 38.0954C18.622 40.7745 12.9166 41.6591 9.92838 45.5417C9.64708 45.9071 9.38583 46.3684 9.55208 46.7927C9.7888 47.3962 10.6631 47.4514 11.3293 47.3302C13.8251 46.876 16.0013 45.4733 18.0413 44.0345C20.0967 42.5849 22.0951 41.0627 24.0345 39.4757C24.2393 39.6736 24.4518 39.8649 24.6702 40.0502C22.8185 42.6054 20.967 45.1606 19.1154 47.7157C18.3537 48.7668 17.5783 49.8459 17.2398 51.0806C17.1434 51.4323 17.0876 51.8208 17.2561 52.1472C17.5235 52.6649 18.2737 52.8119 18.844 52.6137C19.4143 52.4155 19.8413 51.9665 20.2327 51.5257C22.9097 48.5105 25.0776 45.0902 26.6403 41.4368C27.6239 42.0048 28.6947 42.4578 29.8346 42.7746C28.4943 45.8932 27.2459 49.0474 26.0923 52.2326C25.8166 52.9938 25.5431 53.8067 25.7391 54.5898C25.9351 55.3729 26.799 56.0613 27.6015 55.8013C27.9901 55.6755 28.2766 55.3649 28.5259 55.0551C31.2018 51.7303 31.6311 47.4527 32.2118 43.2205C32.7439 43.2744 33.2723 43.2976 33.7952 43.2922C33.9494 47.533 32.892 52.0192 34.9326 55.759C35.1518 56.1608 35.4703 56.5886 35.9446 56.6363C36.6191 56.7041 37.0609 55.9857 37.2433 55.3655C37.927 53.0421 37.5741 50.5673 37.1265 48.1926C36.8045 46.4841 36.4348 44.7836 36.0201 43.0934C36.5155 43.0088 37.0025 42.8978 37.4796 42.7626C38.6786 44.8152 39.8775 46.8678 41.0765 48.9204C41.7283 50.0361 42.4002 51.1759 43.4136 52.0138C43.7024 52.2525 44.0439 52.4731 44.4267 52.4752C45.034 52.4788 45.507 51.9066 45.5743 51.3336C45.6414 50.7606 45.4085 50.1977 45.1671 49.6685C43.8685 46.8209 42.1924 44.1293 40.1977 41.6711C40.8817 41.308 41.5311 40.8898 42.1376 40.421C44.8185 43.4472 47.604 46.39 50.4892 49.2419C51.0766 49.8224 51.7132 50.4248 52.5365 50.617C53.36 50.8092 54.3996 50.3942 54.5227 49.5977C54.5823 49.212 54.4221 48.8283 54.2458 48.4762C52.1375 44.2675 47.6485 41.8721 43.5847 39.1225C43.8812 38.8144 44.1623 38.4918 44.4267 38.1562C48.9497 39.8523 52.9593 43.4037 57.8321 43.3875C58.3089 43.3859 58.8552 43.3123 59.1165 42.9337C59.4883 42.3949 59.0168 41.6937 58.5191 41.2563C56.6543 39.6174 54.1742 38.7849 51.7445 38.078C49.6973 37.4825 47.6303 36.9479 45.5488 36.4711C45.7557 36.0987 45.944 35.715 46.1125 35.3205C48.8186 35.2387 51.5248 35.1567 54.2309 35.0748C55.5743 35.0341 56.9492 34.9874 58.1973 34.5142C58.553 34.3796 58.9157 34.1918 59.0926 33.8695C59.3733 33.3583 59.0534 32.6974 58.5471 32.379C58.0409 32.0604 57.4071 32.0001 56.8009 31.9622C53.5035 31.7556 50.1797 31.9476 46.9314 32.5234C46.9537 32.3897 46.9748 32.2557 46.9929 32.1207C47.0503 31.6916 47.0844 31.2649 47.0965 30.8414C51.8349 31.0799 56.5827 31.1496 61.3266 31.0496C62.1742 31.0317 63.0723 30.994 63.7784 30.5484C64.4845 30.1027 64.8658 29.0951 64.3313 28.4703Z" fill="#7EBB15"/>
<path d="M58.2309 25.5356C58.9184 24.85 59.0792 23.6002 58.2946 23.0159C57.9146 22.7329 57.4084 22.6641 56.9269 22.6295C51.3158 22.2256 46.2368 25.0202 41.0484 27.3219C40.3047 27.2604 39.5594 27.2162 38.8134 27.1888C43.2964 23.0591 50.4389 21.3877 53.5495 16.183C53.8261 15.72 54.066 15.1476 53.8114 14.6733C53.4493 13.9985 52.42 14.0459 51.659 14.2729C48.808 15.1231 46.4648 17.0403 44.2862 18.982C41.37 21.5811 38.5872 24.3148 35.9478 27.168C35.8334 27.1705 35.719 27.1726 35.6046 27.1759C37.9061 23.057 40.2074 18.9381 42.5089 14.8191C43.2494 13.4937 44.002 12.134 44.222 10.6483C44.2848 10.225 44.2947 9.76386 44.0515 9.40435C43.6658 8.83374 42.7684 8.75803 42.1303 9.06261C41.4922 9.36719 41.0573 9.94626 40.6625 10.5113C38.8325 13.1316 37.303 15.9398 36.1 18.8689C36.4599 15.6841 36.7443 12.4915 36.9514 9.29439C37.0126 8.34966 37.0543 7.34698 36.5737 6.51763C36.0931 5.68828 34.8867 5.16502 34.063 5.69836C33.664 5.95671 33.4418 6.39393 33.2615 6.81919C30.6558 12.9633 33.2347 19.8538 33.5633 26.47C29.3814 21.0443 30.5827 12.857 25.7678 7.92704C25.3864 7.53668 24.8842 7.1467 24.331 7.23374C23.5441 7.35744 23.2805 8.30317 23.2784 9.06034C23.2703 11.8973 24.4872 14.5972 25.7783 17.1557C26.6312 18.8459 27.5289 20.5155 28.4654 22.1654C25.6125 19.7169 22.6932 17.3385 19.7105 15.0336C18.9372 14.436 18.103 13.8199 17.1129 13.7077C16.1229 13.5954 14.9722 14.2216 14.9489 15.1679C14.9421 15.4399 15.0261 15.7003 15.1492 15.9482C15.1524 16.0021 15.1576 16.0558 15.1663 16.1086C15.2794 16.7781 15.7293 17.3467 16.1774 17.8747C18.8954 21.0768 22.0913 23.9115 25.6334 26.2789C21.1204 24.6729 16.7334 22.3016 12.0253 22.867C11.469 22.9339 10.8425 23.0943 10.5948 23.5718C10.2423 24.2511 10.8985 25.0053 11.5457 25.4482C13.97 27.1069 16.9905 27.7406 19.9331 28.2346C22.6778 28.6953 25.4387 29.0683 28.2097 29.3532C25.8174 30.0473 23.4373 30.7792 21.0709 31.5494C19.8757 31.7257 18.6806 31.9022 17.4853 32.0787C15.9237 32.3092 14.3259 32.5511 12.9408 33.2732C12.5462 33.479 12.1512 33.7476 11.9934 34.1477C11.8106 34.6115 12.0145 35.1238 12.3862 35.4848C12.0854 36.2152 12.2072 37.1212 12.8965 37.5246C13.3075 37.7652 13.8186 37.7796 14.3012 37.7626C17.6991 37.643 20.7655 36.3834 23.7377 34.7786C26.0333 34.2266 28.285 33.5099 30.4659 32.6341C26.4364 36.4044 20.6435 38.8634 18.4212 43.8073C18.2012 44.297 18.0307 44.8913 18.3398 45.3354C18.7797 45.9673 19.7967 45.8103 20.5261 45.5035C23.2581 44.3542 25.3592 42.1988 27.2939 40.0366C29.4999 37.5714 31.5982 35.0195 33.584 32.3908C33.7131 32.7015 33.8428 33.0117 33.9734 33.3218C32.5002 36.8757 31.0268 40.4295 29.5536 43.9833C28.9748 45.3794 28.3882 46.8109 28.3456 48.3107C28.3335 48.738 28.3782 49.1971 28.6625 49.5285C29.1135 50.0543 30.0141 50.0338 30.612 49.6628C31.2099 49.2921 31.5736 48.6702 31.8987 48.0665C33.6723 44.7739 35.0028 41.2677 35.859 37.66C37.3381 40.9585 38.9048 44.2215 40.5586 47.4442C40.9953 48.2952 41.4791 49.1873 42.3275 49.6845C43.1759 50.1817 44.4973 50.0733 44.9377 49.2242C45.1511 48.8128 45.1176 48.3285 45.0539 47.874C44.289 42.4051 40.1249 38.1667 36.6067 33.6642C36.6784 33.144 36.7396 32.6226 36.7915 32.1004C41.8714 35.4409 45.0628 41.6112 51.0019 43.4072C51.5362 43.5688 52.1756 43.6735 52.6119 43.3393C53.2328 42.8636 52.9716 41.9174 52.5809 41.2573C51.1167 38.7843 48.6574 37.003 46.2067 35.3796C43.454 33.5559 40.6234 31.8386 37.7246 30.2321C38.2998 30.1417 38.8746 30.0486 39.4491 29.954C43.0098 30.926 46.5704 31.8981 50.1309 32.8699C51.6498 33.2845 53.2065 33.7033 54.7832 33.6013C55.2323 33.5722 55.7096 33.4865 56.0302 33.1864C56.5388 32.7104 56.4318 31.8612 55.9863 31.3312C55.5407 30.8014 54.8542 30.5167 54.1904 30.2666C52.1626 29.5027 50.0776 28.8773 47.9569 28.3921C50.5003 27.8759 53.0343 27.3175 55.5569 26.7171C56.5242 26.4865 57.5435 26.2212 58.2309 25.5356ZM30.2677 26.4113C30.6424 26.612 31.0139 26.8162 31.3807 27.0253C31.5114 27.2316 31.6443 27.4367 31.7764 27.6422C31.693 27.6388 31.6098 27.6342 31.5266 27.6293C31.1071 27.2233 30.6874 26.8173 30.2677 26.4113ZM32.5161 29.7679C32.5276 29.7968 32.5393 29.8258 32.5509 29.8548C32.4536 29.8692 32.3563 29.8835 32.2591 29.8979C32.3447 29.8542 32.4304 29.8108 32.5161 29.7679ZM34.8309 31.2531C34.7667 31.1589 34.703 31.0645 34.64 30.9699C34.6477 30.9594 34.6553 30.9489 34.663 30.9385C34.7474 30.9751 34.8316 31.0124 34.9149 31.0508C34.8869 31.1182 34.8589 31.1857 34.8309 31.2531Z" fill="#94D31A"/>
</svg>
