<svg width="103" height="92" viewBox="0 0 103 92" fill="none" xmlns="http://www.w3.org/2000/svg">
<path d="M48.641 2.24168C49.4777 1.57615 50.4534 1.04987 51.5029 0.697688C51.9571 1.31019 52.4115 1.9229 52.8657 2.53541C53.657 1.70162 54.5679 0.958211 55.5692 0.329005C56.143 1.05487 56.5344 1.89451 56.7067 2.76922C57.564 1.7513 58.6159 0.86365 59.8033 0.156367C60.072 1.11312 60.341 2.07008 60.61 3.02704C61.5851 2.45628 62.4331 1.7131 63.09 0.853418C63.4535 1.84629 63.8169 2.83916 64.1804 3.83182C64.7566 3.48194 65.3327 3.13204 65.9089 2.78237C65.9098 4.37522 66.2095 5.96765 66.7922 7.47344C67.686 6.46951 68.9895 5.34993 70.3417 5.78582C71.3301 6.10439 71.77 7.10748 72.4972 7.78407C73.2241 8.46088 74.8823 8.54439 74.9998 7.6131C75.6469 8.52936 76.0009 9.60782 76.0102 10.6905C77.0012 10.7698 77.6827 9.87273 78.2973 9.17505C78.9118 8.47717 80.1381 7.88241 80.8095 8.53709C81.3543 9.06817 80.9778 9.90614 81.0052 10.6253C81.0326 11.3447 82.3354 11.952 82.4951 11.2466C82.4548 12.6992 82.4146 14.1519 82.3745 15.6045C83.111 14.9932 83.8472 14.3818 84.5838 13.7703C84.4072 15.4698 84.5157 17.1927 84.9047 18.8639C86.4435 18.7378 87.9177 18.0664 88.934 17.0284C88.4218 18.6733 88.5388 20.4686 89.261 22.0496C91.066 20.8874 93.1297 20.0461 95.2964 19.5893C94.4468 21.8379 93.5972 24.0862 92.7476 26.3348C93.914 25.7661 95.0808 25.1975 96.2471 24.6288C94.8375 25.9473 93.6864 27.4853 92.8619 29.152C93.8353 29.3783 94.8085 29.6048 95.7822 29.8311C95.2236 30.0153 94.6653 30.1992 94.1069 30.3833C95.1616 31.8342 96.2162 33.2851 97.2709 34.736C96.6578 34.5721 96.0449 34.4082 95.432 34.2443C96.8514 36.048 98.2705 37.8517 99.6899 39.6554C99.0841 39.4189 98.4782 39.1822 97.8723 38.9456C98.9961 39.9694 100.12 40.9932 101.243 42.0169C100.304 41.6359 99.3655 41.2548 98.4265 40.8736C99.951 42.5163 101.475 44.159 103 45.8018C101.424 45.6339 99.8751 45.2673 98.4133 44.7156C98.8052 46.651 99.4109 48.5518 100.218 50.382C99.3828 50.002 98.4129 49.8616 97.4853 49.9862C97.8882 51.6022 98.2909 53.2182 98.6938 54.8345C98.0032 54.7649 97.3123 54.6952 96.6215 54.6255C96.9221 55.8129 97.2229 56.9999 97.5235 58.1872C96.379 58.0707 95.2344 57.9544 94.0898 57.8379C94.7821 59.2232 95.4743 60.6086 96.1666 61.9939C95.0817 61.8225 93.9971 61.6507 92.9125 61.4791C94.0374 62.9801 94.9162 64.6274 95.512 66.3526C94.2656 66.0729 93.0194 65.7932 91.7728 65.5136C92.3852 67.0528 92.813 68.6505 93.0462 70.2707C91.6218 69.9143 90.1483 69.7154 88.6697 69.6795C89.1581 71.5487 89.6464 73.4177 90.1348 75.287C89.008 75.2283 87.8945 74.9676 86.8808 74.5246C87.3537 75.5131 87.6492 76.5686 87.7536 77.6393C85.9116 77.103 84.0697 76.5665 82.2277 76.0302C82.7039 76.9539 82.9614 77.9666 82.9776 78.9833C81.5886 78.6107 80.1998 78.2382 78.8109 77.8656C79.0089 78.8933 79.2072 79.9208 79.4053 80.9486C78.5213 80.0125 77.637 79.0764 76.7528 78.1403C76.8729 79.0025 76.9928 79.8645 77.1127 80.7265C75.818 80.1722 74.6208 79.4367 73.5785 78.5558C73.1262 80.9701 72.6744 83.3846 72.2223 85.7992C70.6163 85.0084 69.1187 84.0429 67.7735 82.9308C67.4465 84.1278 66.9366 85.4376 65.7052 85.9971C64.4738 86.5561 62.5424 85.5889 62.9951 84.4247C62.4684 86.0687 61.9417 87.7129 61.4149 89.3569C60.485 87.9601 59.5554 86.5634 58.6255 85.1668C57.0232 86.719 55.6214 88.435 54.4557 90.2708C53.4954 88.9546 52.5351 87.6386 51.5748 86.3223C50.6957 88.2147 49.8166 90.1074 48.9375 92C48.1235 90.56 47.3098 89.1197 46.4958 87.6797C45.8534 88.1653 45.211 88.651 44.5686 89.1366C43.7172 87.535 43.2424 85.7749 43.1836 84.0034C42.8744 84.8902 42.5648 85.777 42.2556 86.6641C41.1335 85.3695 40.4042 83.8072 40.1636 82.1855C38.6798 83.6168 37.1956 85.048 35.7115 86.4793C35.3555 85.491 35.2721 84.4253 35.4704 83.4024C33.6064 84.752 31.7427 86.1017 29.8787 87.4511C29.6273 86.3392 29.6921 85.1716 30.0658 84.0875C27.9546 84.3265 25.8436 84.5656 23.7321 84.8048C24.9502 83.2619 26.1681 81.7191 27.3864 80.1762C25.432 80.134 23.4781 80.0916 21.5238 80.0495C22.1051 79.2105 22.6866 78.3716 23.2681 77.5326C21.3899 77.3145 19.4889 77.2519 17.5978 77.3456C18.1428 76.7281 18.5276 75.9987 18.7135 75.2302C16.1334 75.0173 13.538 74.9561 10.9488 75.0465C12.1364 74.41 13.3243 73.7735 14.5125 73.1372C12.3615 72.6965 10.2107 72.2558 8.05969 71.8151C9.65749 71.5836 10.0335 69.4621 9.02025 68.3363C8.00702 67.2107 6.28699 66.8551 4.70042 66.5695C6.30712 66.0076 8.24975 64.8992 7.79815 63.4137C7.65885 62.9561 7.2993 62.5805 6.9355 62.235C5.77502 61.1328 4.4612 60.1589 3.03337 59.3433C3.64744 59.0205 4.26147 58.698 4.87578 58.3753C3.92085 57.0887 2.78494 55.9087 1.50319 54.8724C3.36647 54.1683 5.22952 53.4641 7.09256 52.76C6.19381 51.2974 5.0846 49.9378 3.80051 48.7253C3.31169 47.2111 2.26428 45.8446 0.859621 44.8884C2.08284 45.2665 3.21406 43.8355 2.88865 42.718C2.56347 41.6005 1.41517 40.8558 0.34482 40.2064C1.23631 39.9306 2.12759 39.6548 3.01885 39.379C2.28328 38.4027 1.5477 37.4263 0.812125 36.4501C1.71602 36.2773 2.62038 36.1044 3.52428 35.9318C2.34951 34.1212 1.17476 32.3106 0 30.5C1.63502 30.4342 3.27003 30.3683 4.90481 30.3023C4.07326 28.545 3.01764 26.8719 1.76468 25.3263C3.40134 25.4004 5.03803 25.4745 6.67492 25.5486C6.15146 24.4276 5.62753 23.3067 5.10383 22.1857C6.80698 21.6226 8.71843 21.5755 10.4539 22.0535C9.94774 20.5563 9.44164 19.0588 8.93526 17.5614C10.5497 17.8424 12.1643 18.1232 13.7787 18.4042C13.4522 17.4576 13.1258 16.5113 12.7992 15.5648C14.3085 15.9139 15.8183 16.2629 17.3276 16.6117C16.9308 15.4705 16.5335 14.3292 16.1367 13.1879C17.1047 12.6795 18.3579 12.633 19.37 13.0674C19.1043 12.1528 19.2298 11.152 19.7162 10.3124C21.1944 10.6065 22.6728 10.9007 24.1507 11.1948C23.7064 9.96145 23.6696 8.6137 24.0468 7.36281C25.3065 7.49307 26.537 7.84504 27.6462 8.39304C27.5589 7.73523 27.472 7.07721 27.3847 6.4194C28.1828 6.36534 28.9996 6.56679 29.653 6.97888C29.9222 6.09394 30.0276 5.14596 30.1568 4.25184C31.6834 4.61696 33.1403 5.3232 34.6667 5.70878C34.7882 -0.141956 44.3211 5.07269 47.2697 0C47.7639 0.723775 48.1969 1.48451 48.641 2.24168Z" fill="#7EBB15"/>
<path d="M42.6072 54.6799C42.5929 54.5807 42.5791 54.4818 42.5651 54.3824C42.3448 54.4048 42.4403 54.581 42.6072 54.6799Z" fill="#78A015" fill-opacity="0.63"/>
<path d="M97.5434 49.9862C98.4709 49.8615 99.4406 50.002 100.276 50.382C99.8945 49.5169 99.5595 48.6355 99.2694 47.7426C98.7286 47.6614 98.2143 47.4449 97.8241 47.1003C97.6548 47.3908 97.4858 47.6814 97.3165 47.972C97.2564 47.8322 97.1114 47.6983 96.9361 47.7439C96.5784 47.837 96.4215 48.2077 96.1326 48.4182C95.8439 48.6286 95.2189 48.4148 95.4237 48.137C94.9599 48.7223 94.4957 49.3077 94.0317 49.8933C93.4841 49.6119 92.9368 49.3307 92.3894 49.0492C92.0926 49.7453 91.7962 50.4413 91.4993 51.1375C90.8092 51.1003 90.1347 50.8609 89.6049 50.4646C89.5398 50.8989 89.3139 51.3126 88.9707 51.6262C88.0413 51.3521 87.1709 50.9204 86.4194 50.3605C86.4695 51.1051 85.1112 51.1435 84.4924 50.6417C83.8737 50.1396 83.3755 49.3586 82.539 49.3344C82.5404 49.8615 82.5418 50.3889 82.543 50.916C81.8275 50.0803 81.1126 49.2446 80.3972 48.409C80.1727 50.3312 79.6338 52.2239 78.8024 54.0088C77.8496 52.7078 76.7813 51.4738 75.6113 50.3223C75.5846 50.9404 75.5576 51.5583 75.5312 52.1765C74.5158 51.1362 73.5005 50.0958 72.4852 49.0555C72.4908 49.5277 72.4967 49.9997 72.5023 50.4722C71.6386 49.8377 70.8572 49.1146 70.178 48.3217C70.1326 49.0219 70.0872 49.7219 70.0422 50.4218C69.4738 49.7809 68.9056 49.1398 68.3375 48.4992C68.2635 48.9789 68.0596 49.4423 67.7482 49.839C66.8556 48.892 65.8086 48.0612 64.65 47.3808C64.3838 47.9996 64.1179 48.6184 63.8517 49.2371C63.2372 48.4881 62.6226 47.7391 62.0083 46.99C61.8723 47.542 61.7365 48.094 61.6005 48.6459C60.6624 47.9138 59.8573 47.0464 59.2262 46.0875C59.0094 46.7562 58.7928 47.4247 58.5765 48.0933C57.663 46.9426 56.654 45.8523 55.5607 44.8337C55.4444 45.4456 55.3282 46.0575 55.2119 46.6692C54.3742 45.7485 53.5565 44.8062 52.6856 43.9123C52.9438 45.1607 51.5876 44.8335 50.7816 45.1258C49.6188 45.5477 50.2661 45.6928 49.5085 46.4188C48.7935 47.104 48.5234 47.0207 47.3273 47.0451C47.6918 48.1092 48.0559 49.1732 48.4201 50.2373C47.8688 50.1492 47.317 50.0611 46.7654 49.973C46.6622 50.4776 46.5587 50.9819 46.4555 51.4863C45.556 51.616 44.6564 51.7456 43.7571 51.875C43.7967 52.3888 43.836 52.9026 43.8756 53.4163C43.7737 53.2278 43.2187 53.3343 43.1475 53.6288C43.0644 53.9729 43.2409 54.3747 43.0122 54.6616C42.9117 54.7877 42.7383 54.7568 42.6079 54.6791C42.6587 55.0386 42.7097 55.3979 42.7605 55.7574C43.472 57.1268 44.1837 58.4965 44.8954 59.866C42.9368 59.0786 41.0897 58.0704 39.4123 56.8736C40.7495 58.4683 42.0865 60.0628 43.4235 61.6576C41.9011 60.6171 40.3787 59.5762 38.8563 58.5358C39.5736 60.043 40.2912 61.5503 41.0085 63.0575C40.0999 62.3697 39.1911 61.6818 38.2825 60.9939C38.7165 61.8398 39.151 62.6857 39.5851 63.5316C38.6791 63.0676 37.773 62.6039 36.8673 62.1398C37.3072 62.9964 37.7471 63.8525 38.187 64.709C37.2313 64.2688 36.1933 63.9711 35.1288 63.832C35.4755 65.0172 35.8222 66.2023 36.1687 67.3872C34.8944 66.8628 33.6197 66.3384 32.3454 65.814C32.6957 66.9453 33.0461 68.0764 33.3964 69.2076C32.3993 68.6669 31.3334 68.2271 30.2261 67.8991C30.3562 68.2546 30.4859 68.6104 30.6159 68.9661C29.9133 68.7402 29.2105 68.5141 28.508 68.288C28.8395 68.846 29.1709 69.4041 29.5024 69.9621C28.5512 69.5285 27.6 69.0947 26.6491 68.6609C26.8951 69.1888 27.1414 69.7168 27.3875 70.2448C26.5009 70.0554 25.6143 69.8661 24.7277 69.6765C24.9258 70.2377 25.1239 70.7986 25.3219 71.3598C23.8735 71.3429 22.4256 71.3259 20.9774 71.309C20.9394 71.794 20.9015 72.2789 20.8636 72.7639C20.1788 72.829 19.494 72.8937 18.8095 72.9589C16.6327 73.4271 14.4558 73.8952 12.2792 74.3634C11.855 74.5907 11.431 74.8179 11.0068 75.0452C13.5959 74.9546 16.1914 75.016 18.7715 75.2289C18.5857 75.9974 18.2008 76.7266 17.6558 77.3443C19.5469 77.2506 21.4477 77.3132 23.3259 77.5314C22.7446 78.3704 22.1631 79.2092 21.5818 80.0482C23.5361 80.0903 25.49 80.1327 27.4441 80.1751C26.226 81.7179 25.0082 83.2606 23.7902 84.8036C25.9014 84.5643 28.0125 84.3255 30.1237 84.0862C29.7501 85.1703 29.6852 86.338 29.9367 87.4498C31.8004 86.1002 33.6646 84.7505 35.5284 83.4011C35.3301 84.424 35.4137 85.4898 35.7695 86.478C37.2535 85.0468 38.7376 83.6155 40.2216 82.1842C40.462 83.8061 41.1918 85.3683 42.3134 86.6628C42.6227 85.7758 42.9323 84.8889 43.2416 84.0021C43.3004 85.7737 43.7749 87.5337 44.6266 89.1353C45.2688 88.6498 45.9114 88.164 46.5538 87.6784C47.3678 89.1184 48.1816 90.5587 48.9956 91.9987C49.8747 90.1061 50.7537 88.2135 51.6328 86.321C52.5931 87.6373 53.5535 88.9533 54.5138 90.2695C55.6794 88.4337 57.0812 86.7175 58.6832 85.1655C59.6134 86.5622 60.543 87.959 61.4729 89.3556C61.9996 87.7116 62.5264 86.0676 63.0531 84.4234C62.6001 85.5877 64.5318 86.5548 65.7632 85.9958C66.9946 85.4365 67.5045 84.1267 67.8316 82.9295C69.1768 84.0416 70.6743 85.0071 72.2803 85.7979C72.7324 83.3831 73.1842 80.9688 73.6365 78.5545C74.6786 79.4357 75.8755 80.1709 77.1706 80.7252C77.0505 79.8632 76.9309 79.0013 76.8108 78.1391C77.6951 79.0752 78.5793 80.0112 79.4633 80.9473C79.265 79.9196 79.0672 78.8921 78.8687 77.8643C80.2579 78.237 81.6466 78.6094 83.0356 78.982C83.0194 77.9656 82.7619 76.9527 82.2855 76.0289C84.1277 76.5652 85.9697 77.1017 87.8119 77.638C87.7075 76.5673 87.4115 75.5118 86.9389 74.5233C87.9528 74.9663 89.0662 75.227 90.193 75.2857C89.7046 73.4165 89.2163 71.5474 88.728 69.6782C90.2066 69.7141 91.6801 69.913 93.1041 70.2694C92.8712 68.6492 92.4435 67.0516 91.8311 65.5124C93.0775 65.7921 94.3236 66.0718 95.5702 66.3514C94.974 64.6262 94.0954 62.979 92.9707 61.4778C94.0556 61.6494 95.1402 61.821 96.2248 61.9926C95.5326 60.6073 94.8403 59.222 94.148 57.8366C95.2928 57.9529 96.4372 58.0694 97.582 58.1859C97.2814 56.9986 96.9805 55.8116 96.6797 54.6242C97.3703 54.6939 98.0612 54.7637 98.752 54.8332C98.3491 53.2182 97.9463 51.6022 97.5434 49.9862Z" fill="#78A015" fill-opacity="0.63"/>
<path d="M40.8679 43.1234C41.3389 43.3739 41.8097 43.6244 42.2807 43.8749C40.4673 43.4096 38.6537 42.9442 36.8402 42.4787C37.146 42.615 37.4515 42.7513 37.7573 42.8875C36.1698 42.2643 34.5336 41.7395 32.8646 41.3184C33.7236 41.8482 34.6497 42.291 35.6199 42.6363C33.7393 42.1451 31.8104 41.8013 29.8626 41.6096C29.9647 41.8411 30.0668 42.0727 30.1691 42.3044C28.5088 41.3301 26.7817 40.447 25.0002 39.6613C25.2921 39.884 25.5843 40.107 25.8762 40.3299C24.7777 38.9769 23.6793 37.624 22.5811 36.2708C23.4461 36.6795 24.3943 36.9484 25.3654 37.0603C24.1873 35.7904 22.9245 34.5829 21.5864 33.446C22.1002 33.7074 22.6142 33.969 23.128 34.2303C21.7199 33.4406 20.251 32.7375 18.7347 32.1275C19.3972 32.2749 20.0598 32.422 20.7223 32.5694C19.1723 31.7682 17.6222 30.9668 16.0724 30.1656C16.8546 30.4038 17.6369 30.6422 18.4189 30.8803C16.9524 29.8505 15.4417 28.871 13.8912 27.9445C14.6294 28.1289 15.4064 28.1894 16.1689 28.1222C14.9398 26.973 13.7103 25.8237 12.481 24.6745C13.3874 24.8862 14.2936 25.0979 15.1999 25.3098C14.3355 24.3983 13.471 23.4869 12.6064 22.5754C13.4562 22.8704 14.3983 23.1679 15.2563 22.8929C16.1146 22.618 16.6041 21.4681 15.8771 20.9771C16.7604 21.0542 17.644 21.1312 18.5273 21.2082C18.3648 20.6051 18.2021 20.002 18.0396 19.3987C18.6518 19.4549 19.2745 19.4166 19.8722 19.2864C19.7156 18.9073 19.559 18.528 19.4026 18.1486C20.075 18.1726 20.7473 18.1964 21.4199 18.2207C21.3186 17.71 21.2177 17.1994 21.1163 16.689C21.7089 16.9117 22.34 17.0531 22.9801 17.1065C23.1584 16.3677 23.1186 15.5882 22.8658 14.8671C24.1073 15.3187 25.3485 15.7702 26.59 16.2218C26.7757 16.2892 26.9943 16.3554 27.1671 16.2648C27.3799 16.1529 27.3832 15.884 27.3595 15.6646C27.2835 14.9502 27.2074 14.2358 27.131 13.5214C27.9263 13.9732 28.7216 14.425 29.5168 14.8765C29.4986 13.5914 29.4801 12.3065 29.4618 11.0211C29.459 10.819 29.4634 10.5977 29.6098 10.4433C30.0394 9.98983 30.7475 10.6376 31.3164 10.9457C32.033 11.334 33.0079 11.094 33.6255 10.5888C34.2435 10.0834 34.5865 9.3719 34.9124 8.68319C35.2493 9.3767 35.6093 10.0978 36.2665 10.575C36.9236 11.0522 37.9731 11.1915 38.5921 10.6754C39.3179 11.6136 41.2822 11.2927 41.588 10.1861C41.268 10.724 42.2199 11.2794 42.829 11.0036C43.4382 10.728 43.6709 10.0719 43.8453 9.48295C44.0246 10.0082 44.2037 10.5337 44.383 11.0589C45.2729 9.88733 46.1627 8.71598 47.0524 7.54441C46.9901 8.39574 47.1554 9.25958 47.5304 10.0445C48.9875 9.01491 50.1894 7.69972 51.0266 6.21939C51.1374 6.64527 51.2476 7.07114 51.3581 7.49701C52.3913 6.86175 53.3712 6.15782 54.2873 5.39313C54.0342 6.48996 53.8511 7.59973 53.739 8.71514C54.472 8.35356 55.2048 7.99178 55.9376 7.63C55.707 8.70804 55.7795 9.8366 56.1475 10.8837C57.1315 10.1009 58.1154 9.31846 59.0994 8.5356C58.7059 9.64329 58.3994 10.7756 58.1829 11.9215C58.9739 11.6198 59.7102 11.2044 60.3547 10.6963C60.1557 11.3217 60.3226 12.0305 60.7871 12.5317C61.4379 12.185 62.0892 11.8382 62.74 11.4917C62.3762 12.3426 62.1246 13.2319 61.9918 14.1348C62.5895 14.011 63.1216 13.6542 63.4208 13.1764C61.897 16.2251 60.3729 19.2736 58.8491 22.3222C60.6899 20.1264 62.66 18.0169 64.7485 16.0051C64.0312 17.5011 63.3138 18.9972 62.5965 20.4932C63.263 20.01 63.9295 19.5271 64.5963 19.0438C63.4822 21.0926 62.3681 23.1414 61.2544 25.1902C61.6788 24.6113 62.1033 24.0326 62.5277 23.4537C61.644 25.3839 60.6394 27.2702 59.5201 29.1009C60.4421 27.8539 61.5592 26.722 62.829 25.7482C62.6344 26.7371 62.3425 27.7105 61.9579 28.6539C62.2606 28.4314 62.5633 28.2086 62.866 27.9859C62.0136 30.1207 60.9198 32.1788 59.6067 34.1189C59.6699 33.9022 59.7334 33.6855 59.7966 33.469C58.7705 34.8796 57.7446 36.2904 56.7188 37.7012C56.7909 37.3183 56.8625 36.9355 56.9343 36.5528C55.8633 38.0373 54.8613 39.6049 53.6821 41.0182C53.7126 40.6232 53.5932 40.17 53.6288 39.7725C52.5043 41.166 51.7078 42.8545 49.7018 43.3714C47.8862 43.8392 45.7549 43.295 43.9155 43.2559C44.3011 43.4338 44.674 43.6872 45.0723 43.8486C43.6831 43.5453 42.2906 43.2776 40.8679 43.1234Z" fill="#94D31A"/>
<path d="M9.67921 33.4644C9.12812 32.2357 8.4768 31.0426 7.73186 29.8982C8.65847 30.5282 9.76724 30.9434 10.9205 31.0921C10.4834 30.004 10.0461 28.9157 9.60851 27.8277C10.6292 28.68 11.7335 29.4527 12.9047 30.1336C13.0452 29.6297 12.9638 29.0798 12.6819 28.6256C14.3127 31.1228 16.6613 33.2436 19.4411 34.7285C18.5801 33.9842 17.7192 33.24 16.8581 32.4958C18.7209 35.245 20.6782 37.9432 22.7259 40.5859C22.0669 39.7949 21.4079 39.0039 20.7488 38.2129C22.2359 39.6158 23.8061 40.9485 25.4509 42.203C25.1925 41.9554 24.934 41.7078 24.6753 41.4598C25.8182 42.6276 26.9609 43.7954 28.1036 44.9632C26.3726 44.2321 24.5384 43.6962 22.658 43.372C23.4914 43.8831 24.3246 44.3941 25.1581 44.9052C23.0108 43.9027 20.9034 42.8326 18.8411 41.6978C19.5687 42.1514 20.235 42.6831 20.8212 43.2777C18.563 42.4126 16.3047 41.5477 14.0465 40.6826C14.7268 41.2059 15.4074 41.7293 16.088 42.2526C14.2205 41.4942 12.3534 40.7356 10.4857 39.9774C11.029 40.4412 11.5797 40.9005 12.1076 41.3771C10.7343 40.746 9.2496 39.8916 8.18299 38.8947C9.61528 38.8897 8.42111 37.4676 8.18676 36.8656C7.48795 35.0702 8.1851 35.9783 10.0095 35.8431C9.23719 34.7905 8.24855 33.8425 7.41699 32.8198C8.12939 33.1413 8.87973 33.3851 9.67921 33.4644Z" fill="#94D31A"/>
<path d="M63.9701 15.4164C64.9747 14.3682 65.9795 13.32 66.9843 12.2719C66.7731 13.2025 66.6045 14.1411 66.4791 15.0841C67.0014 14.6505 67.5236 14.2169 68.0459 13.7831C67.8577 14.878 67.6388 15.9684 67.3888 17.0535C67.6945 16.8231 68.0001 16.5924 68.306 16.3619C68.0595 17.7543 67.6966 19.1305 67.2218 20.4751C67.7741 20.0319 68.2297 19.4931 68.5551 18.8975C68.0298 20.2831 67.5045 21.6684 66.9791 23.054C67.4871 22.259 67.9954 21.464 68.5034 20.6691C67.1493 24.3245 65.9397 28.0225 64.8775 31.7537C65.4042 29.3928 66.521 27.1379 68.123 25.2004C66.4278 28.7024 64.7328 32.2044 63.0376 35.7066C64.6871 32.6417 66.6996 29.7324 69.0304 27.0421C68.5589 27.878 68.1639 28.7479 67.8498 29.6406C68.5472 28.3467 69.356 27.1006 70.2665 25.9167C70.2014 26.2401 70.1363 26.5636 70.0709 26.887C70.7335 26.0935 71.396 25.3 72.0583 24.5065C71.9122 24.6053 72.0674 24.837 72.2507 24.8372C72.4341 24.8374 72.5806 24.7076 72.7044 24.5869C74.2751 23.0579 75.8458 21.529 77.4164 20.0002C77.2577 20.5453 77.005 21.0686 76.67 21.5461C77.3356 20.0764 77.6692 18.4881 77.6451 16.9034C76.9058 17.608 76.1663 18.313 75.4267 19.0178C75.7062 17.9059 75.8687 16.7705 75.9104 15.6315C75.6667 15.8694 75.3825 16.0742 75.0704 16.2366C75.3951 15.2219 75.5775 14.171 75.6119 13.1163C74.9349 13.586 74.2927 14.0956 73.691 14.6407C73.6231 13.7787 73.5555 12.9165 73.4878 12.0545C72.6902 12.2911 71.9525 12.6875 71.3457 13.2061C71.3527 12.4493 71.36 11.6925 71.367 10.9358C70.7504 11.1867 70.2049 11.5758 69.7952 12.0577C69.7741 11.2143 69.7528 10.3709 69.7317 9.52748C69.7395 9.83227 68.6279 10.7193 68.4013 10.9742C68.5483 9.8853 66.5565 10.8798 66.2081 11.2817C65.2118 12.4305 64.5661 14.0768 63.9701 15.4164Z" fill="#94D31A"/>
<path d="M11.3463 69.8193C12.2202 70.1003 13.1855 70.1513 14.0908 69.9642C13.0171 69.25 11.929 68.5538 10.8265 67.8762C11.7347 68.0115 12.6723 67.9881 13.5705 67.8079C12.5978 67.1357 11.6249 66.4637 10.6522 65.7915C11.9093 66.137 13.2894 66.1161 14.5327 65.7331C13.2133 64.7613 11.6536 64.0504 9.99756 63.6672C13.516 63.5287 17.0206 63.1041 20.4534 62.4004C19.4275 62.4288 18.4016 62.4572 17.376 62.4856C20.3576 62.7849 23.4048 62.5563 26.2886 61.8171C25.7719 61.6927 25.225 61.6693 24.6975 61.7488C26.9256 61.414 29.1325 60.9691 31.3055 60.4169C30.7472 60.5359 30.2071 60.7215 29.7033 60.9672C29.5909 61.0221 29.4706 61.0906 29.4371 61.201C29.3676 61.4311 29.7028 61.5793 29.9655 61.6229C30.922 61.7816 31.8969 61.8524 32.8696 61.834C31.8524 62.2138 30.8354 62.5939 29.818 62.9736C31.0286 63.0799 32.2466 63.1189 33.4626 63.0905C30.7488 64.2546 27.961 65.2811 25.1173 66.1639C25.8419 66.2263 26.5665 66.289 27.2913 66.3512C25.5296 66.8052 23.7674 67.2593 22.0055 67.7134C22.2246 67.8522 22.4436 67.991 22.6627 68.13C21.2934 68.2889 19.9243 68.4476 18.555 68.6064C18.8921 68.9492 19.291 69.2432 19.7316 69.4738C19.2742 69.2344 17.7731 69.4978 17.2786 69.5884C18.2972 70.5139 20.6875 71.1909 17.829 71.2003C15.5933 71.2072 13.3556 70.6732 11.3463 69.8193Z" fill="#78A015"/>
<path d="M30.0133 14.2962C30.1477 14.8536 30.4909 15.3694 30.9753 15.7418C30.0028 15.674 29.0125 15.8187 28.1149 16.1596C28.6667 16.5157 29.2777 16.799 29.9218 16.9975C28.7463 16.9525 27.5638 17.0527 26.4188 17.2944C27.5163 17.8658 28.7177 18.2777 29.9622 18.5088C27.9955 18.7129 26.0288 18.9169 24.062 19.1211C25.3126 19.6914 26.7239 19.902 28.1095 20.1054C31.2429 20.5653 34.3759 21.025 37.509 21.4847C34.2935 21.6034 31.0778 21.7224 27.8625 21.8412C30.3228 22.8299 32.7831 23.8184 35.2433 24.8071C34.18 24.5345 33.1167 24.262 32.0536 23.9894C34.1463 24.9543 36.2392 25.9192 38.3319 26.8841C37.2866 26.3889 36.1547 26.0394 34.9898 25.8524C37.0097 27.2237 39.0294 28.5949 41.0488 29.9662C40.1695 29.5512 39.236 29.2276 38.2734 29.0042C40.1966 30.1424 42.1198 31.2804 44.0432 32.4185C43.3535 32.096 42.6637 31.7732 41.9742 31.4505C43.709 33.0408 45.4437 34.631 47.1785 36.2211C46.821 35.9297 46.4632 35.6382 46.1055 35.3468C47.0747 36.2082 47.948 37.1549 48.7093 38.1686C47.5125 35.2105 46.7276 32.1198 46.3787 28.9905C46.4824 29.76 46.5866 30.5294 46.6906 31.2989C46.6267 29.4583 46.5625 27.6178 46.4986 25.7772C46.4085 26.3573 46.3184 26.9377 46.2287 27.5179C45.9908 26.2091 45.7532 24.9004 45.5153 23.5917C44.858 24.9603 44.3781 26.3968 44.0878 27.8631C43.9288 25.4897 43.8916 23.1097 43.9756 20.7331C43.5715 22.4612 43.0471 24.167 42.4064 25.8373C42.3956 22.7781 42.8697 19.7179 43.8108 16.7758C43.0232 18.4069 42.2357 20.0384 41.4481 21.6694C42.3211 18.8257 42.8594 15.9003 43.0514 12.957C42.0526 14.4899 41.0541 16.0231 40.0557 17.5562C40.4618 15.8055 40.8685 14.0549 41.2749 12.3042C40.1816 13.6605 39.207 15.0926 38.3628 16.5838C38.3635 15.2682 38.3642 13.9526 38.3649 12.6371C38.132 13.6006 37.899 14.5642 37.6661 15.5277C37.4921 14.4241 36.8386 13.3862 35.8719 12.6795C35.6507 13.206 35.5678 13.7784 35.6327 14.3377C34.8278 13.6974 34.0232 13.057 33.2185 12.4167C33.3918 12.7683 33.5652 13.1196 33.7389 13.4709C32.5501 13.0342 31.3662 12.5626 30.1591 12.1737C30.9352 12.7777 31.5329 13.4726 32.0873 14.2544C31.4009 14.1751 30.6969 14.1565 30.0133 14.2962Z" fill="#B2ED20"/>
<path d="M46.0684 12.0059C46.1054 12.3551 46.1424 12.7046 46.1798 13.054C46.6185 12.5495 47.057 12.0451 47.4958 11.5405C47.5225 11.9994 47.5494 12.4582 47.5763 12.9169C47.9429 12.1368 48.5427 11.4447 49.2965 10.9312C49.4665 11.3098 49.4862 11.7403 49.3511 12.1301C49.8123 11.6827 50.273 11.2357 50.7342 10.7886C50.4921 13.1739 48.6528 15.2552 48.4266 17.6418C49.4911 15.7377 50.5556 13.8334 51.6201 11.9292C50.3041 15.3435 48.9816 18.7804 48.3725 22.3496C48.4376 21.0832 48.5026 19.8167 48.5675 18.5503C48.1737 19.5634 47.78 20.5766 47.386 21.5897C47.1434 20.153 47.0435 18.6973 47.0877 17.2449C46.8834 17.666 46.6787 18.0869 46.4743 18.5077C46.4095 17.1867 46.3444 15.8654 46.2796 14.5444C46.137 14.8292 45.9942 15.1137 45.8516 15.3982C45.7048 14.4905 45.668 13.5799 45.6435 12.6658C43.7711 15.7087 42.8829 12.4864 44.7614 11.3124C45.0236 11.8144 44.9782 12.4574 45.0201 13.0246C45.201 12.872 46.0916 12.2242 46.0684 12.0059Z" fill="#B2ED20"/>
<path d="M19.5621 20.7883C20.5053 20.8797 21.449 20.9711 22.3922 21.0626C21.5539 21.5068 20.6537 21.8588 19.7194 22.108C20.2597 22.0542 20.8197 22.1811 21.2655 22.4584C20.3436 22.7151 19.4219 22.9719 18.5002 23.2287C18.9298 23.4842 19.3593 23.7397 19.7889 23.9953C18.9478 24.1249 18.12 24.3232 17.3193 24.5869C18.1771 25.0015 19.1899 25.1558 20.1532 25.0186C19.2147 25.1689 18.2761 25.319 17.3378 25.4695C17.7583 25.7549 18.3267 25.7731 18.8546 25.7818C21.3799 25.823 23.9942 25.9313 26.2529 26.9394C25.4373 26.5751 24.6217 26.211 23.8063 25.8467C25.1674 25.9783 26.5369 26.0434 27.9062 26.0415C26.8237 25.5058 25.6826 25.0645 24.5044 24.7259C25.0084 24.6892 25.5127 24.6524 26.0167 24.6157C25.6412 24.2932 25.1894 24.0418 24.6992 23.8836C25.548 23.8838 26.3969 23.8842 27.2458 23.8844C25.8772 23.6335 24.5119 23.3688 23.1503 23.0903C23.3982 23.0949 23.2943 22.7335 23.1089 22.5863C22.7907 22.3339 22.4505 22.0734 22.3066 21.716C22.1628 21.3586 22.3091 20.8766 22.7165 20.7655C22.9712 20.696 23.1798 20.6828 23.3973 20.5405C22.6018 18.8361 20.7062 20.8991 19.5621 20.7883Z" fill="#B2ED20"/>
</svg>
