<svg width="159" height="148" viewBox="0 0 159 148" fill="none" xmlns="http://www.w3.org/2000/svg">
<path d="M0.00498924 84.1503C0.109729 87.7093 2.33824 91.4785 5.94105 92.2259C5.17924 95.1433 4.41563 98.2053 5.17055 101.124C5.92547 104.044 8.74656 106.701 11.825 106.25C9.9266 111.565 13.4841 118.075 19.0969 119.557C19.5735 122.146 20.1153 124.871 21.893 126.861C23.6706 128.851 27.1259 129.694 29.1182 127.903C29.8836 132.241 34.9995 135.34 39.3732 134.116C40.2651 136.126 41.2335 138.233 43.051 139.536C44.8689 140.84 47.8118 140.949 49.14 139.178C49.052 142.046 51.8633 144.677 54.8268 144.501C55.9387 144.435 57.0325 144.035 58.1393 144.156C61.6838 144.544 64.1895 147.399 67.7144 147.93C71.9152 148.563 72.5114 144.722 76.5528 143.445C79.5119 142.51 82.5218 144.459 85.5429 145.186C88.5641 145.912 92.9077 143.752 91.6501 141C94.6755 142.446 97.9014 143.931 101.262 143.628C104.623 143.326 107.972 140.453 107.374 137.243C110.25 140.121 116.4 137.144 115.737 133.194C118.341 135.078 122.171 135.199 124.896 133.482C127.621 131.765 129.052 128.329 128.318 125.266C131.12 127.231 135.596 126.32 137.34 123.43C139.085 120.54 137.701 116.327 134.551 114.938C137.299 116.117 140.87 115.032 142.425 112.546C143.98 110.06 143.314 106.5 140.957 104.697C143.12 104.38 145.371 103.463 146.427 101.611C147.482 99.7578 146.649 96.9084 144.507 96.478C151.108 95.3065 154.726 86.5746 150.786 81.3237C154.152 82.1463 157.988 79.927 158.827 76.6716C159.666 73.4166 157.355 69.7175 153.984 68.9183C156.968 67.2953 158.619 63.668 157.84 60.4459C157.06 57.2239 153.916 54.6795 150.497 54.5029C152.339 50.6918 148.515 45.6026 144.194 46.1157C146.419 44.5604 147.201 41.3614 145.932 39.0082C144.664 36.6554 141.503 35.4412 138.909 36.3108C142.689 32.101 138.747 24.1912 132.984 24.4234C134.183 22.0044 132.404 18.9984 129.922 17.7978C127.44 16.5972 124.523 16.7138 121.752 16.8578C121.272 14.0363 120.69 11.016 118.59 9.00254C116.49 6.98909 112.326 6.80556 110.98 9.35171C109.107 3.4567 100.923 0.428986 95.4547 3.60764C93.2672 -1.22303 84.6807 -1.19572 82.5261 3.64897C77.0239 -1.73962 66.4691 -0.851441 62.0132 5.37489C58.02 0.936817 49.0063 3.18632 47.7364 8.93774C42.0641 5.50587 33.3436 9.21548 32.132 15.5759C27.4536 13.1303 20.7292 16.7397 20.406 21.8706C15.2067 23.7233 12.0605 29.7727 13.624 34.9099C11.1983 36.0758 10.0527 40.2862 9.73232 43.7881C9.62468 44.9635 8.881 46.0075 7.78033 46.5181C5.83523 47.4203 3.17725 49.5388 2.72966 54.6259C2.44951 57.8091 4.29458 61.7645 4.24022 62.3557C4.18187 62.9875 -3.09442 66.6394 2.67096 74.1713C1.40104 77.3447 -0.0975755 80.6565 0.00498924 84.1503Z" fill="#7EBB15"/>
<path d="M100.843 28.5555C99.5705 28.1058 98.1071 28.0113 96.7976 28.3233C97.1978 28.6799 97.5917 29.0392 97.9835 29.3905C104.526 27.7227 105.097 33.2247 105.506 33.4244C105.889 33.6114 109.019 33.4759 111.083 34.4737C114.38 36.0679 115.116 38.2803 115.219 39.732C115.277 40.5536 115.786 41.2891 116.547 41.66C118.814 42.7649 121.343 44.57 121.499 46.3908C125.35 46.7375 128.597 50.271 128.498 54.0068C131.857 55.5342 132.543 60.6797 129.694 62.9797C133.649 65.3808 133.886 71.8029 130.119 74.4709C133.65 76.752 132.832 82.9808 128.823 84.3368C131.851 88.7364 129.721 95.5795 124.685 97.636C127.379 100.237 125.181 105.624 121.375 105.748C122.096 109.995 117.951 114.341 113.512 113.993C114.873 115.494 113.675 118.055 111.781 118.851C109.888 119.647 107.711 119.232 105.694 118.804C105.075 120.578 104.4 122.436 102.954 123.681C101.508 124.926 99.0312 125.265 97.7175 123.889C96.3852 127.56 90.0599 127.988 88.2112 124.532C88.125 126.382 86.4944 128.049 84.5877 128.237C82.6814 128.424 80.737 127.108 80.2673 125.313C79.4961 128.152 75.0941 129.234 73.0124 127.096C72.6355 127.885 72.0444 128.562 71.3271 129.083C71.6946 131.324 73.6713 133.236 75.9958 133.574C78.3592 133.918 80.878 132.605 81.879 130.508C83.9607 132.646 88.3631 131.564 89.1343 128.725C89.6036 130.519 91.5484 131.836 93.4547 131.649C95.361 131.462 96.9919 129.795 97.0778 127.945C98.9265 131.4 105.252 130.972 106.584 127.301C107.898 128.677 110.374 128.338 111.821 127.093C113.267 125.848 113.942 123.991 114.561 122.217C116.578 122.645 118.755 123.06 120.648 122.264C122.541 121.467 123.74 118.906 122.379 117.405C126.818 117.753 130.963 113.407 130.241 109.16C134.047 109.037 136.246 103.649 133.552 101.048C138.588 98.9917 140.717 92.1486 137.69 87.7491C141.699 86.3927 142.517 80.1639 138.986 77.8832C142.753 75.2152 142.515 68.7931 138.561 66.3919C141.41 64.092 140.724 58.9464 137.365 57.4191C137.464 53.6832 134.217 50.1498 130.366 49.8031C130.211 47.9819 127.681 46.1772 125.414 45.0719C124.653 44.701 124.145 43.9655 124.086 43.1439C123.983 41.6922 123.248 39.4798 119.95 37.8856C117.887 36.8878 114.756 37.0233 114.374 36.8363C113.965 36.6367 113.393 31.1346 106.851 32.8024C105.048 31.1871 103.214 29.3933 100.843 28.5555Z" fill="#78A015"/>
<path d="M95.5236 55.788C94.7473 54.9188 93.6955 54.2218 92.605 53.8828C92.7685 54.3108 92.9257 54.7377 93.0848 55.1583C98.574 56.7746 96.9301 60.9668 97.1592 61.2859C97.373 61.5843 99.7505 62.8332 100.909 64.4362C102.76 66.9974 102.475 68.9005 102.006 69.9859C101.74 70.6002 101.842 71.3465 102.268 71.9394C103.537 73.7067 104.738 76.0886 104.169 77.4622C106.901 79.366 107.985 83.2966 106.507 85.9334C108.429 88.4729 107.004 92.4589 104.022 92.8837C106.058 96.3065 103.82 101.015 100.018 101.309C101.784 104.463 98.8346 108.579 95.3452 107.829C95.9407 112.286 91.7856 116.279 87.2694 115.589C88.294 118.613 84.6343 121.532 81.7596 119.984C80.6984 123.34 75.9844 124.676 72.8161 122.518C73.2634 124.179 71.41 125.501 69.7033 125.259C67.9967 125.016 66.5351 123.782 65.1974 122.608C64.0702 123.614 62.8706 124.657 61.3275 124.928C59.7846 125.199 57.8167 124.378 57.3579 122.826C54.9876 124.886 50.1258 122.474 50.0511 119.201C49.2915 120.491 47.4529 120.985 45.9659 120.3C44.4789 119.615 43.5287 117.835 43.8545 116.346C42.2138 118.051 38.5352 116.934 37.7923 114.506C37.2157 114.91 36.5213 115.142 35.7928 115.207C35.2235 116.972 35.9733 119.194 37.5737 120.435C39.201 121.698 41.5665 121.839 43.0988 120.765C43.8418 123.194 47.5204 124.31 49.161 122.605C48.8352 124.094 49.7851 125.874 51.2725 126.56C52.7595 127.245 54.5984 126.75 55.358 125.46C55.4327 128.734 60.2946 131.146 62.6648 129.086C63.1236 130.637 65.0912 131.459 66.6344 131.187C68.1772 130.916 69.3772 129.874 70.5043 128.867C71.8423 130.041 73.304 131.275 75.0106 131.518C76.7173 131.761 78.5707 130.438 78.1234 128.777C81.2917 130.935 86.0061 129.6 87.0669 126.243C89.9419 127.791 93.6013 124.872 92.5767 121.848C97.0928 122.538 101.248 118.545 100.652 114.088C104.142 114.839 107.091 110.723 105.324 107.569C109.127 107.275 111.365 102.566 109.329 99.1433C112.311 98.7185 113.736 94.7329 111.814 92.193C113.292 89.5558 112.208 85.6259 109.476 83.7214C110.045 82.3482 108.844 79.9663 107.575 78.199C107.149 77.6061 107.047 76.8598 107.313 76.2451C107.782 75.1594 108.067 73.2566 106.216 70.6954C105.057 69.0928 102.68 67.8439 102.466 67.5455C102.237 67.2264 103.881 63.0342 98.3921 61.4179C97.6597 59.4836 96.9703 57.4082 95.5236 55.788Z" fill="#78A015"/>
<path d="M75.6681 101.867C75.1169 101.967 74.6363 102.367 74.4087 102.911C73.7745 104.427 72.7365 106.144 71.6068 106.558C71.4601 106.612 71.3622 106.74 71.347 106.891C71.0984 109.353 69.0144 111.597 66.6747 111.917C66.5311 111.937 66.4112 112.025 66.3514 112.153C65.3747 114.241 62.4402 115.024 60.769 113.716C60.5878 113.574 60.3193 113.629 60.1928 113.818C58.6101 116.183 54.9826 116.725 53.0535 114.9C52.8741 114.731 52.5903 114.754 52.4413 114.948C50.9036 116.956 47.4465 116.866 46.2371 114.782C46.1215 114.582 45.8594 114.515 45.6674 114.649C42.9267 116.56 38.8767 115.753 37.2172 112.985C37.0922 112.777 36.8029 112.715 36.6152 112.874C34.9289 114.302 31.9574 113.384 31.4736 111.252C31.4264 111.044 31.226 110.906 31.0093 110.944C28.5093 111.376 25.9735 109.365 25.6672 106.778C25.6361 106.514 25.3483 106.374 25.0971 106.483C24.1146 106.908 22.8117 106.3 22.3199 105.274C21.7781 104.144 21.9166 102.778 22.121 101.475C22.1518 101.278 22.0235 101.09 21.8234 101.041C20.7227 100.766 19.6108 100.424 18.8164 99.6159C18.0376 98.824 17.7139 97.4301 18.2677 96.4313C18.3717 96.2435 18.2949 96.0057 18.0963 95.9133C16.1932 95.0262 15.7645 91.8366 17.2297 90.1612C17.416 89.9482 17.2972 89.6306 17.0221 89.5472C16.1088 89.2709 15.3647 88.4482 15.2238 87.4455C15.0795 86.4183 15.5815 85.3046 16.4002 84.6696C16.6216 84.498 16.5937 84.1744 16.3505 84.0325C15.0618 83.2813 14.5511 81.2248 15.3981 79.8393C15.5155 79.6473 15.4528 79.4074 15.252 79.2978C14.9512 79.1332 14.678 78.9192 14.4395 78.6674C14.3253 78.5473 14.1423 78.5154 13.985 78.5746C12.6208 79.0873 11.5358 80.4826 11.3854 81.9844C11.2379 83.4575 12.0007 84.9186 13.2076 85.5798C13.4091 85.6902 13.4736 85.9297 13.3558 86.1223C12.5089 87.5078 13.0195 89.5647 14.3083 90.316C14.5515 90.4574 14.5797 90.7811 14.3579 90.9527C13.5396 91.5876 13.0373 92.7014 13.1819 93.7282C13.3229 94.7313 14.0669 95.5539 14.9802 95.8303C15.2553 95.9136 15.3742 96.2313 15.1879 96.4442C13.7226 98.1197 14.1514 101.309 16.0544 102.196C16.2527 102.289 16.3298 102.527 16.2258 102.714C15.6721 103.713 15.9957 105.107 16.7745 105.899C17.569 106.707 18.6812 107.049 19.7815 107.324C19.9816 107.373 20.1099 107.561 20.0791 107.758C19.8747 109.061 19.7366 110.427 20.2781 111.557C20.7699 112.583 22.0728 113.191 23.0553 112.766C23.3064 112.657 23.5942 112.797 23.6254 113.061C23.9316 115.649 26.4678 117.659 28.9674 117.227C29.1842 117.19 29.3842 117.327 29.4317 117.535C29.9155 119.668 32.887 120.585 34.5733 119.157C34.7611 118.998 35.0503 119.06 35.1753 119.268C36.8352 122.037 40.8852 122.843 43.6255 120.932C43.8176 120.798 44.0796 120.866 44.1956 121.065C45.405 123.149 48.8617 123.239 50.3998 121.232C50.5492 121.037 50.8329 121.014 51.0123 121.183C52.9411 123.008 56.5686 122.466 58.1516 120.101C58.2785 119.912 58.5467 119.857 58.7279 119.999C60.399 121.307 63.3335 120.524 64.3102 118.436C64.3697 118.308 64.4896 118.22 64.6335 118.2C66.9733 117.88 69.0572 115.636 69.3058 113.174C69.3211 113.023 69.4193 112.895 69.5661 112.841C70.6954 112.427 71.7337 110.71 72.3675 109.194C72.5951 108.649 73.0757 108.25 73.6273 108.151C74.6015 107.975 76.0693 107.314 77.0478 104.953C77.66 103.476 77.4791 101.355 77.594 101.081C77.7136 100.793 76.6423 101.692 75.6681 101.867Z" fill="#78A015"/>
<path d="M87.2851 86.6354C86.728 86.5713 86.1463 86.8147 85.7607 87.269C84.688 88.534 83.1676 89.8733 81.9618 89.9437C81.8049 89.9528 81.6719 90.0466 81.6107 90.1867C80.614 92.4653 77.9328 94.0073 75.6007 93.6389C75.4575 93.6161 75.3158 93.6655 75.2198 93.7706C73.6436 95.4828 70.6004 95.3855 69.4091 93.6554C69.2797 93.4676 69.0068 93.4431 68.827 93.5871C66.5869 95.3883 62.9573 94.8615 61.6787 92.564C61.5598 92.3508 61.2818 92.2909 61.0792 92.4338C58.9924 93.9072 55.7201 92.8257 55.2084 90.4883C55.1595 90.2645 54.93 90.124 54.7057 90.1965C51.5005 91.2318 47.8828 89.2957 47.1522 86.1749C47.0971 85.9399 46.8401 85.798 46.6118 85.8957C44.5619 86.773 42.008 85.0419 42.204 82.8666C42.2229 82.6547 42.0743 82.4656 41.8558 82.439C39.3362 82.1315 37.5357 79.482 38.0409 76.924C38.0927 76.6631 37.8608 76.4466 37.5879 76.4781C36.5188 76.6007 35.4627 75.6453 35.3094 74.5242C35.1408 73.29 35.6939 72.0254 36.2908 70.8409C36.381 70.6612 36.3165 70.4455 36.1408 70.3404C35.1749 69.7615 34.2188 69.1143 33.7096 68.1147C33.2102 67.1344 33.3313 65.7108 34.1681 64.9168C34.3254 64.7676 34.325 64.5182 34.1641 64.3729C32.6209 62.9783 33.1954 59.8101 35.1108 58.6327C35.354 58.4831 35.3387 58.1455 35.1017 57.9869C34.3149 57.4601 33.8586 56.4606 34.0333 55.4624C34.212 54.4401 35.035 53.5218 36.0117 53.1516C36.2759 53.0515 36.3492 52.7345 36.1607 52.5293C35.1619 51.4411 35.3087 49.331 36.5445 48.2523C36.7159 48.1028 36.7297 47.8559 36.572 47.6934C36.3357 47.4496 36.1411 47.1666 35.9911 46.8577C35.9193 46.7103 35.7544 46.6273 35.5859 46.6385C34.1257 46.7351 32.6594 47.7543 32.053 49.1447C31.4579 50.5085 31.7356 52.123 32.6836 53.1015C32.842 53.2648 32.8297 53.5124 32.6579 53.6623C31.4224 54.741 31.2753 56.8511 32.2741 57.9396C32.4626 58.1448 32.3894 58.4618 32.1251 58.5619C31.1481 58.9321 30.3254 59.8508 30.1467 60.8727C29.9724 61.8709 30.4287 62.8704 31.2151 63.3972C31.4521 63.5558 31.4674 63.8934 31.2242 64.043C29.3088 65.2204 28.7343 68.3886 30.2772 69.7836C30.4381 69.9289 30.4381 70.1779 30.2811 70.3271C29.4443 71.1211 29.3233 72.5447 29.8231 73.525C30.3323 74.5246 31.2883 75.1721 32.2542 75.7507C32.4299 75.8558 32.4948 76.0719 32.4042 76.2512C31.8073 77.4357 31.2543 78.7003 31.4228 79.9345C31.5757 81.0556 32.6322 82.011 33.701 81.8884C33.9742 81.8569 34.2058 82.0734 34.1543 82.3343C33.6488 84.8923 35.4496 87.5418 37.9692 87.8493C38.1877 87.8759 38.3363 88.065 38.3171 88.2769C38.1214 90.4518 40.675 92.1833 42.7252 91.306C42.9532 91.2083 43.2101 91.3502 43.2656 91.5852C43.9962 94.706 47.6135 96.6417 50.8188 95.6068C51.0435 95.5343 51.2725 95.6744 51.3218 95.8982C51.8339 98.2356 55.1058 99.3168 57.1926 97.8437C57.3952 97.7008 57.6732 97.7604 57.7921 97.974C59.0707 100.271 62.7007 100.799 64.9408 98.997C65.1202 98.8527 65.3931 98.8776 65.5225 99.0653C66.7141 100.795 69.757 100.893 71.3332 99.1805C71.4296 99.0758 71.5709 99.0264 71.7141 99.0488C74.0462 99.4169 76.7274 97.8752 77.7241 95.5967C77.7853 95.4569 77.9183 95.3627 78.0753 95.3536C79.281 95.2836 80.8014 93.9439 81.8741 92.6793C82.2598 92.2247 82.8415 91.9816 83.3985 92.0454C84.3825 92.1581 85.9876 91.9498 87.6493 89.9783C88.6891 88.7441 88.2691 86.7482 87.2851 86.6354Z" fill="#78A015"/>
<path d="M21.5405 71.327C21.7917 70.8426 21.7529 70.2311 21.4416 69.7265C20.516 68.2257 19.6806 66.2323 20.2152 65.1462C20.2174 65.1416 20.2163 65.1371 20.2123 65.1339C18.1124 63.4399 17.4626 60.1992 18.809 58.1399C18.8115 58.1361 18.8115 58.1308 18.809 58.1266C17.4061 55.965 18.7854 52.8214 21.2191 52.626C21.2267 52.6252 21.2314 52.6179 21.2278 52.6109C19.7882 49.7264 21.8718 46.041 24.9661 46.0011C24.9712 46.0011 24.9738 45.9965 24.9719 45.9923C23.7307 43.3369 26.3625 40.1628 29.1488 40.9609C28.9245 37.3151 32.519 34.3024 36.1399 35.0947C36.1479 35.0964 36.1551 35.0897 36.1529 35.0817C35.5169 32.5842 38.6319 30.43 40.8698 31.8183C40.8793 31.8239 40.8901 31.8207 40.8941 31.8109C41.9596 29.1618 45.8426 28.3395 48.285 30.2482C48.2893 30.2514 48.2947 30.2479 48.2936 30.243C48.0407 28.8771 49.6161 27.9118 50.9832 28.2008C52.3513 28.4901 53.4647 29.5667 54.4809 30.5904C54.4849 30.5946 54.4914 30.5949 54.4961 30.5914C55.4674 29.8377 56.4999 29.0602 57.7651 28.9244C59.0285 28.7885 60.571 29.5555 60.8624 30.8306C60.8642 30.838 60.8729 30.8411 60.8794 30.8366C62.918 29.3191 66.6835 31.5111 66.5897 34.1515C66.5893 34.1627 66.6024 34.1669 66.6089 34.1578C67.3098 33.1754 68.8131 32.8858 69.9692 33.5165C71.1261 34.148 71.7929 35.6235 71.4631 36.8097C71.4602 36.8202 71.4715 36.8265 71.4794 36.8192C72.9186 35.5611 75.8042 36.6626 76.2677 38.6593C76.2685 38.6621 76.2717 38.6635 76.2743 38.6621C76.7592 38.3707 77.3275 38.2211 77.9139 38.205C77.9254 38.2047 77.9359 38.1977 77.9399 38.1875C78.4941 36.7873 78.0135 34.9532 76.7911 33.8622C75.5443 32.7499 73.6348 32.5061 72.3279 33.292C72.3261 33.2931 72.3235 33.292 72.3228 33.2899C71.8604 31.2922 68.9737 30.1901 67.5341 31.4484C67.5258 31.4554 67.5146 31.4491 67.5178 31.439C67.8476 30.2524 67.1812 28.7769 66.0239 28.1454C64.8678 27.5147 63.3645 27.8043 62.6632 28.7867C62.6567 28.7958 62.6437 28.792 62.644 28.7804C62.7379 26.1401 58.972 23.9483 56.9337 25.4659C56.9272 25.4708 56.9185 25.4676 56.9167 25.4599C56.6249 24.1847 55.0828 23.4177 53.8191 23.5536C52.5539 23.6899 51.5214 24.467 50.5501 25.2207C50.5454 25.2242 50.5388 25.2239 50.5349 25.22C49.5186 24.1963 48.4056 23.1193 47.0371 22.8304C45.6705 22.5415 44.0947 23.5067 44.3476 24.8729C44.3487 24.8782 44.3433 24.8813 44.3389 24.8782C41.8969 22.9695 38.0136 23.7918 36.9481 26.4409C36.9441 26.4507 36.9332 26.4542 36.9242 26.4483C34.6859 25.06 31.5709 27.2142 32.2073 29.7117C32.2091 29.7197 32.2022 29.7264 32.1942 29.7246C28.5733 28.9324 24.9792 31.9451 25.2031 35.5909C22.4169 34.7928 19.785 37.9672 21.0263 40.6223C21.0281 40.6265 21.0252 40.631 21.0205 40.631C17.9258 40.671 15.8426 44.3564 17.2821 47.2412C17.2854 47.2479 17.281 47.2552 17.2734 47.2559C14.8394 47.4513 13.46 50.595 14.863 52.7566C14.8655 52.7604 14.8655 52.7657 14.863 52.7699C13.5162 54.8289 14.1664 58.0695 16.2662 59.7636C16.2702 59.7667 16.2713 59.7716 16.2692 59.7758C15.7346 60.8615 16.57 62.8554 17.4956 64.3561C17.8069 64.8608 17.846 65.4723 17.5945 65.9566C17.1502 66.8126 16.8081 68.3424 18.1624 70.5225C19.0109 71.8867 21.0962 72.1833 21.5405 71.327Z" fill="#94D31A"/>
<path d="M60.5913 60.8676C60.8835 60.6298 61.0291 60.2375 60.9748 59.8414C60.8128 58.6643 60.8443 57.2021 61.4811 56.6614C61.4836 56.6593 61.4844 56.6557 61.4829 56.6529C60.6388 55.0514 61.1335 52.8579 62.5502 51.9186C62.5528 51.9168 62.5542 51.9137 62.5538 51.9105C62.2766 50.1969 64.0155 48.5883 65.5942 49.0954C65.5993 49.0972 65.604 49.0937 65.604 49.0884C65.505 46.9135 67.8354 45.1483 69.7848 45.9231C69.7877 45.9241 69.791 45.922 69.791 45.9192C69.7522 43.9387 72.2841 42.6351 73.8073 43.8539C74.6815 41.5172 77.7711 40.5635 79.8184 41.9942C79.8231 41.9974 79.8293 41.9949 79.83 41.9893C80.1265 40.2641 82.6768 39.7226 83.6927 41.1687C83.697 41.1747 83.7047 41.1754 83.7097 41.1705C85.1145 39.7899 87.775 40.2799 88.7738 42.1042C88.7756 42.1073 88.78 42.1066 88.7807 42.1031C89.0021 41.1841 90.2579 40.9877 91.0335 41.5218C91.8102 42.0562 92.2078 43.0169 92.5593 43.9194C92.5608 43.9229 92.5647 43.925 92.5687 43.924C93.3867 43.7037 94.25 43.4848 95.0803 43.7268C95.9095 43.9684 96.6619 44.8465 96.4901 45.7189C96.489 45.7241 96.4937 45.7283 96.4988 45.7269C98.1978 45.3053 99.9465 47.6486 99.1532 49.2747C99.1499 49.2817 99.1568 49.2877 99.1633 49.2835C99.8758 48.8506 100.898 49.0579 101.447 49.751C101.996 50.4448 102.002 51.5396 101.466 52.1956C101.461 52.2016 101.466 52.2082 101.473 52.2058C102.725 51.7914 104.226 53.226 103.96 54.5936C103.96 54.5954 103.961 54.5971 103.964 54.5968C104.349 54.54 104.746 54.5936 105.118 54.7351C105.125 54.7379 105.133 54.7362 105.139 54.7309C105.876 53.9989 106.085 52.7283 105.623 51.7305C105.152 50.7131 104.023 50.0669 102.986 50.2207C102.985 50.2207 102.984 50.2196 102.984 50.2182C103.25 48.8502 101.749 47.415 100.497 47.8293C100.49 47.8318 100.484 47.8248 100.489 47.8192C101.026 47.1629 101.019 46.0684 100.47 45.3746C99.9215 44.6815 98.8995 44.4742 98.1869 44.907C98.1801 44.9109 98.1732 44.9053 98.1768 44.8983C98.9705 43.2722 97.2215 40.9288 95.5224 41.3505C95.517 41.3519 95.5123 41.3477 95.5134 41.3424C95.6855 40.47 94.9328 39.592 94.1039 39.3503C93.2736 39.1083 92.4107 39.3272 91.5924 39.5475C91.5884 39.5486 91.5844 39.5465 91.5829 39.543C91.2314 38.6404 90.8338 37.6798 90.0571 37.1453C89.2816 36.6116 88.0261 36.8077 87.8043 37.7267C87.8036 37.7302 87.7989 37.7309 87.7975 37.7277C86.799 35.9038 84.1381 35.4138 82.7334 36.7944C82.7283 36.7996 82.7203 36.7989 82.7163 36.793C81.7005 35.3469 79.1501 35.888 78.8537 37.6136C78.853 37.6192 78.8468 37.6216 78.8421 37.6185C76.7944 36.1874 73.7048 37.1415 72.831 39.4782C71.3077 38.259 68.7762 39.5629 68.8146 41.5435C68.8146 41.5466 68.8117 41.5487 68.8085 41.5477C66.859 40.773 64.5287 42.5378 64.6276 44.713C64.6276 44.7183 64.6229 44.7218 64.6178 44.72C63.0391 44.2129 61.3002 45.8215 61.5775 47.5351C61.5778 47.5383 61.5764 47.5415 61.5739 47.5432C60.1572 48.4822 59.6628 50.6756 60.5065 52.2776C60.508 52.2804 60.5073 52.2839 60.5051 52.286C59.8683 52.8267 59.8364 54.2886 59.9988 55.466C60.0535 55.8618 59.9078 56.254 59.6153 56.4922C59.0989 56.9125 58.4589 57.78 58.7006 59.4926C58.8514 60.5636 60.0749 61.2878 60.5913 60.8676Z" fill="#94D31A"/>
<path d="M60.6008 84.2781C60.6309 83.9755 60.4646 83.6182 60.1659 83.3423C59.2791 82.5224 58.3277 81.4062 58.3788 80.7299C58.3788 80.7271 58.377 80.7243 58.3741 80.7229C56.7657 79.8701 55.6266 78.0069 55.9158 76.7013C55.9162 76.6988 55.9151 76.6957 55.9126 76.6936C54.5948 75.5175 54.6466 73.5713 56.0017 73.2887C56.0061 73.288 56.0068 73.2831 56.0032 73.2792C54.4937 71.6801 54.8231 69.3665 56.5946 69.1297C56.5975 69.1294 56.5979 69.1266 56.5957 69.1241C55.2544 67.6462 56.0202 65.5959 57.8124 65.8737C56.823 63.7425 58.1802 61.721 60.4511 61.9378C60.4562 61.9382 60.4588 61.934 60.4555 61.9294C59.4998 60.5026 60.7842 59.0197 62.4002 59.6831C62.4068 59.6859 62.4126 59.6831 62.4122 59.6771C62.4002 58.0436 64.441 57.2921 66.297 58.2475C66.2999 58.2489 66.3024 58.2468 66.3006 58.2436C65.8324 57.4567 66.5115 56.78 67.3665 56.8557C68.2221 56.9317 69.117 57.4889 69.9433 58.0219C69.9465 58.024 69.9505 58.0237 69.9523 58.0216C70.3332 57.511 70.7442 56.9821 71.4404 56.8147C72.1356 56.6476 73.2043 56.993 73.6733 57.7239C73.6762 57.7284 73.682 57.7295 73.6845 57.7263C74.4992 56.6921 77.1844 57.7235 77.7534 59.2845C77.7556 59.2912 77.7643 59.2926 77.7658 59.2866C77.9375 58.6597 78.7341 58.3858 79.5485 58.6776C80.3636 58.9696 81.0957 59.7927 81.1855 60.5138C81.1863 60.5201 81.1942 60.5229 81.1975 60.518C81.7288 59.6782 83.6496 60.1278 84.3875 61.2717C84.3886 61.2734 84.3908 61.2738 84.3919 61.2727C84.6024 61.0679 84.8942 60.9404 85.228 60.8906C85.2345 60.8896 85.2388 60.8847 85.2388 60.8784C85.2272 60.0158 84.5176 58.9689 83.5568 58.411C82.5769 57.8419 81.42 57.83 80.8536 58.3827C80.8525 58.3834 80.851 58.383 80.8503 58.3816C80.1128 57.2374 78.1912 56.787 77.6596 57.6272C77.6567 57.6321 77.6487 57.629 77.648 57.6227C77.5577 56.9016 76.826 56.0785 76.0109 55.7864C75.1965 55.4947 74.3996 55.7689 74.2282 56.3955C74.2267 56.4014 74.218 56.4 74.2155 56.3934C73.6465 54.8324 70.9617 53.801 70.1466 54.8352C70.1441 54.8384 70.1383 54.8373 70.1354 54.8328C69.6668 54.1022 68.598 53.7565 67.9028 53.9239C67.207 54.0913 66.796 54.6198 66.4151 55.1308C66.4133 55.1333 66.4093 55.1336 66.406 55.1312C65.5794 54.5985 64.6846 54.0413 63.8289 53.9653C62.9743 53.8893 62.2951 54.5662 62.763 55.3532C62.7648 55.356 62.7627 55.3585 62.7594 55.3567C60.9034 54.4009 58.8623 55.1529 58.8746 56.7863C58.8746 56.7923 58.8692 56.7951 58.8623 56.7923C57.2466 56.1293 55.9622 57.6122 56.9179 59.039C56.9208 59.0435 56.9186 59.0481 56.9136 59.0474C54.6426 58.8306 53.285 60.8521 54.2744 62.9832C52.4822 62.7052 51.7168 64.7557 53.0578 66.2337C53.0599 66.2362 53.0592 66.2389 53.0567 66.2393C51.2852 66.4761 50.9561 68.7896 52.4652 70.3888C52.4689 70.3926 52.4678 70.3972 52.4638 70.3982C51.109 70.6809 51.0572 72.6271 52.375 73.8031C52.3775 73.8052 52.3786 73.8084 52.3782 73.8108C52.089 75.1161 53.2281 76.9794 54.8365 77.8322C54.8394 77.8336 54.8413 77.8367 54.8409 77.8392C54.7894 78.5154 55.7408 79.632 56.628 80.4518C56.9262 80.7275 57.093 81.0851 57.0629 81.3873C57.0096 81.9217 57.1734 82.846 58.4673 84.0368C59.2769 84.782 60.5472 84.8129 60.6008 84.2781Z" fill="#94D31A"/>
<path d="M59.6395 27.5941C60.0668 27.4239 60.3575 27.0723 60.4021 26.6744C60.5344 25.4917 60.9863 24.0715 61.9239 23.6793C61.9279 23.6779 61.9293 23.6744 61.9282 23.6712C61.34 21.9295 62.569 19.8944 64.5808 19.2783C64.5848 19.2773 64.5873 19.2745 64.5877 19.2713C64.7297 17.5405 67.3276 16.3396 69.1306 17.1689C69.1364 17.1713 69.1436 17.1689 69.1447 17.164C69.6369 15.021 73.0081 13.7927 75.1928 14.9614C75.196 14.9632 75.2004 14.9618 75.2015 14.9586C75.7132 13.0184 79.2022 12.2825 80.736 13.7945C82.4731 11.6998 86.5517 11.4234 88.6719 13.2537C88.6766 13.2579 88.685 13.2565 88.6875 13.2516C89.5403 11.6308 92.8372 11.643 93.6809 13.2695C93.6845 13.2761 93.694 13.2786 93.7019 13.2747C95.8232 12.2254 98.9654 13.267 99.6811 15.2584C99.6822 15.2619 99.688 15.2623 99.6898 15.2588C100.223 14.4088 101.826 14.4837 102.631 15.1687C103.438 15.8545 103.657 16.8765 103.835 17.8315C103.836 17.8354 103.84 17.8382 103.845 17.8382C104.916 17.7965 106.042 17.766 106.997 18.1779C107.951 18.5891 108.631 19.6054 108.173 20.42C108.17 20.425 108.174 20.4302 108.181 20.4299C110.395 20.3787 111.889 23.0355 110.452 24.454C110.446 24.4599 110.453 24.4673 110.462 24.4648C111.462 24.1934 112.664 24.6123 113.145 25.4052C113.626 26.1984 113.325 27.2677 112.478 27.7944C112.471 27.799 112.476 27.8067 112.485 27.806C114.145 27.6669 115.59 29.3841 114.877 30.6628C114.876 30.6645 114.877 30.6666 114.88 30.6666C115.371 30.6929 115.846 30.8291 116.264 31.0463C116.272 31.0505 116.284 31.0508 116.292 31.0466C117.406 30.4884 118.023 29.293 117.735 28.2217C117.441 27.129 116.232 26.2597 114.911 26.1897C114.909 26.1893 114.907 26.1879 114.908 26.1865C115.623 24.9082 114.177 23.1896 112.517 23.329C112.507 23.3297 112.502 23.322 112.51 23.3175C113.357 22.7911 113.658 21.7215 113.177 20.9282C112.696 20.1357 111.494 19.7168 110.494 19.9882C110.484 19.9907 110.477 19.9833 110.483 19.9774C111.921 18.5589 110.427 15.9021 108.213 15.9536C108.206 15.9536 108.201 15.9487 108.204 15.9438C108.663 15.1292 107.983 14.1128 107.029 13.7016C106.073 13.2898 104.948 13.3203 103.877 13.3619C103.872 13.3623 103.867 13.3595 103.867 13.3553C103.688 12.4002 103.469 11.3786 102.663 10.6925C101.857 10.0075 100.254 9.93251 99.721 10.7825C99.7192 10.7857 99.7137 10.7853 99.7123 10.7822C98.9962 8.79077 95.8543 7.7492 93.7331 8.79848C93.7251 8.80233 93.7157 8.79988 93.7124 8.79322C92.8687 7.16712 89.5714 7.15486 88.719 8.77536C88.7161 8.78062 88.7078 8.78167 88.7031 8.77746C86.5829 6.94718 82.5046 7.2235 80.7672 9.31821C79.2338 7.80628 75.7444 8.54176 75.2327 10.4824C75.2319 10.4855 75.2276 10.4869 75.2243 10.4852C73.0397 9.31611 69.6684 10.5444 69.1763 12.6877C69.1752 12.693 69.1679 12.6951 69.1621 12.6926C67.3587 11.8633 64.7613 13.0646 64.6192 14.7954C64.6188 14.7986 64.6163 14.8017 64.6123 14.8028C62.6009 15.4188 61.3719 17.4543 61.9601 19.1957C61.9612 19.1988 61.9594 19.202 61.9558 19.2034C61.0178 19.596 60.5662 21.0158 60.4336 22.1988C60.3894 22.5967 60.0987 22.9487 59.6711 23.1185C58.9161 23.419 57.8818 24.13 57.6963 25.8524C57.5799 26.9287 58.8843 27.8946 59.6395 27.5941Z" fill="#94D31A"/>
</svg>
