<svg width="72" height="69" viewBox="0 0 72 69" fill="none" xmlns="http://www.w3.org/2000/svg">
<path d="M30.0337 54.1924C28.4473 55.1694 26.8914 56.3658 26.3646 58.067C25.8376 59.7682 26.7758 62.0552 28.7321 62.6295C28.3741 64.417 29.346 66.4698 31.0831 67.5955C32.8202 68.721 35.2151 68.8498 36.8763 67.9068C37.1656 67.7424 37.4496 67.544 37.8005 67.5137C38.3718 67.4641 38.8985 67.8632 39.4029 68.1657C41.1412 69.2077 43.4181 69.243 45.126 68.4424C46.834 67.6418 47.9849 66.0942 48.4499 64.3786C48.6412 63.6725 48.7268 62.9334 48.9934 62.2531C49.2686 61.5502 49.7314 60.9263 49.9691 60.2095C50.4895 58.6394 49.7661 56.7028 48.2469 55.5998C47.6584 55.1726 46.974 54.8665 46.4083 54.4139C45.5912 53.7605 45.0876 52.8582 44.4241 52.077C43.7608 51.2958 42.7822 50.5788 41.7528 50.6507C41.276 50.6839 40.7943 50.8825 40.3359 50.7058C40.0141 50.5818 39.7948 50.303 39.5741 50.0524C34.6486 44.4566 26.7908 52.5346 30.0337 54.1924Z" fill="#78A015"/>
<path d="M55.3105 15.0389C53.4624 15.2881 51.5527 15.751 50.377 17.0916C49.2013 18.4323 49.1249 20.9016 50.6778 22.2191C49.6211 23.7069 49.6711 25.9764 50.7987 27.7085C51.9261 29.4408 54.0616 30.5288 55.9641 30.3406C56.2956 30.3078 56.6359 30.2415 56.969 30.356C57.5111 30.5423 57.8294 31.1203 58.1667 31.601C59.3293 33.2576 61.3952 34.2124 63.2823 34.1733C65.1693 34.134 66.8523 33.1867 67.9774 31.8077C68.4406 31.2402 68.8204 30.5995 69.3415 30.086C69.88 29.5555 70.5572 29.1731 71.0669 28.6147C72.1832 27.391 72.3126 25.3288 71.3751 23.7054C71.0119 23.0766 70.5115 22.5195 70.1794 21.8768C69.6997 20.9487 69.6077 19.9204 69.3206 18.9377C69.0335 17.9551 68.4321 16.9035 67.4625 16.5521C67.0132 16.3892 66.4922 16.3756 66.1454 16.0282C65.902 15.7845 65.8154 15.4409 65.7161 15.1225C63.5003 8.01467 53.0245 12.21 55.3105 15.0389Z" fill="#78A015"/>
<path d="M12.0162 12.2112C10.1787 12.7562 8.27795 13.5247 7.09799 15.055C5.91802 16.5854 5.81923 19.0707 7.34904 20.1419C6.28588 21.8007 6.31452 24.0654 7.41798 25.6201C8.52158 27.1748 10.632 27.9235 12.523 27.431C12.8524 27.3453 13.191 27.2245 13.5207 27.286C14.0572 27.3859 14.3679 27.914 14.6984 28.3415C15.8376 29.8149 17.8801 30.4411 19.7543 30.1004C21.6286 29.7598 23.3087 28.542 24.4387 26.9815C24.9039 26.3391 25.287 25.6369 25.8093 25.0395C26.349 24.422 27.025 23.9309 27.5364 23.2902C28.6563 21.8865 28.8041 19.8005 27.888 18.3245C27.5332 17.7527 27.0415 17.2748 26.7176 16.6842C26.2499 15.8313 26.1682 14.8161 25.8922 13.8779C25.6161 12.9396 25.0289 11.9826 24.0692 11.7855C23.6247 11.6943 23.1072 11.7637 22.7662 11.4715C22.5268 11.2661 22.4441 10.936 22.3485 10.633C20.2141 3.86855 9.77246 9.74328 12.0162 12.2112Z" fill="#78A015"/>
<path d="M47.0717 49.224C47.0146 48.8021 46.9449 48.3817 46.8608 47.9632C46.027 43.8188 43.7568 39.8894 40.2783 37.47C38.5922 36.2972 36.635 35.4713 35.2134 33.991C36.9017 32.0759 39.7646 31.9748 42.3485 31.8723C44.2492 34.6482 47.1916 36.7032 50.4643 37.5201C53.713 38.3309 57.2254 37.968 60.345 39.182C60.3841 38.972 60.4233 38.7621 60.4624 38.5521C57.8243 37.901 55.1862 37.25 52.5481 36.5989C50.9937 36.2153 49.4194 35.8239 48.015 35.0573C46.6532 34.3139 45.4495 33.1641 44.9539 31.703C48.8776 31.3351 52.7516 30.4397 56.4343 29.0411C57.6022 28.5976 58.9259 27.8776 59.0318 26.6369C54.8164 28.5675 50.1356 29.4738 45.5013 29.2781C46.1472 26.8262 47.86 24.7742 49.7159 23.0023C53.6787 23.1449 57.6722 22.4026 61.314 20.8389C61.5147 20.7528 61.7262 20.6541 61.8404 20.4688C58.314 22.0862 54.3406 22.7215 50.4833 22.2892C52.4172 20.528 54.4741 18.8604 55.9345 16.6992C55.8578 16.5715 55.781 16.4439 55.7044 16.3162C53.3976 20.2782 48.4059 22.0413 45.9601 25.9193C45.3166 26.9394 44.8759 28.0696 44.5053 29.2189C44.0939 29.1874 43.6832 29.1483 43.2735 29.0991C41.3725 28.8711 39.4698 28.457 37.562 28.6199C36.1064 28.7443 34.6078 29.2824 33.5877 30.2825C32.628 28.2873 32.1133 26.0807 32.2882 23.8836C32.322 23.4599 32.3804 23.0406 32.457 22.6247C34.1592 21.6974 36.2609 21.3525 38.0726 20.5422C40.4446 19.4815 42.3962 17.5175 43.4374 15.1436C44.0292 13.7943 44.3306 12.3395 44.6278 10.8971C44.4448 10.8591 44.3091 11.0581 44.2312 11.2274C43.2141 13.4361 42.3962 15.8503 40.5942 17.4878C39.8062 18.2038 38.8666 18.7324 37.9127 19.2075C36.2616 20.0297 34.5396 20.7096 32.7721 21.2395C33.2251 19.5277 33.8627 17.8474 34.2024 16.1068C34.7146 13.4825 34.3357 10.355 32.1479 8.80737C33.3657 11.0469 33.0632 13.8084 32.3132 16.2434C32.0545 17.0833 31.7467 17.9094 31.4362 18.734C29.9364 17.8558 28.9502 16.2685 28.4089 14.6142C27.8481 12.9002 27.6998 11.0851 27.4553 9.29895C27.4165 9.01513 27.3682 8.71575 27.1836 8.49624C26.9991 8.27672 26.6297 8.18584 26.4244 8.38632C26.7351 10.6519 26.7585 12.9653 27.3266 15.1808C27.368 15.3422 27.4135 15.5035 27.4619 15.6643C24.0478 16.4495 19.9311 15.4726 16.6051 14.3402L15.82 14.6534C17.3409 15.5873 18.8811 16.1716 20.6342 16.4615C18.834 19.8828 16.1427 22.8345 12.8946 24.9442C13.0207 25.0745 13.1467 25.2051 13.2726 25.3355C16.4075 22.7248 19.2914 19.8153 21.8741 16.6607C21.8985 16.6647 21.9229 16.6686 21.9472 16.6727C23.9708 17.0049 26.047 17.4675 28.0769 17.2547C28.7019 18.5497 29.6016 19.6956 30.8135 20.4213C30.457 21.431 30.1425 22.4512 29.9554 23.5053C29.6339 25.315 29.6939 27.2314 30.166 29.0111C30.5394 30.4181 31.9682 31.7953 30.7572 32.8571C29.6802 33.8014 26.8271 33.6821 25.4788 33.8169C23.5863 34.0062 21.6627 34.1592 19.8906 34.9062C19.3341 35.1408 18.8072 35.4298 18.3099 35.7629C16.3978 35.0389 14.365 34.6426 12.3199 34.5712C11.3298 31.5993 8.78018 29.1767 5.7386 28.3694C5.65754 28.5293 5.51376 28.6563 5.34482 28.7176C8.03717 29.542 10.2086 31.8548 10.8874 34.5742C8.4264 34.6711 5.9848 35.2391 3.75244 36.2774C3.7882 36.4992 3.8241 36.721 3.86001 36.9426C5.04876 36.5252 6.26722 36.1751 7.50415 35.936C8.05823 37.122 8.01066 38.5274 7.87597 39.8454C7.75415 41.037 7.57809 42.223 7.34825 43.3984C7.50203 43.46 7.65566 43.5215 7.80945 43.5832C7.97263 42.7686 8.13581 41.9541 8.29898 41.1395C8.65837 39.3461 9.01836 37.5347 8.98306 35.7071C9.52289 35.6452 10.0656 35.6064 10.6098 35.5966C12.7558 35.5572 14.9364 35.9686 16.8324 36.9624C15.6462 38.1107 14.6956 39.5268 14.0052 41.0293C12.7966 43.6587 12.3031 46.5542 11.9598 49.426C13.4329 47.6687 13.637 45.1405 14.9891 43.2891C16.5765 41.1156 18.9248 38.3512 21.5333 37.6653C22.5031 37.4105 23.5463 37.4591 24.6046 37.5711C25.2653 38.5858 25.8893 39.628 26.2758 40.7708C26.6262 41.8068 26.7709 42.8947 26.8212 43.9903C25.047 44.9107 23.2949 45.8991 21.7641 47.1804C20.18 48.5064 18.8326 50.1728 18.1599 52.1223C19.2666 50.4962 20.3909 48.86 21.8263 47.513C23.1875 46.2355 24.8682 45.2243 26.7094 44.937L26.8376 44.4871C26.8407 44.631 26.843 44.7747 26.8438 44.9184C26.7989 44.9245 26.7539 44.93 26.7094 44.937L26.6595 45.112C26.7209 45.0741 26.7824 45.0362 26.8439 44.9984C26.8444 45.1743 26.8435 45.35 26.8412 45.5255C26.8076 48.2008 26.5305 50.8732 26.0147 53.4989C26.1844 53.5057 26.3541 53.5123 26.5236 53.5189C27.107 50.5305 27.6924 47.5206 27.7027 44.4762C27.7103 42.2022 27.3765 39.8884 26.5277 37.79C27.5047 37.8835 28.4648 37.9076 29.3622 37.6718C29.9984 37.5047 30.649 37.3359 31.3052 37.3841C32.1892 37.4493 32.9918 37.899 33.761 38.3382C36.8783 40.1186 40.1716 42.1138 42.4346 44.7954C40.0192 45.5579 37.9712 47.3648 36.6909 49.5605C35.2549 52.0234 34.7161 54.9307 34.759 57.7789C34.8949 57.8047 35.3922 58.0568 35.5281 58.0828C35.8472 55.9671 36.1403 53.6764 37.0935 51.7595C39.3748 54.0525 40.9928 56.9967 41.69 60.1508C41.7867 60.0833 41.8832 60.0158 41.9799 59.9483C41.3222 58.1747 40.8673 56.3314 40.2077 54.5584C39.656 53.0755 38.6465 52.008 37.5267 50.9358C37.5777 50.8439 37.6283 50.7516 37.6811 50.6605C38.3592 49.4827 39.1725 48.3532 40.2645 47.5408C41.232 46.8211 42.4459 46.3742 43.641 46.4595C44.1344 47.2687 44.5341 48.1355 44.8148 49.0701C45.8345 52.4664 45.0586 56.1194 45.3443 59.6532C45.3725 60.0013 45.5028 60.4426 45.8526 60.4642C46.9032 57.2678 47.4472 53.8675 47.2059 50.5235C47.9159 50.1272 48.7259 49.8891 49.5365 49.7839C50.8684 49.6109 52.219 49.7587 53.554 49.9066C55.213 50.0907 56.8861 50.2776 58.4717 50.7975C58.5178 50.6908 58.5637 50.5841 58.6097 50.4773C55.0906 48.6746 50.8975 48.2233 47.0717 49.224Z" fill="#93733E"/>
<path d="M3.11389 26.2597C1.90498 27.2352 0.701219 28.4009 0.194415 29.9302C-0.312238 31.4597 0.183663 33.3908 1.53847 33.7451C1.14591 35.3374 1.68392 37.061 2.8398 37.9148C3.99568 38.7684 5.69821 38.6992 6.95787 37.7477C7.17741 37.5819 7.39543 37.3864 7.64876 37.3332C8.06087 37.2466 8.40692 37.5561 8.74449 37.7825C9.90763 38.5632 11.5329 38.421 12.8151 37.5906C14.0974 36.7601 15.0384 35.3178 15.502 33.7804C15.6928 33.1477 15.8105 32.494 16.0531 31.8781C16.3037 31.2417 16.6821 30.6603 16.9068 30.0148C17.3988 28.6005 17.0296 26.96 16.0278 26.1095C15.6397 25.78 15.1737 25.564 14.8039 25.2107C14.2696 24.7006 13.9784 23.9489 13.5639 23.315C13.1494 22.6814 12.5045 22.1279 11.7632 22.2687C11.4197 22.3341 11.0602 22.5446 10.7459 22.4247C10.5253 22.3403 10.3899 22.1131 10.2513 21.9103C7.15726 17.3851 0.921977 25.054 3.11389 26.2597Z" fill="#7EBB15"/>
<path d="M15.3522 47.6466C14.2895 48.3967 13.24 49.3034 12.8433 50.5395C12.4466 51.7757 12.9844 53.3857 14.2384 53.7356C13.949 55.0284 14.5161 56.4694 15.6101 57.2217C16.704 57.974 18.2574 57.9909 19.3675 57.2626C19.561 57.1356 19.7519 56.9845 19.981 56.9516C20.354 56.8982 20.684 57.1678 21.0023 57.3687C22.0997 58.0611 23.5794 58.0146 24.7154 57.3871C25.8514 56.7596 26.6488 55.614 27.0056 54.3694C27.1525 53.8571 27.2315 53.3245 27.4264 52.8286C27.6277 52.3159 27.9483 51.8542 28.1256 51.3329C28.5138 50.191 28.1046 48.8256 27.1515 48.0826C26.7823 47.7949 26.347 47.5968 25.9935 47.2904C25.4828 46.8474 25.1839 46.2165 24.7772 45.6772C24.3706 45.1381 23.7569 44.655 23.0853 44.7386C22.7741 44.7774 22.4547 44.9352 22.162 44.8229C21.9567 44.7442 21.8229 44.5511 21.6873 44.3784C18.6616 40.522 13.2957 46.56 15.3522 47.6466Z" fill="#78A015"/>
<path d="M4.425 46.9305C3.21761 47.7827 2.02522 48.8129 1.57463 50.2172C1.12403 51.6216 1.73493 53.4506 3.15958 53.8484C2.83081 55.3172 3.47503 56.9543 4.71787 57.809C5.96072 58.6636 7.72567 58.6828 8.98685 57.8555C9.20669 57.7114 9.42351 57.5395 9.68395 57.5022C10.1077 57.4415 10.4826 57.7478 10.8444 57.9761C12.0912 58.7628 13.7723 58.71 15.0629 57.9971C16.3536 57.284 17.2595 55.9825 17.6649 54.5685C17.8318 53.9867 17.9216 53.3816 18.143 52.8179C18.3717 52.2356 18.736 51.7111 18.9373 51.1187C19.3784 49.8213 18.9135 48.27 17.8309 47.4258C17.4115 47.0989 16.9168 46.874 16.515 46.5255C15.9348 46.0225 15.5951 45.3057 15.133 44.6931C14.6711 44.0804 13.9738 43.5317 13.2107 43.6268C12.8572 43.6708 12.4942 43.85 12.1618 43.7225C11.9284 43.6329 11.7765 43.4137 11.6224 43.2175C8.18505 38.836 2.0887 45.696 4.425 46.9305Z" fill="#7EBB15"/>
<path d="M25.4091 4.6142C24.3292 5.37661 23.2625 6.29813 22.8595 7.55436C22.4565 8.81044 23.0029 10.4467 24.2774 10.8025C23.9833 12.1163 24.5595 13.5808 25.6713 14.3453C26.783 15.1097 28.3616 15.1271 29.4899 14.3868C29.6865 14.2579 29.8805 14.1042 30.1134 14.0709C30.4926 14.0165 30.8278 14.2905 31.1514 14.4946C32.2667 15.1983 33.7704 15.1512 34.9249 14.5134C36.0795 13.8755 36.8899 12.7112 37.2525 11.4465C37.4017 10.9261 37.4822 10.3848 37.6802 9.88066C37.8849 9.35981 38.2106 8.89044 38.3908 8.36069C38.7853 7.20002 38.3694 5.81245 37.4009 5.05744C37.0258 4.76486 36.5834 4.56362 36.224 4.25217C35.7051 3.80212 35.4011 3.16081 34.9878 2.61308C34.5747 2.06506 33.9509 1.57395 33.2683 1.65925C32.9521 1.69865 32.6274 1.85882 32.3302 1.74469C32.1214 1.66467 31.9855 1.46857 31.8478 1.29299C28.7725 -2.62621 23.3192 3.51 25.4091 4.6142Z" fill="#7EBB15"/>
<path d="M10.8925 22.1743C10.0417 22.775 9.20144 23.5008 8.88402 24.4903C8.56661 25.4799 8.99704 26.7687 10.001 27.0489C9.76929 28.0839 10.2232 29.2376 11.0991 29.8398C11.9748 30.4419 13.2185 30.4555 14.1072 29.8726C14.2619 29.771 14.4148 29.6499 14.5984 29.6236C14.897 29.5809 15.1611 29.7966 15.416 29.9576C16.2946 30.5119 17.4791 30.4748 18.3886 29.9724C19.2981 29.4699 19.9364 28.5529 20.2222 27.5565C20.3396 27.1463 20.4029 26.72 20.559 26.3229C20.7202 25.9126 20.9769 25.5429 21.1187 25.1256C21.4294 24.2111 21.1019 23.1181 20.339 22.5234C20.0434 22.2931 19.6948 22.1345 19.4118 21.8892C19.003 21.5346 18.7636 21.0296 18.438 20.5978C18.1126 20.1662 17.6212 19.7794 17.0835 19.8464C16.8344 19.8774 16.5787 20.0037 16.3444 19.9138C16.18 19.8507 16.0729 19.6962 15.9644 19.5579C13.5418 16.4707 9.24613 21.3045 10.8925 22.1743Z" fill="#94D31A"/>
<path d="M40.0867 10.2194C38.8581 11.0868 37.6445 12.1351 37.1861 13.5642C36.7276 14.9935 37.3492 16.8548 38.799 17.2597C38.4645 18.7541 39.1201 20.4202 40.3849 21.29C41.6497 22.1599 43.4457 22.1794 44.7293 21.3373C44.953 21.1905 45.1737 21.0157 45.4387 20.9778C45.8701 20.916 46.2514 21.2277 46.6196 21.46C47.8885 22.2606 49.5992 22.2069 50.9127 21.4813C52.2261 20.7557 53.148 19.4313 53.5606 17.9923C53.7305 17.4001 53.8218 16.7843 54.0471 16.2107C54.28 15.6182 54.6506 15.0843 54.8556 14.4815C55.3043 13.1613 54.8313 11.5826 53.7295 10.7234C53.3027 10.3908 52.7993 10.1618 52.3905 9.80745C51.8002 9.29535 51.4545 8.56588 50.9842 7.94252C50.514 7.31901 49.8045 6.7604 49.028 6.85732C48.6682 6.90231 48.2988 7.08453 47.9606 6.95485C47.7232 6.86366 47.5685 6.64069 47.4117 6.44095C43.913 1.98218 37.7092 8.96322 40.0867 10.2194Z" fill="#7EBB15"/>
<path d="M52.7164 42.0384C51.2025 43.107 49.7072 44.3988 49.1424 46.1596C48.5775 47.9204 49.3434 50.2138 51.1299 50.7126C50.7176 52.5541 51.5253 54.607 53.0838 55.6788C54.6422 56.7505 56.8552 56.7745 58.4367 55.737C58.7121 55.5563 58.9841 55.3409 59.3106 55.2941C59.8421 55.2178 60.3119 55.6019 60.7657 55.8883C62.329 56.8746 64.4368 56.8086 66.0552 55.9146C67.6735 55.0205 68.8095 53.3885 69.3179 51.6155C69.527 50.8859 69.6397 50.1272 69.9173 49.4206C70.2041 48.6903 70.6609 48.0327 70.9133 47.2899C71.4663 45.6632 70.8834 43.7181 69.5257 42.6596C68.9998 42.2496 68.3797 41.9676 67.8759 41.5308C67.1485 40.8999 66.7226 40.0012 66.1433 39.233C65.564 38.4649 64.6898 37.7766 63.733 37.896C63.2897 37.9513 62.8347 38.1759 62.4178 38.0159C62.1252 37.9037 61.9347 37.629 61.7416 37.3827C57.4308 31.8892 49.7867 40.4906 52.7164 42.0384Z" fill="#7EBB15"/>
<path d="M30.7277 41.1015C29.5794 41.9392 28.443 42.9489 28.0023 44.312C27.5614 45.675 28.1165 47.4368 29.4554 47.8055C29.1286 49.2293 29.7174 50.8053 30.8796 51.6175C32.0419 52.4299 33.7059 52.4284 34.9047 51.6142C35.1134 51.4724 35.32 51.3036 35.566 51.2647C35.9665 51.2011 36.3163 51.4933 36.6549 51.7097C37.8217 52.4563 39.4074 52.3864 40.6327 51.6823C41.858 50.9781 42.7272 49.7094 43.1255 48.3374C43.2896 47.7729 43.3811 47.1867 43.5962 46.6392C43.8187 46.0736 44.168 45.5621 44.3647 44.9872C44.7953 43.7275 44.3747 42.2328 43.3634 41.4288C42.9717 41.1173 42.5078 40.9055 42.133 40.5732C41.5916 40.0933 41.2795 39.4041 40.8509 38.8168C40.4221 38.2297 39.771 37.7067 39.0503 37.8074C38.7165 37.8542 38.3721 38.0315 38.0602 37.9118C37.8411 37.8278 37.7003 37.6177 37.5573 37.4297C34.3656 33.2317 28.5385 39.9343 30.7277 41.1015Z" fill="#7EBB15"/>
<path d="M53.7836 13.2378C52.9328 13.8383 52.0924 14.5642 51.7751 15.5538C51.4577 16.5433 51.8882 17.8321 52.8921 18.1125C52.6604 19.1472 53.1143 20.301 53.9902 20.9032C54.8661 21.5054 56.1096 21.5188 56.9983 20.9359C57.1532 20.8343 57.306 20.7133 57.4895 20.6871C57.7881 20.6443 58.0522 20.8601 58.3072 21.0209C59.1857 21.5753 60.3704 21.5382 61.2799 21.0359C62.1893 20.5334 62.8277 19.6163 63.1135 18.6199C63.2309 18.2099 63.2942 17.7835 63.4503 17.3863C63.6115 16.976 63.8681 16.6064 64.0099 16.189C64.3207 15.2747 63.9931 14.1817 63.2303 13.5868C62.9347 13.3564 62.5862 13.1981 62.303 12.9526C61.8942 12.598 61.6549 12.093 61.3293 11.6612C61.0037 11.2294 60.5125 10.8428 59.9748 10.9098C59.7255 10.9409 59.4699 11.0671 59.2357 10.9771C59.0713 10.914 58.9642 10.7598 58.8557 10.6215C56.4329 7.53411 52.1372 12.3679 53.7836 13.2378Z" fill="#94D31A"/>
<path d="M43.5551 54.9485C42.5246 55.6529 41.5086 56.507 41.1345 57.6824C40.7604 58.8579 41.3036 60.4004 42.5331 60.7482C42.2643 61.9788 42.8343 63.3605 43.9119 64.0904C44.9893 64.8202 46.5077 64.8533 47.585 64.1701C47.7727 64.0512 47.9575 63.9089 48.1812 63.88C48.5452 63.8329 48.8705 64.0939 49.184 64.2891C50.2641 64.962 51.7098 64.9337 52.8134 64.3471C53.9171 63.7602 54.6839 62.6755 55.019 61.4916C55.1569 61.0041 55.2284 60.4967 55.4135 60.0254C55.6047 59.5383 55.9131 59.1011 56.0805 58.6055C56.4474 57.5199 56.0326 56.212 55.0931 55.4926C54.7292 55.2139 54.3014 55.0202 53.9525 54.7237C53.4486 54.2956 53.1495 53.6902 52.7462 53.1711C52.3427 52.6521 51.7377 52.1842 51.0821 52.2569C50.7785 52.2907 50.4679 52.4376 50.1806 52.3272C49.979 52.2498 49.8463 52.0642 49.7119 51.8979C46.7119 48.1843 41.5333 53.8892 43.5551 54.9485Z" fill="#94D31A"/>
<path d="M31.1804 15.6148C30.1478 16.3436 29.1282 17.2246 28.7429 18.4254C28.3577 19.6264 28.88 21.1905 30.0983 21.5306C29.8172 22.7865 30.368 24.1867 31.4308 24.9177C32.4937 25.6485 34.0029 25.6648 35.0815 24.9574C35.2694 24.8342 35.4548 24.6873 35.6775 24.6553C36.0399 24.6033 36.3605 24.8654 36.6698 25.0606C37.7359 25.7334 39.1735 25.6882 40.2772 25.0784C41.381 24.4688 42.1557 23.3557 42.5023 22.1466C42.6449 21.6488 42.7217 21.1313 42.9111 20.6496C43.1067 20.1515 43.4182 19.7028 43.5903 19.1965C43.9674 18.0868 43.57 16.7603 42.644 16.0385C42.2854 15.7589 41.8624 15.5665 41.5189 15.2687C41.0228 14.8384 40.7322 14.2254 40.3372 13.7016C39.9421 13.1776 39.3459 12.7082 38.6933 12.7897C38.3911 12.8273 38.0808 12.9805 37.7964 12.8714C37.5969 12.7948 37.4669 12.6075 37.3352 12.4396C34.3957 8.69297 29.1824 14.5592 31.1804 15.6148Z" fill="#94D31A"/>
<path d="M51.7136 29.4039C50.3331 30.3784 48.9695 31.5563 48.4544 33.1622C47.9393 34.7679 48.6377 36.8593 50.2668 37.3142C49.8909 38.9934 50.6274 40.8656 52.0485 41.8429C53.4697 42.8201 55.4877 42.842 56.9299 41.8959C57.1813 41.731 57.4293 41.5347 57.7269 41.492C58.2116 41.4224 58.64 41.7727 59.0537 42.0337C60.4794 42.9333 62.4014 42.8731 63.8773 42.0577C65.3532 41.2423 66.3891 39.7542 66.8525 38.1374C67.0433 37.4719 67.146 36.7801 67.3992 36.1357C67.6608 35.4698 68.0773 34.87 68.3075 34.1927C68.8117 32.7091 68.2802 30.9354 67.0422 29.9702C66.5627 29.5963 65.9971 29.339 65.5377 28.9409C64.8744 28.3657 64.4859 27.5461 63.9576 26.8456C63.4293 26.1451 62.6322 25.5173 61.7596 25.6263C61.3556 25.6767 60.9404 25.8815 60.5603 25.7356C60.2935 25.6333 60.1197 25.3827 59.9436 25.1583C56.0128 20.1486 49.0421 27.9923 51.7136 29.4039Z" fill="#94D31A"/>
</svg>
