<svg width="114" height="88" viewBox="0 0 114 88" fill="none" xmlns="http://www.w3.org/2000/svg">
<path d="M50.4043 69.265H47.7349V87.6095H50.4043V69.265Z" fill="#8E6842"/>
<path d="M66.0832 69.2653H63.4141V87.6097H66.0832V69.2653Z" fill="#8E6842"/>
<path d="M68.1295 69.1757H45.1426V72.2782H68.1295V69.1757Z" fill="#BE8A4D"/>
<path d="M68.1295 73.4461H45.1426V76.5488H68.1295V73.4461Z" fill="#BE8A4D"/>
<path d="M68.1295 77.7165H45.1426V80.8193H68.1295V77.7165Z" fill="#BE8A4D"/>
<path d="M68.1295 82.0413H45.1426V85.1441H68.1295V82.0413Z" fill="#BE8A4D"/>
<path d="M68.1295 87.1009H45.1426V87.9997H68.1295V87.1009Z" fill="#BE8A4D"/>
<path d="M90.3804 49.6759V51.7932H113.507V49.6759H90.3804Z" fill="#8E6842"/>
<path d="M90.3804 37.2421V39.3593H113.507V37.2421H90.3804Z" fill="#8E6842"/>
<path d="M90.269 35.6175V53.8513H94.1804V35.6175H90.269Z" fill="#BE8A4D"/>
<path d="M95.6504 35.6171V53.851H99.5619V35.6171H95.6504Z" fill="#BE8A4D"/>
<path d="M101.036 35.6171V53.851H104.948V35.6171H101.036Z" fill="#BE8A4D"/>
<path d="M106.491 35.6171V53.851H110.403V35.6171H106.491Z" fill="#BE8A4D"/>
<path d="M112.866 35.6171V53.851H113.999V35.6171H112.866Z" fill="#BE8A4D"/>
<path d="M0.493164 49.1015L0.493164 51.2186H23.6195V49.1015H0.493164Z" fill="#8E6842"/>
<path d="M0.493164 36.6677L0.493164 38.7849H23.6195V36.6677H0.493164Z" fill="#8E6842"/>
<path d="M19.8198 35.0447V53.2784H23.7312V35.0447H19.8198Z" fill="#BE8A4D"/>
<path d="M14.4365 35.0432L14.4365 53.2769H18.3479V35.0432H14.4365Z" fill="#BE8A4D"/>
<path d="M9.05273 35.0428L9.05273 53.2766H12.9643L12.9643 35.0428H9.05273Z" fill="#BE8A4D"/>
<path d="M3.59863 35.0432L3.59863 53.2769H7.51017L7.51017 35.0432H3.59863Z" fill="#BE8A4D"/>
<path d="M0 35.0428L0 53.2766H1.13306L1.13306 35.0428H0Z" fill="#BE8A4D"/>
<path d="M63.657 18.7353H66.3262V0.390831H63.657V18.7353Z" fill="#8E6842"/>
<path d="M47.9834 18.736H50.6523V0.391533H47.9834V18.736Z" fill="#8E6842"/>
<path d="M45.9342 18.8242L68.9209 18.8242V15.7216L45.9342 15.7216V18.8242Z" fill="#BE8A4D"/>
<path d="M45.9342 14.5537L68.9209 14.5537V11.451L45.9342 11.451V14.5537Z" fill="#BE8A4D"/>
<path d="M45.9342 10.2834L68.9209 10.2834V7.18065L45.9342 7.18065V10.2834Z" fill="#BE8A4D"/>
<path d="M45.9342 5.95728L68.9209 5.95728V2.85454L45.9342 2.85454V5.95728Z" fill="#BE8A4D"/>
<path d="M45.9342 0.898743L68.9209 0.898743V-1.01328e-05L45.9342 -1.01328e-05V0.898743Z" fill="#BE8A4D"/>
<path d="M48.2609 24.4654H46.2593V63.8571H48.2609V24.4654Z" fill="#8E6842"/>
<path d="M70.0968 24.4654H68.0952V63.8571H70.0968V24.4654Z" fill="#8E6842"/>
<path d="M82.4394 33.0093C81.5851 31.8282 80.5962 30.7165 79.4915 29.6853H36.9767C35.8718 30.7165 34.8831 31.8284 34.0288 33.0093H82.4394Z" fill="#BE8A4D"/>
<path d="M31.6592 37.2812H84.8085C84.3461 36.1294 83.7692 35.0181 83.0861 33.9571H33.3816C32.6988 35.0181 32.1218 36.1292 31.6592 37.2812Z" fill="#BE8A4D"/>
<path d="M30.5176 41.5518H85.9491C85.7913 40.4153 85.5249 39.3053 85.1585 38.2274H31.3081C30.9415 39.3053 30.6752 40.4155 30.5176 41.5518Z" fill="#BE8A4D"/>
<path d="M78.4182 28.7374C76.9047 27.4785 75.2056 26.3617 73.3564 25.4133H43.1109C41.2618 26.3618 39.5626 27.4785 38.0493 28.7374H78.4182Z" fill="#BE8A4D"/>
<path d="M34.27 55.3141C35.1604 56.4983 36.1864 57.6109 37.3307 58.6383H79.1417C80.2859 57.6107 81.3117 56.4983 82.2023 55.3141H34.27Z" fill="#BE8A4D"/>
<path d="M38.4458 59.5857C40.0359 60.8559 41.8183 61.9743 43.7563 62.9098H72.7113C74.6495 61.9742 76.4319 60.8559 78.0218 59.5857H38.4458Z" fill="#BE8A4D"/>
<path d="M45.9341 63.8578C49.6443 65.3063 53.8181 66.1213 58.2328 66.1213C62.6475 66.1213 66.8215 65.3063 70.5315 63.8578H45.9341Z" fill="#BE8A4D"/>
<path d="M71.3285 24.4665C67.4246 22.8169 62.969 21.8807 58.2372 21.8807C53.5055 21.8807 49.0499 22.8169 45.146 24.4665H71.3285Z" fill="#BE8A4D"/>
<path d="M30.5674 46.772C30.7467 47.9091 31.0342 49.0194 31.4227 50.096H85.0509C85.4392 49.0193 85.7269 47.9091 85.9062 46.772H30.5674Z" fill="#BE8A4D"/>
<path d="M31.791 51.0431C32.2791 52.1967 32.8848 53.3073 33.5951 54.3674H82.873C83.5833 53.3075 84.1889 52.1967 84.6768 51.0431H31.791Z" fill="#BE8A4D"/>
<path d="M86.0562 42.4992H30.4135C30.3716 42.9955 30.3481 43.4958 30.3481 44.0004C30.3481 44.6143 30.3812 45.2223 30.4432 45.8236H86.0267C86.0887 45.2223 86.1216 44.6144 86.1216 44.0004C86.1214 43.4958 86.0981 42.9955 86.0562 42.4992Z" fill="#BE8A4D"/>
</svg>
