<svg width="569" height="554" viewBox="0 0 569 554" fill="none" xmlns="http://www.w3.org/2000/svg">
<path d="M251.813 436.123H238.502V551.443H251.813V436.123Z" fill="#C6915D"/>
<path d="M329.976 436.123H316.666V551.443H329.976V436.123Z" fill="#C6915D"/>
<path d="M340.186 435.566H225.561V455.07H340.186V435.566Z" fill="#EDB26E"/>
<path d="M340.186 462.411H225.561V481.916H340.186V462.411Z" fill="#EDB26E"/>
<path d="M340.186 489.257H225.561V508.762H340.186V489.257Z" fill="#EDB26E"/>
<path d="M340.186 516.448H225.561V535.953H340.186V516.448Z" fill="#EDB26E"/>
<path d="M340.186 548.254H225.561V553.904H340.186V548.254Z" fill="#EDB26E"/>
<path d="M451.15 312.978V326.288H566.47V312.978H451.15Z" fill="#C6915D"/>
<path d="M451.15 234.815V248.125H566.47V234.815H451.15Z" fill="#C6915D"/>
<path d="M450.594 224.606V339.231H470.098V224.606H450.594Z" fill="#EDB26E"/>
<path d="M477.438 224.606V339.231H496.943V224.606H477.438Z" fill="#EDB26E"/>
<path d="M504.284 224.605V339.23H523.789V224.605H504.284Z" fill="#EDB26E"/>
<path d="M531.475 224.605V339.23H550.98V224.605H531.475Z" fill="#EDB26E"/>
<path d="M563.281 224.605V339.23H568.931V224.605H563.281Z" fill="#EDB26E"/>
<path d="M2.92383 309.373L2.92383 322.682H118.244V309.373H2.92383Z" fill="#C6915D"/>
<path d="M2.92383 231.21L2.92383 244.519H118.244V231.21H2.92383Z" fill="#C6915D"/>
<path d="M99.2969 220.999V335.623H118.801V220.999H99.2969Z" fill="#EDB26E"/>
<path d="M72.4512 220.999V335.623H91.9552V220.999H72.4512Z" fill="#EDB26E"/>
<path d="M45.606 220.999L45.606 335.623H65.111V220.999H45.606Z" fill="#EDB26E"/>
<path d="M18.4141 221L18.4141 335.624H37.9191L37.9191 221H18.4141Z" fill="#EDB26E"/>
<path d="M0.462891 220.999L0.462891 335.623H6.11292L6.11292 220.999H0.462891Z" fill="#EDB26E"/>
<path d="M317.885 118.478H331.195V3.15771H317.885V118.478Z" fill="#C6915D"/>
<path d="M239.723 118.478H253.032V3.15771H239.723V118.478Z" fill="#C6915D"/>
<path d="M229.512 119.035L344.136 119.035V99.5306L229.512 99.5306V119.035Z" fill="#EDB26E"/>
<path d="M229.512 92.189L344.136 92.189V72.6841L229.512 72.6841V92.189Z" fill="#EDB26E"/>
<path d="M229.512 65.3433L344.136 65.3433V45.8383L229.512 45.8383V65.3433Z" fill="#EDB26E"/>
<path d="M229.512 38.1528L344.136 38.1528V18.6478L229.512 18.6478V38.1528Z" fill="#EDB26E"/>
<path d="M229.512 6.34692L344.136 6.34692V0.697021L229.512 0.697021V6.34692Z" fill="#EDB26E"/>
<path d="M241.125 154.496H231.145V402.127H241.125V154.496Z" fill="#C6915D"/>
<path d="M350 154.496H340.02V402.127H350V154.496Z" fill="#C6915D"/>
<path d="M411.542 208.201C407.282 200.776 402.351 193.787 396.842 187.305H184.841C179.331 193.787 174.401 200.777 170.141 208.201H411.542Z" fill="#EDB26E"/>
<path d="M158.325 235.055H423.356C421.05 227.814 418.173 220.828 414.767 214.158H166.914C163.509 220.828 160.632 227.813 158.325 235.055Z" fill="#EDB26E"/>
<path d="M152.636 261.907H429.047C428.26 254.763 426.932 247.785 425.105 241.009H156.578C154.75 247.785 153.422 254.764 152.636 261.907Z" fill="#EDB26E"/>
<path d="M391.492 181.349C383.945 173.435 375.472 166.414 366.251 160.452H215.431C206.21 166.415 197.737 173.435 190.191 181.349H391.492Z" fill="#EDB26E"/>
<path d="M171.333 348.421C175.773 355.865 180.889 362.859 186.595 369.318H395.087C400.793 362.858 405.908 355.865 410.349 348.421H171.333Z" fill="#EDB26E"/>
<path d="M192.167 375.273C200.096 383.258 208.984 390.289 218.648 396.17H363.033C372.698 390.288 381.586 383.258 389.514 375.273H192.167Z" fill="#EDB26E"/>
<path d="M229.513 402.127C248.014 411.233 268.827 416.356 290.841 416.356C312.855 416.356 333.669 411.233 352.169 402.127H229.513Z" fill="#EDB26E"/>
<path d="M356.12 154.496C336.653 144.126 314.435 138.241 290.84 138.241C267.245 138.241 245.028 144.126 225.561 154.496H356.12Z" fill="#EDB26E"/>
<path d="M152.867 294.716C153.761 301.864 155.195 308.844 157.132 315.612H424.551C426.487 308.843 427.922 301.864 428.816 294.716H152.867Z" fill="#EDB26E"/>
<path d="M158.982 321.568C161.416 328.82 164.436 335.802 167.978 342.466H413.704C417.246 335.803 420.266 328.82 422.699 321.568H158.982Z" fill="#EDB26E"/>
<path d="M429.573 267.862H152.109C151.9 270.982 151.783 274.127 151.783 277.299C151.783 281.158 151.948 284.98 152.257 288.76H429.426C429.735 284.98 429.899 281.159 429.899 277.299C429.898 274.127 429.782 270.982 429.573 267.862Z" fill="#EDB26E"/>
</svg>
