<svg width="296" height="260" viewBox="0 0 296 260" fill="none" xmlns="http://www.w3.org/2000/svg">
<path d="M280.438 205.909C280.438 228.376 262.456 246.586 240.269 246.586C218.082 246.586 200.101 228.376 200.101 205.909C200.101 183.45 218.082 165.241 240.269 165.241C262.456 165.232 280.438 183.45 280.438 205.909Z" fill="#824737"/>
<path d="M290.737 204.193C306.501 233.282 274.263 269.062 243.516 257.815C240.943 256.872 241.493 252.991 244.226 252.749C268.648 250.602 286.372 230.326 285.858 205.541C285.796 202.774 289.424 201.777 290.737 204.193Z" fill="#824737"/>
<path d="M248.791 239.428L246.942 240.034L252.282 256.743L254.131 256.137L248.791 239.428Z" fill="#824737"/>
<path d="M272.718 209.078L272.541 211.037L291.172 212.765L291.349 210.806L272.718 209.078Z" fill="#824737"/>
<path d="M274.478 221.213L273.596 222.966L286.669 229.711L287.551 227.958L274.478 221.213Z" fill="#824737"/>
<path d="M268.942 230.924L267.583 232.329L278.477 243.134L279.837 241.729L268.942 230.924Z" fill="#824737"/>
<path d="M258.691 236.311L257.173 237.538L267.637 250.816L269.156 249.588L258.691 236.311Z" fill="#824737"/>
<path d="M38.6216 187.258C19.3889 176.047 12.771 151.181 23.8333 131.705C34.8956 112.237 59.4509 105.527 78.6835 116.729C97.9162 127.931 104.534 152.798 93.4718 172.274C82.4095 191.759 57.8542 198.46 38.6216 187.258Z" fill="#824737"/>
<path d="M34.9467 197.148C2.18559 196.484 -12.3542 150.336 12.6003 128.964C14.6939 127.176 17.7455 129.593 16.5834 132.117C6.24851 154.63 14.756 180.295 36.2241 192.198C38.6282 193.528 37.679 197.211 34.9467 197.148Z" fill="#824737"/>
<path d="M9.09882 137.147L8.69531 139.072L25.6603 142.719L26.0638 140.795L9.09882 137.147Z" fill="#824737"/>
<path d="M38.0623 177.941L27.3008 193.439L28.8899 194.571L39.6514 179.073L38.0623 177.941Z" fill="#824737"/>
<path d="M27.2397 172.912L14.9482 181.026L16.0092 182.674L28.3007 174.56L27.2397 172.912Z" fill="#824737"/>
<path d="M22.3432 162.833L7.64941 166.996L8.17278 168.89L22.8666 164.728L22.3432 162.833Z" fill="#824737"/>
<path d="M23.2221 150.941L6.64844 153.512L6.94259 155.457L23.5162 152.886L23.2221 150.941Z" fill="#824737"/>
<path d="M247.775 17.9835C269.554 22.2775 283.765 43.631 279.525 65.6853C275.284 87.7395 254.198 102.131 232.419 97.8368C210.64 93.5428 196.429 72.1893 200.669 50.135C204.91 28.0808 225.996 13.6894 247.775 17.9835Z" fill="#824737"/>
<path d="M248.077 7.41973C279.285 -2.69558 307.806 36.2027 291.022 64.6082C289.612 66.9888 285.957 65.6951 286.24 62.9372C288.822 38.2419 272.561 16.7535 248.441 12.5313C245.761 12.0552 245.486 8.26417 248.077 7.41973Z" fill="#824737"/>
<path d="M291.563 53.6395L274.341 55.7189L274.571 57.6725L291.793 55.5931L291.563 53.6395Z" fill="#824737"/>
<path d="M254.779 7.93683L249.518 26.1194L251.382 26.6726L256.643 8.49008L254.779 7.93683Z" fill="#824737"/>
<path d="M270.689 15.0234L261.65 26.729L263.181 27.941L272.219 16.2353L270.689 15.0234Z" fill="#824737"/>
<path d="M282.434 25.354L269.867 34.118L270.969 35.7383L283.536 26.9743L282.434 25.354Z" fill="#824737"/>
<path d="M288.026 37.7156L273.166 45.5995L274.068 47.3423L288.927 39.4583L288.026 37.7156Z" fill="#824737"/>
<path d="M266.092 109.705C266.092 170.298 217.585 219.419 157.758 219.419C97.9222 219.419 49.4238 170.298 49.4238 109.705C49.4238 49.1122 97.9311 1.23198e-06 157.758 1.23198e-06C217.585 -0.00898217 266.092 49.1122 266.092 109.705Z" fill="#DE6111"/>
<mask id="mask0_110_26202" style="mask-type:luminance" maskUnits="userSpaceOnUse" x="49" y="0" width="218" height="220">
<path d="M266.093 109.705C266.093 170.298 217.586 219.419 157.759 219.419C97.9232 219.419 49.4248 170.298 49.4248 109.705C49.4248 49.1122 97.9321 1.23198e-06 157.759 1.23198e-06C217.586 -0.00898217 266.093 49.1122 266.093 109.705Z" fill="white"/>
</mask>
<g mask="url(#mask0_110_26202)">
<path d="M64.7713 226.508C62.7131 214.192 62.4293 201.66 63.9285 189.272C65.0462 179.902 67.2108 170.586 69.2955 161.576C70.2269 157.569 71.1585 153.545 72.0012 149.52C82.6821 98.6294 79.6924 44.8367 77.0577 -2.62259L79.0006 -2.73938C81.6442 44.8457 84.6425 98.773 73.8996 149.916C73.0479 153.958 72.1165 157.983 71.185 162.016C69.1092 170.982 66.9624 180.244 65.8447 189.514C64.3721 201.705 64.6559 214.039 66.6785 226.167L64.7713 226.508Z" fill="#AB5616"/>
<path d="M86.1323 235.447C82.2822 219.322 83.5419 202.272 85.1564 186.191C86.7089 170.74 88.6605 155.01 90.5412 139.801C96.8752 88.6497 103.431 35.7554 96.1743 -15.7824L98.0994 -16.0609C105.391 35.7464 98.8268 88.7665 92.4662 140.053C90.5855 155.253 88.6339 170.965 87.0904 186.389C85.4847 202.299 84.2427 219.17 88.0218 234.998L86.1323 235.447Z" fill="#AB5616"/>
<path d="M115.052 97.3718C115.017 97.3718 114.981 97.3718 114.946 97.3718C112.311 97.3269 109.392 95.5572 109.215 91.7842C108.86 82.5941 109.792 73.485 110.705 64.6813C111.663 55.3475 112.657 45.7083 112.098 36.2398C111.841 31.9098 111.264 27.4361 110.705 23.1151C109.224 11.7241 107.698 -0.0622228 111.823 -10.8962L113.633 -10.1864C109.685 0.18042 111.184 11.7151 112.63 22.8635C113.198 27.2205 113.784 31.73 114.041 36.1319C114.609 45.7531 113.606 55.4822 112.63 64.8878C111.734 73.6287 110.803 82.657 111.14 91.5326C111.273 94.2187 113.163 95.3776 114.972 95.4135C114.999 95.4135 115.026 95.4135 115.052 95.4135C116.933 95.4135 118.884 94.2636 119.097 91.6853C122.735 47.4151 129.086 2.91129 137.984 -40.5953C138.321 -42.2483 138.552 -43.7035 137.94 -44.8174C137.665 -45.3205 136.99 -45.6978 136.361 -45.6978C135.997 -45.6978 135.749 -45.5721 135.624 -45.3386L133.93 -46.2818C134.4 -47.1532 135.287 -47.6562 136.361 -47.6562H136.37C137.709 -47.6562 139.031 -46.8926 139.652 -45.7517C140.654 -43.9101 140.211 -41.7541 139.891 -40.1821C131.011 3.2527 124.669 47.6846 121.04 91.8739C120.721 95.656 117.74 97.3718 115.052 97.3718Z" fill="#AB5616"/>
<path d="M48.4377 181.986L46.5127 181.707L52.9886 137.365C53.6628 132.775 54.3458 128.023 55.7741 123.441C56.6967 120.486 57.9299 117.62 59.1186 114.844C59.8017 113.245 60.4847 111.655 61.1145 110.029C67.4131 93.8589 67.9985 75.8292 62.7912 59.2638L64.6452 58.6708C69.9856 75.6584 69.3735 94.1552 62.9242 110.748C62.2855 112.392 61.5936 114.009 60.8928 115.626C59.7218 118.357 58.5153 121.177 57.6281 124.034C56.2442 128.472 55.5701 133.134 54.9048 137.653L48.4377 181.986Z" fill="#AB5616"/>
<path d="M256.05 167.819L255.695 123.001C255.66 118.338 255.615 113.523 256.325 108.807C256.786 105.744 257.567 102.725 258.312 99.7965C258.747 98.1076 259.182 96.4187 259.554 94.7208C263.307 77.7601 261.151 59.8562 253.478 44.306L255.216 43.4257C263.094 59.3802 265.303 77.7512 261.453 95.1521C261.071 96.8769 260.628 98.5837 260.193 100.3C259.457 103.174 258.694 106.148 258.25 109.103C257.558 113.658 257.603 118.392 257.638 122.974L257.993 167.792L256.05 167.819Z" fill="#AB5616"/>
<path d="M136.927 269.969L135.969 266.268C128.793 238.375 126.007 200.923 123.541 167.873C122.68 156.338 121.864 145.442 120.915 135.542C119.948 125.427 111.219 111.332 107.972 111.305C107.227 111.305 106.961 112.967 106.881 113.685L106.455 118.357C105.169 132.64 104.947 134.976 104.938 135.057C101.558 163.444 102.924 208.056 112.15 234.791L110.314 235.437C101.008 208.424 99.6065 163.426 103.013 134.805C103.04 134.518 103.962 124.367 104.521 118.177C104.761 115.473 104.938 113.524 104.947 113.488C105.319 110.065 106.792 109.346 107.963 109.346H107.981C112.842 109.382 121.873 125.184 122.84 135.353C123.789 145.271 124.605 156.177 125.466 167.729C127.808 199.18 130.451 234.629 136.883 261.902C143.563 232.275 142.037 201.13 140.573 170.963C140.139 162.061 139.686 152.844 139.456 143.825C137.921 83.6178 146.047 23.1415 153.206 -30.2199L153.286 -30.8038L153.836 -31.0105C155.796 -31.7292 157.704 -31.4776 159.354 -30.2828C162.929 -27.6956 164.694 -21.2365 164.588 -16.1878C164.295 -1.75149 162.325 20.5273 160.409 42.0785C158.502 63.5937 156.524 85.8457 156.24 100.21C156.187 102.842 158.05 104.289 159.904 104.558C161.758 104.819 163.913 103.965 164.579 101.441C168.659 85.9085 174.434 62.6953 180.032 40.2548C185.621 17.8053 191.405 -5.41675 195.433 -20.7604L196.098 -23.2848L197.242 -20.949C212.474 10.1875 200.746 48.4208 192.177 76.3413C174.009 135.551 156.621 203.645 180.307 262.765C180.769 262.738 181.194 262.558 181.594 262.244C183.128 261.022 183.9 258.093 184.095 255.955L194.882 137.428C195.113 134.85 197.242 133.637 199.176 133.727C201.075 133.835 202.973 135.263 202.929 137.779C202.893 139.665 202.609 141.642 202.157 143.348C196.967 162.618 199.46 183.63 208.988 201.022C209.875 202.63 211.64 203.555 213.272 203.169C214.754 202.863 215.162 201.723 215.606 200.007C226.535 158.369 230.784 115.455 228.247 72.4513L227.936 67.4297C226.473 44.1267 224.965 20.0242 238.679 1.9406L240.223 3.1444C226.952 20.6441 228.433 44.3603 229.87 67.3129L230.181 72.3347C232.736 115.545 228.46 158.665 217.477 200.51C217.06 202.109 216.422 204.516 213.654 205.091C211.179 205.639 208.562 204.319 207.275 201.956C197.508 184.133 194.953 162.573 200.267 142.818C200.684 141.264 200.933 139.459 200.977 137.734C201.004 136.305 199.957 135.73 199.061 135.685C198.041 135.578 196.932 136.198 196.808 137.608L186.02 256.126C185.905 257.42 185.319 261.777 182.791 263.789C181.833 264.561 180.662 264.885 179.491 264.687L178.941 264.597L178.737 264.085C154.457 204.229 171.986 135.488 190.314 75.7483C198.555 48.8789 209.768 12.3434 196.612 -17.6432C192.629 -2.36239 187.182 19.5301 181.895 40.7399C176.306 63.1894 170.522 86.4116 166.495 101.755C165.475 105.618 162.237 106.858 159.62 106.516C157.003 106.139 154.208 103.992 154.279 100.183C154.572 85.7468 156.541 63.468 158.458 41.9169C160.365 20.4016 162.343 -1.85036 162.627 -16.2148C162.716 -20.6975 161.083 -26.5816 158.2 -28.6747C157.216 -29.3844 156.169 -29.5911 155.016 -29.3216C147.883 23.8152 139.846 83.9771 141.363 143.789C141.594 152.79 142.046 161.989 142.481 170.892C144.024 202.522 145.621 235.231 137.814 266.295L136.927 269.969Z" fill="#AB5616"/>
<path d="M252.572 176.31C244.393 159.358 243.231 139.604 242.202 122.167C239.78 81.0231 239.248 44.5056 257.496 14.1506L259.146 15.1747C241.199 45.0445 241.732 81.2476 244.136 122.059C245.147 139.307 246.3 158.855 254.302 175.457L252.572 176.31Z" fill="#AB5616"/>
<path d="M200.667 127.781C200.285 127.781 199.904 127.71 199.54 127.566C196.24 126.281 193.951 124.161 192.745 121.251C189.4 113.192 194.9 100.274 199.753 88.8743C203.151 80.897 206.353 73.369 206.025 68.8593C203.736 37.7498 213.61 6.46959 222.312 -21.1274L223.936 -26.266L224.211 -20.8759C225.861 11.7967 215.428 113.686 203.612 126.263C202.672 127.269 201.678 127.781 200.667 127.781ZM222.428 -15.0097C214.257 11.0242 205.847 40.0226 207.968 68.7066C208.331 73.7014 205.031 81.454 201.545 89.6469C196.843 100.687 191.512 113.201 194.537 120.487C195.548 122.912 197.411 124.628 200.241 125.733C200.392 125.787 200.534 125.814 200.667 125.814C201.128 125.814 201.642 125.509 202.21 124.907C212.864 113.561 222.729 21.6695 222.428 -15.0097Z" fill="#AB5616"/>
<path d="M154.491 249.937C148.166 209.278 145.434 167.802 146.374 126.649C146.481 123.334 148.885 121.906 151.076 121.906C153.453 121.906 155.866 123.558 155.884 126.703L156.425 249.793L154.491 249.937ZM151.076 123.873C149.843 123.873 148.379 124.574 148.317 126.55C147.483 163.094 149.532 199.792 154.42 235.941L153.941 126.712C153.932 124.744 152.495 123.873 151.076 123.873Z" fill="#AB5616"/>
</g>
</svg>
