<svg width="466" height="313" viewBox="0 0 466 313" fill="none" xmlns="http://www.w3.org/2000/svg">
<path d="M350.071 51.692C344.759 22.696 296.915 0 238.669 0C180.423 0 132.579 22.696 127.267 51.692H126.769V112.607H212.887C221.164 113.603 229.795 114.132 238.668 114.132C247.541 114.132 256.172 113.603 264.449 112.607H350.567V51.692H350.071Z" fill="#CADBE0"/>
<path d="M340.736 53.0389C335.87 27.7179 292.034 7.89795 238.669 7.89795C185.303 7.89795 141.468 27.7179 136.602 53.0389H136.146V106.235H341.192V53.0389H340.736Z" fill="#AFBCBF"/>
<path d="M465.02 101.689H0V312.944H465.02V101.689Z" fill="#CADBE0"/>
<path d="M453.241 110.168H11.7793V304.466H453.241V110.168Z" fill="#AFBCBF"/>
</svg>
