<svg width="270" height="269" viewBox="0 0 270 269" fill="none" xmlns="http://www.w3.org/2000/svg">
<path d="M152.933 22.2329H97.3174V122.086H152.933V22.2329Z" fill="#BA4545"/>
<path d="M127.491 72.1599L97.3174 121.107H166.841L154.373 72.1599H127.491Z" fill="#893131"/>
<path d="M97.3174 121.107L128.083 72.1599L97.3174 21.2539V121.107Z" fill="#C6605C"/>
<path d="M268.576 0H144.273V268.392H268.576V0Z" fill="#C6605C"/>
<path d="M206.425 225.425L269.325 268.392V0L206.425 38.257V225.425Z" fill="#893131"/>
<path d="M206.424 37.669L269.324 0H145.022L206.424 37.669Z" fill="#C64F4F"/>
<path d="M206.086 224.45L144.68 267.992L145.238 268.78L206.645 225.238L206.086 224.45Z" fill="#606063"/>
<path d="M269.326 143.34H0.933594V267.643H269.326V143.34Z" fill="#C64F4F"/>
<path d="M43.8995 205.492L0.933594 268.392H269.325L231.068 205.492H43.8995Z" fill="#893131"/>
<path d="M269.324 268.392V144.089L231.656 205.492L269.324 268.392Z" fill="#BA4545"/>
<path d="M0.933594 268.392L44.4875 205.492L0.933594 144.089V268.392Z" fill="#C6605C"/>
</svg>
