<svg width="218" height="159" viewBox="0 0 218 159" fill="none" xmlns="http://www.w3.org/2000/svg">
<path d="M133.38 0H84.6172V48.3688H133.38V0Z" fill="#BA4545"/>
<path d="M85.0947 54.5438L108.999 49.6214V26.2423L85.0947 0V54.5438Z" fill="#C6605C"/>
<path d="M108.999 43.2667L133.859 48.3688V0L108.999 26.7573V43.2667Z" fill="#893131"/>
<path d="M218 55.0583H0V140.476H218V55.0583Z" fill="#A83939"/>
<path d="M31.075 97.7668H183.101L218 54.5437H0L31.075 97.7668Z" fill="#C64F4F"/>
<path d="M31.075 97.7668L0 140.476L218 139.961L182.623 97.7668H31.075Z" fill="#893131"/>
<path d="M165.89 36.5337H52.1094V159H165.89V36.5337Z" fill="#A83939"/>
<path d="M52.5879 158.486H165.413L109 97.7668L52.5879 158.486Z" fill="#893131"/>
<path d="M109 97.7669L165.413 37.0481H52.5879L109 97.7669Z" fill="#C64F4F"/>
</svg>
