<svg width="399" height="271" viewBox="0 0 399 271" fill="none" xmlns="http://www.w3.org/2000/svg">
<path d="M243.675 0.569336H154.59V82.6674H243.675V0.569336Z" fill="#BA4545"/>
<path d="M155.463 93.1484L199.133 84.7933V45.1113L155.463 0.569336V93.1484Z" fill="#C6605C"/>
<path d="M199.133 74.0073L244.549 82.6674V0.569336L199.133 45.9854V74.0073Z" fill="#893131"/>
<path d="M398.265 94.0215H0V239.003H398.265V94.0215Z" fill="#A83939"/>
<path d="M56.771 166.512H334.508L398.265 93.1484H0L56.771 166.512Z" fill="#C64F4F"/>
<path d="M56.771 166.512L0 239.003L398.265 238.13L333.634 166.512H56.771Z" fill="#893131"/>
<path d="M303.066 62.5793H95.2002V270.445H303.066V62.5793Z" fill="#A83939"/>
<path d="M96.0732 269.572H302.193L199.133 166.512L96.0732 269.572Z" fill="#893131"/>
<path d="M199.133 166.512L302.193 63.4524H96.0732L199.133 166.512Z" fill="#C64F4F"/>
</svg>
