<svg width="82" height="83" viewBox="0 0 82 83" fill="none" xmlns="http://www.w3.org/2000/svg">
<path d="M9.88708 20.3341C9.88708 20.3341 7.5341 20.0011 5.1571 19.8661C3.9691 19.7901 2.7771 19.7981 1.8851 19.7601C0.876101 19.7551 0.204102 19.7521 0.204102 19.7521V0.204102C0.204102 0.204102 0.912098 0.207105 1.9751 0.212105C3.1521 0.250105 4.7221 0.252105 6.2901 0.350105C7.8551 0.482105 9.4271 0.5501 10.5961 0.7201C11.7671 0.8681 12.5471 0.967102 12.5471 0.967102L9.88708 20.3341Z" fill="#D6562B"/>
<path d="M10.061 20.563L9.85901 20.535C9.83601 20.532 7.48602 20.202 5.14502 20.068C4.41202 20.021 3.66701 20.006 3.01001 19.993C2.60001 19.985 2.216 19.977 1.875 19.963L0 19.954V0L1.97501 0.00900269C2.35001 0.0210027 2.75901 0.030002 3.19501 0.038002C4.14601 0.058002 5.223 0.0800032 6.302 0.147003C6.825 0.191003 7.34501 0.228 7.85001 0.264C8.87101 0.336 9.83599 0.405005 10.624 0.519005L12.775 0.791L12.747 0.995003L10.061 20.563ZM0.407013 19.55L1.88602 19.557C2.23102 19.572 2.61201 19.579 3.01901 19.587C3.68001 19.601 4.43001 19.616 5.17001 19.663C7.12801 19.774 9.09202 20.022 9.71402 20.105L12.318 1.14301L10.571 0.922005C9.79401 0.809005 8.837 0.741006 7.823 0.670006C7.315 0.634006 6.79501 0.597001 6.27301 0.553001C5.20801 0.487001 4.13401 0.465 3.18701 0.445C2.75001 0.436 2.33902 0.427 1.96802 0.416L0.407013 0.409004V19.55Z" fill="#42210B"/>
<path d="M19.4899 22.4479C19.4899 22.4479 18.9189 22.2869 18.0619 22.0459C17.6339 21.9249 17.1339 21.7829 16.5999 21.6319C16.0569 21.5069 15.4789 21.3749 14.9009 21.2419C13.7519 20.9449 12.5739 20.7769 11.6999 20.6109C10.8259 20.4379 10.2339 20.3779 10.2339 20.3779L13.0049 1.02686C13.0049 1.02686 13.7869 1.11385 14.9469 1.33485C16.1079 1.54885 17.6639 1.78886 19.1929 2.17186C19.9599 2.34986 20.7259 2.52686 21.4449 2.69386C22.1559 2.89286 22.8189 3.07785 23.3879 3.23685C24.5229 3.56085 25.2809 3.77785 25.2809 3.77785L19.4899 22.4479Z" fill="#D6562B"/>
<path d="M19.6249 22.697L16.5439 21.827L14.8549 21.44C14.0239 21.225 13.1859 21.08 12.4469 20.951C12.1669 20.902 11.9029 20.856 11.6619 20.811C10.8079 20.642 10.2199 20.581 10.2139 20.58L10.0029 20.559L12.8329 0.803955L13.0279 0.825958C13.0359 0.826958 13.8319 0.915956 14.9859 1.13596C15.2479 1.18396 15.5299 1.23396 15.8289 1.28596C16.8719 1.46996 18.0539 1.67696 19.2439 1.97496L21.4919 2.49596L25.5379 3.63995L19.6249 22.697ZM10.4639 20.2C10.7119 20.232 11.1629 20.298 11.7379 20.412C11.9759 20.457 12.2379 20.503 12.5159 20.551C13.2619 20.681 14.1089 20.828 14.9509 21.046L16.6439 21.435L19.3529 22.2L25.0249 3.91695L21.3899 2.89096L19.1469 2.36996C17.9679 2.07496 16.7939 1.86796 15.7569 1.68596C15.4569 1.63296 15.1729 1.58296 14.9089 1.53496C14.1029 1.38096 13.4769 1.29196 13.1769 1.25296L10.4639 20.2Z" fill="#42210B"/>
<path d="M28.6008 26.1401C28.6008 26.1401 28.4688 26.0721 28.2388 25.9531C28.0088 25.8331 27.6798 25.6591 27.2698 25.4851C26.4498 25.1401 25.3958 24.5871 24.2798 24.1791C23.1768 23.7411 22.0768 23.2971 21.2248 23.0361C20.3818 22.7501 19.8208 22.5591 19.8208 22.5591L25.7218 3.9231C25.7218 3.9231 26.4678 4.17409 27.5858 4.55209C28.7138 4.90709 30.1788 5.48609 31.6408 6.07009C33.1168 6.62309 34.5238 7.33509 35.6068 7.80309C36.1478 8.04009 36.5838 8.2661 36.8908 8.4241C37.1978 8.5801 37.3718 8.6701 37.3718 8.6701L28.6008 26.1401Z" fill="#D6562B"/>
<path d="M28.6909 26.414L28.1459 26.133C27.8759 25.993 27.5689 25.832 27.1909 25.671C26.8899 25.545 26.5589 25.391 26.2039 25.226C25.5989 24.944 24.9119 24.625 24.2109 24.37L23.9199 24.254C22.8989 23.849 21.9369 23.466 21.1659 23.231L19.5669 22.688L19.6269 22.498L25.5909 3.66504L27.6519 4.36004C28.7669 4.71104 30.2119 5.28004 31.7159 5.88104C32.7089 6.25304 33.6739 6.69804 34.5259 7.09104C34.9419 7.28304 35.3329 7.46304 35.6879 7.61704C36.2109 7.84604 36.6339 8.06404 36.9429 8.22304L37.6449 8.58104L37.5539 8.76104L28.6909 26.414ZM20.0749 22.431L21.2909 22.844C22.0709 23.082 23.0419 23.468 24.0689 23.877L24.3549 23.99C25.0669 24.25 25.7619 24.573 26.3759 24.858C26.7259 25.021 27.0529 25.172 27.3499 25.297C27.7429 25.464 28.0589 25.629 28.2899 25.75L28.5129 25.865L37.1009 8.76004L36.7999 8.60604C36.4539 8.42804 36.0369 8.21304 35.5269 7.99004C35.1699 7.83504 34.7759 7.65404 34.3569 7.46104C33.5109 7.07104 32.5529 6.63004 31.5709 6.26104C30.0689 5.66104 28.6319 5.09504 27.5269 4.74704L25.8539 4.18304L20.0749 22.431Z" fill="#42210B"/>
<path d="M37.0059 31.2569C37.0059 31.2569 36.5219 30.9129 35.7949 30.3959C35.0799 29.8619 34.0509 29.2649 33.0619 28.6069C32.0419 27.9989 31.0069 27.4149 30.2349 26.9729C29.4409 26.5689 28.9128 26.2989 28.9128 26.2989L37.7859 8.88086C37.7859 8.88086 38.4859 9.24086 39.5359 9.77986C40.5629 10.3599 41.9349 11.1329 43.2819 11.9439C44.5989 12.8019 45.9499 13.6129 46.9019 14.3099C47.8629 14.9929 48.5038 15.4489 48.5038 15.4489L37.0059 31.2569Z" fill="#D6562B"/>
<path d="M37.0519 31.539L35.6769 30.562C35.2419 30.237 34.6889 29.888 34.1029 29.517C33.7259 29.279 33.3339 29.032 32.9499 28.776C32.1489 28.298 31.3299 27.831 30.6399 27.438L30.1339 27.149L28.6389 26.387L28.7319 26.206L37.6969 8.60596L39.6289 9.59895C40.6529 10.177 42.0389 10.959 43.3869 11.769C43.8279 12.056 44.2669 12.334 44.6939 12.605C45.5609 13.155 46.3809 13.675 47.0229 14.145L48.7899 15.401L48.6689 15.567L37.0519 31.539ZM29.1859 26.21L30.3269 26.792L30.8419 27.086C31.5329 27.481 32.3549 27.949 33.1669 28.434C33.5579 28.694 33.9459 28.939 34.3199 29.175C34.9129 29.55 35.4729 29.904 35.9169 30.235L36.9609 30.977L48.2189 15.497L46.7849 14.477C46.1499 14.013 45.3369 13.497 44.4759 12.951C44.0479 12.68 43.6079 12.4 43.1709 12.115C41.8349 11.311 40.4519 10.531 39.4429 9.96196L37.8759 9.15596L29.1859 26.21Z" fill="#42210B"/>
<path d="M44.479 37.673C44.479 37.673 44.375 37.566 44.196 37.378C44.007 37.199 43.738 36.943 43.415 36.636C42.774 36.015 41.916 35.193 41 34.433C40.118 33.634 39.175 32.91 38.473 32.361C38.122 32.086 37.83 31.856 37.626 31.696C37.413 31.546 37.292 31.46 37.292 31.46L48.881 15.718C48.881 15.718 49.041 15.832 49.322 16.032C49.593 16.243 49.98 16.546 50.445 16.908C51.376 17.633 52.617 18.598 53.789 19.648C54.994 20.659 56.134 21.741 56.981 22.562C57.407 22.97 57.761 23.309 58.01 23.547C58.248 23.794 58.385 23.936 58.385 23.936L44.479 37.673Z" fill="#D6562B"/>
<path d="M44.4749 37.962L44.0489 37.518L43.2749 36.784C42.5309 36.063 41.7249 35.299 40.8699 34.59C40.0739 33.869 39.2359 33.215 38.5619 32.69L37.0049 31.506L37.1279 31.34L48.8349 15.437L49.4389 15.868L50.5689 16.749C51.5129 17.485 52.7599 18.457 53.9229 19.498C55.1309 20.511 56.2669 21.59 57.1209 22.417L58.6689 23.94L44.4749 37.962ZM37.5769 31.413L37.7419 31.529L38.8109 32.368C39.4899 32.898 40.3339 33.557 41.1349 34.282C41.9939 34.994 42.8059 35.764 43.5549 36.489L44.4819 37.383L58.0979 23.93L57.8619 23.686L56.8389 22.707C55.9889 21.885 54.8599 20.811 53.6559 19.803C52.4989 18.767 51.2589 17.8 50.3529 17.095L48.9239 15.999L37.5769 31.413Z" fill="#42210B"/>
<path d="M50.8 45.226C50.8 45.226 50.456 44.741 49.942 44.014C49.386 43.317 48.668 42.369 47.912 41.452C46.387 39.626 44.72 37.928 44.72 37.928L58.705 24.27C58.705 24.27 60.909 26.514 62.923 28.931C63.925 30.142 64.88 31.392 65.607 32.32C66.293 33.28 66.749 33.921 66.749 33.921L50.8 45.226Z" fill="#D6562B"/>
<path d="M50.752 45.5089L49.7749 44.1309C49.5889 43.8989 49.3779 43.6269 49.1509 43.3369C48.7239 42.7909 48.2469 42.1799 47.7539 41.5819C46.2519 39.7839 44.5899 38.0869 44.5729 38.0699L44.4299 37.9249L44.575 37.7819L58.705 23.9829L58.847 24.1279C58.869 24.1499 61.08 26.4049 63.076 28.8009C63.854 29.7409 64.59 30.6869 65.239 31.5219L65.7629 32.1949L67.028 33.9679L50.752 45.5089ZM45.006 37.9309C45.442 38.3829 46.81 39.8159 48.067 41.3209C48.563 41.9239 49.0429 42.5369 49.4709 43.0859C49.6969 43.3749 49.9079 43.6459 50.0999 43.8869L50.847 44.9429L66.463 33.8729L65.4399 32.4379L64.92 31.7709C64.273 30.9379 63.538 29.9949 62.765 29.0599C61.07 27.0249 59.218 25.0919 58.7 24.5569L45.006 37.9309Z" fill="#42210B"/>
<path d="M55.8289 53.6838C55.8289 53.6838 55.5579 53.1558 55.1499 52.3638C54.7669 51.5588 54.1689 50.5328 53.5739 49.5048C53.0069 48.4608 52.3059 47.4958 51.8459 46.7338C51.6129 46.3528 51.3919 46.0548 51.2409 45.8438C51.0899 45.6318 51.0039 45.5118 51.0039 45.5118L67.0169 34.2988C67.0169 34.2988 67.1299 34.4598 67.3289 34.7398C67.5269 35.0208 67.8169 35.4178 68.1299 35.9188C68.7509 36.9218 69.6559 38.2108 70.4199 39.5878C71.2109 40.9478 71.9929 42.3138 72.5099 43.3758C73.0469 44.4268 73.4059 45.1268 73.4059 45.1268L55.8289 53.6838Z" fill="#D6562B"/>
<path d="M55.74 53.9529L54.97 52.4559C54.608 51.6949 54.039 50.7129 53.491 49.7649L53.399 49.6059C53.04 48.9459 52.625 48.3119 52.258 47.7539C52.043 47.4259 51.842 47.1179 51.672 46.8379C51.477 46.5179 51.291 46.2609 51.143 46.0549L50.719 45.4609L67.066 34.0149L67.596 34.7649C67.781 35.0259 68.036 35.3839 68.301 35.8089C68.506 36.1389 68.741 36.4989 68.991 36.8839C69.503 37.6689 70.082 38.5579 70.597 39.4869C71.329 40.7459 72.158 42.1859 72.692 43.2849L73.68 45.2169L55.74 53.9529ZM51.287 45.5599L51.472 45.8179C51.617 46.0189 51.815 46.2939 52.019 46.6279C52.186 46.9049 52.385 47.2089 52.597 47.5319C52.968 48.0969 53.388 48.7379 53.752 49.4079L53.841 49.5619C54.42 50.5619 54.966 51.5059 55.333 52.2769L55.918 53.4149L73.128 45.0349L72.327 43.4679C71.797 42.3779 70.973 40.9459 70.242 39.6899C69.731 38.7699 69.157 37.8869 68.649 37.1079C68.397 36.7209 68.161 36.3579 67.955 36.0259C67.696 35.6109 67.457 35.2729 67.264 35.0019L66.966 34.5809L51.287 45.5599Z" fill="#42210B"/>
<path d="M59.3821 62.849C59.3821 62.849 59.3421 62.706 59.2721 62.456C59.2091 62.203 59.0901 61.852 58.9441 61.432C58.6421 60.595 58.3181 59.452 57.8511 58.359C57.6341 57.807 57.4171 57.254 57.2131 56.737C57.0011 56.223 56.7731 55.756 56.5931 55.349C56.2281 54.537 55.9851 53.996 55.9851 53.996L73.6091 45.541C73.6091 45.541 73.9341 46.258 74.4221 47.333C74.6601 47.873 74.9571 48.495 75.2391 49.176C75.5111 49.862 75.8001 50.594 76.0901 51.326C76.6961 52.78 77.1491 54.291 77.5401 55.405C77.7301 55.964 77.8861 56.431 77.9731 56.764C78.0681 57.095 78.1221 57.284 78.1221 57.284L59.3821 62.849Z" fill="#D6562B"/>
<path d="M59.242 63.103L59.076 62.512C59.012 62.252 58.886 61.885 58.752 61.5C58.652 61.224 58.549 60.912 58.439 60.579C58.22 59.915 57.972 59.163 57.664 58.44L57.024 56.813C56.89 56.488 56.748 56.18 56.617 55.895C56.543 55.733 56.472 55.579 56.407 55.432L55.718 53.899L73.708 45.269L74.606 47.25C74.687 47.432 74.773 47.622 74.863 47.82C75.043 48.216 75.238 48.645 75.427 49.1L76.279 51.253C76.71 52.285 77.061 53.342 77.372 54.274C77.499 54.655 77.618 55.014 77.732 55.339C77.903 55.84 78.077 56.357 78.17 56.715L78.374 57.424L59.242 63.103ZM56.251 54.094L56.778 55.266C56.842 55.412 56.913 55.565 56.986 55.724C57.119 56.014 57.263 56.327 57.4 56.66L58.03 58.26C58.353 59.018 58.603 59.779 58.825 60.45C58.933 60.779 59.035 61.087 59.135 61.363C59.273 61.759 59.402 62.136 59.469 62.407L59.522 62.595L77.872 57.149L77.778 56.821C77.687 56.472 77.516 55.964 77.348 55.471C77.234 55.146 77.114 54.785 76.986 54.401C76.678 53.475 76.329 52.426 75.903 51.404L75.051 49.25C74.866 48.802 74.672 48.378 74.494 47.986C74.403 47.787 74.316 47.596 74.236 47.414L73.508 45.813L56.251 54.094Z" fill="#42210B"/>
<path d="M61.3911 72.4739C61.3911 72.4739 61.317 71.8849 61.206 70.9999C61.05 70.1239 60.843 68.9549 60.636 67.7859C60.356 66.6329 60.12 65.4689 59.884 64.6109C59.64 63.7559 59.478 63.1849 59.478 63.1849L78.249 57.7319C78.249 57.7319 78.464 58.4899 78.785 59.6259C79.096 60.7649 79.423 62.3059 79.781 63.8389C80.068 65.3859 80.35 66.9349 80.537 68.0999C80.687 69.2699 80.787 70.0499 80.787 70.0499L61.3911 72.4739Z" fill="#D6562B"/>
<path d="M61.215 72.701L61.005 71.026L60.437 67.828C60.326 67.369 60.22 66.902 60.119 66.453C59.97 65.795 59.829 65.173 59.689 64.665L59.2271 63.046L59.4211 62.99L78.389 57.48L78.981 59.571C79.198 60.366 79.4211 61.349 79.6581 62.391C79.7621 62.851 79.87 63.323 79.979 63.793C80.247 65.231 80.543 66.855 80.738 68.068L81.015 70.227L61.215 72.701ZM59.729 63.324L60.08 64.556C60.223 65.075 60.364 65.7 60.515 66.363C60.617 66.81 60.722 67.275 60.834 67.738L61.407 70.965L61.567 72.248L80.56 69.875L80.336 68.127C80.143 66.924 79.847 65.303 79.582 63.877C79.474 63.415 79.366 62.942 79.262 62.482C79.026 61.445 78.8031 60.466 78.5891 59.681L78.11 57.986L59.729 63.324Z" fill="#42210B"/>
<path d="M61.8808 82.689C61.8808 82.689 61.8808 81.999 61.8808 80.963C61.8808 80.704 61.8808 80.423 61.8808 80.127C61.8738 79.867 61.8668 79.592 61.8598 79.309C61.8448 78.751 61.8308 78.156 61.8158 77.561C61.7938 76.37 61.6488 75.188 61.5998 74.297C61.5778 73.851 61.5178 73.484 61.4868 73.226C61.4538 72.968 61.4338 72.821 61.4338 72.821L80.8448 70.51C80.8448 70.51 80.8688 70.705 80.9118 71.047C80.9528 71.389 81.0248 71.876 81.0618 72.464C81.1368 73.639 81.3108 75.205 81.3468 76.775C81.3678 77.56 81.3868 78.344 81.4058 79.08C81.4138 79.443 81.4218 79.794 81.4288 80.127C81.4288 80.423 81.4288 80.704 81.4288 80.963C81.4288 81.998 81.4288 82.689 81.4288 82.689H61.8808Z" fill="#D6562B"/>
<path d="M81.6318 82.8919H61.6778L61.6568 79.3139L61.6128 77.5659C61.5988 76.8169 61.5358 76.0639 61.4788 75.3989C61.4468 75.0049 61.4158 74.6369 61.3968 74.3079C61.3798 73.9699 61.3408 73.6769 61.3098 73.4419L61.2048 72.6439L81.0208 70.2849L81.1418 71.2509C81.1828 71.5749 81.2348 71.9779 81.2638 72.4519C81.2868 72.8319 81.3228 73.2539 81.3598 73.7039C81.4368 74.6419 81.5248 75.7049 81.5488 76.7699L81.6298 80.9629V82.8919H81.6318ZM62.0838 82.4859H81.2258L81.1918 78.6149L81.1448 76.7799C81.1208 75.7259 81.0338 74.6689 80.9568 73.7369C80.9188 73.2839 80.8848 72.8599 80.8588 72.4769C80.8308 72.0159 80.7808 71.6199 80.7398 71.3019L80.6688 70.7359L61.6618 72.9989L61.7128 73.3889C61.7448 73.6309 61.7848 73.9329 61.8038 74.2869C61.8208 74.6119 61.8518 74.9749 61.8848 75.3649C61.9418 76.0359 62.0048 76.7959 62.0198 77.5569L62.0838 80.9639V82.4859Z" fill="#42210B"/>
</svg>
