<svg width="20" height="81" viewBox="0 0 20 81" fill="none" xmlns="http://www.w3.org/2000/svg">
<path d="M19.7501 69.323H0.203125V80.434H19.7501V69.323Z" fill="#D6562B"/>
<path d="M19.953 80.638H0V69.12H19.953V80.638ZM0.406006 80.232H19.547V69.527H0.406006V80.232Z" fill="#42210B"/>
<path d="M19.7501 57.804H0.203125V68.9139H19.7501V57.804Z" fill="#D6562B"/>
<path d="M19.953 69.117H0V57.6H19.953V69.117ZM0.406006 68.711H19.547V58.007H0.406006V68.711Z" fill="#42210B"/>
<path d="M19.7501 46.283H0.203125V57.394H19.7501V46.283Z" fill="#D6562B"/>
<path d="M19.953 57.598H0V46.08H19.953V57.598ZM0.406006 57.1909H19.547V46.486H0.406006V57.1909Z" fill="#42210B"/>
<path d="M19.7501 34.7639H0.203125V45.8739H19.7501V34.7639Z" fill="#D6562B"/>
<path d="M19.953 46.077H0V34.5599H19.953V46.077ZM0.406006 45.671H19.547V34.9669H0.406006V45.671Z" fill="#42210B"/>
<path d="M19.7501 23.243H0.203125V34.354H19.7501V23.243Z" fill="#D6562B"/>
<path d="M19.953 34.558H0V23.04H19.953V34.558ZM0.406006 34.152H19.547V23.446H0.406006V34.152Z" fill="#42210B"/>
<path d="M19.7501 11.724H0.203125V22.834H19.7501V11.724Z" fill="#D6562B"/>
<path d="M19.953 23.037H0V11.52H19.953V23.037ZM0.406006 22.631H19.547V11.927H0.406006V22.631Z" fill="#42210B"/>
<path d="M19.7501 0.203003H0.203125V11.314H19.7501V0.203003Z" fill="#D6562B"/>
<path d="M19.953 11.518H0V0H19.953V11.518ZM0.406006 11.111H19.547V0.405991H0.406006V11.111Z" fill="#42210B"/>
</svg>
