<svg width="20" height="116" viewBox="0 0 20 116" fill="none" xmlns="http://www.w3.org/2000/svg">
<path d="M19.7501 103.883H0.203125V114.994H19.7501V103.883Z" fill="#D6562B"/>
<path d="M19.953 115.197H0V103.679H19.953V115.197ZM0.406006 114.791H19.547V104.086H0.406006V114.791Z" fill="#42210B"/>
<path d="M19.7501 92.3628H0.203125V103.473H19.7501V92.3628Z" fill="#D6562B"/>
<path d="M19.953 103.677H0V92.1599H19.953V103.677ZM0.406006 103.271H19.547V92.5659H0.406006V103.271Z" fill="#42210B"/>
<path d="M19.7501 80.843H0.203125V91.954H19.7501V80.843Z" fill="#D6562B"/>
<path d="M19.953 92.1569H0V80.6389H19.953V92.1569ZM0.406006 91.7509H19.547V81.0459H0.406006V91.7509Z" fill="#42210B"/>
<path d="M19.7501 69.323H0.203125V80.434H19.7501V69.323Z" fill="#D6562B"/>
<path d="M19.953 80.6381H0V69.1201H19.953V80.6381ZM0.406006 80.2321H19.547V69.5271H0.406006V80.2321Z" fill="#42210B"/>
<path d="M19.7501 57.8042H0.203125V68.9142H19.7501V57.8042Z" fill="#D6562B"/>
<path d="M19.953 69.1171H0V57.6001H19.953V69.1171ZM0.406006 68.7111H19.547V58.0071H0.406006V68.7111Z" fill="#42210B"/>
<path d="M19.7501 46.2832H0.203125V57.3942H19.7501V46.2832Z" fill="#D6562B"/>
<path d="M19.953 57.5981H0V46.0801H19.953V57.5981ZM0.406006 57.1911H19.547V46.4861H0.406006V57.1911Z" fill="#42210B"/>
<path d="M19.7501 34.7642H0.203125V45.8742H19.7501V34.7642Z" fill="#D6562B"/>
<path d="M19.953 46.0771H0V34.5601H19.953V46.0771ZM0.406006 45.6711H19.547V34.9671H0.406006V45.6711Z" fill="#42210B"/>
<path d="M19.7501 23.2432H0.203125V34.3542H19.7501V23.2432Z" fill="#D6562B"/>
<path d="M19.953 34.558H0V23.04H19.953V34.558ZM0.406006 34.152H19.547V23.446H0.406006V34.152Z" fill="#42210B"/>
<path d="M19.7501 11.7241H0.203125V22.8341H19.7501V11.7241Z" fill="#D6562B"/>
<path d="M19.953 23.037H0V11.52H19.953V23.037ZM0.406006 22.631H19.547V11.927H0.406006V22.631Z" fill="#42210B"/>
<path d="M19.7501 0.203125H0.203125V11.3141H19.7501V0.203125Z" fill="#D6562B"/>
<path d="M19.953 11.518H0V0H19.953V11.518ZM0.406006 11.111H19.547V0.405991H0.406006V11.111Z" fill="#42210B"/>
</svg>
