<svg width="252" height="250" viewBox="0 0 252 250" fill="none" xmlns="http://www.w3.org/2000/svg">
<path d="M12.548 29.3209C5.75601 37.3619 1.10381 47.4829 0.868813 58.0059C0.753813 63.1679 1.86298 68.6769 5.48698 72.3549C11.011 77.9619 20.2889 77.4109 27.6869 74.7209C45.5619 68.2209 59.046 51.0009 61.07 32.0889C61.57 27.4209 61.3729 22.4859 59.1449 18.3539C48.1519 -2.04206 21.483 18.7429 12.548 29.3209Z" fill="#B3C1C4"/>
<path d="M61.2991 107.17C65.9601 116.543 74.9011 123.912 85.2051 125.752C88.2091 126.288 91.374 126.355 94.242 125.314C98.116 123.908 101.052 120.619 103.029 117.003C108.87 106.319 106.998 92.269 99.4761 82.694C93.5891 75.201 74.3792 63.083 64.1522 67.825C52.5472 73.206 57.0971 98.718 61.2991 107.17Z" fill="#B59686"/>
<path d="M15.1399 100.191C11.2699 106.216 10.652 114.203 13.551 120.751C15.031 124.096 17.463 127.129 20.75 128.733C27.386 131.971 35.5409 128.573 40.8259 123.418C45.9719 118.399 49.5601 111.246 48.5471 104.128C46.0481 86.6051 23.1069 87.7871 15.1399 100.191Z" fill="#B3C1C4"/>
<path d="M43.4119 141.5C39.3619 148.245 37.6787 156.161 36.9707 163.997C36.6627 167.395 36.5309 170.852 37.2349 174.191C39.3269 184.115 49.2228 191.485 59.3658 191.615C69.5068 191.744 79.1729 185.244 83.8289 176.233C88.4829 167.222 88.3789 156.147 84.5579 146.752C76.4979 126.937 55.2729 121.747 43.4119 141.5Z" fill="#DDCD97"/>
<path d="M73.3111 37.9951C70.8361 41.6161 69.125 46.5591 71.473 50.2631C72.312 51.5851 73.5772 52.5761 74.8712 53.4571C82.7302 58.8091 92.3021 60.9891 101.716 62.3211C108.499 63.2801 115.445 63.8521 122.167 62.5291C128.889 61.2061 135.428 57.7831 139.282 52.1201C140.758 49.9521 141.826 47.4321 141.883 44.8101C142.018 38.5531 136.57 33.6251 131.067 30.6441C112.865 20.7851 86.2701 19.0301 73.3111 37.9951Z" fill="#B59686"/>
<path d="M16.6809 181.256C17.7219 182.545 18.9639 183.794 20.5659 184.219C22.7769 184.805 25.16 183.621 26.616 181.857C28.073 180.093 28.7839 177.845 29.3999 175.642C31.4049 168.472 35.0159 138.587 18.9519 144.445C6.06293 149.146 10.4629 173.562 16.6809 181.256Z" fill="#B59686"/>
<path d="M98.4689 161.266C97.6329 166.878 97.2067 172.637 98.3067 178.203C99.4077 183.769 102.176 189.173 106.745 192.54C113.021 197.167 121.899 197.227 129.011 194.027C136.122 190.828 141.637 184.806 145.751 178.181C153.004 166.5 156.212 150.959 149.231 139.112C143.04 128.603 128.516 123.454 116.877 127.124C103.977 131.191 100.27 149.173 98.4689 161.266Z" fill="#CADBE0"/>
<path d="M61.004 222.066C59.311 225.913 57.9661 229.997 57.9081 234.2C57.8491 238.402 59.2152 242.76 62.2672 245.648C65.5532 248.755 70.3102 249.783 74.8312 249.864C82.5062 250.002 90.2061 247.725 96.5731 243.437C105.9 237.154 112.255 225.946 110.991 214.771C109.816 204.377 99.2262 192.059 87.7562 193.292C75.8782 194.568 65.267 212.383 61.004 222.066Z" fill="#B3C1C4"/>
<path d="M17.9761 225.653C19.7301 231.252 23.242 236.526 28.449 239.23C33.656 241.934 40.6551 241.519 44.7801 237.346C46.5541 235.55 47.6961 233.232 48.6731 230.904C51.5781 223.984 53.185 215.676 49.333 209.235C44.923 201.86 30.081 196.116 21.7 199.637C12.63 203.448 15.5911 218.034 17.9761 225.653Z" fill="#CADBE0"/>
<path d="M120.602 82.1921C115.716 88.1741 113.428 95.9521 112.916 103.659C112.793 105.509 112.775 107.424 113.459 109.147C114.757 112.418 118.223 114.234 121.522 115.456C133.961 120.062 148.037 120.096 160.499 115.552C166.266 113.449 171.783 110.32 175.832 105.706C179.881 101.092 182.324 94.8611 181.527 88.7751C180.476 80.7521 173.922 74.2031 166.347 71.3581C152.309 66.0861 130.378 70.2191 120.602 82.1921Z" fill="#B3C1C4"/>
<path d="M117.693 232.003C116.5 234.576 115.737 237.53 116.558 240.246C118.102 245.343 124.221 247.297 129.505 247.957C142.039 249.523 154.739 248.185 167.275 246.631C171.334 246.127 175.465 245.58 179.171 243.848C182.876 242.116 186.153 238.982 187.021 234.984C188.219 229.466 184.434 223.811 179.468 221.122C174.502 218.433 168.635 218.082 162.989 218.043C149.608 217.952 124.41 217.526 117.693 232.003Z" fill="#B59686"/>
<path d="M138.873 199.989C139.479 204.428 144.405 206.752 148.732 207.913C154.865 209.559 161.195 210.473 167.544 210.63C170.004 210.691 172.51 210.632 174.849 209.87C181.898 207.573 185.594 198.815 183.431 191.724C181.268 184.633 174.342 179.633 167.024 178.45C155.91 176.653 136.997 186.26 138.873 199.989Z" fill="#DDCD97"/>
<path d="M191.624 203.361C191.346 214.64 192.234 227.046 200.008 235.222C202.769 238.126 206.435 240.355 210.432 240.641C215.344 240.993 220.128 238.328 223.287 234.551C226.447 230.774 228.183 226.006 229.336 221.219C230.914 214.67 231.5 207.752 229.889 201.211C228.279 194.67 224.266 188.536 218.325 185.359C213.452 182.754 202.512 179.864 197.482 183.277C192.017 186.986 191.767 197.601 191.624 203.361Z" fill="#B3C1C4"/>
<path d="M178.337 161.465C176.632 167.9 179.574 175.875 185.92 177.891C189.615 179.065 193.625 178.098 197.322 176.929C208.049 173.538 218.644 168.127 225.23 159.006C227.623 155.691 229.464 151.385 227.966 147.58C226.5 143.856 222.322 141.937 218.37 141.307C204.316 139.064 182.401 146.131 178.337 161.465Z" fill="#B59686"/>
<path d="M160.406 125.617C160.574 125.617 160.743 125.617 160.912 125.617C158.014 129.222 159.44 134.739 162.678 138.042C167.051 142.505 173.84 143.909 180.036 143.1C186.232 142.291 191.992 139.551 197.557 136.709C202.541 134.163 207.654 131.344 210.864 126.759C214.074 122.174 214.738 115.314 210.875 111.264C208.442 108.714 204.701 107.751 201.183 107.945C197.664 108.139 194.289 109.353 190.994 110.599C181.967 114.013 169.15 121.534 160.406 125.617Z" fill="#DDCD97"/>
<path d="M147.435 41.0421C151.176 50.9181 158.532 59.991 168.616 63.131C173.24 64.571 178.511 64.633 182.704 62.209C189.747 58.136 191.522 48.574 190.198 40.545C187.75 25.7 176.789 12.5671 162.62 7.50305C155.816 5.07105 143.603 3.08005 142.39 12.136C141.234 20.75 144.404 33.0401 147.435 41.0421Z" fill="#DDCD97"/>
<path d="M191.348 73.7021C189.786 78.5241 189.715 84.035 192.202 88.451C195.328 94.006 202.12 96.8791 208.477 96.4081C214.834 95.9361 220.702 92.5531 225.289 88.1271C230.806 82.8041 234.864 75.394 234.224 67.755C233.685 61.341 229.665 55.326 223.945 52.375C208.19 44.246 195.729 60.1741 191.348 73.7021Z" fill="#CADBE0"/>
<path d="M220.103 99.2442C218.975 102.421 219.034 105.879 219.106 109.249C219.288 117.75 219.868 127.206 226.014 133.081C227.18 134.196 228.585 135.165 230.186 135.371C232.163 135.626 234.149 134.653 235.54 133.227C236.934 131.8 237.821 129.964 238.587 128.123C240.724 122.986 242.104 117.463 241.953 111.9C241.668 101.428 226.572 81.0042 220.103 99.2442Z" fill="#DDCD97"/>
<path d="M223.089 179.058C223.204 181.83 224.992 184.251 226.976 186.192C229.709 188.867 233.348 191.105 237.138 190.593C242.174 189.913 245.448 184.471 245.494 179.389C245.549 173.503 242.464 162.565 234.959 163.114C228.754 163.567 222.854 173.397 223.089 179.058Z" fill="#DDCD97"/>
<path d="M200.681 6.03903C197.056 7.24503 194.571 10.788 193.73 14.514C192.889 18.241 193.451 22.139 194.318 25.86C195.312 30.124 196.755 34.389 199.461 37.831C202.167 41.273 206.326 43.797 210.702 43.644C214.408 43.515 217.883 41.477 220.291 38.656C222.699 35.836 224.134 32.297 225.001 28.691C226.258 23.463 226.334 17.708 223.813 12.959C220.037 5.84501 207.876 3.64603 200.681 6.03903Z" fill="#B3C1C4"/>
<path d="M69.2589 13.8209C70.1289 17.3259 73.624 19.687 77.183 20.306C80.741 20.925 84.3789 20.1419 87.8939 19.3129C91.6069 18.4359 95.3068 17.504 98.9928 16.517C101.325 15.892 103.926 15.0219 104.948 12.8339C105.749 11.1189 105.278 9.00199 104.139 7.49099C103 5.97899 101.294 4.99197 99.537 4.28597C93.34 1.79797 65.9449 0.468944 69.2589 13.8209Z" fill="#DDCD97"/>
<path d="M118.928 15.386C121.466 19.566 126.137 21.9651 130.786 23.4791C132.765 24.1241 135.106 24.5961 136.791 23.3741C138.922 21.8291 138.698 18.6431 138.252 16.0501C137.633 12.4561 137.014 8.86205 136.396 5.26904C136.24 4.36504 136.067 3.42005 135.502 2.69605C134.864 1.87905 133.834 1.48209 132.832 1.21509C123.809 -1.18691 112.576 4.92205 118.928 15.386Z" fill="#CADBE0"/>
<path d="M234.996 217.116C232.831 220.656 231.385 224.635 230.771 228.739C230.399 231.226 230.363 233.901 231.578 236.102C233.605 239.773 238.743 240.911 242.613 239.295C246.483 237.68 249.127 233.941 250.51 229.982C252.019 225.661 252.126 220.5 249.355 216.857C246.248 212.775 237.879 212.4 234.996 217.116Z" fill="#DDCD97"/>
</svg>
