<svg width="301" height="230" viewBox="0 0 301 230" fill="none" xmlns="http://www.w3.org/2000/svg">
<path d="M37.0449 0.736084H12.9839L0.954102 21.5731L12.9839 42.41H37.0449L49.075 21.5731L37.0449 0.736084Z" fill="#FFAA71"/>
<path d="M36.7959 0.736084L48.8259 21.5731H72.887L84.917 0.736084H36.7959Z" fill="#DDCD97"/>
<path d="M108.869 0.736084H84.8093L72.7773 21.5731L84.8093 42.41H108.869L120.899 21.5731L108.869 0.736084Z" fill="#FFAA71"/>
<path d="M72.887 21.573H48.8259L36.7959 42.41L48.8259 63.247H72.887L84.917 42.41L72.887 21.573Z" fill="#CADBE0"/>
<path d="M108.76 0.736084L120.791 21.5731H144.852L156.882 0.736084H108.76Z" fill="#DDCD97"/>
<path d="M180.834 0.736084H156.772L144.742 21.5731L156.772 42.41H180.834L192.863 21.5731L180.834 0.736084Z" fill="#FFAA71"/>
<path d="M144.852 21.573H120.791L108.76 42.41L120.791 63.247H144.852L156.882 42.41L144.852 21.573Z" fill="#CADBE0"/>
<path d="M37.0449 42.4102H12.9839L0.954102 63.2472L12.9839 84.0842H37.0449L49.075 63.2472L37.0449 42.4102Z" fill="#DDCD97"/>
<path d="M73.0271 63.2471H48.967L36.937 84.084L48.967 104.922H73.0271L85.0581 84.084L73.0271 63.2471Z" fill="#FFAA71"/>
<path d="M37.0449 84.084H12.9839L0.954102 104.922L12.9839 125.759H37.0449L49.075 104.922L37.0449 84.084Z" fill="#CADBE0"/>
<path d="M108.869 42.4102H84.8093L72.7773 63.2472L84.8093 84.0842H108.869L120.899 63.2472L108.869 42.4102Z" fill="#DDCD97"/>
<path d="M144.852 63.2471H120.791L108.76 84.084L120.791 104.922H144.852L156.882 84.084L144.852 63.2471Z" fill="#FFAA71"/>
<path d="M108.869 84.084H84.8093L72.7773 104.922L84.8093 125.759H108.869L120.899 104.922L108.869 84.084Z" fill="#CADBE0"/>
<path d="M108.76 0.736084L120.791 21.5731H144.852L156.882 0.736084H108.76Z" fill="#DDCD97"/>
<path d="M180.834 0.736084H156.772L144.742 21.5731L156.772 42.41H180.834L192.863 21.5731L180.834 0.736084Z" fill="#FFAA71"/>
<path d="M144.852 21.573H120.791L108.76 42.41L120.791 63.247H144.852L156.882 42.41L144.852 21.573Z" fill="#CADBE0"/>
<path d="M180.584 0.736084L192.614 21.5731H216.675L228.705 0.736084H180.584Z" fill="#DDCD97"/>
<path d="M252.657 0.736084H228.597L216.566 21.5731L228.597 42.41H252.657L264.688 21.5731L252.657 0.736084Z" fill="#FFAA71"/>
<path d="M216.675 21.573H192.614L180.584 42.41L192.614 63.247H216.675L228.705 42.41L216.675 21.573Z" fill="#CADBE0"/>
<path d="M252.549 0.736084L264.579 21.5731H288.64L300.67 0.736084H252.549Z" fill="#DDCD97"/>
<path d="M288.64 21.573H264.579L252.549 42.41L264.579 63.247H288.64L300.67 42.41L288.64 21.573Z" fill="#CADBE0"/>
<path d="M180.834 42.4102H156.772L144.742 63.2472L156.772 84.0842H180.834L192.863 63.2472L180.834 42.4102Z" fill="#DDCD97"/>
<path d="M216.815 63.2471H192.755L180.725 84.084L192.755 104.922H216.815L228.846 84.084L216.815 63.2471Z" fill="#FFAA71"/>
<path d="M180.834 84.084H156.772L144.742 104.922L156.772 125.759H180.834L192.863 104.922L180.834 84.084Z" fill="#CADBE0"/>
<path d="M252.657 42.4102H228.597L216.566 63.2472L228.597 84.0842H252.657L264.688 63.2472L252.657 42.4102Z" fill="#DDCD97"/>
<path d="M288.64 63.2471H264.579L252.549 84.084L264.579 104.922H288.64L300.67 84.084L288.64 63.2471Z" fill="#FFAA71"/>
<path d="M252.657 84.084H228.597L216.566 104.922L228.597 125.759H252.657L264.688 104.922L252.657 84.084Z" fill="#CADBE0"/>
<path d="M37.0449 125.759H12.9839L0.954102 146.596L12.9839 167.433H37.0449L49.075 146.596L37.0449 125.759Z" fill="#FFAA71"/>
<path d="M72.887 104.922H48.8259L36.7959 125.759L48.8259 146.596H72.887L84.917 125.759L72.887 104.922Z" fill="#DDCD97"/>
<path d="M108.869 125.759H84.8093L72.7773 146.596L84.8093 167.433H108.869L120.899 146.596L108.869 125.759Z" fill="#FFAA71"/>
<path d="M72.887 146.596H48.8259L36.7959 167.433L48.8259 188.271H72.887L84.917 167.433L72.887 146.596Z" fill="#CADBE0"/>
<path d="M144.852 104.922H120.791L108.76 125.759L120.791 146.596H144.852L156.882 125.759L144.852 104.922Z" fill="#DDCD97"/>
<path d="M180.834 125.759H156.772L144.742 146.596L156.772 167.433H180.834L192.863 146.596L180.834 125.759Z" fill="#FFAA71"/>
<path d="M144.852 146.596H120.791L108.76 167.433L120.791 188.271H144.852L156.882 167.433L144.852 146.596Z" fill="#CADBE0"/>
<path d="M37.0449 167.433H12.9839L0.954102 188.271L12.9839 209.107H37.0449L49.075 188.271L37.0449 167.433Z" fill="#DDCD97"/>
<path d="M73.0271 188.271H48.967L36.937 209.107L48.967 229.945H73.0271L85.0581 209.107L73.0271 188.271Z" fill="#FFAA71"/>
<path d="M37.0449 209.107H12.9839L0.954102 229.945H49.075L37.0449 209.107Z" fill="#CADBE0"/>
<path d="M108.869 167.433H84.8093L72.7773 188.271L84.8093 209.107H108.869L120.899 188.271L108.869 167.433Z" fill="#DDCD97"/>
<path d="M144.852 188.271H120.791L108.76 209.107L120.791 229.945H144.852L156.882 209.107L144.852 188.271Z" fill="#FFAA71"/>
<path d="M108.869 209.107H84.8093L72.7773 229.945H120.899L108.869 209.107Z" fill="#CADBE0"/>
<path d="M144.852 104.922H120.791L108.76 125.759L120.791 146.596H144.852L156.882 125.759L144.852 104.922Z" fill="#DDCD97"/>
<path d="M180.834 125.759H156.772L144.742 146.596L156.772 167.433H180.834L192.863 146.596L180.834 125.759Z" fill="#FFAA71"/>
<path d="M144.852 146.596H120.791L108.76 167.433L120.791 188.271H144.852L156.882 167.433L144.852 146.596Z" fill="#CADBE0"/>
<path d="M216.675 104.922H192.614L180.584 125.759L192.614 146.596H216.675L228.705 125.759L216.675 104.922Z" fill="#DDCD97"/>
<path d="M252.657 125.759H228.597L216.566 146.596L228.597 167.433H252.657L264.688 146.596L252.657 125.759Z" fill="#FFAA71"/>
<path d="M216.675 146.596H192.614L180.584 167.433L192.614 188.271H216.675L228.705 167.433L216.675 146.596Z" fill="#CADBE0"/>
<path d="M288.64 104.922H264.579L252.549 125.759L264.579 146.596H288.64L300.67 125.759L288.64 104.922Z" fill="#DDCD97"/>
<path d="M288.64 146.596H264.579L252.549 167.433L264.579 188.271H288.64L300.67 167.433L288.64 146.596Z" fill="#CADBE0"/>
<path d="M180.834 167.433H156.772L144.742 188.271L156.772 209.107H180.834L192.863 188.271L180.834 167.433Z" fill="#DDCD97"/>
<path d="M216.815 188.271H192.755L180.725 209.107L192.755 229.945H216.815L228.846 209.107L216.815 188.271Z" fill="#FFAA71"/>
<path d="M180.834 209.107H156.772L144.742 229.945H192.863L180.834 209.107Z" fill="#CADBE0"/>
<path d="M252.657 167.433H228.597L216.566 188.271L228.597 209.107H252.657L264.688 188.271L252.657 167.433Z" fill="#DDCD97"/>
<path d="M288.64 188.271H264.579L252.549 209.107L264.579 229.945H288.64L300.67 209.107L288.64 188.271Z" fill="#FFAA71"/>
<path d="M252.657 209.107H228.597L216.566 229.945H264.688L252.657 209.107Z" fill="#CADBE0"/>
</svg>
