<svg width="72" height="72" viewBox="0 0 72 72" fill="none" xmlns="http://www.w3.org/2000/svg">
<path d="M12.17 59.6001H0.312012V71.4581H12.17V59.6001Z" fill="#D56E49"/>
<path d="M12.482 71.7701H0V59.2881H12.482V71.7701ZM0.624008 71.1451H11.858V59.9131H0.624008V71.1451Z" fill="#937963"/>
<path d="M24.0279 59.6001H12.1699V71.4581H24.0279V59.6001Z" fill="#D56E49"/>
<path d="M24.3399 71.7701H11.8589V59.2881H24.3399V71.7701ZM12.4819 71.1451H23.7149V59.9131H12.4819V71.1451Z" fill="#937963"/>
<path d="M35.8851 59.6001H24.0281V71.4581H35.8851V59.6001Z" fill="#D56E49"/>
<path d="M36.1971 71.7701H23.7151V59.2881H36.1971V71.7701ZM24.3401 71.1451H35.5731V59.9131H24.3401V71.1451Z" fill="#937963"/>
<path d="M47.742 59.6001H35.885V71.4581H47.742V59.6001Z" fill="#D56E49"/>
<path d="M48.054 71.7701H35.573V59.2881H48.054V71.7701ZM36.197 71.1451H47.43V59.9131H36.197V71.1451Z" fill="#937963"/>
<path d="M59.5989 59.6001H47.7419V71.4581H59.5989V59.6001Z" fill="#D56E49"/>
<path d="M59.9119 71.7701H47.4309V59.2881H59.9119V71.7701ZM48.0539 71.1451H59.2869V59.9131H48.0539V71.1451Z" fill="#937963"/>
<path d="M71.4571 59.6001H59.6001V71.4581H71.4571V59.6001Z" fill="#D56E49"/>
<path d="M71.7691 71.7701H59.2871V59.2881H71.7691V71.7701ZM59.9121 71.1451H71.1451V59.9131H59.9121V71.1451Z" fill="#937963"/>
<path d="M12.17 47.7419H0.312012V59.5989H12.17V47.7419Z" fill="#D56E49"/>
<path d="M12.482 59.9119H0V47.4299H12.482V59.9119ZM0.624008 59.2869H11.858V48.0549H0.624008V59.2869Z" fill="#937963"/>
<path d="M24.0279 47.7419H12.1699V59.5989H24.0279V47.7419Z" fill="#D56E49"/>
<path d="M24.3399 59.9119H11.8589V47.4299H24.3399V59.9119ZM12.4819 59.2869H23.7149V48.0549H12.4819V59.2869Z" fill="#937963"/>
<path d="M35.8851 47.7419H24.0281V59.5989H35.8851V47.7419Z" fill="#D56E49"/>
<path d="M36.1971 59.9119H23.7151V47.4299H36.1971V59.9119ZM24.3401 59.2869H35.5731V48.0549H24.3401V59.2869Z" fill="#937963"/>
<path d="M47.742 47.7419H35.885V59.5989H47.742V47.7419Z" fill="#D56E49"/>
<path d="M48.054 59.9119H35.573V47.4299H48.054V59.9119ZM36.197 59.2869H47.43V48.0549H36.197V59.2869Z" fill="#937963"/>
<path d="M59.5989 47.7419H47.7419V59.5989H59.5989V47.7419Z" fill="#D56E49"/>
<path d="M59.9119 59.9119H47.4309V47.4299H59.9119V59.9119ZM48.0539 59.2869H59.2869V48.0549H48.0539V59.2869Z" fill="#937963"/>
<path d="M71.4571 47.7419H59.6001V59.5989H71.4571V47.7419Z" fill="#D56E49"/>
<path d="M71.7691 59.9119H59.2871V47.4299H71.7691V59.9119ZM59.9121 59.2869H71.1451V48.0549H59.9121V59.2869Z" fill="#937963"/>
<path d="M12.17 35.885H0.312012V47.742H12.17V35.885Z" fill="#D56E49"/>
<path d="M12.482 48.055H0V35.573H12.482V48.055ZM0.624008 47.43H11.858V36.198H0.624008V47.43Z" fill="#937963"/>
<path d="M24.0279 35.885H12.1699V47.742H24.0279V35.885Z" fill="#D56E49"/>
<path d="M24.3399 48.055H11.8589V35.573H24.3399V48.055ZM12.4819 47.43H23.7149V36.198H12.4819V47.43Z" fill="#937963"/>
<path d="M35.8851 35.885H24.0281V47.742H35.8851V35.885Z" fill="#D56E49"/>
<path d="M36.1971 48.055H23.7151V35.573H36.1971V48.055ZM24.3401 47.43H35.5731V36.198H24.3401V47.43Z" fill="#937963"/>
<path d="M47.742 35.885H35.885V47.742H47.742V35.885Z" fill="#D56E49"/>
<path d="M48.054 48.055H35.573V35.573H48.054V48.055ZM36.197 47.43H47.43V36.198H36.197V47.43Z" fill="#937963"/>
<path d="M59.5989 35.885H47.7419V47.742H59.5989V35.885Z" fill="#D56E49"/>
<path d="M59.9119 48.055H47.4309V35.573H59.9119V48.055ZM48.0539 47.43H59.2869V36.198H48.0539V47.43Z" fill="#937963"/>
<path d="M71.4571 35.885H59.6001V47.742H71.4571V35.885Z" fill="#D56E49"/>
<path d="M71.7691 48.055H59.2871V35.573H71.7691V48.055ZM59.9121 47.43H71.1451V36.198H59.9121V47.43Z" fill="#937963"/>
<path d="M12.17 24.0271H0.312012V35.8841H12.17V24.0271Z" fill="#D56E49"/>
<path d="M12.482 36.1971H0V23.7151H12.482V36.1971ZM0.624008 35.5721H11.858V24.3391H0.624008V35.5721Z" fill="#937963"/>
<path d="M24.0279 24.0271H12.1699V35.8841H24.0279V24.0271Z" fill="#D56E49"/>
<path d="M24.3399 36.1971H11.8589V23.7151H24.3399V36.1971ZM12.4819 35.5721H23.7149V24.3391H12.4819V35.5721Z" fill="#937963"/>
<path d="M35.8851 24.0271H24.0281V35.8841H35.8851V24.0271Z" fill="#D56E49"/>
<path d="M36.1971 36.1971H23.7151V23.7151H36.1971V36.1971ZM24.3401 35.5721H35.5731V24.3391H24.3401V35.5721Z" fill="#937963"/>
<path d="M47.742 24.0271H35.885V35.8841H47.742V24.0271Z" fill="#D56E49"/>
<path d="M48.054 36.1971H35.573V23.7151H48.054V36.1971ZM36.197 35.5721H47.43V24.3391H36.197V35.5721Z" fill="#937963"/>
<path d="M59.5989 24.0271H47.7419V35.8841H59.5989V24.0271Z" fill="#D56E49"/>
<path d="M59.9119 36.1971H47.4309V23.7151H59.9119V36.1971ZM48.0539 35.5721H59.2869V24.3391H48.0539V35.5721Z" fill="#937963"/>
<path d="M71.4571 24.0271H59.6001V35.8841H71.4571V24.0271Z" fill="#D56E49"/>
<path d="M71.7691 36.1971H59.2871V23.7151H71.7691V36.1971ZM59.9121 35.5721H71.1451V24.3391H59.9121V35.5721Z" fill="#937963"/>
<path d="M12.17 12.1699H0.312012V24.0279H12.17V12.1699Z" fill="#D56E49"/>
<path d="M12.482 24.3389H0V11.8579H12.482V24.3389ZM0.624008 23.7149H11.858V12.4819H0.624008V23.7149Z" fill="#937963"/>
<path d="M24.0279 12.1699H12.1699V24.0279H24.0279V12.1699Z" fill="#D56E49"/>
<path d="M24.3399 24.3389H11.8589V11.8579H24.3399V24.3389ZM12.4819 23.7149H23.7149V12.4819H12.4819V23.7149Z" fill="#937963"/>
<path d="M35.8851 12.1699H24.0281V24.0279H35.8851V12.1699Z" fill="#D56E49"/>
<path d="M36.1971 24.3389H23.7151V11.8579H36.1971V24.3389ZM24.3401 23.7149H35.5731V12.4819H24.3401V23.7149Z" fill="#937963"/>
<path d="M47.742 12.1699H35.885V24.0279H47.742V12.1699Z" fill="#D56E49"/>
<path d="M48.054 24.3389H35.573V11.8579H48.054V24.3389ZM36.197 23.7149H47.43V12.4819H36.197V23.7149Z" fill="#937963"/>
<path d="M59.5989 12.1699H47.7419V24.0279H59.5989V12.1699Z" fill="#D56E49"/>
<path d="M59.9119 24.3389H47.4309V11.8579H59.9119V24.3389ZM48.0539 23.7149H59.2869V12.4819H48.0539V23.7149Z" fill="#937963"/>
<path d="M71.4571 12.1699H59.6001V24.0279H71.4571V12.1699Z" fill="#D56E49"/>
<path d="M71.7691 24.3389H59.2871V11.8579H71.7691V24.3389ZM59.9121 23.7149H71.1451V12.4819H59.9121V23.7149Z" fill="#937963"/>
<path d="M12.17 0.312012H0.312012V12.169H12.17V0.312012Z" fill="#D56E49"/>
<path d="M12.482 12.482H0V0H12.482V12.482ZM0.624008 11.858H11.858V0.625H0.624008V11.858Z" fill="#937963"/>
<path d="M24.0279 0.312012H12.1699V12.169H24.0279V0.312012Z" fill="#D56E49"/>
<path d="M24.3399 12.482H11.8589V0H24.3399V12.482ZM12.4819 11.858H23.7149V0.625H12.4819V11.858Z" fill="#937963"/>
<path d="M35.8851 0.312012H24.0281V12.169H35.8851V0.312012Z" fill="#D56E49"/>
<path d="M36.1971 12.482H23.7151V0H36.1971V12.482ZM24.3401 11.858H35.5731V0.625H24.3401V11.858Z" fill="#937963"/>
<path d="M47.742 0.312012H35.885V12.169H47.742V0.312012Z" fill="#D56E49"/>
<path d="M48.054 12.482H35.573V0H48.054V12.482ZM36.197 11.858H47.43V0.625H36.197V11.858Z" fill="#937963"/>
<path d="M59.5989 0.312012H47.7419V12.169H59.5989V0.312012Z" fill="#D56E49"/>
<path d="M59.9119 12.482H47.4309V0H59.9119V12.482ZM48.0539 11.858H59.2869V0.625H48.0539V11.858Z" fill="#937963"/>
<path d="M71.4571 0.312012H59.6001V12.169H71.4571V0.312012Z" fill="#D56E49"/>
<path d="M71.7691 12.482H59.2871V0H71.7691V12.482ZM59.9121 11.858H71.1451V0.625H59.9121V11.858Z" fill="#937963"/>
</svg>
