<svg width="79" height="78" viewBox="0 0 79 78" fill="none" xmlns="http://www.w3.org/2000/svg">
<path d="M8.22254 3.72433C1.86605 8.06201 -1.82611 17.0311 0.917853 24.4764C2.34924 28.36 5.25185 31.4301 7.07588 35.1258C9.8633 40.7729 9.95964 47.4785 12.1373 53.4163C14.8535 60.8214 20.6454 66.5504 26.9955 70.8095C31 73.4953 35.3269 75.7165 39.9371 76.9005C43.7048 77.868 47.6211 78.1303 51.4893 77.8462C54.5282 77.623 57.5709 77.0561 60.3818 75.8175C62.8226 74.7418 65.0487 73.1769 67.0929 71.4055C71.4692 67.6121 75.1049 62.7505 77.04 57.1335C78.9752 51.5163 79.1132 45.1207 76.8897 39.6239C74.7394 34.3081 70.5872 30.1641 66.1044 26.8438C61.6216 23.5234 56.719 20.8733 52.2336 17.5566C46.4837 13.3046 41.47 7.99263 35.4434 4.14841C30.2258 0.820256 24.1273 -0.517333 18.0479 0.179027C14.5749 0.576689 11.1669 1.71523 8.22254 3.72433Z" fill="#66D8DD"/>
</svg>
