<svg width="368" height="222" viewBox="0 0 368 222" fill="none" xmlns="http://www.w3.org/2000/svg">
<path d="M252.822 23.3141C134.831 -28.8529 32.0004 16.9132 6.39843 82.5192C-15.7526 139.282 30.6414 221.477 118.408 199.33C289.624 156.126 295.977 242.702 347.313 217.034C388.386 196.497 369.962 75.1041 252.822 23.3141Z" fill="#797F98"/>
<path d="M245.913 38.9392C214.157 24.8982 182.39 17.7803 151.493 17.7803C120.249 17.7803 91.1516 25.1812 67.3466 39.1842C45.8386 51.8352 29.8456 69.4312 22.3136 88.7302C14.2296 109.444 17.7836 135.677 31.3676 155.559C44.7526 175.152 65.5717 185.942 89.9887 185.943H89.9906C97.7126 185.943 105.868 184.873 114.228 182.764C147.921 174.262 178.487 169.951 205.076 169.951C255.009 169.951 283.19 184.622 303.767 195.336C314.324 200.832 321.951 204.804 328.648 204.804C332.006 204.804 335.509 203.834 339.671 201.753C346.353 198.412 350.44 186.535 350.084 171.493C349.088 129.393 316.063 69.9542 245.913 38.9392Z" fill="#81C9D9"/>
<path d="M316.836 201.781C313.269 199.95 309.471 198.056 305.378 196.175C309.638 198.388 313.408 200.312 316.836 201.781Z" fill="#6DB3C1"/>
<path d="M151.493 17.7803C120.249 17.7803 91.1516 25.1812 67.3466 39.1842C45.8386 51.8352 29.8456 69.4312 22.3136 88.7302C14.2296 109.444 17.7836 135.677 31.3676 155.559C40.2696 168.59 52.4736 177.7 66.8237 182.359C60.1917 177.662 54.3436 171.729 49.4866 164.619C35.9026 144.737 32.3487 118.504 40.4327 97.7903C47.9647 78.4913 63.9576 60.8953 85.4656 48.2443C109.271 34.2413 138.368 26.8402 169.612 26.8402C200.432 26.8402 232.118 33.9262 263.796 47.8982C258.124 44.7102 252.173 41.7072 245.913 38.9402C214.157 24.8992 182.39 17.7803 151.493 17.7803Z" fill="#6DB3C1"/>
<path d="M30.5314 58.0499C24.6404 54.3009 9.52543 72.7978 16.0714 77.3298C23.0334 82.1498 36.4224 61.7989 30.5314 58.0499Z" fill="#C8CBD6"/>
<path d="M78.0925 22.898C80.5855 29.56 99.5675 21.3541 97.3005 15.9511C95.0335 10.5481 75.7495 16.635 78.0925 22.898Z" fill="#B1B6C9"/>
<path d="M15.2178 81.3881C8.43285 79.7361 1.20982 102.584 9.10982 103.572C17.6788 104.643 22.0018 83.0401 15.2178 81.3881Z" fill="#B1B6C9"/>
<path d="M9.98079 106.479C2.99779 106.932 1.86882 130.504 9.76082 129.098C18.3198 127.572 16.9638 106.025 9.98079 106.479Z" fill="#919194"/>
<path d="M11.5341 133.15C4.11809 137.689 13.2331 157.261 19.5711 154.294C25.9091 151.328 18.3711 128.965 11.5341 133.15Z" fill="#B1B6C9"/>
<path d="M59.7638 189.775C59.7158 198.469 81.1528 201.032 81.9698 194.082C82.7878 187.132 59.8078 181.759 59.7638 189.775Z" fill="#C8CBD6"/>
<path d="M165.659 179.87C167.881 188.276 189.244 185.157 188.22 178.234C187.195 171.312 163.61 172.12 165.659 179.87Z" fill="#B6B8BA"/>
<path d="M138.59 185.719C141.974 193.728 162.685 187.631 160.695 180.922C158.706 174.213 135.47 178.335 138.59 185.719Z" fill="#B1B6C9"/>
<path d="M50.346 39.8412C44.455 35.0212 29.2891 50.7533 34.2801 54.8363C40.1711 59.6573 56.237 44.6612 50.346 39.8412Z" fill="#B6B8BA"/>
<path d="M54.1792 36.1162C58.7802 42.1802 77.9073 31.3553 73.3053 25.2923C68.7033 19.2293 50.2812 30.9792 54.1792 36.1162Z" fill="#C8CBD6"/>
<path d="M241.133 26.4432C237.538 32.5802 255.883 42.1271 258.643 36.9591C261.404 31.7901 244.512 20.6722 241.133 26.4432Z" fill="#B1B6C9"/>
<path d="M185.494 12.6111C185.473 20.2231 207.244 23.2231 207.265 15.6111C207.287 8.00009 185.512 6.16209 185.494 12.6111Z" fill="#B1B6C9"/>
<path d="M214.76 17.3492C212.96 24.7452 232.849 32.1722 234.649 24.7762C236.449 17.3802 216.285 11.0832 214.76 17.3492Z" fill="#B1B6C9"/>
<path d="M159.438 7.14916C158.322 14.1732 178.882 16.3942 179.574 10.5762C180.266 4.75716 160.488 0.544158 159.438 7.14916Z" fill="#B1B6C9"/>
<path d="M328.325 90.2778C322.32 94.0898 333.652 109.046 338.471 105.714C343.29 102.382 333.971 86.6938 328.325 90.2778Z" fill="#B1B6C9"/>
<path d="M286.793 53.588C283.291 60.346 301.275 72.977 304.777 66.22C308.28 59.462 289.761 47.862 286.793 53.588Z" fill="#C8CBD6"/>
<path d="M310.645 71.1931C305.66 76.9451 319.944 92.6512 324.93 86.8992C329.916 81.1472 314.868 66.3201 310.645 71.1931Z" fill="#919194"/>
<path d="M339.494 109.149C333.565 113.921 344.825 131.92 350.755 127.147C356.684 122.374 344.518 105.105 339.494 109.149Z" fill="#B1B6C9"/>
<path d="M266.125 36.8063C261.918 42.5413 279.182 53.9252 282.46 49.0682C285.738 44.2112 270.081 31.4143 266.125 36.8063Z" fill="#B6B8BA"/>
<path d="M105.575 14.9392C108.324 22.0372 129.695 16.9132 126.946 9.81522C124.198 2.71722 103.246 8.92625 105.575 14.9392Z" fill="#C8CBD6"/>
<path d="M132.117 8.4644C133.13 16.0084 155.107 16.0214 154.094 8.47843C153.081 0.934434 131.259 2.0734 132.117 8.4644Z" fill="#B1B6C9"/>
<path d="M23.033 157.126C16.582 162.991 28.3881 177.477 34.2791 173.728C40.1711 169.979 28.924 151.771 23.033 157.126Z" fill="#B1B6C9"/>
<path d="M88.3594 193.388C89.3734 202.047 108.024 200.879 108.405 193.907C108.785 186.934 87.4334 185.48 88.3594 193.388Z" fill="#B1B6C9"/>
<path d="M114.269 190.807C117.226 199.008 135.123 193.626 133.907 186.75C132.691 179.874 111.568 183.317 114.269 190.807Z" fill="#919194"/>
<path d="M272.552 190.506C271.489 199.135 292.479 204.184 294.103 197.377C295.726 190.57 273.532 182.55 272.552 190.506Z" fill="#919194"/>
<path d="M324.043 213.982C326.245 222.393 343.763 218.677 342.755 211.752C341.746 204.827 322.012 206.228 324.043 213.982Z" fill="#B1B6C9"/>
<path d="M346.178 207.239C353.199 212.367 364.429 198.418 359.272 193.687C354.115 188.956 339.704 202.511 346.178 207.239Z" fill="#B6B8BA"/>
<path d="M360.009 169.637C353.065 168.773 349.182 188.172 357.198 188.27C365.892 188.377 366.953 170.501 360.009 169.637Z" fill="#B1B6C9"/>
<path d="M357.636 150.44C351.826 151.065 351.134 167.036 357.725 165.608C364.873 164.059 363.446 149.814 357.636 150.44Z" fill="#B1B6C9"/>
<path d="M352.81 130.422C345.829 130.916 345.769 150.7 353.652 149.247C362.203 147.672 359.791 129.927 352.81 130.422Z" fill="#919194"/>
<path d="M297.186 203.359C296.123 211.988 317.115 217.037 318.738 210.23C320.361 203.423 298.166 195.403 297.186 203.359Z" fill="#B1B6C9"/>
<path d="M246.009 182.608C246.211 191.3 267.712 193.247 268.33 186.276C268.947 179.305 245.823 174.594 246.009 182.608Z" fill="#B6B8BA"/>
<path d="M194.238 177.761C194.998 186.446 213.676 185.823 214.26 178.865C214.845 171.907 193.544 169.83 194.238 177.761Z" fill="#B1B6C9"/>
<path d="M220.193 178.082C220.374 186.798 239.052 187.419 240.097 180.515C241.144 173.612 220.028 170.123 220.193 178.082Z" fill="#C8CBD6"/>
<path d="M38.4274 175.347C34.1564 182.947 49.9305 192.969 54.3375 187.553C58.7445 182.137 42.3274 168.407 38.4274 175.347Z" fill="#B6B8BA"/>
</svg>
