<svg width="367" height="252" viewBox="0 0 367 252" fill="none" xmlns="http://www.w3.org/2000/svg">
<path d="M331.52 0.767578H35.7294C16.3554 0.767578 0.650391 16.4737 0.650391 35.8467V216.518C0.650391 235.892 16.3564 251.597 35.7294 251.597H331.52C350.894 251.597 366.599 235.892 366.599 216.518V35.8467C366.599 16.4737 350.894 0.767578 331.52 0.767578Z" fill="#B1B6C9"/>
<path d="M322.058 17.8525H45.1914C30.0274 17.8525 17.7354 30.1455 17.7354 45.3085V207.057C17.7354 222.221 30.0284 234.512 45.1914 234.512H322.058C337.222 234.512 349.514 222.22 349.514 207.057V45.3085C349.514 30.1445 337.222 17.8525 322.058 17.8525Z" fill="#81C9D9"/>
<path d="M317.145 17.8525H50.1044C32.2274 17.8525 17.7354 32.3445 17.7354 50.2225V202.144C17.7354 216.116 26.5884 228.019 38.9904 232.553C36.4234 227.914 34.9574 222.582 34.9574 216.905V64.9835C34.9574 47.1065 49.4494 32.6135 67.3274 32.6135H334.367C338.272 32.6135 342.016 33.3055 345.482 34.5725C339.964 24.6035 329.345 17.8525 317.145 17.8525Z" fill="#62ABB7"/>
<path d="M49.4701 0.768555H47.5381V17.6285H49.4701V0.768555Z" fill="#797F98"/>
<path d="M88.1254 0.768555H86.1934V17.6285H88.1254V0.768555Z" fill="#797F98"/>
<path d="M126.78 0.768555H124.848V17.6285H126.78V0.768555Z" fill="#797F98"/>
<path d="M165.435 0.768555H163.503V17.6285H165.435V0.768555Z" fill="#797F98"/>
<path d="M204.09 0.768555H202.158V17.6285H204.09V0.768555Z" fill="#797F98"/>
<path d="M242.746 0.768555H240.814V17.6285H242.746V0.768555Z" fill="#797F98"/>
<path d="M281.401 0.768555H279.469V17.6285H281.401V0.768555Z" fill="#797F98"/>
<path d="M320.056 0.768555H318.124V17.6285H320.056V0.768555Z" fill="#797F98"/>
<path d="M49.4701 234.489H47.5381V251.349H49.4701V234.489Z" fill="#797F98"/>
<path d="M88.1254 234.489H86.1934V251.349H88.1254V234.489Z" fill="#797F98"/>
<path d="M126.78 234.489H124.848V251.349H126.78V234.489Z" fill="#797F98"/>
<path d="M165.435 234.489H163.503V251.349H165.435V234.489Z" fill="#797F98"/>
<path d="M204.09 234.489H202.158V251.349H204.09V234.489Z" fill="#797F98"/>
<path d="M242.746 234.489H240.814V251.349H242.746V234.489Z" fill="#797F98"/>
<path d="M281.401 234.489H279.469V251.349H281.401V234.489Z" fill="#797F98"/>
<path d="M320.056 234.489H318.124V251.349H320.056V234.489Z" fill="#797F98"/>
<path d="M18.3303 43.4795H0.650391V45.4115H18.3303V43.4795Z" fill="#797F98"/>
<path d="M18.2463 83.8354H0.650391V85.7673H18.2463V83.8354Z" fill="#797F98"/>
<path d="M18.1624 124.19H0.650391V126.122H18.1624V124.19Z" fill="#797F98"/>
<path d="M18.0784 164.546H0.650391V166.478H18.0784V164.546Z" fill="#797F98"/>
<path d="M17.9944 204.901H0.650391V206.833H17.9944V204.901Z" fill="#797F98"/>
<path d="M366.761 43.4795H349.081V45.4115H366.761V43.4795Z" fill="#797F98"/>
<path d="M366.677 83.8354H349.081V85.7673H366.677V83.8354Z" fill="#797F98"/>
<path d="M366.593 124.19H349.081V126.122H366.593V124.19Z" fill="#797F98"/>
<path d="M366.509 164.546H349.081V166.478H366.509V164.546Z" fill="#797F98"/>
<path d="M366.424 204.901H349.081V206.833H366.424V204.901Z" fill="#797F98"/>
</svg>
