<svg width="454" height="421" viewBox="0 0 454 421" fill="none" xmlns="http://www.w3.org/2000/svg">
<path d="M6.95127 70.5108C-4.20873 100.107 -1.62473 134.273 12.5033 162.573C20.3113 178.213 31.3593 192.029 39.5633 207.465C64.3663 254.13 62.4063 313.751 96.1243 354.443C117.767 380.562 150.677 394.312 182.903 404.898C217.797 416.36 255.125 425.318 291.016 417.527C317.289 411.823 340.89 397.497 362.439 381.42C397.101 355.56 428.725 323.301 444.139 282.895C459.552 242.489 455.863 192.845 426.69 160.919C408.802 141.345 383.756 130.291 360.657 117.268C314.85 91.4439 274.772 56.3738 228.954 30.5688C158.676 -9.01417 42.3773 -23.4342 6.95127 70.5108Z" fill="#CADBE0"/>
<path d="M79.8633 46.9058C50.1723 66.1038 32.9263 105.8 45.7433 138.752C52.4293 155.94 65.9873 169.528 74.5073 185.885C87.5273 210.878 87.9773 240.556 98.1493 266.836C110.836 299.61 137.89 324.966 167.551 343.816C186.256 355.703 206.467 365.534 228.001 370.774C245.6 375.056 263.893 376.217 281.961 374.96C296.156 373.972 310.368 371.463 323.498 365.981C334.899 361.22 345.297 354.294 354.845 346.454C375.287 329.665 392.269 308.148 401.308 283.288C410.347 258.427 410.992 230.121 400.606 205.793C390.562 182.266 371.167 163.925 350.228 149.23C329.289 134.534 306.389 122.805 285.438 108.126C258.58 89.3067 235.161 65.7967 207.011 48.7827C182.64 34.0527 154.154 28.1327 125.757 31.2147C109.535 32.9747 93.6163 38.0138 79.8633 46.9058Z" fill="#66D8DD"/>
<path d="M67.4873 79.1837C81.2393 70.2907 97.1593 65.2518 113.382 63.4918C141.779 60.4098 170.264 66.3298 194.636 81.0598C222.785 98.0738 246.204 121.583 273.063 140.403C294.013 155.083 316.913 166.811 337.853 181.507C358.792 196.202 378.187 214.543 388.231 238.07C395.493 255.081 397.356 274.036 394.733 292.399C396.313 289.026 397.753 285.586 399.029 282.077C408.068 257.216 408.713 228.91 398.327 204.582C388.284 181.055 368.888 162.714 347.949 148.018C327.01 133.322 304.11 121.593 283.16 106.915C256.301 88.0958 232.883 64.5858 204.733 47.5718C180.362 32.8418 151.876 26.9218 123.48 30.0038C107.256 31.7648 91.3363 36.8038 77.5843 45.6958C55.9843 59.6628 40.9853 84.4778 39.3423 109.653C46.0953 97.4368 55.8243 86.7257 67.4873 79.1837Z" fill="#5CC4C4"/>
<path d="M416.975 173.476C413.845 174.698 411.383 177.23 409.533 180.034C403.712 188.854 403.367 200.243 405.078 210.672C406.832 221.365 411.489 232.811 421.375 237.249C423.843 238.356 426.592 238.964 429.27 238.587C435.455 237.716 439.771 231.959 442.178 226.195C447.918 212.452 446.523 195.946 438.557 183.361C434.207 176.485 425.592 170.113 416.975 173.476Z" fill="#B3C1C4"/>
<path d="M424.801 266.494C423.616 271.069 422.991 276.733 426.604 279.778C429.758 282.435 434.822 281.498 437.9 278.752C440.977 276.006 442.502 271.952 443.713 268.01C444.917 264.092 445.929 260.05 445.821 255.953C445.655 249.662 442.329 240.487 435.36 245.338C429.295 249.56 426.535 259.803 424.801 266.494Z" fill="#B59686"/>
<path d="M420.192 243.297C417.153 242.661 413.785 244.456 412.617 247.334C411.433 250.253 412.44 253.611 413.968 256.366C414.409 257.16 414.987 258.001 415.875 258.193C417.024 258.441 418.058 257.504 418.861 256.646C420.561 254.828 422.327 252.889 422.878 250.463C423.428 248.035 422.228 245.024 419.793 244.513L420.192 243.297Z" fill="#DDCD97"/>
<path d="M415.341 280.57C414.467 280.087 413.519 279.67 412.52 279.661C410.059 279.641 408.319 281.975 407.028 284.071C401.27 293.417 395.685 303.995 397.5 314.82C397.986 317.718 399.139 320.708 401.558 322.377C405.602 325.168 411.211 323.13 415.207 320.271C419.802 316.984 423.737 312.559 425.625 307.234C428.883 298.048 423.914 285.31 415.341 280.57Z" fill="#B3C1C4"/>
<path d="M372.265 333.812C369.816 336.917 368.385 340.708 367.408 344.541C366.769 347.048 366.315 349.73 367.119 352.189C368.464 356.301 373.099 358.629 377.425 358.577C381.752 358.524 385.817 356.592 389.608 354.506C393.833 352.182 398.113 349.42 400.368 345.157C409.563 327.775 381.834 321.681 372.265 333.812Z" fill="#B59686"/>
<path d="M355.773 354.334C350.097 355.297 344.708 357.894 340.42 361.734C339.131 362.887 337.862 364.332 337.845 366.061C337.82 368.7 340.588 370.389 343.034 371.377C345.734 372.468 348.503 373.386 351.319 374.124C354.833 375.045 358.525 375.687 362.087 374.978C365.65 374.27 369.078 371.976 370.274 368.546C370.631 367.523 370.778 366.393 370.464 365.356C370.164 364.366 369.473 363.544 368.753 362.8C365.452 359.387 361.153 356.95 356.53 355.87L355.773 354.334Z" fill="#DDCD97"/>
<path d="M313.023 374.589C303.65 378.168 294.304 381.818 284.987 385.539C282.883 386.38 280.615 387.367 279.548 389.366C278.347 391.616 279.145 394.55 280.902 396.397C282.66 398.246 285.176 399.179 287.674 399.698C295.504 401.326 303.612 399.424 311.267 397.11C317.703 395.165 324.258 392.796 329.132 388.166C331.662 385.762 333.721 382.619 333.92 379.135C334.654 366.265 319.428 372.144 313.023 374.589Z" fill="#B59686"/>
<path d="M342.084 376.399C338.382 377.363 336.605 381.665 336.423 385.486C336.295 388.184 337.377 391.611 340.071 391.803C341.017 391.87 341.934 391.489 342.784 391.067C346.344 389.302 349.483 386.696 351.871 383.521C350.172 379.957 346.446 377.449 342.504 377.215L342.084 376.399Z" fill="#B3C1C4"/>
<path d="M279.985 404.067C274.667 404.535 268.812 405.26 265.245 409.232C264.664 409.878 264.136 410.713 264.32 411.562C264.541 412.583 265.654 413.111 266.645 413.445C275.655 416.49 285.833 415.913 294.441 411.871C295.305 411.465 296.179 411.007 296.788 410.27C303.222 402.502 282.237 403.869 279.985 404.067Z" fill="#DDCD97"/>
<path d="M252.008 382.226C246.143 385.028 240.678 389.421 238.389 395.504C236.1 401.588 237.916 409.466 243.604 412.611C245.342 413.573 247.394 414.057 249.344 413.681C250.846 413.391 252.205 412.619 253.526 411.848C258.707 408.819 263.88 405.503 267.594 400.789C279.006 386.307 267.677 374.741 252.008 382.226Z" fill="#B3C1C4"/>
<path d="M206.036 384.97C203.108 384.895 200.079 385.232 197.522 386.658C194.964 388.084 192.967 390.779 193.023 393.707C193.089 397.213 195.896 400.016 198.714 402.103C204.165 406.14 210.433 409.071 217.026 410.664C219.164 411.181 221.383 411.56 223.558 411.234C232.14 409.952 234.999 398.899 229.139 392.922C224.22 387.905 212.613 385.14 206.036 384.97Z" fill="#B59686"/>
<path d="M237.002 375.309C233.168 373.776 228.813 373.582 224.857 374.77C223.539 375.166 222.117 375.865 221.721 377.183C221.39 378.284 221.894 379.454 222.485 380.441C223.77 382.584 225.529 384.436 227.581 385.864C231.264 388.426 236.621 389.429 240.088 386.581C241.89 385.1 242.904 382.564 242.213 380.337C241.522 378.109 238.912 376.548 236.718 377.34L237.002 375.309Z" fill="#DDCD97"/>
<path d="M172.459 364.649C167.474 367.627 164.45 373.116 162.951 378.725C162.375 380.88 161.99 383.16 162.494 385.333C162.886 387.024 163.803 388.562 164.945 389.868C168.643 394.097 174.921 395.86 180.28 394.176C185.397 392.568 189.188 388.327 193.755 385.514C196.123 384.055 198.716 382.974 201.014 381.408C219.825 368.585 183.148 358.266 172.459 364.649Z" fill="#DDCD97"/>
<path d="M136.228 337.211C134.228 337.631 132.184 338.405 130.913 340.006C128.724 342.766 129.631 346.893 131.447 349.91C136.535 358.366 146.952 361.976 156.738 363.246C160.661 363.756 165.011 363.884 168.16 361.491C170.881 359.425 172.104 355.584 171.08 352.324C169.611 347.649 161.778 344.346 157.732 341.975C151.297 338.205 143.733 335.639 136.228 337.211Z" fill="#B3C1C4"/>
<path d="M132.247 366.853C129.486 369.729 129.565 374.547 131.632 377.957C133.699 381.366 137.333 383.545 141.075 384.919C145.39 386.504 150.551 387.081 154.321 384.451C169.436 373.907 143.165 355.479 132.247 366.853Z" fill="#B59686"/>
<path d="M98.7742 332.043C97.7952 336.213 98.3802 340.585 99.2322 344.782C99.8442 347.795 100.604 350.813 102.028 353.538C104.518 358.3 108.829 361.8 113.022 365.16C115.195 366.901 118.227 368.704 120.534 367.145C121.366 366.583 121.893 365.678 122.347 364.782C126.564 356.443 130.59 334.681 123.82 326.691C116.877 318.499 101.236 321.559 98.7742 332.043Z" fill="#DDCD97"/>
<path d="M78.2942 316.401C78.8942 319.028 80.3572 321.488 82.5242 323.089C92.4712 330.438 102.392 317.075 96.9342 307.798C90.6242 297.07 75.6752 304.918 78.2942 316.401Z" fill="#B3C1C4"/>
<path d="M107.025 302.247C105.474 304.173 105.726 306.973 106.407 309.35C107.02 311.493 107.935 313.585 109.381 315.283C112.253 318.655 116.769 320.032 121.028 321.249C123.233 321.88 126.377 322.039 127.028 319.84C127.448 318.42 126.401 317.022 125.423 315.909C123.036 313.191 111.959 295.889 107.025 302.247Z" fill="#B59686"/>
<path d="M81.4624 275.352C79.2004 275.317 76.8334 275.612 74.9614 276.881C70.9784 279.581 70.8004 285.305 71.2744 290.093C71.5064 292.445 71.9044 295.009 73.6674 296.582C76.5114 299.119 80.9074 297.645 84.7174 297.601C90.0234 297.539 95.6194 300.514 100.379 298.169C102.648 297.052 104.292 294.753 104.617 292.245C105.915 282.217 89.1654 275.468 81.4624 275.352Z" fill="#DDCD97"/>
<path d="M66.7422 251.387C65.3382 251.26 63.9952 252.041 62.9922 253.033C59.4812 256.504 59.4863 262.711 62.6223 266.522C65.7593 270.334 71.4113 271.62 76.0963 270.063C77.6503 269.546 79.1592 268.711 80.1152 267.382C81.8672 264.945 81.2933 261.418 79.5673 258.963C77.8413 256.508 75.2032 254.88 72.6382 253.321C71.2642 252.486 69.5982 251.626 68.1302 252.281L66.7422 251.387Z" fill="#B3C1C4"/>
<path d="M88.7592 257.59C87.0992 257.939 86.1522 259.66 85.5052 261.229C84.6652 263.264 83.9462 265.428 84.1192 267.623C84.2922 269.817 85.5502 272.054 87.6242 272.79C90.4572 273.795 93.6692 271.504 94.5052 268.616C95.3412 265.729 94.3402 262.604 92.8122 260.016C92.4072 259.329 91.9262 258.631 91.2002 258.301C90.4742 257.971 89.4492 258.18 89.1522 258.92L88.7592 257.59Z" fill="#B59686"/>
<path d="M64.8212 227.053C59.8702 230.182 57.6582 237.346 60.6692 242.369C63.3912 246.911 69.0543 248.601 74.2363 249.683C77.6123 250.388 81.3762 250.933 84.3052 249.111C98.5672 240.24 78.7192 218.27 64.8212 227.053Z" fill="#DDCD97"/>
<path d="M46.6933 190.722C45.9523 190.52 45.1703 190.364 44.4203 190.527C42.9163 190.854 41.9713 192.344 41.4273 193.785C39.9403 197.722 40.2423 202.296 42.2323 206.003C43.9673 209.235 46.8523 211.733 48.6053 214.957C50.2323 217.945 51.0973 221.767 54.1383 223.292C56.1143 224.284 58.5863 223.945 60.4663 222.781C62.3453 221.618 63.6873 219.731 64.5883 217.713C66.5083 213.415 66.5643 208.321 64.7383 203.984C61.9343 197.321 53.4313 192.559 46.6933 190.722Z" fill="#B59686"/>
<path d="M76.4081 201.942C73.8311 201.06 71.5961 204.024 70.8771 206.652C70.2641 208.89 70.0191 211.23 70.1551 213.548C70.3321 216.546 71.7341 220.063 74.7061 220.492C76.5611 220.76 78.4061 219.62 79.4561 218.067C80.5051 216.514 80.8961 214.614 81.1291 212.754C81.6181 208.857 81.0411 204.08 77.5181 202.345L76.4081 201.942Z" fill="#B3C1C4"/>
<path d="M43.8393 172.811C41.6323 173.459 39.3613 174.699 38.5643 176.856C37.5233 179.673 39.5133 182.826 42.0873 184.372C44.6623 185.917 47.7263 186.365 50.5763 187.311C54.2943 188.544 57.7123 190.67 60.4623 193.459C62.3203 195.344 64.2213 197.699 66.8663 197.777C69.7503 197.862 71.9733 195.029 72.5413 192.201C75.2323 178.785 54.0473 169.809 43.8393 172.811Z" fill="#DDCD97"/>
<path d="M26.0842 163.622C25.3112 161.998 22.6442 162.309 21.6382 163.801C20.6312 165.291 20.8432 167.275 21.2632 169.024C22.0102 172.136 23.2972 175.119 25.0472 177.798C25.9592 179.194 27.2632 180.643 28.9292 180.58C30.0542 180.537 31.0282 179.796 31.8202 178.995C34.6862 176.096 36.2152 171.667 34.9292 167.799C33.6422 163.931 29.1252 161.198 25.2802 162.554L26.0842 163.622Z" fill="#B59686"/>
<path d="M25.1723 152.894C23.2763 152.537 21.3413 152.29 19.5473 151.582C15.9003 150.142 13.0313 146.467 13.2503 142.553C13.4863 138.323 17.2783 134.842 21.4463 134.081C25.6143 133.32 29.9393 134.857 33.3883 137.319C36.8363 139.782 39.5573 143.109 42.2333 146.393C44.9003 149.666 47.5663 152.939 50.2333 156.212C51.8963 158.252 53.5083 161.452 51.5383 163.197C48.2203 166.136 44.3583 161.161 41.9993 159.593C36.9703 156.248 31.0973 154.009 25.1723 152.894Z" fill="#B3C1C4"/>
<path d="M3.99417 122.153C4.82017 123.738 5.89917 125.22 7.33017 126.292C10.9432 128.996 16.4182 128.443 19.8242 125.482C27.0322 119.216 24.1032 103.417 14.7842 100.294C2.71818 96.2489 0.145171 114.764 3.99417 122.153Z" fill="#DDCD97"/>
<path d="M33.8744 103.275C30.9314 103.212 29.1514 106.533 28.6014 109.425C27.8904 113.159 28.0424 117.055 29.0444 120.722C29.3394 121.801 29.7364 122.908 30.5594 123.667C31.3824 124.426 32.7434 124.706 33.6244 124.016C34.1964 123.569 34.4474 122.834 34.6594 122.139C36.0484 117.579 36.9694 112.877 37.4034 108.129C37.5844 106.151 37.0614 103.436 35.0754 103.387L33.8744 103.275Z" fill="#B59686"/>
<path d="M9.48418 85.8038C9.88118 87.4628 10.9982 88.8629 12.2522 90.0199C16.5052 93.9489 22.3402 95.563 27.9352 97.049C31.1792 97.91 35.0392 98.6429 37.5602 96.4269C39.1292 95.0479 39.7182 92.7979 39.5172 90.7189C38.7952 83.2779 30.1392 73.0009 22.9802 70.6709C14.6842 67.9709 7.59018 77.8748 9.48418 85.8038Z" fill="#B59686"/>
<path d="M35.2463 48.2978C32.0703 53.6738 32.4774 60.5258 34.5074 66.4318C35.2504 68.5938 36.2234 70.7318 37.8014 72.3868C39.3794 74.0408 41.6504 75.1579 43.9224 74.9029C46.6314 74.5979 48.7544 72.5039 50.5544 70.4569C53.8304 66.7329 56.8244 62.7598 59.4994 58.5838C68.8864 43.9328 43.1053 34.9938 35.2463 48.2978Z" fill="#B3C1C4"/>
<path d="M20.1502 49.2559C17.6422 51.6429 15.0022 54.2619 14.3642 57.6649C13.7262 61.0679 16.2632 65.2259 19.7012 64.8149C22.1662 64.5209 23.8082 62.1859 25.0192 60.0189C26.2552 57.8059 27.4222 55.3039 26.8942 52.8239C26.3662 50.3449 23.2992 48.3589 21.2162 49.8049L20.1502 49.2559Z" fill="#DDCD97"/>
<path d="M38.2522 29.914C36.8012 31.662 35.4312 33.9989 36.3342 36.0839C36.9132 37.4199 38.3112 38.2409 39.7272 38.5839C43.9352 39.6009 48.1482 37.1579 52.4512 36.6829C59.6842 35.8849 66.8102 40.6869 73.9562 39.3119C79.0702 38.3289 83.3413 33.9179 84.1603 28.7759C84.9793 23.6329 82.2912 18.1149 77.7362 15.5899C65.2272 8.65588 46.0352 20.539 38.2522 29.914Z" fill="#B59686"/>
<path d="M102.226 13.0039C98.7873 14.2519 95.2613 15.8219 93.0503 18.7369C90.8383 21.6509 90.4823 26.2729 93.1993 28.7229C95.0793 30.4179 97.8533 30.6609 100.374 30.4319C105.515 29.9629 110.493 27.8489 114.399 24.4739C116.526 22.6359 118.438 19.5799 116.971 17.1819C116.492 16.3989 115.721 15.8438 114.94 15.3648C111.547 13.2858 107.53 12.2418 103.554 12.4068L102.226 13.0039Z" fill="#B3C1C4"/>
<path d="M92.6272 4.89086C88.7342 4.59286 84.7492 5.67993 81.5462 7.91393C81.0672 8.24793 80.5772 8.64693 80.4252 9.21093C80.1922 10.0739 80.8492 10.9319 81.5832 11.4399C84.1302 13.2049 87.6282 12.5829 90.4782 11.3699C93.3282 10.1559 96.0312 8.40383 99.1072 8.03283C102.406 7.63583 106.065 8.82183 108.897 7.08483C109.285 6.84683 109.661 6.53483 109.812 6.10583C110.287 4.75383 108.416 3.84191 106.991 3.69091C102.659 3.23191 98.2512 3.5009 94.0072 4.4829L92.6272 4.89086Z" fill="#DDCD97"/>
<path d="M124.342 24.6137C125.94 25.0067 127.538 25.3998 129.136 25.7938C133.088 26.7668 137.191 27.7437 141.187 26.9727C158.838 23.5657 143.153 6.13969 133.582 3.64569C120.348 0.196691 112.945 21.8087 124.342 24.6137Z" fill="#B59686"/>
<path d="M153.076 14.1169C153.712 14.9469 154.663 15.4798 155.36 16.2608C157.179 18.2978 156.917 21.5389 158.529 23.7429C159.969 25.7109 162.546 26.4068 164.933 26.9018C169.657 27.8818 174.439 28.5809 179.246 28.9929C181.834 29.2149 184.955 29.0989 186.321 26.8899C187.205 25.4629 186.997 23.5948 186.358 22.0418C184.781 18.2128 181.022 15.7688 177.299 13.9548C172.605 11.6688 166.513 8.36779 161.425 7.17879C157.764 6.32379 148.902 8.6709 153.076 14.1169Z" fill="#DDCD97"/>
<path d="M210.706 37.0409C210.21 32.3149 205.572 28.4189 200.831 28.7449L199.5 26.7869C196.692 26.9579 193.937 27.9119 191.624 29.5129C190.129 30.5479 188.696 32.2999 189.303 34.0139C189.574 34.7809 190.207 35.354 190.829 35.877C194.181 38.692 197.939 41.0209 201.953 42.7699C203.557 43.4689 205.337 44.0839 207.025 43.6249C209.666 42.9069 210.991 39.7639 210.706 37.0409Z" fill="#B3C1C4"/>
<path d="M192.453 16.6309C192.293 15.4919 190.309 15.743 189.979 16.846C189.65 17.948 190.384 19.0699 191.153 19.9259C192.784 21.7429 194.761 23.2479 196.947 24.3379C198.535 25.1309 200.698 25.6049 201.895 24.2929C203.216 22.8469 202.151 20.3859 200.499 19.3339C198.846 18.2809 196.802 18.0539 195.032 17.2129L192.453 16.6309Z" fill="#B59686"/>
<path d="M216.349 36.9629C216.344 39.2489 216.764 41.542 216.478 43.81C216.223 45.829 215.418 47.898 216.049 49.832C216.629 51.611 218.276 52.79 219.824 53.842C222.756 55.834 225.688 57.8259 228.62 59.8189C231.099 61.5029 233.652 63.219 236.572 63.894C239.492 64.567 242.904 63.9729 244.806 61.6579C246.621 59.4479 246.646 56.1809 245.609 53.5169C244.571 50.8519 242.64 48.65 240.745 46.508C238.706 44.203 236.666 41.898 234.626 39.592C230.542 34.973 216.379 22.5319 216.349 36.9629Z" fill="#B59686"/>
<path d="M249.048 70.0639C247.979 72.5219 249.019 75.412 250.572 77.597C252.824 80.766 256.069 83.085 259.401 85.089C261.599 86.41 264.087 87.6629 266.614 87.2299C269.79 86.6859 272.034 83.409 272.056 80.187C272.077 76.964 270.255 73.9449 267.828 71.8239C263.372 67.9309 252.824 61.3849 249.048 70.0639Z" fill="#DDCD97"/>
<path d="M259.534 52.6069C258.707 51.4229 257.839 50.2009 256.584 49.4869C255.329 48.7729 253.567 48.7288 252.579 49.7808C252.052 50.3418 251.822 51.1108 251.609 51.8498C250.783 54.7118 249.957 57.5748 249.131 60.4368C248.986 60.9378 248.851 61.5138 249.136 61.9518C249.366 62.3058 249.803 62.4538 250.206 62.5778C255.382 64.1738 260.558 65.7688 265.734 67.3648C267.367 67.8688 269.464 68.2399 270.51 66.8879C271.789 65.2359 270.156 62.9518 268.624 61.5308C266.101 59.1868 263.577 56.8438 261.053 54.5008L259.534 52.6069Z" fill="#B3C1C4"/>
<path d="M277.167 73.7021C276.828 75.0361 276.823 76.4311 276.579 77.7851C275.793 82.1551 272.645 85.686 270.896 89.767C270.48 90.739 270.137 91.812 270.383 92.84C270.575 93.642 271.105 94.3211 271.687 94.9041C273.621 96.8401 276.2 97.9651 278.714 99.0451C282.543 100.692 287.026 102.324 290.704 100.365C292.136 99.6011 293.262 98.3591 294.155 97.0051C296.879 92.8751 297.569 87.4681 295.968 82.7861C294.413 78.2371 279.666 63.8831 277.167 73.7021Z" fill="#B59686"/>
<path d="M303.18 103.295C300.17 103.345 296.48 104.187 295.704 107.096C294.911 110.066 297.793 112.629 300.335 114.358C306.817 118.764 313.339 123.193 320.483 126.417C323.397 127.731 327.01 128.778 329.61 126.918C331.994 125.212 332.361 121.62 331.146 118.952C329.931 116.285 327.518 114.374 325.075 112.754C319.151 108.823 310.572 103.174 303.18 103.295Z" fill="#B3C1C4"/>
<path d="M304.48 87.221C303.56 87.748 302.908 88.639 302.365 89.549C301.512 90.979 300.856 92.5259 300.42 94.1319C300.277 94.6569 300.162 95.231 300.373 95.733C300.605 96.284 301.168 96.606 301.694 96.889C305.85 99.125 310.007 101.362 314.162 103.599C318.122 105.73 322.137 107.882 326.507 108.944C327.722 109.24 329.146 109.402 330.096 108.589C330.947 107.86 331.096 106.595 330.967 105.481C330.65 102.742 329.037 100.284 327.01 98.414C324.982 96.545 322.547 95.1849 320.138 93.8439C317.045 92.1209 308.187 84.94 304.48 87.221Z" fill="#DDCD97"/>
<path d="M341.625 112.812C339.99 113.02 338.248 113.655 337.442 115.093C336.219 117.273 337.708 119.91 338.012 122.391C338.342 125.082 337.221 127.755 337.275 130.465C337.362 134.883 340.539 138.663 344.099 141.28C348.833 144.759 355.421 146.837 360.541 143.957C365.429 141.207 367.203 134.552 365.437 129.228C363.726 124.07 359.609 120.719 355.069 118.107C350.647 115.562 347.276 112.092 341.625 112.812Z" fill="#B59686"/>
<path d="M364.398 150.705C363.796 152.593 364.339 154.697 365.391 156.376C366.443 158.055 367.957 159.385 369.461 160.674C373.178 163.861 377.005 166.983 381.341 169.256C385.677 171.53 390.595 172.926 395.467 172.438C398.267 172.158 401.132 171.172 402.979 169.05C405.683 165.944 405.482 160.995 403.239 157.541C400.996 154.088 397.117 151.978 393.133 150.934C387.683 149.503 381.891 150.288 376.606 148.329C372.6 146.842 366.194 145.069 364.398 150.705Z" fill="#DDCD97"/>
<path d="M391.678 180.762C391.427 181.608 391.259 182.49 391.324 183.368C391.54 186.317 394.295 188.484 397.108 189.397C397.838 189.634 398.615 189.816 399.371 189.678C400.233 189.522 400.971 188.967 401.586 188.344C404.29 185.608 405.933 178.776 402.055 176.134C398.553 173.749 392.715 177.269 391.678 180.762Z" fill="#B59686"/>
<path d="M407.022 160.713C406.971 162.247 406.925 163.811 407.35 165.285C407.775 166.76 408.755 168.158 410.195 168.689C411.844 169.298 413.665 168.674 415.422 168.656C416.691 168.643 417.942 168.95 419.209 169.01C427.946 169.425 421.065 156.523 418.094 153.395C416.178 151.378 413.296 150.711 410.665 151.875C407.286 153.372 407.132 157.447 407.022 160.713Z" fill="#B59686"/>
<path d="M370.409 136.149C370.115 138.92 371.583 141.668 373.697 143.484C375.811 145.3 378.497 146.311 381.19 147.03C384.576 147.934 388.065 148.432 391.564 148.616C393.602 148.723 396.044 148.51 397.047 146.732C397.726 145.528 397.447 143.965 396.706 142.799C395.964 141.632 394.83 140.779 393.713 139.964C389.308 136.752 371.903 122.101 370.409 136.149Z" fill="#B3C1C4"/>
</svg>
