<svg width="21" height="11" viewBox="0 0 21 11" fill="none" xmlns="http://www.w3.org/2000/svg">
<path d="M1.88686 7.90381C0.688442 9.11531 0.263384 10.2883 0.452157 10.6235C0.452157 10.6235 1.39687 10.9307 3.52217 10.9307C5.64747 10.9307 8.10294 11.0144 8.81152 10.5119C9.51981 10.0091 10.5118 9.50641 10.9367 9.53434C10.9367 9.53434 11.8339 10.0928 12.3063 10.1487C12.7785 10.2045 15.5648 10.1208 16.8401 10.1767C18.1155 10.2325 19.3902 10.2604 20.2878 9.92526C20.2878 9.92526 20.7129 8.86403 20.0516 8.19373C19.3902 7.52343 19.6142 5.89256 18.3039 4.73067C17.9264 4.39552 17.3596 4.45146 17.5957 3.72522C17.8318 2.99914 17.879 2.32884 17.7844 2.13325C17.6903 1.93775 16.8401 1.63052 16.8401 1.63052L1.88686 7.90381Z" fill="url(#paint0_linear_114_43066)"/>
<path d="M20.4269 8.34778C20.309 7.88699 19.7658 6.51854 19.7426 6.21132C19.7189 5.9041 19.648 5.76437 19.648 5.76437C19.648 5.76437 18.656 5.12199 18.278 4.91265C17.9005 4.70314 17.5463 4.42393 17.0739 4.32605C16.8473 4.27922 16.4037 4.10397 16.0034 3.93411C15.5911 4.81502 15.2162 5.61864 15.1375 5.79229C14.9488 6.21132 14.5708 6.3929 13.886 6.75581C13.484 6.9692 11.461 8.02529 9.81152 8.89185C10.0739 8.99462 11.763 9.65514 12.0678 9.75808C12.3981 9.86997 12.5164 9.84195 12.8704 9.84195C13.2248 9.84195 17.7112 9.74407 18.16 9.68838C18.6089 9.63244 18.5852 9.78609 19.0811 9.56274C19.5769 9.33931 20.5449 9.01808 20.5449 9.01808C20.5449 9.01808 20.545 8.80857 20.4269 8.34778Z" fill="#B6BFBE"/>
<path d="M9.81152 8.89176C10.0739 8.99453 11.763 9.65504 12.0678 9.75799C12.1828 9.79697 12.272 9.81865 12.3545 9.83072C12.1461 9.16303 12.0892 8.47889 11.8872 7.80353C11.2238 8.15075 10.4863 8.53703 9.81152 8.89176Z" fill="url(#paint1_linear_114_43066)"/>
<path opacity="0.5" d="M16.1996 8.82928C15.9552 8.72245 15.7115 8.6131 15.4679 8.50113C14.6178 8.08228 13.4371 8.02633 12.4454 7.60748C12.4171 7.59069 12.3876 7.5739 12.3568 7.55753C12.206 7.6365 12.0489 7.7186 11.8872 7.8034C12.0878 8.47489 12.1459 9.15506 12.3509 9.81929C13.521 9.48026 14.7486 9.28475 15.9405 8.92024C16.0288 8.89096 16.1147 8.86058 16.1996 8.82928Z" fill="url(#paint2_linear_114_43066)"/>
<path d="M18.0658 9.56263C17.4252 9.34333 16.8093 9.09534 16.1997 8.82947C16.1148 8.86077 16.0289 8.89115 15.9406 8.92034C14.7486 9.28486 13.5211 9.48045 12.3511 9.8194C12.3522 9.82319 12.3535 9.82707 12.3546 9.83079C12.5089 9.85365 12.6399 9.84192 12.8706 9.84192C13.225 9.84192 17.7113 9.74405 18.1602 9.68836C18.2455 9.67772 18.314 9.67469 18.372 9.67528C18.2682 9.63773 18.1656 9.60018 18.0658 9.56263Z" fill="url(#paint3_linear_114_43066)"/>
<path opacity="0.4" d="M16.5072 8.58524C16.885 7.99856 17.2627 7.41221 17.6406 6.79777C17.8693 6.45967 18.1901 6.12148 18.4296 5.76886C18.4028 5.7692 18.3761 5.76937 18.3493 5.76979C17.2379 5.78565 16.1315 5.84193 15.0347 5.97145C14.8232 6.27167 14.4645 6.4492 13.8861 6.75583C13.6885 6.86055 13.0998 7.16861 12.3569 7.55777C12.3878 7.57414 12.4173 7.59093 12.4455 7.60772C13.4372 8.02657 14.6179 8.08243 15.468 8.50137C15.7036 8.60971 15.9392 8.71561 16.1755 8.81889C16.2929 8.73974 16.4471 8.67367 16.5072 8.58524Z" fill="url(#paint4_radial_114_43066)"/>
<path opacity="0.5" d="M20.4265 8.3476C20.3086 7.88681 19.7654 6.51836 19.7421 6.21114C19.7203 5.92873 19.6588 5.78824 19.6488 5.76731C19.2422 5.76351 18.8352 5.76368 18.4293 5.76875C18.1896 6.12136 17.869 6.45955 17.6402 6.79766C17.2624 7.4121 16.8847 7.99845 16.5069 8.58513C16.4468 8.67356 16.2926 8.73963 16.1753 8.81877C16.1946 8.82721 16.2135 8.83523 16.2322 8.84358C17.5877 8.88113 18.9276 9.06077 20.2746 9.10988C20.4366 9.05394 20.5447 9.01799 20.5447 9.01799C20.5447 9.01799 20.5446 8.80839 20.4265 8.3476Z" fill="url(#paint5_radial_114_43066)"/>
<path opacity="0.6" d="M19.6493 5.7676C19.6486 5.76583 19.648 5.76448 19.648 5.76448C19.648 5.76448 18.656 5.12211 18.2781 4.91277C17.9005 4.70326 17.5464 4.42405 17.0739 4.32617C17.0503 4.32127 17.0237 4.31478 16.9956 4.3071C17.3302 4.82223 17.8576 5.30538 18.3493 5.76988C18.7823 5.76372 19.2154 5.76355 19.6493 5.7676Z" fill="url(#paint6_linear_114_43066)"/>
<path opacity="0.4" d="M16.9951 4.30698C16.7541 4.24226 16.3613 4.08608 16.0029 3.93411C15.5907 4.81502 15.2157 5.61864 15.1371 5.79229C15.1078 5.85743 15.0733 5.91633 15.0342 5.97143C16.1311 5.84191 17.2374 5.78571 18.3488 5.76977C17.8571 5.30526 17.3297 4.82211 16.9951 4.30698Z" fill="url(#paint7_linear_114_43066)"/>
<path opacity="0.5" d="M20.4269 8.34778C20.309 7.88699 19.7658 6.51854 19.7426 6.21132C19.7207 5.9289 19.6592 5.78841 19.6492 5.76749C19.6485 5.76572 19.648 5.76437 19.648 5.76437C19.648 5.76437 18.656 5.12199 18.278 4.91265C17.9005 4.70314 17.5463 4.42393 17.0739 4.32605C17.0502 4.32116 17.0237 4.31466 16.9956 4.30698C16.7546 4.24226 16.3618 4.08608 16.0034 3.93411C15.5911 4.81502 15.2162 5.61864 15.1375 5.79229C15.1083 5.85743 15.0738 5.91633 15.0347 5.97143C15.0897 5.96493 15.148 5.95869 15.2092 5.95253C15.7138 5.48735 15.83 4.90826 16.5073 4.50755C16.9325 4.87063 17.2628 5.23379 17.9242 5.513C18.0837 5.56017 18.2427 5.64742 18.3173 5.77424C18.3725 5.77213 18.4109 5.77061 18.4291 5.76968C18.4294 5.76934 18.4294 5.76917 18.4299 5.76875C18.4457 5.76858 18.4448 5.76875 18.4291 5.76968C18.4117 5.79533 18.3928 5.82081 18.3748 5.84638C18.75 5.82402 19.2477 5.90646 19.2937 6.01564C19.7189 6.9093 19.5298 7.85889 19.9075 8.78047C19.9392 8.98543 19.2309 8.85506 18.8058 8.85506C17.9968 8.85506 17.0014 8.80629 16.2025 8.81245C16.211 8.82224 16.2191 8.83203 16.2281 8.84165C16.2974 8.87185 16.2659 8.85802 16.2281 8.84165C16.6648 9.09714 17.9556 9.56258 17.4519 9.59987C16.0372 9.6521 14.0558 9.82812 12.6801 9.7283C12.5699 9.75766 12.4605 9.7877 12.3512 9.81934C12.3381 9.77631 12.3251 9.73336 12.3132 9.69024C11.7914 9.60232 11.0315 9.21561 11.0763 9.00399C11.178 8.6129 11.526 8.25437 11.9143 7.89771C11.9056 7.86623 11.8969 7.83476 11.8873 7.80354C11.224 8.15076 10.4864 8.53713 9.81152 8.89185C10.0739 8.99462 11.763 9.65514 12.0678 9.75808C12.1828 9.79706 12.272 9.81875 12.3545 9.83082C12.5087 9.85368 12.6397 9.84195 12.8704 9.84195C13.2248 9.84195 17.7112 9.74407 18.16 9.68838C18.2454 9.67775 18.3139 9.67472 18.3718 9.67531C18.6183 9.67742 18.6794 9.74365 19.0811 9.56274C19.4114 9.4139 19.951 9.22169 20.2748 9.10997C20.4367 9.05403 20.5449 9.01808 20.5449 9.01808C20.5449 9.01808 20.545 8.80857 20.4269 8.34778Z" fill="url(#paint8_radial_114_43066)"/>
<g opacity="0.3">
<path d="M12.7768 8.08256C12.7265 7.98367 12.4852 8.02805 12.5243 8.13066C12.5779 8.21799 12.8298 8.18584 12.7768 8.08256C12.7975 8.12256 12.7654 8.06003 12.7768 8.08256Z" fill="#94998D"/>
<path d="M12.4972 7.90918C12.4692 7.87653 12.4251 7.88244 12.387 7.90184C12.1776 7.94412 12.6071 8.03541 12.4972 7.90918C12.5264 7.9426 12.4774 7.88598 12.4972 7.90918Z" fill="#94998D"/>
<path d="M12.4338 8.34821C12.3309 8.34821 12.3452 8.44187 12.4468 8.44187C12.5492 8.44187 12.5355 8.34821 12.4338 8.34821Z" fill="#94998D"/>
<path d="M12.8634 8.30505C12.7458 8.30505 12.7619 8.4123 12.8783 8.4123C12.9961 8.41238 12.9798 8.30505 12.8634 8.30505Z" fill="#93998D"/>
<path d="M16.2719 5.07864C16.1607 5.06691 16.1664 5.17264 16.2585 5.17669C16.3431 5.18023 16.3576 5.08759 16.2719 5.07864C16.3213 5.0837 16.2145 5.07274 16.2719 5.07864Z" fill="#94998D"/>
<path d="M14.2651 9.61038C14.2539 9.56465 14.212 9.49192 14.1014 9.52575C13.752 9.63241 14.307 9.77889 14.2651 9.61038C14.2775 9.66017 14.2628 9.60144 14.2651 9.61038Z" fill="#93998D"/>
<path d="M14.7401 9.06714C14.658 8.98133 14.4942 9.22754 14.6953 9.21792C14.8024 9.21278 14.7682 9.09676 14.7401 9.06714C14.7592 9.08731 14.715 9.04115 14.7401 9.06714Z" fill="#94998D"/>
<path d="M14.8077 9.37625C14.7208 9.37625 14.7326 9.45557 14.8185 9.45557C14.9056 9.45565 14.8935 9.37625 14.8077 9.37625Z" fill="#94998D"/>
<path d="M17.6522 8.28199C17.5137 8.22309 17.4075 8.36341 17.5211 8.40518C17.6548 8.45463 17.7711 8.33245 17.6522 8.28199C17.7073 8.30536 17.6153 8.26621 17.6522 8.28199Z" fill="#93998D"/>
<path d="M17.6998 7.93682C17.6822 7.84755 17.4924 7.98643 17.6488 7.98854C17.6953 7.97724 17.7124 7.95994 17.6998 7.93682Z" fill="#93998D"/>
<path d="M19.2881 6.88127C19.2624 6.81647 19.1239 6.86076 19.1327 6.90751C19.142 6.95552 19.3149 6.94683 19.2881 6.88127C19.301 6.91232 19.2863 6.87722 19.2881 6.88127Z" fill="#94998D"/>
<path d="M19.454 9.20105C19.3774 9.20105 19.3878 9.27083 19.4634 9.27083C19.5402 9.27075 19.5296 9.20105 19.454 9.20105Z" fill="#93998D"/>
<path d="M15.998 5.75552C15.9286 5.70236 15.7446 5.73737 15.7543 5.80707C15.7725 5.93988 16.0971 5.83129 15.998 5.75552C16.0148 5.76843 15.9744 5.73737 15.998 5.75552Z" fill="#94998D"/>
<path d="M16.649 5.82016C16.5847 5.83762 16.517 5.91593 16.6366 5.91871C16.7595 5.92192 16.7501 5.79307 16.649 5.82016C16.7015 5.80607 16.6306 5.82505 16.649 5.82016Z" fill="#93998D"/>
<path d="M16.5217 5.59616C16.6194 5.56612 16.4953 5.59388 16.4922 5.61835C16.4769 5.72864 16.8369 5.55718 16.5217 5.59616C16.61 5.58536 16.5356 5.59194 16.5217 5.59616Z" fill="#94998D"/>
<path d="M15.9869 6.16141C15.897 6.16141 15.9096 6.24334 15.9982 6.24334C16.0876 6.24334 16.0755 6.16141 15.9869 6.16141Z" fill="#93998D"/>
<path d="M17.3096 5.29691C17.2458 5.19169 17.0356 5.28696 17.0163 5.35142C16.9768 5.4844 17.3919 5.43352 17.3096 5.29691C17.3357 5.34054 17.2764 5.24274 17.3096 5.29691Z" fill="#94998D"/>
<path d="M18.0815 5.2977C17.9769 5.2977 17.9913 5.39313 18.095 5.39313C18.1997 5.39313 18.1849 5.2977 18.0815 5.2977Z" fill="#93998D"/>
<path d="M19.8129 8.55734C19.6578 8.55734 19.6793 8.69868 19.8324 8.69868C19.9879 8.69868 19.9662 8.55734 19.8129 8.55734Z" fill="#94998D"/>
<path d="M20.1035 7.83119C20.0935 7.77718 19.9847 7.77811 19.9752 7.82958C19.8331 7.93033 20.2431 7.92704 20.1035 7.83119C20.1189 7.84173 20.1031 7.82823 20.1035 7.83119Z" fill="#94998D"/>
<path d="M19.8274 8.19899C19.7904 8.15512 19.6467 8.18102 19.6417 8.22642C19.6346 8.28903 19.8886 8.2719 19.8274 8.19899Z" fill="#93998D"/>
<path d="M17.3903 4.62299C17.2883 4.62299 17.3023 4.7158 17.403 4.7158C17.5048 4.7158 17.4906 4.62299 17.3903 4.62299Z" fill="#94998D"/>
<path d="M19.0155 7.84088C18.8979 7.78334 18.7608 7.8716 18.8388 7.93733C18.9414 8.02415 19.1517 7.90763 19.0155 7.84088C19.0664 7.86586 18.9839 7.82553 19.0155 7.84088Z" fill="#93998D"/>
<path d="M19.358 7.81313C19.3456 7.79861 19.2472 7.78199 19.2339 7.81296C19.2363 7.83971 19.2579 7.85979 19.2988 7.87304C19.365 7.86814 19.3844 7.84814 19.358 7.81313C19.3697 7.82713 19.3435 7.79591 19.358 7.81313Z" fill="#94998D"/>
<path d="M19.3657 7.29297C19.2826 7.29297 19.2938 7.36882 19.376 7.36882C19.4593 7.36882 19.4477 7.29297 19.3657 7.29297Z" fill="#94998D"/>
<path d="M17.8966 8.71636C17.8596 8.6891 17.7562 8.66548 17.7426 8.72108C17.4961 8.86453 18.1805 8.83972 17.8966 8.71636C17.9736 8.75011 17.9093 8.72598 17.8966 8.71636Z" fill="#93998D"/>
<path d="M17.0117 8.92357C16.9695 8.87741 16.9251 8.87615 16.8786 8.91994C16.8623 9.00035 17.0274 9.0017 17.0117 8.92357C17.0153 8.9412 17.0028 8.88011 17.0117 8.92357Z" fill="#94998D"/>
<path d="M17.2156 9.00409C17.1057 9.00409 17.1204 9.10458 17.2299 9.10458C17.34 9.10458 17.3249 9.00409 17.2156 9.00409Z" fill="#93998D"/>
<path d="M16.8267 9.0814C16.8151 8.99838 16.5788 9.01466 16.5861 9.10267C16.6012 9.1997 16.8402 9.17979 16.8267 9.0814C16.8298 9.1052 16.8248 9.06934 16.8267 9.0814Z" fill="#94998D"/>
<path d="M15.4281 9.52292C15.3365 9.52292 15.3489 9.60628 15.4397 9.60628C15.5309 9.60628 15.5185 9.52292 15.4281 9.52292Z" fill="#93998D"/>
<path d="M14.7108 7.33444C14.6071 7.33444 14.6213 7.42903 14.7239 7.42903C14.8277 7.42895 14.8134 7.33444 14.7108 7.33444Z" fill="#94998D"/>
<path d="M15.4852 6.52333C15.3752 6.54181 15.2085 6.67868 15.4064 6.7007C15.6075 6.72306 15.6978 6.4873 15.4852 6.52333C15.5501 6.51228 15.4568 6.52806 15.4852 6.52333Z" fill="#93998D"/>
<path d="M15.421 7.04904C15.3313 7.04904 15.3434 7.1308 15.4323 7.1308C15.522 7.1308 15.5096 7.04904 15.421 7.04904Z" fill="#94998D"/>
<path d="M13.7025 8.823C13.6197 8.77094 13.491 8.86393 13.4957 8.90013C13.5121 9.02104 13.8787 8.93396 13.7025 8.823C13.7413 8.84747 13.6748 8.80554 13.7025 8.823Z" fill="#94998D"/>
<path d="M13.0173 9.38922C12.9425 9.38922 12.9525 9.4574 13.0262 9.4574C13.1014 9.4574 13.0912 9.38922 13.0173 9.38922Z" fill="#94998D"/>
<path d="M13.4179 9.29031C13.3263 9.29031 13.3387 9.37385 13.4292 9.37385C13.5208 9.37385 13.5084 9.29031 13.4179 9.29031Z" fill="#93998D"/>
<path d="M13.8039 9.78466C13.7918 9.74289 13.7565 9.72855 13.6982 9.74188C13.5451 9.79605 13.8266 9.88043 13.8039 9.78466C13.8103 9.81242 13.7992 9.76298 13.8039 9.78466Z" fill="#93998D"/>
</g>
<path opacity="0.8" d="M18.2226 6.05311C17.7031 6.4999 17.3374 7.24032 17.0638 7.65723C16.9279 7.86413 16.7985 8.07263 16.6568 8.27809C16.5495 8.43343 16.3911 8.58615 16.1867 8.79921C15.7488 8.59299 15.344 8.3817 14.8312 8.24003C14.3209 8.09912 13.7683 8.0155 13.2512 7.8832C13.2424 7.88092 13.2371 7.88826 13.2453 7.89087C13.7105 8.05322 14.224 8.15135 14.7133 8.28425C14.9657 8.35276 15.2068 8.42912 15.432 8.52608C15.6731 8.63003 16.2076 8.85524 16.2076 8.85524C16.2076 8.85524 16.6151 8.54784 16.7453 8.35842C16.8865 8.15228 17.0034 7.94057 17.1262 7.73022C17.2494 7.51893 17.3718 7.3063 17.5129 7.09907C17.6656 6.87403 18.2351 6.0424 18.2226 6.05311Z" fill="url(#paint9_radial_114_43066)"/>
<path opacity="0.6" d="M16.3657 5.84839C16.3657 5.84839 18.0973 5.78325 18.302 5.81118C18.302 5.81118 18.3177 5.90433 18.2231 6.05318L18.4297 5.76899C18.4297 5.76899 18.3335 5.68073 18.1604 5.59686C17.9869 5.51316 17.7667 5.43865 17.6089 5.34558C17.6089 5.34558 18.1286 5.6528 18.1604 5.69938C18.1918 5.74596 16.3657 5.84839 16.3657 5.84839Z" fill="url(#paint10_radial_114_43066)"/>
<path d="M20.4279 8.3475C20.31 7.88671 19.7668 6.51826 19.7435 6.21104C19.7199 5.90382 19.6489 5.76409 19.6489 5.76409C19.6489 5.76409 18.657 5.12172 18.279 4.91237C17.9015 4.70286 17.5473 4.42365 17.0749 4.32578C16.8483 4.27895 16.4047 4.10369 16.0043 3.93384C15.5921 4.81475 15.2171 5.61837 15.1385 5.79202C14.9497 6.21104 14.5718 6.39263 13.887 6.75554C13.4849 6.96893 11.4619 8.02501 9.8125 8.89158C10.0749 8.99435 11.764 9.65486 12.0688 9.75781C12.3991 9.86969 12.5174 9.84168 12.8714 9.84168C13.2258 9.84168 17.7121 9.7438 18.161 9.68811C18.6099 9.63217 18.5862 9.78582 19.082 9.56247C19.5779 9.33904 20.5459 9.01781 20.5459 9.01781C20.5459 9.01781 20.546 8.8083 20.4279 8.3475Z" fill="url(#paint11_radial_114_43066)"/>
<g opacity="0.6">
<path d="M18.278 4.91265C17.9005 4.70314 17.5463 4.42393 17.0739 4.32605C16.8473 4.27922 16.4037 4.10397 16.0034 3.93411C15.5911 4.81502 15.2162 5.61864 15.1375 5.79229C14.9488 6.21132 14.5708 6.3929 13.886 6.75581C13.484 6.9692 11.461 8.02529 9.81152 8.89185C10.0739 8.99462 11.763 9.65514 12.0678 9.75808C12.3981 9.86997 12.5164 9.84195 12.8704 9.84195C12.9701 9.84195 13.3975 9.83411 13.9702 9.82187C13.9002 9.81073 13.6127 9.74635 13.602 9.69977C13.5884 9.63928 14.5039 9.31147 14.602 9.27459C14.2894 9.29839 13.1482 9.52941 13.082 9.52452C12.9691 9.51608 12.8155 8.74326 12.8243 8.59484C12.8315 8.47772 12.8544 8.34879 12.9626 8.24728C13.0018 8.21024 13.2569 8.03026 13.343 7.97069C13.3757 7.93213 13.4082 7.87999 13.441 7.82387C14.4051 7.23255 15.5871 6.68105 15.9089 5.8668C16.1923 5.31758 16.5073 5.01981 16.8378 4.77756C17.1368 4.79629 18.4192 5.10959 18.5775 5.21186C18.7224 5.30552 18.8832 5.38432 19.0386 5.47132C19.2171 5.57114 19.4 5.68522 19.6248 5.74951C19.4745 5.65248 18.6221 5.10326 18.278 4.91265Z" fill="url(#paint12_radial_114_43066)"/>
</g>
<path d="M10.9108 9.03209C11.8551 8.12443 14.319 7.26335 15.1218 6.4534C15.6954 5.90013 15.7885 5.21025 16.2575 4.67065C16.3946 4.51244 16.1529 4.11671 16.7875 4.24235C16.5588 4.16388 16.2716 4.04785 16.0034 3.93411C15.5911 4.81502 15.2162 5.61864 15.1375 5.79229C14.9488 6.21132 14.5708 6.3929 13.886 6.75581C13.484 6.96921 11.461 8.02529 9.81152 8.89185C10.0739 8.99463 11.763 9.65514 12.0678 9.75808C12.1423 9.78323 12.2055 9.80111 12.2637 9.81402C11.6192 9.43702 10.8394 9.3972 10.9108 9.03209Z" fill="url(#paint13_radial_114_43066)"/>
<path d="M18.0668 9.56249C18.1666 9.60004 18.2692 9.63767 18.3728 9.67505C18.6194 9.67716 18.6805 9.74339 19.0821 9.56249C19.4124 9.41364 19.9521 9.22143 20.2758 9.10971C18.9287 9.0606 17.5889 8.88096 16.2334 8.84341C16.8322 9.10397 17.4379 9.34715 18.0668 9.56249Z" fill="url(#paint14_linear_114_43066)"/>
<path d="M0.686983 10.1209C0.686983 10.1209 0.639611 9.96727 0.87604 9.43661C1.11176 8.90604 1.82047 7.98429 1.82047 7.98429L5.52758 3.40406C5.52758 3.40406 10.2503 2.07763 12.0687 1.68654C13.8868 1.29544 16.083 0.904601 16.9568 0.876587L17.5 1.40733C17.5 1.40733 15.587 5.48475 15.3984 5.90385C15.2092 6.32271 14.8315 6.50429 14.1466 6.86737C13.4617 7.23028 8.07779 10.0372 7.84194 10.1908C7.60565 10.3444 2.88291 10.4561 2.88291 10.4561C2.88291 10.4561 1.34833 10.4421 0.686983 10.1209Z" fill="#AEB4A6"/>
<path opacity="0.6" d="M7.68526 3.43008C7.21282 3.45683 6.73797 3.48898 6.25897 3.52931C5.96861 3.55395 5.70493 3.52999 5.44895 3.49995L2.86035 6.69831C4.15494 6.1739 5.73489 5.90617 7.20355 5.48436C7.29216 5.45812 7.37905 5.42901 7.46509 5.39754C7.5741 5.27958 7.68283 5.16195 7.79155 5.04433C7.81924 4.50194 7.71693 3.97179 7.68526 3.43008Z" fill="url(#paint15_linear_114_43066)"/>
<path opacity="0.3" d="M9.34697 3.35593C8.79592 3.37516 8.24245 3.39888 7.68555 3.43035C7.71722 3.97206 7.81938 4.50221 7.79199 5.04459C8.23759 4.56288 8.68192 4.08209 9.13994 3.58552C9.21428 3.51034 9.28334 3.43381 9.34697 3.35593Z" fill="url(#paint16_linear_114_43066)"/>
<path d="M1.81963 7.98417C1.81963 7.98417 1.11091 8.90592 0.875198 9.43649C0.703833 9.82142 0.681432 10.0077 0.682145 10.0813C1.41526 9.95162 2.15452 9.83492 2.88506 9.69021C2.90747 9.67536 2.92873 9.66034 2.95056 9.64549C2.49083 9.08893 2.10015 8.50478 1.88441 7.90384L1.81963 7.98417Z" fill="url(#paint17_linear_114_43066)"/>
<path d="M12.0683 1.6864C11.2486 1.86275 9.83783 2.22921 8.53654 2.57871C8.25645 2.71219 7.97123 2.84416 7.67615 2.97115C7.25109 3.16665 6.82603 3.25036 6.40097 3.41793C6.32849 3.45008 6.27013 3.49041 6.21191 3.53269C6.22747 3.53168 6.24331 3.53092 6.25914 3.52957C7.56957 3.41895 8.85302 3.3679 10.1289 3.33111C11.7485 2.60191 13.2951 1.80091 14.9742 1.12723C14.0629 1.27962 13.0144 1.48305 12.0683 1.6864Z" fill="url(#paint18_linear_114_43066)"/>
<path d="M6.40058 3.41772C6.82564 3.25014 7.2507 3.16644 7.67576 2.97094C7.97084 2.84386 8.25606 2.71198 8.53615 2.57849C6.95092 3.00384 5.52678 3.4038 5.52678 3.4038L5.44873 3.50007C5.69072 3.52834 5.93971 3.55087 6.21153 3.53256C6.26974 3.49028 6.3281 3.44987 6.40058 3.41772Z" fill="url(#paint19_linear_114_43066)"/>
<path opacity="0.3" d="M10.1289 3.33113C10.7917 3.31189 11.4525 3.29654 12.1144 3.27848C11.9032 3.08787 11.6464 2.91557 11.3845 2.74951C10.9685 2.94578 10.5513 3.14103 10.1289 3.33113Z" fill="url(#paint20_linear_114_43066)"/>
<path d="M16.2469 0.938599C15.8816 0.982982 15.4464 1.04795 14.974 1.12693C13.7329 1.62493 12.5637 2.19255 11.3843 2.74928C11.6461 2.91525 11.9029 3.08755 12.1141 3.27824C12.6753 3.26322 13.2369 3.24643 13.8008 3.22374C14.1789 3.02173 14.5585 2.82598 14.9404 2.63241C15.5394 2.15643 16.151 1.68653 16.6227 1.1665C16.5058 1.08559 16.3815 1.00821 16.2469 0.938599Z" fill="url(#paint21_linear_114_43066)"/>
<path opacity="0.2" d="M16.2471 0.938463C16.3818 1.00799 16.5059 1.08545 16.623 1.16637C16.7082 1.07271 16.7891 0.977446 16.8642 0.880157C16.6948 0.889355 16.4856 0.909521 16.2471 0.938463Z" fill="url(#paint22_linear_114_43066)"/>
<path d="M17.4744 1.38294L16.956 0.876587C16.9268 0.877431 16.8956 0.879034 16.8638 0.880637C16.3723 1.51812 15.6477 2.07079 14.9404 2.63276C15.7102 2.2431 16.4933 1.8628 17.31 1.46302C17.3655 1.43652 17.4199 1.40977 17.4744 1.38294Z" fill="url(#paint23_linear_114_43066)"/>
<path opacity="0.3" d="M14.9758 5.15568C14.9569 4.91731 14.9338 4.67878 14.9084 4.44049C14.7109 4.74738 14.5183 5.06202 14.144 5.28959C14.4209 5.24386 14.6981 5.19897 14.9758 5.15568Z" fill="url(#paint24_linear_114_43066)"/>
<path opacity="0.3" d="M13.3909 3.44579C11.7618 4.33506 10.0959 5.0716 8.42529 5.90618C8.8943 5.97605 9.35817 6.05207 9.82546 6.11848C11.2388 5.80442 12.6853 5.53045 14.1445 5.28963C14.5188 5.06215 14.7116 4.74741 14.9089 4.44053C14.8491 3.87773 14.7765 3.31433 14.712 2.74866C14.2691 2.97504 13.8296 3.2054 13.3909 3.44579Z" fill="url(#paint25_radial_114_43066)"/>
<path opacity="0.2" d="M7.76967 6.23852C7.64739 6.31066 7.55136 6.39057 7.45947 6.4709C8.20729 6.35226 8.99705 6.29893 9.6584 6.15473C9.71376 6.14233 9.76898 6.1306 9.8242 6.11836C9.35704 6.05196 8.89318 5.97593 8.42403 5.90607C8.206 6.01517 7.9877 6.12562 7.76967 6.23852Z" fill="url(#paint26_linear_114_43066)"/>
<path d="M2.88623 9.69031C3.13051 9.64188 3.37379 9.59049 3.61507 9.53447C3.76075 9.49844 3.91271 9.46823 4.06752 9.44064C3.92227 9.34369 3.79628 9.23484 3.67756 9.12506C3.42273 9.31668 3.16147 9.50611 2.88623 9.69031Z" fill="url(#paint27_linear_114_43066)"/>
<path opacity="0.4" d="M9.65815 6.15489C8.9968 6.29901 8.20704 6.35234 7.45922 6.47106C7.30198 6.60834 7.15787 6.74748 6.9193 6.85321C5.62301 7.54098 4.70098 8.35337 3.67578 9.12484C3.7945 9.23462 3.92049 9.34347 4.06574 9.44042C4.51377 9.36043 4.98706 9.30288 5.40784 9.1991C6.85566 8.83214 8.28537 8.46517 9.71908 8.09138C10.8464 7.27274 11.9338 6.39934 12.902 5.5029C11.8074 5.69933 10.7232 5.91568 9.65815 6.15489Z" fill="url(#paint28_linear_114_43066)"/>
<path d="M12.9036 5.50306C11.9356 6.39949 10.8482 7.27289 9.7207 8.09153C10.579 7.86785 11.4385 7.64171 12.3047 7.41178C12.7351 7.29137 13.162 7.16919 13.588 7.04693C13.4799 6.51324 13.264 5.99566 13.0374 5.47943C12.9928 5.48745 12.9481 5.49513 12.9036 5.50306Z" fill="url(#paint29_linear_114_43066)"/>
<path d="M14.9751 5.15588C14.3264 5.25705 13.6796 5.36489 13.0361 5.47931C13.2627 5.99553 13.4787 6.51311 13.5868 7.0468C13.7457 7.00116 13.9049 6.95559 14.0638 6.91011C14.0957 6.89332 14.1231 6.87881 14.1452 6.86716C14.53 6.66305 14.8178 6.5164 15.0297 6.35271C15.028 5.95326 15.007 5.55457 14.9751 5.15588Z" fill="url(#paint30_linear_114_43066)"/>
<path d="M16.8435 1.69128C16.1137 2.04795 15.4081 2.39323 14.7119 2.74871C14.8497 3.9549 15.0251 5.15088 15.0308 6.3526C15.1959 6.22485 15.315 6.08698 15.3981 5.90354C15.5375 5.5937 16.6193 3.28443 17.1739 2.10145C17.0562 1.96737 16.9418 1.83177 16.8435 1.69128Z" fill="url(#paint31_linear_114_43066)"/>
<path d="M17.5 1.40717L17.4751 1.38287C17.4206 1.40979 17.3663 1.43654 17.3108 1.46295C17.1535 1.53982 16.9983 1.61584 16.8438 1.69145C16.9422 1.83194 17.0565 1.96753 17.1744 2.10161C17.3694 1.68444 17.5 1.40717 17.5 1.40717Z" fill="url(#paint32_linear_114_43066)"/>
<path d="M3.05684 9.65561C2.2705 9.81652 1.47275 9.94148 0.682129 10.0813C0.682414 10.1091 0.685983 10.1208 0.685983 10.1208C1.2727 10.4059 2.54788 10.4489 2.82655 10.4548C2.98293 10.1962 3.07953 9.93254 3.05684 9.65561Z" fill="url(#paint33_linear_114_43066)"/>
<path d="M7.66075 10.233C7.27607 10.128 6.89782 10.023 6.4953 9.98109C5.49065 9.90979 4.51997 9.75724 3.58367 9.54123C3.40859 9.58165 3.23309 9.61936 3.0573 9.65548C3.07999 9.93249 2.98339 10.1962 2.82715 10.4548C2.86253 10.4556 2.88265 10.4558 2.88265 10.4558C2.88265 10.4558 6.75156 10.3643 7.66075 10.233Z" fill="url(#paint34_linear_114_43066)"/>
<path d="M8.55046 9.80556C9.1172 9.22647 9.80637 8.68594 9.991 8.02078C8.46598 8.41905 6.94739 8.80921 5.40852 9.19921C4.84178 9.33886 4.18086 9.39472 3.61397 9.53436C3.6037 9.53664 3.59314 9.53909 3.58301 9.54137C4.51945 9.75738 5.49 9.90993 6.49464 9.98123C6.89716 10.0232 7.27542 10.1282 7.6601 10.2332C7.75527 10.2194 7.81848 10.2053 7.84102 10.1907C7.88911 10.1593 8.15408 10.016 8.55046 9.80556Z" fill="url(#paint35_linear_114_43066)"/>
<path d="M12.3041 7.41173C11.5291 7.61753 10.7594 7.82012 9.99133 8.02069C9.8067 8.68593 9.11753 9.22646 8.55078 9.80546C10.0244 9.02226 13.3173 7.3039 14.0644 6.91019C13.4806 7.07776 12.895 7.24618 12.3041 7.41173Z" fill="url(#paint36_linear_114_43066)"/>
<path opacity="0.5" d="M17.4759 1.38294L16.9575 0.876587C16.9283 0.877431 16.8971 0.879034 16.8653 0.880637C16.697 0.889666 16.4895 0.909832 16.2525 0.938436C16.798 0.890594 16.7566 0.939533 16.6269 1.1698C16.8924 0.939533 16.9161 0.98476 17.0107 1.0407C17.412 1.36885 16.8736 1.61625 16.8394 1.63059C16.0365 1.96574 15.3754 2.35329 14.7141 2.74422C15.1863 2.51387 15.6525 2.34983 16.1543 2.09138C16.3375 2.02861 16.9989 1.65152 16.7448 2.04962C16.2252 3.02714 15.8949 4.03242 15.3754 5.03788C15.3048 5.23937 15.246 5.41657 15.158 5.44922C15.1491 5.44551 14.9842 5.41935 14.968 5.15297C14.9127 5.15997 14.8776 5.1717 14.8069 5.17854C14.1533 5.28916 13.4329 5.38003 13.0257 5.47766C13.2618 6.0084 13.2972 6.68562 12.7778 7.07655C12.1168 7.55126 10.6528 7.71191 9.75518 8.07508C10.0739 8.0226 9.87931 8.18325 9.70195 8.34028C9.04089 8.89895 8.244 9.3108 7.25233 9.64595C6.13125 10.0436 4.84994 9.62882 3.58618 9.54124C3.58589 9.55035 4.13494 9.69591 4.79015 9.85926C5.23005 9.96895 5.82405 9.96811 6.22543 10.0578C5.629 10.1836 3.26014 10.1759 3.25158 10.1748C3.06951 10.1585 3.27327 9.82045 3.05496 9.65633C2.96663 9.6808 2.87803 9.69126 2.87803 9.69126C2.41116 9.77742 1.73269 9.84483 1.44932 9.84838C1.40223 9.84838 0.776416 9.96355 1.0655 9.49222C1.24571 9.19866 1.50853 8.69627 1.88636 8.58464C2.13449 8.51106 2.57111 9.29317 2.94894 9.63532C2.6299 9.11513 2.02291 8.36306 2.29344 7.80262C2.48265 7.27188 2.95479 6.85303 3.66322 6.48995C5.12147 6.14433 6.2668 5.87905 7.44738 5.40425C7.06927 5.43201 5.82391 5.74286 5.77654 5.60304C5.49331 5.18419 6.7331 4.25561 7.20539 3.86451C7.70122 3.44211 7.70122 4.26953 7.80167 5.03754C7.80167 5.03754 7.95506 4.40217 7.86674 3.69694C7.82593 3.37225 8.6515 3.46312 9.34239 3.35478C8.68104 3.32694 6.60326 3.40718 7.4889 3.13844C9.00008 2.66364 10.9245 2.03873 12.5775 1.75952C13.835 1.55347 11.9635 2.25179 11.3968 2.75434C13.0025 1.9444 13.4687 1.77682 15.3583 1.13445C15.5267 1.09184 15.6886 1.0472 15.9273 0.980457C15.6378 1.02028 15.3169 1.06998 14.9759 1.12685C14.0644 1.27924 13.0161 1.48268 12.07 1.68603C11.2502 1.86238 9.8395 2.22884 8.53821 2.57833C6.95298 3.00368 5.52884 3.40364 5.52884 3.40364L5.45079 3.49991L2.86219 6.69828L1.88651 7.90345L1.82159 7.98387C1.82159 7.98387 1.11287 8.90562 0.877151 9.43619C0.705786 9.82112 0.683385 10.0074 0.684098 10.081C0.684383 10.1088 0.68795 10.1205 0.68795 10.1205C1.27467 10.4056 2.54985 10.4486 2.82851 10.4546C2.8639 10.4554 2.88402 10.4556 2.88402 10.4556C2.88402 10.4556 6.75293 10.364 7.66212 10.2328C7.7573 10.2191 7.82051 10.2049 7.84305 10.1904C7.89128 10.1589 8.15624 10.0156 8.55262 9.80526C10.0263 9.02206 13.3192 7.30369 14.0663 6.90998C14.0982 6.89319 14.1256 6.87868 14.1477 6.86703C14.5326 6.66292 14.8204 6.51627 15.0322 6.35258C15.1973 6.22483 15.3165 6.08696 15.3995 5.90352C15.5389 5.59368 16.6208 3.28441 17.1754 2.10142C17.3706 1.68434 17.501 1.40699 17.501 1.40699L17.4759 1.38294Z" fill="url(#paint37_radial_114_43066)"/>
<g opacity="0.5">
<path d="M5.83301 3.84889C5.79434 3.77312 5.60942 3.80713 5.63953 3.8856C5.68091 3.95251 5.87339 3.92787 5.83301 3.84889C5.84856 3.87961 5.82431 3.8316 5.83301 3.84889Z" fill="#94998D"/>
<path d="M5.61909 3.71606C5.59726 3.69108 5.56344 3.69564 5.53448 3.71049C5.3741 3.7428 5.70299 3.81267 5.61909 3.71606C5.64121 3.74171 5.60354 3.69817 5.61909 3.71606Z" fill="#94998D"/>
<path d="M5.56973 4.05286C5.49082 4.05286 5.50181 4.12449 5.57943 4.12449C5.65848 4.12449 5.64749 4.05286 5.56973 4.05286Z" fill="#94998D"/>
<path d="M5.89923 4.01935C5.80906 4.01935 5.82147 4.10145 5.91079 4.10145C6.00097 4.10145 5.98856 4.01935 5.89923 4.01935Z" fill="#93998D"/>
<path d="M4.60298 5.2305C4.53464 5.2305 4.5442 5.29252 4.61154 5.29252C4.67946 5.29252 4.67005 5.2305 4.60298 5.2305Z" fill="#94998D"/>
<path d="M4.61527 5.4437C4.53437 5.42185 4.42008 5.4842 4.46617 5.53474C4.54978 5.62604 4.79263 5.49188 4.61527 5.4437C4.67734 5.46058 4.56619 5.43037 4.61527 5.4437Z" fill="#94998D"/>
<path d="M4.08274 5.6471C4.00854 5.65081 4.01995 5.72751 4.09173 5.72422C4.16107 5.72084 4.16136 5.64338 4.08274 5.6471C4.11655 5.64549 4.04407 5.64904 4.08274 5.6471Z" fill="#93998D"/>
<path d="M3.76619 6.02524C3.681 6.01638 3.68528 6.09738 3.7562 6.10042C3.82069 6.10303 3.83168 6.03207 3.76619 6.02524C3.804 6.02929 3.72238 6.02068 3.76619 6.02524Z" fill="#94998D"/>
<path d="M6.97431 5.01937C6.96547 4.98461 6.93379 4.92867 6.84861 4.95474C6.58093 5.03633 7.00656 5.14856 6.97431 5.01937C6.98373 5.0576 6.97246 5.01254 6.97431 5.01937Z" fill="#93998D"/>
<path d="M7.33713 4.60322C7.27392 4.53749 7.14864 4.72624 7.30288 4.71873C7.38507 4.71468 7.35867 4.62592 7.33713 4.60322C7.35182 4.61874 7.31786 4.5833 7.33713 4.60322Z" fill="#94998D"/>
<path d="M7.38892 4.83994C7.32243 4.83994 7.33142 4.9006 7.39734 4.9006C7.46383 4.9006 7.45484 4.83994 7.38892 4.83994Z" fill="#94998D"/>
<path d="M9.56729 4.00219C9.46128 3.95705 9.37995 4.06438 9.46684 4.09653C9.56929 4.13433 9.65818 4.04084 9.56729 4.00219C9.60953 4.02 9.53876 3.99013 9.56729 4.00219Z" fill="#93998D"/>
<path d="M9.60471 3.73753C9.59073 3.66918 9.44576 3.77567 9.56576 3.77719C9.60129 3.7685 9.61427 3.75542 9.60471 3.73753Z" fill="#93998D"/>
<path d="M10.8205 2.92877C10.8007 2.87898 10.6946 2.91299 10.7015 2.94868C10.7086 2.98555 10.841 2.97897 10.8205 2.92877C10.8302 2.95256 10.8191 2.92565 10.8205 2.92877Z" fill="#94998D"/>
<path d="M11.3093 2.60953C11.2508 2.60953 11.2585 2.66302 11.3167 2.66302C11.3755 2.66294 11.3672 2.60953 11.3093 2.60953Z" fill="#93998D"/>
<path d="M15.379 1.51204C15.3257 1.4712 15.1848 1.49812 15.1922 1.55136C15.206 1.65303 15.4549 1.57001 15.379 1.51204C15.3917 1.52183 15.3605 1.49803 15.379 1.51204Z" fill="#94998D"/>
<path d="M15.8775 1.56177C15.8278 1.57502 15.7762 1.63501 15.8681 1.63729C15.9621 1.63957 15.9545 1.54102 15.8775 1.56177C15.9179 1.55072 15.8634 1.56565 15.8775 1.56177Z" fill="#93998D"/>
<path d="M15.7801 1.38991C15.8551 1.36704 15.76 1.38814 15.7577 1.40704C15.7461 1.49142 16.0218 1.35996 15.7801 1.38991C15.848 1.38164 15.7908 1.3867 15.7801 1.38991Z" fill="#94998D"/>
<path d="M15.3699 1.82291C15.3012 1.82291 15.3106 1.88543 15.3786 1.88543C15.4471 1.88552 15.4379 1.82291 15.3699 1.82291Z" fill="#93998D"/>
<path d="M16.3838 1.16073C16.335 1.08015 16.1739 1.15305 16.1592 1.2025C16.1291 1.30434 16.447 1.26562 16.3838 1.16073C16.4039 1.19432 16.3587 1.11922 16.3838 1.16073Z" fill="#94998D"/>
<path d="M16.9748 1.16159C16.8949 1.16159 16.9057 1.23466 16.9848 1.23466C17.0653 1.23458 17.054 1.16159 16.9748 1.16159Z" fill="#93998D"/>
<path d="M15.3201 4.71881C15.2014 4.71881 15.2179 4.82715 15.3354 4.82715C15.4544 4.82715 15.4378 4.71881 15.3201 4.71881Z" fill="#94998D"/>
<path d="M15.5417 4.1626C15.5337 4.12134 15.4503 4.12184 15.4432 4.16133C15.3343 4.23845 15.6484 4.23601 15.5417 4.1626C15.5535 4.1707 15.5411 4.16032 15.5417 4.1626Z" fill="#94998D"/>
<path d="M15.33 4.44452C15.3016 4.41077 15.1916 4.43068 15.1876 4.46553C15.1823 4.51337 15.3768 4.50021 15.33 4.44452Z" fill="#93998D"/>
<path d="M13.1023 3.80185C13.0242 3.80185 13.0352 3.87298 13.112 3.87298C13.19 3.8729 13.1795 3.80185 13.1023 3.80185Z" fill="#94998D"/>
<path d="M14.3475 6.26643C14.2578 6.22256 14.1526 6.28998 14.2123 6.34035C14.2908 6.40692 14.4518 6.31757 14.3475 6.26643C14.3865 6.28559 14.3234 6.25462 14.3475 6.26643Z" fill="#93998D"/>
<path d="M14.6092 6.24504C14.5999 6.23407 14.5241 6.22149 14.5142 6.24504C14.5159 6.26546 14.5324 6.2809 14.5641 6.29119C14.6146 6.28731 14.6293 6.27187 14.6092 6.24504C14.618 6.25584 14.5981 6.23187 14.6092 6.24504Z" fill="#94998D"/>
<path d="M14.6149 5.84698C14.5514 5.84698 14.5598 5.90504 14.6232 5.90504C14.687 5.90504 14.678 5.84698 14.6149 5.84698Z" fill="#94998D"/>
<path d="M8.14472 8.06102C8.11633 8.04017 8.03713 8.0222 8.02658 8.06473C7.83809 8.17442 8.36217 8.15552 8.14472 8.06102C8.20379 8.08692 8.15442 8.06836 8.14472 8.06102Z" fill="#93998D"/>
<path d="M7.46818 8.21943C7.43593 8.18416 7.40197 8.18307 7.36658 8.21665C7.35417 8.27808 7.4803 8.27926 7.46818 8.21943C7.47117 8.23285 7.46176 8.18602 7.46818 8.21943Z" fill="#94998D"/>
<path d="M7.62377 8.28104C7.53931 8.28104 7.55115 8.35807 7.63448 8.35807C7.71895 8.35807 7.70739 8.28104 7.62377 8.28104Z" fill="#93998D"/>
<path d="M7.32572 8.34078C7.31673 8.27699 7.13595 8.28956 7.14123 8.35681C7.15307 8.43123 7.33628 8.41604 7.32572 8.34078C7.32829 8.35875 7.32443 8.33133 7.32572 8.34078Z" fill="#94998D"/>
<path d="M6.25543 8.67874C6.18551 8.67874 6.19522 8.7427 6.26442 8.7427C6.33476 8.7427 6.32492 8.67874 6.25543 8.67874Z" fill="#93998D"/>
<path d="M2.57115 7.75299C2.49167 7.75299 2.50252 7.82547 2.58114 7.82547C2.66061 7.82547 2.64963 7.75299 2.57115 7.75299Z" fill="#94998D"/>
<path d="M3.16357 7.13163C3.0791 7.14598 2.95154 7.25061 3.10336 7.26757C3.25717 7.2847 3.32637 7.10396 3.16357 7.13163C3.21337 7.1232 3.1416 7.13526 3.16357 7.13163Z" fill="#93998D"/>
<path d="M3.11433 7.53424C3.04584 7.53424 3.05525 7.59676 3.12332 7.59676C3.1918 7.59685 3.18239 7.53424 3.11433 7.53424Z" fill="#94998D"/>
<path opacity="0.4" d="M1.79772 8.89343C1.73451 8.85361 1.63577 8.92474 1.63977 8.95233C1.65232 9.04489 1.93298 8.97832 1.79772 8.89343C1.82754 8.91217 1.77632 8.88002 1.79772 8.89343Z" fill="#94998D"/>
<path opacity="0.4" d="M1.27374 9.32666C1.21652 9.32666 1.22408 9.37889 1.28087 9.37889C1.33823 9.37889 1.3301 9.32666 1.27374 9.32666Z" fill="#94998D"/>
<path opacity="0.4" d="M1.57986 9.25122C1.50966 9.25122 1.51936 9.31518 1.58885 9.31518C1.65891 9.31518 1.64921 9.25122 1.57986 9.25122Z" fill="#93998D"/>
<path opacity="0.4" d="M1.19977 9.68243C1.09518 9.68243 1.1093 9.7777 1.21289 9.7777C1.31734 9.7777 1.30321 9.68243 1.19977 9.68243Z" fill="#93998D"/>
<path opacity="0.4" d="M1.87546 9.6296C1.86605 9.59762 1.83908 9.58665 1.79456 9.59694C1.67684 9.63837 1.89287 9.70301 1.87546 9.6296C1.88046 9.65086 1.87161 9.61297 1.87546 9.6296Z" fill="#93998D"/>
<path opacity="0.4" d="M3.52298 10.1587C3.49216 10.0809 3.30938 10.1558 3.38143 10.2191C3.4542 10.2828 3.54195 10.2069 3.52298 10.1587C3.52654 10.1682 3.51713 10.1439 3.52298 10.1587Z" fill="#93998D"/>
<path opacity="0.4" d="M3.37428 10.3216C3.35188 10.2649 3.24958 10.3174 3.29895 10.3481C3.33847 10.3659 3.36316 10.3569 3.37428 10.3216C3.38056 10.3381 3.37086 10.3131 3.37428 10.3216Z" fill="#94998D"/>
<path opacity="0.4" d="M3.25727 10.0676C3.20177 10.0676 3.20947 10.1185 3.26441 10.1185C3.32034 10.1184 3.31292 10.0676 3.25727 10.0676Z" fill="#94998D"/>
<path opacity="0.4" d="M3.92839 9.91164C3.84478 9.84118 3.70266 9.92978 3.78813 9.97231C3.85576 10.0286 3.99346 9.96674 3.92839 9.91164C3.94951 9.92953 3.91227 9.89805 3.92839 9.91164Z" fill="#94998D"/>
<path opacity="0.4" d="M2.57097 10.0676C2.48464 10.0676 2.49634 10.1466 2.5821 10.1466C2.66842 10.1466 2.65658 10.0676 2.57097 10.0676Z" fill="#94998D"/>
<path opacity="0.4" d="M1.88713 10.151C1.82963 10.151 1.83748 10.2032 1.89427 10.2032C1.95163 10.2032 1.94363 10.151 1.88713 10.151Z" fill="#94998D"/>
<path d="M7.90906 5.24725C7.84656 5.24725 7.85527 5.30404 7.91676 5.30404C7.97926 5.30404 7.97041 5.24725 7.90906 5.24725Z" fill="#93998D"/>
<path d="M11.4263 5.95261C11.3488 5.95261 11.3593 6.02315 11.4357 6.02315C11.513 6.02315 11.5025 5.95261 11.4263 5.95261Z" fill="#94998D"/>
</g>
<path opacity="0.3" d="M7.45612 6.44364C7.45612 6.44364 5.58138 7.64131 5.21796 7.90609C4.46672 8.4532 3.81879 9.04663 3.06898 9.59433C3.05728 9.60269 3.84647 9.08334 4.19719 8.8113C4.56746 8.52425 6.09077 7.45247 6.49442 7.21047C6.86384 6.9894 7.25094 6.76698 7.54016 6.50608C7.54815 6.50482 8.42253 6.33817 8.76255 6.29463C9.22998 6.23489 10.8931 5.9399 11.3446 5.84186C11.8086 5.74102 12.2678 5.63513 12.7352 5.5402C12.7519 5.53666 7.45612 6.44364 7.45612 6.44364Z" fill="url(#paint38_radial_114_43066)"/>
<path opacity="0.6" d="M5.42578 7.56075L7.7497 5.09614L7.70803 3.49236L7.89723 4.8889L9.34164 3.35507C9.34164 3.35507 8.03878 4.94468 7.8814 5.09377C7.72416 5.24262 5.42578 7.56075 5.42578 7.56075Z" fill="url(#paint39_radial_114_43066)"/>
<path opacity="0.6" d="M7.86621 6.18295L8.401 5.95943L9.47199 6.08051L8.51143 5.88492L14.714 2.79431L13.7537 3.18515L12.2581 3.27831H13.5491L8.401 5.86628L7.86621 6.18295Z" fill="url(#paint40_radial_114_43066)"/>
<path opacity="0.3" d="M14.1781 1.45367C14.1781 1.45367 11.6752 2.59877 11.313 2.76635C10.9511 2.93393 10.3213 3.25034 10.3213 3.25034L11.3446 2.83149L12.115 3.27844L11.5178 2.74753L14.1781 1.45367Z" fill="url(#paint41_radial_114_43066)"/>
<path opacity="0.6" d="M4.79541 8.31471L9.34108 3.35503L13.8014 3.22391L7.47176 6.47155L4.79541 8.31471Z" fill="url(#paint42_radial_114_43066)"/>
<g opacity="0.3">
<path d="M3.23747 8.5288C3.16712 8.39144 2.83267 8.4532 2.88675 8.59538C2.96137 8.71688 3.31095 8.67208 3.23747 8.5288C3.26615 8.58458 3.22134 8.4975 3.23747 8.5288Z" fill="#94998D"/>
<path d="M2.85011 8.28828C2.81087 8.24322 2.74938 8.25141 2.69673 8.27816C2.40622 8.3368 3.00221 8.46354 2.85011 8.28828C2.89049 8.33486 2.82215 8.2563 2.85011 8.28828Z" fill="#94998D"/>
<path d="M2.76048 8.89825C2.6178 8.89825 2.63735 9.02828 2.7786 9.02828C2.92129 9.02828 2.90146 8.89825 2.76048 8.89825Z" fill="#94998D"/>
<path d="M3.35811 8.83789C3.19473 8.83789 3.21728 8.98699 3.37894 8.98699C3.5426 8.9869 3.51977 8.83789 3.35811 8.83789Z" fill="#93998D"/>
<path d="M9.5918 3.45975C9.46867 3.45975 9.4855 3.57214 9.6075 3.57214C9.73064 3.57206 9.7138 3.45975 9.5918 3.45975Z" fill="#94998D"/>
<path d="M9.61276 3.8464C9.46622 3.80657 9.25904 3.91997 9.34237 4.01119C9.49376 4.17682 9.93394 3.93356 9.61276 3.8464C9.72533 3.87694 9.52386 3.82226 9.61276 3.8464Z" fill="#94998D"/>
<path d="M8.90132 3.04192C8.76733 3.04841 8.78788 3.18764 8.9173 3.18139C9.04343 3.17524 9.04386 3.03517 8.90132 3.04192C8.96324 3.03896 8.83168 3.04529 8.90132 3.04192Z" fill="#93998D"/>
<path d="M8.32813 3.72669C8.17389 3.71066 8.18131 3.85722 8.30972 3.86262C8.42687 3.86777 8.44685 3.73909 8.32813 3.72669C8.39676 3.73386 8.24866 3.7185 8.32813 3.72669Z" fill="#94998D"/>
<path d="M5.07889 8.24964C4.96445 8.13042 4.7373 8.4724 5.01625 8.45882C5.16536 8.45181 5.11784 8.29065 5.07889 8.24964C5.10543 8.2774 5.04407 8.21344 5.07889 8.24964Z" fill="#94998D"/>
<path d="M13.7073 1.83914C13.5867 1.83914 13.6031 1.94909 13.7223 1.94909C13.8431 1.94909 13.8264 1.83914 13.7073 1.83914Z" fill="#94998D"/>
<path d="M7.53568 7.32799C7.3432 7.24623 7.19638 7.44089 7.35333 7.49886C7.53911 7.56771 7.70048 7.39802 7.53568 7.32799C7.61188 7.36031 7.48446 7.30614 7.53568 7.32799Z" fill="#93998D"/>
<path d="M7.60188 6.84849C7.57734 6.72462 7.31366 6.91734 7.53126 6.9203C7.59575 6.9046 7.61929 6.88064 7.60188 6.84849Z" fill="#93998D"/>
<path d="M10.7373 5.28097C10.7016 5.19102 10.5094 5.2527 10.5215 5.31733C10.5345 5.38408 10.7745 5.37184 10.7373 5.28097C10.755 5.32417 10.735 5.2754 10.7373 5.28097Z" fill="#94998D"/>
<path d="M6.05772 7.06348C5.95142 7.06348 5.96612 7.16043 6.07142 7.16043C6.17772 7.16051 6.16302 7.06348 6.05772 7.06348Z" fill="#93998D"/>
<path d="M13.7157 3.57426C13.6192 3.50051 13.364 3.54911 13.3769 3.64589C13.4025 3.83001 13.8528 3.67956 13.7157 3.57426C13.7389 3.59223 13.6826 3.54886 13.7157 3.57426Z" fill="#94998D"/>
<path d="M14.4444 3.35351C14.5799 3.31174 14.4077 3.35014 14.403 3.38439C14.3821 3.53712 14.8815 3.29934 14.4444 3.35351C14.5672 3.33832 14.4635 3.3476 14.4444 3.35351Z" fill="#94998D"/>
<path d="M12.8092 5.06403C12.6845 5.06403 12.7016 5.1776 12.8249 5.1776C12.9492 5.1776 12.9323 5.06403 12.8092 5.06403Z" fill="#93998D"/>
<path d="M6.27559 6.15475C6.1877 6.00869 5.89562 6.14091 5.86894 6.23061C5.814 6.41514 6.39017 6.34469 6.27559 6.15475C6.31212 6.21559 6.23036 6.07966 6.27559 6.15475Z" fill="#94998D"/>
<path d="M14.6185 4.88905C14.6043 4.81429 14.4534 4.81531 14.44 4.88694C14.2432 5.02659 14.8122 5.02212 14.6185 4.88905C14.6399 4.90374 14.6179 4.885 14.6185 4.88905Z" fill="#94998D"/>
<path d="M10.6776 5.88126C10.5361 5.88126 10.5556 6.01019 10.6956 6.01019C10.8369 6.01019 10.8174 5.88126 10.6776 5.88126Z" fill="#94998D"/>
<path d="M15.2196 4.36589C15.2027 4.34581 15.0656 4.32295 15.0474 4.36573C15.0504 4.40294 15.0805 4.4307 15.1378 4.44926C15.2294 4.44243 15.2565 4.41467 15.2196 4.36589C15.2361 4.38547 15.1996 4.34193 15.2196 4.36589Z" fill="#94998D"/>
<path d="M12.0552 7.01992C11.9965 6.95613 11.9347 6.95461 11.8706 7.01519C11.8488 7.12691 12.0775 7.1286 12.0552 7.01992C12.0604 7.04456 12.043 6.95967 12.0552 7.01992Z" fill="#94998D"/>
<path d="M12.3387 7.13138C12.1855 7.13155 12.2071 7.27119 12.3588 7.27086C12.5116 7.27069 12.4902 7.13129 12.3387 7.13138Z" fill="#93998D"/>
<path d="M11.7991 7.24005C11.7826 7.12471 11.4545 7.148 11.4651 7.27009C11.4865 7.40484 11.8187 7.37649 11.7991 7.24005C11.804 7.27288 11.7968 7.22326 11.7991 7.24005Z" fill="#94998D"/>
<path d="M9.47013 7.91968C9.343 7.91985 9.3614 8.0357 9.48668 8.03553C9.6141 8.03519 9.59598 7.91951 9.47013 7.91968Z" fill="#93998D"/>
<path d="M5.28485 6.33972C5.14088 6.33972 5.16043 6.47093 5.30326 6.47093C5.44708 6.47093 5.42725 6.33972 5.28485 6.33972Z" fill="#94998D"/>
<path d="M6.36057 5.21376C6.2079 5.23958 5.97647 5.42934 6.25128 5.45997C6.53094 5.49111 6.65593 5.1638 6.36057 5.21376C6.45104 5.1984 6.32134 5.22042 6.36057 5.21376Z" fill="#93998D"/>
<path d="M6.27048 5.9437C6.14606 5.9437 6.1629 6.05727 6.28632 6.05727C6.41117 6.05735 6.39405 5.9437 6.27048 5.9437Z" fill="#94998D"/>
<path d="M3.88457 8.4063C3.76928 8.33415 3.59078 8.46308 3.59734 8.51329C3.62032 8.6812 4.12927 8.56029 3.88457 8.4063C3.93836 8.44022 3.84576 8.38225 3.88457 8.4063Z" fill="#94998D"/>
<path d="M2.93515 9.19244C2.83113 9.19244 2.84539 9.28695 2.94813 9.28695C3.05215 9.28695 3.03788 9.19244 2.93515 9.19244Z" fill="#94998D"/>
<path d="M3.48916 9.05539C3.36202 9.05539 3.37929 9.17124 3.50499 9.17124C3.63213 9.17124 3.61472 9.05539 3.48916 9.05539Z" fill="#93998D"/>
<path d="M2.80135 9.83658C2.61186 9.83658 2.63797 10.0092 2.82518 10.0092C3.01466 10.0092 2.9887 9.83658 2.80135 9.83658Z" fill="#93998D"/>
<path d="M4.02601 9.74108C4.00889 9.6832 3.96009 9.66354 3.87919 9.68185C3.6663 9.75703 4.0574 9.87406 4.02601 9.74108C4.03514 9.77973 4.01887 9.71121 4.02601 9.74108Z" fill="#93998D"/>
<path d="M8.1383 9.58324C8.08294 9.44165 7.7512 9.57767 7.88176 9.69226C8.0136 9.80802 8.17241 9.67065 8.1383 9.58324C8.14515 9.6002 8.1276 9.55598 8.1383 9.58324Z" fill="#93998D"/>
<path d="M7.86722 9.87854C7.82641 9.7756 7.6412 9.87087 7.73067 9.92681C7.80187 9.95862 7.84738 9.9425 7.86722 9.87854C7.87877 9.90825 7.86108 9.86302 7.86722 9.87854Z" fill="#94998D"/>
<path d="M7.6543 9.41833C7.55314 9.41833 7.56712 9.51056 7.66729 9.51056C7.76817 9.51064 7.75447 9.41833 7.6543 9.41833Z" fill="#94998D"/>
<path d="M8.71261 9.15927C8.56151 9.03152 8.30339 9.19218 8.45863 9.26921C8.5812 9.37106 8.83047 9.25909 8.71261 9.15927C8.75071 9.1915 8.68336 9.13463 8.71261 9.15927Z" fill="#94998D"/>
<path d="M6.41043 9.41833C6.25333 9.41833 6.27502 9.56144 6.43055 9.56144C6.58708 9.56144 6.56582 9.41833 6.41043 9.41833Z" fill="#94998D"/>
<path d="M5.17244 9.56921C5.06842 9.56921 5.08269 9.66397 5.18556 9.66397C5.28915 9.66389 5.27503 9.56921 5.17244 9.56921Z" fill="#94998D"/>
<path d="M12.7474 3.38977C12.6346 3.38977 12.6498 3.49254 12.7617 3.49254C12.8746 3.49254 12.8589 3.38977 12.7474 3.38977Z" fill="#93998D"/>
<path d="M13.5853 2.14087C13.4453 2.14087 13.4645 2.26862 13.603 2.26862C13.7431 2.26862 13.7239 2.14087 13.5853 2.14087Z" fill="#94998D"/>
</g>
<defs>
<linearGradient id="paint0_linear_114_43066" x1="10.4157" y1="10.7911" x2="10.4157" y2="3.22534" gradientUnits="userSpaceOnUse">
<stop stop-color="#CBCBCB"/>
<stop offset="0.9008" stop-color="#8E8E8E"/>
</linearGradient>
<linearGradient id="paint1_linear_114_43066" x1="9.81147" y1="8.81709" x2="12.3544" y2="8.81709" gradientUnits="userSpaceOnUse">
<stop offset="0.1027" stop-color="white"/>
<stop offset="0.515" stop-color="#D3DDDA"/>
<stop offset="0.9684" stop-color="#BBAE9E"/>
</linearGradient>
<linearGradient id="paint2_linear_114_43066" x1="10.4488" y1="9.16465" x2="14.0388" y2="6.62994" gradientUnits="userSpaceOnUse">
<stop offset="0.1027" stop-color="white"/>
<stop offset="0.515" stop-color="#D3DDDA"/>
<stop offset="0.9684" stop-color="#BBAE9E"/>
</linearGradient>
<linearGradient id="paint3_linear_114_43066" x1="17.1062" y1="8.0774" x2="16.1892" y2="10.5869" gradientUnits="userSpaceOnUse">
<stop offset="0.1027" stop-color="white"/>
<stop offset="0.515" stop-color="#D3DDDA"/>
<stop offset="0.9684" stop-color="#BBAE9E"/>
</linearGradient>
<radialGradient id="paint4_radial_114_43066" cx="0" cy="0" r="1" gradientUnits="userSpaceOnUse" gradientTransform="translate(21.8913 10.2468) scale(9.58 5.66524)">
<stop offset="0.7885" stop-color="#D4E0E5"/>
<stop offset="0.8961" stop-color="#93B2B3"/>
<stop offset="0.9684" stop-color="#6B6650"/>
</radialGradient>
<radialGradient id="paint5_radial_114_43066" cx="0" cy="0" r="1" gradientUnits="userSpaceOnUse" gradientTransform="translate(24.7714 7.27234) scale(7.38027 4.3644)">
<stop offset="0.0168" stop-color="#D3DDDA"/>
<stop offset="0.6047" stop-color="#D2DCD8"/>
<stop offset="0.9684" stop-color="#BBAE9E"/>
</radialGradient>
<linearGradient id="paint6_linear_114_43066" x1="16.9956" y1="5.03848" x2="19.6493" y2="5.03848" gradientUnits="userSpaceOnUse">
<stop offset="0.0168" stop-color="#D3DDDA"/>
<stop offset="0.9684" stop-color="#BBAE9E"/>
</linearGradient>
<linearGradient id="paint7_linear_114_43066" x1="15.0342" y1="4.95273" x2="18.3488" y2="4.95273" gradientUnits="userSpaceOnUse">
<stop offset="0.4283" stop-color="white"/>
<stop offset="0.8506" stop-color="#D3DDDA"/>
</linearGradient>
<radialGradient id="paint8_radial_114_43066" cx="0" cy="0" r="1" gradientUnits="userSpaceOnUse" gradientTransform="translate(15.3987 7.37362) scale(5.18548 3.06649)">
<stop offset="0.2623" stop-color="#D3DDDA"/>
<stop offset="0.5841" stop-color="#D2DCD8"/>
<stop offset="0.9684" stop-color="#BBAE9E"/>
</radialGradient>
<radialGradient id="paint9_radial_114_43066" cx="0" cy="0" r="1" gradientUnits="userSpaceOnUse" gradientTransform="translate(16.2548 8.96699) scale(4.54512 2.68781)">
<stop offset="0.2367" stop-color="#D4E0E5"/>
<stop offset="0.7122" stop-color="#93B2B3"/>
<stop offset="0.9684" stop-color="#6B6650"/>
</radialGradient>
<radialGradient id="paint10_radial_114_43066" cx="0" cy="0" r="1" gradientUnits="userSpaceOnUse" gradientTransform="translate(18.4368 5.68077) scale(0.843513 0.49882)">
<stop offset="0.2367" stop-color="#D4E0E5"/>
<stop offset="0.7122" stop-color="#93B2B3"/>
<stop offset="0.9684" stop-color="#6B6650"/>
</radialGradient>
<radialGradient id="paint11_radial_114_43066" cx="0" cy="0" r="1" gradientUnits="userSpaceOnUse" gradientTransform="translate(18.9102 8.565) scale(5.1856 3.06656)">
<stop offset="0.0104" stop-color="white"/>
<stop offset="0.6479" stop-color="#D3DDDA"/>
<stop offset="0.9684" stop-color="#BBAE9E"/>
</radialGradient>
<radialGradient id="paint12_radial_114_43066" cx="0" cy="0" r="1" gradientUnits="userSpaceOnUse" gradientTransform="translate(22.647 10.7636) scale(12.4467 7.36048)">
<stop offset="0.7268" stop-color="white"/>
<stop offset="0.8163" stop-color="#C4D2CE"/>
<stop offset="0.9008" stop-color="#A29079"/>
</radialGradient>
<radialGradient id="paint13_radial_114_43066" cx="0" cy="0" r="1" gradientUnits="userSpaceOnUse" gradientTransform="translate(18.9357 10.7278) scale(9.69325 5.73221)">
<stop offset="0.7268" stop-color="white"/>
<stop offset="0.8163" stop-color="#C4D2CE"/>
<stop offset="0.9008" stop-color="#A29079"/>
</radialGradient>
<linearGradient id="paint14_linear_114_43066" x1="17.9835" y1="7.93398" x2="18.1344" y2="9.59279" gradientUnits="userSpaceOnUse">
<stop offset="0.1027" stop-color="white"/>
<stop offset="0.515" stop-color="#D3DDDA"/>
<stop offset="0.9684" stop-color="#BBAE9E"/>
</linearGradient>
<linearGradient id="paint15_linear_114_43066" x1="2.86047" y1="5.06422" x2="7.79638" y2="5.06422" gradientUnits="userSpaceOnUse">
<stop offset="0.0168" stop-color="#D3DDDA"/>
<stop offset="0.9684" stop-color="#BBAE9E"/>
</linearGradient>
<linearGradient id="paint16_linear_114_43066" x1="7.68559" y1="4.20028" x2="9.34695" y2="4.20028" gradientUnits="userSpaceOnUse">
<stop stop-color="white"/>
<stop offset="0.5297" stop-color="#D3DDDA"/>
<stop offset="0.9684" stop-color="#BBAE9E"/>
</linearGradient>
<linearGradient id="paint17_linear_114_43066" x1="0.682145" y1="8.99251" x2="2.95064" y2="8.99251" gradientUnits="userSpaceOnUse">
<stop offset="0.0168" stop-color="#D3DDDA"/>
<stop offset="0.9684" stop-color="#BBAE9E"/>
</linearGradient>
<linearGradient id="paint18_linear_114_43066" x1="6.21193" y1="2.32997" x2="14.9743" y2="2.32997" gradientUnits="userSpaceOnUse">
<stop offset="0.1027" stop-color="white"/>
<stop offset="0.515" stop-color="#D3DDDA"/>
<stop offset="0.9684" stop-color="#BBAE9E"/>
</linearGradient>
<linearGradient id="paint19_linear_114_43066" x1="5.44879" y1="3.0588" x2="8.53617" y2="3.0588" gradientUnits="userSpaceOnUse">
<stop offset="0.0168" stop-color="#D3DDDA"/>
<stop offset="0.9684" stop-color="#BBAE9E"/>
</linearGradient>
<linearGradient id="paint20_linear_114_43066" x1="10.1289" y1="3.04036" x2="12.1144" y2="3.04036" gradientUnits="userSpaceOnUse">
<stop stop-color="white"/>
<stop offset="0.5297" stop-color="#D3DDDA"/>
<stop offset="0.9684" stop-color="#BBAE9E"/>
</linearGradient>
<linearGradient id="paint21_linear_114_43066" x1="13.5238" y1="1.56074" x2="14.7231" y2="4.40001" gradientUnits="userSpaceOnUse">
<stop stop-color="white"/>
<stop offset="0.5297" stop-color="#D3DDDA"/>
<stop offset="0.9684" stop-color="#BBAE9E"/>
</linearGradient>
<linearGradient id="paint22_linear_114_43066" x1="16.2471" y1="1.02326" x2="16.8641" y2="1.02326" gradientUnits="userSpaceOnUse">
<stop stop-color="white"/>
<stop offset="0.5297" stop-color="#D3DDDA"/>
<stop offset="0.9684" stop-color="#BBAE9E"/>
</linearGradient>
<linearGradient id="paint23_linear_114_43066" x1="17.0363" y1="1.22361" x2="16.4142" y2="2.45516" gradientUnits="userSpaceOnUse">
<stop offset="0.0229" stop-color="#D3DDDA"/>
<stop offset="1" stop-color="white"/>
</linearGradient>
<linearGradient id="paint24_linear_114_43066" x1="14.144" y1="4.86496" x2="14.9758" y2="4.86496" gradientUnits="userSpaceOnUse">
<stop stop-color="white"/>
<stop offset="0.5297" stop-color="#D3DDDA"/>
<stop offset="0.9684" stop-color="#BBAE9E"/>
</linearGradient>
<radialGradient id="paint25_radial_114_43066" cx="0" cy="0" r="1" gradientUnits="userSpaceOnUse" gradientTransform="translate(15.0281 7.43957) scale(7.199 4.2572)">
<stop stop-color="white"/>
<stop offset="0.5297" stop-color="#D3DDDA"/>
<stop offset="0.9684" stop-color="#BBAE9E"/>
</radialGradient>
<linearGradient id="paint26_linear_114_43066" x1="7.45949" y1="6.18857" x2="9.82425" y2="6.18857" gradientUnits="userSpaceOnUse">
<stop stop-color="white"/>
<stop offset="0.5297" stop-color="#D3DDDA"/>
<stop offset="0.9684" stop-color="#BBAE9E"/>
</linearGradient>
<linearGradient id="paint27_linear_114_43066" x1="2.88617" y1="9.40763" x2="4.06751" y2="9.40763" gradientUnits="userSpaceOnUse">
<stop offset="0.0229" stop-color="#D3DDDA"/>
<stop offset="1" stop-color="white"/>
</linearGradient>
<linearGradient id="paint28_linear_114_43066" x1="10.9916" y1="8.427" x2="7.67069" y2="4.80952" gradientUnits="userSpaceOnUse">
<stop offset="0.4283" stop-color="white"/>
<stop offset="0.8506" stop-color="#D3DDDA"/>
</linearGradient>
<linearGradient id="paint29_linear_114_43066" x1="12.6936" y1="8.32804" x2="11.882" y2="5.60479" gradientUnits="userSpaceOnUse">
<stop offset="0.1027" stop-color="white"/>
<stop offset="0.515" stop-color="#D3DDDA"/>
<stop offset="0.9684" stop-color="#BBAE9E"/>
</linearGradient>
<linearGradient id="paint30_linear_114_43066" x1="16.0792" y1="5.20674" x2="13.8864" y2="7.6561" gradientUnits="userSpaceOnUse">
<stop offset="0.0168" stop-color="#D3DDDA"/>
<stop offset="0.9684" stop-color="#BBAE9E"/>
</linearGradient>
<linearGradient id="paint31_linear_114_43066" x1="17.8691" y1="4.24632" x2="14.5703" y2="3.15057" gradientUnits="userSpaceOnUse">
<stop stop-color="white"/>
<stop offset="0.5297" stop-color="#D3DDDA"/>
<stop offset="0.9684" stop-color="#BBAE9E"/>
</linearGradient>
<linearGradient id="paint32_linear_114_43066" x1="16.4466" y1="1.57822" x2="17.4704" y2="2.12498" gradientUnits="userSpaceOnUse">
<stop offset="0.0168" stop-color="#D3DDDA"/>
<stop offset="0.9684" stop-color="#BBAE9E"/>
</linearGradient>
<linearGradient id="paint33_linear_114_43066" x1="0.682157" y1="10.0552" x2="3.06009" y2="10.0552" gradientUnits="userSpaceOnUse">
<stop offset="0.1027" stop-color="white"/>
<stop offset="0.515" stop-color="#D3DDDA"/>
<stop offset="0.9684" stop-color="#BBAE9E"/>
</linearGradient>
<linearGradient id="paint34_linear_114_43066" x1="2.82722" y1="9.99853" x2="7.66081" y2="9.99853" gradientUnits="userSpaceOnUse">
<stop offset="0.0168" stop-color="#D3DDDA"/>
<stop offset="0.9684" stop-color="#BBAE9E"/>
</linearGradient>
<linearGradient id="paint35_linear_114_43066" x1="3.58289" y1="9.12699" x2="9.99092" y2="9.12699" gradientUnits="userSpaceOnUse">
<stop stop-color="white"/>
<stop offset="0.5297" stop-color="#D3DDDA"/>
<stop offset="0.9684" stop-color="#BBAE9E"/>
</linearGradient>
<linearGradient id="paint36_linear_114_43066" x1="8.55088" y1="8.35784" x2="14.0645" y2="8.35784" gradientUnits="userSpaceOnUse">
<stop offset="0.0168" stop-color="#D3DDDA"/>
<stop offset="0.9684" stop-color="#BBAE9E"/>
</linearGradient>
<radialGradient id="paint37_radial_114_43066" cx="0" cy="0" r="1" gradientUnits="userSpaceOnUse" gradientTransform="translate(9.09216 5.66622) scale(8.25543 4.88193)">
<stop offset="0.0168" stop-color="#D3DDDA"/>
<stop offset="0.6047" stop-color="#D2DCD8"/>
<stop offset="0.9684" stop-color="#BBAE9E"/>
</radialGradient>
<radialGradient id="paint38_radial_114_43066" cx="0" cy="0" r="1" gradientUnits="userSpaceOnUse" gradientTransform="translate(7.90216 7.56724) scale(4.18987 2.47772)">
<stop offset="0.2367" stop-color="#D4E0E5"/>
<stop offset="0.7122" stop-color="#93B2B3"/>
<stop offset="0.9684" stop-color="#6B6650"/>
</radialGradient>
<radialGradient id="paint39_radial_114_43066" cx="0" cy="0" r="1" gradientUnits="userSpaceOnUse" gradientTransform="translate(7.38372 5.45788) scale(2.87037 1.69742)">
<stop offset="0.2367" stop-color="#D4E0E5"/>
<stop offset="0.7122" stop-color="#93B2B3"/>
<stop offset="0.9684" stop-color="#6B6650"/>
</radialGradient>
<radialGradient id="paint40_radial_114_43066" cx="0" cy="0" r="1" gradientUnits="userSpaceOnUse" gradientTransform="translate(11.2901 4.4886) scale(3.1569 1.86686)">
<stop offset="0.2367" stop-color="#D4E0E5"/>
<stop offset="0.7122" stop-color="#93B2B3"/>
<stop offset="0.9684" stop-color="#6B6650"/>
</radialGradient>
<radialGradient id="paint41_radial_114_43066" cx="0" cy="0" r="1" gradientUnits="userSpaceOnUse" gradientTransform="translate(12.2497 2.36613) scale(1.74634 1.03272)">
<stop offset="0.2367" stop-color="#D4E0E5"/>
<stop offset="0.7122" stop-color="#93B2B3"/>
<stop offset="0.9684" stop-color="#6B6650"/>
</radialGradient>
<radialGradient id="paint42_radial_114_43066" cx="0" cy="0" r="1" gradientUnits="userSpaceOnUse" gradientTransform="translate(0.450529 -2.72644) scale(17.3624 10.2674)">
<stop offset="0.7885" stop-color="#D4E0E5"/>
<stop offset="0.8961" stop-color="#93B2B3"/>
<stop offset="0.9684" stop-color="#6B6650"/>
</radialGradient>
</defs>
</svg>
