<svg width="26" height="12" viewBox="0 0 26 12" fill="none" xmlns="http://www.w3.org/2000/svg">
<path d="M24.023 4.0911C23.4505 3.42146 22.7624 2.68123 22.2348 2.07528C21.7905 1.56498 21.4654 1.14287 21.2909 0.92617C21.2398 0.862727 21.2097 0.819482 21.1818 0.7949C20.7679 0.431847 18.2822 0.153656 18.2822 0.153656L13.7813 0.780302C13.7813 0.780302 12.5491 1.93493 10.8362 2.18959C9.12341 2.44426 6.8749 1.98645 6.45313 2.03245C5.69112 2.11552 2.91678 5.00266 2.91678 5.00266C2.91678 5.00266 1.16981 5.904 0.858887 5.99787L1.43974 9.33561L5.33368 11.0879C5.33368 11.0879 9.58616 10.6404 10.3557 11.0848C10.8182 11.3518 17.1631 11.0761 18.8766 11.0177L21.7364 11.1141C21.7364 11.1141 24.1417 10.5345 23.8738 9.88355C23.6058 9.23257 23.4837 8.29358 23.4837 8.29358L25.7162 6.00964C25.7162 6.00964 24.9171 5.13677 24.023 4.0911Z" fill="#A6A7A8"/>
<path d="M22.2382 2.08615C21.8332 1.62104 21.5324 1.22951 21.3502 0.996099C21.2735 0.89777 21.2146 0.82386 21.1779 0.791652C20.7642 0.428599 18.2811 0.153656 18.2811 0.153656C18.2811 0.153656 20.0287 1.18756 20.0436 1.86613C20.0586 2.54469 19.368 3.43622 19.368 3.43622L17.5947 2.76788L17.8804 4.03292L17.695 6.48757L23.9948 7.76933L25.715 6.0094C25.715 6.0094 24.9158 5.13337 24.0197 4.0855C23.4491 3.41846 22.7641 2.69008 22.2382 2.08615Z" fill="#919194"/>
<path d="M21.3449 5.66955C20.2256 5.51946 17.8024 6.05563 17.8024 6.05563L15.1025 7.8464L10.4407 8.08241L9.63672 6.12938L9.12193 8.09003L6.69872 8.62621L5.33252 11.0878C5.33252 11.0878 9.67598 10.6027 10.3546 11.0847C10.5127 11.197 11.2587 11.3752 11.2587 11.3752C11.2587 11.3752 18.2133 11.2546 19.3379 11.2846L22.3128 11.2324C22.3128 11.2324 24.1407 10.5344 23.8726 9.88339C23.6046 9.23241 23.4826 8.29342 23.4826 8.29342L25.715 6.00947C25.715 6.00947 22.4642 5.81964 21.3449 5.66955Z" fill="#A6A7A8"/>
<path d="M17.8656 4.28035L18.3666 3.99899L13.0122 4.2651L17.8656 4.28035Z" fill="#919194"/>
<path d="M10.92 2.18056L6.26611 2.0076L9.97637 3.09967L10.7269 4.92248L13.0963 4.25609L12.6448 2.94488L10.92 2.18056Z" fill="#919194"/>
<path d="M6.26584 2.0076C4.85486 2.43345 2.91602 5.0028 2.91602 5.0028L5.45542 6.67593L9.12217 8.09018L9.63695 6.12953L10.7265 4.92248L10.3135 3.06292L6.26584 2.0076Z" fill="#B6B8BA"/>
<path d="M1.43876 9.33576L5.3327 11.0881L6.6989 8.62644L0.85791 5.99802L1.43876 9.33576Z" fill="#B6B8BA"/>
<path d="M17.4165 6.18831C17.0534 6.59063 15.6344 7.42553 15.1025 7.84627L18.1091 6.15822L17.8649 4.28024C17.8649 4.28024 17.7796 5.78599 17.4165 6.18831Z" fill="#B6B8BA"/>
<path d="M13.7796 0.780577C13.7796 0.780577 13.7318 0.825194 13.6431 0.89821L17.5942 2.76824L14.5549 0.672668L13.7796 0.780577Z" fill="#B6B8BA"/>
<path d="M13.8662 6.98338L15.1026 7.84627L18.1092 6.15822L17.8649 4.28024L13.8662 6.98338Z" fill="#B6B8BA"/>
<path d="M15.1021 7.84634C15.1021 7.84634 11.7237 10.1718 11.2583 11.3752L22.3125 11.2325C22.3125 11.2325 23.9229 10.6489 23.9437 10.0571C23.9645 9.46536 23.482 8.29352 23.482 8.29352C23.482 8.29352 17.9819 8.84756 15.1021 7.84634Z" fill="#89898F"/>
<path d="M9.12193 8.09001L6.69872 8.6262L5.33252 11.0878C5.33252 11.0878 9.66636 10.6438 10.3546 11.0847C10.5233 11.1927 11.2587 11.3752 11.2587 11.3752L12.0532 8.36009C11.3864 8.02462 9.12193 8.09001 9.12193 8.09001Z" fill="#89898F"/>
<path d="M9.12143 8.09009L12.0528 8.36009L13.8657 6.98349L9.63637 6.12936C9.63637 6.12936 8.96061 7.69953 9.12143 8.09009Z" fill="#919194"/>
<path d="M18.2808 0.153656C18.2808 0.153656 20.0998 1.36118 20.0433 1.86613L22.2463 2.0795L21.1864 0.789225C21.1864 0.789225 20.4123 0.193409 18.2808 0.153656Z" fill="#606063"/>
<path d="M0.85791 5.99802L6.25933 8.62904L5.3327 11.0881L6.9373 8.70628L9.12211 8.09026L6.70584 8.42922L0.85791 5.99802Z" fill="#D3D8DE"/>
<path d="M6.26611 2.0076L9.55634 3.22104L10.0957 4.67383L7.48395 4.32367L9.87736 4.99996L9.17826 6.01335L9.1226 8.09025L9.63739 6.12961L10.7269 4.92248L10.3138 3.06292L6.26611 2.0076Z" fill="#D3D8DE"/>
<path d="M9.12231 8.09002L9.25239 7.6035L5.45557 6.67578L9.12231 8.09002Z" fill="#D3D8DE"/>
<path d="M18.0788 5.79873L17.865 4.28024L17.5522 5.9468L15.0842 7.51575L13.8662 6.98338L15.1026 7.84627L18.1092 6.15822C18.1092 6.15822 19.3873 5.83752 19.849 5.81748C20.3108 5.79736 22.1776 5.75638 22.1776 5.75638L20.7778 5.50464L18.0788 5.79873Z" fill="#D3D8DE"/>
<path d="M18.2809 0.153656C18.7731 0.493019 19.3997 1.30147 19.3997 1.30147C18.9346 1.17077 17.8457 1.38016 17.8457 1.38016C17.8457 1.38016 19.2548 1.37774 19.5425 1.64871C19.8303 1.91968 19.7719 2.78573 19.7719 2.78573C19.7719 2.78573 20.2393 2.05646 19.9447 1.48393C19.6504 0.911324 18.2809 0.153656 18.2809 0.153656Z" fill="#D3D8DE"/>
<path d="M17.0494 2.58576L14.5786 3.00617L17.5947 2.76814L16.1135 1.73926L17.0494 2.58576Z" fill="#D3D8DE"/>
<path d="M21.1629 5.58359L22.2503 4.80005L20.7778 5.50465L21.1629 5.58359Z" fill="#D3D8DE"/>
<path d="M9.97537 3.09949L11.4672 3.01252L9.42432 2.90259L9.97537 3.09949Z" fill="#D3D8DE"/>
<path d="M12.9161 9.38498C12.6535 9.74617 11.3638 10.937 11.2593 11.3755C11.2593 11.3755 13.0471 9.70317 13.4665 9.29469C13.8859 8.8862 15.1029 7.84661 15.1029 7.84661L14.7827 7.63965C14.7827 7.63965 13.1786 9.0238 12.9161 9.38498Z" fill="#D3D8DE"/>
<path d="M19.0488 8.26271C16.9569 8.11732 15.1025 7.84634 15.1025 7.84634C18.1074 9.15139 23.5643 9.31243 23.5643 9.31243L23.4826 8.29345C22.2803 8.38577 20.6044 8.37077 19.0488 8.26271Z" fill="#919194"/>
<path d="M8.92969 10.8885C9.58654 10.8973 10.1043 10.9589 10.3544 11.0847L10.8845 9.30372L12.053 8.36011L10.2473 9.04062L8.92969 10.8885Z" fill="#919194"/>
<path d="M19.0414 8.23287C18.9271 8.22549 18.8187 8.21722 18.718 8.20829C17.1932 8.07216 15.1238 7.84426 15.1238 7.84426L13.8662 6.98364L14.5571 7.83234L14.8685 8.05349L19.7608 8.45744L22.952 8.50263C22.952 8.50263 23.5871 9.18922 23.6243 9.85026C23.6614 10.5113 22.3133 11.2326 22.3133 11.2326C22.3133 11.2326 23.8897 10.6375 24.1047 10.1607C24.3197 9.68379 23.4831 8.29355 23.4831 8.29355C23.4831 8.29355 20.657 8.33786 19.0414 8.23287Z" fill="#606063"/>
<path d="M7.20703 8.76364L10.3549 9.30105L10.6762 10.0104L10.8848 9.3038L12.0533 8.36011L10.2477 9.04061L7.20703 8.76364Z" fill="#606063"/>
<path d="M11.1714 6.43076L13.0998 6.97635L12.0537 8.3601L13.8666 6.98349L15.3337 5.98471L13.7269 6.78708L11.1714 6.43076Z" fill="#606063"/>
<path d="M24.9537 6.22875L22.6675 8.38249L23.4829 8.29364L25.7154 6.0097L22.1777 5.75665L24.9537 6.22875Z" fill="#606063"/>
<path d="M22.247 2.07974C22.247 2.07974 18.0853 3.53091 17.8652 4.28054C17.8652 4.28054 20.2115 3.36078 22.2284 2.87773L24.0162 4.09386C24.0162 4.09386 23.1631 3.10855 22.8731 2.77113C22.7038 2.57415 22.247 2.07974 22.247 2.07974Z" fill="#606063"/>
</svg>
