<svg width="10" height="5" viewBox="0 0 10 5" fill="none" xmlns="http://www.w3.org/2000/svg">
<path d="M8.98445 2.02726C8.75164 1.93942 8.51002 1.85913 8.23639 1.79277C7.70451 1.66399 7.15625 1.56308 6.61455 1.4491C6.00658 1.32104 5.15799 1.20227 4.62409 0.937866C4.0267 1.01787 3.41747 1.07043 2.81026 1.11428C2.38017 1.14535 1.94907 1.17482 1.52024 1.21141C1.28819 1.23131 1.04303 1.26804 0.80065 1.28895C0.747739 1.37665 0.707678 1.46681 0.705158 1.5625C0.699363 1.789 0.747991 2.0065 0.703647 2.23286C0.653003 2.49319 0.572377 2.75077 0.521482 3.01067C0.518459 3.02693 0.516443 3.04261 0.513672 3.05873C0.516191 3.06265 0.518963 3.067 0.520978 3.07122C0.552473 3.13859 0.583212 3.20654 0.61899 3.27318C0.702639 3.43304 0.788304 3.60074 0.85608 3.76699C1.10652 3.93832 1.44969 4.06435 1.77799 4.18065C2.14635 4.31074 2.52328 4.45434 2.91734 4.557C3.4079 4.68506 3.92164 4.78016 4.41068 4.90953C4.51777 4.93799 4.63039 4.96732 4.74175 4.99969C5.3525 4.8545 6.04059 4.79207 6.65184 4.66618C7.28853 4.53507 7.89877 4.37478 8.49767 4.19894C9.23489 3.54121 8.95397 2.77023 8.98445 2.02726Z" fill="#D0A089"/>
<path opacity="0.5" d="M4.60684 0.93988C4.01399 1.01858 3.4103 1.07085 2.80787 1.1144C2.37778 1.14548 1.94668 1.17495 1.51785 1.21154C1.37399 1.22374 1.22634 1.24232 1.07617 1.2596C1.15302 1.62796 1.2727 1.97889 1.43546 2.31212C1.45864 2.31822 1.48258 2.32373 1.50601 2.3294C2.0263 2.45688 2.57506 2.55779 3.08502 2.71852C3.09535 2.71547 3.10669 2.71242 3.11702 2.70923C3.40299 2.62283 3.73557 2.57405 4.03918 2.5016C4.31003 2.00198 4.4917 1.48059 4.60684 0.93988Z" fill="url(#paint0_linear_114_41103)"/>
<path opacity="0.5" d="M2.36216 2.43015C1.26262 2.17344 1.50979 2.08937 1.34048 1.8588C1.20014 1.66787 1.21903 1.47273 1.12581 1.25421C1.10943 1.25595 1.0928 1.2577 1.07617 1.25958C1.15302 1.62794 1.2727 1.97888 1.43546 2.3121C1.45864 2.3182 1.48258 2.32372 1.50601 2.32938C2.0263 2.45686 2.57506 2.55777 3.08502 2.7185C3.09535 2.71545 3.10669 2.7124 3.11702 2.70921C3.31203 2.64997 3.52972 2.60844 3.74439 2.56532C3.2629 2.59523 2.80837 2.5344 2.36216 2.43015Z" fill="url(#paint1_linear_114_41103)"/>
<path opacity="0.5" d="M3.11794 2.70911C3.10761 2.7123 3.09627 2.71535 3.08594 2.7184C3.09677 2.72159 3.10761 2.72537 3.11869 2.72871C3.11844 2.72232 3.11844 2.71579 3.11794 2.70911Z" fill="url(#paint2_linear_114_41103)"/>
<path opacity="0.3" d="M8.98237 2.02726C8.74956 1.93942 8.50794 1.85913 8.23431 1.79277C7.70243 1.66399 7.15417 1.56308 6.61247 1.4491C6.0045 1.32104 5.15591 1.20227 4.62201 0.937866C4.61722 0.938737 4.61269 0.939318 4.60689 0.939754C4.49175 1.48046 4.31009 2.00185 4.03923 2.50132C3.93971 2.68413 3.8281 2.86359 3.70312 3.04029C5.3867 3.13408 6.82814 3.58041 8.34971 4.03531C8.43361 4.06115 8.52028 4.07713 8.60947 4.08743C9.20157 3.45468 8.9534 2.72885 8.98237 2.02726Z" fill="url(#paint3_linear_114_41103)"/>
<path opacity="0.5" d="M9.00983 2.93964C8.98816 3.06102 8.94987 3.18023 8.89015 3.29682C8.81885 3.43533 8.81381 3.67737 8.57748 3.7642C8.38045 3.83694 8.11564 3.79048 7.91534 3.74576C7.23379 3.59534 6.65555 3.32934 5.96947 3.18095C5.51595 3.08265 5.04832 3.03547 4.58875 2.95488C4.26549 2.89797 4.13271 2.79633 4.18033 2.60191C4.24458 2.33969 4.34486 2.08458 4.38542 1.81946C4.39374 1.76603 4.39928 1.71245 4.40709 1.65945C4.30883 1.9465 4.18789 2.22731 4.03923 2.50144C3.93971 2.68424 3.8281 2.8637 3.70312 3.0404C5.3867 3.1342 6.82814 3.58053 8.34971 4.03542C8.43361 4.06127 8.52028 4.07724 8.60947 4.08755C8.94634 3.72776 9.01034 3.33791 9.00983 2.93964Z" fill="url(#paint4_linear_114_41103)"/>
<path opacity="0.5" d="M3.12777 3.03986C3.12751 3.0339 3.12751 3.02839 3.12802 3.02287C3.1192 3.02272 3.11038 3.02301 3.10156 3.02287C3.11013 3.02839 3.11895 3.03405 3.12777 3.03986Z" fill="url(#paint5_linear_114_41103)"/>
<path opacity="0.7" d="M8.60943 4.0876C8.52023 4.07729 8.43356 4.06118 8.34966 4.03548C6.82809 3.58058 5.3864 3.13425 3.70308 3.04046C3.51436 3.03 3.32237 3.0239 3.12786 3.02289C3.12735 3.02841 3.12736 3.03392 3.12761 3.03988C3.94521 3.58232 4.29013 4.27403 4.62624 4.96836C4.66454 4.97866 4.70259 4.98897 4.73962 5.00001C5.35037 4.85481 6.03846 4.79238 6.64971 4.66649C7.2864 4.53538 7.89664 4.37509 8.49554 4.19926C8.53686 4.16209 8.57491 4.12463 8.60943 4.0876Z" fill="url(#paint6_radial_114_41103)"/>
<path opacity="0.5" d="M1.50658 2.32941C1.4829 2.3236 1.45922 2.31809 1.43604 2.31213C1.44611 2.33261 1.45644 2.35264 1.46652 2.37283C1.47988 2.35845 1.49273 2.34393 1.50658 2.32941Z" fill="url(#paint7_linear_114_41103)"/>
<path opacity="0.8" d="M1.07597 1.25946C0.983251 1.27035 0.890532 1.28109 0.797812 1.28908C0.744901 1.37678 0.704839 1.46694 0.70232 1.56263C0.696525 1.78913 0.745152 2.00663 0.700808 2.23299C0.679895 2.34189 0.65344 2.44977 0.625977 2.55765C0.842407 2.17056 0.892546 1.75196 1.09688 1.35529C1.09033 1.32349 1.08277 1.29184 1.07597 1.25946Z" fill="url(#paint8_radial_114_41103)"/>
<path opacity="0.7" d="M0.932989 2.91616C1.13103 2.74135 1.29757 2.55666 1.46638 2.37284C1.4563 2.35266 1.44597 2.33262 1.4359 2.31215C1.28724 2.00797 1.17512 1.68868 1.09777 1.35532C0.893181 1.75199 0.843293 2.17059 0.626862 2.55768C0.588817 2.70882 0.549008 2.85939 0.519529 3.01083C0.516505 3.02709 0.51449 3.04277 0.511719 3.05889C0.514238 3.06281 0.51701 3.06716 0.519025 3.07138C0.537166 3.11072 0.555811 3.15065 0.575715 3.18985C0.708496 3.10317 0.824648 3.01083 0.932989 2.91616Z" fill="url(#paint9_radial_114_41103)"/>
<path opacity="0.8" d="M0.938249 2.94158C0.936233 2.93359 0.934218 2.92473 0.932958 2.91617C0.824616 3.01084 0.708465 3.10318 0.575684 3.19001C0.588533 3.21788 0.601887 3.24576 0.617005 3.27349C0.692088 3.41753 0.768431 3.5678 0.832428 3.71779C0.92162 3.46849 0.9899 3.22355 0.938249 2.94158Z" fill="url(#paint10_radial_114_41103)"/>
<path opacity="0.5" d="M3.1281 3.03985C3.11953 3.03418 3.11071 3.02838 3.10189 3.02286C3.11071 3.023 3.11953 3.02271 3.12835 3.02286C3.12583 2.92558 3.12054 2.82612 3.11827 2.72884C3.10718 2.7255 3.09635 2.72172 3.08552 2.71853C2.57581 2.55794 2.02705 2.45703 1.5065 2.32941C1.49265 2.34393 1.4798 2.35845 1.46644 2.37282C1.29763 2.55678 1.13109 2.74132 0.93305 2.91614C0.934561 2.92485 0.936577 2.93371 0.938341 2.94155C0.989992 3.22352 0.921712 3.46832 0.83252 3.71762C0.839826 3.73417 0.847637 3.75057 0.854187 3.76713C1.10463 3.93846 1.4478 4.06449 1.7761 4.18079C2.14446 4.31088 2.52138 4.45448 2.91544 4.55713C3.406 4.68519 3.91974 4.7803 4.40879 4.90967C4.47959 4.92869 4.55266 4.948 4.62648 4.96818C4.29062 4.274 3.94569 3.58215 3.1281 3.03985Z" fill="url(#paint11_radial_114_41103)"/>
<path opacity="0.2" d="M4.03935 2.50143C3.73574 2.57403 3.40316 2.62267 3.11719 2.70906C3.11769 2.71574 3.11769 2.72228 3.11794 2.72881C3.12021 2.82609 3.1255 2.9254 3.12802 3.02283C3.32253 3.02385 3.51452 3.02994 3.70324 3.0404C3.82821 2.8637 3.93983 2.68423 4.03935 2.50143Z" fill="url(#paint12_linear_114_41103)"/>
<defs>
<linearGradient id="paint0_linear_114_41103" x1="2.08109" y1="0.85343" x2="2.92831" y2="2.95026" gradientUnits="userSpaceOnUse">
<stop stop-color="#FE946B"/>
<stop offset="1" stop-color="#FFF0B5"/>
</linearGradient>
<linearGradient id="paint1_linear_114_41103" x1="1.12911" y1="1.23806" x2="1.97641" y2="3.33507" gradientUnits="userSpaceOnUse">
<stop stop-color="#FE946B"/>
<stop offset="1" stop-color="#FFF0B5"/>
</linearGradient>
<linearGradient id="paint2_linear_114_41103" x1="3.10038" y1="2.71261" x2="3.10857" y2="2.73287" gradientUnits="userSpaceOnUse">
<stop stop-color="#FE946B"/>
<stop offset="1" stop-color="#FFF0B5"/>
</linearGradient>
<linearGradient id="paint3_linear_114_41103" x1="4.47038" y1="0.995027" x2="6.12547" y2="5.09126" gradientUnits="userSpaceOnUse">
<stop stop-color="#FE946B"/>
<stop offset="1" stop-color="#FFF0B5"/>
</linearGradient>
<linearGradient id="paint4_linear_114_41103" x1="4.10772" y1="1.14183" x2="5.7627" y2="5.2378" gradientUnits="userSpaceOnUse">
<stop stop-color="#EA8057"/>
<stop offset="1" stop-color="#FFDCA1"/>
</linearGradient>
<linearGradient id="paint5_linear_114_41103" x1="3.11024" y1="3.01924" x2="3.11982" y2="3.04294" gradientUnits="userSpaceOnUse">
<stop stop-color="#FE946B"/>
<stop offset="1" stop-color="#FFF0B5"/>
</linearGradient>
<radialGradient id="paint6_radial_114_41103" cx="0" cy="0" r="1" gradientUnits="userSpaceOnUse" gradientTransform="translate(7.40538 5.26612) rotate(39.4166) scale(6.92359 7.22513)">
<stop stop-color="#BBA39D"/>
<stop offset="0.5807" stop-color="#916A60"/>
<stop offset="1" stop-color="#6C544E"/>
</radialGradient>
<linearGradient id="paint7_linear_114_41103" x1="1.43805" y1="2.31124" x2="1.46342" y2="2.37402" gradientUnits="userSpaceOnUse">
<stop stop-color="#FE946B"/>
<stop offset="1" stop-color="#FFF0B5"/>
</linearGradient>
<radialGradient id="paint8_radial_114_41103" cx="0" cy="0" r="1" gradientUnits="userSpaceOnUse" gradientTransform="translate(1.65429 0.501578) rotate(39.4166) scale(4.2117 4.39513)">
<stop stop-color="#6C544E"/>
<stop offset="0.4193" stop-color="#916A60"/>
<stop offset="1" stop-color="#BBA39D"/>
</radialGradient>
<radialGradient id="paint9_radial_114_41103" cx="0" cy="0" r="1" gradientUnits="userSpaceOnUse" gradientTransform="translate(-1.46299 2.29249) rotate(39.4166) scale(3.78873 3.95374)">
<stop stop-color="#BBA39D"/>
<stop offset="0.5807" stop-color="#916A60"/>
<stop offset="1" stop-color="#6C544E"/>
</radialGradient>
<radialGradient id="paint10_radial_114_41103" cx="0" cy="0" r="1" gradientUnits="userSpaceOnUse" gradientTransform="translate(1.63168 2.82989) rotate(39.4166) scale(1.90734 1.99041)">
<stop stop-color="#6C544E"/>
<stop offset="0.4193" stop-color="#916A60"/>
<stop offset="1" stop-color="#BBA39D"/>
</radialGradient>
<radialGradient id="paint11_radial_114_41103" cx="0" cy="0" r="1" gradientUnits="userSpaceOnUse" gradientTransform="translate(5.01738 2.62099) rotate(39.4166) scale(6.02973 6.29234)">
<stop stop-color="#BBA39D"/>
<stop offset="0.5807" stop-color="#916A60"/>
<stop offset="1" stop-color="#6C544E"/>
</radialGradient>
<linearGradient id="paint12_linear_114_41103" x1="3.38658" y1="2.60019" x2="3.58391" y2="3.08858" gradientUnits="userSpaceOnUse">
<stop offset="0.1123" stop-color="#FFFFEF"/>
<stop offset="0.4504" stop-color="#CFB69D"/>
<stop offset="1" stop-color="#141414"/>
</linearGradient>
</defs>
</svg>
