<svg width="142" height="120" viewBox="0 0 142 120" fill="none" xmlns="http://www.w3.org/2000/svg">
<path d="M10.3562 83.283C1.95719 97.641 -1.0218 111.543 0.301201 115.515C0.301201 115.515 6.92219 119.156 21.8172 119.156C36.7122 119.156 53.9212 120.148 58.8872 114.192C63.8512 108.234 70.8032 102.276 73.7812 102.607C73.7812 102.607 80.0692 109.226 83.3802 109.888C86.6892 110.549 106.217 109.557 115.155 110.22C124.093 110.881 133.027 111.212 139.318 107.24C139.318 107.24 142.297 94.663 137.662 86.719C133.027 78.775 134.597 59.447 125.414 45.677C122.768 41.705 118.796 42.368 120.45 33.761C122.105 25.156 122.436 17.212 121.773 14.894C121.113 12.577 115.155 8.936 115.155 8.936L10.3562 83.283Z" fill="url(#paint0_linear_114_43066)"/>
<path d="M140.308 88.54C139.482 83.079 135.675 66.861 135.512 63.22C135.346 59.579 134.849 57.923 134.849 57.923C134.849 57.923 127.897 50.31 125.248 47.829C122.602 45.346 120.12 42.037 116.809 40.877C115.221 40.322 112.112 38.245 109.306 36.232C106.417 46.672 103.789 56.196 103.238 58.254C101.915 63.22 99.2661 65.372 94.4671 69.673C91.6491 72.202 77.4711 84.718 65.9111 94.988C67.7501 96.206 79.5881 104.034 81.7241 105.254C84.0391 106.58 84.8681 106.248 87.3491 106.248C89.8331 106.248 121.275 105.088 124.421 104.428C127.567 103.765 127.401 105.586 130.876 102.939C134.351 100.291 141.135 96.484 141.135 96.484C141.135 96.484 141.136 94.001 140.308 88.54Z" fill="#B6BFBE"/>
<path d="M65.9121 94.988C67.7511 96.206 79.5891 104.034 81.7251 105.254C82.5311 105.716 83.1561 105.973 83.7341 106.116C82.2741 98.203 81.8751 90.095 80.4591 82.091C75.8101 86.206 70.6411 90.784 65.9121 94.988Z" fill="url(#paint1_linear_114_43066)"/>
<path opacity="0.5" d="M110.683 94.249C108.97 92.983 107.262 91.687 105.555 90.36C99.597 85.396 91.3219 84.733 84.3719 79.769C84.1739 79.57 83.9669 79.371 83.7509 79.177C82.6939 80.113 81.593 81.086 80.46 82.091C81.866 90.049 82.273 98.11 83.71 105.982C91.91 101.964 100.514 99.647 108.867 95.327C109.486 94.98 110.088 94.62 110.683 94.249Z" fill="url(#paint2_linear_114_43066)"/>
<path d="M123.761 102.939C119.272 100.34 114.955 97.401 110.683 94.25C110.088 94.621 109.486 94.981 108.867 95.327C100.513 99.647 91.91 101.965 83.71 105.982C83.718 106.027 83.727 106.073 83.735 106.117C84.816 106.388 85.734 106.249 87.351 106.249C89.835 106.249 121.277 105.089 124.423 104.429C125.021 104.303 125.501 104.267 125.907 104.274C125.18 103.829 124.461 103.384 123.761 102.939Z" fill="url(#paint3_linear_114_43066)"/>
<path opacity="0.4" d="M112.837 91.354C115.485 84.401 118.132 77.452 120.78 70.17C122.383 66.163 124.631 62.155 126.31 57.976C126.122 57.98 125.935 57.982 125.747 57.987C117.958 58.175 110.204 58.842 102.517 60.377C101.035 63.935 98.521 66.039 94.467 69.673C93.082 70.914 88.956 74.565 83.75 79.177C83.966 79.371 84.173 79.57 84.371 79.769C91.321 84.733 99.596 85.395 105.554 90.36C107.205 91.644 108.856 92.899 110.512 94.123C111.335 93.185 112.416 92.402 112.837 91.354Z" fill="url(#paint4_radial_114_43066)"/>
<path opacity="0.5" d="M140.308 88.54C139.482 83.079 135.675 66.861 135.512 63.22C135.359 59.873 134.928 58.208 134.858 57.96C132.008 57.915 129.156 57.917 126.311 57.977C124.631 62.156 122.384 66.164 120.781 70.171C118.133 77.453 115.486 84.402 112.838 91.355C112.417 92.403 111.336 93.186 110.514 94.124C110.649 94.224 110.782 94.319 110.913 94.418C120.413 94.863 129.803 96.992 139.244 97.574C140.379 96.911 141.137 96.485 141.137 96.485C141.137 96.485 141.136 94.001 140.308 88.54Z" fill="url(#paint5_radial_114_43066)"/>
<path opacity="0.6" d="M134.858 57.96C134.853 57.939 134.849 57.923 134.849 57.923C134.849 57.923 127.897 50.31 125.248 47.829C122.602 45.346 120.12 42.037 116.809 40.877C116.643 40.819 116.457 40.742 116.26 40.651C118.605 46.756 122.301 52.482 125.747 57.987C128.782 57.914 131.817 57.912 134.858 57.96Z" fill="url(#paint6_linear_114_43066)"/>
<path opacity="0.4" d="M116.261 40.651C114.572 39.884 111.819 38.033 109.307 36.232C106.418 46.672 103.79 56.196 103.239 58.254C103.034 59.026 102.792 59.724 102.518 60.377C110.206 58.842 117.959 58.176 125.748 57.987C122.302 52.482 118.606 46.756 116.261 40.651Z" fill="url(#paint7_linear_114_43066)"/>
<path opacity="0.5" d="M140.308 88.54C139.482 83.079 135.675 66.861 135.512 63.22C135.359 59.873 134.928 58.208 134.858 57.96C134.853 57.939 134.849 57.923 134.849 57.923C134.849 57.923 127.897 50.31 125.248 47.829C122.602 45.346 120.12 42.037 116.809 40.877C116.643 40.819 116.457 40.742 116.26 40.651C114.571 39.884 111.818 38.033 109.306 36.232C106.417 46.672 103.789 56.196 103.238 58.254C103.033 59.026 102.791 59.724 102.517 60.377C102.903 60.3 103.311 60.226 103.74 60.153C107.277 54.64 108.091 47.777 112.838 43.028C115.818 47.331 118.133 51.635 122.768 54.944C123.886 55.503 125 56.537 125.523 58.04C125.91 58.015 126.179 57.997 126.307 57.986C126.309 57.982 126.309 57.98 126.312 57.975C126.423 57.973 126.417 57.975 126.307 57.986C126.185 58.29 126.052 58.592 125.926 58.895C128.556 58.63 132.044 59.607 132.366 60.901C135.346 71.492 134.021 82.746 136.668 93.668C136.89 96.097 131.926 94.552 128.947 94.552C123.277 94.552 116.301 93.974 110.702 94.047C110.761 94.163 110.818 94.279 110.881 94.393C111.146 94.587 111.367 94.751 110.881 94.393C113.942 97.421 122.988 102.937 119.458 103.379C109.543 103.998 95.6571 106.084 86.0151 104.901C85.2431 105.249 84.4761 105.605 83.7101 105.98C83.6181 105.47 83.5271 104.961 83.4441 104.45C79.7871 103.408 74.4611 98.825 74.7751 96.317C75.4881 91.682 77.9271 87.433 80.6481 83.206C80.5871 82.833 80.5261 82.46 80.4591 82.09C75.8101 86.205 70.6411 90.784 65.9111 94.988C67.7501 96.206 79.5881 104.034 81.7241 105.254C82.5301 105.716 83.1551 105.973 83.7331 106.116C84.8141 106.387 85.7321 106.248 87.3491 106.248C89.8331 106.248 121.275 105.088 124.421 104.428C125.019 104.302 125.499 104.266 125.905 104.273C127.633 104.298 128.061 105.083 130.876 102.939C133.191 101.175 136.973 98.897 139.242 97.573C140.377 96.91 141.135 96.484 141.135 96.484C141.135 96.484 141.136 94.001 140.308 88.54Z" fill="url(#paint8_radial_114_43066)"/>
<g opacity="0.3">
<path d="M86.6896 85.396C86.3366 84.224 84.6455 84.75 84.9195 85.966C85.2955 87.001 87.0606 86.62 86.6896 85.396C86.8346 85.87 86.6096 85.129 86.6896 85.396Z" fill="#94998D"/>
<path d="M84.7323 83.341C84.5363 82.954 84.2273 83.024 83.9603 83.254C82.4923 83.755 85.5023 84.837 84.7323 83.341C84.9373 83.737 84.5933 83.066 84.7323 83.341Z" fill="#94998D"/>
<path d="M84.2833 88.548C83.5623 88.548 83.6623 89.658 84.3743 89.658C85.0923 89.658 84.9963 88.548 84.2833 88.548Z" fill="#94998D"/>
<path d="M87.3006 88.034C86.4766 88.034 86.5896 89.305 87.4056 89.305C88.2306 89.306 88.1166 88.034 87.3006 88.034Z" fill="#93998D"/>
<path d="M111.19 49.798C110.411 49.659 110.451 50.912 111.096 50.96C111.689 51.002 111.791 49.904 111.19 49.798C111.536 49.858 110.788 49.728 111.19 49.798Z" fill="#94998D"/>
<path d="M97.1245 103.504C97.0465 102.962 96.7525 102.1 95.9775 102.501C93.5285 103.765 97.4185 105.501 97.1245 103.504C97.2115 104.094 97.1085 103.398 97.1245 103.504Z" fill="#93998D"/>
<path d="M100.453 97.065C99.8778 96.048 98.7298 98.966 100.139 98.852C100.89 98.791 100.65 97.416 100.453 97.065C100.587 97.304 100.277 96.757 100.453 97.065Z" fill="#94998D"/>
<path d="M100.927 100.731C100.318 100.731 100.401 101.671 101.003 101.671C101.613 101.672 101.528 100.731 100.927 100.731Z" fill="#94998D"/>
<path d="M120.863 87.763C119.892 87.065 119.148 88.728 119.944 89.223C120.881 89.809 121.696 88.361 120.863 87.763C121.249 88.04 120.604 87.576 120.863 87.763Z" fill="#93998D"/>
<path d="M121.2 83.672C121.076 82.614 119.746 84.26 120.842 84.285C121.168 84.151 121.288 83.946 121.2 83.672Z" fill="#93998D"/>
<path d="M132.327 71.16C132.147 70.392 131.176 70.917 131.238 71.471C131.303 72.04 132.515 71.937 132.327 71.16C132.417 71.528 132.314 71.112 132.327 71.16Z" fill="#94998D"/>
<path d="M133.487 98.656C132.95 98.656 133.023 99.483 133.553 99.483C134.091 99.482 134.017 98.656 133.487 98.656Z" fill="#93998D"/>
<path d="M109.264 57.817C108.778 57.187 107.488 57.602 107.556 58.428C107.684 60.002 109.959 58.715 109.264 57.817C109.382 57.97 109.099 57.602 109.264 57.817Z" fill="#94998D"/>
<path d="M113.831 58.585C113.38 58.792 112.906 59.72 113.744 59.753C114.605 59.791 114.539 58.264 113.831 58.585C114.199 58.418 113.702 58.643 113.831 58.585Z" fill="#93998D"/>
<path d="M112.941 55.932C113.626 55.576 112.756 55.905 112.734 56.195C112.627 57.502 115.15 55.47 112.941 55.932C113.56 55.804 113.038 55.882 112.941 55.932Z" fill="#94998D"/>
<path d="M109.191 62.63C108.561 62.63 108.648 63.601 109.269 63.601C109.896 63.601 109.812 62.63 109.191 62.63Z" fill="#93998D"/>
<path d="M118.455 52.385C118.008 51.138 116.535 52.267 116.4 53.031C116.123 54.607 119.032 54.004 118.455 52.385C118.638 52.902 118.223 51.743 118.455 52.385Z" fill="#94998D"/>
<path d="M123.874 52.395C123.141 52.395 123.242 53.526 123.969 53.526C124.703 53.526 124.599 52.395 123.874 52.395Z" fill="#93998D"/>
<path d="M136.006 91.023C134.919 91.023 135.07 92.698 136.143 92.698C137.233 92.698 137.081 91.023 136.006 91.023Z" fill="#94998D"/>
<path d="M138.038 82.419C137.968 81.779 137.205 81.79 137.139 82.4C136.143 83.594 139.016 83.555 138.038 82.419C138.146 82.544 138.035 82.384 138.038 82.419Z" fill="#94998D"/>
<path d="M136.102 86.779C135.843 86.259 134.836 86.566 134.801 87.104C134.751 87.846 136.531 87.643 136.102 86.779Z" fill="#93998D"/>
<path d="M119.033 44.397C118.318 44.397 118.416 45.497 119.122 45.497C119.835 45.497 119.736 44.397 119.033 44.397Z" fill="#94998D"/>
<path d="M130.421 82.534C129.597 81.852 128.636 82.898 129.183 83.677C129.902 84.706 131.376 83.325 130.421 82.534C130.778 82.83 130.2 82.352 130.421 82.534Z" fill="#93998D"/>
<path d="M132.816 82.204C132.729 82.032 132.039 81.835 131.946 82.202C131.963 82.519 132.114 82.757 132.401 82.914C132.865 82.856 133.001 82.619 132.816 82.204C132.898 82.37 132.714 82 132.816 82.204Z" fill="#94998D"/>
<path d="M132.868 76.041C132.286 76.041 132.364 76.94 132.94 76.94C133.524 76.94 133.443 76.041 132.868 76.041Z" fill="#94998D"/>
<path d="M122.571 92.911C122.312 92.588 121.587 92.308 121.492 92.967C119.764 94.667 124.561 94.373 122.571 92.911C123.111 93.311 122.66 93.025 122.571 92.911Z" fill="#93998D"/>
<path d="M116.376 95.363C116.08 94.816 115.769 94.801 115.443 95.32C115.329 96.273 116.486 96.289 116.376 95.363C116.401 95.572 116.314 94.848 116.376 95.363Z" fill="#94998D"/>
<path d="M117.801 96.318C117.031 96.318 117.134 97.509 117.901 97.509C118.673 97.509 118.567 96.318 117.801 96.318Z" fill="#93998D"/>
<path d="M115.079 97.237C114.998 96.253 113.342 96.446 113.393 97.489C113.499 98.639 115.174 98.403 115.079 97.237C115.101 97.519 115.066 97.094 115.079 97.237Z" fill="#94998D"/>
<path d="M105.281 102.469C104.639 102.469 104.726 103.457 105.362 103.457C106.001 103.457 105.914 102.469 105.281 102.469Z" fill="#93998D"/>
<path d="M100.25 76.53C99.5226 76.53 99.6226 77.651 100.342 77.651C101.069 77.65 100.969 76.53 100.25 76.53Z" fill="#94998D"/>
<path d="M105.678 66.921C104.907 67.14 103.739 68.762 105.126 69.023C106.535 69.288 107.168 66.494 105.678 66.921C106.133 66.79 105.479 66.977 105.678 66.921Z" fill="#93998D"/>
<path d="M105.226 73.148C104.597 73.148 104.682 74.117 105.305 74.117C105.934 74.117 105.847 73.148 105.226 73.148Z" fill="#94998D"/>
<path d="M93.1735 94.174C92.5935 93.557 91.6915 94.659 91.7245 95.088C91.8395 96.521 94.4085 95.489 93.1735 94.174C93.4455 94.464 92.9795 93.967 93.1735 94.174Z" fill="#94998D"/>
<path d="M88.379 100.884C87.855 100.884 87.925 101.692 88.442 101.692C88.969 101.692 88.897 100.884 88.379 100.884Z" fill="#94998D"/>
<path d="M91.1813 99.714C90.5393 99.714 90.6262 100.704 91.2602 100.704C91.9022 100.704 91.8153 99.714 91.1813 99.714Z" fill="#93998D"/>
<path d="M93.8903 105.569C93.8053 105.074 93.5583 104.904 93.1493 105.062C92.0763 105.704 94.0493 106.704 93.8903 105.569C93.9353 105.898 93.8573 105.312 93.8903 105.569Z" fill="#93998D"/>
</g>
<path opacity="0.8" d="M124.863 61.344C121.222 66.639 118.659 75.414 116.741 80.355C115.789 82.807 114.882 85.278 113.889 87.713C113.137 89.554 112.027 91.364 110.594 93.889C107.525 91.445 104.688 88.941 101.094 87.262C97.5182 85.592 93.6452 84.601 90.0212 83.033C89.9592 83.006 89.9222 83.093 89.9802 83.124C93.2402 85.048 96.8392 86.211 100.268 87.786C102.037 88.598 103.727 89.503 105.305 90.652C106.995 91.884 110.741 94.553 110.741 94.553C110.741 94.553 113.597 90.91 114.509 88.665C115.499 86.222 116.318 83.713 117.179 81.22C118.042 78.716 118.9 76.196 119.889 73.74C120.959 71.073 124.95 61.217 124.863 61.344Z" fill="url(#paint9_radial_114_43066)"/>
<path opacity="0.6" d="M111.845 58.917C111.845 58.917 123.981 58.145 125.415 58.476C125.415 58.476 125.525 59.58 124.862 61.344L126.31 57.976C126.31 57.976 125.636 56.93 124.423 55.936C123.207 54.944 121.664 54.061 120.558 52.958C120.558 52.958 124.2 56.599 124.423 57.151C124.643 57.703 111.845 58.917 111.845 58.917Z" fill="url(#paint10_radial_114_43066)"/>
<path d="M140.308 88.54C139.482 83.079 135.675 66.861 135.512 63.22C135.346 59.579 134.849 57.923 134.849 57.923C134.849 57.923 127.897 50.31 125.248 47.829C122.602 45.346 120.12 42.037 116.809 40.877C115.221 40.322 112.112 38.245 109.306 36.232C106.417 46.672 103.789 56.196 103.238 58.254C101.915 63.22 99.2661 65.372 94.4671 69.673C91.6491 72.202 77.4711 84.718 65.9111 94.988C67.7501 96.206 79.5881 104.034 81.7241 105.254C84.0391 106.58 84.8681 106.248 87.3491 106.248C89.8331 106.248 121.275 105.088 124.421 104.428C127.567 103.765 127.401 105.586 130.876 102.939C134.351 100.291 141.135 96.484 141.135 96.484C141.135 96.484 141.136 94.001 140.308 88.54Z" fill="url(#paint11_radial_114_43066)"/>
<g opacity="0.6">
<path d="M125.248 47.829C122.602 45.346 120.12 42.037 116.809 40.877C115.221 40.322 112.112 38.245 109.306 36.232C106.417 46.672 103.789 56.196 103.238 58.254C101.915 63.22 99.2661 65.372 94.4671 69.673C91.6491 72.202 77.4711 84.718 65.9111 94.988C67.7501 96.206 79.5881 104.034 81.7241 105.254C84.0391 106.58 84.8681 106.248 87.3491 106.248C88.0481 106.248 91.0431 106.155 95.0571 106.01C94.5661 105.878 92.5511 105.115 92.4761 104.563C92.3811 103.846 98.7971 99.961 99.4851 99.524C97.2941 99.806 89.2961 102.544 88.8321 102.486C88.0411 102.386 86.9641 93.227 87.0261 91.468C87.0761 90.08 87.2371 88.552 87.9951 87.349C88.2701 86.91 90.0581 84.777 90.6611 84.071C90.8901 83.614 91.1181 82.996 91.3481 82.331C98.1051 75.323 106.389 68.787 108.644 59.137C110.63 52.628 112.838 49.099 115.154 46.228C117.25 46.45 126.237 50.163 127.347 51.375C128.362 52.485 129.489 53.419 130.578 54.45C131.829 55.633 133.111 56.985 134.687 57.747C133.633 56.597 127.659 50.088 125.248 47.829Z" fill="url(#paint12_radial_114_43066)"/>
</g>
<path d="M73.6161 96.649C80.2341 85.892 97.5021 75.687 103.129 66.088C107.149 59.531 107.801 51.355 111.088 44.96C112.049 43.085 110.355 38.395 114.803 39.884C113.2 38.954 111.187 37.579 109.307 36.231C106.418 46.671 103.79 56.195 103.239 58.253C101.916 63.219 99.2671 65.371 94.4681 69.672C91.6501 72.201 77.4721 84.717 65.9121 94.987C67.7511 96.205 79.5891 104.033 81.7251 105.253C82.2471 105.551 82.6901 105.763 83.0981 105.916C78.5811 101.448 73.1161 100.976 73.6161 96.649Z" fill="url(#paint13_radial_114_43066)"/>
<path d="M123.761 102.939C124.461 103.384 125.18 103.83 125.906 104.273C127.634 104.298 128.062 105.083 130.877 102.939C133.192 101.175 136.974 98.897 139.243 97.573C129.802 96.991 120.412 94.862 110.912 94.417C115.109 97.505 119.354 100.387 123.761 102.939Z" fill="url(#paint14_linear_114_43066)"/>
<path d="M1.95588 109.558C1.95588 109.558 1.62388 107.737 3.28088 101.448C4.93288 95.16 9.89988 84.236 9.89988 84.236L35.8809 29.954C35.8809 29.954 68.9799 14.234 81.7239 9.599C94.4659 4.964 109.858 0.332 115.982 0L119.789 6.29C119.789 6.29 106.382 54.613 105.06 59.58C103.734 64.544 101.087 66.696 96.2869 70.999C91.4869 75.3 53.7539 108.566 52.1009 110.386C50.4449 112.206 17.3459 113.53 17.3459 113.53C17.3459 113.53 6.59088 113.364 1.95588 109.558Z" fill="#AEB4A6"/>
<path opacity="0.6" d="M51.0074 30.267C47.6964 30.584 44.3684 30.965 41.0114 31.443C38.9764 31.735 37.1284 31.451 35.3344 31.095L17.1924 69C26.2654 62.785 37.3384 59.612 47.6314 54.613C48.2524 54.302 48.8614 53.957 49.4644 53.584C50.2284 52.186 50.9904 50.792 51.7524 49.398C51.9464 42.97 51.2294 36.687 51.0074 30.267Z" fill="url(#paint15_linear_114_43066)"/>
<path opacity="0.3" d="M62.6518 29.385C58.7898 29.613 54.9108 29.894 51.0078 30.267C51.2298 36.687 51.9458 42.97 51.7538 49.398C54.8768 43.689 57.9908 37.991 61.2008 32.106C61.7218 31.215 62.2058 30.308 62.6518 29.385Z" fill="url(#paint16_linear_114_43066)"/>
<path d="M9.90082 84.236C9.90082 84.236 4.93382 95.16 3.28182 101.448C2.08082 106.01 1.92382 108.218 1.92882 109.09C7.06682 107.553 12.2478 106.17 17.3678 104.455C17.5248 104.279 17.6738 104.101 17.8268 103.925C14.6048 97.329 11.8668 90.406 10.3548 83.284L9.90082 84.236Z" fill="url(#paint17_linear_114_43066)"/>
<path d="M81.7247 9.599C75.9797 11.689 66.0927 16.032 56.9727 20.174C55.0097 21.756 53.0107 23.32 50.9427 24.825C47.9637 27.142 44.9847 28.134 42.0057 30.12C41.4977 30.501 41.0887 30.979 40.6807 31.48C40.7897 31.468 40.9007 31.459 41.0117 31.443C50.1957 30.132 59.1907 29.527 68.1327 29.091C79.4837 20.449 90.3227 10.956 102.091 2.972C95.7037 4.778 88.3557 7.189 81.7247 9.599Z" fill="url(#paint18_linear_114_43066)"/>
<path d="M42.006 30.12C44.985 28.134 47.964 27.142 50.943 24.825C53.011 23.319 55.01 21.756 56.973 20.174C45.863 25.215 35.882 29.955 35.882 29.955L35.335 31.096C37.031 31.431 38.776 31.698 40.681 31.481C41.089 30.98 41.498 30.501 42.006 30.12Z" fill="url(#paint19_linear_114_43066)"/>
<path opacity="0.3" d="M68.1328 29.091C72.7778 28.863 77.4088 28.681 82.0478 28.467C80.5678 26.208 78.7678 24.166 76.9328 22.198C74.0168 24.524 71.0928 26.838 68.1328 29.091Z" fill="url(#paint20_linear_114_43066)"/>
<path d="M111.012 0.739014C108.452 1.26501 105.402 2.03501 102.091 2.97101C93.3926 8.87301 85.1986 15.6 76.9326 22.198C78.7676 24.165 80.5676 26.207 82.0476 28.467C85.9806 28.289 89.9166 28.09 93.8686 27.821C96.5186 25.427 99.1786 23.107 101.856 20.813C106.054 15.172 110.34 9.60301 113.646 3.44001C112.827 2.48101 111.956 1.56401 111.012 0.739014Z" fill="url(#paint21_linear_114_43066)"/>
<path opacity="0.2" d="M111.012 0.739004C111.956 1.563 112.826 2.481 113.647 3.44C114.244 2.33 114.811 1.201 115.337 0.0480042C114.15 0.157004 112.684 0.396004 111.012 0.739004Z" fill="url(#paint22_linear_114_43066)"/>
<path d="M119.615 6.00201L115.982 0.00100708C115.777 0.0110071 115.559 0.0300074 115.336 0.0490074C111.891 7.60401 106.813 14.154 101.856 20.814C107.251 16.196 112.739 11.689 118.463 6.95101C118.852 6.63701 119.233 6.32001 119.615 6.00201Z" fill="url(#paint23_linear_114_43066)"/>
<path opacity="0.3" d="M102.102 50.718C101.97 47.893 101.808 45.066 101.63 42.242C100.246 45.879 98.8964 49.608 96.2734 52.305C98.2134 51.763 100.156 51.231 102.102 50.718Z" fill="url(#paint24_linear_114_43066)"/>
<path opacity="0.3" d="M90.9924 30.451C79.5754 40.99 67.8994 49.719 56.1914 59.61C59.4784 60.438 62.7294 61.339 66.0044 62.126C75.9094 58.404 86.0474 55.157 96.2744 52.303C98.8974 49.607 100.248 45.877 101.631 42.24C101.212 35.57 100.703 28.893 100.251 22.189C97.1474 24.872 94.0674 27.602 90.9924 30.451Z" fill="url(#paint25_radial_114_43066)"/>
<path opacity="0.2" d="M51.6047 63.549C50.7477 64.404 50.0747 65.351 49.4307 66.303C54.6717 64.897 60.2067 64.265 64.8417 62.556C65.2297 62.409 65.6167 62.27 66.0037 62.125C62.7297 61.338 59.4787 60.437 56.1907 59.609C54.6627 60.902 53.1327 62.211 51.6047 63.549Z" fill="url(#paint26_linear_114_43066)"/>
<path d="M17.3691 104.455C19.0811 103.881 20.7861 103.272 22.4771 102.608C23.4981 102.181 24.5631 101.823 25.6481 101.496C24.6301 100.347 23.7471 99.057 22.9151 97.756C21.1291 100.027 19.2981 102.272 17.3691 104.455Z" fill="url(#paint27_linear_114_43066)"/>
<path opacity="0.4" d="M64.842 62.557C60.207 64.265 54.672 64.897 49.431 66.304C48.329 67.931 47.319 69.58 45.647 70.833C36.562 78.984 30.1 88.612 22.915 97.755C23.747 99.056 24.63 100.346 25.648 101.495C28.788 100.547 32.105 99.865 35.054 98.635C45.201 94.286 55.221 89.937 65.269 85.507C73.17 75.805 80.791 65.454 87.576 54.83C79.905 57.158 72.306 59.722 64.842 62.557Z" fill="url(#paint28_linear_114_43066)"/>
<path d="M87.5755 54.831C80.7915 65.455 73.1706 75.806 65.2686 85.508C71.2836 82.857 77.3076 80.177 83.3786 77.452C86.3946 76.025 89.3865 74.577 92.3725 73.128C91.6145 66.803 90.1015 60.669 88.5135 54.551C88.2005 54.646 87.8875 54.737 87.5755 54.831Z" fill="url(#paint29_linear_114_43066)"/>
<path d="M102.103 50.718C97.5567 51.917 93.0237 53.195 88.5137 54.551C90.1017 60.669 91.6157 66.803 92.3727 73.128C93.4867 72.587 94.6027 72.047 95.7157 71.508C95.9397 71.309 96.1317 71.137 96.2867 70.999C98.9837 68.58 101.001 66.842 102.486 64.902C102.474 60.168 102.327 55.443 102.103 50.718Z" fill="url(#paint30_linear_114_43066)"/>
<path d="M115.19 9.65901C110.075 13.886 105.13 17.978 100.251 22.191C101.217 36.486 102.446 50.66 102.486 64.902C103.643 63.388 104.478 61.754 105.06 59.58C106.037 55.908 113.619 28.54 117.506 14.52C116.681 12.931 115.879 11.324 115.19 9.65901Z" fill="url(#paint31_linear_114_43066)"/>
<path d="M119.789 6.29001L119.615 6.00201C119.233 6.32101 118.852 6.63801 118.463 6.95101C117.361 7.86201 116.273 8.76301 115.19 9.65901C115.88 11.324 116.681 12.931 117.507 14.52C118.874 9.57601 119.789 6.29001 119.789 6.29001Z" fill="url(#paint32_linear_114_43066)"/>
<path d="M18.5717 104.045C13.0607 105.952 7.46971 107.433 1.92871 109.09C1.93071 109.419 1.95572 109.558 1.95572 109.558C6.06772 112.937 15.0047 113.447 16.9577 113.517C18.0537 110.452 18.7307 107.327 18.5717 104.045Z" fill="url(#paint33_linear_114_43066)"/>
<path d="M50.834 110.889C48.138 109.644 45.487 108.4 42.666 107.903C35.625 107.058 28.822 105.25 22.26 102.69C21.033 103.169 19.803 103.616 18.571 104.044C18.73 107.327 18.053 110.452 16.958 113.517C17.206 113.527 17.347 113.529 17.347 113.529C17.347 113.529 44.462 112.444 50.834 110.889Z" fill="url(#paint34_linear_114_43066)"/>
<path d="M57.0748 105.821C61.0468 98.958 65.8767 92.552 67.1707 84.669C56.4827 89.389 45.8397 94.013 35.0547 98.635C31.0827 100.29 26.4508 100.952 22.4778 102.607C22.4058 102.634 22.3317 102.663 22.2607 102.69C28.8237 105.25 35.6257 107.058 42.6667 107.903C45.4877 108.4 48.1387 109.645 50.8347 110.889C51.5017 110.726 51.9448 110.558 52.1028 110.386C52.4398 110.013 54.2968 108.315 57.0748 105.821Z" fill="url(#paint35_linear_114_43066)"/>
<path d="M83.3792 77.452C77.9472 79.891 72.5532 82.292 67.1702 84.669C65.8762 92.553 61.0462 98.959 57.0742 105.821C67.4022 96.539 90.4802 76.174 95.7162 71.508C91.6242 73.494 87.5202 75.49 83.3792 77.452Z" fill="url(#paint36_linear_114_43066)"/>
<path opacity="0.5" d="M119.616 6.00201L115.983 0.00100708C115.778 0.0110071 115.56 0.0300074 115.337 0.0490074C114.157 0.156007 112.703 0.395007 111.042 0.734007C114.865 0.167007 114.575 0.747007 113.666 3.47601C115.527 0.747007 115.693 1.28301 116.356 1.94601C119.168 5.83501 115.395 8.76701 115.155 8.93701C109.528 12.909 104.895 17.502 100.26 22.135C103.57 19.405 106.837 17.461 110.354 14.398C111.638 13.654 116.273 9.18501 114.492 13.903C110.851 25.488 108.536 37.402 104.895 49.318C104.4 51.706 103.988 53.806 103.371 54.193C103.309 54.149 102.153 53.839 102.04 50.682C101.652 50.765 101.406 50.904 100.911 50.985C96.3297 52.296 91.2808 53.373 88.4268 54.53C90.0818 60.82 90.3298 68.846 86.6898 73.479C82.0568 79.105 71.7968 81.009 65.5058 85.313C67.7398 84.691 66.3758 86.595 65.1328 88.456C60.4998 95.077 54.9148 99.958 47.9648 103.93C40.1078 108.643 31.1278 103.727 22.2708 102.689C22.2688 102.797 26.1167 104.522 30.7087 106.458C33.7917 107.758 37.9548 107.748 40.7678 108.811C36.5878 110.302 19.9858 110.211 19.9258 110.198C18.6498 110.004 20.0778 105.998 18.5478 104.053C17.9288 104.343 17.3077 104.467 17.3077 104.467C14.0357 105.488 9.28074 106.287 7.29474 106.329C6.96474 106.329 2.57876 107.694 4.60476 102.108C5.86776 98.629 7.70975 92.675 10.3577 91.352C12.0967 90.48 15.1568 99.749 17.8048 103.804C15.5688 97.639 11.3147 88.726 13.2107 82.084C14.5367 75.794 17.8458 70.83 22.8108 66.527C33.0308 62.431 41.0577 59.287 49.3317 53.66C46.6817 53.989 37.9538 57.673 37.6218 56.016C35.6368 51.052 44.3257 40.047 47.6357 35.412C51.1107 30.406 51.1108 40.212 51.8148 49.314C51.8148 49.314 52.8898 41.784 52.2708 33.426C51.9848 29.578 57.7708 30.655 62.6128 29.371C57.9778 29.041 43.4157 29.992 49.6227 26.807C60.2137 21.18 73.7007 13.774 85.2857 10.465C94.0987 8.02301 80.9827 16.299 77.0107 22.255C88.2647 12.656 91.5318 10.67 104.775 3.05701C105.955 2.55201 107.09 2.02301 108.763 1.23201C106.734 1.70401 104.485 2.29301 102.095 2.96701C95.7068 4.77301 88.3598 7.18401 81.7288 9.59401C75.9838 11.684 66.0968 16.027 56.9768 20.169C45.8668 25.21 35.8857 29.95 35.8857 29.95L35.3388 31.091L17.1968 68.996L10.3588 83.279L9.90375 84.232C9.90375 84.232 4.93675 95.156 3.28475 101.444C2.08375 106.006 1.92675 108.214 1.93175 109.086C1.93375 109.415 1.95875 109.554 1.95875 109.554C6.07075 112.933 15.0077 113.443 16.9607 113.513C17.2087 113.523 17.3498 113.525 17.3498 113.525C17.3498 113.525 44.4648 112.44 50.8368 110.885C51.5038 110.722 51.9468 110.554 52.1048 110.382C52.4428 110.009 54.2998 108.311 57.0778 105.818C67.4058 96.536 90.4838 76.171 95.7198 71.505C95.9438 71.306 96.1357 71.134 96.2907 70.996C98.9877 68.577 101.005 66.839 102.49 64.899C103.647 63.385 104.482 61.751 105.064 59.577C106.041 55.905 113.623 28.537 117.51 14.517C118.878 9.57401 119.792 6.28701 119.792 6.28701L119.616 6.00201Z" fill="url(#paint37_radial_114_43066)"/>
<g opacity="0.5">
<path d="M38.0227 35.225C37.7517 34.327 36.4557 34.73 36.6667 35.66C36.9567 36.453 38.3057 36.161 38.0227 35.225C38.1317 35.589 37.9617 35.02 38.0227 35.225Z" fill="#94998D"/>
<path d="M36.5256 33.651C36.3726 33.355 36.1356 33.409 35.9326 33.585C34.8086 33.968 37.1136 34.796 36.5256 33.651C36.6806 33.955 36.4166 33.439 36.5256 33.651Z" fill="#94998D"/>
<path d="M36.178 37.64C35.625 37.64 35.702 38.489 36.246 38.489C36.8 38.489 36.723 37.64 36.178 37.64Z" fill="#94998D"/>
<path d="M38.49 37.246C37.858 37.246 37.945 38.219 38.571 38.219C39.203 38.219 39.116 37.246 38.49 37.246Z" fill="#93998D"/>
<path d="M29.3995 51.598C28.9205 51.598 28.9875 52.333 29.4595 52.333C29.9355 52.333 29.8695 51.598 29.3995 51.598Z" fill="#94998D"/>
<path d="M29.4835 54.125C28.9165 53.866 28.1155 54.605 28.4385 55.204C29.0245 56.286 30.7265 54.696 29.4835 54.125C29.9185 54.325 29.1395 53.967 29.4835 54.125Z" fill="#94998D"/>
<path d="M25.7554 56.535C25.2354 56.579 25.3154 57.488 25.8184 57.449C26.3044 57.409 26.3064 56.491 25.7554 56.535C25.9924 56.516 25.4844 56.558 25.7554 56.535Z" fill="#93998D"/>
<path d="M23.5401 61.014C22.9431 60.909 22.9731 61.869 23.4701 61.905C23.9221 61.936 23.9991 61.095 23.5401 61.014C23.8051 61.062 23.2331 60.96 23.5401 61.014Z" fill="#94998D"/>
<path d="M46.0163 49.094C45.9543 48.682 45.7323 48.019 45.1353 48.328C43.2593 49.295 46.2423 50.625 46.0163 49.094C46.0823 49.547 46.0033 49.013 46.0163 49.094Z" fill="#93998D"/>
<path d="M48.5654 44.163C48.1224 43.384 47.2444 45.621 48.3254 45.532C48.9014 45.484 48.7164 44.432 48.5654 44.163C48.6684 44.347 48.4304 43.927 48.5654 44.163Z" fill="#94998D"/>
<path d="M48.9274 46.971C48.4614 46.971 48.5244 47.69 48.9864 47.69C49.4524 47.69 49.3894 46.971 48.9274 46.971Z" fill="#94998D"/>
<path d="M64.1973 37.039C63.4543 36.504 62.8843 37.776 63.4933 38.157C64.2113 38.605 64.8343 37.497 64.1973 37.039C64.4933 37.25 63.9973 36.896 64.1973 37.039Z" fill="#93998D"/>
<path d="M64.4573 33.903C64.3593 33.093 63.3434 34.355 64.1844 34.373C64.4334 34.27 64.5243 34.115 64.4573 33.903Z" fill="#93998D"/>
<path d="M72.9798 24.321C72.8408 23.731 72.0978 24.134 72.1458 24.557C72.1958 24.994 73.1238 24.916 72.9798 24.321C73.0478 24.603 72.9698 24.284 72.9798 24.321Z" fill="#94998D"/>
<path d="M76.4031 20.536C75.9931 20.536 76.0471 21.17 76.4551 21.17C76.8671 21.169 76.8091 20.536 76.4031 20.536Z" fill="#93998D"/>
<path d="M104.922 7.528C104.549 7.044 103.561 7.363 103.613 7.994C103.71 9.199 105.454 8.215 104.922 7.528C105.011 7.644 104.793 7.362 104.922 7.528Z" fill="#94998D"/>
<path d="M108.419 8.116C108.071 8.273 107.709 8.984 108.353 9.011C109.012 9.038 108.959 7.87 108.419 8.116C108.702 7.985 108.32 8.162 108.419 8.116Z" fill="#93998D"/>
<path d="M107.737 6.083C108.263 5.812 107.596 6.062 107.58 6.286C107.499 7.286 109.431 5.728 107.737 6.083C108.213 5.985 107.812 6.045 107.737 6.083Z" fill="#94998D"/>
<path d="M104.864 11.214C104.382 11.214 104.448 11.955 104.925 11.955C105.405 11.956 105.34 11.214 104.864 11.214Z" fill="#93998D"/>
<path d="M111.961 3.365C111.619 2.41 110.49 3.274 110.387 3.86C110.176 5.067 112.404 4.608 111.961 3.365C112.102 3.763 111.785 2.873 111.961 3.365Z" fill="#94998D"/>
<path d="M116.111 3.37399C115.551 3.37399 115.627 4.23999 116.181 4.23999C116.745 4.23899 116.666 3.37399 116.111 3.37399Z" fill="#93998D"/>
<path d="M104.509 45.532C103.677 45.532 103.793 46.816 104.616 46.816C105.45 46.816 105.334 45.532 104.509 45.532Z" fill="#94998D"/>
<path d="M106.067 38.942C106.011 38.453 105.427 38.459 105.377 38.927C104.614 39.841 106.815 39.812 106.067 38.942C106.15 39.038 106.063 38.915 106.067 38.942Z" fill="#94998D"/>
<path d="M104.585 42.283C104.386 41.883 103.615 42.119 103.587 42.532C103.55 43.099 104.913 42.943 104.585 42.283Z" fill="#93998D"/>
<path d="M88.9714 34.664C88.4244 34.664 88.5014 35.507 89.0394 35.507C89.5864 35.506 89.5124 34.664 88.9714 34.664Z" fill="#94998D"/>
<path d="M97.6963 63.875C97.0673 63.355 96.3303 64.154 96.7483 64.751C97.2983 65.54 98.4273 64.481 97.6963 63.875C97.9693 64.102 97.5273 63.735 97.6963 63.875Z" fill="#93998D"/>
<path d="M99.5312 63.622C99.4662 63.492 98.9352 63.343 98.8652 63.622C98.8772 63.864 98.9932 64.047 99.2152 64.169C99.5692 64.123 99.6722 63.94 99.5312 63.622C99.5932 63.75 99.4532 63.466 99.5312 63.622Z" fill="#94998D"/>
<path d="M99.5695 58.904C99.1245 58.904 99.1835 59.592 99.6275 59.592C100.074 59.592 100.011 58.904 99.5695 58.904Z" fill="#94998D"/>
<path d="M54.2278 85.143C54.0288 84.896 53.4738 84.683 53.3998 85.187C52.0788 86.487 55.7518 86.263 54.2278 85.143C54.6418 85.45 54.2958 85.23 54.2278 85.143Z" fill="#93998D"/>
<path d="M49.4807 87.022C49.2547 86.604 49.0167 86.591 48.7687 86.989C48.6817 87.717 49.5657 87.731 49.4807 87.022C49.5017 87.181 49.4357 86.626 49.4807 87.022Z" fill="#94998D"/>
<path d="M50.5744 87.753C49.9824 87.753 50.0654 88.666 50.6494 88.666C51.2414 88.666 51.1604 87.753 50.5744 87.753Z" fill="#93998D"/>
<path d="M48.4872 88.459C48.4242 87.703 47.1572 87.852 47.1942 88.649C47.2772 89.531 48.5612 89.351 48.4872 88.459C48.5052 88.672 48.4782 88.347 48.4872 88.459Z" fill="#94998D"/>
<path d="M40.9813 92.464C40.4913 92.464 40.5593 93.222 41.0443 93.222C41.5373 93.222 41.4683 92.464 40.9813 92.464Z" fill="#93998D"/>
<path d="M15.1616 81.49C14.6046 81.49 14.6806 82.349 15.2316 82.349C15.7886 82.349 15.7116 81.49 15.1616 81.49Z" fill="#94998D"/>
<path d="M19.3194 74.13C18.7274 74.3 17.8334 75.54 18.8974 75.741C19.9754 75.944 20.4604 73.802 19.3194 74.13C19.6684 74.03 19.1654 74.173 19.3194 74.13Z" fill="#93998D"/>
<path d="M18.9716 78.901C18.4916 78.901 18.5576 79.642 19.0346 79.642C19.5146 79.643 19.4486 78.901 18.9716 78.901Z" fill="#94998D"/>
<path opacity="0.4" d="M9.73965 95.007C9.29665 94.535 8.60466 95.378 8.63266 95.705C8.72066 96.802 10.6877 96.013 9.73965 95.007C9.94865 95.229 9.58965 94.848 9.73965 95.007Z" fill="#94998D"/>
<path opacity="0.4" d="M6.06883 100.145C5.66783 100.145 5.72084 100.764 6.11884 100.764C6.52084 100.764 6.46383 100.145 6.06883 100.145Z" fill="#94998D"/>
<path opacity="0.4" d="M8.21421 99.248C7.72221 99.248 7.79022 100.006 8.27722 100.006C8.76822 100.006 8.70021 99.248 8.21421 99.248Z" fill="#93998D"/>
<path opacity="0.4" d="M5.55132 104.359C4.81832 104.359 4.91731 105.488 5.64331 105.488C6.37531 105.488 6.27632 104.359 5.55132 104.359Z" fill="#93998D"/>
<path opacity="0.4" d="M10.2899 103.734C10.2239 103.355 10.0349 103.225 9.72286 103.347C8.89786 103.838 10.4119 104.604 10.2899 103.734C10.3249 103.986 10.2629 103.537 10.2899 103.734Z" fill="#93998D"/>
<path opacity="0.4" d="M21.8375 110.003C21.6215 109.08 20.3405 109.968 20.8455 110.718C21.3555 111.473 21.9705 110.574 21.8375 110.003C21.8625 110.115 21.7965 109.827 21.8375 110.003Z" fill="#93998D"/>
<path opacity="0.4" d="M20.7882 111.935C20.6312 111.262 19.9142 111.885 20.2602 112.249C20.5372 112.459 20.7102 112.353 20.7882 111.935C20.8322 112.13 20.7642 111.834 20.7882 111.935Z" fill="#94998D"/>
<path opacity="0.4" d="M19.9697 108.926C19.5807 108.926 19.6347 109.529 20.0197 109.529C20.4117 109.528 20.3597 108.926 19.9697 108.926Z" fill="#94998D"/>
<path opacity="0.4" d="M24.674 107.074C24.088 106.239 23.092 107.289 23.691 107.793C24.165 108.46 25.13 107.727 24.674 107.074C24.822 107.286 24.561 106.913 24.674 107.074Z" fill="#94998D"/>
<path opacity="0.4" d="M15.1574 108.924C14.5524 108.924 14.6344 109.86 15.2354 109.86C15.8404 109.86 15.7574 108.924 15.1574 108.924Z" fill="#94998D"/>
<path opacity="0.4" d="M10.3724 109.91C9.96936 109.91 10.0244 110.529 10.4224 110.529C10.8244 110.529 10.7684 109.91 10.3724 109.91Z" fill="#94998D"/>
<path d="M52.5718 51.794C52.1338 51.794 52.1948 52.467 52.6258 52.467C53.0638 52.467 53.0018 51.794 52.5718 51.794Z" fill="#93998D"/>
<path d="M77.2235 60.153C76.6805 60.153 76.7545 60.989 77.2895 60.989C77.8315 60.989 77.7575 60.153 77.2235 60.153Z" fill="#94998D"/>
</g>
<path opacity="0.3" d="M49.3983 65.979C49.3983 65.979 36.2593 80.173 33.7123 83.311C28.4473 89.795 23.9063 96.828 18.6513 103.319C18.5693 103.418 24.1003 97.263 26.5583 94.039C29.1533 90.637 39.8293 77.935 42.6583 75.067C45.2473 72.447 47.9603 69.811 49.9873 66.719C50.0433 66.704 56.1713 64.729 58.5543 64.213C61.8303 63.505 73.4863 60.009 76.6503 58.847C79.9023 57.652 83.1203 56.397 86.3963 55.272C86.5133 55.23 49.3983 65.979 49.3983 65.979Z" fill="url(#paint38_radial_114_43066)"/>
<path opacity="0.6" d="M35.166 79.218L51.453 50.009L51.161 31.002L52.487 47.553L62.61 29.375C62.61 29.375 53.479 48.214 52.376 49.981C51.274 51.745 35.166 79.218 35.166 79.218Z" fill="url(#paint39_radial_114_43066)"/>
<path opacity="0.6" d="M52.2676 62.889L56.0156 60.24L63.5216 61.675L56.7896 59.357L100.26 22.729L93.5296 27.361L83.0476 28.465H92.0956L56.0156 59.136L52.2676 62.889Z" fill="url(#paint40_radial_114_43066)"/>
<path opacity="0.3" d="M96.5066 6.84C96.5066 6.84 78.9656 20.411 76.4266 22.397C73.8906 24.383 69.4766 28.133 69.4766 28.133L76.6486 23.169L82.0476 28.466L77.8625 22.174L96.5066 6.84Z" fill="url(#paint41_radial_114_43066)"/>
<path opacity="0.6" d="M30.752 88.154L62.61 29.375L93.87 27.821L49.509 66.31L30.752 88.154Z" fill="url(#paint42_radial_114_43066)"/>
<g opacity="0.3">
<path d="M19.8284 90.691C19.3354 89.063 16.9914 89.795 17.3704 91.48C17.8934 92.92 20.3434 92.389 19.8284 90.691C20.0294 91.352 19.7154 90.32 19.8284 90.691Z" fill="#94998D"/>
<path d="M17.1134 87.838C16.8384 87.304 16.4074 87.401 16.0384 87.718C14.0024 88.413 18.1794 89.915 17.1134 87.838C17.3964 88.39 16.9174 87.459 17.1134 87.838Z" fill="#94998D"/>
<path d="M16.4878 95.067C15.4878 95.067 15.6248 96.608 16.6148 96.608C17.6148 96.608 17.4758 95.067 16.4878 95.067Z" fill="#94998D"/>
<path d="M20.6766 94.355C19.5316 94.355 19.6896 96.122 20.8226 96.122C21.9696 96.121 21.8096 94.355 20.6766 94.355Z" fill="#93998D"/>
<path d="M64.3577 30.615C63.4947 30.615 63.6127 31.947 64.4677 31.947C65.3307 31.946 65.2127 30.615 64.3577 30.615Z" fill="#94998D"/>
<path d="M64.5124 35.196C63.4854 34.724 62.0334 36.068 62.6174 37.149C63.6784 39.112 66.7634 36.229 64.5124 35.196C65.3014 35.558 63.8894 34.91 64.5124 35.196Z" fill="#94998D"/>
<path d="M59.5194 25.663C58.5804 25.74 58.7244 27.39 59.6314 27.316C60.5154 27.243 60.5184 25.583 59.5194 25.663C59.9534 25.628 59.0314 25.703 59.5194 25.663Z" fill="#93998D"/>
<path d="M55.5069 33.781C54.4259 33.591 54.4779 35.328 55.3779 35.392C56.1989 35.453 56.3389 33.928 55.5069 33.781C55.9879 33.866 54.9499 33.684 55.5069 33.781Z" fill="#94998D"/>
<path d="M32.7384 87.382C31.9364 85.969 30.3444 90.022 32.2994 89.861C33.3444 89.778 33.0114 87.868 32.7384 87.382C32.9244 87.711 32.4944 86.953 32.7384 87.382Z" fill="#94998D"/>
<path d="M93.2023 11.409C92.3573 11.409 92.4723 12.712 93.3073 12.712C94.1543 12.712 94.0373 11.409 93.2023 11.409Z" fill="#94998D"/>
<path d="M49.9482 76.46C48.5992 75.491 47.5702 77.798 48.6702 78.485C49.9722 79.301 51.1032 77.29 49.9482 76.46C50.4822 76.843 49.5892 76.201 49.9482 76.46Z" fill="#93998D"/>
<path d="M50.4171 70.779C50.2451 69.311 48.3971 71.595 49.9221 71.63C50.3741 71.444 50.5391 71.16 50.4171 70.779Z" fill="#93998D"/>
<path d="M72.3889 52.2C72.1389 51.134 70.7919 51.865 70.8769 52.631C70.9679 53.422 72.6499 53.277 72.3889 52.2C72.5129 52.712 72.3729 52.134 72.3889 52.2Z" fill="#94998D"/>
<path d="M39.5926 73.324C38.8476 73.324 38.9507 74.473 39.6887 74.473C40.4337 74.474 40.3306 73.324 39.5926 73.324Z" fill="#93998D"/>
<path d="M93.268 31.974C92.592 31.1 90.803 31.676 90.894 32.823C91.073 35.005 94.229 33.222 93.268 31.974C93.431 32.187 93.036 31.673 93.268 31.974Z" fill="#94998D"/>
<path d="M98.3716 29.358C99.3216 28.863 98.1146 29.318 98.0816 29.724C97.9356 31.534 101.436 28.716 98.3716 29.358C99.2326 29.178 98.5056 29.288 98.3716 29.358Z" fill="#94998D"/>
<path d="M86.9101 49.626C86.0361 49.626 86.1562 50.972 87.0202 50.972C87.8912 50.972 87.7731 49.626 86.9101 49.626Z" fill="#93998D"/>
<path d="M41.1211 62.557C40.5051 60.826 38.4581 62.393 38.2711 63.456C37.8861 65.643 41.9241 64.808 41.1211 62.557C41.3771 63.278 40.8041 61.667 41.1211 62.557Z" fill="#94998D"/>
<path d="M99.5962 47.553C99.4972 46.667 98.4392 46.679 98.3452 47.528C96.9662 49.183 100.954 49.13 99.5962 47.553C99.7462 47.727 99.5922 47.505 99.5962 47.553Z" fill="#94998D"/>
<path d="M71.9721 59.312C70.9801 59.312 71.1171 60.84 72.0981 60.84C73.0881 60.84 72.9521 59.312 71.9721 59.312Z" fill="#94998D"/>
<path d="M103.803 41.357C103.685 41.119 102.724 40.848 102.596 41.355C102.617 41.796 102.828 42.125 103.23 42.345C103.872 42.264 104.062 41.935 103.803 41.357C103.919 41.589 103.663 41.073 103.803 41.357Z" fill="#94998D"/>
<path d="M81.6266 72.806C81.2146 72.05 80.7816 72.032 80.3326 72.75C80.1796 74.074 81.7826 74.094 81.6266 72.806C81.6626 73.098 81.5406 72.092 81.6266 72.806Z" fill="#94998D"/>
<path d="M83.6112 74.127C82.5382 74.129 82.6892 75.784 83.7522 75.78C84.8232 75.778 84.6732 74.126 83.6112 74.127Z" fill="#93998D"/>
<path d="M79.831 75.416C79.715 74.049 77.416 74.325 77.49 75.772C77.64 77.369 79.968 77.033 79.831 75.416C79.865 75.805 79.815 75.217 79.831 75.416Z" fill="#94998D"/>
<path d="M63.5128 83.472C62.6218 83.474 62.7508 84.847 63.6288 84.845C64.5218 84.841 64.3948 83.47 63.5128 83.472Z" fill="#93998D"/>
<path d="M34.1818 64.746C33.1728 64.746 33.3098 66.301 34.3108 66.301C35.3188 66.301 35.1798 64.746 34.1818 64.746Z" fill="#94998D"/>
<path d="M41.7169 51.405C40.6469 51.711 39.0249 53.96 40.9509 54.323C42.9109 54.692 43.7869 50.813 41.7169 51.405C42.3509 51.223 41.4419 51.484 41.7169 51.405Z" fill="#93998D"/>
<path d="M41.088 60.051C40.216 60.051 40.334 61.397 41.199 61.397C42.074 61.398 41.954 60.051 41.088 60.051Z" fill="#94998D"/>
<path d="M24.359 89.241C23.551 88.386 22.3 89.914 22.346 90.509C22.507 92.499 26.074 91.066 24.359 89.241C24.736 89.643 24.087 88.956 24.359 89.241Z" fill="#94998D"/>
<path d="M17.7034 98.557C16.9744 98.557 17.0743 99.677 17.7943 99.677C18.5233 99.677 18.4234 98.557 17.7034 98.557Z" fill="#94998D"/>
<path d="M21.5923 96.931C20.7013 96.931 20.8223 98.304 21.7033 98.304C22.5943 98.304 22.4723 96.931 21.5923 96.931Z" fill="#93998D"/>
<path d="M16.7653 106.192C15.4373 106.192 15.6203 108.238 16.9323 108.238C18.2603 108.238 18.0783 106.192 16.7653 106.192Z" fill="#93998D"/>
<path d="M25.3557 105.057C25.2357 104.371 24.8937 104.138 24.3267 104.355C22.8347 105.246 25.5757 106.633 25.3557 105.057C25.4197 105.515 25.3057 104.703 25.3557 105.057Z" fill="#93998D"/>
<path d="M54.1727 103.189C53.7847 101.511 51.4597 103.123 52.3747 104.481C53.2987 105.853 54.4117 104.225 54.1727 103.189C54.2207 103.39 54.0977 102.866 54.1727 103.189Z" fill="#93998D"/>
<path d="M52.2716 106.689C51.9856 105.469 50.6876 106.598 51.3146 107.261C51.8136 107.638 52.1326 107.447 52.2716 106.689C52.3526 107.041 52.2286 106.505 52.2716 106.689Z" fill="#94998D"/>
<path d="M50.7897 101.234C50.0807 101.234 50.1787 102.327 50.8807 102.327C51.5877 102.328 51.4917 101.234 50.7897 101.234Z" fill="#94998D"/>
<path d="M58.1964 98.165C57.1374 96.651 55.3284 98.555 56.4164 99.468C57.2754 100.675 59.0224 99.348 58.1964 98.165C58.4634 98.547 57.9914 97.873 58.1964 98.165Z" fill="#94998D"/>
<path d="M42.0663 101.232C40.9653 101.232 41.1173 102.928 42.2073 102.928C43.3043 102.928 43.1553 101.232 42.0663 101.232Z" fill="#94998D"/>
<path d="M33.3927 103.02C32.6637 103.02 32.7637 104.143 33.4847 104.143C34.2107 104.142 34.1117 103.02 33.3927 103.02Z" fill="#94998D"/>
<path d="M86.4797 29.784C85.6887 29.784 85.7957 31.002 86.5797 31.002C87.3707 31.002 87.2607 29.784 86.4797 29.784Z" fill="#93998D"/>
<path d="M92.346 14.983C91.365 14.983 91.499 16.497 92.47 16.497C93.452 16.497 93.317 14.983 92.346 14.983Z" fill="#94998D"/>
</g>
<defs>
<linearGradient id="paint0_linear_114_43066" x1="70.1302" y1="117.501" x2="70.1302" y2="27.8367" gradientUnits="userSpaceOnUse">
<stop stop-color="#CBCBCB"/>
<stop offset="0.9008" stop-color="#8E8E8E"/>
</linearGradient>
<linearGradient id="paint1_linear_114_43066" x1="65.9117" y1="94.1031" x2="83.734" y2="94.1031" gradientUnits="userSpaceOnUse">
<stop offset="0.1027" stop-color="white"/>
<stop offset="0.515" stop-color="#D3DDDA"/>
<stop offset="0.9684" stop-color="#BBAE9E"/>
</linearGradient>
<linearGradient id="paint2_linear_114_43066" x1="70.3788" y1="98.2236" x2="102.485" y2="84.8186" gradientUnits="userSpaceOnUse">
<stop offset="0.1027" stop-color="white"/>
<stop offset="0.515" stop-color="#D3DDDA"/>
<stop offset="0.9684" stop-color="#BBAE9E"/>
</linearGradient>
<linearGradient id="paint3_linear_114_43066" x1="117.036" y1="85.337" x2="101.961" y2="109.734" gradientUnits="userSpaceOnUse">
<stop offset="0.1027" stop-color="white"/>
<stop offset="0.515" stop-color="#D3DDDA"/>
<stop offset="0.9684" stop-color="#BBAE9E"/>
</linearGradient>
<radialGradient id="paint4_radial_114_43066" cx="0" cy="0" r="1" gradientUnits="userSpaceOnUse" gradientTransform="translate(150.571 111.046) scale(67.1408 67.1408)">
<stop offset="0.7885" stop-color="#D4E0E5"/>
<stop offset="0.8961" stop-color="#93B2B3"/>
<stop offset="0.9684" stop-color="#6B6650"/>
</radialGradient>
<radialGradient id="paint5_radial_114_43066" cx="0" cy="0" r="1" gradientUnits="userSpaceOnUse" gradientTransform="translate(170.759 75.7967) scale(51.7241 51.7241)">
<stop offset="0.0168" stop-color="#D3DDDA"/>
<stop offset="0.6047" stop-color="#D2DCD8"/>
<stop offset="0.9684" stop-color="#BBAE9E"/>
</radialGradient>
<linearGradient id="paint6_linear_114_43066" x1="116.26" y1="49.3189" x2="134.858" y2="49.3189" gradientUnits="userSpaceOnUse">
<stop offset="0.0168" stop-color="#D3DDDA"/>
<stop offset="0.9684" stop-color="#BBAE9E"/>
</linearGradient>
<linearGradient id="paint7_linear_114_43066" x1="102.518" y1="48.304" x2="125.748" y2="48.304" gradientUnits="userSpaceOnUse">
<stop offset="0.4283" stop-color="white"/>
<stop offset="0.8506" stop-color="#D3DDDA"/>
</linearGradient>
<radialGradient id="paint8_radial_114_43066" cx="0" cy="0" r="1" gradientUnits="userSpaceOnUse" gradientTransform="translate(105.069 76.9949) scale(36.3421 36.3421)">
<stop offset="0.2623" stop-color="#D3DDDA"/>
<stop offset="0.5841" stop-color="#D2DCD8"/>
<stop offset="0.9684" stop-color="#BBAE9E"/>
</radialGradient>
<radialGradient id="paint9_radial_114_43066" cx="0" cy="0" r="1" gradientUnits="userSpaceOnUse" gradientTransform="translate(111.072 95.8774) scale(31.8542 31.8542)">
<stop offset="0.2367" stop-color="#D4E0E5"/>
<stop offset="0.7122" stop-color="#93B2B3"/>
<stop offset="0.9684" stop-color="#6B6650"/>
</radialGradient>
<radialGradient id="paint10_radial_114_43066" cx="0" cy="0" r="1" gradientUnits="userSpaceOnUse" gradientTransform="translate(126.36 56.9304) scale(5.9117)">
<stop offset="0.2367" stop-color="#D4E0E5"/>
<stop offset="0.7122" stop-color="#93B2B3"/>
<stop offset="0.9684" stop-color="#6B6650"/>
</radialGradient>
<radialGradient id="paint11_radial_114_43066" cx="0" cy="0" r="1" gradientUnits="userSpaceOnUse" gradientTransform="translate(129.672 91.1176) scale(36.3429 36.3429)">
<stop offset="0.0104" stop-color="white"/>
<stop offset="0.6479" stop-color="#D3DDDA"/>
<stop offset="0.9684" stop-color="#BBAE9E"/>
</radialGradient>
<radialGradient id="paint12_radial_114_43066" cx="0" cy="0" r="1" gradientUnits="userSpaceOnUse" gradientTransform="translate(155.868 117.171) scale(87.2318 87.2318)">
<stop offset="0.7268" stop-color="white"/>
<stop offset="0.8163" stop-color="#C4D2CE"/>
<stop offset="0.9008" stop-color="#A29079"/>
</radialGradient>
<radialGradient id="paint13_radial_114_43066" cx="0" cy="0" r="1" gradientUnits="userSpaceOnUse" gradientTransform="translate(129.858 116.745) scale(67.9345 67.9345)">
<stop offset="0.7268" stop-color="white"/>
<stop offset="0.8163" stop-color="#C4D2CE"/>
<stop offset="0.9008" stop-color="#A29079"/>
</radialGradient>
<linearGradient id="paint14_linear_114_43066" x1="123.177" y1="83.639" x2="126.156" y2="103.002" gradientUnits="userSpaceOnUse">
<stop offset="0.1027" stop-color="white"/>
<stop offset="0.515" stop-color="#D3DDDA"/>
<stop offset="0.9684" stop-color="#BBAE9E"/>
</linearGradient>
<linearGradient id="paint15_linear_114_43066" x1="17.1932" y1="49.6337" x2="51.7862" y2="49.6337" gradientUnits="userSpaceOnUse">
<stop offset="0.0168" stop-color="#D3DDDA"/>
<stop offset="0.9684" stop-color="#BBAE9E"/>
</linearGradient>
<linearGradient id="paint16_linear_114_43066" x1="51.0081" y1="39.3917" x2="62.6516" y2="39.3917" gradientUnits="userSpaceOnUse">
<stop stop-color="white"/>
<stop offset="0.5297" stop-color="#D3DDDA"/>
<stop offset="0.9684" stop-color="#BBAE9E"/>
</linearGradient>
<linearGradient id="paint17_linear_114_43066" x1="1.92882" y1="96.1863" x2="17.8274" y2="96.1863" gradientUnits="userSpaceOnUse">
<stop offset="0.0168" stop-color="#D3DDDA"/>
<stop offset="0.9684" stop-color="#BBAE9E"/>
</linearGradient>
<linearGradient id="paint18_linear_114_43066" x1="40.6808" y1="17.2261" x2="102.091" y2="17.2261" gradientUnits="userSpaceOnUse">
<stop offset="0.1027" stop-color="white"/>
<stop offset="0.515" stop-color="#D3DDDA"/>
<stop offset="0.9684" stop-color="#BBAE9E"/>
</linearGradient>
<linearGradient id="paint19_linear_114_43066" x1="35.3354" y1="25.8663" x2="56.9731" y2="25.8663" gradientUnits="userSpaceOnUse">
<stop offset="0.0168" stop-color="#D3DDDA"/>
<stop offset="0.9684" stop-color="#BBAE9E"/>
</linearGradient>
<linearGradient id="paint20_linear_114_43066" x1="68.1331" y1="25.6449" x2="82.0481" y2="25.6449" gradientUnits="userSpaceOnUse">
<stop stop-color="white"/>
<stop offset="0.5297" stop-color="#D3DDDA"/>
<stop offset="0.9684" stop-color="#BBAE9E"/>
</linearGradient>
<linearGradient id="paint21_linear_114_43066" x1="91.9273" y1="8.11221" x2="110.682" y2="34.3689" gradientUnits="userSpaceOnUse">
<stop stop-color="white"/>
<stop offset="0.5297" stop-color="#D3DDDA"/>
<stop offset="0.9684" stop-color="#BBAE9E"/>
</linearGradient>
<linearGradient id="paint22_linear_114_43066" x1="111.012" y1="1.744" x2="115.336" y2="1.744" gradientUnits="userSpaceOnUse">
<stop stop-color="white"/>
<stop offset="0.5297" stop-color="#D3DDDA"/>
<stop offset="0.9684" stop-color="#BBAE9E"/>
</linearGradient>
<linearGradient id="paint23_linear_114_43066" x1="116.545" y1="4.11371" x2="107.498" y2="14.7055" gradientUnits="userSpaceOnUse">
<stop offset="0.0229" stop-color="#D3DDDA"/>
<stop offset="1" stop-color="white"/>
</linearGradient>
<linearGradient id="paint24_linear_114_43066" x1="96.2733" y1="47.2725" x2="102.102" y2="47.2725" gradientUnits="userSpaceOnUse">
<stop stop-color="white"/>
<stop offset="0.5297" stop-color="#D3DDDA"/>
<stop offset="0.9684" stop-color="#BBAE9E"/>
</linearGradient>
<radialGradient id="paint25_radial_114_43066" cx="0" cy="0" r="1" gradientUnits="userSpaceOnUse" gradientTransform="translate(102.466 77.7828) scale(50.4537 50.4537)">
<stop stop-color="white"/>
<stop offset="0.5297" stop-color="#D3DDDA"/>
<stop offset="0.9684" stop-color="#BBAE9E"/>
</radialGradient>
<linearGradient id="paint26_linear_114_43066" x1="49.4308" y1="62.9571" x2="66.0041" y2="62.9571" gradientUnits="userSpaceOnUse">
<stop stop-color="white"/>
<stop offset="0.5297" stop-color="#D3DDDA"/>
<stop offset="0.9684" stop-color="#BBAE9E"/>
</linearGradient>
<linearGradient id="paint27_linear_114_43066" x1="17.3687" y1="101.105" x2="25.648" y2="101.105" gradientUnits="userSpaceOnUse">
<stop offset="0.0229" stop-color="#D3DDDA"/>
<stop offset="1" stop-color="white"/>
</linearGradient>
<linearGradient id="paint28_linear_114_43066" x1="74.1875" y1="89.4846" x2="38.2207" y2="66.3159" gradientUnits="userSpaceOnUse">
<stop offset="0.4283" stop-color="white"/>
<stop offset="0.8506" stop-color="#D3DDDA"/>
</linearGradient>
<linearGradient id="paint29_linear_114_43066" x1="86.1037" y1="88.3109" x2="71.9817" y2="60.287" gradientUnits="userSpaceOnUse">
<stop offset="0.1027" stop-color="white"/>
<stop offset="0.515" stop-color="#D3DDDA"/>
<stop offset="0.9684" stop-color="#BBAE9E"/>
</linearGradient>
<linearGradient id="paint30_linear_114_43066" x1="109.84" y1="51.3207" x2="85.7912" y2="67.2065" gradientUnits="userSpaceOnUse">
<stop offset="0.0168" stop-color="#D3DDDA"/>
<stop offset="0.9684" stop-color="#BBAE9E"/>
</linearGradient>
<linearGradient id="paint31_linear_114_43066" x1="122.378" y1="39.9397" x2="97.6616" y2="35.0846" gradientUnits="userSpaceOnUse">
<stop stop-color="white"/>
<stop offset="0.5297" stop-color="#D3DDDA"/>
<stop offset="0.9684" stop-color="#BBAE9E"/>
</linearGradient>
<linearGradient id="paint32_linear_114_43066" x1="112.407" y1="8.31711" x2="120.793" y2="10.9653" gradientUnits="userSpaceOnUse">
<stop offset="0.0168" stop-color="#D3DDDA"/>
<stop offset="0.9684" stop-color="#BBAE9E"/>
</linearGradient>
<linearGradient id="paint33_linear_114_43066" x1="1.92891" y1="108.781" x2="18.5945" y2="108.781" gradientUnits="userSpaceOnUse">
<stop offset="0.1027" stop-color="white"/>
<stop offset="0.515" stop-color="#D3DDDA"/>
<stop offset="0.9684" stop-color="#BBAE9E"/>
</linearGradient>
<linearGradient id="paint34_linear_114_43066" x1="16.9585" y1="108.11" x2="50.8344" y2="108.11" gradientUnits="userSpaceOnUse">
<stop offset="0.0168" stop-color="#D3DDDA"/>
<stop offset="0.9684" stop-color="#BBAE9E"/>
</linearGradient>
<linearGradient id="paint35_linear_114_43066" x1="22.2599" y1="97.7791" x2="67.1701" y2="97.7791" gradientUnits="userSpaceOnUse">
<stop stop-color="white"/>
<stop offset="0.5297" stop-color="#D3DDDA"/>
<stop offset="0.9684" stop-color="#BBAE9E"/>
</linearGradient>
<linearGradient id="paint36_linear_114_43066" x1="57.0749" y1="88.6647" x2="95.7165" y2="88.6647" gradientUnits="userSpaceOnUse">
<stop offset="0.0168" stop-color="#D3DDDA"/>
<stop offset="0.9684" stop-color="#BBAE9E"/>
</linearGradient>
<radialGradient id="paint37_radial_114_43066" cx="0" cy="0" r="1" gradientUnits="userSpaceOnUse" gradientTransform="translate(60.8591 56.7647) scale(57.8576 57.8576)">
<stop offset="0.0168" stop-color="#D3DDDA"/>
<stop offset="0.6047" stop-color="#D2DCD8"/>
<stop offset="0.9684" stop-color="#BBAE9E"/>
</radialGradient>
<radialGradient id="paint38_radial_114_43066" cx="0" cy="0" r="1" gradientUnits="userSpaceOnUse" gradientTransform="translate(52.5243 79.2952) scale(29.3644 29.3644)">
<stop offset="0.2367" stop-color="#D4E0E5"/>
<stop offset="0.7122" stop-color="#93B2B3"/>
<stop offset="0.9684" stop-color="#6B6650"/>
</radialGradient>
<radialGradient id="paint39_radial_114_43066" cx="0" cy="0" r="1" gradientUnits="userSpaceOnUse" gradientTransform="translate(48.8881 54.2962) scale(20.1168 20.1168)">
<stop offset="0.2367" stop-color="#D4E0E5"/>
<stop offset="0.7122" stop-color="#93B2B3"/>
<stop offset="0.9684" stop-color="#6B6650"/>
</radialGradient>
<radialGradient id="paint40_radial_114_43066" cx="0" cy="0" r="1" gradientUnits="userSpaceOnUse" gradientTransform="translate(76.2637 42.8086) scale(22.1249 22.1249)">
<stop offset="0.2367" stop-color="#D4E0E5"/>
<stop offset="0.7122" stop-color="#93B2B3"/>
<stop offset="0.9684" stop-color="#6B6650"/>
</radialGradient>
<radialGradient id="paint41_radial_114_43066" cx="0" cy="0" r="1" gradientUnits="userSpaceOnUse" gradientTransform="translate(82.9917 17.6539) scale(12.2391)">
<stop offset="0.2367" stop-color="#D4E0E5"/>
<stop offset="0.7122" stop-color="#93B2B3"/>
<stop offset="0.9684" stop-color="#6B6650"/>
</radialGradient>
<radialGradient id="paint42_radial_114_43066" cx="0" cy="0" r="1" gradientUnits="userSpaceOnUse" gradientTransform="translate(0.301153 -42.6988) scale(121.683 121.683)">
<stop offset="0.7885" stop-color="#D4E0E5"/>
<stop offset="0.8961" stop-color="#93B2B3"/>
<stop offset="0.9684" stop-color="#6B6650"/>
</radialGradient>
</defs>
</svg>
