<svg width="178" height="143" viewBox="0 0 178 143" fill="none" xmlns="http://www.w3.org/2000/svg">
<path d="M161.998 50.9371L156.573 35.8921L124.021 28.8711L119.371 13.8262L58.9181 0.787109L34.8921 13.8262L31.7921 28.8711L12.4161 31.8801C12.4161 31.8801 3.11505 59.9641 3.11505 62.9731C3.11505 65.9821 0.790039 97.0751 0.790039 97.0751L10.8661 105.099L8.54108 121.147L34.8921 134.186L53.493 130.174L55.8181 118.138L63.5681 129.171L103.095 142.21L151.923 125.159V111.117L177.499 88.0481L172.849 54.9491L161.998 50.9371Z" fill="#89898F"/>
<path d="M84.494 30.8771C72.868 32.8831 61.243 30.8771 61.243 30.8771L34.891 13.8262L31.791 28.8711C31.791 28.8711 55.042 42.9131 62.793 49.9341C62.793 49.9341 82.944 48.9311 89.919 44.9191L124.021 28.8711L119.371 13.8262C119.371 13.8262 96.12 28.8711 84.494 30.8771Z" fill="#919194"/>
<path d="M50.3921 58.9612L69.7681 55.9521L56.108 46.4861C56.108 46.4861 38.7671 33.8861 31.7911 28.8711L12.415 31.8801C12.415 31.8801 30.2411 68.9911 34.1161 72.0001C37.9911 75.0091 58.9171 89.0511 58.9171 89.0511L72.868 100.084L80.6191 81.0271L102.32 97.0751L124.796 86.0421C124.796 86.0421 103.382 65.3781 79.9731 61.8031C59.1761 58.6261 50.3921 58.9612 50.3921 58.9612Z" fill="#B6B8BA"/>
<path d="M89.9189 44.9191C89.9189 44.9191 93.0189 54.9491 99.9949 55.9521C106.97 56.9551 142.622 57.9581 142.622 57.9581C149.597 51.9401 156.573 35.8921 156.573 35.8921L124.021 28.8711L89.9189 44.9191Z" fill="#B6B8BA"/>
<path d="M148.822 74.006C144.172 78.018 130.221 91.057 130.221 91.057C130.221 91.057 144.172 103.594 151.922 111.117C151.922 111.117 150.372 92.06 152.697 88.048C155.022 84.036 172.848 54.949 172.848 54.949L161.997 50.937C161.997 50.937 153.473 69.994 148.822 74.006Z" fill="#B6B8BA"/>
<path d="M15.5146 97.0751C15.5146 97.0751 24.8146 103.093 31.7906 106.102C38.7656 109.111 51.1666 100.084 51.1666 100.084L33.3406 84.0361L15.5146 97.0751Z" fill="#B6B8BA"/>
<path d="M34.8906 13.8251C34.8906 13.8251 55.8166 27.8671 61.2426 30.8761C66.6676 33.8851 79.0687 34.8882 84.4937 31.8792C89.9187 28.8702 119.371 13.8251 119.371 13.8251C119.371 13.8251 67.4427 0.786133 58.9177 0.786133C58.9177 0.786133 37.9906 9.81307 34.8906 13.8251Z" fill="#B6B8BA"/>
<path d="M61.2432 30.877L62.0182 46.925C62.0182 46.925 81.3942 46.9249 89.9192 44.9189L84.4942 30.877C84.4942 30.877 65.8932 34.889 61.2432 30.877Z" fill="#89898F"/>
<path d="M99.9955 55.9521L96.8955 67.9882C96.8955 67.9882 119.371 83.0331 124.797 86.0421C130.223 89.0511 130.222 89.0511 130.222 89.0511C130.222 89.0511 144.948 79.0211 148.823 74.0061L142.623 57.9581C142.623 57.9581 104.645 57.9581 99.9955 55.9521Z" fill="#89898F"/>
<path d="M49.2298 24.859L68.2178 9.81299L44.9668 20.847L49.2298 24.859Z" fill="#919194"/>
<path d="M89.9189 44.9189L79.0679 46.925L78.293 61.97L96.1509 67.5699L99.994 55.952C99.994 55.952 93.0189 52.9429 89.9189 44.9189Z" fill="#919194"/>
<path d="M31.791 28.8711L69.768 55.9521L58.576 58.5082C64.315 58.2032 78.294 61.9701 78.294 61.9701L79.069 46.9252H62.018L31.791 28.8711Z" fill="#919194"/>
<path d="M58.5758 58.5083C57.6958 58.5553 57.0038 58.6953 56.5918 58.9613L58.5758 58.5083Z" fill="#919194"/>
<path d="M142.622 57.9581L148.822 74.0061C148.822 74.0061 160.448 55.9521 161.998 50.9371L156.573 35.8921C156.573 35.8921 147.272 55.9521 142.622 57.9581Z" fill="#919194"/>
<path d="M2.66205 61.3849L0.789062 97.0748L10.8651 105.099L15.5151 97.0748L33.3411 84.0359L34.1161 71.9999L12.415 31.8799L2.66205 61.3849Z" fill="#919194"/>
<path d="M102.32 97.075L103.095 142.21L151.922 125.159V111.117L124.796 86.042L102.32 97.075Z" fill="#919194"/>
<path d="M152.697 88.0482C150.372 100.084 151.922 111.117 151.922 111.117L177.498 88.0482L172.848 54.9492C172.848 54.9492 155.023 76.0122 152.697 88.0482Z" fill="#89898F"/>
<path d="M63.5684 129.171L73.6434 132.18L80.6194 81.0273L72.8683 100.084L63.5684 129.171Z" fill="#919194"/>
<path d="M15.5151 91.558L17.4531 77.015L20.9401 71.498L14.7401 77.015L12.415 91.558L8.92706 98.078L0.789062 97.075L10.8651 105.538L15.5151 97.075L33.3411 84.036L34.1161 72L29.8531 82.531L15.5151 91.558Z" fill="#606063"/>
<path d="M51.167 100.084L55.817 118.138L63.568 129.171L72.868 100.084L63.18 119.141L51.167 100.084Z" fill="#606063"/>
<path d="M75.581 58.6261L62.018 46.9252L31.791 28.8711L68.735 55.9521L50.586 58.9612L73.902 61.1342L96.12 67.4861L124.796 86.0421L97.799 65.4801L75.581 58.6261Z" fill="#606063"/>
<path d="M136.034 96.5729L151.922 111.117L177.499 88.0479L151.147 105.601L136.034 96.5729Z" fill="#606063"/>
<path d="M89.9196 16.584C89.9196 16.584 83.3066 28.2889 82.5566 29.1219C81.2006 30.6269 67.8305 31.63 63.1805 30.376C58.5305 29.122 53.6865 24.358 53.6865 24.358L68.2186 9.81396L50.3926 23.856C50.3926 23.856 57.9496 30.626 61.0496 31.629C64.1496 32.632 76.5506 34.387 85.4636 32.13C94.3766 29.873 119.372 13.825 119.372 13.825C119.372 13.825 90.3305 28.619 87.0135 28.619C85.0755 28.62 89.9196 16.584 89.9196 16.584Z" fill="#D3D8DE"/>
<path d="M143.591 52.9431C139.91 55.2001 99.9951 55.9521 99.9951 55.9521C99.9951 55.9521 137.197 60.4661 142.622 57.9581C148.047 55.4511 156.573 35.8921 156.573 35.8921C156.573 35.8921 147.272 50.6861 143.591 52.9431Z" fill="#D3D8DE"/>
<path d="M138.553 83.2841C138.553 83.2841 147.078 81.278 152.31 73.505C157.542 65.732 161.998 50.937 161.998 50.937C161.998 50.937 151.729 70.496 148.822 74.006C145.916 77.516 138.553 83.2841 138.553 83.2841Z" fill="#D3D8DE"/>
<path d="M151.148 105.601C151.148 105.601 150.954 95.8223 152.698 88.0483C154.442 80.2753 162.774 67.2363 162.774 67.2363C162.774 67.2363 154.248 77.0154 150.761 87.5474C147.273 98.0784 151.148 105.601 151.148 105.601Z" fill="#D3D8DE"/>
<path d="M80.6191 81.0273L101.157 97.8274L102.707 116.383L104.064 97.3264L124.796 86.0424L103.095 94.8184L80.6191 81.0273Z" fill="#D3D8DE"/>
<path d="M12.415 31.8799L34.1161 71.9999L61.436 91.0569L35.4731 68.9908L12.415 31.8799Z" fill="#D3D8DE"/>
<path d="M75.0003 61.2181C72.0943 60.2151 43.6113 57.9581 43.0293 58.4601L72.4813 62.9731L93.2133 68.4891L99.9943 76.513L96.1193 67.4861C96.1193 67.4861 77.9063 62.2211 75.0003 61.2181Z" fill="#D3D8DE"/>
<path d="M82.9441 82.5309L87.4001 73.0029L80.6191 81.0269L82.9441 82.5309Z" fill="#D3D8DE"/>
<path d="M15.5146 97.0752L31.7906 106.102L32.6627 114.126L34.3096 106.604C34.3096 106.604 36.2477 107.105 37.9907 106.855C39.7347 106.604 48.7927 101.777 48.7927 101.777C48.7927 101.777 39.1526 104.347 37.2156 104.347C35.2786 104.347 15.5146 97.0752 15.5146 97.0752Z" fill="#D3D8DE"/>
<path d="M15.515 97.0752C15.515 97.0752 5.43901 111.117 8.54001 121.147L34.891 134.186L31.791 106.102L15.515 97.0752Z" fill="#919194"/>
<path d="M32.954 117.135L31.7911 128.168L8.54004 121.147L34.8911 134.186L53.4921 130.174L35.2791 129.673L32.954 117.135Z" fill="#606063"/>
</svg>
