<svg width="54" height="7" viewBox="0 0 54 7" fill="none" xmlns="http://www.w3.org/2000/svg">
<path d="M3.95283 7H0V0H3.95283V7Z" fill="#D6D6D6"/>
<path d="M28.9768 7H25.0239V0H28.9768V7Z" fill="#D6D6D6"/>
<path d="M25.0256 3.50162H3.95459V2.0805H25.0256V3.50162Z" fill="#D6D6D6"/>
<path d="M7.30431 4.9202H5.01709V3.50203H7.30431V4.9202Z" fill="#D6D6D6"/>
<path d="M11.4723 4.92044H9.18506V3.50228H11.4723V4.92044Z" fill="#D6D6D6"/>
<path d="M15.6417 4.9202H13.3545V3.50203H15.6417V4.9202Z" fill="#D6D6D6"/>
<path d="M19.8106 4.9202H17.5234V3.50203H19.8106V4.9202Z" fill="#D6D6D6"/>
<path d="M23.9801 4.92044H21.6929V3.50228H23.9801V4.92044Z" fill="#D6D6D6"/>
<path d="M28.9768 7H25.0239V0H28.9768V7Z" fill="#D6D6D6"/>
<path d="M54.0002 7H50.0474V0H54.0002V7Z" fill="#D6D6D6"/>
<path d="M50.0475 3.50183H28.9766V2.08071H50.0475V3.50183Z" fill="#D6D6D6"/>
<path d="M32.3263 4.92041H30.0391V3.50225H32.3263V4.92041Z" fill="#D6D6D6"/>
<path d="M36.4962 4.9202H34.209V3.50203H36.4962V4.9202Z" fill="#D6D6D6"/>
<path d="M40.6651 4.92041H38.3779V3.50225H40.6651V4.92041Z" fill="#D6D6D6"/>
<path d="M44.8351 4.9202H42.5479V3.50203H44.8351V4.9202Z" fill="#D6D6D6"/>
<path d="M49.003 4.92041H46.7158V3.50225H49.003V4.92041Z" fill="#D6D6D6"/>
</svg>
