<svg width="985" height="852" viewBox="0 0 985 852" fill="none" xmlns="http://www.w3.org/2000/svg">
<g clip-path="url(#clip0_154_140)">
<rect width="985" height="852" fill="white"/>
<path opacity="0.2" d="M56.9994 6.28027H54.572V845.72H56.9994V6.28027Z" fill="#545454"/>
<path opacity="0.2" d="M105.523 6.28027H103.096V845.72H105.523V6.28027Z" fill="#545454"/>
<path opacity="0.2" d="M154.047 6.28027H151.62V845.72H154.047V6.28027Z" fill="#545454"/>
<path opacity="0.2" d="M251.703 8.37354H249.275V847.813H251.703V8.37354Z" fill="#545454"/>
<path opacity="0.2" d="M202.569 6.28027H200.144V845.72H202.569V6.28027Z" fill="#545454"/>
<path opacity="0.2" d="M299.617 6.28027H297.192V845.72H299.617V6.28027Z" fill="#545454"/>
<path opacity="0.2" d="M348.141 6.28027H345.716V845.72H348.141V6.28027Z" fill="#545454"/>
<path opacity="0.2" d="M396.665 6.28027H394.24V845.72H396.665V6.28027Z" fill="#545454"/>
<path opacity="0.2" d="M445.189 6.28027H442.764V845.72H445.189V6.28027Z" fill="#545454"/>
<path opacity="0.2" d="M542.237 6.28027H539.812V845.72H542.237V6.28027Z" fill="#545454"/>
<path opacity="0.2" d="M496.135 12.5605H493.71V852H496.135V12.5605Z" fill="#545454"/>
<path opacity="0.2" d="M590.763 6.28027H588.335V845.72H590.763V6.28027Z" fill="#545454"/>
<path opacity="0.2" d="M639.284 6.28027H636.857V845.72H639.284V6.28027Z" fill="#545454"/>
<path opacity="0.2" d="M687.808 6.28027H685.383V845.72H687.808V6.28027Z" fill="#545454"/>
<path opacity="0.2" d="M784.856 6.28027H782.431V845.72H784.856V6.28027Z" fill="#545454"/>
<path opacity="0.2" d="M738.15 8.37354H735.725V847.813H738.15V8.37354Z" fill="#545454"/>
<path opacity="0.2" d="M833.382 6.28027H830.955V845.72H833.382V6.28027Z" fill="#545454"/>
<path opacity="0.2" d="M881.904 6.28027H879.477V845.72H881.904V6.28027Z" fill="#545454"/>
<path opacity="0.2" d="M930.428 6.28027H928.003V845.72H930.428V6.28027Z" fill="#545454"/>
<path opacity="0.2" d="M977.74 47.2036H7.2605V49.3033H977.74V47.2036Z" fill="#545454"/>
<path opacity="0.2" d="M977.74 89.1753H7.2605V91.2749H977.74V89.1753Z" fill="#545454"/>
<path opacity="0.2" d="M977.74 131.147H7.2605V133.247H977.74V131.147Z" fill="#545454"/>
<path opacity="0.2" d="M977.74 173.12H7.2605V175.219H977.74V173.12Z" fill="#545454"/>
<path opacity="0.2" d="M977.74 257.063H7.2605V259.163H977.74V257.063Z" fill="#545454"/>
<path opacity="0.2" d="M977.74 299.036H7.2605V301.135H977.74V299.036Z" fill="#545454"/>
<path opacity="0.2" d="M977.74 341.007H7.2605V343.107H977.74V341.007Z" fill="#545454"/>
<path opacity="0.2" d="M977.74 382.979H7.2605V385.079H977.74V382.979Z" fill="#545454"/>
<path opacity="0.2" d="M975.319 422.86H4.84033V424.96H975.319V422.86Z" fill="#545454"/>
<path opacity="0.2" d="M977.74 217.71H7.2605V219.81H977.74V217.71Z" fill="#545454"/>
<path opacity="0.2" d="M977.74 466.923H7.2605V469.021H977.74V466.923Z" fill="#545454"/>
<path opacity="0.2" d="M977.74 508.895H7.2605V510.995H977.74V508.895Z" fill="#545454"/>
<path opacity="0.2" d="M977.74 550.865H7.2605V552.965H977.74V550.865Z" fill="#545454"/>
<path opacity="0.2" d="M977.74 592.839H7.2605V594.937H977.74V592.839Z" fill="#545454"/>
<path opacity="0.2" d="M977.74 676.783H7.2605V678.881H977.74V676.783Z" fill="#545454"/>
<path opacity="0.2" d="M980.16 634.29H9.68066V636.388H980.16V634.29Z" fill="#545454"/>
<path opacity="0.2" d="M7.7605 719.255H977.24V720.355H7.7605V719.255Z" fill="#545454" stroke="black"/>
<path opacity="0.2" d="M977.74 760.725H7.2605V762.825H977.74V760.725Z" fill="#545454"/>
<path opacity="0.2" d="M977.74 802.699H7.2605V804.797H977.74V802.699Z" fill="#545454"/>
</g>
<defs>
<clipPath id="clip0_154_140">
<rect width="985" height="852" fill="white"/>
</clipPath>
</defs>
</svg>
